<svg width="1920" height="1080" viewBox="0 0 1920 1080" fill="none" xmlns="http://www.w3.org/2000/svg">
<g id="sleep sets sets">
<rect width="1920" height="1080" fill="white"/>
<path id="Sleep sets" d="M785.557 83.2892C785.375 81.4558 784.595 80.0316 783.216 79.0164C781.837 78.0013 779.966 77.4937 777.603 77.4937C775.997 77.4937 774.641 77.721 773.534 78.1755C772.428 78.6149 771.58 79.2285 770.989 80.0164C770.413 80.8043 770.125 81.6982 770.125 82.6982C770.095 83.5316 770.269 84.2588 770.648 84.8801C771.042 85.5013 771.58 86.0392 772.262 86.4937C772.944 86.9331 773.731 87.3195 774.625 87.6528C775.519 87.971 776.474 88.2437 777.489 88.471L781.671 89.471C783.701 89.9255 785.565 90.5316 787.262 91.2892C788.959 92.0467 790.428 92.9785 791.671 94.0846C792.913 95.1907 793.875 96.4937 794.557 97.9937C795.254 99.4937 795.61 101.213 795.625 103.153C795.61 106.001 794.883 108.471 793.444 110.562C792.019 112.638 789.959 114.251 787.262 115.403C784.58 116.539 781.345 117.107 777.557 117.107C773.8 117.107 770.527 116.532 767.739 115.38C764.966 114.229 762.8 112.524 761.239 110.266C759.694 107.994 758.883 105.183 758.807 101.835H768.33C768.436 103.395 768.883 104.698 769.671 105.744C770.474 106.774 771.542 107.554 772.875 108.085C774.224 108.6 775.747 108.857 777.444 108.857C779.11 108.857 780.557 108.615 781.784 108.13C783.027 107.645 783.989 106.971 784.671 106.107C785.353 105.244 785.694 104.251 785.694 103.13C785.694 102.085 785.383 101.206 784.762 100.494C784.156 99.7816 783.262 99.1755 782.08 98.6755C780.913 98.1755 779.481 97.721 777.784 97.3119L772.716 96.0392C768.792 95.0846 765.694 93.5922 763.421 91.5619C761.148 89.5316 760.019 86.7967 760.034 83.3573C760.019 80.5391 760.769 78.077 762.284 75.971C763.815 73.8649 765.913 72.221 768.58 71.0392C771.247 69.8573 774.277 69.2664 777.671 69.2664C781.125 69.2664 784.141 69.8573 786.716 71.0392C789.307 72.221 791.322 73.8649 792.762 75.971C794.201 78.077 794.944 80.5164 794.989 83.2892H785.557ZM811.745 69.9028V116.448H802.063V69.9028H811.745ZM835.409 117.13C831.819 117.13 828.728 116.403 826.137 114.948C823.561 113.479 821.576 111.403 820.182 108.721C818.788 106.024 818.091 102.835 818.091 99.1528C818.091 95.5619 818.788 92.4104 820.182 89.6982C821.576 86.9861 823.538 84.8725 826.069 83.3573C828.614 81.8422 831.599 81.0846 835.023 81.0846C837.326 81.0846 839.47 81.4558 841.455 82.1982C843.455 82.9255 845.197 84.024 846.682 85.4937C848.182 86.9634 849.349 88.8119 850.182 91.0392C851.016 93.2513 851.432 95.8422 851.432 98.8119V101.471H821.955V95.471H842.319C842.319 94.077 842.016 92.8422 841.409 91.7664C840.803 90.6907 839.962 89.8498 838.887 89.2437C837.826 88.6225 836.591 88.3119 835.182 88.3119C833.712 88.3119 832.409 88.6528 831.273 89.3346C830.152 90.0013 829.273 90.9028 828.637 92.0392C828 93.1604 827.675 94.4104 827.659 95.7892V101.494C827.659 103.221 827.978 104.713 828.614 105.971C829.266 107.229 830.182 108.198 831.364 108.88C832.546 109.562 833.947 109.903 835.569 109.903C836.644 109.903 837.629 109.751 838.523 109.448C839.417 109.145 840.182 108.691 840.819 108.085C841.455 107.479 841.94 106.736 842.273 105.857L851.228 106.448C850.773 108.6 849.841 110.479 848.432 112.085C847.038 113.676 845.235 114.918 843.023 115.812C840.826 116.691 838.288 117.13 835.409 117.13ZM873.659 117.13C870.069 117.13 866.978 116.403 864.387 114.948C861.811 113.479 859.826 111.403 858.432 108.721C857.038 106.024 856.341 102.835 856.341 99.1528C856.341 95.5619 857.038 92.4104 858.432 89.6982C859.826 86.9861 861.788 84.8725 864.319 83.3573C866.864 81.8422 869.849 81.0846 873.273 81.0846C875.576 81.0846 877.72 81.4558 879.705 82.1982C881.705 82.9255 883.447 84.024 884.932 85.4937C886.432 86.9634 887.599 88.8119 888.432 91.0392C889.266 93.2513 889.682 95.8422 889.682 98.8119V101.471H860.205V95.471H880.569C880.569 94.077 880.266 92.8422 879.659 91.7664C879.053 90.6907 878.212 89.8498 877.137 89.2437C876.076 88.6225 874.841 88.3119 873.432 88.3119C871.962 88.3119 870.659 88.6528 869.523 89.3346C868.402 90.0013 867.523 90.9028 866.887 92.0392C866.25 93.1604 865.925 94.4104 865.909 95.7892V101.494C865.909 103.221 866.228 104.713 866.864 105.971C867.516 107.229 868.432 108.198 869.614 108.88C870.796 109.562 872.197 109.903 873.819 109.903C874.894 109.903 875.879 109.751 876.773 109.448C877.667 109.145 878.432 108.691 879.069 108.085C879.705 107.479 880.19 106.736 880.523 105.857L889.478 106.448C889.023 108.6 888.091 110.479 886.682 112.085C885.288 113.676 883.485 114.918 881.273 115.812C879.076 116.691 876.538 117.13 873.659 117.13ZM896 129.539V81.5392H905.546V87.4028H905.978C906.402 86.4634 907.016 85.5088 907.819 84.5392C908.637 83.5543 909.697 82.7361 911 82.0846C912.319 81.4179 913.955 81.0846 915.909 81.0846C918.455 81.0846 920.803 81.7513 922.955 83.0846C925.106 84.4028 926.826 86.3952 928.114 89.0619C929.402 91.7134 930.046 95.0392 930.046 99.0392C930.046 102.933 929.417 106.221 928.159 108.903C926.917 111.569 925.22 113.592 923.069 114.971C920.932 116.335 918.538 117.016 915.887 117.016C914.008 117.016 912.409 116.706 911.091 116.085C909.788 115.463 908.72 114.683 907.887 113.744C907.053 112.789 906.417 111.827 905.978 110.857H905.682V129.539H896ZM905.478 98.9937C905.478 101.069 905.766 102.88 906.341 104.426C906.917 105.971 907.75 107.176 908.841 108.039C909.932 108.888 911.258 109.312 912.819 109.312C914.394 109.312 915.728 108.88 916.819 108.016C917.909 107.138 918.735 105.926 919.296 104.38C919.872 102.819 920.159 101.024 920.159 98.9937C920.159 96.9785 919.879 95.2058 919.319 93.6755C918.758 92.1452 917.932 90.9482 916.841 90.0846C915.75 89.221 914.409 88.7892 912.819 88.7892C911.243 88.7892 909.909 89.2058 908.819 90.0392C907.743 90.8725 906.917 92.0543 906.341 93.5846C905.766 95.1149 905.478 96.9179 905.478 98.9937ZM980.358 91.4937L971.495 92.0392C971.343 91.2816 971.017 90.5998 970.517 89.9937C970.017 89.3725 969.358 88.8801 968.54 88.5164C967.737 88.1376 966.775 87.9482 965.654 87.9482C964.154 87.9482 962.889 88.2664 961.858 88.9028C960.828 89.524 960.313 90.3573 960.313 91.4028C960.313 92.2361 960.646 92.9407 961.313 93.5164C961.98 94.0922 963.123 94.5543 964.745 94.9028L971.063 96.1755C974.457 96.8725 976.987 97.9937 978.654 99.5392C980.32 101.085 981.154 103.115 981.154 105.63C981.154 107.918 980.48 109.926 979.131 111.653C977.798 113.38 975.964 114.729 973.631 115.698C971.313 116.653 968.639 117.13 965.608 117.13C960.987 117.13 957.305 116.168 954.563 114.244C951.836 112.304 950.237 109.668 949.767 106.335L959.29 105.835C959.578 107.244 960.275 108.319 961.381 109.062C962.487 109.789 963.904 110.153 965.631 110.153C967.328 110.153 968.692 109.827 969.722 109.176C970.767 108.509 971.298 107.653 971.313 106.607C971.298 105.729 970.926 105.009 970.199 104.448C969.472 103.872 968.351 103.433 966.836 103.13L960.79 101.926C957.381 101.244 954.843 100.062 953.176 98.3801C951.525 96.6982 950.699 94.5543 950.699 91.9482C950.699 89.7058 951.305 87.774 952.517 86.1528C953.745 84.5316 955.464 83.2816 957.676 82.4028C959.904 81.524 962.51 81.0846 965.495 81.0846C969.904 81.0846 973.373 82.0164 975.904 83.8801C978.449 85.7437 979.934 88.2816 980.358 91.4937ZM1003.16 117.13C999.569 117.13 996.478 116.403 993.887 114.948C991.311 113.479 989.326 111.403 987.932 108.721C986.538 106.024 985.841 102.835 985.841 99.1528C985.841 95.5619 986.538 92.4104 987.932 89.6982C989.326 86.9861 991.288 84.8725 993.819 83.3573C996.364 81.8422 999.349 81.0846 1002.77 81.0846C1005.08 81.0846 1007.22 81.4558 1009.2 82.1982C1011.2 82.9255 1012.95 84.024 1014.43 85.4937C1015.93 86.9634 1017.1 88.8119 1017.93 91.0392C1018.77 93.2513 1019.18 95.8422 1019.18 98.8119V101.471H989.705V95.471H1010.07C1010.07 94.077 1009.77 92.8422 1009.16 91.7664C1008.55 90.6907 1007.71 89.8498 1006.64 89.2437C1005.58 88.6225 1004.34 88.3119 1002.93 88.3119C1001.46 88.3119 1000.16 88.6528 999.023 89.3346C997.902 90.0013 997.023 90.9028 996.387 92.0392C995.75 93.1604 995.425 94.4104 995.409 95.7892V101.494C995.409 103.221 995.728 104.713 996.364 105.971C997.016 107.229 997.932 108.198 999.114 108.88C1000.3 109.562 1001.7 109.903 1003.32 109.903C1004.39 109.903 1005.38 109.751 1006.27 109.448C1007.17 109.145 1007.93 108.691 1008.57 108.085C1009.2 107.479 1009.69 106.736 1010.02 105.857L1018.98 106.448C1018.52 108.6 1017.59 110.479 1016.18 112.085C1014.79 113.676 1012.99 114.918 1010.77 115.812C1008.58 116.691 1006.04 117.13 1003.16 117.13ZM1044.07 81.5392V88.8119H1023.05V81.5392H1044.07ZM1027.82 73.1755H1037.5V105.721C1037.5 106.615 1037.64 107.312 1037.91 107.812C1038.18 108.297 1038.56 108.638 1039.05 108.835C1039.55 109.032 1040.12 109.13 1040.77 109.13C1041.23 109.13 1041.68 109.092 1042.14 109.016C1042.59 108.926 1042.94 108.857 1043.18 108.812L1044.7 116.016C1044.22 116.168 1043.54 116.342 1042.66 116.539C1041.78 116.751 1040.71 116.88 1039.45 116.926C1037.12 117.016 1035.08 116.706 1033.32 115.994C1031.58 115.282 1030.22 114.176 1029.25 112.676C1028.28 111.176 1027.8 109.282 1027.82 106.994V73.1755ZM1078.98 91.4937L1070.12 92.0392C1069.97 91.2816 1069.64 90.5998 1069.14 89.9937C1068.64 89.3725 1067.98 88.8801 1067.17 88.5164C1066.36 88.1376 1065.4 87.9482 1064.28 87.9482C1062.78 87.9482 1061.51 88.2664 1060.48 88.9028C1059.45 89.524 1058.94 90.3573 1058.94 91.4028C1058.94 92.2361 1059.27 92.9407 1059.94 93.5164C1060.6 94.0922 1061.75 94.5543 1063.37 94.9028L1069.69 96.1755C1073.08 96.8725 1075.61 97.9937 1077.28 99.5392C1078.95 101.085 1079.78 103.115 1079.78 105.63C1079.78 107.918 1079.1 109.926 1077.76 111.653C1076.42 113.38 1074.59 114.729 1072.26 115.698C1069.94 116.653 1067.26 117.13 1064.23 117.13C1059.61 117.13 1055.93 116.168 1053.19 114.244C1050.46 112.304 1048.86 109.668 1048.39 106.335L1057.92 105.835C1058.2 107.244 1058.9 108.319 1060.01 109.062C1061.11 109.789 1062.53 110.153 1064.26 110.153C1065.95 110.153 1067.32 109.827 1068.35 109.176C1069.39 108.509 1069.92 107.653 1069.94 106.607C1069.92 105.729 1069.55 105.009 1068.82 104.448C1068.1 103.872 1066.98 103.433 1065.46 103.13L1059.42 101.926C1056.01 101.244 1053.47 100.062 1051.8 98.3801C1050.15 96.6982 1049.32 94.5543 1049.32 91.9482C1049.32 89.7058 1049.93 87.774 1051.14 86.1528C1052.37 84.5316 1054.09 83.2816 1056.3 82.4028C1058.53 81.524 1061.13 81.0846 1064.12 81.0846C1068.53 81.0846 1072 82.0164 1074.53 83.8801C1077.07 85.7437 1078.56 88.2816 1078.98 91.4937Z" fill="black"/>
<path id="Introduce sleep sets Pb of sleep blocked execution" d="M73.0778 290.901V314.174H70.2596V290.901H73.0778ZM81.0465 303.674V314.174H78.3647V296.719H80.9556V299.447H81.1829C81.592 298.56 82.2132 297.848 83.0465 297.31C83.8799 296.765 84.9556 296.492 86.2738 296.492C87.4556 296.492 88.4897 296.734 89.3761 297.219C90.2624 297.697 90.9518 298.424 91.4442 299.401C91.9367 300.371 92.1829 301.598 92.1829 303.083V314.174H89.5011V303.265C89.5011 301.894 89.145 300.825 88.4329 300.06C87.7208 299.287 86.7435 298.901 85.5011 298.901C84.645 298.901 83.8799 299.087 83.2056 299.458C82.5389 299.829 82.0124 300.371 81.6261 301.083C81.2397 301.795 81.0465 302.659 81.0465 303.674ZM104.674 296.719V298.992H95.6289V296.719H104.674ZM98.2653 292.537H100.947V309.174C100.947 309.931 101.057 310.5 101.277 310.878C101.504 311.25 101.792 311.5 102.14 311.628C102.496 311.75 102.871 311.81 103.265 311.81C103.561 311.81 103.803 311.795 103.993 311.765C104.182 311.727 104.333 311.697 104.447 311.674L104.993 314.083C104.811 314.151 104.557 314.219 104.231 314.287C103.905 314.363 103.493 314.401 102.993 314.401C102.235 314.401 101.493 314.238 100.765 313.912C100.046 313.587 99.4471 313.09 98.9698 312.424C98.5001 311.757 98.2653 310.916 98.2653 309.901V292.537ZM108.708 314.174V296.719H111.299V299.356H111.481C111.799 298.492 112.375 297.791 113.208 297.253C114.042 296.715 114.981 296.447 116.027 296.447C116.224 296.447 116.47 296.45 116.765 296.458C117.061 296.465 117.284 296.477 117.436 296.492V299.219C117.345 299.197 117.136 299.162 116.811 299.117C116.493 299.064 116.155 299.037 115.799 299.037C114.951 299.037 114.193 299.215 113.527 299.572C112.868 299.92 112.345 300.405 111.958 301.026C111.58 301.64 111.39 302.34 111.39 303.128V314.174H108.708ZM127.174 314.537C125.599 314.537 124.216 314.162 123.027 313.412C121.845 312.662 120.921 311.613 120.254 310.265C119.595 308.916 119.265 307.34 119.265 305.537C119.265 303.719 119.595 302.132 120.254 300.776C120.921 299.42 121.845 298.367 123.027 297.617C124.216 296.867 125.599 296.492 127.174 296.492C128.75 296.492 130.129 296.867 131.311 297.617C132.5 298.367 133.424 299.42 134.083 300.776C134.75 302.132 135.083 303.719 135.083 305.537C135.083 307.34 134.75 308.916 134.083 310.265C133.424 311.613 132.5 312.662 131.311 313.412C130.129 314.162 128.75 314.537 127.174 314.537ZM127.174 312.128C128.371 312.128 129.356 311.822 130.129 311.208C130.902 310.594 131.474 309.787 131.845 308.787C132.216 307.787 132.402 306.704 132.402 305.537C132.402 304.371 132.216 303.284 131.845 302.276C131.474 301.269 130.902 300.454 130.129 299.833C129.356 299.212 128.371 298.901 127.174 298.901C125.977 298.901 124.993 299.212 124.22 299.833C123.447 300.454 122.875 301.269 122.504 302.276C122.133 303.284 121.947 304.371 121.947 305.537C121.947 306.704 122.133 307.787 122.504 308.787C122.875 309.787 123.447 310.594 124.22 311.208C124.993 311.822 125.977 312.128 127.174 312.128ZM145.768 314.537C144.314 314.537 143.029 314.17 141.916 313.435C140.802 312.693 139.931 311.647 139.302 310.299C138.673 308.943 138.359 307.34 138.359 305.492C138.359 303.659 138.673 302.068 139.302 300.719C139.931 299.371 140.806 298.329 141.927 297.594C143.048 296.859 144.344 296.492 145.814 296.492C146.95 296.492 147.848 296.681 148.507 297.06C149.173 297.431 149.681 297.856 150.029 298.333C150.386 298.803 150.662 299.189 150.859 299.492H151.086V290.901H153.768V314.174H151.177V311.492H150.859C150.662 311.81 150.382 312.212 150.018 312.697C149.654 313.174 149.136 313.602 148.461 313.981C147.787 314.352 146.889 314.537 145.768 314.537ZM146.132 312.128C147.208 312.128 148.117 311.848 148.859 311.287C149.601 310.719 150.166 309.935 150.552 308.935C150.939 307.928 151.132 306.765 151.132 305.447C151.132 304.144 150.942 303.003 150.564 302.026C150.185 301.041 149.624 300.276 148.882 299.731C148.139 299.178 147.223 298.901 146.132 298.901C144.995 298.901 144.048 299.193 143.291 299.776C142.541 300.352 141.976 301.136 141.598 302.128C141.226 303.113 141.041 304.219 141.041 305.447C141.041 306.689 141.23 307.818 141.609 308.833C141.995 309.84 142.564 310.644 143.314 311.242C144.071 311.833 145.011 312.128 146.132 312.128ZM170.052 307.037V296.719H172.734V314.174H170.052V311.219H169.87C169.461 312.106 168.825 312.859 167.961 313.481C167.098 314.094 166.007 314.401 164.689 314.401C163.598 314.401 162.628 314.162 161.779 313.685C160.931 313.2 160.264 312.473 159.779 311.503C159.295 310.526 159.052 309.295 159.052 307.81V296.719H161.734V307.628C161.734 308.901 162.09 309.916 162.802 310.674C163.522 311.431 164.439 311.81 165.552 311.81C166.219 311.81 166.897 311.64 167.586 311.299C168.283 310.958 168.867 310.435 169.336 309.731C169.814 309.026 170.052 308.128 170.052 307.037ZM184.737 314.537C183.1 314.537 181.691 314.151 180.51 313.378C179.328 312.606 178.419 311.541 177.782 310.185C177.146 308.829 176.828 307.28 176.828 305.537C176.828 303.765 177.154 302.2 177.805 300.844C178.464 299.481 179.381 298.416 180.555 297.651C181.737 296.878 183.116 296.492 184.691 296.492C185.919 296.492 187.025 296.719 188.01 297.174C188.994 297.628 189.801 298.265 190.43 299.083C191.059 299.901 191.449 300.856 191.6 301.947H188.919C188.714 301.151 188.26 300.447 187.555 299.833C186.858 299.212 185.919 298.901 184.737 298.901C183.691 298.901 182.775 299.174 181.987 299.719C181.207 300.257 180.597 301.019 180.157 302.003C179.725 302.981 179.51 304.128 179.51 305.447C179.51 306.795 179.722 307.969 180.146 308.969C180.578 309.969 181.184 310.746 181.964 311.299C182.752 311.852 183.676 312.128 184.737 312.128C185.434 312.128 186.066 312.007 186.635 311.765C187.203 311.522 187.684 311.174 188.078 310.719C188.472 310.265 188.752 309.719 188.919 309.083H191.6C191.449 310.113 191.074 311.041 190.475 311.867C189.885 312.685 189.1 313.337 188.123 313.822C187.154 314.299 186.025 314.537 184.737 314.537ZM202.839 314.537C201.157 314.537 199.707 314.166 198.487 313.424C197.275 312.674 196.339 311.628 195.68 310.287C195.029 308.939 194.703 307.371 194.703 305.583C194.703 303.795 195.029 302.219 195.68 300.856C196.339 299.484 197.256 298.416 198.43 297.651C199.612 296.878 200.991 296.492 202.566 296.492C203.475 296.492 204.373 296.644 205.26 296.947C206.146 297.25 206.953 297.742 207.68 298.424C208.407 299.098 208.987 299.992 209.419 301.106C209.85 302.219 210.066 303.59 210.066 305.219V306.356H196.612V304.037H207.339C207.339 303.053 207.142 302.174 206.748 301.401C206.362 300.628 205.809 300.019 205.089 299.572C204.377 299.125 203.536 298.901 202.566 298.901C201.498 298.901 200.574 299.166 199.794 299.697C199.021 300.219 198.426 300.901 198.01 301.742C197.593 302.583 197.385 303.484 197.385 304.447V305.992C197.385 307.31 197.612 308.428 198.066 309.344C198.529 310.253 199.169 310.947 199.987 311.424C200.805 311.894 201.756 312.128 202.839 312.128C203.544 312.128 204.18 312.03 204.748 311.833C205.324 311.628 205.82 311.325 206.237 310.924C206.654 310.515 206.975 310.007 207.203 309.401L209.794 310.128C209.521 311.007 209.063 311.78 208.419 312.447C207.775 313.106 206.979 313.621 206.032 313.992C205.085 314.356 204.021 314.537 202.839 314.537ZM235.51 300.628L233.1 301.31C232.949 300.909 232.725 300.519 232.43 300.14C232.142 299.753 231.748 299.435 231.248 299.185C230.748 298.935 230.108 298.81 229.328 298.81C228.26 298.81 227.369 299.056 226.657 299.549C225.953 300.034 225.6 300.651 225.6 301.401C225.6 302.068 225.843 302.594 226.328 302.981C226.813 303.367 227.57 303.689 228.6 303.947L231.191 304.583C232.752 304.962 233.915 305.541 234.68 306.322C235.445 307.094 235.828 308.09 235.828 309.31C235.828 310.31 235.54 311.204 234.964 311.992C234.396 312.78 233.6 313.401 232.578 313.856C231.555 314.31 230.366 314.537 229.01 314.537C227.229 314.537 225.756 314.151 224.589 313.378C223.422 312.606 222.684 311.477 222.373 309.992L224.919 309.356C225.161 310.295 225.619 311 226.294 311.469C226.975 311.939 227.866 312.174 228.964 312.174C230.214 312.174 231.207 311.909 231.941 311.378C232.684 310.84 233.055 310.197 233.055 309.447C233.055 308.84 232.843 308.333 232.419 307.924C231.994 307.507 231.343 307.197 230.464 306.992L227.555 306.31C225.957 305.931 224.782 305.344 224.032 304.549C223.29 303.746 222.919 302.742 222.919 301.537C222.919 300.553 223.195 299.681 223.748 298.924C224.309 298.166 225.07 297.572 226.032 297.14C227.002 296.708 228.1 296.492 229.328 296.492C231.055 296.492 232.411 296.871 233.396 297.628C234.388 298.386 235.093 299.386 235.51 300.628ZM242.547 290.901V314.174H239.865V290.901H242.547ZM254.777 314.537C253.095 314.537 251.644 314.166 250.424 313.424C249.212 312.674 248.277 311.628 247.618 310.287C246.966 308.939 246.64 307.371 246.64 305.583C246.64 303.795 246.966 302.219 247.618 300.856C248.277 299.484 249.193 298.416 250.368 297.651C251.549 296.878 252.928 296.492 254.504 296.492C255.413 296.492 256.311 296.644 257.197 296.947C258.083 297.25 258.89 297.742 259.618 298.424C260.345 299.098 260.924 299.992 261.356 301.106C261.788 302.219 262.004 303.59 262.004 305.219V306.356H248.549V304.037H259.277C259.277 303.053 259.08 302.174 258.686 301.401C258.299 300.628 257.746 300.019 257.027 299.572C256.315 299.125 255.474 298.901 254.504 298.901C253.436 298.901 252.511 299.166 251.731 299.697C250.958 300.219 250.364 300.901 249.947 301.742C249.53 302.583 249.322 303.484 249.322 304.447V305.992C249.322 307.31 249.549 308.428 250.004 309.344C250.466 310.253 251.106 310.947 251.924 311.424C252.743 311.894 253.693 312.128 254.777 312.128C255.481 312.128 256.118 312.03 256.686 311.833C257.261 311.628 257.758 311.325 258.174 310.924C258.591 310.515 258.913 310.007 259.14 309.401L261.731 310.128C261.458 311.007 261 311.78 260.356 312.447C259.712 313.106 258.917 313.621 257.97 313.992C257.023 314.356 255.958 314.537 254.777 314.537ZM273.402 314.537C271.72 314.537 270.269 314.166 269.049 313.424C267.837 312.674 266.902 311.628 266.243 310.287C265.591 308.939 265.265 307.371 265.265 305.583C265.265 303.795 265.591 302.219 266.243 300.856C266.902 299.484 267.818 298.416 268.993 297.651C270.174 296.878 271.553 296.492 273.129 296.492C274.038 296.492 274.936 296.644 275.822 296.947C276.708 297.25 277.515 297.742 278.243 298.424C278.97 299.098 279.549 299.992 279.981 301.106C280.413 302.219 280.629 303.59 280.629 305.219V306.356H267.174V304.037H277.902C277.902 303.053 277.705 302.174 277.311 301.401C276.924 300.628 276.371 300.019 275.652 299.572C274.94 299.125 274.099 298.901 273.129 298.901C272.061 298.901 271.136 299.166 270.356 299.697C269.583 300.219 268.989 300.901 268.572 301.742C268.155 302.583 267.947 303.484 267.947 304.447V305.992C267.947 307.31 268.174 308.428 268.629 309.344C269.091 310.253 269.731 310.947 270.549 311.424C271.368 311.894 272.318 312.128 273.402 312.128C274.106 312.128 274.743 312.03 275.311 311.833C275.886 311.628 276.383 311.325 276.799 310.924C277.216 310.515 277.538 310.007 277.765 309.401L280.356 310.128C280.083 311.007 279.625 311.78 278.981 312.447C278.337 313.106 277.542 313.621 276.595 313.992C275.648 314.356 274.583 314.537 273.402 314.537ZM284.708 320.719V296.719H287.299V299.492H287.618C287.815 299.189 288.087 298.803 288.436 298.333C288.792 297.856 289.299 297.431 289.958 297.06C290.625 296.681 291.527 296.492 292.663 296.492C294.133 296.492 295.428 296.859 296.549 297.594C297.671 298.329 298.546 299.371 299.174 300.719C299.803 302.068 300.118 303.659 300.118 305.492C300.118 307.34 299.803 308.943 299.174 310.299C298.546 311.647 297.674 312.693 296.561 313.435C295.447 314.17 294.163 314.537 292.708 314.537C291.587 314.537 290.69 314.352 290.015 313.981C289.341 313.602 288.822 313.174 288.458 312.697C288.095 312.212 287.815 311.81 287.618 311.492H287.39V320.719H284.708ZM287.345 305.447C287.345 306.765 287.538 307.928 287.924 308.935C288.311 309.935 288.875 310.719 289.618 311.287C290.36 311.848 291.269 312.128 292.345 312.128C293.466 312.128 294.402 311.833 295.152 311.242C295.909 310.644 296.477 309.84 296.856 308.833C297.243 307.818 297.436 306.689 297.436 305.447C297.436 304.219 297.246 303.113 296.868 302.128C296.496 301.136 295.932 300.352 295.174 299.776C294.424 299.193 293.481 298.901 292.345 298.901C291.254 298.901 290.337 299.178 289.595 299.731C288.852 300.276 288.292 301.041 287.913 302.026C287.534 303.003 287.345 304.144 287.345 305.447ZM325.572 300.628L323.163 301.31C323.011 300.909 322.788 300.519 322.493 300.14C322.205 299.753 321.811 299.435 321.311 299.185C320.811 298.935 320.171 298.81 319.39 298.81C318.322 298.81 317.432 299.056 316.72 299.549C316.015 300.034 315.663 300.651 315.663 301.401C315.663 302.068 315.905 302.594 316.39 302.981C316.875 303.367 317.633 303.689 318.663 303.947L321.254 304.583C322.815 304.962 323.977 305.541 324.743 306.322C325.508 307.094 325.89 308.09 325.89 309.31C325.89 310.31 325.602 311.204 325.027 311.992C324.458 312.78 323.663 313.401 322.64 313.856C321.618 314.31 320.428 314.537 319.072 314.537C317.292 314.537 315.818 314.151 314.652 313.378C313.485 312.606 312.746 311.477 312.436 309.992L314.981 309.356C315.224 310.295 315.682 311 316.356 311.469C317.038 311.939 317.928 312.174 319.027 312.174C320.277 312.174 321.269 311.909 322.004 311.378C322.746 310.84 323.118 310.197 323.118 309.447C323.118 308.84 322.905 308.333 322.481 307.924C322.057 307.507 321.405 307.197 320.527 306.992L317.618 306.31C316.019 305.931 314.845 305.344 314.095 304.549C313.352 303.746 312.981 302.742 312.981 301.537C312.981 300.553 313.258 299.681 313.811 298.924C314.371 298.166 315.133 297.572 316.095 297.14C317.065 296.708 318.163 296.492 319.39 296.492C321.118 296.492 322.474 296.871 323.458 297.628C324.451 298.386 325.155 299.386 325.572 300.628ZM337.245 314.537C335.564 314.537 334.113 314.166 332.893 313.424C331.681 312.674 330.745 311.628 330.086 310.287C329.435 308.939 329.109 307.371 329.109 305.583C329.109 303.795 329.435 302.219 330.086 300.856C330.745 299.484 331.662 298.416 332.836 297.651C334.018 296.878 335.397 296.492 336.973 296.492C337.882 296.492 338.779 296.644 339.666 296.947C340.552 297.25 341.359 297.742 342.086 298.424C342.814 299.098 343.393 299.992 343.825 301.106C344.257 302.219 344.473 303.59 344.473 305.219V306.356H331.018V304.037H341.745C341.745 303.053 341.548 302.174 341.154 301.401C340.768 300.628 340.215 300.019 339.495 299.572C338.783 299.125 337.942 298.901 336.973 298.901C335.904 298.901 334.98 299.166 334.2 299.697C333.427 300.219 332.833 300.901 332.416 301.742C331.999 302.583 331.791 303.484 331.791 304.447V305.992C331.791 307.31 332.018 308.428 332.473 309.344C332.935 310.253 333.575 310.947 334.393 311.424C335.211 311.894 336.162 312.128 337.245 312.128C337.95 312.128 338.586 312.03 339.154 311.833C339.73 311.628 340.226 311.325 340.643 310.924C341.06 310.515 341.382 310.007 341.609 309.401L344.2 310.128C343.927 311.007 343.469 311.78 342.825 312.447C342.181 313.106 341.386 313.621 340.439 313.992C339.492 314.356 338.427 314.537 337.245 314.537ZM356.143 296.719V298.992H347.098V296.719H356.143ZM349.734 292.537H352.416V309.174C352.416 309.931 352.526 310.5 352.745 310.878C352.973 311.25 353.261 311.5 353.609 311.628C353.965 311.75 354.34 311.81 354.734 311.81C355.029 311.81 355.272 311.795 355.461 311.765C355.651 311.727 355.802 311.697 355.916 311.674L356.461 314.083C356.279 314.151 356.026 314.219 355.7 314.287C355.374 314.363 354.961 314.401 354.461 314.401C353.704 314.401 352.961 314.238 352.234 313.912C351.514 313.587 350.916 313.09 350.439 312.424C349.969 311.757 349.734 310.916 349.734 309.901V292.537ZM372.228 300.628L369.819 301.31C369.668 300.909 369.444 300.519 369.149 300.14C368.861 299.753 368.467 299.435 367.967 299.185C367.467 298.935 366.827 298.81 366.047 298.81C364.978 298.81 364.088 299.056 363.376 299.549C362.672 300.034 362.319 300.651 362.319 301.401C362.319 302.068 362.562 302.594 363.047 302.981C363.531 303.367 364.289 303.689 365.319 303.947L367.91 304.583C369.471 304.962 370.634 305.541 371.399 306.322C372.164 307.094 372.547 308.09 372.547 309.31C372.547 310.31 372.259 311.204 371.683 311.992C371.115 312.78 370.319 313.401 369.297 313.856C368.274 314.31 367.084 314.537 365.728 314.537C363.948 314.537 362.475 314.151 361.308 313.378C360.141 312.606 359.403 311.477 359.092 309.992L361.637 309.356C361.88 310.295 362.338 311 363.012 311.469C363.694 311.939 364.584 312.174 365.683 312.174C366.933 312.174 367.925 311.909 368.66 311.378C369.403 310.84 369.774 310.197 369.774 309.447C369.774 308.84 369.562 308.333 369.137 307.924C368.713 307.507 368.062 307.197 367.183 306.992L364.274 306.31C362.675 305.931 361.501 305.344 360.751 304.549C360.009 303.746 359.637 302.742 359.637 301.537C359.637 300.553 359.914 299.681 360.467 298.924C361.028 298.166 361.789 297.572 362.751 297.14C363.721 296.708 364.819 296.492 366.047 296.492C367.774 296.492 369.13 296.871 370.115 297.628C371.107 298.386 371.812 299.386 372.228 300.628ZM70.2596 353.174V329.901H78.1232C79.949 329.901 81.4414 330.231 82.6005 330.89C83.7672 331.541 84.6308 332.424 85.1914 333.537C85.752 334.651 86.0323 335.894 86.0323 337.265C86.0323 338.636 85.752 339.882 85.1914 341.003C84.6384 342.125 83.7823 343.019 82.6232 343.685C81.4641 344.344 79.9793 344.674 78.1687 344.674H72.5323V342.174H78.0778C79.3278 342.174 80.3316 341.958 81.0891 341.526C81.8467 341.094 82.396 340.511 82.7369 339.776C83.0853 339.034 83.2596 338.197 83.2596 337.265C83.2596 336.333 83.0853 335.5 82.7369 334.765C82.396 334.03 81.8429 333.454 81.0778 333.037C80.3126 332.613 79.2975 332.401 78.0323 332.401H73.0778V353.174H70.2596ZM90.5721 353.174V329.901H93.2539V338.492H93.4812C93.6781 338.189 93.9509 337.803 94.2994 337.333C94.6554 336.856 95.163 336.431 95.8221 336.06C96.4888 335.681 97.3903 335.492 98.5266 335.492C99.9963 335.492 101.292 335.859 102.413 336.594C103.534 337.329 104.409 338.371 105.038 339.719C105.667 341.068 105.981 342.659 105.981 344.492C105.981 346.34 105.667 347.943 105.038 349.299C104.409 350.647 103.538 351.693 102.424 352.435C101.311 353.17 100.027 353.537 98.5721 353.537C97.4509 353.537 96.5531 353.352 95.8789 352.981C95.2047 352.602 94.6857 352.174 94.3221 351.697C93.9585 351.212 93.6781 350.81 93.4812 350.492H93.163V353.174H90.5721ZM93.2085 344.447C93.2085 345.765 93.4016 346.928 93.788 347.935C94.1744 348.935 94.7388 349.719 95.4812 350.287C96.2236 350.848 97.1327 351.128 98.2085 351.128C99.3297 351.128 100.265 350.833 101.015 350.242C101.773 349.644 102.341 348.84 102.72 347.833C103.106 346.818 103.299 345.689 103.299 344.447C103.299 343.219 103.11 342.113 102.731 341.128C102.36 340.136 101.796 339.352 101.038 338.776C100.288 338.193 99.3448 337.901 98.2085 337.901C97.1175 337.901 96.2009 338.178 95.4585 338.731C94.716 339.276 94.1554 340.041 93.7766 341.026C93.3978 342.003 93.2085 343.144 93.2085 344.447ZM126.174 353.537C124.599 353.537 123.216 353.162 122.027 352.412C120.845 351.662 119.921 350.613 119.254 349.265C118.595 347.916 118.265 346.34 118.265 344.537C118.265 342.719 118.595 341.132 119.254 339.776C119.921 338.42 120.845 337.367 122.027 336.617C123.216 335.867 124.599 335.492 126.174 335.492C127.75 335.492 129.129 335.867 130.311 336.617C131.5 337.367 132.424 338.42 133.083 339.776C133.75 341.132 134.083 342.719 134.083 344.537C134.083 346.34 133.75 347.916 133.083 349.265C132.424 350.613 131.5 351.662 130.311 352.412C129.129 353.162 127.75 353.537 126.174 353.537ZM126.174 351.128C127.371 351.128 128.356 350.822 129.129 350.208C129.902 349.594 130.474 348.787 130.845 347.787C131.216 346.787 131.402 345.704 131.402 344.537C131.402 343.371 131.216 342.284 130.845 341.276C130.474 340.269 129.902 339.454 129.129 338.833C128.356 338.212 127.371 337.901 126.174 337.901C124.977 337.901 123.993 338.212 123.22 338.833C122.447 339.454 121.875 340.269 121.504 341.276C121.133 342.284 120.947 343.371 120.947 344.537C120.947 345.704 121.133 346.787 121.504 347.787C121.875 348.787 122.447 349.594 123.22 350.208C123.993 350.822 124.977 351.128 126.174 351.128ZM145.95 335.719V337.992H136.541V335.719H145.95ZM139.359 353.174V333.31C139.359 332.31 139.594 331.477 140.064 330.81C140.533 330.144 141.143 329.644 141.893 329.31C142.643 328.977 143.435 328.81 144.268 328.81C144.927 328.81 145.465 328.863 145.882 328.969C146.298 329.075 146.609 329.174 146.814 329.265L146.041 331.583C145.904 331.537 145.715 331.481 145.473 331.412C145.238 331.344 144.927 331.31 144.541 331.31C143.654 331.31 143.014 331.534 142.62 331.981C142.234 332.428 142.041 333.083 142.041 333.947V353.174H139.359ZM171.072 339.628L168.663 340.31C168.511 339.909 168.288 339.519 167.993 339.14C167.705 338.753 167.311 338.435 166.811 338.185C166.311 337.935 165.671 337.81 164.89 337.81C163.822 337.81 162.932 338.056 162.22 338.549C161.515 339.034 161.163 339.651 161.163 340.401C161.163 341.068 161.405 341.594 161.89 341.981C162.375 342.367 163.133 342.689 164.163 342.947L166.754 343.583C168.315 343.962 169.477 344.541 170.243 345.322C171.008 346.094 171.39 347.09 171.39 348.31C171.39 349.31 171.102 350.204 170.527 350.992C169.958 351.78 169.163 352.401 168.14 352.856C167.118 353.31 165.928 353.537 164.572 353.537C162.792 353.537 161.318 353.151 160.152 352.378C158.985 351.606 158.246 350.477 157.936 348.992L160.481 348.356C160.724 349.295 161.182 350 161.856 350.469C162.538 350.939 163.428 351.174 164.527 351.174C165.777 351.174 166.769 350.909 167.504 350.378C168.246 349.84 168.618 349.197 168.618 348.447C168.618 347.84 168.405 347.333 167.981 346.924C167.557 346.507 166.905 346.197 166.027 345.992L163.118 345.31C161.519 344.931 160.345 344.344 159.595 343.549C158.852 342.746 158.481 341.742 158.481 340.537C158.481 339.553 158.758 338.681 159.311 337.924C159.871 337.166 160.633 336.572 161.595 336.14C162.565 335.708 163.663 335.492 164.89 335.492C166.618 335.492 167.974 335.871 168.958 336.628C169.951 337.386 170.655 338.386 171.072 339.628ZM178.109 329.901V353.174H175.427V329.901H178.109ZM190.339 353.537C188.657 353.537 187.207 353.166 185.987 352.424C184.775 351.674 183.839 350.628 183.18 349.287C182.529 347.939 182.203 346.371 182.203 344.583C182.203 342.795 182.529 341.219 183.18 339.856C183.839 338.484 184.756 337.416 185.93 336.651C187.112 335.878 188.491 335.492 190.066 335.492C190.975 335.492 191.873 335.644 192.76 335.947C193.646 336.25 194.453 336.742 195.18 337.424C195.907 338.098 196.487 338.992 196.919 340.106C197.35 341.219 197.566 342.59 197.566 344.219V345.356H184.112V343.037H194.839C194.839 342.053 194.642 341.174 194.248 340.401C193.862 339.628 193.309 339.019 192.589 338.572C191.877 338.125 191.036 337.901 190.066 337.901C188.998 337.901 188.074 338.166 187.294 338.697C186.521 339.219 185.926 339.901 185.51 340.742C185.093 341.583 184.885 342.484 184.885 343.447V344.992C184.885 346.31 185.112 347.428 185.566 348.344C186.029 349.253 186.669 349.947 187.487 350.424C188.305 350.894 189.256 351.128 190.339 351.128C191.044 351.128 191.68 351.03 192.248 350.833C192.824 350.628 193.32 350.325 193.737 349.924C194.154 349.515 194.475 349.007 194.703 348.401L197.294 349.128C197.021 350.007 196.563 350.78 195.919 351.447C195.275 352.106 194.479 352.621 193.532 352.992C192.585 353.356 191.521 353.537 190.339 353.537ZM208.964 353.537C207.282 353.537 205.832 353.166 204.612 352.424C203.4 351.674 202.464 350.628 201.805 349.287C201.154 347.939 200.828 346.371 200.828 344.583C200.828 342.795 201.154 341.219 201.805 339.856C202.464 338.484 203.381 337.416 204.555 336.651C205.737 335.878 207.116 335.492 208.691 335.492C209.6 335.492 210.498 335.644 211.385 335.947C212.271 336.25 213.078 336.742 213.805 337.424C214.532 338.098 215.112 338.992 215.544 340.106C215.975 341.219 216.191 342.59 216.191 344.219V345.356H202.737V343.037H213.464C213.464 342.053 213.267 341.174 212.873 340.401C212.487 339.628 211.934 339.019 211.214 338.572C210.502 338.125 209.661 337.901 208.691 337.901C207.623 337.901 206.699 338.166 205.919 338.697C205.146 339.219 204.551 339.901 204.135 340.742C203.718 341.583 203.51 342.484 203.51 343.447V344.992C203.51 346.31 203.737 347.428 204.191 348.344C204.654 349.253 205.294 349.947 206.112 350.424C206.93 350.894 207.881 351.128 208.964 351.128C209.669 351.128 210.305 351.03 210.873 350.833C211.449 350.628 211.945 350.325 212.362 349.924C212.779 349.515 213.1 349.007 213.328 348.401L215.919 349.128C215.646 350.007 215.188 350.78 214.544 351.447C213.9 352.106 213.104 352.621 212.157 352.992C211.21 353.356 210.146 353.537 208.964 353.537ZM220.271 359.719V335.719H222.862V338.492H223.18C223.377 338.189 223.65 337.803 223.998 337.333C224.354 336.856 224.862 336.431 225.521 336.06C226.188 335.681 227.089 335.492 228.225 335.492C229.695 335.492 230.991 335.859 232.112 336.594C233.233 337.329 234.108 338.371 234.737 339.719C235.366 341.068 235.68 342.659 235.68 344.492C235.68 346.34 235.366 347.943 234.737 349.299C234.108 350.647 233.237 351.693 232.123 352.435C231.01 353.17 229.725 353.537 228.271 353.537C227.15 353.537 226.252 353.352 225.578 352.981C224.904 352.602 224.385 352.174 224.021 351.697C223.657 351.212 223.377 350.81 223.18 350.492H222.953V359.719H220.271ZM222.907 344.447C222.907 345.765 223.1 346.928 223.487 347.935C223.873 348.935 224.438 349.719 225.18 350.287C225.922 350.848 226.832 351.128 227.907 351.128C229.029 351.128 229.964 350.833 230.714 350.242C231.472 349.644 232.04 348.84 232.419 347.833C232.805 346.818 232.998 345.689 232.998 344.447C232.998 343.219 232.809 342.113 232.43 341.128C232.059 340.136 231.494 339.352 230.737 338.776C229.987 338.193 229.044 337.901 227.907 337.901C226.816 337.901 225.9 338.178 225.157 338.731C224.415 339.276 223.854 340.041 223.475 341.026C223.097 342.003 222.907 343.144 222.907 344.447ZM249.135 353.174V329.901H251.816V338.492H252.044C252.241 338.189 252.513 337.803 252.862 337.333C253.218 336.856 253.725 336.431 254.385 336.06C255.051 335.681 255.953 335.492 257.089 335.492C258.559 335.492 259.854 335.859 260.975 336.594C262.097 337.329 262.972 338.371 263.6 339.719C264.229 341.068 264.544 342.659 264.544 344.492C264.544 346.34 264.229 347.943 263.6 349.299C262.972 350.647 262.1 351.693 260.987 352.435C259.873 353.17 258.589 353.537 257.135 353.537C256.013 353.537 255.116 353.352 254.441 352.981C253.767 352.602 253.248 352.174 252.885 351.697C252.521 351.212 252.241 350.81 252.044 350.492H251.725V353.174H249.135ZM251.771 344.447C251.771 345.765 251.964 346.928 252.35 347.935C252.737 348.935 253.301 349.719 254.044 350.287C254.786 350.848 255.695 351.128 256.771 351.128C257.892 351.128 258.828 350.833 259.578 350.242C260.335 349.644 260.904 348.84 261.282 347.833C261.669 346.818 261.862 345.689 261.862 344.447C261.862 343.219 261.672 342.113 261.294 341.128C260.922 340.136 260.358 339.352 259.6 338.776C258.85 338.193 257.907 337.901 256.771 337.901C255.68 337.901 254.763 338.178 254.021 338.731C253.279 339.276 252.718 340.041 252.339 341.026C251.96 342.003 251.771 343.144 251.771 344.447ZM271.328 329.901V353.174H268.646V329.901H271.328ZM283.331 353.537C281.755 353.537 280.372 353.162 279.183 352.412C278.001 351.662 277.077 350.613 276.41 349.265C275.751 347.916 275.422 346.34 275.422 344.537C275.422 342.719 275.751 341.132 276.41 339.776C277.077 338.42 278.001 337.367 279.183 336.617C280.372 335.867 281.755 335.492 283.331 335.492C284.906 335.492 286.285 335.867 287.467 336.617C288.656 337.367 289.581 338.42 290.24 339.776C290.906 341.132 291.24 342.719 291.24 344.537C291.24 346.34 290.906 347.916 290.24 349.265C289.581 350.613 288.656 351.662 287.467 352.412C286.285 353.162 284.906 353.537 283.331 353.537ZM283.331 351.128C284.528 351.128 285.512 350.822 286.285 350.208C287.058 349.594 287.63 348.787 288.001 347.787C288.372 346.787 288.558 345.704 288.558 344.537C288.558 343.371 288.372 342.284 288.001 341.276C287.63 340.269 287.058 339.454 286.285 338.833C285.512 338.212 284.528 337.901 283.331 337.901C282.134 337.901 281.149 338.212 280.376 338.833C279.603 339.454 279.031 340.269 278.66 341.276C278.289 342.284 278.103 343.371 278.103 344.537C278.103 345.704 278.289 346.787 278.66 347.787C279.031 348.787 279.603 349.594 280.376 350.208C281.149 350.822 282.134 351.128 283.331 351.128ZM302.424 353.537C300.788 353.537 299.379 353.151 298.197 352.378C297.015 351.606 296.106 350.541 295.47 349.185C294.833 347.829 294.515 346.28 294.515 344.537C294.515 342.765 294.841 341.2 295.493 339.844C296.152 338.481 297.068 337.416 298.243 336.651C299.424 335.878 300.803 335.492 302.379 335.492C303.606 335.492 304.712 335.719 305.697 336.174C306.682 336.628 307.489 337.265 308.118 338.083C308.746 338.901 309.136 339.856 309.288 340.947H306.606C306.402 340.151 305.947 339.447 305.243 338.833C304.546 338.212 303.606 337.901 302.424 337.901C301.379 337.901 300.462 338.174 299.674 338.719C298.894 339.257 298.284 340.019 297.845 341.003C297.413 341.981 297.197 343.128 297.197 344.447C297.197 345.795 297.409 346.969 297.833 347.969C298.265 348.969 298.871 349.746 299.652 350.299C300.44 350.852 301.364 351.128 302.424 351.128C303.121 351.128 303.754 351.007 304.322 350.765C304.89 350.522 305.371 350.174 305.765 349.719C306.159 349.265 306.44 348.719 306.606 348.083H309.288C309.136 349.113 308.761 350.041 308.163 350.867C307.572 351.685 306.788 352.337 305.811 352.822C304.841 353.299 303.712 353.537 302.424 353.537ZM315.708 346.81L315.663 343.492H316.208L323.845 335.719H327.163L319.027 343.947H318.799L315.708 346.81ZM313.208 353.174V329.901H315.89V353.174H313.208ZM324.299 353.174L317.481 344.537L319.39 342.674L327.708 353.174H324.299ZM337.214 353.537C335.532 353.537 334.082 353.166 332.862 352.424C331.65 351.674 330.714 350.628 330.055 349.287C329.404 347.939 329.078 346.371 329.078 344.583C329.078 342.795 329.404 341.219 330.055 339.856C330.714 338.484 331.631 337.416 332.805 336.651C333.987 335.878 335.366 335.492 336.941 335.492C337.85 335.492 338.748 335.644 339.635 335.947C340.521 336.25 341.328 336.742 342.055 337.424C342.782 338.098 343.362 338.992 343.794 340.106C344.225 341.219 344.441 342.59 344.441 344.219V345.356H330.987V343.037H341.714C341.714 342.053 341.517 341.174 341.123 340.401C340.737 339.628 340.184 339.019 339.464 338.572C338.752 338.125 337.911 337.901 336.941 337.901C335.873 337.901 334.949 338.166 334.169 338.697C333.396 339.219 332.801 339.901 332.385 340.742C331.968 341.583 331.76 342.484 331.76 343.447V344.992C331.76 346.31 331.987 347.428 332.441 348.344C332.904 349.253 333.544 349.947 334.362 350.424C335.18 350.894 336.131 351.128 337.214 351.128C337.919 351.128 338.555 351.03 339.123 350.833C339.699 350.628 340.195 350.325 340.612 349.924C341.029 349.515 341.35 349.007 341.578 348.401L344.169 349.128C343.896 350.007 343.438 350.78 342.794 351.447C342.15 352.106 341.354 352.621 340.407 352.992C339.46 353.356 338.396 353.537 337.214 353.537ZM355.112 353.537C353.657 353.537 352.373 353.17 351.26 352.435C350.146 351.693 349.275 350.647 348.646 349.299C348.017 347.943 347.703 346.34 347.703 344.492C347.703 342.659 348.017 341.068 348.646 339.719C349.275 338.371 350.15 337.329 351.271 336.594C352.392 335.859 353.688 335.492 355.157 335.492C356.294 335.492 357.191 335.681 357.85 336.06C358.517 336.431 359.025 336.856 359.373 337.333C359.729 337.803 360.006 338.189 360.203 338.492H360.43V329.901H363.112V353.174H360.521V350.492H360.203C360.006 350.81 359.725 351.212 359.362 351.697C358.998 352.174 358.479 352.602 357.805 352.981C357.131 353.352 356.233 353.537 355.112 353.537ZM355.475 351.128C356.551 351.128 357.46 350.848 358.203 350.287C358.945 349.719 359.51 348.935 359.896 347.935C360.282 346.928 360.475 345.765 360.475 344.447C360.475 343.144 360.286 342.003 359.907 341.026C359.529 340.041 358.968 339.276 358.225 338.731C357.483 338.178 356.566 337.901 355.475 337.901C354.339 337.901 353.392 338.193 352.635 338.776C351.885 339.352 351.32 340.136 350.941 341.128C350.57 342.113 350.385 343.219 350.385 344.447C350.385 345.689 350.574 346.818 350.953 347.833C351.339 348.84 351.907 349.644 352.657 350.242C353.415 350.833 354.354 351.128 355.475 351.128ZM384.714 353.537C383.032 353.537 381.582 353.166 380.362 352.424C379.15 351.674 378.214 350.628 377.555 349.287C376.904 347.939 376.578 346.371 376.578 344.583C376.578 342.795 376.904 341.219 377.555 339.856C378.214 338.484 379.131 337.416 380.305 336.651C381.487 335.878 382.866 335.492 384.441 335.492C385.35 335.492 386.248 335.644 387.135 335.947C388.021 336.25 388.828 336.742 389.555 337.424C390.282 338.098 390.862 338.992 391.294 340.106C391.725 341.219 391.941 342.59 391.941 344.219V345.356H378.487V343.037H389.214C389.214 342.053 389.017 341.174 388.623 340.401C388.237 339.628 387.684 339.019 386.964 338.572C386.252 338.125 385.411 337.901 384.441 337.901C383.373 337.901 382.449 338.166 381.669 338.697C380.896 339.219 380.301 339.901 379.885 340.742C379.468 341.583 379.26 342.484 379.26 343.447V344.992C379.26 346.31 379.487 347.428 379.941 348.344C380.404 349.253 381.044 349.947 381.862 350.424C382.68 350.894 383.631 351.128 384.714 351.128C385.419 351.128 386.055 351.03 386.623 350.833C387.199 350.628 387.695 350.325 388.112 349.924C388.529 349.515 388.85 349.007 389.078 348.401L391.669 349.128C391.396 350.007 390.938 350.78 390.294 351.447C389.65 352.106 388.854 352.621 387.907 352.992C386.96 353.356 385.896 353.537 384.714 353.537ZM397.552 335.719L401.734 342.856L405.916 335.719H409.007L403.37 344.447L409.007 353.174H405.916L401.734 346.401L397.552 353.174H394.461L400.007 344.447L394.461 335.719H397.552ZM419.433 353.537C417.751 353.537 416.3 353.166 415.081 352.424C413.868 351.674 412.933 350.628 412.274 349.287C411.622 347.939 411.297 346.371 411.297 344.583C411.297 342.795 411.622 341.219 412.274 339.856C412.933 338.484 413.85 337.416 415.024 336.651C416.206 335.878 417.584 335.492 419.16 335.492C420.069 335.492 420.967 335.644 421.853 335.947C422.74 336.25 423.547 336.742 424.274 337.424C425.001 338.098 425.581 338.992 426.012 340.106C426.444 341.219 426.66 342.59 426.66 344.219V345.356H413.206V343.037H423.933C423.933 342.053 423.736 341.174 423.342 340.401C422.956 339.628 422.403 339.019 421.683 338.572C420.971 338.125 420.13 337.901 419.16 337.901C418.092 337.901 417.168 338.166 416.387 338.697C415.615 339.219 415.02 339.901 414.603 340.742C414.187 341.583 413.978 342.484 413.978 343.447V344.992C413.978 346.31 414.206 347.428 414.66 348.344C415.122 349.253 415.762 349.947 416.581 350.424C417.399 350.894 418.35 351.128 419.433 351.128C420.137 351.128 420.774 351.03 421.342 350.833C421.918 350.628 422.414 350.325 422.831 349.924C423.247 349.515 423.569 349.007 423.797 348.401L426.387 349.128C426.115 350.007 425.656 350.78 425.012 351.447C424.368 352.106 423.573 352.621 422.626 352.992C421.679 353.356 420.615 353.537 419.433 353.537ZM437.831 353.537C436.194 353.537 434.785 353.151 433.603 352.378C432.422 351.606 431.512 350.541 430.876 349.185C430.24 347.829 429.922 346.28 429.922 344.537C429.922 342.765 430.247 341.2 430.899 339.844C431.558 338.481 432.475 337.416 433.649 336.651C434.831 335.878 436.209 335.492 437.785 335.492C439.012 335.492 440.118 335.719 441.103 336.174C442.088 336.628 442.895 337.265 443.524 338.083C444.153 338.901 444.543 339.856 444.694 340.947H442.012C441.808 340.151 441.353 339.447 440.649 338.833C439.952 338.212 439.012 337.901 437.831 337.901C436.785 337.901 435.868 338.174 435.081 338.719C434.3 339.257 433.69 340.019 433.251 341.003C432.819 341.981 432.603 343.128 432.603 344.447C432.603 345.795 432.815 346.969 433.24 347.969C433.672 348.969 434.278 349.746 435.058 350.299C435.846 350.852 436.77 351.128 437.831 351.128C438.528 351.128 439.16 351.007 439.728 350.765C440.297 350.522 440.778 350.174 441.172 349.719C441.565 349.265 441.846 348.719 442.012 348.083H444.694C444.543 349.113 444.168 350.041 443.569 350.867C442.978 351.685 442.194 352.337 441.217 352.822C440.247 353.299 439.118 353.537 437.831 353.537ZM459.615 346.037V335.719H462.297V353.174H459.615V350.219H459.433C459.024 351.106 458.387 351.859 457.524 352.481C456.66 353.094 455.569 353.401 454.251 353.401C453.16 353.401 452.19 353.162 451.342 352.685C450.493 352.2 449.827 351.473 449.342 350.503C448.857 349.526 448.615 348.295 448.615 346.81V335.719H451.297V346.628C451.297 347.901 451.653 348.916 452.365 349.674C453.084 350.431 454.001 350.81 455.115 350.81C455.781 350.81 456.459 350.64 457.149 350.299C457.846 349.958 458.429 349.435 458.899 348.731C459.376 348.026 459.615 347.128 459.615 346.037ZM474.799 335.719V337.992H465.754V335.719H474.799ZM468.39 331.537H471.072V348.174C471.072 348.931 471.182 349.5 471.402 349.878C471.629 350.25 471.917 350.5 472.265 350.628C472.621 350.75 472.996 350.81 473.39 350.81C473.686 350.81 473.928 350.795 474.118 350.765C474.307 350.727 474.458 350.697 474.572 350.674L475.118 353.083C474.936 353.151 474.682 353.219 474.356 353.287C474.03 353.363 473.618 353.401 473.118 353.401C472.36 353.401 471.618 353.238 470.89 352.912C470.171 352.587 469.572 352.09 469.095 351.424C468.625 350.757 468.39 349.916 468.39 348.901V331.537ZM478.833 353.174V335.719H481.515V353.174H478.833ZM480.197 332.81C479.674 332.81 479.224 332.632 478.845 332.276C478.474 331.92 478.288 331.492 478.288 330.992C478.288 330.492 478.474 330.064 478.845 329.708C479.224 329.352 479.674 329.174 480.197 329.174C480.72 329.174 481.167 329.352 481.538 329.708C481.917 330.064 482.106 330.492 482.106 330.992C482.106 331.492 481.917 331.92 481.538 332.276C481.167 332.632 480.72 332.81 480.197 332.81ZM493.518 353.537C491.942 353.537 490.56 353.162 489.37 352.412C488.189 351.662 487.264 350.613 486.598 349.265C485.939 347.916 485.609 346.34 485.609 344.537C485.609 342.719 485.939 341.132 486.598 339.776C487.264 338.42 488.189 337.367 489.37 336.617C490.56 335.867 491.942 335.492 493.518 335.492C495.094 335.492 496.473 335.867 497.654 336.617C498.844 337.367 499.768 338.42 500.427 339.776C501.094 341.132 501.427 342.719 501.427 344.537C501.427 346.34 501.094 347.916 500.427 349.265C499.768 350.613 498.844 351.662 497.654 352.412C496.473 353.162 495.094 353.537 493.518 353.537ZM493.518 351.128C494.715 351.128 495.7 350.822 496.473 350.208C497.245 349.594 497.817 348.787 498.189 347.787C498.56 346.787 498.745 345.704 498.745 344.537C498.745 343.371 498.56 342.284 498.189 341.276C497.817 340.269 497.245 339.454 496.473 338.833C495.7 338.212 494.715 337.901 493.518 337.901C492.321 337.901 491.336 338.212 490.564 338.833C489.791 339.454 489.219 340.269 488.848 341.276C488.476 342.284 488.291 343.371 488.291 344.537C488.291 345.704 488.476 346.787 488.848 347.787C489.219 348.787 489.791 349.594 490.564 350.208C491.336 350.822 492.321 351.128 493.518 351.128ZM508.203 342.674V353.174H505.521V335.719H508.112V338.447H508.339C508.748 337.56 509.369 336.848 510.203 336.31C511.036 335.765 512.112 335.492 513.43 335.492C514.612 335.492 515.646 335.734 516.532 336.219C517.419 336.697 518.108 337.424 518.6 338.401C519.093 339.371 519.339 340.598 519.339 342.083V353.174H516.657V342.265C516.657 340.894 516.301 339.825 515.589 339.06C514.877 338.287 513.9 337.901 512.657 337.901C511.801 337.901 511.036 338.087 510.362 338.458C509.695 338.829 509.169 339.371 508.782 340.083C508.396 340.795 508.203 341.659 508.203 342.674Z" fill="black"/>
</g>
</svg>
