<svg width="1920" height="1080" viewBox="0 0 1920 1080" fill="none" xmlns="http://www.w3.org/2000/svg">
<g id="Reachability Problem">
<rect width="1920" height="1080" fill="white"/>
<path id="Reachability Problem_2" d="M591.965 116V69.4545H610.329C613.844 69.4545 616.844 70.0833 619.329 71.3409C621.829 72.5833 623.73 74.3485 625.033 76.6364C626.351 78.9091 627.01 81.5833 627.01 84.6591C627.01 87.75 626.344 90.4091 625.01 92.6364C623.677 94.8485 621.745 96.5455 619.215 97.7273C616.7 98.9091 613.654 99.5 610.079 99.5H597.783V91.5909H608.488C610.366 91.5909 611.927 91.3333 613.169 90.8182C614.412 90.303 615.336 89.5303 615.942 88.5C616.563 87.4697 616.874 86.1894 616.874 84.6591C616.874 83.1136 616.563 81.8106 615.942 80.75C615.336 79.6894 614.404 78.8864 613.147 78.3409C611.904 77.7803 610.336 77.5 608.442 77.5H601.806V116H591.965ZM617.101 94.8182L628.669 116H617.806L606.488 94.8182H617.101ZM649.13 116.682C645.539 116.682 642.448 115.955 639.857 114.5C637.281 113.03 635.296 110.955 633.902 108.273C632.508 105.576 631.811 102.386 631.811 98.7045C631.811 95.1136 632.508 91.9621 633.902 89.25C635.296 86.5379 637.258 84.4242 639.789 82.9091C642.334 81.3939 645.319 80.6364 648.743 80.6364C651.046 80.6364 653.19 81.0076 655.175 81.75C657.175 82.4773 658.918 83.5758 660.402 85.0455C661.902 86.5152 663.069 88.3636 663.902 90.5909C664.736 92.803 665.152 95.3939 665.152 98.3636V101.023H635.675V95.0227H656.039C656.039 93.6288 655.736 92.3939 655.13 91.3182C654.524 90.2424 653.683 89.4015 652.607 88.7955C651.546 88.1742 650.311 87.8636 648.902 87.8636C647.433 87.8636 646.13 88.2045 644.993 88.8864C643.872 89.553 642.993 90.4545 642.357 91.5909C641.721 92.7121 641.395 93.9621 641.38 95.3409V101.045C641.38 102.773 641.698 104.265 642.334 105.523C642.986 106.78 643.902 107.75 645.084 108.432C646.266 109.114 647.668 109.455 649.289 109.455C650.365 109.455 651.349 109.303 652.243 109C653.137 108.697 653.902 108.242 654.539 107.636C655.175 107.03 655.66 106.288 655.993 105.409L664.948 106C664.493 108.152 663.561 110.03 662.152 111.636C660.758 113.227 658.955 114.47 656.743 115.364C654.546 116.242 652.008 116.682 649.13 116.682ZM681.425 116.659C679.198 116.659 677.213 116.273 675.471 115.5C673.728 114.712 672.349 113.553 671.334 112.023C670.334 110.477 669.834 108.553 669.834 106.25C669.834 104.311 670.19 102.682 670.902 101.364C671.615 100.045 672.584 98.9848 673.811 98.1818C675.039 97.3788 676.433 96.7727 677.993 96.3636C679.569 95.9545 681.221 95.6667 682.948 95.5C684.978 95.2879 686.615 95.0909 687.857 94.9091C689.099 94.7121 690.001 94.4242 690.561 94.0455C691.122 93.6667 691.402 93.1061 691.402 92.3636V92.2273C691.402 90.7879 690.948 89.6742 690.039 88.8864C689.145 88.0985 687.872 87.7045 686.221 87.7045C684.478 87.7045 683.092 88.0909 682.061 88.8636C681.031 89.6212 680.349 90.5758 680.016 91.7273L671.061 91C671.516 88.8788 672.41 87.0455 673.743 85.5C675.077 83.9394 676.796 82.7424 678.902 81.9091C681.024 81.0606 683.478 80.6364 686.266 80.6364C688.205 80.6364 690.061 80.8636 691.834 81.3182C693.622 81.7727 695.205 82.4773 696.584 83.4318C697.978 84.3864 699.077 85.6136 699.88 87.1136C700.683 88.5985 701.084 90.3788 701.084 92.4545V116H691.902V111.159H691.63C691.069 112.25 690.319 113.212 689.38 114.045C688.44 114.864 687.311 115.508 685.993 115.977C684.675 116.432 683.152 116.659 681.425 116.659ZM684.198 109.977C685.622 109.977 686.88 109.697 687.971 109.136C689.061 108.561 689.918 107.788 690.539 106.818C691.16 105.848 691.471 104.75 691.471 103.523V99.8182C691.168 100.015 690.751 100.197 690.221 100.364C689.705 100.515 689.122 100.659 688.471 100.795C687.819 100.917 687.168 101.03 686.516 101.136C685.865 101.227 685.274 101.311 684.743 101.386C683.607 101.553 682.615 101.818 681.766 102.182C680.918 102.545 680.258 103.038 679.789 103.659C679.319 104.265 679.084 105.023 679.084 105.932C679.084 107.25 679.561 108.258 680.516 108.955C681.486 109.636 682.713 109.977 684.198 109.977ZM724.368 116.682C720.793 116.682 717.717 115.924 715.141 114.409C712.58 112.879 710.611 110.758 709.232 108.045C707.868 105.333 707.186 102.212 707.186 98.6818C707.186 95.1061 707.876 91.9697 709.255 89.2727C710.649 86.5606 712.626 84.447 715.186 82.9318C717.747 81.4015 720.793 80.6364 724.323 80.6364C727.368 80.6364 730.035 81.1894 732.323 82.2955C734.611 83.4015 736.421 84.9545 737.755 86.9545C739.088 88.9545 739.823 91.303 739.959 94H730.823C730.565 92.2576 729.883 90.8561 728.777 89.7955C727.686 88.7197 726.255 88.1818 724.482 88.1818C722.982 88.1818 721.671 88.5909 720.55 89.4091C719.444 90.2121 718.58 91.3864 717.959 92.9318C717.338 94.4773 717.027 96.3485 717.027 98.5455C717.027 100.773 717.33 102.667 717.936 104.227C718.558 105.788 719.429 106.977 720.55 107.795C721.671 108.614 722.982 109.023 724.482 109.023C725.588 109.023 726.58 108.795 727.459 108.341C728.353 107.886 729.088 107.227 729.664 106.364C730.255 105.485 730.641 104.432 730.823 103.205H739.959C739.808 105.871 739.08 108.22 737.777 110.25C736.49 112.265 734.709 113.841 732.436 114.977C730.164 116.114 727.474 116.682 724.368 116.682ZM755.84 95.8182V116H746.158V69.4545H755.567V87.25H755.976C756.764 85.1894 758.037 83.5758 759.794 82.4091C761.552 81.2273 763.757 80.6364 766.408 80.6364C768.832 80.6364 770.946 81.1667 772.749 82.2273C774.567 83.2727 775.976 84.7803 776.976 86.75C777.991 88.7045 778.491 91.0455 778.476 93.7727V116H768.794V95.5C768.81 93.3485 768.264 91.6742 767.158 90.4773C766.067 89.2803 764.537 88.6818 762.567 88.6818C761.249 88.6818 760.082 88.9621 759.067 89.5227C758.067 90.0833 757.279 90.9015 756.704 91.9773C756.143 93.0379 755.855 94.3182 755.84 95.8182ZM796.05 116.659C793.823 116.659 791.838 116.273 790.096 115.5C788.353 114.712 786.974 113.553 785.959 112.023C784.959 110.477 784.459 108.553 784.459 106.25C784.459 104.311 784.815 102.682 785.527 101.364C786.24 100.045 787.209 98.9848 788.436 98.1818C789.664 97.3788 791.058 96.7727 792.618 96.3636C794.194 95.9545 795.846 95.6667 797.573 95.5C799.603 95.2879 801.24 95.0909 802.482 94.9091C803.724 94.7121 804.626 94.4242 805.186 94.0455C805.747 93.6667 806.027 93.1061 806.027 92.3636V92.2273C806.027 90.7879 805.573 89.6742 804.664 88.8864C803.77 88.0985 802.497 87.7045 800.846 87.7045C799.103 87.7045 797.717 88.0909 796.686 88.8636C795.656 89.6212 794.974 90.5758 794.641 91.7273L785.686 91C786.141 88.8788 787.035 87.0455 788.368 85.5C789.702 83.9394 791.421 82.7424 793.527 81.9091C795.649 81.0606 798.103 80.6364 800.891 80.6364C802.83 80.6364 804.686 80.8636 806.459 81.3182C808.247 81.7727 809.83 82.4773 811.209 83.4318C812.603 84.3864 813.702 85.6136 814.505 87.1136C815.308 88.5985 815.709 90.3788 815.709 92.4545V116H806.527V111.159H806.255C805.694 112.25 804.944 113.212 804.005 114.045C803.065 114.864 801.936 115.508 800.618 115.977C799.3 116.432 797.777 116.659 796.05 116.659ZM798.823 109.977C800.247 109.977 801.505 109.697 802.596 109.136C803.686 108.561 804.543 107.788 805.164 106.818C805.785 105.848 806.096 104.75 806.096 103.523V99.8182C805.793 100.015 805.376 100.197 804.846 100.364C804.33 100.515 803.747 100.659 803.096 100.795C802.444 100.917 801.793 101.03 801.141 101.136C800.49 101.227 799.899 101.311 799.368 101.386C798.232 101.553 797.24 101.818 796.391 102.182C795.543 102.545 794.883 103.038 794.414 103.659C793.944 104.265 793.709 105.023 793.709 105.932C793.709 107.25 794.186 108.258 795.141 108.955C796.111 109.636 797.338 109.977 798.823 109.977ZM823.402 116V69.4545H833.084V86.9545H833.38C833.804 86.0152 834.418 85.0606 835.221 84.0909C836.039 83.1061 837.099 82.2879 838.402 81.6364C839.721 80.9697 841.357 80.6364 843.311 80.6364C845.857 80.6364 848.205 81.303 850.357 82.6364C852.508 83.9545 854.228 85.947 855.516 88.6136C856.804 91.2652 857.448 94.5909 857.448 98.5909C857.448 102.485 856.819 105.773 855.561 108.455C854.319 111.121 852.622 113.144 850.471 114.523C848.334 115.886 845.94 116.568 843.289 116.568C841.41 116.568 839.811 116.258 838.493 115.636C837.19 115.015 836.122 114.235 835.289 113.295C834.455 112.341 833.819 111.379 833.38 110.409H832.948V116H823.402ZM832.88 98.5455C832.88 100.621 833.168 102.432 833.743 103.977C834.319 105.523 835.152 106.727 836.243 107.591C837.334 108.439 838.66 108.864 840.221 108.864C841.796 108.864 843.13 108.432 844.221 107.568C845.311 106.689 846.137 105.477 846.698 103.932C847.274 102.371 847.561 100.576 847.561 98.5455C847.561 96.5303 847.281 94.7576 846.721 93.2273C846.16 91.697 845.334 90.5 844.243 89.6364C843.152 88.7727 841.811 88.3409 840.221 88.3409C838.645 88.3409 837.311 88.7576 836.221 89.5909C835.145 90.4242 834.319 91.6061 833.743 93.1364C833.168 94.6667 832.88 96.4697 832.88 98.5455ZM863.908 116V81.0909H873.59V116H863.908ZM868.772 76.5909C867.332 76.5909 866.097 76.1136 865.067 75.1591C864.052 74.1894 863.544 73.0303 863.544 71.6818C863.544 70.3485 864.052 69.2045 865.067 68.25C866.097 67.2803 867.332 66.7955 868.772 66.7955C870.211 66.7955 871.438 67.2803 872.454 68.25C873.484 69.2045 873.999 70.3485 873.999 71.6818C873.999 73.0303 873.484 74.1894 872.454 75.1591C871.438 76.1136 870.211 76.5909 868.772 76.5909ZM891.027 69.4545V116H881.346V69.4545H891.027ZM898.783 116V81.0909H908.465V116H898.783ZM903.647 76.5909C902.207 76.5909 900.972 76.1136 899.942 75.1591C898.927 74.1894 898.419 73.0303 898.419 71.6818C898.419 70.3485 898.927 69.2045 899.942 68.25C900.972 67.2803 902.207 66.7955 903.647 66.7955C905.086 66.7955 906.313 67.2803 907.329 68.25C908.359 69.2045 908.874 70.3485 908.874 71.6818C908.874 73.0303 908.359 74.1894 907.329 75.1591C906.313 76.1136 905.086 76.5909 903.647 76.5909ZM934.789 81.0909V88.3636H913.766V81.0909H934.789ZM918.539 72.7273H928.221V105.273C928.221 106.167 928.357 106.864 928.63 107.364C928.902 107.848 929.281 108.189 929.766 108.386C930.266 108.583 930.842 108.682 931.493 108.682C931.948 108.682 932.402 108.644 932.857 108.568C933.311 108.477 933.66 108.409 933.902 108.364L935.425 115.568C934.94 115.72 934.258 115.894 933.38 116.091C932.501 116.303 931.433 116.432 930.175 116.477C927.842 116.568 925.796 116.258 924.039 115.545C922.296 114.833 920.94 113.727 919.971 112.227C919.001 110.727 918.524 108.833 918.539 106.545V72.7273ZM947.073 129.091C945.846 129.091 944.694 128.992 943.618 128.795C942.558 128.614 941.679 128.379 940.982 128.091L943.164 120.864C944.3 121.212 945.323 121.402 946.232 121.432C947.156 121.462 947.952 121.25 948.618 120.795C949.3 120.341 949.853 119.568 950.277 118.477L950.846 117L938.323 81.0909H948.505L955.732 106.727H956.096L963.391 81.0909H973.641L960.073 119.773C959.421 121.652 958.535 123.288 957.414 124.682C956.308 126.091 954.906 127.174 953.209 127.932C951.512 128.705 949.467 129.091 947.073 129.091ZM993.59 116V69.4545H1011.95C1015.48 69.4545 1018.49 70.1288 1020.98 71.4773C1023.46 72.8106 1025.36 74.6667 1026.66 77.0455C1027.98 79.4091 1028.64 82.1364 1028.64 85.2273C1028.64 88.3182 1027.97 91.0455 1026.64 93.4091C1025.3 95.7727 1023.37 97.6136 1020.84 98.9318C1018.32 100.25 1015.28 100.909 1011.7 100.909H999.999V93.0227H1010.11C1012.01 93.0227 1013.57 92.697 1014.79 92.0455C1016.04 91.3788 1016.96 90.4621 1017.57 89.2955C1018.19 88.1136 1018.5 86.7576 1018.5 85.2273C1018.5 83.6818 1018.19 82.3333 1017.57 81.1818C1016.96 80.0151 1016.04 79.1136 1014.79 78.4773C1013.55 77.8258 1011.98 77.5 1010.07 77.5H1003.43V116H993.59ZM1034.85 116V81.0909H1044.23V87.1818H1044.6C1045.23 85.0152 1046.3 83.3788 1047.8 82.2727C1049.3 81.1515 1051.03 80.5909 1052.98 80.5909C1053.47 80.5909 1053.99 80.6212 1054.55 80.6818C1055.11 80.7424 1055.6 80.8258 1056.03 80.9318V89.5227C1055.57 89.3864 1054.94 89.2652 1054.14 89.1591C1053.34 89.053 1052.6 89 1051.94 89C1050.51 89 1049.24 89.3106 1048.12 89.9318C1047.01 90.5379 1046.13 91.3864 1045.48 92.4773C1044.85 93.5682 1044.53 94.8258 1044.53 96.25V116H1034.85ZM1075.18 116.682C1071.65 116.682 1068.6 115.932 1066.02 114.432C1063.46 112.917 1061.48 110.811 1060.09 108.114C1058.7 105.402 1058 102.258 1058 98.6818C1058 95.0758 1058.7 91.9242 1060.09 89.2273C1061.48 86.5152 1063.46 84.4091 1066.02 82.9091C1068.6 81.3939 1071.65 80.6364 1075.18 80.6364C1078.71 80.6364 1081.76 81.3939 1084.32 82.9091C1086.89 84.4091 1088.88 86.5152 1090.27 89.2273C1091.67 91.9242 1092.36 95.0758 1092.36 98.6818C1092.36 102.258 1091.67 105.402 1090.27 108.114C1088.88 110.811 1086.89 112.917 1084.32 114.432C1081.76 115.932 1078.71 116.682 1075.18 116.682ZM1075.23 109.182C1076.83 109.182 1078.17 108.727 1079.25 107.818C1080.32 106.894 1081.14 105.636 1081.68 104.045C1082.24 102.455 1082.52 100.644 1082.52 98.6136C1082.52 96.5833 1082.24 94.7727 1081.68 93.1818C1081.14 91.5909 1080.32 90.3333 1079.25 89.4091C1078.17 88.4848 1076.83 88.0227 1075.23 88.0227C1073.61 88.0227 1072.24 88.4848 1071.14 89.4091C1070.04 90.3333 1069.22 91.5909 1068.66 93.1818C1068.11 94.7727 1067.84 96.5833 1067.84 98.6136C1067.84 100.644 1068.11 102.455 1068.66 104.045C1069.22 105.636 1070.04 106.894 1071.14 107.818C1072.24 108.727 1073.61 109.182 1075.23 109.182ZM1098.84 116V69.4545H1108.52V86.9545H1108.82C1109.24 86.0152 1109.86 85.0606 1110.66 84.0909C1111.48 83.1061 1112.54 82.2879 1113.84 81.6364C1115.16 80.9697 1116.79 80.6364 1118.75 80.6364C1121.29 80.6364 1123.64 81.303 1125.79 82.6364C1127.95 83.9545 1129.67 85.947 1130.95 88.6136C1132.24 91.2652 1132.89 94.5909 1132.89 98.5909C1132.89 102.485 1132.26 105.773 1131 108.455C1129.76 111.121 1128.06 113.144 1125.91 114.523C1123.77 115.886 1121.38 116.568 1118.73 116.568C1116.85 116.568 1115.25 116.258 1113.93 115.636C1112.63 115.015 1111.56 114.235 1110.73 113.295C1109.89 112.341 1109.26 111.379 1108.82 110.409H1108.39V116H1098.84ZM1108.32 98.5455C1108.32 100.621 1108.61 102.432 1109.18 103.977C1109.76 105.523 1110.59 106.727 1111.68 107.591C1112.77 108.439 1114.1 108.864 1115.66 108.864C1117.23 108.864 1118.57 108.432 1119.66 107.568C1120.75 106.689 1121.57 105.477 1122.14 103.932C1122.71 102.371 1123 100.576 1123 98.5455C1123 96.5303 1122.72 94.7576 1122.16 93.2273C1121.6 91.697 1120.77 90.5 1119.68 89.6364C1118.59 88.7727 1117.25 88.3409 1115.66 88.3409C1114.08 88.3409 1112.75 88.7576 1111.66 89.5909C1110.58 90.4242 1109.76 91.6061 1109.18 93.1364C1108.61 94.6667 1108.32 96.4697 1108.32 98.5455ZM1149.03 69.4545V116H1139.35V69.4545H1149.03ZM1172.69 116.682C1169.1 116.682 1166.01 115.955 1163.42 114.5C1160.84 113.03 1158.86 110.955 1157.46 108.273C1156.07 105.576 1155.37 102.386 1155.37 98.7045C1155.37 95.1136 1156.07 91.9621 1157.46 89.25C1158.86 86.5379 1160.82 84.4242 1163.35 82.9091C1165.9 81.3939 1168.88 80.6364 1172.31 80.6364C1174.61 80.6364 1176.75 81.0076 1178.74 81.75C1180.74 82.4773 1182.48 83.5758 1183.96 85.0455C1185.46 86.5152 1186.63 88.3636 1187.46 90.5909C1188.3 92.803 1188.71 95.3939 1188.71 98.3636V101.023H1159.24V95.0227H1179.6C1179.6 93.6288 1179.3 92.3939 1178.69 91.3182C1178.09 90.2424 1177.25 89.4015 1176.17 88.7955C1175.11 88.1742 1173.87 87.8636 1172.46 87.8636C1171 87.8636 1169.69 88.2045 1168.56 88.8864C1167.43 89.553 1166.56 90.4545 1165.92 91.5909C1165.28 92.7121 1164.96 93.9621 1164.94 95.3409V101.045C1164.94 102.773 1165.26 104.265 1165.9 105.523C1166.55 106.78 1167.46 107.75 1168.65 108.432C1169.83 109.114 1171.23 109.455 1172.85 109.455C1173.93 109.455 1174.91 109.303 1175.81 109C1176.7 108.697 1177.46 108.242 1178.1 107.636C1178.74 107.03 1179.22 106.288 1179.56 105.409L1188.51 106C1188.06 108.152 1187.12 110.03 1185.71 111.636C1184.32 113.227 1182.52 114.47 1180.31 115.364C1178.11 116.242 1175.57 116.682 1172.69 116.682ZM1195.03 116V81.0909H1204.26V87.25H1204.67C1205.4 85.2045 1206.61 83.5909 1208.31 82.4091C1210 81.2273 1212.03 80.6364 1214.4 80.6364C1216.79 80.6364 1218.83 81.2348 1220.51 82.4318C1222.19 83.6136 1223.31 85.2197 1223.87 87.25H1224.24C1224.95 85.25 1226.24 83.6515 1228.1 82.4545C1229.98 81.2424 1232.2 80.6364 1234.76 80.6364C1238.02 80.6364 1240.66 81.6742 1242.69 83.75C1244.74 85.8106 1245.76 88.7348 1245.76 92.5227V116H1236.1V94.4318C1236.1 92.4924 1235.59 91.0379 1234.56 90.0682C1233.53 89.0985 1232.24 88.6136 1230.69 88.6136C1228.93 88.6136 1227.56 89.1742 1226.58 90.2955C1225.59 91.4015 1225.1 92.8636 1225.1 94.6818V116H1215.71V94.2273C1215.71 92.5152 1215.22 91.1515 1214.24 90.1364C1213.27 89.1212 1211.99 88.6136 1210.4 88.6136C1209.32 88.6136 1208.35 88.8864 1207.49 89.4318C1206.64 89.9621 1205.96 90.7121 1205.46 91.6818C1204.96 92.6364 1204.71 93.7576 1204.71 95.0455V116H1195.03Z" fill="black"/>
<path id="Here state which problem we study : reachability of final states" d="M77.0501 332V308.727H79.8683V319.091H92.2774V308.727H95.0956V332H92.2774V321.591H79.8683V332H77.0501ZM107.692 332.364C106.01 332.364 104.56 331.992 103.34 331.25C102.128 330.5 101.192 329.455 100.533 328.114C99.8816 326.765 99.5558 325.197 99.5558 323.409C99.5558 321.621 99.8816 320.045 100.533 318.682C101.192 317.311 102.109 316.242 103.283 315.477C104.465 314.705 105.844 314.318 107.419 314.318C108.329 314.318 109.226 314.47 110.113 314.773C110.999 315.076 111.806 315.568 112.533 316.25C113.26 316.924 113.84 317.818 114.272 318.932C114.704 320.045 114.919 321.417 114.919 323.045V324.182H101.465V321.864H112.192C112.192 320.879 111.995 320 111.601 319.227C111.215 318.455 110.662 317.845 109.942 317.398C109.23 316.951 108.389 316.727 107.419 316.727C106.351 316.727 105.427 316.992 104.647 317.523C103.874 318.045 103.279 318.727 102.863 319.568C102.446 320.409 102.238 321.311 102.238 322.273V323.818C102.238 325.136 102.465 326.254 102.919 327.17C103.382 328.08 104.022 328.773 104.84 329.25C105.658 329.72 106.609 329.955 107.692 329.955C108.397 329.955 109.033 329.856 109.601 329.659C110.177 329.455 110.673 329.152 111.09 328.75C111.507 328.341 111.829 327.833 112.056 327.227L114.647 327.955C114.374 328.833 113.916 329.606 113.272 330.273C112.628 330.932 111.832 331.447 110.885 331.818C109.938 332.182 108.874 332.364 107.692 332.364ZM118.999 332V314.545H121.59V317.182H121.772C122.09 316.318 122.666 315.617 123.499 315.08C124.332 314.542 125.272 314.273 126.317 314.273C126.514 314.273 126.76 314.277 127.056 314.284C127.351 314.292 127.575 314.303 127.726 314.318V317.045C127.635 317.023 127.427 316.989 127.101 316.943C126.783 316.89 126.446 316.864 126.09 316.864C125.241 316.864 124.484 317.042 123.817 317.398C123.158 317.746 122.635 318.231 122.249 318.852C121.87 319.466 121.681 320.167 121.681 320.955V332H118.999ZM137.692 332.364C136.01 332.364 134.56 331.992 133.34 331.25C132.128 330.5 131.192 329.455 130.533 328.114C129.882 326.765 129.556 325.197 129.556 323.409C129.556 321.621 129.882 320.045 130.533 318.682C131.192 317.311 132.109 316.242 133.283 315.477C134.465 314.705 135.844 314.318 137.419 314.318C138.329 314.318 139.226 314.47 140.113 314.773C140.999 315.076 141.806 315.568 142.533 316.25C143.26 316.924 143.84 317.818 144.272 318.932C144.704 320.045 144.919 321.417 144.919 323.045V324.182H131.465V321.864H142.192C142.192 320.879 141.995 320 141.601 319.227C141.215 318.455 140.662 317.845 139.942 317.398C139.23 316.951 138.389 316.727 137.419 316.727C136.351 316.727 135.427 316.992 134.647 317.523C133.874 318.045 133.279 318.727 132.863 319.568C132.446 320.409 132.238 321.311 132.238 322.273V323.818C132.238 325.136 132.465 326.254 132.919 327.17C133.382 328.08 134.022 328.773 134.84 329.25C135.658 329.72 136.609 329.955 137.692 329.955C138.397 329.955 139.033 329.856 139.601 329.659C140.177 329.455 140.673 329.152 141.09 328.75C141.507 328.341 141.829 327.833 142.056 327.227L144.647 327.955C144.374 328.833 143.916 329.606 143.272 330.273C142.628 330.932 141.832 331.447 140.885 331.818C139.938 332.182 138.874 332.364 137.692 332.364ZM170.363 318.455L167.954 319.136C167.802 318.735 167.579 318.345 167.283 317.966C166.995 317.58 166.601 317.261 166.101 317.011C165.601 316.761 164.961 316.636 164.181 316.636C163.113 316.636 162.222 316.883 161.51 317.375C160.806 317.86 160.454 318.477 160.454 319.227C160.454 319.894 160.696 320.42 161.181 320.807C161.666 321.193 162.423 321.515 163.454 321.773L166.044 322.409C167.605 322.788 168.768 323.367 169.533 324.148C170.298 324.92 170.681 325.917 170.681 327.136C170.681 328.136 170.393 329.03 169.817 329.818C169.249 330.606 168.454 331.227 167.431 331.682C166.408 332.136 165.219 332.364 163.863 332.364C162.082 332.364 160.609 331.977 159.442 331.205C158.275 330.432 157.537 329.303 157.226 327.818L159.772 327.182C160.014 328.121 160.472 328.826 161.147 329.295C161.829 329.765 162.719 330 163.817 330C165.067 330 166.06 329.735 166.794 329.205C167.537 328.667 167.908 328.023 167.908 327.273C167.908 326.667 167.696 326.159 167.272 325.75C166.847 325.333 166.196 325.023 165.317 324.818L162.408 324.136C160.81 323.758 159.635 323.17 158.885 322.375C158.143 321.572 157.772 320.568 157.772 319.364C157.772 318.379 158.048 317.508 158.601 316.75C159.162 315.992 159.923 315.398 160.885 314.966C161.855 314.534 162.954 314.318 164.181 314.318C165.908 314.318 167.264 314.697 168.249 315.455C169.241 316.212 169.946 317.212 170.363 318.455ZM182.309 314.545V316.818H173.263V314.545H182.309ZM175.9 310.364H178.581V327C178.581 327.758 178.691 328.326 178.911 328.705C179.138 329.076 179.426 329.326 179.775 329.455C180.131 329.576 180.506 329.636 180.9 329.636C181.195 329.636 181.437 329.621 181.627 329.591C181.816 329.553 181.968 329.523 182.081 329.5L182.627 331.909C182.445 331.977 182.191 332.045 181.865 332.114C181.54 332.189 181.127 332.227 180.627 332.227C179.869 332.227 179.127 332.064 178.4 331.739C177.68 331.413 177.081 330.917 176.604 330.25C176.134 329.583 175.9 328.742 175.9 327.727V310.364ZM191.479 332.409C190.373 332.409 189.369 332.201 188.468 331.784C187.566 331.36 186.85 330.75 186.32 329.955C185.79 329.152 185.525 328.182 185.525 327.045C185.525 326.045 185.722 325.235 186.115 324.614C186.509 323.985 187.036 323.492 187.695 323.136C188.354 322.78 189.081 322.515 189.877 322.341C190.68 322.159 191.487 322.015 192.297 321.909C193.358 321.773 194.218 321.67 194.877 321.602C195.543 321.527 196.028 321.402 196.331 321.227C196.642 321.053 196.797 320.75 196.797 320.318V320.227C196.797 319.106 196.49 318.235 195.877 317.614C195.271 316.992 194.35 316.682 193.115 316.682C191.835 316.682 190.831 316.962 190.104 317.523C189.377 318.083 188.865 318.682 188.57 319.318L186.025 318.409C186.479 317.348 187.085 316.523 187.843 315.932C188.608 315.333 189.441 314.917 190.343 314.682C191.252 314.439 192.146 314.318 193.025 314.318C193.585 314.318 194.229 314.386 194.956 314.523C195.691 314.652 196.4 314.92 197.081 315.33C197.771 315.739 198.343 316.356 198.797 317.182C199.252 318.008 199.479 319.114 199.479 320.5V332H196.797V329.636H196.661C196.479 330.015 196.176 330.42 195.752 330.852C195.328 331.284 194.763 331.652 194.059 331.955C193.354 332.258 192.494 332.409 191.479 332.409ZM191.888 330C192.949 330 193.843 329.792 194.57 329.375C195.305 328.958 195.858 328.42 196.229 327.761C196.608 327.102 196.797 326.409 196.797 325.682V323.227C196.684 323.364 196.434 323.489 196.047 323.602C195.668 323.708 195.229 323.803 194.729 323.886C194.237 323.962 193.756 324.03 193.286 324.091C192.824 324.144 192.449 324.189 192.161 324.227C191.464 324.318 190.812 324.466 190.206 324.67C189.608 324.867 189.123 325.167 188.752 325.568C188.388 325.962 188.206 326.5 188.206 327.182C188.206 328.114 188.551 328.818 189.24 329.295C189.937 329.765 190.82 330 191.888 330ZM211.965 314.545V316.818H202.919V314.545H211.965ZM205.556 310.364H208.238V327C208.238 327.758 208.347 328.326 208.567 328.705C208.794 329.076 209.082 329.326 209.431 329.455C209.787 329.576 210.162 329.636 210.556 329.636C210.851 329.636 211.094 329.621 211.283 329.591C211.472 329.553 211.624 329.523 211.738 329.5L212.283 331.909C212.101 331.977 211.847 332.045 211.522 332.114C211.196 332.189 210.783 332.227 210.283 332.227C209.525 332.227 208.783 332.064 208.056 331.739C207.336 331.413 206.738 330.917 206.26 330.25C205.791 329.583 205.556 328.742 205.556 327.727V310.364ZM223.13 332.364C221.448 332.364 219.997 331.992 218.777 331.25C217.565 330.5 216.63 329.455 215.971 328.114C215.319 326.765 214.993 325.197 214.993 323.409C214.993 321.621 215.319 320.045 215.971 318.682C216.63 317.311 217.546 316.242 218.721 315.477C219.902 314.705 221.281 314.318 222.857 314.318C223.766 314.318 224.664 314.47 225.55 314.773C226.436 315.076 227.243 315.568 227.971 316.25C228.698 316.924 229.277 317.818 229.709 318.932C230.141 320.045 230.357 321.417 230.357 323.045V324.182H216.902V321.864H227.63C227.63 320.879 227.433 320 227.039 319.227C226.652 318.455 226.099 317.845 225.38 317.398C224.668 316.951 223.827 316.727 222.857 316.727C221.789 316.727 220.865 316.992 220.084 317.523C219.311 318.045 218.717 318.727 218.3 319.568C217.883 320.409 217.675 321.311 217.675 322.273V323.818C217.675 325.136 217.902 326.254 218.357 327.17C218.819 328.08 219.459 328.773 220.277 329.25C221.096 329.72 222.046 329.955 223.13 329.955C223.834 329.955 224.471 329.856 225.039 329.659C225.615 329.455 226.111 329.152 226.527 328.75C226.944 328.341 227.266 327.833 227.493 327.227L230.084 327.955C229.811 328.833 229.353 329.606 228.709 330.273C228.065 330.932 227.27 331.447 226.323 331.818C225.376 332.182 224.311 332.364 223.13 332.364ZM247.391 332L242.073 314.545H244.891L248.664 327.909H248.846L252.573 314.545H255.436L259.118 327.864H259.3L263.073 314.545H265.891L260.573 332H257.936L254.118 318.591H253.846L250.027 332H247.391ZM272.118 321.5V332H269.436V308.727H272.118V317.273H272.346C272.755 316.371 273.368 315.655 274.186 315.125C275.012 314.587 276.111 314.318 277.482 314.318C278.671 314.318 279.713 314.557 280.607 315.034C281.501 315.504 282.194 316.227 282.686 317.205C283.186 318.174 283.436 319.409 283.436 320.909V332H280.755V321.091C280.755 319.705 280.395 318.633 279.675 317.875C278.963 317.11 277.974 316.727 276.709 316.727C275.83 316.727 275.043 316.913 274.346 317.284C273.656 317.655 273.111 318.197 272.709 318.909C272.315 319.621 272.118 320.485 272.118 321.5ZM288.343 332V314.545H291.025V332H288.343ZM289.706 311.636C289.184 311.636 288.733 311.458 288.354 311.102C287.983 310.746 287.797 310.318 287.797 309.818C287.797 309.318 287.983 308.89 288.354 308.534C288.733 308.178 289.184 308 289.706 308C290.229 308 290.676 308.178 291.047 308.534C291.426 308.89 291.615 309.318 291.615 309.818C291.615 310.318 291.426 310.746 291.047 311.102C290.676 311.458 290.229 311.636 289.706 311.636ZM303.027 332.364C301.391 332.364 299.982 331.977 298.8 331.205C297.618 330.432 296.709 329.367 296.073 328.011C295.436 326.655 295.118 325.106 295.118 323.364C295.118 321.591 295.444 320.027 296.096 318.67C296.755 317.307 297.671 316.242 298.846 315.477C300.027 314.705 301.406 314.318 302.982 314.318C304.209 314.318 305.315 314.545 306.3 315C307.285 315.455 308.092 316.091 308.721 316.909C309.349 317.727 309.74 318.682 309.891 319.773H307.209C307.005 318.977 306.55 318.273 305.846 317.659C305.149 317.038 304.209 316.727 303.027 316.727C301.982 316.727 301.065 317 300.277 317.545C299.497 318.083 298.887 318.845 298.448 319.83C298.016 320.807 297.8 321.955 297.8 323.273C297.8 324.621 298.012 325.795 298.436 326.795C298.868 327.795 299.474 328.572 300.255 329.125C301.043 329.678 301.967 329.955 303.027 329.955C303.724 329.955 304.357 329.833 304.925 329.591C305.493 329.348 305.974 329 306.368 328.545C306.762 328.091 307.043 327.545 307.209 326.909H309.891C309.74 327.939 309.365 328.867 308.766 329.693C308.175 330.511 307.391 331.163 306.414 331.648C305.444 332.125 304.315 332.364 303.027 332.364ZM316.493 321.5V332H313.811V308.727H316.493V317.273H316.721C317.13 316.371 317.743 315.655 318.561 315.125C319.387 314.587 320.486 314.318 321.857 314.318C323.046 314.318 324.088 314.557 324.982 315.034C325.876 315.504 326.569 316.227 327.061 317.205C327.561 318.174 327.811 319.409 327.811 320.909V332H325.13V321.091C325.13 319.705 324.77 318.633 324.05 317.875C323.338 317.11 322.349 316.727 321.084 316.727C320.205 316.727 319.418 316.913 318.721 317.284C318.031 317.655 317.486 318.197 317.084 318.909C316.69 319.621 316.493 320.485 316.493 321.5ZM341.718 338.545V314.545H344.309V317.318H344.627C344.824 317.015 345.097 316.629 345.445 316.159C345.801 315.682 346.309 315.258 346.968 314.886C347.634 314.508 348.536 314.318 349.672 314.318C351.142 314.318 352.437 314.686 353.559 315.42C354.68 316.155 355.555 317.197 356.184 318.545C356.812 319.894 357.127 321.485 357.127 323.318C357.127 325.167 356.812 326.769 356.184 328.125C355.555 329.473 354.684 330.519 353.57 331.261C352.456 331.996 351.172 332.364 349.718 332.364C348.597 332.364 347.699 332.178 347.025 331.807C346.35 331.428 345.831 331 345.468 330.523C345.104 330.038 344.824 329.636 344.627 329.318H344.4V338.545H341.718ZM344.354 323.273C344.354 324.591 344.547 325.754 344.934 326.761C345.32 327.761 345.884 328.545 346.627 329.114C347.369 329.674 348.278 329.955 349.354 329.955C350.475 329.955 351.411 329.659 352.161 329.068C352.918 328.47 353.487 327.667 353.865 326.659C354.252 325.644 354.445 324.515 354.445 323.273C354.445 322.045 354.256 320.939 353.877 319.955C353.506 318.962 352.941 318.178 352.184 317.602C351.434 317.019 350.49 316.727 349.354 316.727C348.263 316.727 347.347 317.004 346.604 317.557C345.862 318.102 345.301 318.867 344.922 319.852C344.543 320.83 344.354 321.97 344.354 323.273ZM361.218 332V314.545H363.809V317.182H363.99C364.309 316.318 364.884 315.617 365.718 315.08C366.551 314.542 367.49 314.273 368.536 314.273C368.733 314.273 368.979 314.277 369.275 314.284C369.57 314.292 369.793 314.303 369.945 314.318V317.045C369.854 317.023 369.646 316.989 369.32 316.943C369.002 316.89 368.665 316.864 368.309 316.864C367.46 316.864 366.703 317.042 366.036 317.398C365.377 317.746 364.854 318.231 364.468 318.852C364.089 319.466 363.9 320.167 363.9 320.955V332H361.218ZM379.684 332.364C378.108 332.364 376.725 331.989 375.536 331.239C374.354 330.489 373.43 329.439 372.763 328.091C372.104 326.742 371.775 325.167 371.775 323.364C371.775 321.545 372.104 319.958 372.763 318.602C373.43 317.246 374.354 316.193 375.536 315.443C376.725 314.693 378.108 314.318 379.684 314.318C381.259 314.318 382.638 314.693 383.82 315.443C385.009 316.193 385.934 317.246 386.593 318.602C387.259 319.958 387.593 321.545 387.593 323.364C387.593 325.167 387.259 326.742 386.593 328.091C385.934 329.439 385.009 330.489 383.82 331.239C382.638 331.989 381.259 332.364 379.684 332.364ZM379.684 329.955C380.881 329.955 381.865 329.648 382.638 329.034C383.411 328.42 383.983 327.614 384.354 326.614C384.725 325.614 384.911 324.53 384.911 323.364C384.911 322.197 384.725 321.11 384.354 320.102C383.983 319.095 383.411 318.28 382.638 317.659C381.865 317.038 380.881 316.727 379.684 316.727C378.487 316.727 377.502 317.038 376.729 317.659C375.956 318.28 375.384 319.095 375.013 320.102C374.642 321.11 374.456 322.197 374.456 323.364C374.456 324.53 374.642 325.614 375.013 326.614C375.384 327.614 375.956 328.42 376.729 329.034C377.502 329.648 378.487 329.955 379.684 329.955ZM392.05 332V308.727H394.732V317.318H394.959C395.156 317.015 395.429 316.629 395.777 316.159C396.133 315.682 396.641 315.258 397.3 314.886C397.967 314.508 398.868 314.318 400.005 314.318C401.474 314.318 402.77 314.686 403.891 315.42C405.012 316.155 405.887 317.197 406.516 318.545C407.145 319.894 407.459 321.485 407.459 323.318C407.459 325.167 407.145 326.769 406.516 328.125C405.887 329.473 405.016 330.519 403.902 331.261C402.789 331.996 401.505 332.364 400.05 332.364C398.929 332.364 398.031 332.178 397.357 331.807C396.683 331.428 396.164 331 395.8 330.523C395.436 330.038 395.156 329.636 394.959 329.318H394.641V332H392.05ZM394.686 323.273C394.686 324.591 394.88 325.754 395.266 326.761C395.652 327.761 396.217 328.545 396.959 329.114C397.702 329.674 398.611 329.955 399.686 329.955C400.808 329.955 401.743 329.659 402.493 329.068C403.251 328.47 403.819 327.667 404.198 326.659C404.584 325.644 404.777 324.515 404.777 323.273C404.777 322.045 404.588 320.939 404.209 319.955C403.838 318.962 403.274 318.178 402.516 317.602C401.766 317.019 400.823 316.727 399.686 316.727C398.596 316.727 397.679 317.004 396.936 317.557C396.194 318.102 395.633 318.867 395.255 319.852C394.876 320.83 394.686 321.97 394.686 323.273ZM414.243 308.727V332H411.561V308.727H414.243ZM426.473 332.364C424.792 332.364 423.341 331.992 422.121 331.25C420.909 330.5 419.973 329.455 419.314 328.114C418.663 326.765 418.337 325.197 418.337 323.409C418.337 321.621 418.663 320.045 419.314 318.682C419.973 317.311 420.89 316.242 422.064 315.477C423.246 314.705 424.625 314.318 426.201 314.318C427.11 314.318 428.008 314.47 428.894 314.773C429.78 315.076 430.587 315.568 431.314 316.25C432.042 316.924 432.621 317.818 433.053 318.932C433.485 320.045 433.701 321.417 433.701 323.045V324.182H420.246V321.864H430.973C430.973 320.879 430.776 320 430.383 319.227C429.996 318.455 429.443 317.845 428.723 317.398C428.011 316.951 427.17 316.727 426.201 316.727C425.133 316.727 424.208 316.992 423.428 317.523C422.655 318.045 422.061 318.727 421.644 319.568C421.227 320.409 421.019 321.311 421.019 322.273V323.818C421.019 325.136 421.246 326.254 421.701 327.17C422.163 328.08 422.803 328.773 423.621 329.25C424.439 329.72 425.39 329.955 426.473 329.955C427.178 329.955 427.814 329.856 428.383 329.659C428.958 329.455 429.454 329.152 429.871 328.75C430.288 328.341 430.61 327.833 430.837 327.227L433.428 327.955C433.155 328.833 432.697 329.606 432.053 330.273C431.409 330.932 430.614 331.447 429.667 331.818C428.72 332.182 427.655 332.364 426.473 332.364ZM437.78 332V314.545H440.371V317.273H440.598C440.962 316.341 441.549 315.617 442.36 315.102C443.17 314.58 444.144 314.318 445.28 314.318C446.432 314.318 447.39 314.58 448.155 315.102C448.928 315.617 449.53 316.341 449.962 317.273H450.144C450.591 316.371 451.261 315.655 452.155 315.125C453.049 314.587 454.121 314.318 455.371 314.318C456.932 314.318 458.208 314.807 459.201 315.784C460.193 316.754 460.689 318.265 460.689 320.318V332H458.008V320.318C458.008 319.03 457.655 318.11 456.951 317.557C456.246 317.004 455.417 316.727 454.462 316.727C453.235 316.727 452.284 317.098 451.61 317.841C450.936 318.576 450.598 319.508 450.598 320.636V332H447.871V320.045C447.871 319.053 447.549 318.254 446.905 317.648C446.261 317.034 445.432 316.727 444.417 316.727C443.72 316.727 443.068 316.913 442.462 317.284C441.864 317.655 441.379 318.17 441.008 318.83C440.644 319.481 440.462 320.235 440.462 321.091V332H437.78ZM478.547 332L473.229 314.545H476.047L479.82 327.909H480.002L483.729 314.545H486.593L490.275 327.864H490.456L494.229 314.545H497.047L491.729 332H489.093L485.275 318.591H485.002L481.184 332H478.547ZM507.317 332.364C505.635 332.364 504.185 331.992 502.965 331.25C501.753 330.5 500.817 329.455 500.158 328.114C499.507 326.765 499.181 325.197 499.181 323.409C499.181 321.621 499.507 320.045 500.158 318.682C500.817 317.311 501.734 316.242 502.908 315.477C504.09 314.705 505.469 314.318 507.044 314.318C507.954 314.318 508.851 314.47 509.738 314.773C510.624 315.076 511.431 315.568 512.158 316.25C512.885 316.924 513.465 317.818 513.897 318.932C514.329 320.045 514.544 321.417 514.544 323.045V324.182H501.09V321.864H511.817C511.817 320.879 511.62 320 511.226 319.227C510.84 318.455 510.287 317.845 509.567 317.398C508.855 316.951 508.014 316.727 507.044 316.727C505.976 316.727 505.052 316.992 504.272 317.523C503.499 318.045 502.904 318.727 502.488 319.568C502.071 320.409 501.863 321.311 501.863 322.273V323.818C501.863 325.136 502.09 326.254 502.544 327.17C503.007 328.08 503.647 328.773 504.465 329.25C505.283 329.72 506.234 329.955 507.317 329.955C508.022 329.955 508.658 329.856 509.226 329.659C509.802 329.455 510.298 329.152 510.715 328.75C511.132 328.341 511.454 327.833 511.681 327.227L514.272 327.955C513.999 328.833 513.541 329.606 512.897 330.273C512.253 330.932 511.457 331.447 510.51 331.818C509.563 332.182 508.499 332.364 507.317 332.364ZM539.988 318.455L537.579 319.136C537.427 318.735 537.204 318.345 536.908 317.966C536.62 317.58 536.226 317.261 535.726 317.011C535.226 316.761 534.586 316.636 533.806 316.636C532.738 316.636 531.847 316.883 531.135 317.375C530.431 317.86 530.079 318.477 530.079 319.227C530.079 319.894 530.321 320.42 530.806 320.807C531.291 321.193 532.048 321.515 533.079 321.773L535.669 322.409C537.23 322.788 538.393 323.367 539.158 324.148C539.923 324.92 540.306 325.917 540.306 327.136C540.306 328.136 540.018 329.03 539.442 329.818C538.874 330.606 538.079 331.227 537.056 331.682C536.033 332.136 534.844 332.364 533.488 332.364C531.707 332.364 530.234 331.977 529.067 331.205C527.9 330.432 527.162 329.303 526.851 327.818L529.397 327.182C529.639 328.121 530.097 328.826 530.772 329.295C531.454 329.765 532.344 330 533.442 330C534.692 330 535.685 329.735 536.419 329.205C537.162 328.667 537.533 328.023 537.533 327.273C537.533 326.667 537.321 326.159 536.897 325.75C536.472 325.333 535.821 325.023 534.942 324.818L532.033 324.136C530.435 323.758 529.26 323.17 528.51 322.375C527.768 321.572 527.397 320.568 527.397 319.364C527.397 318.379 527.673 317.508 528.226 316.75C528.787 315.992 529.548 315.398 530.51 314.966C531.48 314.534 532.579 314.318 533.806 314.318C535.533 314.318 536.889 314.697 537.874 315.455C538.866 316.212 539.571 317.212 539.988 318.455ZM551.934 314.545V316.818H542.888V314.545H551.934ZM545.525 310.364H548.206V327C548.206 327.758 548.316 328.326 548.536 328.705C548.763 329.076 549.051 329.326 549.4 329.455C549.756 329.576 550.131 329.636 550.525 329.636C550.82 329.636 551.062 329.621 551.252 329.591C551.441 329.553 551.593 329.523 551.706 329.5L552.252 331.909C552.07 331.977 551.816 332.045 551.49 332.114C551.165 332.189 550.752 332.227 550.252 332.227C549.494 332.227 548.752 332.064 548.025 331.739C547.305 331.413 546.706 330.917 546.229 330.25C545.759 329.583 545.525 328.742 545.525 327.727V310.364ZM566.968 324.864V314.545H569.65V332H566.968V329.045H566.786C566.377 329.932 565.74 330.686 564.877 331.307C564.013 331.92 562.922 332.227 561.604 332.227C560.513 332.227 559.543 331.989 558.695 331.511C557.847 331.027 557.18 330.299 556.695 329.33C556.21 328.352 555.968 327.121 555.968 325.636V314.545H558.65V325.455C558.65 326.727 559.006 327.742 559.718 328.5C560.437 329.258 561.354 329.636 562.468 329.636C563.134 329.636 563.812 329.466 564.502 329.125C565.199 328.784 565.782 328.261 566.252 327.557C566.729 326.852 566.968 325.955 566.968 324.864ZM581.152 332.364C579.698 332.364 578.414 331.996 577.3 331.261C576.186 330.519 575.315 329.473 574.686 328.125C574.058 326.769 573.743 325.167 573.743 323.318C573.743 321.485 574.058 319.894 574.686 318.545C575.315 317.197 576.19 316.155 577.311 315.42C578.433 314.686 579.728 314.318 581.198 314.318C582.334 314.318 583.232 314.508 583.891 314.886C584.558 315.258 585.065 315.682 585.414 316.159C585.77 316.629 586.046 317.015 586.243 317.318H586.471V308.727H589.152V332H586.561V329.318H586.243C586.046 329.636 585.766 330.038 585.402 330.523C585.039 331 584.52 331.428 583.846 331.807C583.171 332.178 582.274 332.364 581.152 332.364ZM581.516 329.955C582.592 329.955 583.501 329.674 584.243 329.114C584.986 328.545 585.55 327.761 585.936 326.761C586.323 325.754 586.516 324.591 586.516 323.273C586.516 321.97 586.327 320.83 585.948 319.852C585.569 318.867 585.008 318.102 584.266 317.557C583.524 317.004 582.607 316.727 581.516 316.727C580.38 316.727 579.433 317.019 578.675 317.602C577.925 318.178 577.361 318.962 576.982 319.955C576.611 320.939 576.425 322.045 576.425 323.273C576.425 324.515 576.615 325.644 576.993 326.659C577.38 327.667 577.948 328.47 578.698 329.068C579.455 329.659 580.395 329.955 581.516 329.955ZM596.164 338.545C595.709 338.545 595.304 338.508 594.948 338.432C594.592 338.364 594.346 338.295 594.209 338.227L594.891 335.864C595.543 336.03 596.118 336.091 596.618 336.045C597.118 336 597.561 335.777 597.948 335.375C598.342 334.981 598.702 334.341 599.027 333.455L599.527 332.091L593.073 314.545H595.982L600.8 328.455H600.982L605.8 314.545H608.709L601.3 334.545C600.967 335.447 600.554 336.193 600.061 336.784C599.569 337.383 598.997 337.826 598.346 338.114C597.702 338.402 596.974 338.545 596.164 338.545ZM623.204 332.182C622.643 332.182 622.162 331.981 621.76 331.58C621.359 331.178 621.158 330.697 621.158 330.136C621.158 329.576 621.359 329.095 621.76 328.693C622.162 328.292 622.643 328.091 623.204 328.091C623.764 328.091 624.245 328.292 624.647 328.693C625.048 329.095 625.249 329.576 625.249 330.136C625.249 330.508 625.154 330.848 624.965 331.159C624.783 331.47 624.537 331.72 624.226 331.909C623.923 332.091 623.582 332.182 623.204 332.182ZM623.204 319.227C622.643 319.227 622.162 319.027 621.76 318.625C621.359 318.223 621.158 317.742 621.158 317.182C621.158 316.621 621.359 316.14 621.76 315.739C622.162 315.337 622.643 315.136 623.204 315.136C623.764 315.136 624.245 315.337 624.647 315.739C625.048 316.14 625.249 316.621 625.249 317.182C625.249 317.553 625.154 317.894 624.965 318.205C624.783 318.515 624.537 318.765 624.226 318.955C623.923 319.136 623.582 319.227 623.204 319.227ZM639.061 332V314.545H641.652V317.182H641.834C642.152 316.318 642.728 315.617 643.561 315.08C644.395 314.542 645.334 314.273 646.38 314.273C646.577 314.273 646.823 314.277 647.118 314.284C647.414 314.292 647.637 314.303 647.789 314.318V317.045C647.698 317.023 647.49 316.989 647.164 316.943C646.846 316.89 646.508 316.864 646.152 316.864C645.304 316.864 644.546 317.042 643.88 317.398C643.221 317.746 642.698 318.231 642.311 318.852C641.933 319.466 641.743 320.167 641.743 320.955V332H639.061ZM657.755 332.364C656.073 332.364 654.622 331.992 653.402 331.25C652.19 330.5 651.255 329.455 650.596 328.114C649.944 326.765 649.618 325.197 649.618 323.409C649.618 321.621 649.944 320.045 650.596 318.682C651.255 317.311 652.171 316.242 653.346 315.477C654.527 314.705 655.906 314.318 657.482 314.318C658.391 314.318 659.289 314.47 660.175 314.773C661.061 315.076 661.868 315.568 662.596 316.25C663.323 316.924 663.902 317.818 664.334 318.932C664.766 320.045 664.982 321.417 664.982 323.045V324.182H651.527V321.864H662.255C662.255 320.879 662.058 320 661.664 319.227C661.277 318.455 660.724 317.845 660.005 317.398C659.293 316.951 658.452 316.727 657.482 316.727C656.414 316.727 655.49 316.992 654.709 317.523C653.936 318.045 653.342 318.727 652.925 319.568C652.508 320.409 652.3 321.311 652.3 322.273V323.818C652.3 325.136 652.527 326.254 652.982 327.17C653.444 328.08 654.084 328.773 654.902 329.25C655.721 329.72 656.671 329.955 657.755 329.955C658.459 329.955 659.096 329.856 659.664 329.659C660.24 329.455 660.736 329.152 661.152 328.75C661.569 328.341 661.891 327.833 662.118 327.227L664.709 327.955C664.436 328.833 663.978 329.606 663.334 330.273C662.69 330.932 661.895 331.447 660.948 331.818C660.001 332.182 658.936 332.364 657.755 332.364ZM674.198 332.409C673.092 332.409 672.088 332.201 671.186 331.784C670.285 331.36 669.569 330.75 669.039 329.955C668.508 329.152 668.243 328.182 668.243 327.045C668.243 326.045 668.44 325.235 668.834 324.614C669.228 323.985 669.755 323.492 670.414 323.136C671.073 322.78 671.8 322.515 672.596 322.341C673.399 322.159 674.205 322.015 675.016 321.909C676.077 321.773 676.936 321.67 677.596 321.602C678.262 321.527 678.747 321.402 679.05 321.227C679.361 321.053 679.516 320.75 679.516 320.318V320.227C679.516 319.106 679.209 318.235 678.596 317.614C677.99 316.992 677.069 316.682 675.834 316.682C674.554 316.682 673.55 316.962 672.823 317.523C672.096 318.083 671.584 318.682 671.289 319.318L668.743 318.409C669.198 317.348 669.804 316.523 670.561 315.932C671.327 315.333 672.16 314.917 673.061 314.682C673.971 314.439 674.865 314.318 675.743 314.318C676.304 314.318 676.948 314.386 677.675 314.523C678.41 314.652 679.118 314.92 679.8 315.33C680.49 315.739 681.061 316.356 681.516 317.182C681.971 318.008 682.198 319.114 682.198 320.5V332H679.516V329.636H679.38C679.198 330.015 678.895 330.42 678.471 330.852C678.046 331.284 677.482 331.652 676.777 331.955C676.073 332.258 675.213 332.409 674.198 332.409ZM674.607 330C675.668 330 676.561 329.792 677.289 329.375C678.024 328.958 678.577 328.42 678.948 327.761C679.327 327.102 679.516 326.409 679.516 325.682V323.227C679.402 323.364 679.152 323.489 678.766 323.602C678.387 323.708 677.948 323.803 677.448 323.886C676.955 323.962 676.474 324.03 676.005 324.091C675.543 324.144 675.168 324.189 674.88 324.227C674.183 324.318 673.531 324.466 672.925 324.67C672.327 324.867 671.842 325.167 671.471 325.568C671.107 325.962 670.925 326.5 670.925 327.182C670.925 328.114 671.27 328.818 671.959 329.295C672.656 329.765 673.539 330 674.607 330ZM694.184 332.364C692.547 332.364 691.138 331.977 689.956 331.205C688.775 330.432 687.865 329.367 687.229 328.011C686.593 326.655 686.275 325.106 686.275 323.364C686.275 321.591 686.6 320.027 687.252 318.67C687.911 317.307 688.828 316.242 690.002 315.477C691.184 314.705 692.562 314.318 694.138 314.318C695.365 314.318 696.472 314.545 697.456 315C698.441 315.455 699.248 316.091 699.877 316.909C700.506 317.727 700.896 318.682 701.047 319.773H698.365C698.161 318.977 697.706 318.273 697.002 317.659C696.305 317.038 695.365 316.727 694.184 316.727C693.138 316.727 692.222 317 691.434 317.545C690.653 318.083 690.043 318.845 689.604 319.83C689.172 320.807 688.956 321.955 688.956 323.273C688.956 324.621 689.168 325.795 689.593 326.795C690.025 327.795 690.631 328.572 691.411 329.125C692.199 329.678 693.123 329.955 694.184 329.955C694.881 329.955 695.513 329.833 696.081 329.591C696.65 329.348 697.131 329 697.525 328.545C697.918 328.091 698.199 327.545 698.365 326.909H701.047C700.896 327.939 700.521 328.867 699.922 329.693C699.331 330.511 698.547 331.163 697.57 331.648C696.6 332.125 695.472 332.364 694.184 332.364ZM707.65 321.5V332H704.968V308.727H707.65V317.273H707.877C708.286 316.371 708.9 315.655 709.718 315.125C710.543 314.587 711.642 314.318 713.013 314.318C714.203 314.318 715.244 314.557 716.138 315.034C717.032 315.504 717.725 316.227 718.218 317.205C718.718 318.174 718.968 319.409 718.968 320.909V332H716.286V321.091C716.286 319.705 715.926 318.633 715.206 317.875C714.494 317.11 713.506 316.727 712.24 316.727C711.362 316.727 710.574 316.913 709.877 317.284C709.187 317.655 708.642 318.197 708.24 318.909C707.847 319.621 707.65 320.485 707.65 321.5ZM729.01 332.409C727.904 332.409 726.9 332.201 725.999 331.784C725.097 331.36 724.382 330.75 723.851 329.955C723.321 329.152 723.056 328.182 723.056 327.045C723.056 326.045 723.253 325.235 723.647 324.614C724.041 323.985 724.567 323.492 725.226 323.136C725.885 322.78 726.613 322.515 727.408 322.341C728.211 322.159 729.018 322.015 729.829 321.909C730.889 321.773 731.749 321.67 732.408 321.602C733.075 321.527 733.56 321.402 733.863 321.227C734.173 321.053 734.329 320.75 734.329 320.318V320.227C734.329 319.106 734.022 318.235 733.408 317.614C732.802 316.992 731.882 316.682 730.647 316.682C729.366 316.682 728.363 316.962 727.635 317.523C726.908 318.083 726.397 318.682 726.101 319.318L723.556 318.409C724.01 317.348 724.616 316.523 725.374 315.932C726.139 315.333 726.972 314.917 727.874 314.682C728.783 314.439 729.677 314.318 730.556 314.318C731.116 314.318 731.76 314.386 732.488 314.523C733.222 314.652 733.931 314.92 734.613 315.33C735.302 315.739 735.874 316.356 736.329 317.182C736.783 318.008 737.01 319.114 737.01 320.5V332H734.329V329.636H734.192C734.01 330.015 733.707 330.42 733.283 330.852C732.859 331.284 732.294 331.652 731.59 331.955C730.885 332.258 730.025 332.409 729.01 332.409ZM729.419 330C730.48 330 731.374 329.792 732.101 329.375C732.836 328.958 733.389 328.42 733.76 327.761C734.139 327.102 734.329 326.409 734.329 325.682V323.227C734.215 323.364 733.965 323.489 733.579 323.602C733.2 323.708 732.76 323.803 732.26 323.886C731.768 323.962 731.287 324.03 730.817 324.091C730.355 324.144 729.98 324.189 729.692 324.227C728.995 324.318 728.344 324.466 727.738 324.67C727.139 324.867 726.654 325.167 726.283 325.568C725.919 325.962 725.738 326.5 725.738 327.182C725.738 328.114 726.082 328.818 726.772 329.295C727.469 329.765 728.351 330 729.419 330ZM742.269 332V308.727H744.951V317.318H745.178C745.375 317.015 745.648 316.629 745.996 316.159C746.352 315.682 746.86 315.258 747.519 314.886C748.186 314.508 749.087 314.318 750.223 314.318C751.693 314.318 752.989 314.686 754.11 315.42C755.231 316.155 756.106 317.197 756.735 318.545C757.364 319.894 757.678 321.485 757.678 323.318C757.678 325.167 757.364 326.769 756.735 328.125C756.106 329.473 755.235 330.519 754.121 331.261C753.008 331.996 751.723 332.364 750.269 332.364C749.148 332.364 748.25 332.178 747.576 331.807C746.901 331.428 746.383 331 746.019 330.523C745.655 330.038 745.375 329.636 745.178 329.318H744.86V332H742.269ZM744.905 323.273C744.905 324.591 745.098 325.754 745.485 326.761C745.871 327.761 746.436 328.545 747.178 329.114C747.92 329.674 748.829 329.955 749.905 329.955C751.026 329.955 751.962 329.659 752.712 329.068C753.47 328.47 754.038 327.667 754.417 326.659C754.803 325.644 754.996 324.515 754.996 323.273C754.996 322.045 754.807 320.939 754.428 319.955C754.057 318.962 753.492 318.178 752.735 317.602C751.985 317.019 751.042 316.727 749.905 316.727C748.814 316.727 747.898 317.004 747.155 317.557C746.413 318.102 745.852 318.867 745.473 319.852C745.095 320.83 744.905 321.97 744.905 323.273ZM761.78 332V314.545H764.462V332H761.78ZM763.144 311.636C762.621 311.636 762.17 311.458 761.792 311.102C761.42 310.746 761.235 310.318 761.235 309.818C761.235 309.318 761.42 308.89 761.792 308.534C762.17 308.178 762.621 308 763.144 308C763.667 308 764.114 308.178 764.485 308.534C764.864 308.89 765.053 309.318 765.053 309.818C765.053 310.318 764.864 310.746 764.485 311.102C764.114 311.458 763.667 311.636 763.144 311.636ZM772.056 308.727V332H769.374V308.727H772.056ZM776.968 332V314.545H779.65V332H776.968ZM778.331 311.636C777.809 311.636 777.358 311.458 776.979 311.102C776.608 310.746 776.422 310.318 776.422 309.818C776.422 309.318 776.608 308.89 776.979 308.534C777.358 308.178 777.809 308 778.331 308C778.854 308 779.301 308.178 779.672 308.534C780.051 308.89 780.24 309.318 780.24 309.818C780.24 310.318 780.051 310.746 779.672 311.102C779.301 311.458 778.854 311.636 778.331 311.636ZM792.152 314.545V316.818H783.107V314.545H792.152ZM785.743 310.364H788.425V327C788.425 327.758 788.535 328.326 788.755 328.705C788.982 329.076 789.27 329.326 789.618 329.455C789.974 329.576 790.349 329.636 790.743 329.636C791.039 329.636 791.281 329.621 791.471 329.591C791.66 329.553 791.811 329.523 791.925 329.5L792.471 331.909C792.289 331.977 792.035 332.045 791.709 332.114C791.383 332.189 790.971 332.227 790.471 332.227C789.713 332.227 788.971 332.064 788.243 331.739C787.524 331.413 786.925 330.917 786.448 330.25C785.978 329.583 785.743 328.742 785.743 327.727V310.364ZM797.914 338.545C797.459 338.545 797.054 338.508 796.698 338.432C796.342 338.364 796.096 338.295 795.959 338.227L796.641 335.864C797.293 336.03 797.868 336.091 798.368 336.045C798.868 336 799.311 335.777 799.698 335.375C800.092 334.981 800.452 334.341 800.777 333.455L801.277 332.091L794.823 314.545H797.732L802.55 328.455H802.732L807.55 314.545H810.459L803.05 334.545C802.717 335.447 802.304 336.193 801.811 336.784C801.319 337.383 800.747 337.826 800.096 338.114C799.452 338.402 798.724 338.545 797.914 338.545ZM830.09 332.364C828.514 332.364 827.132 331.989 825.942 331.239C824.76 330.489 823.836 329.439 823.169 328.091C822.51 326.742 822.181 325.167 822.181 323.364C822.181 321.545 822.51 319.958 823.169 318.602C823.836 317.246 824.76 316.193 825.942 315.443C827.132 314.693 828.514 314.318 830.09 314.318C831.666 314.318 833.044 314.693 834.226 315.443C835.416 316.193 836.34 317.246 836.999 318.602C837.666 319.958 837.999 321.545 837.999 323.364C837.999 325.167 837.666 326.742 836.999 328.091C836.34 329.439 835.416 330.489 834.226 331.239C833.044 331.989 831.666 332.364 830.09 332.364ZM830.09 329.955C831.287 329.955 832.272 329.648 833.044 329.034C833.817 328.42 834.389 327.614 834.76 326.614C835.132 325.614 835.317 324.53 835.317 323.364C835.317 322.197 835.132 321.11 834.76 320.102C834.389 319.095 833.817 318.28 833.044 317.659C832.272 317.038 831.287 316.727 830.09 316.727C828.893 316.727 827.908 317.038 827.135 317.659C826.363 318.28 825.791 319.095 825.419 320.102C825.048 321.11 824.863 322.197 824.863 323.364C824.863 324.53 825.048 325.614 825.419 326.614C825.791 327.614 826.363 328.42 827.135 329.034C827.908 329.648 828.893 329.955 830.09 329.955ZM849.865 314.545V316.818H840.456V314.545H849.865ZM843.275 332V312.136C843.275 311.136 843.509 310.303 843.979 309.636C844.449 308.97 845.059 308.47 845.809 308.136C846.559 307.803 847.35 307.636 848.184 307.636C848.843 307.636 849.381 307.689 849.797 307.795C850.214 307.902 850.525 308 850.729 308.091L849.956 310.409C849.82 310.364 849.631 310.307 849.388 310.239C849.153 310.17 848.843 310.136 848.456 310.136C847.57 310.136 846.93 310.36 846.536 310.807C846.15 311.254 845.956 311.909 845.956 312.773V332H843.275ZM870.397 314.545V316.818H860.988V314.545H870.397ZM863.806 332V312.136C863.806 311.136 864.041 310.303 864.51 309.636C864.98 308.97 865.59 308.47 866.34 308.136C867.09 307.803 867.882 307.636 868.715 307.636C869.374 307.636 869.912 307.689 870.329 307.795C870.745 307.902 871.056 308 871.26 308.091L870.488 310.409C870.351 310.364 870.162 310.307 869.919 310.239C869.685 310.17 869.374 310.136 868.988 310.136C868.101 310.136 867.461 310.36 867.067 310.807C866.681 311.254 866.488 311.909 866.488 312.773V332H863.806ZM874.155 332V314.545H876.837V332H874.155ZM875.519 311.636C874.996 311.636 874.545 311.458 874.167 311.102C873.795 310.746 873.61 310.318 873.61 309.818C873.61 309.318 873.795 308.89 874.167 308.534C874.545 308.178 874.996 308 875.519 308C876.042 308 876.489 308.178 876.86 308.534C877.239 308.89 877.428 309.318 877.428 309.818C877.428 310.318 877.239 310.746 876.86 311.102C876.489 311.458 876.042 311.636 875.519 311.636ZM884.431 321.5V332H881.749V314.545H884.34V317.273H884.567C884.976 316.386 885.597 315.674 886.431 315.136C887.264 314.591 888.34 314.318 889.658 314.318C890.84 314.318 891.874 314.561 892.76 315.045C893.647 315.523 894.336 316.25 894.829 317.227C895.321 318.197 895.567 319.424 895.567 320.909V332H892.885V321.091C892.885 319.72 892.529 318.652 891.817 317.886C891.105 317.114 890.128 316.727 888.885 316.727C888.029 316.727 887.264 316.913 886.59 317.284C885.923 317.655 885.397 318.197 885.01 318.909C884.624 319.621 884.431 320.485 884.431 321.5ZM905.604 332.409C904.498 332.409 903.494 332.201 902.593 331.784C901.691 331.36 900.975 330.75 900.445 329.955C899.915 329.152 899.65 328.182 899.65 327.045C899.65 326.045 899.847 325.235 900.24 324.614C900.634 323.985 901.161 323.492 901.82 323.136C902.479 322.78 903.206 322.515 904.002 322.341C904.805 322.159 905.612 322.015 906.422 321.909C907.483 321.773 908.343 321.67 909.002 321.602C909.668 321.527 910.153 321.402 910.456 321.227C910.767 321.053 910.922 320.75 910.922 320.318V320.227C910.922 319.106 910.615 318.235 910.002 317.614C909.396 316.992 908.475 316.682 907.24 316.682C905.96 316.682 904.956 316.962 904.229 317.523C903.502 318.083 902.99 318.682 902.695 319.318L900.15 318.409C900.604 317.348 901.21 316.523 901.968 315.932C902.733 315.333 903.566 314.917 904.468 314.682C905.377 314.439 906.271 314.318 907.15 314.318C907.71 314.318 908.354 314.386 909.081 314.523C909.816 314.652 910.525 314.92 911.206 315.33C911.896 315.739 912.468 316.356 912.922 317.182C913.377 318.008 913.604 319.114 913.604 320.5V332H910.922V329.636H910.786C910.604 330.015 910.301 330.42 909.877 330.852C909.453 331.284 908.888 331.652 908.184 331.955C907.479 332.258 906.619 332.409 905.604 332.409ZM906.013 330C907.074 330 907.968 329.792 908.695 329.375C909.43 328.958 909.983 328.42 910.354 327.761C910.733 327.102 910.922 326.409 910.922 325.682V323.227C910.809 323.364 910.559 323.489 910.172 323.602C909.793 323.708 909.354 323.803 908.854 323.886C908.362 323.962 907.881 324.03 907.411 324.091C906.949 324.144 906.574 324.189 906.286 324.227C905.589 324.318 904.937 324.466 904.331 324.67C903.733 324.867 903.248 325.167 902.877 325.568C902.513 325.962 902.331 326.5 902.331 327.182C902.331 328.114 902.676 328.818 903.365 329.295C904.062 329.765 904.945 330 906.013 330ZM921.181 308.727V332H918.499V308.727H921.181ZM947.456 318.455L945.047 319.136C944.896 318.735 944.672 318.345 944.377 317.966C944.089 317.58 943.695 317.261 943.195 317.011C942.695 316.761 942.055 316.636 941.275 316.636C940.206 316.636 939.316 316.883 938.604 317.375C937.9 317.86 937.547 318.477 937.547 319.227C937.547 319.894 937.79 320.42 938.275 320.807C938.759 321.193 939.517 321.515 940.547 321.773L943.138 322.409C944.699 322.788 945.862 323.367 946.627 324.148C947.392 324.92 947.775 325.917 947.775 327.136C947.775 328.136 947.487 329.03 946.911 329.818C946.343 330.606 945.547 331.227 944.525 331.682C943.502 332.136 942.312 332.364 940.956 332.364C939.176 332.364 937.703 331.977 936.536 331.205C935.369 330.432 934.631 329.303 934.32 327.818L936.865 327.182C937.108 328.121 937.566 328.826 938.24 329.295C938.922 329.765 939.812 330 940.911 330C942.161 330 943.153 329.735 943.888 329.205C944.631 328.667 945.002 328.023 945.002 327.273C945.002 326.667 944.79 326.159 944.365 325.75C943.941 325.333 943.29 325.023 942.411 324.818L939.502 324.136C937.903 323.758 936.729 323.17 935.979 322.375C935.237 321.572 934.865 320.568 934.865 319.364C934.865 318.379 935.142 317.508 935.695 316.75C936.256 315.992 937.017 315.398 937.979 314.966C938.949 314.534 940.047 314.318 941.275 314.318C943.002 314.318 944.358 314.697 945.343 315.455C946.335 316.212 947.04 317.212 947.456 318.455ZM959.402 314.545V316.818H950.357V314.545H959.402ZM952.993 310.364H955.675V327C955.675 327.758 955.785 328.326 956.005 328.705C956.232 329.076 956.52 329.326 956.868 329.455C957.224 329.576 957.599 329.636 957.993 329.636C958.289 329.636 958.531 329.621 958.721 329.591C958.91 329.553 959.061 329.523 959.175 329.5L959.721 331.909C959.539 331.977 959.285 332.045 958.959 332.114C958.633 332.189 958.221 332.227 957.721 332.227C956.963 332.227 956.221 332.064 955.493 331.739C954.774 331.413 954.175 330.917 953.698 330.25C953.228 329.583 952.993 328.742 952.993 327.727V310.364ZM968.573 332.409C967.467 332.409 966.463 332.201 965.561 331.784C964.66 331.36 963.944 330.75 963.414 329.955C962.883 329.152 962.618 328.182 962.618 327.045C962.618 326.045 962.815 325.235 963.209 324.614C963.603 323.985 964.13 323.492 964.789 323.136C965.448 322.78 966.175 322.515 966.971 322.341C967.774 322.159 968.58 322.015 969.391 321.909C970.452 321.773 971.311 321.67 971.971 321.602C972.637 321.527 973.122 321.402 973.425 321.227C973.736 321.053 973.891 320.75 973.891 320.318V320.227C973.891 319.106 973.584 318.235 972.971 317.614C972.365 316.992 971.444 316.682 970.209 316.682C968.929 316.682 967.925 316.962 967.198 317.523C966.471 318.083 965.959 318.682 965.664 319.318L963.118 318.409C963.573 317.348 964.179 316.523 964.936 315.932C965.702 315.333 966.535 314.917 967.436 314.682C968.346 314.439 969.24 314.318 970.118 314.318C970.679 314.318 971.323 314.386 972.05 314.523C972.785 314.652 973.493 314.92 974.175 315.33C974.865 315.739 975.436 316.356 975.891 317.182C976.346 318.008 976.573 319.114 976.573 320.5V332H973.891V329.636H973.755C973.573 330.015 973.27 330.42 972.846 330.852C972.421 331.284 971.857 331.652 971.152 331.955C970.448 332.258 969.588 332.409 968.573 332.409ZM968.982 330C970.043 330 970.936 329.792 971.664 329.375C972.399 328.958 972.952 328.42 973.323 327.761C973.702 327.102 973.891 326.409 973.891 325.682V323.227C973.777 323.364 973.527 323.489 973.141 323.602C972.762 323.708 972.323 323.803 971.823 323.886C971.33 323.962 970.849 324.03 970.38 324.091C969.918 324.144 969.543 324.189 969.255 324.227C968.558 324.318 967.906 324.466 967.3 324.67C966.702 324.867 966.217 325.167 965.846 325.568C965.482 325.962 965.3 326.5 965.3 327.182C965.3 328.114 965.645 328.818 966.334 329.295C967.031 329.765 967.914 330 968.982 330ZM989.059 314.545V316.818H980.013V314.545H989.059ZM982.65 310.364H985.331V327C985.331 327.758 985.441 328.326 985.661 328.705C985.888 329.076 986.176 329.326 986.525 329.455C986.881 329.576 987.256 329.636 987.65 329.636C987.945 329.636 988.187 329.621 988.377 329.591C988.566 329.553 988.718 329.523 988.831 329.5L989.377 331.909C989.195 331.977 988.941 332.045 988.615 332.114C988.29 332.189 987.877 332.227 987.377 332.227C986.619 332.227 985.877 332.064 985.15 331.739C984.43 331.413 983.831 330.917 983.354 330.25C982.884 329.583 982.65 328.742 982.65 327.727V310.364ZM1000.22 332.364C998.542 332.364 997.091 331.992 995.871 331.25C994.659 330.5 993.723 329.455 993.064 328.114C992.413 326.765 992.087 325.197 992.087 323.409C992.087 321.621 992.413 320.045 993.064 318.682C993.723 317.311 994.64 316.242 995.814 315.477C996.996 314.705 998.375 314.318 999.951 314.318C1000.86 314.318 1001.76 314.47 1002.64 314.773C1003.53 315.076 1004.34 315.568 1005.06 316.25C1005.79 316.924 1006.37 317.818 1006.8 318.932C1007.23 320.045 1007.45 321.417 1007.45 323.045V324.182H993.996V321.864H1004.72C1004.72 320.879 1004.53 320 1004.13 319.227C1003.75 318.455 1003.19 317.845 1002.47 317.398C1001.76 316.951 1000.92 316.727 999.951 316.727C998.883 316.727 997.958 316.992 997.178 317.523C996.405 318.045 995.811 318.727 995.394 319.568C994.977 320.409 994.769 321.311 994.769 322.273V323.818C994.769 325.136 994.996 326.254 995.451 327.17C995.913 328.08 996.553 328.773 997.371 329.25C998.189 329.72 999.14 329.955 1000.22 329.955C1000.93 329.955 1001.56 329.856 1002.13 329.659C1002.71 329.455 1003.2 329.152 1003.62 328.75C1004.04 328.341 1004.36 327.833 1004.59 327.227L1007.18 327.955C1006.91 328.833 1006.45 329.606 1005.8 330.273C1005.16 330.932 1004.36 331.447 1003.42 331.818C1002.47 332.182 1001.41 332.364 1000.22 332.364ZM1023.89 318.455L1021.48 319.136C1021.33 318.735 1021.11 318.345 1020.81 317.966C1020.53 317.58 1020.13 317.261 1019.63 317.011C1019.13 316.761 1018.49 316.636 1017.71 316.636C1016.64 316.636 1015.75 316.883 1015.04 317.375C1014.34 317.86 1013.98 318.477 1013.98 319.227C1013.98 319.894 1014.23 320.42 1014.71 320.807C1015.2 321.193 1015.95 321.515 1016.98 321.773L1019.58 322.409C1021.14 322.788 1022.3 323.367 1023.06 324.148C1023.83 324.92 1024.21 325.917 1024.21 327.136C1024.21 328.136 1023.92 329.03 1023.35 329.818C1022.78 330.606 1021.98 331.227 1020.96 331.682C1019.94 332.136 1018.75 332.364 1017.39 332.364C1015.61 332.364 1014.14 331.977 1012.97 331.205C1011.81 330.432 1011.07 329.303 1010.76 327.818L1013.3 327.182C1013.55 328.121 1014 328.826 1014.68 329.295C1015.36 329.765 1016.25 330 1017.35 330C1018.6 330 1019.59 329.735 1020.33 329.205C1021.07 328.667 1021.44 328.023 1021.44 327.273C1021.44 326.667 1021.23 326.159 1020.8 325.75C1020.38 325.333 1019.73 325.023 1018.85 324.818L1015.94 324.136C1014.34 323.758 1013.17 323.17 1012.42 322.375C1011.67 321.572 1011.3 320.568 1011.3 319.364C1011.3 318.379 1011.58 317.508 1012.13 316.75C1012.69 315.992 1013.45 315.398 1014.42 314.966C1015.39 314.534 1016.48 314.318 1017.71 314.318C1019.44 314.318 1020.8 314.697 1021.78 315.455C1022.77 316.212 1023.48 317.212 1023.89 318.455Z" fill="black"/>
</g>
</svg>
