<svg width="1920" height="1080" viewBox="0 0 1920 1080" fill="none" xmlns="http://www.w3.org/2000/svg">
<g id="not below vs above">
<rect width="1920" height="1080" fill="white"/>
<path id="Not below vs above" d="M657.626 69.9028V116.448H649.126L628.876 87.1528H628.535V116.448H618.694V69.9028H627.33L647.421 99.1755H647.83V69.9028H657.626ZM681.347 117.13C677.817 117.13 674.764 116.38 672.188 114.88C669.628 113.365 667.65 111.259 666.256 108.562C664.862 105.85 664.165 102.706 664.165 99.1301C664.165 95.524 664.862 92.3725 666.256 89.6755C667.65 86.9634 669.628 84.8573 672.188 83.3573C674.764 81.8422 677.817 81.0846 681.347 81.0846C684.878 81.0846 687.923 81.8422 690.484 83.3573C693.059 84.8573 695.044 86.9634 696.438 89.6755C697.832 92.3725 698.529 95.524 698.529 99.1301C698.529 102.706 697.832 105.85 696.438 108.562C695.044 111.259 693.059 113.365 690.484 114.88C687.923 116.38 684.878 117.13 681.347 117.13ZM681.393 109.63C682.999 109.63 684.34 109.176 685.415 108.266C686.491 107.342 687.302 106.085 687.847 104.494C688.408 102.903 688.688 101.092 688.688 99.0619C688.688 97.0316 688.408 95.221 687.847 93.6301C687.302 92.0392 686.491 90.7816 685.415 89.8573C684.34 88.9331 682.999 88.471 681.393 88.471C679.772 88.471 678.408 88.9331 677.302 89.8573C676.211 90.7816 675.385 92.0392 674.825 93.6301C674.279 95.221 674.006 97.0316 674.006 99.0619C674.006 101.092 674.279 102.903 674.825 104.494C675.385 106.085 676.211 107.342 677.302 108.266C678.408 109.176 679.772 109.63 681.393 109.63ZM723.393 81.5392V88.8119H702.37V81.5392H723.393ZM707.143 73.1755H716.825V105.721C716.825 106.615 716.961 107.312 717.234 107.812C717.506 108.297 717.885 108.638 718.37 108.835C718.87 109.032 719.446 109.13 720.097 109.13C720.552 109.13 721.006 109.092 721.461 109.016C721.915 108.926 722.264 108.857 722.506 108.812L724.029 116.016C723.544 116.168 722.862 116.342 721.984 116.539C721.105 116.751 720.037 116.88 718.779 116.926C716.446 117.016 714.4 116.706 712.643 115.994C710.9 115.282 709.544 114.176 708.575 112.676C707.605 111.176 707.128 109.282 707.143 106.994V73.1755ZM744.694 116.448V69.9028H754.376V87.4028H754.671C755.095 86.4634 755.709 85.5088 756.512 84.5392C757.33 83.5543 758.391 82.7361 759.694 82.0846C761.012 81.4179 762.648 81.0846 764.603 81.0846C767.148 81.0846 769.497 81.7513 771.648 83.0846C773.8 84.4028 775.52 86.3952 776.808 89.0619C778.095 91.7134 778.739 95.0392 778.739 99.0392C778.739 102.933 778.111 106.221 776.853 108.903C775.611 111.569 773.914 113.592 771.762 114.971C769.626 116.335 767.232 117.016 764.58 117.016C762.701 117.016 761.103 116.706 759.785 116.085C758.482 115.463 757.414 114.683 756.58 113.744C755.747 112.789 755.111 111.827 754.671 110.857H754.239V116.448H744.694ZM754.171 98.9937C754.171 101.069 754.459 102.88 755.035 104.426C755.611 105.971 756.444 107.176 757.535 108.039C758.626 108.888 759.951 109.312 761.512 109.312C763.088 109.312 764.421 108.88 765.512 108.016C766.603 107.138 767.429 105.926 767.989 104.38C768.565 102.819 768.853 101.024 768.853 98.9937C768.853 96.9785 768.573 95.2058 768.012 93.6755C767.451 92.1452 766.626 90.9482 765.535 90.0846C764.444 89.221 763.103 88.7892 761.512 88.7892C759.936 88.7892 758.603 89.2058 757.512 90.0392C756.436 90.8725 755.611 92.0543 755.035 93.5846C754.459 95.1149 754.171 96.9179 754.171 98.9937ZM801.109 117.13C797.518 117.13 794.427 116.403 791.836 114.948C789.26 113.479 787.275 111.403 785.881 108.721C784.487 106.024 783.79 102.835 783.79 99.1528C783.79 95.5619 784.487 92.4104 785.881 89.6982C787.275 86.9861 789.237 84.8725 791.768 83.3573C794.313 81.8422 797.298 81.0846 800.722 81.0846C803.025 81.0846 805.169 81.4558 807.154 82.1982C809.154 82.9255 810.897 84.024 812.381 85.4937C813.881 86.9634 815.048 88.8119 815.881 91.0392C816.715 93.2513 817.131 95.8422 817.131 98.8119V101.471H787.654V95.471H808.018C808.018 94.077 807.715 92.8422 807.109 91.7664C806.503 90.6907 805.662 89.8498 804.586 89.2437C803.525 88.6225 802.29 88.3119 800.881 88.3119C799.412 88.3119 798.109 88.6528 796.972 89.3346C795.851 90.0013 794.972 90.9028 794.336 92.0392C793.7 93.1604 793.374 94.4104 793.359 95.7892V101.494C793.359 103.221 793.677 104.713 794.313 105.971C794.965 107.229 795.881 108.198 797.063 108.88C798.245 109.562 799.647 109.903 801.268 109.903C802.344 109.903 803.328 109.751 804.222 109.448C805.116 109.145 805.881 108.691 806.518 108.085C807.154 107.479 807.639 106.736 807.972 105.857L816.927 106.448C816.472 108.6 815.54 110.479 814.131 112.085C812.737 113.676 810.934 114.918 808.722 115.812C806.525 116.691 803.987 117.13 801.109 117.13ZM833.131 69.9028V116.448H823.45V69.9028H833.131ZM856.66 117.13C853.129 117.13 850.076 116.38 847.501 114.88C844.94 113.365 842.963 111.259 841.569 108.562C840.175 105.85 839.478 102.706 839.478 99.1301C839.478 95.524 840.175 92.3725 841.569 89.6755C842.963 86.9634 844.94 84.8573 847.501 83.3573C850.076 81.8422 853.129 81.0846 856.66 81.0846C860.19 81.0846 863.236 81.8422 865.796 83.3573C868.372 84.8573 870.357 86.9634 871.751 89.6755C873.145 92.3725 873.842 95.524 873.842 99.1301C873.842 102.706 873.145 105.85 871.751 108.562C870.357 111.259 868.372 113.365 865.796 114.88C863.236 116.38 860.19 117.13 856.66 117.13ZM856.705 109.63C858.311 109.63 859.652 109.176 860.728 108.266C861.804 107.342 862.614 106.085 863.16 104.494C863.72 102.903 864.001 101.092 864.001 99.0619C864.001 97.0316 863.72 95.221 863.16 93.6301C862.614 92.0392 861.804 90.7816 860.728 89.8573C859.652 88.9331 858.311 88.471 856.705 88.471C855.084 88.471 853.72 88.9331 852.614 89.8573C851.523 90.7816 850.698 92.0392 850.137 93.6301C849.592 95.221 849.319 97.0316 849.319 99.0619C849.319 101.092 849.592 102.903 850.137 104.494C850.698 106.085 851.523 107.342 852.614 108.266C853.72 109.176 855.084 109.63 856.705 109.63ZM886.148 116.448L876.648 81.5392H886.444L891.853 104.994H892.171L897.808 81.5392H907.421L913.148 104.857H913.444L918.762 81.5392H928.535L919.058 116.448H908.808L902.808 94.4937H902.376L896.376 116.448H886.148ZM981.058 81.5392L968.853 116.448H957.944L945.739 81.5392H955.967L963.217 106.516H963.58L970.808 81.5392H981.058ZM1015.06 91.4937L1006.19 92.0392C1006.04 91.2816 1005.72 90.5998 1005.22 89.9937C1004.72 89.3725 1004.06 88.8801 1003.24 88.5164C1002.44 88.1376 1001.47 87.9482 1000.35 87.9482C998.853 87.9482 997.588 88.2664 996.558 88.9028C995.527 89.524 995.012 90.3573 995.012 91.4028C995.012 92.2361 995.345 92.9407 996.012 93.5164C996.679 94.0922 997.823 94.5543 999.444 94.9028L1005.76 96.1755C1009.16 96.8725 1011.69 97.9937 1013.35 99.5392C1015.02 101.085 1015.85 103.115 1015.85 105.63C1015.85 107.918 1015.18 109.926 1013.83 111.653C1012.5 113.38 1010.66 114.729 1008.33 115.698C1006.01 116.653 1003.34 117.13 1000.31 117.13C995.686 117.13 992.004 116.168 989.262 114.244C986.535 112.304 984.936 109.668 984.467 106.335L993.989 105.835C994.277 107.244 994.974 108.319 996.08 109.062C997.186 109.789 998.603 110.153 1000.33 110.153C1002.03 110.153 1003.39 109.827 1004.42 109.176C1005.47 108.509 1006 107.653 1006.01 106.607C1006 105.729 1005.63 105.009 1004.9 104.448C1004.17 103.872 1003.05 103.433 1001.53 103.13L995.489 101.926C992.08 101.244 989.542 100.062 987.876 98.3801C986.224 96.6982 985.398 94.5543 985.398 91.9482C985.398 89.7058 986.004 87.774 987.217 86.1528C988.444 84.5316 990.164 83.2816 992.376 82.4028C994.603 81.524 997.209 81.0846 1000.19 81.0846C1004.6 81.0846 1008.07 82.0164 1010.6 83.8801C1013.15 85.7437 1014.63 88.2816 1015.06 91.4937ZM1046.72 117.107C1044.49 117.107 1042.5 116.721 1040.76 115.948C1039.02 115.16 1037.64 114.001 1036.63 112.471C1035.63 110.926 1035.13 109.001 1035.13 106.698C1035.13 104.759 1035.48 103.13 1036.19 101.812C1036.91 100.494 1037.88 99.4331 1039.1 98.6301C1040.33 97.827 1041.72 97.221 1043.28 96.8119C1044.86 96.4028 1046.51 96.1149 1048.24 95.9482C1050.27 95.7361 1051.91 95.5392 1053.15 95.3573C1054.39 95.1604 1055.29 94.8725 1055.85 94.4937C1056.41 94.1149 1056.69 93.5543 1056.69 92.8119V92.6755C1056.69 91.2361 1056.24 90.1225 1055.33 89.3346C1054.44 88.5467 1053.16 88.1528 1051.51 88.1528C1049.77 88.1528 1048.38 88.5392 1047.35 89.3119C1046.32 90.0695 1045.64 91.024 1045.31 92.1755L1036.35 91.4482C1036.81 89.327 1037.7 87.4937 1039.03 85.9482C1040.37 84.3876 1042.09 83.1907 1044.19 82.3573C1046.32 81.5088 1048.77 81.0846 1051.56 81.0846C1053.5 81.0846 1055.35 81.3119 1057.13 81.7664C1058.91 82.221 1060.5 82.9255 1061.88 83.8801C1063.27 84.8346 1064.37 86.0619 1065.17 87.5619C1065.97 89.0467 1066.38 90.827 1066.38 92.9028V116.448H1057.19V111.607H1056.92C1056.36 112.698 1055.61 113.66 1054.67 114.494C1053.73 115.312 1052.6 115.956 1051.28 116.426C1049.97 116.88 1048.44 117.107 1046.72 117.107ZM1049.49 110.426C1050.91 110.426 1052.17 110.145 1053.26 109.585C1054.35 109.009 1055.21 108.236 1055.83 107.266C1056.45 106.297 1056.76 105.198 1056.76 103.971V100.266C1056.46 100.463 1056.04 100.645 1055.51 100.812C1055 100.963 1054.41 101.107 1053.76 101.244C1053.11 101.365 1052.46 101.479 1051.81 101.585C1051.16 101.676 1050.57 101.759 1050.03 101.835C1048.9 102.001 1047.91 102.266 1047.06 102.63C1046.21 102.994 1045.55 103.486 1045.08 104.107C1044.61 104.713 1044.38 105.471 1044.38 106.38C1044.38 107.698 1044.85 108.706 1045.81 109.403C1046.78 110.085 1048 110.426 1049.49 110.426ZM1074.07 116.448V69.9028H1083.75V87.4028H1084.05C1084.47 86.4634 1085.08 85.5088 1085.89 84.5392C1086.71 83.5543 1087.77 82.7361 1089.07 82.0846C1090.39 81.4179 1092.02 81.0846 1093.98 81.0846C1096.52 81.0846 1098.87 81.7513 1101.02 83.0846C1103.17 84.4028 1104.89 86.3952 1106.18 89.0619C1107.47 91.7134 1108.11 95.0392 1108.11 99.0392C1108.11 102.933 1107.49 106.221 1106.23 108.903C1104.99 111.569 1103.29 113.592 1101.14 114.971C1099 116.335 1096.61 117.016 1093.96 117.016C1092.08 117.016 1090.48 116.706 1089.16 116.085C1087.86 115.463 1086.79 114.683 1085.96 113.744C1085.12 112.789 1084.49 111.827 1084.05 110.857H1083.61V116.448H1074.07ZM1083.55 98.9937C1083.55 101.069 1083.83 102.88 1084.41 104.426C1084.99 105.971 1085.82 107.176 1086.91 108.039C1088 108.888 1089.33 109.312 1090.89 109.312C1092.46 109.312 1093.8 108.88 1094.89 108.016C1095.98 107.138 1096.8 105.926 1097.36 104.38C1097.94 102.819 1098.23 101.024 1098.23 98.9937C1098.23 96.9785 1097.95 95.2058 1097.39 93.6755C1096.83 92.1452 1096 90.9482 1094.91 90.0846C1093.82 89.221 1092.48 88.7892 1090.89 88.7892C1089.31 88.7892 1087.98 89.2058 1086.89 90.0392C1085.81 90.8725 1084.99 92.0543 1084.41 93.5846C1083.83 95.1149 1083.55 96.9179 1083.55 98.9937ZM1130.35 117.13C1126.82 117.13 1123.76 116.38 1121.19 114.88C1118.63 113.365 1116.65 111.259 1115.26 108.562C1113.86 105.85 1113.17 102.706 1113.17 99.1301C1113.17 95.524 1113.86 92.3725 1115.26 89.6755C1116.65 86.9634 1118.63 84.8573 1121.19 83.3573C1123.76 81.8422 1126.82 81.0846 1130.35 81.0846C1133.88 81.0846 1136.92 81.8422 1139.48 83.3573C1142.06 84.8573 1144.04 86.9634 1145.44 89.6755C1146.83 92.3725 1147.53 95.524 1147.53 99.1301C1147.53 102.706 1146.83 105.85 1145.44 108.562C1144.04 111.259 1142.06 113.365 1139.48 114.88C1136.92 116.38 1133.88 117.13 1130.35 117.13ZM1130.39 109.63C1132 109.63 1133.34 109.176 1134.42 108.266C1135.49 107.342 1136.3 106.085 1136.85 104.494C1137.41 102.903 1137.69 101.092 1137.69 99.0619C1137.69 97.0316 1137.41 95.221 1136.85 93.6301C1136.3 92.0392 1135.49 90.7816 1134.42 89.8573C1133.34 88.9331 1132 88.471 1130.39 88.471C1128.77 88.471 1127.41 88.9331 1126.3 89.8573C1125.21 90.7816 1124.39 92.0392 1123.82 93.6301C1123.28 95.221 1123.01 97.0316 1123.01 99.0619C1123.01 101.092 1123.28 102.903 1123.82 104.494C1124.39 106.085 1125.21 107.342 1126.3 108.266C1127.41 109.176 1128.77 109.63 1130.39 109.63ZM1185.25 81.5392L1173.04 116.448H1162.13L1149.93 81.5392H1160.15L1167.4 106.516H1167.77L1175 81.5392H1185.25ZM1204.98 117.13C1201.39 117.13 1198.3 116.403 1195.71 114.948C1193.14 113.479 1191.15 111.403 1189.76 108.721C1188.36 106.024 1187.67 102.835 1187.67 99.1528C1187.67 95.5619 1188.36 92.4104 1189.76 89.6982C1191.15 86.9861 1193.11 84.8725 1195.64 83.3573C1198.19 81.8422 1201.17 81.0846 1204.6 81.0846C1206.9 81.0846 1209.04 81.4558 1211.03 82.1982C1213.03 82.9255 1214.77 84.024 1216.26 85.4937C1217.76 86.9634 1218.92 88.8119 1219.76 91.0392C1220.59 93.2513 1221.01 95.8422 1221.01 98.8119V101.471H1191.53V95.471H1211.89C1211.89 94.077 1211.59 92.8422 1210.98 91.7664C1210.38 90.6907 1209.54 89.8498 1208.46 89.2437C1207.4 88.6225 1206.17 88.3119 1204.76 88.3119C1203.29 88.3119 1201.98 88.6528 1200.85 89.3346C1199.73 90.0013 1198.85 90.9028 1198.21 92.0392C1197.57 93.1604 1197.25 94.4104 1197.23 95.7892V101.494C1197.23 103.221 1197.55 104.713 1198.19 105.971C1198.84 107.229 1199.76 108.198 1200.94 108.88C1202.12 109.562 1203.52 109.903 1205.14 109.903C1206.22 109.903 1207.2 109.751 1208.1 109.448C1208.99 109.145 1209.76 108.691 1210.39 108.085C1211.03 107.479 1211.51 106.736 1211.85 105.857L1220.8 106.448C1220.35 108.6 1219.42 110.479 1218.01 112.085C1216.61 113.676 1214.81 114.918 1212.6 115.812C1210.4 116.691 1207.86 117.13 1204.98 117.13Z" fill="black"/>
</g>
</svg>
