<svg width="1920" height="1080" viewBox="0 0 1920 1080" fill="none" xmlns="http://www.w3.org/2000/svg">
<g id="model">
<rect width="1920" height="1080" fill="white"/>
<path id="global x, y = 0" d="M139.012 502.421C137.716 502.421 136.603 502.254 135.671 501.921C134.739 501.595 133.962 501.163 133.341 500.625C132.728 500.095 132.239 499.527 131.875 498.921L134.012 497.421C134.254 497.739 134.561 498.103 134.932 498.512C135.303 498.928 135.811 499.288 136.455 499.591C137.106 499.902 137.959 500.057 139.012 500.057C140.421 500.057 141.584 499.716 142.5 499.034C143.417 498.353 143.875 497.284 143.875 495.83V492.284H143.648C143.451 492.603 143.171 492.997 142.807 493.466C142.451 493.928 141.936 494.341 141.262 494.705C140.595 495.061 139.694 495.239 138.557 495.239C137.148 495.239 135.883 494.906 134.762 494.239C133.648 493.572 132.766 492.603 132.114 491.33C131.47 490.057 131.148 488.512 131.148 486.694C131.148 484.906 131.462 483.349 132.091 482.023C132.72 480.69 133.595 479.659 134.716 478.932C135.837 478.197 137.133 477.83 138.603 477.83C139.739 477.83 140.641 478.019 141.307 478.398C141.981 478.769 142.497 479.194 142.853 479.671C143.216 480.141 143.497 480.527 143.694 480.83H143.966V478.057H146.557V496.012C146.557 497.512 146.216 498.731 145.534 499.671C144.86 500.618 143.951 501.311 142.807 501.75C141.671 502.197 140.406 502.421 139.012 502.421ZM138.921 492.83C139.997 492.83 140.906 492.584 141.648 492.091C142.391 491.599 142.955 490.891 143.341 489.966C143.728 489.042 143.921 487.936 143.921 486.648C143.921 485.391 143.731 484.281 143.353 483.319C142.974 482.356 142.413 481.603 141.671 481.057C140.928 480.512 140.012 480.239 138.921 480.239C137.784 480.239 136.837 480.527 136.08 481.103C135.33 481.678 134.766 482.451 134.387 483.421C134.016 484.391 133.83 485.466 133.83 486.648C133.83 487.86 134.019 488.932 134.398 489.864C134.784 490.788 135.353 491.516 136.103 492.046C136.86 492.569 137.8 492.83 138.921 492.83ZM154.148 472.239V495.512H151.466V472.239H154.148ZM166.151 495.875C164.575 495.875 163.193 495.5 162.003 494.75C160.821 494 159.897 492.951 159.23 491.603C158.571 490.254 158.242 488.678 158.242 486.875C158.242 485.057 158.571 483.47 159.23 482.114C159.897 480.758 160.821 479.705 162.003 478.955C163.193 478.205 164.575 477.83 166.151 477.83C167.727 477.83 169.105 478.205 170.287 478.955C171.477 479.705 172.401 480.758 173.06 482.114C173.727 483.47 174.06 485.057 174.06 486.875C174.06 488.678 173.727 490.254 173.06 491.603C172.401 492.951 171.477 494 170.287 494.75C169.105 495.5 167.727 495.875 166.151 495.875ZM166.151 493.466C167.348 493.466 168.333 493.159 169.105 492.546C169.878 491.932 170.45 491.125 170.821 490.125C171.193 489.125 171.378 488.042 171.378 486.875C171.378 485.709 171.193 484.622 170.821 483.614C170.45 482.606 169.878 481.792 169.105 481.171C168.333 480.55 167.348 480.239 166.151 480.239C164.954 480.239 163.969 480.55 163.196 481.171C162.424 481.792 161.852 482.606 161.48 483.614C161.109 484.622 160.924 485.709 160.924 486.875C160.924 488.042 161.109 489.125 161.48 490.125C161.852 491.125 162.424 491.932 163.196 492.546C163.969 493.159 164.954 493.466 166.151 493.466ZM178.517 495.512V472.239H181.199V480.83H181.426C181.623 480.527 181.896 480.141 182.245 479.671C182.601 479.194 183.108 478.769 183.767 478.398C184.434 478.019 185.336 477.83 186.472 477.83C187.942 477.83 189.237 478.197 190.358 478.932C191.48 479.667 192.355 480.709 192.983 482.057C193.612 483.406 193.926 484.997 193.926 486.83C193.926 488.678 193.612 490.281 192.983 491.637C192.355 492.985 191.483 494.031 190.37 494.773C189.256 495.508 187.972 495.875 186.517 495.875C185.396 495.875 184.498 495.69 183.824 495.319C183.15 494.94 182.631 494.512 182.267 494.034C181.904 493.55 181.623 493.148 181.426 492.83H181.108V495.512H178.517ZM181.154 486.784C181.154 488.103 181.347 489.266 181.733 490.273C182.12 491.273 182.684 492.057 183.426 492.625C184.169 493.186 185.078 493.466 186.154 493.466C187.275 493.466 188.211 493.171 188.961 492.58C189.718 491.981 190.286 491.178 190.665 490.171C191.051 489.156 191.245 488.027 191.245 486.784C191.245 485.557 191.055 484.451 190.676 483.466C190.305 482.474 189.741 481.69 188.983 481.114C188.233 480.531 187.29 480.239 186.154 480.239C185.063 480.239 184.146 480.516 183.404 481.069C182.661 481.614 182.101 482.379 181.722 483.364C181.343 484.341 181.154 485.481 181.154 486.784ZM203.165 495.921C202.059 495.921 201.055 495.712 200.154 495.296C199.252 494.872 198.536 494.262 198.006 493.466C197.476 492.663 197.211 491.694 197.211 490.557C197.211 489.557 197.408 488.747 197.801 488.125C198.195 487.497 198.722 487.004 199.381 486.648C200.04 486.292 200.767 486.027 201.563 485.853C202.366 485.671 203.173 485.527 203.983 485.421C205.044 485.284 205.904 485.182 206.563 485.114C207.23 485.038 207.714 484.913 208.017 484.739C208.328 484.565 208.483 484.262 208.483 483.83V483.739C208.483 482.618 208.176 481.747 207.563 481.125C206.957 480.504 206.036 480.194 204.801 480.194C203.521 480.194 202.517 480.474 201.79 481.034C201.063 481.595 200.551 482.194 200.256 482.83L197.711 481.921C198.165 480.86 198.771 480.034 199.529 479.444C200.294 478.845 201.127 478.428 202.029 478.194C202.938 477.951 203.832 477.83 204.711 477.83C205.271 477.83 205.915 477.898 206.642 478.034C207.377 478.163 208.086 478.432 208.767 478.841C209.457 479.25 210.029 479.868 210.483 480.694C210.938 481.519 211.165 482.625 211.165 484.012V495.512H208.483V493.148H208.347C208.165 493.527 207.862 493.932 207.438 494.364C207.014 494.796 206.449 495.163 205.745 495.466C205.04 495.769 204.18 495.921 203.165 495.921ZM203.574 493.512C204.635 493.512 205.529 493.303 206.256 492.887C206.991 492.47 207.544 491.932 207.915 491.273C208.294 490.614 208.483 489.921 208.483 489.194V486.739C208.37 486.875 208.12 487 207.733 487.114C207.355 487.22 206.915 487.315 206.415 487.398C205.923 487.474 205.442 487.542 204.972 487.603C204.51 487.656 204.135 487.701 203.847 487.739C203.15 487.83 202.498 487.978 201.892 488.182C201.294 488.379 200.809 488.678 200.438 489.08C200.074 489.474 199.892 490.012 199.892 490.694C199.892 491.625 200.237 492.33 200.926 492.807C201.623 493.277 202.506 493.512 203.574 493.512ZM218.742 472.239V495.512H216.06V472.239H218.742ZM234.654 478.057L238.836 485.194L243.017 478.057H246.108L240.472 486.784L246.108 495.512H243.017L238.836 488.739L234.654 495.512H231.563L237.108 486.784L231.563 478.057H234.654ZM253.935 492.33L253.753 493.557C253.624 494.421 253.427 495.345 253.162 496.33C252.905 497.315 252.636 498.243 252.355 499.114C252.075 499.985 251.844 500.678 251.662 501.194H249.617C249.715 500.709 249.844 500.069 250.003 499.273C250.162 498.478 250.321 497.587 250.48 496.603C250.647 495.625 250.783 494.625 250.89 493.603L251.026 492.33H253.935ZM269.631 502.057C269.176 502.057 268.771 502.019 268.415 501.944C268.059 501.875 267.813 501.807 267.676 501.739L268.358 499.375C269.01 499.542 269.586 499.603 270.086 499.557C270.586 499.512 271.029 499.288 271.415 498.887C271.809 498.493 272.169 497.853 272.495 496.966L272.995 495.603L266.54 478.057H269.449L274.267 491.966H274.449L279.267 478.057H282.176L274.767 498.057C274.434 498.959 274.021 499.705 273.529 500.296C273.036 500.894 272.464 501.337 271.813 501.625C271.169 501.913 270.442 502.057 269.631 502.057ZM295.807 481.739V479.284H309.807V481.739H295.807ZM295.807 488.466V486.012H309.807V488.466H295.807ZM332.355 495.83C330.643 495.83 329.185 495.364 327.98 494.432C326.776 493.493 325.855 492.133 325.219 490.353C324.583 488.565 324.265 486.406 324.265 483.875C324.265 481.36 324.583 479.212 325.219 477.432C325.863 475.644 326.787 474.281 327.992 473.341C329.204 472.394 330.658 471.921 332.355 471.921C334.052 471.921 335.503 472.394 336.708 473.341C337.92 474.281 338.844 475.644 339.48 477.432C340.124 479.212 340.446 481.36 340.446 483.875C340.446 486.406 340.128 488.565 339.492 490.353C338.855 492.133 337.935 493.493 336.73 494.432C335.526 495.364 334.068 495.83 332.355 495.83ZM332.355 493.33C334.052 493.33 335.371 492.512 336.31 490.875C337.249 489.239 337.719 486.906 337.719 483.875C337.719 481.86 337.503 480.144 337.071 478.728C336.647 477.311 336.033 476.231 335.23 475.489C334.435 474.747 333.477 474.375 332.355 474.375C330.674 474.375 329.359 475.205 328.412 476.864C327.465 478.516 326.992 480.853 326.992 483.875C326.992 485.891 327.204 487.603 327.628 489.012C328.052 490.421 328.662 491.493 329.458 492.228C330.261 492.962 331.227 493.33 332.355 493.33Z" fill="black"/>
<circle id="Ellipse 4" cx="589.512" cy="620.512" r="50" fill="white" fill-opacity="0.5"/>
<circle id="Ellipse" cx="589.512" cy="949.512" r="50" fill="white" fill-opacity="0.5"/>
<path id="Arrow 7" d="M588.805 899.219C589.195 899.61 589.828 899.61 590.219 899.219L596.583 892.855C596.973 892.465 596.973 891.832 596.583 891.441C596.192 891.05 595.559 891.05 595.169 891.441L589.512 897.098L583.855 891.441C583.464 891.05 582.831 891.05 582.441 891.441C582.05 891.832 582.05 892.465 582.441 892.855L588.805 899.219ZM589.512 670.512H588.512V898.512H589.512H590.512V670.512H589.512Z" fill="black"/>
<g id="q_1" clip-path="url(#clip0_30_152)">
<g id="page1">
<path id="Vector" d="M593.634 597.261C593.634 596.886 593.335 596.587 592.96 596.587C592.36 596.587 589.438 599.284 588.014 601.907C586.666 598.535 584.343 596.512 581.121 596.512C572.653 596.512 563.512 607.452 563.512 618.542C563.512 625.96 567.858 630.306 572.953 630.306C576.925 630.306 580.222 627.309 581.795 625.585L581.87 625.66L579.023 636.9L578.348 639.598C577.674 641.845 576.55 641.845 573.028 641.92C572.204 641.92 571.454 641.92 571.454 643.344C571.454 643.869 571.904 644.093 572.429 644.093C573.478 644.093 574.826 643.944 575.875 643.944H583.519C584.642 643.944 585.916 644.093 587.04 644.093C587.49 644.093 588.389 644.093 588.389 642.67C588.389 641.92 587.79 641.92 586.666 641.92C583.144 641.92 582.919 641.396 582.919 640.796C582.919 640.422 582.994 640.347 583.219 639.373L593.634 597.261ZM583.069 620.64C582.694 621.914 582.694 622.063 581.645 623.487C579.997 625.585 576.7 628.807 573.178 628.807C570.106 628.807 568.382 626.035 568.382 621.614C568.382 617.493 570.705 609.1 572.129 605.953C574.677 600.708 578.198 598.01 581.121 598.01C586.066 598.01 587.04 604.155 587.04 604.754C587.04 604.829 586.816 605.803 586.741 605.953L583.069 620.64Z" fill="black"/>
<path id="Vector_2" d="M608.807 608.977C608.807 607.628 608.707 607.578 607.358 607.578C605.31 609.576 602.663 610.775 597.917 610.775V612.424C599.266 612.424 601.963 612.424 604.861 611.075V636.702C604.861 638.55 604.711 639.149 599.965 639.149H598.217V640.798C600.265 640.648 604.561 640.648 606.809 640.648C609.057 640.648 613.403 640.648 615.451 640.798V639.149H613.703C608.957 639.149 608.807 638.55 608.807 636.702V608.977Z" fill="black"/>
</g>
</g>
<g id="q_2" clip-path="url(#clip1_30_152)">
<g id="page1_2">
<path id="Vector_3" d="M590.634 929.261C590.634 928.886 590.335 928.587 589.96 928.587C589.36 928.587 586.438 931.284 585.014 933.907C583.666 930.535 581.343 928.512 578.121 928.512C569.653 928.512 560.512 939.452 560.512 950.542C560.512 957.96 564.858 962.306 569.953 962.306C573.925 962.306 577.222 959.309 578.795 957.585L578.87 957.66L576.023 968.9L575.348 971.598C574.674 973.845 573.55 973.845 570.028 973.92C569.204 973.92 568.454 973.92 568.454 975.344C568.454 975.869 568.904 976.093 569.429 976.093C570.478 976.093 571.826 975.944 572.875 975.944H580.519C581.642 975.944 582.916 976.093 584.04 976.093C584.49 976.093 585.389 976.093 585.389 974.67C585.389 973.92 584.79 973.92 583.666 973.92C580.144 973.92 579.919 973.396 579.919 972.796C579.919 972.422 579.994 972.347 580.219 971.373L590.634 929.261ZM580.069 952.64C579.694 953.914 579.694 954.063 578.645 955.487C576.997 957.585 573.7 960.807 570.178 960.807C567.106 960.807 565.382 958.035 565.382 953.614C565.382 949.493 567.705 941.1 569.129 937.953C571.677 932.708 575.198 930.01 578.121 930.01C583.066 930.01 584.04 936.155 584.04 936.754C584.04 936.829 583.816 937.803 583.741 937.953L580.069 952.64Z" fill="black"/>
<path id="Vector_4" d="M604.207 962.607C605.006 961.858 607.105 960.209 607.904 959.51C611.001 956.663 613.948 953.915 613.948 949.369C613.948 943.425 608.953 939.578 602.709 939.578C596.714 939.578 592.768 944.124 592.768 948.57C592.768 951.018 594.716 951.367 595.415 951.367C596.464 951.367 598.013 950.618 598.013 948.72C598.013 946.122 595.515 946.122 594.916 946.122C596.364 942.475 599.711 941.227 602.159 941.227C606.805 941.227 609.203 945.173 609.203 949.369C609.203 954.564 605.556 958.361 599.661 964.406L593.367 970.9C592.768 971.449 592.768 971.549 592.768 972.798H612.5L613.948 963.856H612.4C612.25 964.855 611.85 967.353 611.251 968.302C610.951 968.702 607.154 968.702 606.355 968.702H597.463L604.207 962.607Z" fill="black"/>
</g>
</g>
<path id="Arrow 8" d="M585.805 571.219C586.195 571.609 586.828 571.609 587.219 571.219L593.583 564.855C593.973 564.464 593.973 563.831 593.583 563.441C593.192 563.05 592.559 563.05 592.169 563.441L586.512 569.098L580.855 563.441C580.464 563.05 579.831 563.05 579.441 563.441C579.05 563.831 579.05 564.464 579.441 564.855L585.805 571.219ZM586.512 542.512L585.512 542.512L585.512 570.512L586.512 570.512L587.512 570.512L587.512 542.512L586.512 542.512Z" fill="black"/>
<g id="x == 0" clip-path="url(#clip2_30_152)">
<g id="page1_3">
<path id="Vector_5" d="M456.804 771.126C455.348 771.397 454.802 772.482 454.802 773.34C454.802 774.425 455.666 774.786 456.303 774.786C457.668 774.786 458.624 773.611 458.624 772.391C458.624 770.493 456.44 769.635 454.529 769.635C451.753 769.635 450.207 772.346 449.797 773.205C448.751 769.816 445.93 769.635 445.111 769.635C440.47 769.635 438.013 775.555 438.013 776.549C438.013 776.73 438.195 776.955 438.514 776.955C438.878 776.955 438.969 776.684 439.06 776.504C440.607 771.488 443.655 770.539 444.974 770.539C447.022 770.539 447.431 772.437 447.431 773.521C447.431 774.515 447.158 775.555 446.612 777.724L445.065 783.915C444.383 786.626 443.063 789.111 440.652 789.111C440.425 789.111 439.287 789.111 438.332 788.524C439.97 788.208 440.334 786.852 440.334 786.31C440.334 785.406 439.651 784.864 438.787 784.864C437.695 784.864 436.512 785.813 436.512 787.259C436.512 789.157 438.65 790.015 440.607 790.015C442.79 790.015 444.337 788.298 445.293 786.445C446.021 789.111 448.296 790.015 449.979 790.015C454.62 790.015 457.077 784.095 457.077 783.101C457.077 782.875 456.895 782.695 456.622 782.695C456.212 782.695 456.167 782.92 456.03 783.282C454.802 787.259 452.163 789.111 450.116 789.111C448.523 789.111 447.659 787.937 447.659 786.084C447.659 785.09 447.841 784.367 448.569 781.384L450.161 775.238C450.843 772.527 452.39 770.539 454.483 770.539C454.574 770.539 455.848 770.539 456.804 771.126Z" fill="black"/>
<path id="Vector_6" d="M503.903 774.921C504.539 774.921 505.358 774.921 505.358 774.108C505.358 773.249 504.585 773.249 503.903 773.249H477.104C476.467 773.249 475.648 773.249 475.648 774.062C475.648 774.921 476.422 774.921 477.104 774.921H503.903ZM503.903 783.326C504.539 783.326 505.358 783.326 505.358 782.513C505.358 781.654 504.585 781.654 503.903 781.654H477.104C476.467 781.654 475.648 781.654 475.648 782.468C475.648 783.326 476.422 783.326 477.104 783.326H503.903Z" fill="black"/>
<path id="Vector_7" d="M538.552 774.921C539.189 774.921 540.008 774.921 540.008 774.108C540.008 773.249 539.234 773.249 538.552 773.249H511.754C511.117 773.249 510.298 773.249 510.298 774.062C510.298 774.921 511.071 774.921 511.754 774.921H538.552ZM538.552 783.326C539.189 783.326 540.008 783.326 540.008 782.513C540.008 781.654 539.234 781.654 538.552 781.654H511.754C511.117 781.654 510.298 781.654 510.298 782.468C510.298 783.326 511.071 783.326 511.754 783.326H538.552Z" fill="black"/>
<path id="Vector_8" d="M575.513 775.102C575.513 771.351 575.285 767.691 573.647 764.257C571.782 760.506 568.506 759.512 566.277 759.512C563.638 759.512 560.407 760.822 558.724 764.573C557.45 767.42 556.995 770.222 556.995 775.102C556.995 779.485 557.314 782.784 558.952 785.993C560.726 789.427 563.865 790.512 566.231 790.512C570.189 790.512 572.464 788.162 573.784 785.541C575.422 782.152 575.513 777.723 575.513 775.102ZM566.231 789.608C564.775 789.608 561.818 788.795 560.953 783.869C560.453 781.157 560.453 777.723 560.453 774.56C560.453 770.854 560.453 767.51 561.181 764.844C561.954 761.816 564.275 760.416 566.231 760.416C567.96 760.416 570.599 761.455 571.463 765.341C572.055 767.917 572.055 771.487 572.055 774.56C572.055 777.588 572.055 781.022 571.554 783.778C570.69 788.749 567.824 789.608 566.231 789.608Z" fill="black"/>
</g>
</g>
<circle id="Ellipse 5" cx="1020.51" cy="620.512" r="50" fill="white" fill-opacity="0.5"/>
<circle id="Ellipse_2" cx="1020.51" cy="949.512" r="50" fill="white" fill-opacity="0.5"/>
<path id="Arrow 9" d="M1019.8 899.219C1020.2 899.61 1020.83 899.61 1021.22 899.219L1027.58 892.855C1027.97 892.465 1027.97 891.832 1027.58 891.441C1027.19 891.05 1026.56 891.05 1026.17 891.441L1020.51 897.098L1014.85 891.441C1014.46 891.05 1013.83 891.05 1013.44 891.441C1013.05 891.832 1013.05 892.465 1013.44 892.855L1019.8 899.219ZM1020.51 670.512H1019.51V898.512H1020.51H1021.51V670.512H1020.51Z" fill="black"/>
<path id="Arrow 10" d="M1016.8 571.219C1017.2 571.609 1017.83 571.609 1018.22 571.219L1024.58 564.855C1024.97 564.464 1024.97 563.831 1024.58 563.441C1024.19 563.05 1023.56 563.05 1023.17 563.441L1017.51 569.098L1011.85 563.441C1011.46 563.05 1010.83 563.05 1010.44 563.441C1010.05 563.831 1010.05 564.464 1010.44 564.855L1016.8 571.219ZM1017.51 542.512L1016.51 542.512L1016.51 570.512L1017.51 570.512L1018.51 570.512L1018.51 542.512L1017.51 542.512Z" fill="black"/>
<g id="q_3" clip-path="url(#clip3_30_152)">
<g id="page1_4">
<path id="Vector_9" d="M1023.63 597.261C1023.63 596.886 1023.33 596.587 1022.96 596.587C1022.36 596.587 1019.44 599.284 1018.01 601.907C1016.67 598.535 1014.34 596.512 1011.12 596.512C1002.65 596.512 993.512 607.452 993.512 618.542C993.512 625.96 997.858 630.306 1002.95 630.306C1006.92 630.306 1010.22 627.309 1011.8 625.585L1011.87 625.66L1009.02 636.9L1008.35 639.598C1007.67 641.845 1006.55 641.845 1003.03 641.92C1002.2 641.92 1001.45 641.92 1001.45 643.344C1001.45 643.869 1001.9 644.093 1002.43 644.093C1003.48 644.093 1004.83 643.944 1005.88 643.944H1013.52C1014.64 643.944 1015.92 644.093 1017.04 644.093C1017.49 644.093 1018.39 644.093 1018.39 642.67C1018.39 641.92 1017.79 641.92 1016.67 641.92C1013.14 641.92 1012.92 641.396 1012.92 640.796C1012.92 640.422 1012.99 640.347 1013.22 639.373L1023.63 597.261ZM1013.07 620.64C1012.69 621.914 1012.69 622.063 1011.65 623.487C1010 625.585 1006.7 628.807 1003.18 628.807C1000.11 628.807 998.382 626.035 998.382 621.614C998.382 617.493 1000.71 609.1 1002.13 605.953C1004.68 600.708 1008.2 598.01 1011.12 598.01C1016.07 598.01 1017.04 604.155 1017.04 604.754C1017.04 604.829 1016.82 605.803 1016.74 605.953L1013.07 620.64Z" fill="black"/>
<path id="Vector_10" d="M1035.76 624.113C1039.7 624.113 1042.2 627.01 1042.2 632.256C1042.2 638.5 1038.66 640.348 1036.01 640.348C1033.26 640.348 1029.51 639.349 1027.77 636.702C1029.56 636.702 1030.81 635.553 1030.81 633.904C1030.81 632.306 1029.66 631.157 1028.06 631.157C1026.72 631.157 1025.32 632.006 1025.32 634.004C1025.32 638.75 1030.41 641.847 1036.11 641.847C1042.75 641.847 1047.4 637.251 1047.4 632.256C1047.4 628.109 1044.1 624.313 1039 623.214C1042.95 621.815 1045.9 618.418 1045.9 614.422C1045.9 610.426 1041.4 607.578 1036.21 607.578C1030.86 607.578 1026.82 610.475 1026.82 614.272C1026.82 616.12 1028.06 616.92 1029.36 616.92C1030.91 616.92 1031.91 615.821 1031.91 614.372C1031.91 612.524 1030.31 611.824 1029.21 611.774C1031.31 609.027 1035.16 608.877 1036.06 608.877C1037.36 608.877 1041.15 609.277 1041.15 614.422C1041.15 617.919 1039.7 620.017 1039 620.816C1037.51 622.365 1036.36 622.465 1033.31 622.664C1032.36 622.714 1031.96 622.764 1031.96 623.414C1031.96 624.113 1032.41 624.113 1033.26 624.113H1035.76Z" fill="black"/>
</g>
</g>
<g id="q_4" clip-path="url(#clip4_30_152)">
<g id="page1_5">
<path id="Vector_11" d="M1023.63 926.261C1023.63 925.886 1023.33 925.587 1022.96 925.587C1022.36 925.587 1019.44 928.284 1018.01 930.907C1016.67 927.535 1014.34 925.512 1011.12 925.512C1002.65 925.512 993.512 936.452 993.512 947.542C993.512 954.96 997.858 959.306 1002.95 959.306C1006.92 959.306 1010.22 956.309 1011.8 954.585L1011.87 954.66L1009.02 965.9L1008.35 968.598C1007.67 970.845 1006.55 970.845 1003.03 970.92C1002.2 970.92 1001.45 970.92 1001.45 972.344C1001.45 972.869 1001.9 973.093 1002.43 973.093C1003.48 973.093 1004.83 972.944 1005.88 972.944H1013.52C1014.64 972.944 1015.92 973.093 1017.04 973.093C1017.49 973.093 1018.39 973.093 1018.39 971.67C1018.39 970.92 1017.79 970.92 1016.67 970.92C1013.14 970.92 1012.92 970.396 1012.92 969.796C1012.92 969.422 1012.99 969.347 1013.22 968.373L1023.63 926.261ZM1013.07 949.64C1012.69 950.914 1012.69 951.063 1011.65 952.487C1010 954.585 1006.7 957.807 1003.18 957.807C1000.11 957.807 998.382 955.035 998.382 950.614C998.382 946.493 1000.71 938.1 1002.13 934.953C1004.68 929.708 1008.2 927.01 1011.12 927.01C1016.07 927.01 1017.04 933.155 1017.04 933.754C1017.04 933.829 1016.82 934.803 1016.74 934.953L1013.07 949.64Z" fill="black"/>
<path id="Vector_12" d="M1042.8 937.477C1042.8 936.478 1042.8 936.078 1041.75 936.078C1041.1 936.078 1041.05 936.128 1040.55 936.827L1024.62 959.956V961.605H1038.71V965.751C1038.71 967.599 1038.56 968.149 1034.71 968.149H1033.56V969.797C1037.81 969.648 1037.91 969.648 1040.75 969.648C1043.6 969.648 1043.7 969.648 1047.95 969.797V968.149H1046.8C1042.95 968.149 1042.8 967.599 1042.8 965.751V961.605H1048.1V959.956H1042.8V937.477ZM1039.06 941.523V959.956H1026.37L1039.06 941.523Z" fill="black"/>
</g>
</g>
<g id="y == 0" clip-path="url(#clip5_30_152)">
<g id="page1_6">
<path id="Vector_13" d="M885.459 787.23C884.321 788.586 882.677 789.799 880.612 789.799C880.106 789.799 878.083 789.727 877.451 788.086C877.577 788.122 877.788 788.122 877.872 788.122C879.137 788.122 879.98 787.195 879.98 786.374C879.98 785.554 879.179 785.268 878.547 785.268C877.872 785.268 876.397 785.696 876.397 787.444C876.397 789.264 878.209 790.512 880.612 790.512C884.827 790.512 889.084 787.23 890.265 783.27L894.395 769.358C894.437 769.18 894.522 768.966 894.522 768.751C894.522 768.216 894.016 767.86 893.384 767.86C893.004 767.86 892.119 768.002 891.782 769.073L888.663 779.56C888.452 780.203 888.452 780.274 888.115 780.666C887.272 781.665 885.881 782.878 883.858 782.878C881.497 782.878 881.286 780.916 881.286 779.953C881.286 777.92 882.424 775.173 883.563 772.604C884.026 771.57 884.279 771.07 884.279 770.357C884.279 768.859 883.015 767.503 880.949 767.503C877.071 767.503 875.512 772.676 875.512 772.961C875.512 773.104 875.68 773.282 875.975 773.282C876.355 773.282 876.397 773.139 876.565 772.64C877.577 769.643 879.179 768.216 880.823 768.216C881.202 768.216 881.919 768.216 881.919 769.394C881.919 770.321 881.455 771.356 880.823 772.711C878.757 777.384 878.757 778.562 878.757 779.418C878.757 782.807 881.624 783.592 883.731 783.592C884.954 783.592 886.471 783.27 887.946 781.951L887.988 781.986C887.356 784.091 886.935 785.482 885.459 787.23Z" fill="black"/>
<path id="Vector_14" d="M936.17 771.676C936.76 771.676 937.519 771.676 937.519 771.034C937.519 770.356 936.802 770.356 936.17 770.356H911.343C910.753 770.356 909.994 770.356 909.994 770.999C909.994 771.676 910.711 771.676 911.343 771.676H936.17ZM936.17 778.312C936.76 778.312 937.519 778.312 937.519 777.669C937.519 776.992 936.802 776.992 936.17 776.992H911.343C910.753 776.992 909.994 776.992 909.994 777.634C909.994 778.312 910.711 778.312 911.343 778.312H936.17Z" fill="black"/>
<path id="Vector_15" d="M968.27 771.676C968.861 771.676 969.619 771.676 969.619 771.034C969.619 770.356 968.903 770.356 968.27 770.356H943.444C942.853 770.356 942.095 770.356 942.095 770.999C942.095 771.676 942.811 771.676 943.444 771.676H968.27ZM968.27 778.312C968.861 778.312 969.619 778.312 969.619 777.669C969.619 776.992 968.903 776.992 968.27 776.992H943.444C942.853 776.992 942.095 776.992 942.095 777.634C942.095 778.312 942.811 778.312 943.444 778.312H968.27Z" fill="black"/>
<path id="Vector_16" d="M1002.51 771.819C1002.51 768.858 1002.3 765.969 1000.78 763.257C999.055 760.297 996.021 759.512 993.955 759.512C991.51 759.512 988.518 760.546 986.958 763.507C985.778 765.755 985.356 767.966 985.356 771.819C985.356 775.279 985.652 777.883 987.169 780.416C988.813 783.127 991.721 783.984 993.913 783.984C997.58 783.984 999.688 782.129 1000.91 780.059C1002.43 777.384 1002.51 773.888 1002.51 771.819ZM993.913 783.27C992.564 783.27 989.824 782.628 989.024 778.74C988.56 776.599 988.56 773.888 988.56 771.391C988.56 768.466 988.56 765.826 989.234 763.721C989.951 761.331 992.101 760.225 993.913 760.225C995.515 760.225 997.96 761.046 998.76 764.114C999.308 766.147 999.308 768.965 999.308 771.391C999.308 773.781 999.308 776.492 998.845 778.668C998.044 782.592 995.388 783.27 993.913 783.27Z" fill="black"/>
</g>
</g>
<circle id="Ellipse 4_2" cx="1406.51" cy="619.512" r="50" fill="white" fill-opacity="0.5"/>
<g id="q_5" clip-path="url(#clip6_30_152)">
<g id="page1_7">
<path id="Vector_17" d="M1409.63 596.261C1409.63 595.886 1409.33 595.587 1408.96 595.587C1408.36 595.587 1405.44 598.284 1404.01 600.907C1402.67 597.535 1400.34 595.512 1397.12 595.512C1388.65 595.512 1379.51 606.452 1379.51 617.542C1379.51 624.96 1383.86 629.306 1388.95 629.306C1392.92 629.306 1396.22 626.309 1397.8 624.585L1397.87 624.66L1395.02 635.9L1394.35 638.598C1393.67 640.845 1392.55 640.845 1389.03 640.92C1388.2 640.92 1387.45 640.92 1387.45 642.344C1387.45 642.869 1387.9 643.093 1388.43 643.093C1389.48 643.093 1390.83 642.944 1391.88 642.944H1399.52C1400.64 642.944 1401.92 643.093 1403.04 643.093C1403.49 643.093 1404.39 643.093 1404.39 641.67C1404.39 640.92 1403.79 640.92 1402.67 640.92C1399.14 640.92 1398.92 640.396 1398.92 639.796C1398.92 639.422 1398.99 639.347 1399.22 638.373L1409.63 596.261ZM1399.07 619.64C1398.69 620.914 1398.69 621.063 1397.65 622.487C1396 624.585 1392.7 627.807 1389.18 627.807C1386.11 627.807 1384.38 625.035 1384.38 620.614C1384.38 616.493 1386.71 608.1 1388.13 604.953C1390.68 599.708 1394.2 597.01 1397.12 597.01C1402.07 597.01 1403.04 603.155 1403.04 603.754C1403.04 603.829 1402.82 604.803 1402.74 604.953L1399.07 619.64Z" fill="black"/>
<path id="Vector_18" d="M1416.11 611.723C1416.76 611.923 1418.76 612.423 1420.86 612.423C1427.1 612.423 1430.9 608.027 1430.9 607.277C1430.9 606.728 1430.55 606.578 1430.3 606.578C1430.2 606.578 1430.1 606.578 1429.65 606.828C1427.7 607.577 1425.41 608.177 1422.71 608.177C1419.76 608.177 1417.31 607.427 1415.76 606.828C1415.26 606.578 1415.16 606.578 1415.11 606.578C1414.47 606.578 1414.47 607.128 1414.47 608.027V622.663C1414.47 623.563 1414.47 624.162 1415.26 624.162C1415.66 624.162 1415.81 623.962 1416.06 623.563C1416.66 622.813 1418.56 620.266 1422.81 620.266C1425.6 620.266 1426.95 622.564 1427.4 623.513C1428.25 625.311 1428.35 627.609 1428.35 629.557C1428.35 631.406 1428.3 634.103 1426.9 636.301C1425.95 637.8 1423.96 639.348 1421.31 639.348C1418.06 639.348 1414.86 637.3 1413.72 634.053C1413.87 634.103 1414.17 634.103 1414.22 634.103C1415.61 634.103 1416.71 633.204 1416.71 631.655C1416.71 629.807 1415.26 629.158 1414.27 629.158C1413.37 629.158 1411.77 629.657 1411.77 631.805C1411.77 636.301 1415.66 640.847 1421.41 640.847C1427.65 640.847 1432.95 636.001 1432.95 629.807C1432.95 624.012 1428.75 618.867 1422.86 618.867C1420.36 618.867 1418.01 619.666 1416.11 621.365V611.723Z" fill="black"/>
</g>
</g>
<g id="x := 5" clip-path="url(#clip7_30_152)">
<g id="page1_8">
<path id="Vector_19" d="M1300.39 771.097C1298.97 771.368 1298.43 772.455 1298.43 773.314C1298.43 774.401 1299.28 774.763 1299.9 774.763C1301.24 774.763 1302.17 773.586 1302.17 772.364C1302.17 770.463 1300.04 769.604 1298.16 769.604C1295.44 769.604 1293.93 772.319 1293.53 773.179C1292.5 769.785 1289.74 769.604 1288.94 769.604C1284.39 769.604 1281.98 775.532 1281.98 776.528C1281.98 776.709 1282.16 776.935 1282.47 776.935C1282.83 776.935 1282.92 776.663 1283.01 776.482C1284.52 771.459 1287.51 770.509 1288.8 770.509C1290.81 770.509 1291.21 772.409 1291.21 773.495C1291.21 774.491 1290.94 775.532 1290.41 777.704L1288.89 783.904C1288.22 786.62 1286.93 789.109 1284.57 789.109C1284.35 789.109 1283.23 789.109 1282.29 788.52C1283.9 788.204 1284.26 786.846 1284.26 786.303C1284.26 785.398 1283.59 784.855 1282.74 784.855C1281.67 784.855 1280.51 785.805 1280.51 787.253C1280.51 789.154 1282.61 790.014 1284.52 790.014C1286.66 790.014 1288.18 788.294 1289.11 786.439C1289.83 789.109 1292.06 790.014 1293.71 790.014C1298.25 790.014 1300.66 784.085 1300.66 783.09C1300.66 782.863 1300.48 782.682 1300.21 782.682C1299.81 782.682 1299.77 782.909 1299.63 783.271C1298.43 787.253 1295.85 789.109 1293.84 789.109C1292.28 789.109 1291.43 787.932 1291.43 786.077C1291.43 785.081 1291.61 784.357 1292.32 781.37L1293.88 775.215C1294.55 772.5 1296.07 770.509 1298.12 770.509C1298.21 770.509 1299.46 770.509 1300.39 771.097Z" fill="black"/>
<path id="Vector_20" d="M1324.65 772.23C1324.65 771.008 1323.62 770.058 1322.51 770.058C1321.22 770.058 1320.33 771.098 1320.33 772.23C1320.33 773.588 1321.44 774.447 1322.47 774.447C1323.67 774.447 1324.65 773.497 1324.65 772.23ZM1324.65 787.345C1324.65 786.123 1323.62 785.173 1322.51 785.173C1321.22 785.173 1320.33 786.214 1320.33 787.345C1320.33 788.703 1321.44 789.563 1322.47 789.563C1323.67 789.563 1324.65 788.612 1324.65 787.345Z" fill="black"/>
<path id="Vector_21" d="M1358.66 774.899C1359.28 774.899 1360.09 774.899 1360.09 774.084C1360.09 773.225 1359.33 773.225 1358.66 773.225H1332.4C1331.78 773.225 1330.98 773.225 1330.98 774.039C1330.98 774.899 1331.74 774.899 1332.4 774.899H1358.66ZM1358.66 783.317C1359.28 783.317 1360.09 783.317 1360.09 782.502C1360.09 781.642 1359.33 781.642 1358.66 781.642H1332.4C1331.78 781.642 1330.98 781.642 1330.98 782.457C1330.98 783.317 1331.74 783.317 1332.4 783.317H1358.66Z" fill="black"/>
<path id="Vector_22" d="M1380.6 763.63C1382.52 764.264 1384.08 764.309 1384.57 764.309C1389.61 764.309 1392.82 760.553 1392.82 759.919C1392.82 759.738 1392.73 759.512 1392.46 759.512C1392.37 759.512 1392.28 759.512 1391.88 759.693C1389.39 760.779 1387.25 760.915 1386.09 760.915C1383.15 760.915 1381.05 760.01 1380.2 759.647C1379.89 759.512 1379.8 759.512 1379.76 759.512C1379.4 759.512 1379.4 759.783 1379.4 760.507V773.948C1379.4 774.763 1379.4 775.034 1379.94 775.034C1380.16 775.034 1380.2 774.989 1380.65 774.446C1381.9 772.591 1383.99 771.504 1386.22 771.504C1388.58 771.504 1389.74 773.722 1390.1 774.491C1390.86 776.256 1390.9 778.474 1390.9 780.193C1390.9 781.913 1390.9 784.493 1389.65 786.529C1388.67 788.158 1386.93 789.29 1384.97 789.29C1382.03 789.29 1379.13 787.253 1378.33 783.95C1378.55 784.04 1378.82 784.085 1379.04 784.085C1379.8 784.085 1381.01 783.633 1381.01 782.094C1381.01 780.827 1380.16 780.103 1379.04 780.103C1378.24 780.103 1377.08 780.51 1377.08 782.275C1377.08 786.122 1380.11 790.512 1385.06 790.512C1390.1 790.512 1394.51 786.212 1394.51 780.465C1394.51 775.08 1390.95 770.599 1386.27 770.599C1383.72 770.599 1381.76 771.731 1380.6 772.998V763.63Z" fill="black"/>
</g>
</g>
<circle id="Ellipse_3" cx="1408.51" cy="949.512" r="50" fill="white" fill-opacity="0.5"/>
<path id="Arrow 7_2" d="M1407.8 899.219C1408.2 899.61 1408.83 899.61 1409.22 899.219L1415.58 892.855C1415.97 892.465 1415.97 891.832 1415.58 891.441C1415.19 891.05 1414.56 891.05 1414.17 891.441L1408.51 897.098L1402.85 891.441C1402.46 891.05 1401.83 891.05 1401.44 891.441C1401.05 891.832 1401.05 892.465 1401.44 892.855L1407.8 899.219ZM1408.51 670.512H1407.51V898.512H1408.51H1409.51V670.512H1408.51Z" fill="black"/>
<g id="q_2_2" clip-path="url(#clip8_30_152)">
<g id="q_6" clip-path="url(#clip9_30_152)">
<g id="page1_9">
<path id="Vector_23" d="M1409.63 929.261C1409.63 928.886 1409.33 928.587 1408.96 928.587C1408.36 928.587 1405.44 931.284 1404.01 933.907C1402.67 930.535 1400.34 928.512 1397.12 928.512C1388.65 928.512 1379.51 939.452 1379.51 950.542C1379.51 957.96 1383.86 962.306 1388.95 962.306C1392.92 962.306 1396.22 959.309 1397.8 957.585L1397.87 957.66L1395.02 968.9L1394.35 971.598C1393.67 973.845 1392.55 973.845 1389.03 973.92C1388.2 973.92 1387.45 973.92 1387.45 975.344C1387.45 975.869 1387.9 976.093 1388.43 976.093C1389.48 976.093 1390.83 975.944 1391.88 975.944H1399.52C1400.64 975.944 1401.92 976.093 1403.04 976.093C1403.49 976.093 1404.39 976.093 1404.39 974.67C1404.39 973.92 1403.79 973.92 1402.67 973.92C1399.14 973.92 1398.92 973.396 1398.92 972.796C1398.92 972.422 1398.99 972.347 1399.22 971.373L1409.63 929.261ZM1399.07 952.64C1398.69 953.914 1398.69 954.063 1397.65 955.487C1396 957.585 1392.7 960.807 1389.18 960.807C1386.11 960.807 1384.38 958.035 1384.38 953.614C1384.38 949.493 1386.71 941.1 1388.13 937.953C1390.68 932.708 1394.2 930.01 1397.12 930.01C1402.07 930.01 1403.04 936.155 1403.04 936.754C1403.04 936.829 1402.82 937.803 1402.74 937.953L1399.07 952.64Z" fill="black"/>
<path id="Vector_24" d="M1416.01 956.263C1416.01 952.117 1416.36 948.47 1418.16 945.423C1419.66 942.925 1422.21 940.877 1425.35 940.877C1426.35 940.877 1428.65 941.027 1429.8 942.775C1427.55 942.875 1427.35 944.574 1427.35 945.123C1427.35 946.622 1428.5 947.471 1429.7 947.471C1430.6 947.471 1432.05 946.921 1432.05 945.023C1432.05 942.026 1429.8 939.578 1425.3 939.578C1418.36 939.578 1411.32 946.172 1411.32 956.962C1411.32 970.5 1417.61 973.847 1422.46 973.847C1424.86 973.847 1427.45 973.198 1429.7 971.049C1431.7 969.101 1433.4 967.003 1433.4 962.657C1433.4 956.113 1428.45 951.517 1422.91 951.517C1419.31 951.517 1417.16 953.815 1416.01 956.263ZM1422.46 972.348C1419.81 972.348 1418.16 970.5 1417.41 969.101C1416.26 966.853 1416.16 963.456 1416.16 961.558C1416.16 956.613 1418.86 952.916 1422.71 952.916C1425.2 952.916 1426.7 954.215 1427.65 955.963C1428.7 957.812 1428.7 960.059 1428.7 962.607C1428.7 965.155 1428.7 967.353 1427.7 969.151C1426.4 971.449 1424.66 972.348 1422.46 972.348Z" fill="black"/>
</g>
</g>
</g>
<path id="Arrow 8_2" d="M1404.8 571.219C1405.2 571.609 1405.83 571.609 1406.22 571.219L1412.58 564.855C1412.97 564.464 1412.97 563.831 1412.58 563.441C1412.19 563.05 1411.56 563.05 1411.17 563.441L1405.51 569.098L1399.85 563.441C1399.46 563.05 1398.83 563.05 1398.44 563.441C1398.05 563.831 1398.05 564.464 1398.44 564.855L1404.8 571.219ZM1405.51 542.512L1404.51 542.512L1404.51 570.512L1405.51 570.512L1406.51 570.512L1406.51 542.512L1405.51 542.512Z" fill="black"/>
<g id="P" clip-path="url(#clip10_30_152)">
<g id="page1_10">
<path id="Vector_25" d="M499.692 500.862H512.281C522.621 500.862 532.962 493.219 532.962 484.677C532.962 478.832 528.016 473.512 518.575 473.512H495.421C493.997 473.512 493.323 473.512 493.323 474.935C493.323 475.685 493.997 475.685 495.121 475.685C499.692 475.685 499.692 476.284 499.692 477.108C499.692 477.258 499.692 477.708 499.392 478.832L489.277 519.145C488.602 521.768 488.452 522.517 483.207 522.517C481.783 522.517 481.034 522.517 481.034 523.866C481.034 524.69 481.709 524.69 482.158 524.69C483.582 524.69 485.08 524.54 486.504 524.54H495.271C496.695 524.54 498.268 524.69 499.692 524.69C500.292 524.69 501.116 524.69 501.116 523.266C501.116 522.517 500.442 522.517 499.318 522.517C494.822 522.517 494.747 521.993 494.747 521.243C494.747 520.869 494.822 520.344 494.897 519.969L499.692 500.862ZM505.087 478.607C505.762 475.835 506.061 475.685 508.984 475.685H516.402C522.022 475.685 526.668 477.483 526.668 483.103C526.668 485.051 525.694 491.42 522.247 494.867C520.973 496.216 517.376 499.063 510.557 499.063H499.992L505.087 478.607Z" fill="black"/>
</g>
</g>
<g id="Q" clip-path="url(#clip11_30_152)">
<g id="page1_11">
<path id="Vector_26" d="M940.059 525.441C952.947 520.271 962.538 506.633 962.538 493.071C962.538 480.707 954.446 473.139 943.955 473.139C927.92 473.139 911.734 490.373 911.734 507.682C911.734 519.447 919.527 527.464 930.392 527.464C932.94 527.464 935.413 527.09 937.811 526.34C937.361 530.836 937.361 531.211 937.361 532.635C937.361 534.808 937.361 540.427 943.356 540.427C952.272 540.427 955.569 526.415 955.569 525.966C955.569 525.516 955.27 525.216 954.895 525.216C954.446 525.216 954.296 525.591 954.071 526.415C952.422 531.136 948.526 533.833 945.229 533.833C941.407 533.833 940.433 531.211 940.059 525.441ZM926.571 525.066C920.651 523.043 917.804 516.824 917.804 509.93C917.804 504.685 919.752 494.719 924.698 487.151C930.243 478.609 937.661 474.787 943.505 474.787C951.298 474.787 956.544 481.081 956.544 490.823C956.544 496.368 953.921 514.951 939.834 523.193C939.459 519.372 938.41 514.876 933.465 514.876C929.418 514.876 925.971 518.922 925.971 522.594C925.971 523.418 926.271 524.542 926.571 525.066ZM937.961 524.167C935.263 525.366 932.94 525.816 930.842 525.816C930.093 525.816 927.47 525.816 927.47 522.519C927.47 519.821 930.093 516.374 933.465 516.374C937.211 516.374 938.035 518.922 938.035 522.669C938.035 523.118 938.035 523.718 937.961 524.167Z" fill="black"/>
</g>
</g>
<g id="R" clip-path="url(#clip12_30_152)">
<g id="page1_12">
<path id="Vector_27" d="M1323.71 478.234C1324.39 475.462 1324.69 475.312 1327.61 475.312H1333.01C1339.45 475.312 1344.25 477.26 1344.25 483.105C1344.25 486.926 1342.3 497.941 1327.24 497.941H1318.77L1323.71 478.234ZM1334.13 498.84C1343.42 496.817 1350.69 490.823 1350.69 484.378C1350.69 478.534 1344.77 473.139 1334.35 473.139H1314.05C1312.55 473.139 1311.88 473.139 1311.88 474.562C1311.88 475.312 1312.4 475.312 1313.82 475.312C1318.32 475.312 1318.32 475.911 1318.32 476.735C1318.32 476.885 1318.32 477.335 1318.02 478.459L1307.9 518.772C1307.23 521.395 1307.08 522.144 1301.91 522.144C1300.19 522.144 1299.66 522.144 1299.66 523.568C1299.66 524.317 1300.49 524.317 1300.71 524.317C1302.06 524.317 1303.63 524.167 1305.06 524.167H1313.9C1315.25 524.167 1316.82 524.317 1318.17 524.317C1318.77 524.317 1319.59 524.317 1319.59 522.893C1319.59 522.144 1318.92 522.144 1317.79 522.144C1313.22 522.144 1313.22 521.545 1313.22 520.795C1313.22 520.72 1313.22 520.196 1313.37 519.596L1318.39 499.44H1327.39C1334.5 499.44 1335.85 503.936 1335.85 506.408C1335.85 507.532 1335.1 510.455 1334.58 512.403C1333.76 515.85 1333.53 516.674 1333.53 518.098C1333.53 523.418 1337.88 525.891 1342.9 525.891C1348.97 525.891 1351.59 518.472 1351.59 517.423C1351.59 516.899 1351.21 516.674 1350.76 516.674C1350.17 516.674 1350.02 517.124 1349.87 517.723C1348.07 523.043 1344.99 524.392 1343.12 524.392C1341.25 524.392 1340.05 523.568 1340.05 520.196C1340.05 518.397 1340.95 511.579 1341.02 511.204C1341.4 508.432 1341.4 508.132 1341.4 507.532C1341.4 502.062 1336.98 499.739 1334.13 498.84Z" fill="black"/>
</g>
</g>
</g>
<defs>
<clipPath id="clip0_30_152">
<rect width="51.9382" height="47.5817" fill="white" transform="translate(563.512 596.512)"/>
</clipPath>
<clipPath id="clip1_30_152">
<rect width="53.4368" height="47.5817" fill="white" transform="translate(560.512 928.512)"/>
</clipPath>
<clipPath id="clip2_30_152">
<rect width="139" height="31" fill="white" transform="translate(436.512 759.512)"/>
</clipPath>
<clipPath id="clip3_30_152">
<rect width="53.8864" height="47.5817" fill="white" transform="translate(993.512 596.512)"/>
</clipPath>
<clipPath id="clip4_30_152">
<rect width="54.5858" height="47.5817" fill="white" transform="translate(993.512 925.512)"/>
</clipPath>
<clipPath id="clip5_30_152">
<rect width="127" height="31" fill="white" transform="translate(875.512 759.512)"/>
</clipPath>
<clipPath id="clip6_30_152">
<rect width="53.4368" height="47.5817" fill="white" transform="translate(1379.51 595.512)"/>
</clipPath>
<clipPath id="clip7_30_152">
<rect width="114" height="31" fill="white" transform="translate(1280.51 759.512)"/>
</clipPath>
<clipPath id="clip8_30_152">
<rect width="53.4368" height="47.5817" fill="white" transform="translate(1379.51 928.512)"/>
</clipPath>
<clipPath id="clip9_30_152">
<rect width="53.8864" height="47.5817" fill="white" transform="translate(1379.51 928.512)"/>
</clipPath>
<clipPath id="clip10_30_152">
<rect width="55.4495" height="51.1784" fill="white" transform="translate(477.512 473.512)"/>
</clipPath>
<clipPath id="clip11_30_152">
<rect width="54.4005" height="67.2888" fill="white" transform="translate(908.139 473.139)"/>
</clipPath>
<clipPath id="clip12_30_152">
<rect width="55.4495" height="52.752" fill="white" transform="translate(1296.14 473.139)"/>
</clipPath>
</defs>
</svg>
