<svg width="1920" height="1080" viewBox="0 0 1920 1080" fill="none" xmlns="http://www.w3.org/2000/svg">
<g id="dynamic">
<rect width="1920" height="1080" fill="white"/>
<path id="Arrow 78" d="M491.301 332.309C491.691 332.699 492.324 332.699 492.715 332.309L499.079 325.945C499.469 325.554 499.469 324.921 499.079 324.53C498.688 324.14 498.055 324.14 497.665 324.53L492.008 330.187L486.351 324.53C485.96 324.14 485.327 324.14 484.937 324.53C484.546 324.921 484.546 325.554 484.937 325.945L491.301 332.309ZM492.008 200.602H491.008V331.602H492.008H493.008V200.602H492.008Z" fill="black"/>
<path id="Polygon_15" opacity="0.1" d="M493.008 861.602L548.508 994.602H433.008L493.008 861.602Z" fill="#9F23D4" fill-opacity="0.41"/>
<g id="Group_62" opacity="0.1">
<path id="Arrow 79" d="M479.922 863.309C480.312 862.918 480.312 862.285 479.922 861.894L473.558 855.53C473.167 855.14 472.534 855.14 472.144 855.53C471.753 855.921 471.753 856.554 472.144 856.945L477.8 862.602L472.144 868.258C471.753 868.649 471.753 869.282 472.144 869.673C472.534 870.063 473.167 870.063 473.558 869.673L479.922 863.309ZM479.215 916.102L479.724 915.241C462.24 904.898 457.541 891.895 459.386 881.654C461.251 871.307 469.769 863.602 479.215 863.602V862.602V861.602C468.66 861.602 459.428 870.146 457.418 881.299C455.389 892.558 460.69 906.305 478.706 916.962L479.215 916.102Z" fill="black"/>
<path id="Arrow 83" d="M571.262 985.57C571.796 985.708 572.342 985.386 572.48 984.852L574.731 976.138C574.869 975.603 574.547 975.057 574.013 974.919C573.478 974.781 572.933 975.103 572.794 975.637L570.794 983.383L563.048 981.382C562.513 981.244 561.968 981.566 561.83 982.101C561.691 982.635 562.013 983.181 562.548 983.319L571.262 985.57ZM499.012 861.602L498.15 862.109L499.157 863.818L500.019 863.31L500.88 862.802L499.873 861.094L499.012 861.602ZM502.033 866.727L501.171 867.234L503.185 870.651L504.046 870.143L504.908 869.635L502.894 866.219L502.033 866.727ZM506.06 873.56L505.199 874.068L507.213 877.484L508.074 876.977L508.936 876.469L506.922 873.052L506.06 873.56ZM510.088 880.393L509.227 880.901L511.241 884.318L512.102 883.81L512.963 883.302L510.95 879.885L510.088 880.393ZM514.116 887.227L513.254 887.734L515.268 891.151L516.13 890.643L516.991 890.135L514.977 886.719L514.116 887.227ZM518.144 894.06L517.282 894.568L519.296 897.984L520.158 897.477L521.019 896.969L519.005 893.552L518.144 894.06ZM522.171 900.893L521.31 901.401L523.324 904.818L524.185 904.31L525.047 903.802L523.033 900.385L522.171 900.893ZM526.199 907.727L525.338 908.234L527.352 911.651L528.213 911.143L529.075 910.635L527.061 907.219L526.199 907.727ZM530.227 914.56L529.366 915.068L531.379 918.484L532.241 917.977L533.102 917.469L531.088 914.052L530.227 914.56ZM534.255 921.393L533.393 921.901L535.407 925.318L536.269 924.81L537.13 924.302L535.116 920.885L534.255 921.393ZM538.283 928.227L537.421 928.734L539.435 932.151L540.296 931.643L541.158 931.135L539.144 927.719L538.283 928.227ZM542.31 935.06L541.449 935.568L543.463 938.984L544.324 938.477L545.186 937.969L543.172 934.552L542.31 935.06ZM546.338 941.893L545.477 942.401L547.491 945.818L548.352 945.31L549.213 944.802L547.2 941.385L546.338 941.893ZM550.366 948.727L549.504 949.234L551.518 952.651L552.38 952.143L553.241 951.635L551.227 948.219L550.366 948.727ZM554.394 955.56L553.532 956.068L555.546 959.484L556.408 958.977L557.269 958.469L555.255 955.052L554.394 955.56ZM558.421 962.393L557.56 962.901L559.574 966.318L560.435 965.81L561.297 965.302L559.283 961.885L558.421 962.393ZM562.449 969.227L561.588 969.734L563.602 973.151L564.463 972.643L565.325 972.135L563.311 968.719L562.449 969.227ZM566.477 976.06L565.616 976.568L567.629 979.984L568.491 979.477L569.352 978.969L567.338 975.552L566.477 976.06ZM570.505 982.893L569.643 983.401L570.65 985.109L571.512 984.602L572.373 984.094L571.366 982.385L570.505 982.893ZM571.262 985.57C571.796 985.708 572.342 985.386 572.48 984.852L574.731 976.138C574.869 975.603 574.547 975.057 574.013 974.919C573.478 974.781 572.933 975.103 572.794 975.637L570.794 983.383L563.048 981.382C562.513 981.244 561.968 981.566 561.83 982.101C561.691 982.635 562.013 983.181 562.548 983.319L571.262 985.57ZM499.012 861.602L498.15 862.109L499.157 863.818L500.019 863.31L500.88 862.802L499.873 861.094L499.012 861.602ZM502.033 866.727L501.171 867.234L503.185 870.651L504.046 870.143L504.908 869.635L502.894 866.219L502.033 866.727ZM506.06 873.56L505.199 874.068L507.213 877.484L508.074 876.977L508.936 876.469L506.922 873.052L506.06 873.56ZM510.088 880.393L509.227 880.901L511.241 884.318L512.102 883.81L512.963 883.302L510.95 879.885L510.088 880.393ZM514.116 887.227L513.254 887.734L515.268 891.151L516.13 890.643L516.991 890.135L514.977 886.719L514.116 887.227ZM518.144 894.06L517.282 894.568L519.296 897.984L520.158 897.477L521.019 896.969L519.005 893.552L518.144 894.06ZM522.171 900.893L521.31 901.401L523.324 904.818L524.185 904.31L525.047 903.802L523.033 900.385L522.171 900.893ZM526.199 907.727L525.338 908.234L527.352 911.651L528.213 911.143L529.075 910.635L527.061 907.219L526.199 907.727ZM530.227 914.56L529.366 915.068L531.379 918.484L532.241 917.977L533.102 917.469L531.088 914.052L530.227 914.56ZM534.255 921.393L533.393 921.901L535.407 925.318L536.269 924.81L537.13 924.302L535.116 920.885L534.255 921.393ZM538.283 928.227L537.421 928.734L539.435 932.151L540.296 931.643L541.158 931.135L539.144 927.719L538.283 928.227ZM542.31 935.06L541.449 935.568L543.463 938.984L544.324 938.477L545.186 937.969L543.172 934.552L542.31 935.06ZM546.338 941.893L545.477 942.401L547.491 945.818L548.352 945.31L549.213 944.802L547.2 941.385L546.338 941.893ZM550.366 948.727L549.504 949.234L551.518 952.651L552.38 952.143L553.241 951.635L551.227 948.219L550.366 948.727ZM554.394 955.56L553.532 956.068L555.546 959.484L556.408 958.977L557.269 958.469L555.255 955.052L554.394 955.56ZM558.421 962.393L557.56 962.901L559.574 966.318L560.435 965.81L561.297 965.302L559.283 961.885L558.421 962.393ZM562.449 969.227L561.588 969.734L563.602 973.151L564.463 972.643L565.325 972.135L563.311 968.719L562.449 969.227ZM566.477 976.06L565.616 976.568L567.629 979.984L568.491 979.477L569.352 978.969L567.338 975.552L566.477 976.06ZM570.505 982.893L569.643 983.401L570.65 985.109L571.512 984.602L572.373 984.094L571.366 982.385L570.505 982.893Z" fill="black"/>
<path id="?" d="M542.455 908.42V908.249C542.474 906.441 542.663 905.001 543.023 903.931C543.383 902.861 543.894 901.995 544.557 901.332C545.22 900.669 546.016 900.058 546.944 899.499C547.502 899.158 548.004 898.756 548.449 898.292C548.894 897.818 549.245 897.274 549.5 896.658C549.766 896.043 549.898 895.361 549.898 894.613C549.898 893.685 549.68 892.88 549.245 892.198C548.809 891.516 548.227 890.991 547.498 890.621C546.768 890.252 545.959 890.067 545.069 890.067C544.292 890.067 543.544 890.228 542.824 890.55C542.105 890.872 541.503 891.379 541.02 892.07C540.537 892.762 540.258 893.666 540.182 894.783H536.603C536.678 893.174 537.095 891.796 537.853 890.65C538.62 889.504 539.628 888.628 540.878 888.022C542.138 887.416 543.534 887.113 545.069 887.113C546.735 887.113 548.184 887.444 549.415 888.107C550.656 888.77 551.612 889.679 552.284 890.835C552.966 891.99 553.307 893.306 553.307 894.783C553.307 895.825 553.146 896.767 552.824 897.61C552.512 898.453 552.057 899.206 551.461 899.869C550.873 900.531 550.163 901.119 549.33 901.63C548.497 902.151 547.829 902.7 547.327 903.278C546.825 903.846 546.461 904.523 546.233 905.309C546.006 906.095 545.883 907.075 545.864 908.249V908.42H542.455ZM544.273 916.829C543.572 916.829 542.971 916.578 542.469 916.076C541.967 915.574 541.716 914.973 541.716 914.272C541.716 913.571 541.967 912.97 542.469 912.468C542.971 911.966 543.572 911.715 544.273 911.715C544.974 911.715 545.575 911.966 546.077 912.468C546.579 912.97 546.83 913.571 546.83 914.272C546.83 914.736 546.712 915.162 546.475 915.55C546.248 915.939 545.94 916.251 545.551 916.488C545.173 916.715 544.747 916.829 544.273 916.829Z" fill="black"/>
</g>
<path id="Arrow_81" opacity="0.1" d="M491.301 994.309C491.691 994.699 492.324 994.699 492.715 994.309L499.079 987.945C499.469 987.554 499.469 986.921 499.079 986.53C498.688 986.14 498.055 986.14 497.665 986.53L492.008 992.187L486.351 986.53C485.96 986.14 485.327 986.14 484.937 986.53C484.546 986.921 484.546 987.554 484.937 987.945L491.301 994.309ZM492.008 862.602H491.008V993.602H492.008H493.008V862.602H492.008Z" fill="black"/>
<g id="Group_65" opacity="0.1">
<path id="Arrow 82" d="M491.301 482.309C491.691 482.699 492.324 482.699 492.715 482.309L499.079 475.945C499.469 475.554 499.469 474.921 499.079 474.53C498.688 474.14 498.055 474.14 497.665 474.53L492.008 480.187L486.351 474.53C485.96 474.14 485.327 474.14 484.937 474.53C484.546 474.921 484.546 475.554 484.937 475.945L491.301 482.309ZM492.008 350.602H491.008V481.602H492.008H493.008V350.602H492.008Z" fill="black"/>
<path id=". . ." d="M492.519 618.829C491.818 618.829 491.217 618.578 490.715 618.076C490.213 617.574 489.962 616.973 489.962 616.272C489.962 615.571 490.213 614.97 490.715 614.468C491.217 613.966 491.818 613.715 492.519 613.715C493.22 613.715 493.821 613.966 494.323 614.468C494.825 614.97 495.076 615.571 495.076 616.272C495.076 616.736 494.958 617.162 494.721 617.55C494.494 617.939 494.186 618.251 493.798 618.488C493.419 618.715 492.993 618.829 492.519 618.829ZM492.519 670.829C491.818 670.829 491.217 670.578 490.715 670.076C490.213 669.574 489.962 668.973 489.962 668.272C489.962 667.571 490.213 666.97 490.715 666.468C491.217 665.966 491.818 665.715 492.519 665.715C493.22 665.715 493.821 665.966 494.323 666.468C494.825 666.97 495.076 667.571 495.076 668.272C495.076 668.736 494.958 669.162 494.721 669.55C494.494 669.939 494.186 670.251 493.798 670.488C493.419 670.715 492.993 670.829 492.519 670.829ZM492.519 722.829C491.818 722.829 491.217 722.578 490.715 722.076C490.213 721.574 489.962 720.973 489.962 720.272C489.962 719.571 490.213 718.97 490.715 718.468C491.217 717.966 491.818 717.715 492.519 717.715C493.22 717.715 493.821 717.966 494.323 718.468C494.825 718.97 495.076 719.571 495.076 720.272C495.076 720.736 494.958 721.162 494.721 721.55C494.494 721.939 494.186 722.251 493.798 722.488C493.419 722.715 492.993 722.829 492.519 722.829Z" fill="black"/>
</g>
<g id="Group_652">
<g id="Group 64">
<path id="Arrow 80" d="M548.09 324.51C548.592 324.741 549.186 324.521 549.416 324.019L553.177 315.843C553.408 315.341 553.188 314.747 552.686 314.516C552.185 314.286 551.591 314.505 551.36 315.007L548.017 322.275L540.749 318.932C540.247 318.702 539.653 318.921 539.423 319.423C539.192 319.925 539.412 320.519 539.913 320.749L548.09 324.51ZM503.008 200.602L502.07 200.949L502.781 202.87L503.719 202.523L504.657 202.176L503.946 200.255L503.008 200.602ZM505.141 206.367L504.203 206.714L505.625 210.558L506.562 210.211L507.5 209.864L506.079 206.02L505.141 206.367ZM507.984 214.055L507.046 214.402L508.468 218.245L509.406 217.898L510.344 217.551L508.922 213.708L507.984 214.055ZM510.828 221.742L509.89 222.089L511.312 225.933L512.25 225.586L513.188 225.239L511.766 221.395L510.828 221.742ZM513.672 229.43L512.734 229.777L514.156 233.62L515.094 233.273L516.032 232.926L514.61 229.083L513.672 229.43ZM516.516 237.117L515.578 237.464L517 241.308L517.937 240.961L518.875 240.614L517.454 236.77L516.516 237.117ZM519.359 244.805L518.421 245.152L519.843 248.995L520.781 248.648L521.719 248.301L520.297 244.458L519.359 244.805ZM522.203 252.492L521.265 252.839L522.687 256.683L523.625 256.336L524.563 255.989L523.141 252.145L522.203 252.492ZM525.047 260.18L524.109 260.527L525.531 264.37L526.469 264.023L527.407 263.676L525.985 259.833L525.047 260.18ZM527.891 267.867L526.953 268.214L528.375 272.058L529.312 271.711L530.25 271.364L528.829 267.52L527.891 267.867ZM530.734 275.555L529.796 275.902L531.218 279.745L532.156 279.398L533.094 279.052L531.672 275.208L530.734 275.555ZM533.578 283.242L532.64 283.589L534.062 287.433L535 287.086L535.938 286.739L534.516 282.895L533.578 283.242ZM536.422 290.93L535.484 291.277L536.906 295.12L537.844 294.773L538.782 294.427L537.36 290.583L536.422 290.93ZM539.266 298.617L538.328 298.964L539.75 302.808L540.688 302.461L541.625 302.114L540.204 298.27L539.266 298.617ZM542.109 306.305L541.171 306.652L542.593 310.495L543.531 310.148L544.469 309.802L543.047 305.958L542.109 306.305ZM544.953 313.992L544.015 314.339L545.437 318.183L546.375 317.836L547.313 317.489L545.891 313.645L544.953 313.992ZM547.797 321.68L546.859 322.027L547.57 323.949L548.508 323.602L549.446 323.255L548.735 321.333L547.797 321.68ZM548.09 324.51C548.592 324.741 549.186 324.521 549.416 324.019L553.177 315.843C553.408 315.341 553.188 314.747 552.686 314.516C552.185 314.286 551.591 314.505 551.36 315.007L548.017 322.275L540.749 318.932C540.247 318.702 539.653 318.921 539.423 319.423C539.192 319.925 539.412 320.519 539.913 320.749L548.09 324.51ZM503.008 200.602L502.07 200.949L502.781 202.87L503.719 202.523L504.657 202.176L503.946 200.255L503.008 200.602ZM505.141 206.367L504.203 206.714L505.625 210.558L506.562 210.211L507.5 209.864L506.079 206.02L505.141 206.367ZM507.984 214.055L507.046 214.402L508.468 218.245L509.406 217.898L510.344 217.551L508.922 213.708L507.984 214.055ZM510.828 221.742L509.89 222.089L511.312 225.933L512.25 225.586L513.188 225.239L511.766 221.395L510.828 221.742ZM513.672 229.43L512.734 229.777L514.156 233.62L515.094 233.273L516.032 232.926L514.61 229.083L513.672 229.43ZM516.516 237.117L515.578 237.464L517 241.308L517.937 240.961L518.875 240.614L517.454 236.77L516.516 237.117ZM519.359 244.805L518.421 245.152L519.843 248.995L520.781 248.648L521.719 248.301L520.297 244.458L519.359 244.805ZM522.203 252.492L521.265 252.839L522.687 256.683L523.625 256.336L524.563 255.989L523.141 252.145L522.203 252.492ZM525.047 260.18L524.109 260.527L525.531 264.37L526.469 264.023L527.407 263.676L525.985 259.833L525.047 260.18ZM527.891 267.867L526.953 268.214L528.375 272.058L529.312 271.711L530.25 271.364L528.829 267.52L527.891 267.867ZM530.734 275.555L529.796 275.902L531.218 279.745L532.156 279.398L533.094 279.052L531.672 275.208L530.734 275.555ZM533.578 283.242L532.64 283.589L534.062 287.433L535 287.086L535.938 286.739L534.516 282.895L533.578 283.242ZM536.422 290.93L535.484 291.277L536.906 295.12L537.844 294.773L538.782 294.427L537.36 290.583L536.422 290.93ZM539.266 298.617L538.328 298.964L539.75 302.808L540.688 302.461L541.625 302.114L540.204 298.27L539.266 298.617ZM542.109 306.305L541.171 306.652L542.593 310.495L543.531 310.148L544.469 309.802L543.047 305.958L542.109 306.305ZM544.953 313.992L544.015 314.339L545.437 318.183L546.375 317.836L547.313 317.489L545.891 313.645L544.953 313.992ZM547.797 321.68L546.859 322.027L547.57 323.949L548.508 323.602L549.446 323.255L548.735 321.333L547.797 321.68Z" fill="black"/>
<path id="Polygon 16" d="M493.008 337.102L835.508 1008.6H186.008L493.008 337.102Z" fill="#9F23D4" fill-opacity="0.41"/>
</g>
<path id="?_2" d="M536.451 254.42V254.249C536.47 252.441 536.659 251.001 537.019 249.931C537.379 248.861 537.89 247.995 538.553 247.332C539.216 246.669 540.012 246.058 540.94 245.499C541.498 245.158 542 244.756 542.445 244.292C542.89 243.818 543.241 243.274 543.496 242.658C543.762 242.043 543.894 241.361 543.894 240.613C543.894 239.685 543.676 238.88 543.241 238.198C542.805 237.516 542.223 236.991 541.494 236.621C540.764 236.252 539.955 236.067 539.065 236.067C538.288 236.067 537.54 236.228 536.82 236.55C536.101 236.872 535.499 237.379 535.016 238.07C534.533 238.762 534.254 239.666 534.178 240.783H530.599C530.674 239.174 531.091 237.796 531.849 236.65C532.616 235.504 533.624 234.628 534.874 234.022C536.134 233.416 537.531 233.113 539.065 233.113C540.731 233.113 542.18 233.444 543.411 234.107C544.652 234.77 545.608 235.679 546.281 236.835C546.962 237.99 547.303 239.306 547.303 240.783C547.303 241.825 547.142 242.767 546.82 243.61C546.508 244.453 546.053 245.206 545.457 245.869C544.87 246.531 544.159 247.119 543.326 247.63C542.493 248.151 541.825 248.7 541.323 249.278C540.821 249.846 540.457 250.523 540.229 251.309C540.002 252.095 539.879 253.075 539.86 254.249V254.42H536.451ZM538.269 262.829C537.568 262.829 536.967 262.578 536.465 262.076C535.963 261.574 535.712 260.973 535.712 260.272C535.712 259.571 535.963 258.97 536.465 258.468C536.967 257.966 537.568 257.715 538.269 257.715C538.97 257.715 539.571 257.966 540.073 258.468C540.575 258.97 540.826 259.571 540.826 260.272C540.826 260.736 540.708 261.162 540.471 261.55C540.244 261.939 539.936 262.251 539.548 262.488C539.169 262.715 538.743 262.829 538.269 262.829Z" fill="black"/>
</g>
<g id="Group_653">
<path id="Discovered during the exploration" d="M578.578 263.078H569.601V233.987H578.976C581.798 233.987 584.213 234.57 586.22 235.734C588.228 236.89 589.767 238.552 590.837 240.72C591.907 242.879 592.442 245.464 592.442 248.476C592.442 251.506 591.902 254.115 590.822 256.303C589.743 258.481 588.171 260.157 586.107 261.331C584.042 262.496 581.533 263.078 578.578 263.078ZM573.124 259.953H578.351C580.756 259.953 582.75 259.489 584.331 258.561C585.912 257.633 587.091 256.312 587.868 254.598C588.644 252.884 589.033 250.843 589.033 248.476C589.033 246.127 588.649 244.106 587.882 242.411C587.115 240.706 585.969 239.399 584.445 238.49C582.92 237.571 581.021 237.112 578.749 237.112H573.124V259.953ZM597.896 263.078V241.26H601.249V263.078H597.896ZM599.601 237.624C598.947 237.624 598.384 237.401 597.911 236.956C597.446 236.511 597.214 235.976 597.214 235.351C597.214 234.726 597.446 234.191 597.911 233.746C598.384 233.301 598.947 233.078 599.601 233.078C600.254 233.078 600.813 233.301 601.277 233.746C601.75 234.191 601.987 234.726 601.987 235.351C601.987 235.976 601.75 236.511 601.277 236.956C600.813 237.401 600.254 237.624 599.601 237.624ZM622.843 246.146L619.832 246.999C619.642 246.497 619.363 246.009 618.994 245.536C618.634 245.053 618.141 244.655 617.516 244.342C616.891 244.03 616.091 243.874 615.116 243.874C613.781 243.874 612.668 244.181 611.778 244.797C610.897 245.403 610.457 246.175 610.457 247.112C610.457 247.946 610.76 248.604 611.366 249.087C611.972 249.57 612.919 249.972 614.207 250.294L617.445 251.089C619.396 251.563 620.85 252.287 621.806 253.263C622.763 254.229 623.241 255.474 623.241 256.999C623.241 258.249 622.881 259.366 622.161 260.351C621.451 261.336 620.457 262.112 619.178 262.68C617.9 263.249 616.413 263.533 614.718 263.533C612.493 263.533 610.651 263.05 609.192 262.084C607.734 261.118 606.811 259.707 606.423 257.851L609.604 257.055C609.907 258.23 610.48 259.11 611.323 259.697C612.175 260.285 613.288 260.578 614.661 260.578C616.224 260.578 617.464 260.247 618.383 259.584C619.311 258.911 619.775 258.107 619.775 257.169C619.775 256.411 619.51 255.777 618.979 255.266C618.449 254.745 617.635 254.357 616.536 254.101L612.9 253.249C610.902 252.775 609.434 252.041 608.496 251.047C607.568 250.043 607.104 248.788 607.104 247.283C607.104 246.052 607.45 244.963 608.141 244.016C608.842 243.069 609.794 242.325 610.996 241.786C612.209 241.246 613.582 240.976 615.116 240.976C617.275 240.976 618.97 241.449 620.201 242.396C621.442 243.343 622.322 244.593 622.843 246.146ZM637.151 263.533C635.105 263.533 633.344 263.05 631.866 262.084C630.389 261.118 629.253 259.787 628.457 258.092C627.662 256.397 627.264 254.461 627.264 252.283C627.264 250.067 627.671 248.111 628.486 246.416C629.31 244.712 630.455 243.381 631.923 242.425C633.401 241.459 635.124 240.976 637.094 240.976C638.628 240.976 640.01 241.26 641.241 241.828C642.473 242.396 643.481 243.192 644.267 244.214C645.053 245.237 645.541 246.43 645.73 247.794H642.378C642.122 246.8 641.554 245.919 640.673 245.152C639.802 244.375 638.628 243.987 637.151 243.987C635.844 243.987 634.698 244.328 633.713 245.01C632.738 245.682 631.975 246.634 631.426 247.865C630.886 249.087 630.616 250.521 630.616 252.169C630.616 253.855 630.882 255.322 631.412 256.572C631.952 257.822 632.709 258.793 633.685 259.484C634.67 260.176 635.825 260.521 637.151 260.521C638.022 260.521 638.812 260.37 639.523 260.067C640.233 259.764 640.834 259.328 641.327 258.76C641.819 258.192 642.17 257.51 642.378 256.714H645.73C645.541 258.002 645.072 259.162 644.324 260.195C643.585 261.217 642.605 262.032 641.384 262.638C640.171 263.234 638.76 263.533 637.151 263.533ZM659.494 263.533C657.525 263.533 655.796 263.064 654.31 262.126C652.832 261.189 651.677 259.877 650.844 258.192C650.02 256.506 649.608 254.536 649.608 252.283C649.608 250.01 650.02 248.026 650.844 246.331C651.677 244.636 652.832 243.32 654.31 242.382C655.796 241.445 657.525 240.976 659.494 240.976C661.464 240.976 663.188 241.445 664.665 242.382C666.152 243.32 667.307 244.636 668.131 246.331C668.964 248.026 669.381 250.01 669.381 252.283C669.381 254.536 668.964 256.506 668.131 258.192C667.307 259.877 666.152 261.189 664.665 262.126C663.188 263.064 661.464 263.533 659.494 263.533ZM659.494 260.521C660.991 260.521 662.222 260.138 663.188 259.371C664.153 258.604 664.868 257.595 665.332 256.345C665.796 255.095 666.028 253.741 666.028 252.283C666.028 250.824 665.796 249.465 665.332 248.206C664.868 246.946 664.153 245.929 663.188 245.152C662.222 244.375 660.991 243.987 659.494 243.987C657.998 243.987 656.767 244.375 655.801 245.152C654.835 245.929 654.12 246.946 653.656 248.206C653.192 249.465 652.96 250.824 652.96 252.283C652.96 253.741 653.192 255.095 653.656 256.345C654.12 257.595 654.835 258.604 655.801 259.371C656.767 260.138 657.998 260.521 659.494 260.521ZM691.558 241.26L683.489 263.078H680.08L672.012 241.26H675.648L681.671 258.646H681.898L687.921 241.26H691.558ZM704.349 263.533C702.246 263.533 700.433 263.069 698.908 262.141C697.393 261.203 696.224 259.896 695.4 258.22C694.585 256.535 694.178 254.574 694.178 252.339C694.178 250.105 694.585 248.135 695.4 246.43C696.224 244.716 697.37 243.381 698.837 242.425C700.315 241.459 702.038 240.976 704.008 240.976C705.144 240.976 706.266 241.165 707.374 241.544C708.482 241.923 709.491 242.538 710.4 243.391C711.309 244.233 712.033 245.351 712.573 246.743C713.113 248.135 713.383 249.849 713.383 251.885V253.305H696.565V250.408H709.974C709.974 249.177 709.728 248.078 709.235 247.112C708.752 246.146 708.061 245.384 707.161 244.825C706.271 244.267 705.22 243.987 704.008 243.987C702.673 243.987 701.517 244.319 700.542 244.982C699.576 245.635 698.833 246.487 698.312 247.538C697.791 248.589 697.531 249.716 697.531 250.919V252.851C697.531 254.499 697.815 255.895 698.383 257.041C698.96 258.178 699.761 259.044 700.783 259.641C701.806 260.228 702.995 260.521 704.349 260.521C705.229 260.521 706.025 260.398 706.735 260.152C707.455 259.896 708.075 259.518 708.596 259.016C709.117 258.504 709.519 257.87 709.803 257.112L713.042 258.021C712.701 259.12 712.128 260.086 711.323 260.919C710.518 261.743 709.524 262.387 708.34 262.851C707.156 263.305 705.826 263.533 704.349 263.533ZM718.482 263.078V241.26H721.721V244.555H721.948C722.346 243.476 723.066 242.6 724.107 241.928C725.149 241.255 726.323 240.919 727.63 240.919C727.876 240.919 728.184 240.924 728.553 240.933C728.923 240.943 729.202 240.957 729.391 240.976V244.385C729.278 244.357 729.017 244.314 728.61 244.257C728.212 244.191 727.791 244.158 727.346 244.158C726.285 244.158 725.338 244.38 724.505 244.825C723.681 245.261 723.028 245.867 722.545 246.643C722.071 247.411 721.835 248.286 721.835 249.271V263.078H718.482ZM741.849 263.533C739.746 263.533 737.933 263.069 736.408 262.141C734.893 261.203 733.724 259.896 732.9 258.22C732.085 256.535 731.678 254.574 731.678 252.339C731.678 250.105 732.085 248.135 732.9 246.43C733.724 244.716 734.87 243.381 736.337 242.425C737.815 241.459 739.538 240.976 741.508 240.976C742.644 240.976 743.766 241.165 744.874 241.544C745.982 241.923 746.991 242.538 747.9 243.391C748.809 244.233 749.533 245.351 750.073 246.743C750.613 248.135 750.883 249.849 750.883 251.885V253.305H734.065V250.408H747.474C747.474 249.177 747.228 248.078 746.735 247.112C746.252 246.146 745.561 245.384 744.661 244.825C743.771 244.267 742.72 243.987 741.508 243.987C740.173 243.987 739.017 244.319 738.042 244.982C737.076 245.635 736.333 246.487 735.812 247.538C735.291 248.589 735.031 249.716 735.031 250.919V252.851C735.031 254.499 735.315 255.895 735.883 257.041C736.46 258.178 737.261 259.044 738.283 259.641C739.306 260.228 740.495 260.521 741.849 260.521C742.729 260.521 743.525 260.398 744.235 260.152C744.955 259.896 745.575 259.518 746.096 259.016C746.617 258.504 747.019 257.87 747.303 257.112L750.542 258.021C750.201 259.12 749.628 260.086 748.823 260.919C748.018 261.743 747.024 262.387 745.84 262.851C744.656 263.305 743.326 263.533 741.849 263.533ZM764.221 263.533C762.403 263.533 760.798 263.073 759.406 262.155C758.013 261.227 756.924 259.92 756.138 258.234C755.353 256.539 754.96 254.536 754.96 252.226C754.96 249.934 755.353 247.946 756.138 246.26C756.924 244.574 758.018 243.272 759.42 242.354C760.821 241.435 762.441 240.976 764.278 240.976C765.698 240.976 766.82 241.213 767.644 241.686C768.478 242.15 769.112 242.68 769.548 243.277C769.993 243.864 770.338 244.347 770.585 244.726H770.869V233.987H774.221V263.078H770.982V259.726H770.585C770.338 260.124 769.988 260.625 769.533 261.232C769.079 261.828 768.43 262.363 767.587 262.837C766.745 263.301 765.622 263.533 764.221 263.533ZM764.675 260.521C766.02 260.521 767.156 260.171 768.085 259.47C769.013 258.76 769.718 257.78 770.201 256.53C770.684 255.27 770.925 253.817 770.925 252.169C770.925 250.54 770.689 249.115 770.215 247.893C769.742 246.662 769.041 245.706 768.113 245.024C767.185 244.333 766.039 243.987 764.675 243.987C763.255 243.987 762.071 244.352 761.124 245.081C760.187 245.801 759.481 246.781 759.008 248.021C758.544 249.252 758.312 250.635 758.312 252.169C758.312 253.722 758.549 255.133 759.022 256.402C759.505 257.661 760.215 258.665 761.153 259.413C762.1 260.152 763.274 260.521 764.675 260.521ZM800.315 263.533C798.496 263.533 796.891 263.073 795.499 262.155C794.107 261.227 793.018 259.92 792.232 258.234C791.446 256.539 791.053 254.536 791.053 252.226C791.053 249.934 791.446 247.946 792.232 246.26C793.018 244.574 794.112 243.272 795.513 242.354C796.915 241.435 798.534 240.976 800.371 240.976C801.792 240.976 802.914 241.213 803.738 241.686C804.571 242.15 805.206 242.68 805.641 243.277C806.086 243.864 806.432 244.347 806.678 244.726H806.962V233.987H810.315V263.078H807.076V259.726H806.678C806.432 260.124 806.082 260.625 805.627 261.232C805.173 261.828 804.524 262.363 803.681 262.837C802.838 263.301 801.716 263.533 800.315 263.533ZM800.769 260.521C802.114 260.521 803.25 260.171 804.178 259.47C805.106 258.76 805.812 257.78 806.295 256.53C806.778 255.27 807.019 253.817 807.019 252.169C807.019 250.54 806.782 249.115 806.309 247.893C805.835 246.662 805.135 245.706 804.207 245.024C803.279 244.333 802.133 243.987 800.769 243.987C799.349 243.987 798.165 244.352 797.218 245.081C796.281 245.801 795.575 246.781 795.102 248.021C794.638 249.252 794.406 250.635 794.406 252.169C794.406 253.722 794.642 255.133 795.116 256.402C795.599 257.661 796.309 258.665 797.246 259.413C798.193 260.152 799.368 260.521 800.769 260.521ZM830.67 254.158V241.26H834.022V263.078H830.67V259.385H830.442C829.931 260.493 829.136 261.435 828.056 262.212C826.977 262.979 825.613 263.362 823.965 263.362C822.602 263.362 821.389 263.064 820.329 262.467C819.268 261.861 818.435 260.952 817.829 259.74C817.223 258.518 816.92 256.98 816.92 255.124V241.26H820.272V254.896C820.272 256.487 820.717 257.756 821.607 258.703C822.507 259.65 823.653 260.124 825.045 260.124C825.878 260.124 826.726 259.911 827.587 259.484C828.459 259.058 829.188 258.405 829.775 257.524C830.371 256.643 830.67 255.521 830.67 254.158ZM840.162 263.078V241.26H843.401V244.555H843.628C844.026 243.476 844.745 242.6 845.787 241.928C846.829 241.255 848.003 240.919 849.31 240.919C849.556 240.919 849.864 240.924 850.233 240.933C850.602 240.943 850.882 240.957 851.071 240.976V244.385C850.957 244.357 850.697 244.314 850.29 244.257C849.892 244.191 849.471 244.158 849.026 244.158C847.965 244.158 847.018 244.38 846.185 244.825C845.361 245.261 844.707 245.867 844.224 246.643C843.751 247.411 843.514 248.286 843.514 249.271V263.078H840.162ZM855.045 263.078V241.26H858.397V263.078H855.045ZM856.749 237.624C856.096 237.624 855.532 237.401 855.059 236.956C854.595 236.511 854.363 235.976 854.363 235.351C854.363 234.726 854.595 234.191 855.059 233.746C855.532 233.301 856.096 233.078 856.749 233.078C857.403 233.078 857.961 233.301 858.425 233.746C858.899 234.191 859.136 234.726 859.136 235.351C859.136 235.976 858.899 236.511 858.425 236.956C857.961 237.401 857.403 237.624 856.749 237.624ZM867.889 249.953V263.078H864.537V241.26H867.776V244.669H868.06C868.571 243.561 869.348 242.671 870.389 241.999C871.431 241.317 872.776 240.976 874.423 240.976C875.901 240.976 877.193 241.279 878.301 241.885C879.409 242.482 880.271 243.391 880.886 244.612C881.502 245.824 881.81 247.358 881.81 249.214V263.078H878.457V249.442C878.457 247.728 878.012 246.393 877.122 245.436C876.232 244.47 875.01 243.987 873.457 243.987C872.387 243.987 871.431 244.219 870.588 244.683C869.755 245.147 869.097 245.824 868.614 246.714C868.131 247.605 867.889 248.684 867.889 249.953ZM896.742 271.714C895.123 271.714 893.731 271.506 892.566 271.089C891.401 270.682 890.431 270.143 889.654 269.47C888.887 268.807 888.276 268.097 887.822 267.339L890.492 265.464C890.795 265.862 891.179 266.317 891.643 266.828C892.107 267.349 892.741 267.799 893.546 268.178C894.361 268.566 895.426 268.76 896.742 268.76C898.504 268.76 899.957 268.334 901.103 267.482C902.249 266.629 902.822 265.294 902.822 263.476V259.044H902.538C902.291 259.442 901.941 259.934 901.487 260.521C901.041 261.099 900.397 261.615 899.555 262.07C898.721 262.515 897.594 262.737 896.174 262.737C894.413 262.737 892.831 262.321 891.43 261.487C890.038 260.654 888.934 259.442 888.12 257.851C887.315 256.26 886.913 254.328 886.913 252.055C886.913 249.821 887.306 247.875 888.092 246.217C888.878 244.551 889.971 243.263 891.373 242.354C892.774 241.435 894.394 240.976 896.231 240.976C897.651 240.976 898.778 241.213 899.612 241.686C900.454 242.15 901.098 242.68 901.543 243.277C901.998 243.864 902.348 244.347 902.594 244.726H902.935V241.26H906.174V263.703C906.174 265.578 905.748 267.103 904.896 268.277C904.053 269.461 902.916 270.327 901.487 270.876C900.066 271.435 898.485 271.714 896.742 271.714ZM896.629 259.726C897.973 259.726 899.11 259.418 900.038 258.803C900.966 258.187 901.671 257.302 902.154 256.146C902.637 254.991 902.879 253.608 902.879 251.999C902.879 250.427 902.642 249.039 902.168 247.837C901.695 246.634 900.994 245.692 900.066 245.01C899.138 244.328 897.992 243.987 896.629 243.987C895.208 243.987 894.024 244.347 893.077 245.067C892.14 245.786 891.434 246.752 890.961 247.964C890.497 249.177 890.265 250.521 890.265 251.999C890.265 253.514 890.502 254.854 890.975 256.018C891.458 257.174 892.168 258.083 893.106 258.746C894.053 259.399 895.227 259.726 896.629 259.726ZM933.049 241.26V244.101H921.742V241.26H933.049ZM925.038 236.033H928.39V256.828C928.39 257.775 928.527 258.485 928.802 258.959C929.086 259.423 929.446 259.735 929.881 259.896C930.326 260.048 930.795 260.124 931.288 260.124C931.657 260.124 931.96 260.105 932.197 260.067C932.433 260.019 932.623 259.982 932.765 259.953L933.447 262.964C933.219 263.05 932.902 263.135 932.495 263.22C932.088 263.315 931.572 263.362 930.947 263.362C930 263.362 929.072 263.159 928.163 262.751C927.263 262.344 926.515 261.724 925.918 260.891C925.331 260.057 925.038 259.006 925.038 257.737V236.033ZM941.913 249.953V263.078H938.56V233.987H941.913V244.669H942.197C942.708 243.542 943.475 242.647 944.498 241.984C945.53 241.312 946.903 240.976 948.617 240.976C950.104 240.976 951.406 241.274 952.523 241.871C953.641 242.458 954.507 243.362 955.123 244.584C955.748 245.796 956.06 247.339 956.06 249.214V263.078H952.708V249.442C952.708 247.709 952.258 246.369 951.359 245.422C950.469 244.465 949.233 243.987 947.651 243.987C946.553 243.987 945.568 244.219 944.697 244.683C943.835 245.147 943.153 245.824 942.651 246.714C942.159 247.605 941.913 248.684 941.913 249.953ZM971.341 263.533C969.239 263.533 967.425 263.069 965.901 262.141C964.385 261.203 963.216 259.896 962.392 258.22C961.578 256.535 961.17 254.574 961.17 252.339C961.17 250.105 961.578 248.135 962.392 246.43C963.216 244.716 964.362 243.381 965.83 242.425C967.307 241.459 969.03 240.976 971 240.976C972.136 240.976 973.259 241.165 974.366 241.544C975.474 241.923 976.483 242.538 977.392 243.391C978.301 244.233 979.026 245.351 979.565 246.743C980.105 248.135 980.375 249.849 980.375 251.885V253.305H963.557V250.408H976.966C976.966 249.177 976.72 248.078 976.227 247.112C975.744 246.146 975.053 245.384 974.153 244.825C973.263 244.267 972.212 243.987 971 243.987C969.665 243.987 968.509 244.319 967.534 244.982C966.568 245.635 965.825 246.487 965.304 247.538C964.783 248.589 964.523 249.716 964.523 250.919V252.851C964.523 254.499 964.807 255.895 965.375 257.041C965.953 258.178 966.753 259.044 967.776 259.641C968.798 260.228 969.987 260.521 971.341 260.521C972.222 260.521 973.017 260.398 973.727 260.152C974.447 259.896 975.067 259.518 975.588 259.016C976.109 258.504 976.511 257.87 976.795 257.112L980.034 258.021C979.693 259.12 979.12 260.086 978.315 260.919C977.51 261.743 976.516 262.387 975.332 262.851C974.149 263.305 972.818 263.533 971.341 263.533ZM1005.87 263.533C1003.77 263.533 1001.96 263.069 1000.43 262.141C998.917 261.203 997.747 259.896 996.923 258.22C996.109 256.535 995.702 254.574 995.702 252.339C995.702 250.105 996.109 248.135 996.923 246.43C997.747 244.716 998.893 243.381 1000.36 242.425C1001.84 241.459 1003.56 240.976 1005.53 240.976C1006.67 240.976 1007.79 241.165 1008.9 241.544C1010.01 241.923 1011.01 242.538 1011.92 243.391C1012.83 244.233 1013.56 245.351 1014.1 246.743C1014.64 248.135 1014.91 249.849 1014.91 251.885V253.305H998.088V250.408H1011.5C1011.5 249.177 1011.25 248.078 1010.76 247.112C1010.28 246.146 1009.58 245.384 1008.68 244.825C1007.79 244.267 1006.74 243.987 1005.53 243.987C1004.2 243.987 1003.04 244.319 1002.07 244.982C1001.1 245.635 1000.36 246.487 999.835 247.538C999.314 248.589 999.054 249.716 999.054 250.919V252.851C999.054 254.499 999.338 255.895 999.906 257.041C1000.48 258.178 1001.28 259.044 1002.31 259.641C1003.33 260.228 1004.52 260.521 1005.87 260.521C1006.75 260.521 1007.55 260.398 1008.26 260.152C1008.98 259.896 1009.6 259.518 1010.12 259.016C1010.64 258.504 1011.04 257.87 1011.33 257.112L1014.57 258.021C1014.22 259.12 1013.65 260.086 1012.85 260.919C1012.04 261.743 1011.05 262.387 1009.86 262.851C1008.68 263.305 1007.35 263.533 1005.87 263.533ZM1021.92 241.26L1027.15 250.18L1032.37 241.26H1036.24L1029.19 252.169L1036.24 263.078H1032.37L1027.15 254.612L1021.92 263.078H1018.06L1024.99 252.169L1018.06 241.26H1021.92ZM1041.02 271.26V241.26H1044.26V244.726H1044.66C1044.9 244.347 1045.24 243.864 1045.68 243.277C1046.13 242.68 1046.76 242.15 1047.58 241.686C1048.42 241.213 1049.54 240.976 1050.96 240.976C1052.8 240.976 1054.42 241.435 1055.82 242.354C1057.22 243.272 1058.32 244.574 1059.1 246.26C1059.89 247.946 1060.28 249.934 1060.28 252.226C1060.28 254.536 1059.89 256.539 1059.1 258.234C1058.32 259.92 1057.23 261.227 1055.84 262.155C1054.44 263.073 1052.84 263.533 1051.02 263.533C1049.62 263.533 1048.5 263.301 1047.65 262.837C1046.81 262.363 1046.16 261.828 1045.71 261.232C1045.25 260.625 1044.9 260.124 1044.66 259.726H1044.37V271.26H1041.02ZM1044.32 252.169C1044.32 253.817 1044.56 255.27 1045.04 256.53C1045.52 257.78 1046.23 258.76 1047.16 259.47C1048.09 260.171 1049.22 260.521 1050.57 260.521C1051.97 260.521 1053.14 260.152 1054.08 259.413C1055.02 258.665 1055.73 257.661 1056.21 256.402C1056.69 255.133 1056.93 253.722 1056.93 252.169C1056.93 250.635 1056.69 249.252 1056.22 248.021C1055.76 246.781 1055.05 245.801 1054.1 245.081C1053.17 244.352 1051.99 243.987 1050.57 243.987C1049.2 243.987 1048.06 244.333 1047.13 245.024C1046.2 245.706 1045.5 246.662 1045.03 247.893C1044.55 249.115 1044.32 250.54 1044.32 252.169ZM1068.75 233.987V263.078H1065.4V233.987H1068.75ZM1083.75 263.533C1081.78 263.533 1080.05 263.064 1078.57 262.126C1077.09 261.189 1075.93 259.877 1075.1 258.192C1074.28 256.506 1073.87 254.536 1073.87 252.283C1073.87 250.01 1074.28 248.026 1075.1 246.331C1075.93 244.636 1077.09 243.32 1078.57 242.382C1080.05 241.445 1081.78 240.976 1083.75 240.976C1085.72 240.976 1087.45 241.445 1088.92 242.382C1090.41 243.32 1091.56 244.636 1092.39 246.331C1093.22 248.026 1093.64 250.01 1093.64 252.283C1093.64 254.536 1093.22 256.506 1092.39 258.192C1091.56 259.877 1090.41 261.189 1088.92 262.126C1087.45 263.064 1085.72 263.533 1083.75 263.533ZM1083.75 260.521C1085.25 260.521 1086.48 260.138 1087.45 259.371C1088.41 258.604 1089.13 257.595 1089.59 256.345C1090.05 255.095 1090.29 253.741 1090.29 252.283C1090.29 250.824 1090.05 249.465 1089.59 248.206C1089.13 246.946 1088.41 245.929 1087.45 245.152C1086.48 244.375 1085.25 243.987 1083.75 243.987C1082.26 243.987 1081.02 244.375 1080.06 245.152C1079.09 245.929 1078.38 246.946 1077.91 248.206C1077.45 249.465 1077.22 250.824 1077.22 252.283C1077.22 253.741 1077.45 255.095 1077.91 256.345C1078.38 257.595 1079.09 258.604 1080.06 259.371C1081.02 260.138 1082.26 260.521 1083.75 260.521ZM1098.76 263.078V241.26H1101.99V244.555H1102.22C1102.62 243.476 1103.34 242.6 1104.38 241.928C1105.42 241.255 1106.6 240.919 1107.9 240.919C1108.15 240.919 1108.46 240.924 1108.83 240.933C1109.2 240.943 1109.48 240.957 1109.66 240.976V244.385C1109.55 244.357 1109.29 244.314 1108.88 244.257C1108.49 244.191 1108.06 244.158 1107.62 244.158C1106.56 244.158 1105.61 244.38 1104.78 244.825C1103.95 245.261 1103.3 245.867 1102.82 246.643C1102.34 247.411 1102.11 248.286 1102.11 249.271V263.078H1098.76ZM1120.06 263.589C1118.68 263.589 1117.42 263.329 1116.29 262.808C1115.17 262.278 1114.27 261.516 1113.61 260.521C1112.95 259.518 1112.62 258.305 1112.62 256.885C1112.62 255.635 1112.86 254.622 1113.35 253.845C1113.85 253.059 1114.5 252.444 1115.33 251.999C1116.15 251.554 1117.06 251.222 1118.06 251.004C1119.06 250.777 1120.07 250.597 1121.08 250.464C1122.41 250.294 1123.48 250.166 1124.31 250.081C1125.14 249.986 1125.75 249.83 1126.12 249.612C1126.51 249.394 1126.71 249.016 1126.71 248.476V248.362C1126.71 246.961 1126.32 245.872 1125.56 245.095C1124.8 244.319 1123.65 243.93 1122.1 243.93C1120.5 243.93 1119.25 244.281 1118.34 244.982C1117.43 245.682 1116.79 246.43 1116.42 247.226L1113.24 246.089C1113.81 244.764 1114.57 243.732 1115.51 242.993C1116.47 242.245 1117.51 241.724 1118.64 241.43C1119.77 241.127 1120.89 240.976 1121.99 240.976C1122.69 240.976 1123.5 241.061 1124.41 241.232C1125.32 241.393 1126.21 241.729 1127.06 242.24C1127.92 242.751 1128.64 243.523 1129.21 244.555C1129.77 245.588 1130.06 246.97 1130.06 248.703V263.078H1126.71V260.124H1126.54C1126.31 260.597 1125.93 261.104 1125.4 261.643C1124.87 262.183 1124.16 262.643 1123.28 263.021C1122.4 263.4 1121.33 263.589 1120.06 263.589ZM1120.57 260.578C1121.9 260.578 1123.01 260.318 1123.92 259.797C1124.84 259.276 1125.53 258.604 1126 257.78C1126.47 256.956 1126.71 256.089 1126.71 255.18V252.112C1126.56 252.283 1126.25 252.439 1125.77 252.581C1125.3 252.714 1124.75 252.832 1124.12 252.936C1123.51 253.031 1122.9 253.116 1122.32 253.192C1121.74 253.258 1121.27 253.315 1120.91 253.362C1120.04 253.476 1119.23 253.661 1118.47 253.916C1117.72 254.162 1117.11 254.536 1116.65 255.038C1116.2 255.531 1115.97 256.203 1115.97 257.055C1115.97 258.22 1116.4 259.101 1117.26 259.697C1118.13 260.285 1119.24 260.578 1120.57 260.578ZM1145.67 241.26V244.101H1134.36V241.26H1145.67ZM1137.65 236.033H1141.01V256.828C1141.01 257.775 1141.14 258.485 1141.42 258.959C1141.7 259.423 1142.06 259.735 1142.5 259.896C1142.94 260.048 1143.41 260.124 1143.9 260.124C1144.27 260.124 1144.58 260.105 1144.81 260.067C1145.05 260.019 1145.24 259.982 1145.38 259.953L1146.06 262.964C1145.84 263.05 1145.52 263.135 1145.11 263.22C1144.71 263.315 1144.19 263.362 1143.56 263.362C1142.62 263.362 1141.69 263.159 1140.78 262.751C1139.88 262.344 1139.13 261.724 1138.54 260.891C1137.95 260.057 1137.65 259.006 1137.65 257.737V236.033ZM1150.71 263.078V241.26H1154.06V263.078H1150.71ZM1152.41 237.624C1151.76 237.624 1151.2 237.401 1150.72 236.956C1150.26 236.511 1150.03 235.976 1150.03 235.351C1150.03 234.726 1150.26 234.191 1150.72 233.746C1151.2 233.301 1151.76 233.078 1152.41 233.078C1153.07 233.078 1153.63 233.301 1154.09 233.746C1154.56 234.191 1154.8 234.726 1154.8 235.351C1154.8 235.976 1154.56 236.511 1154.09 236.956C1153.63 237.401 1153.07 237.624 1152.41 237.624ZM1169.06 263.533C1167.09 263.533 1165.37 263.064 1163.88 262.126C1162.4 261.189 1161.25 259.877 1160.41 258.192C1159.59 256.506 1159.18 254.536 1159.18 252.283C1159.18 250.01 1159.59 248.026 1160.41 246.331C1161.25 244.636 1162.4 243.32 1163.88 242.382C1165.37 241.445 1167.09 240.976 1169.06 240.976C1171.03 240.976 1172.76 241.445 1174.24 242.382C1175.72 243.32 1176.88 244.636 1177.7 246.331C1178.53 248.026 1178.95 250.01 1178.95 252.283C1178.95 254.536 1178.53 256.506 1177.7 258.192C1176.88 259.877 1175.72 261.189 1174.24 262.126C1172.76 263.064 1171.03 263.533 1169.06 263.533ZM1169.06 260.521C1170.56 260.521 1171.79 260.138 1172.76 259.371C1173.72 258.604 1174.44 257.595 1174.9 256.345C1175.37 255.095 1175.6 253.741 1175.6 252.283C1175.6 250.824 1175.37 249.465 1174.9 248.206C1174.44 246.946 1173.72 245.929 1172.76 245.152C1171.79 244.375 1170.56 243.987 1169.06 243.987C1167.57 243.987 1166.34 244.375 1165.37 245.152C1164.41 245.929 1163.69 246.946 1163.23 248.206C1162.76 249.465 1162.53 250.824 1162.53 252.283C1162.53 253.741 1162.76 255.095 1163.23 256.345C1163.69 257.595 1164.41 258.604 1165.37 259.371C1166.34 260.138 1167.57 260.521 1169.06 260.521ZM1187.42 249.953V263.078H1184.07V241.26H1187.31V244.669H1187.59C1188.1 243.561 1188.88 242.671 1189.92 241.999C1190.96 241.317 1192.31 240.976 1193.95 240.976C1195.43 240.976 1196.72 241.279 1197.83 241.885C1198.94 242.482 1199.8 243.391 1200.42 244.612C1201.03 245.824 1201.34 247.358 1201.34 249.214V263.078H1197.99V249.442C1197.99 247.728 1197.54 246.393 1196.65 245.436C1195.76 244.47 1194.54 243.987 1192.99 243.987C1191.92 243.987 1190.96 244.219 1190.12 244.683C1189.29 245.147 1188.63 245.824 1188.14 246.714C1187.66 247.605 1187.42 248.684 1187.42 249.953Z" fill="#D423CE"/>
</g>
</g>
</svg>
