<svg width="1920" height="1080" viewBox="0 0 1920 1080" fill="none" xmlns="http://www.w3.org/2000/svg">
<g id="full reachability">
<rect width="1920" height="1080" fill="white"/>
<path id="State-space exploration" d="M570.059 82.8946C569.877 81.0613 569.097 79.637 567.718 78.6219C566.339 77.6067 564.468 77.0992 562.105 77.0992C560.499 77.0992 559.142 77.3264 558.036 77.781C556.93 78.2204 556.082 78.834 555.491 79.6219C554.915 80.4098 554.627 81.3037 554.627 82.3037C554.597 83.137 554.771 83.8643 555.15 84.4855C555.544 85.1067 556.082 85.6446 556.764 86.0992C557.445 86.5386 558.233 86.9249 559.127 87.2583C560.021 87.5764 560.976 87.8492 561.991 88.0764L566.173 89.0764C568.203 89.531 570.067 90.137 571.764 90.8946C573.461 91.6522 574.93 92.584 576.173 93.6901C577.415 94.7961 578.377 96.0992 579.059 97.5992C579.756 99.0992 580.112 100.819 580.127 102.758C580.112 105.607 579.385 108.076 577.945 110.167C576.521 112.243 574.461 113.857 571.764 115.008C569.082 116.145 565.847 116.713 562.059 116.713C558.302 116.713 555.029 116.137 552.241 114.986C549.468 113.834 547.302 112.129 545.741 109.872C544.195 107.599 543.385 104.789 543.309 101.44H552.832C552.938 103.001 553.385 104.304 554.173 105.349C554.976 106.379 556.044 107.16 557.377 107.69C558.726 108.205 560.249 108.463 561.945 108.463C563.612 108.463 565.059 108.22 566.286 107.736C567.529 107.251 568.491 106.576 569.173 105.713C569.855 104.849 570.195 103.857 570.195 102.736C570.195 101.69 569.885 100.811 569.264 100.099C568.658 99.387 567.764 98.781 566.582 98.281C565.415 97.781 563.983 97.3264 562.286 96.9173L557.218 95.6446C553.294 94.6901 550.195 93.1976 547.923 91.1673C545.65 89.137 544.521 86.4022 544.536 82.9628C544.521 80.1446 545.271 77.6825 546.786 75.5764C548.317 73.4704 550.415 71.8264 553.082 70.6446C555.749 69.4628 558.779 68.8719 562.173 68.8719C565.627 68.8719 568.642 69.4628 571.218 70.6446C573.809 71.8264 575.824 73.4704 577.264 75.5764C578.703 77.6825 579.445 80.1219 579.491 82.8946H570.059ZM605.133 81.1446V88.4173H584.11V81.1446H605.133ZM588.883 72.781H598.565V105.326C598.565 106.22 598.701 106.917 598.974 107.417C599.247 107.902 599.625 108.243 600.11 108.44C600.61 108.637 601.186 108.736 601.838 108.736C602.292 108.736 602.747 108.698 603.201 108.622C603.656 108.531 604.004 108.463 604.247 108.417L605.769 115.622C605.285 115.773 604.603 115.948 603.724 116.145C602.845 116.357 601.777 116.486 600.519 116.531C598.186 116.622 596.141 116.311 594.383 115.599C592.641 114.887 591.285 113.781 590.315 112.281C589.345 110.781 588.868 108.887 588.883 106.599V72.781ZM621.394 116.713C619.167 116.713 617.182 116.326 615.44 115.554C613.697 114.766 612.319 113.607 611.303 112.076C610.303 110.531 609.803 108.607 609.803 106.304C609.803 104.364 610.16 102.736 610.872 101.417C611.584 100.099 612.553 99.0386 613.781 98.2355C615.008 97.4325 616.402 96.8264 617.963 96.4173C619.538 96.0083 621.19 95.7204 622.917 95.5537C624.947 95.3416 626.584 95.1446 627.826 94.9628C629.069 94.7658 629.97 94.478 630.531 94.0992C631.091 93.7204 631.372 93.1598 631.372 92.4173V92.281C631.372 90.8416 630.917 89.728 630.008 88.9401C629.114 88.1522 627.841 87.7583 626.19 87.7583C624.447 87.7583 623.061 88.1446 622.031 88.9173C621 89.6749 620.319 90.6295 619.985 91.781L611.031 91.0537C611.485 88.9325 612.379 87.0992 613.713 85.5537C615.046 83.9931 616.766 82.7961 618.872 81.9628C620.993 81.1143 623.447 80.6901 626.235 80.6901C628.175 80.6901 630.031 80.9173 631.803 81.3719C633.591 81.8264 635.175 82.531 636.553 83.4855C637.947 84.4401 639.046 85.6673 639.849 87.1673C640.652 88.6522 641.053 90.4325 641.053 92.5083V116.054H631.872V111.213H631.599C631.038 112.304 630.288 113.266 629.349 114.099C628.41 114.917 627.281 115.561 625.963 116.031C624.644 116.486 623.122 116.713 621.394 116.713ZM624.167 110.031C625.591 110.031 626.849 109.751 627.94 109.19C629.031 108.614 629.887 107.842 630.508 106.872C631.129 105.902 631.44 104.804 631.44 103.576V99.8719C631.137 100.069 630.72 100.251 630.19 100.417C629.675 100.569 629.091 100.713 628.44 100.849C627.788 100.97 627.137 101.084 626.485 101.19C625.834 101.281 625.243 101.364 624.713 101.44C623.576 101.607 622.584 101.872 621.735 102.236C620.887 102.599 620.228 103.092 619.758 103.713C619.288 104.319 619.053 105.076 619.053 105.986C619.053 107.304 619.531 108.311 620.485 109.008C621.455 109.69 622.682 110.031 624.167 110.031ZM667.133 81.1446V88.4173H646.11V81.1446H667.133ZM650.883 72.781H660.565V105.326C660.565 106.22 660.701 106.917 660.974 107.417C661.247 107.902 661.625 108.243 662.11 108.44C662.61 108.637 663.186 108.736 663.838 108.736C664.292 108.736 664.747 108.698 665.201 108.622C665.656 108.531 666.004 108.463 666.247 108.417L667.769 115.622C667.285 115.773 666.603 115.948 665.724 116.145C664.845 116.357 663.777 116.486 662.519 116.531C660.186 116.622 658.141 116.311 656.383 115.599C654.641 114.887 653.285 113.781 652.315 112.281C651.345 110.781 650.868 108.887 650.883 106.599V72.781ZM688.974 116.736C685.383 116.736 682.292 116.008 679.701 114.554C677.125 113.084 675.141 111.008 673.747 108.326C672.353 105.629 671.656 102.44 671.656 98.7583C671.656 95.1673 672.353 92.0158 673.747 89.3037C675.141 86.5916 677.103 84.478 679.633 82.9628C682.178 81.4476 685.163 80.6901 688.588 80.6901C690.891 80.6901 693.035 81.0613 695.019 81.8037C697.019 82.531 698.762 83.6295 700.247 85.0992C701.747 86.5689 702.913 88.4173 703.747 90.6446C704.58 92.8567 704.997 95.4476 704.997 98.4173V101.076H675.519V95.0764H695.883C695.883 93.6825 695.58 92.4477 694.974 91.3719C694.368 90.2961 693.527 89.4552 692.451 88.8492C691.391 88.228 690.156 87.9173 688.747 87.9173C687.277 87.9173 685.974 88.2583 684.838 88.9401C683.716 89.6067 682.838 90.5083 682.201 91.6446C681.565 92.7658 681.239 94.0158 681.224 95.3946V101.099C681.224 102.826 681.542 104.319 682.178 105.576C682.83 106.834 683.747 107.804 684.928 108.486C686.11 109.167 687.512 109.508 689.133 109.508C690.209 109.508 691.194 109.357 692.088 109.054C692.981 108.751 693.747 108.296 694.383 107.69C695.019 107.084 695.504 106.342 695.838 105.463L704.792 106.054C704.338 108.205 703.406 110.084 701.997 111.69C700.603 113.281 698.8 114.523 696.588 115.417C694.391 116.296 691.853 116.736 688.974 116.736ZM733.065 93.0992V100.781H711.838V93.0992H733.065ZM770.36 91.0992L761.497 91.6446C761.345 90.887 761.019 90.2052 760.519 89.5992C760.019 88.978 759.36 88.4855 758.542 88.1219C757.739 87.7431 756.777 87.5537 755.656 87.5537C754.156 87.5537 752.891 87.8719 751.86 88.5083C750.83 89.1295 750.315 89.9628 750.315 91.0083C750.315 91.8416 750.648 92.5461 751.315 93.1219C751.981 93.6977 753.125 94.1598 754.747 94.5083L761.065 95.781C764.459 96.478 766.989 97.5992 768.656 99.1446C770.322 100.69 771.156 102.72 771.156 105.236C771.156 107.523 770.481 109.531 769.133 111.258C767.8 112.986 765.966 114.334 763.633 115.304C761.315 116.258 758.641 116.736 755.61 116.736C750.989 116.736 747.307 115.773 744.565 113.849C741.838 111.91 740.239 109.273 739.769 105.94L749.292 105.44C749.58 106.849 750.277 107.925 751.383 108.667C752.489 109.395 753.906 109.758 755.633 109.758C757.33 109.758 758.694 109.432 759.724 108.781C760.769 108.114 761.3 107.258 761.315 106.213C761.3 105.334 760.928 104.614 760.201 104.054C759.474 103.478 758.353 103.039 756.838 102.736L750.792 101.531C747.383 100.849 744.845 99.6673 743.178 97.9855C741.527 96.3037 740.701 94.1598 740.701 91.5537C740.701 89.3113 741.307 87.3795 742.519 85.7583C743.747 84.137 745.466 82.887 747.678 82.0083C749.906 81.1295 752.512 80.6901 755.497 80.6901C759.906 80.6901 763.375 81.6219 765.906 83.4855C768.451 85.3492 769.936 87.887 770.36 91.0992ZM777.252 129.145V81.1446H786.798V87.0083H787.23C787.654 86.0689 788.267 85.1143 789.07 84.1446C789.889 83.1598 790.949 82.3416 792.252 81.6901C793.57 81.0234 795.207 80.6901 797.161 80.6901C799.707 80.6901 802.055 81.3567 804.207 82.6901C806.358 84.0083 808.078 86.0007 809.366 88.6673C810.654 91.3189 811.298 94.6446 811.298 98.6446C811.298 102.539 810.669 105.826 809.411 108.508C808.169 111.175 806.472 113.198 804.32 114.576C802.184 115.94 799.79 116.622 797.139 116.622C795.26 116.622 793.661 116.311 792.343 115.69C791.04 115.069 789.972 114.289 789.139 113.349C788.305 112.395 787.669 111.432 787.23 110.463H786.934V129.145H777.252ZM786.73 98.5992C786.73 100.675 787.017 102.486 787.593 104.031C788.169 105.576 789.002 106.781 790.093 107.645C791.184 108.493 792.51 108.917 794.07 108.917C795.646 108.917 796.98 108.486 798.07 107.622C799.161 106.743 799.987 105.531 800.548 103.986C801.124 102.425 801.411 100.629 801.411 98.5992C801.411 96.584 801.131 94.8113 800.57 93.281C800.01 91.7507 799.184 90.5537 798.093 89.6901C797.002 88.8264 795.661 88.3946 794.07 88.3946C792.495 88.3946 791.161 88.8113 790.07 89.6446C788.995 90.478 788.169 91.6598 787.593 93.1901C787.017 94.7204 786.73 96.5234 786.73 98.5992ZM827.707 116.713C825.48 116.713 823.495 116.326 821.752 115.554C820.01 114.766 818.631 113.607 817.616 112.076C816.616 110.531 816.116 108.607 816.116 106.304C816.116 104.364 816.472 102.736 817.184 101.417C817.896 100.099 818.866 99.0386 820.093 98.2355C821.32 97.4325 822.714 96.8264 824.275 96.4173C825.851 96.0083 827.502 95.7204 829.23 95.5537C831.26 95.3416 832.896 95.1446 834.139 94.9628C835.381 94.7658 836.283 94.478 836.843 94.0992C837.404 93.7204 837.684 93.1598 837.684 92.4173V92.281C837.684 90.8416 837.23 89.728 836.32 88.9401C835.427 88.1522 834.154 87.7583 832.502 87.7583C830.76 87.7583 829.374 88.1446 828.343 88.9173C827.313 89.6749 826.631 90.6295 826.298 91.781L817.343 91.0537C817.798 88.9325 818.692 87.0992 820.025 85.5537C821.358 83.9931 823.078 82.7961 825.184 81.9628C827.305 81.1143 829.76 80.6901 832.548 80.6901C834.487 80.6901 836.343 80.9173 838.116 81.3719C839.904 81.8264 841.487 82.531 842.866 83.4855C844.26 84.4401 845.358 85.6673 846.161 87.1673C846.964 88.6522 847.366 90.4325 847.366 92.5083V116.054H838.184V111.213H837.911C837.351 112.304 836.601 113.266 835.661 114.099C834.722 114.917 833.593 115.561 832.275 116.031C830.957 116.486 829.434 116.713 827.707 116.713ZM830.48 110.031C831.904 110.031 833.161 109.751 834.252 109.19C835.343 108.614 836.199 107.842 836.82 106.872C837.442 105.902 837.752 104.804 837.752 103.576V99.8719C837.449 100.069 837.033 100.251 836.502 100.417C835.987 100.569 835.404 100.713 834.752 100.849C834.101 100.97 833.449 101.084 832.798 101.19C832.146 101.281 831.555 101.364 831.025 101.44C829.889 101.607 828.896 101.872 828.048 102.236C827.199 102.599 826.54 103.092 826.07 103.713C825.601 104.319 825.366 105.076 825.366 105.986C825.366 107.304 825.843 108.311 826.798 109.008C827.767 109.69 828.995 110.031 830.48 110.031ZM870.65 116.736C867.074 116.736 863.999 115.978 861.423 114.463C858.862 112.932 856.892 110.811 855.514 108.099C854.15 105.387 853.468 102.266 853.468 98.7355C853.468 95.1598 854.158 92.0234 855.536 89.3264C856.93 86.6143 858.908 84.5007 861.468 82.9855C864.029 81.4552 867.074 80.6901 870.605 80.6901C873.65 80.6901 876.317 81.2431 878.605 82.3492C880.892 83.4552 882.703 85.0083 884.036 87.0083C885.37 89.0083 886.105 91.3567 886.241 94.0537H877.105C876.847 92.3113 876.165 90.9098 875.059 89.8492C873.968 88.7734 872.536 88.2355 870.764 88.2355C869.264 88.2355 867.953 88.6446 866.832 89.4628C865.726 90.2658 864.862 91.4401 864.241 92.9855C863.62 94.531 863.309 96.4022 863.309 98.5992C863.309 100.826 863.612 102.72 864.218 104.281C864.839 105.842 865.711 107.031 866.832 107.849C867.953 108.667 869.264 109.076 870.764 109.076C871.87 109.076 872.862 108.849 873.741 108.395C874.635 107.94 875.37 107.281 875.945 106.417C876.536 105.539 876.923 104.486 877.105 103.258H886.241C886.089 105.925 885.362 108.273 884.059 110.304C882.771 112.319 880.991 113.895 878.718 115.031C876.445 116.167 873.756 116.736 870.65 116.736ZM908.349 116.736C904.758 116.736 901.667 116.008 899.076 114.554C896.5 113.084 894.516 111.008 893.122 108.326C891.728 105.629 891.031 102.44 891.031 98.7583C891.031 95.1673 891.728 92.0158 893.122 89.3037C894.516 86.5916 896.478 84.478 899.008 82.9628C901.553 81.4476 904.538 80.6901 907.963 80.6901C910.266 80.6901 912.41 81.0613 914.394 81.8037C916.394 82.531 918.137 83.6295 919.622 85.0992C921.122 86.5689 922.288 88.4173 923.122 90.6446C923.955 92.8567 924.372 95.4476 924.372 98.4173V101.076H894.894V95.0764H915.258C915.258 93.6825 914.955 92.4477 914.349 91.3719C913.743 90.2961 912.902 89.4552 911.826 88.8492C910.766 88.228 909.531 87.9173 908.122 87.9173C906.652 87.9173 905.349 88.2583 904.213 88.9401C903.091 89.6067 902.213 90.5083 901.576 91.6446C900.94 92.7658 900.614 94.0158 900.599 95.3946V101.099C900.599 102.826 900.917 104.319 901.553 105.576C902.205 106.834 903.122 107.804 904.303 108.486C905.485 109.167 906.887 109.508 908.508 109.508C909.584 109.508 910.569 109.357 911.463 109.054C912.356 108.751 913.122 108.296 913.758 107.69C914.394 107.084 914.879 106.342 915.213 105.463L924.167 106.054C923.713 108.205 922.781 110.084 921.372 111.69C919.978 113.281 918.175 114.523 915.963 115.417C913.766 116.296 911.228 116.736 908.349 116.736ZM961.411 116.736C957.82 116.736 954.73 116.008 952.139 114.554C949.563 113.084 947.578 111.008 946.184 108.326C944.79 105.629 944.093 102.44 944.093 98.7583C944.093 95.1673 944.79 92.0158 946.184 89.3037C947.578 86.5916 949.54 84.478 952.07 82.9628C954.616 81.4476 957.601 80.6901 961.025 80.6901C963.328 80.6901 965.472 81.0613 967.457 81.8037C969.457 82.531 971.199 83.6295 972.684 85.0992C974.184 86.5689 975.351 88.4173 976.184 90.6446C977.017 92.8567 977.434 95.4476 977.434 98.4173V101.076H947.957V95.0764H968.32C968.32 93.6825 968.017 92.4477 967.411 91.3719C966.805 90.2961 965.964 89.4552 964.889 88.8492C963.828 88.228 962.593 87.9173 961.184 87.9173C959.714 87.9173 958.411 88.2583 957.275 88.9401C956.154 89.6067 955.275 90.5083 954.639 91.6446C954.002 92.7658 953.677 94.0158 953.661 95.3946V101.099C953.661 102.826 953.98 104.319 954.616 105.576C955.267 106.834 956.184 107.804 957.366 108.486C958.548 109.167 959.949 109.508 961.57 109.508C962.646 109.508 963.631 109.357 964.525 109.054C965.419 108.751 966.184 108.296 966.82 107.69C967.457 107.084 967.942 106.342 968.275 105.463L977.23 106.054C976.775 108.205 975.843 110.084 974.434 111.69C973.04 113.281 971.237 114.523 969.025 115.417C966.828 116.296 964.29 116.736 961.411 116.736ZM991.218 81.1446L997.627 93.3492L1004.2 81.1446H1014.13L1004.01 98.5992L1014.4 116.054H1004.51L997.627 103.986L990.855 116.054H980.855L991.218 98.5992L981.218 81.1446H991.218ZM1019.88 129.145V81.1446H1029.42V87.0083H1029.85C1030.28 86.0689 1030.89 85.1143 1031.7 84.1446C1032.51 83.1598 1033.57 82.3416 1034.88 81.6901C1036.2 81.0234 1037.83 80.6901 1039.79 80.6901C1042.33 80.6901 1044.68 81.3567 1046.83 82.6901C1048.98 84.0083 1050.7 86.0007 1051.99 88.6673C1053.28 91.3189 1053.92 94.6446 1053.92 98.6446C1053.92 102.539 1053.29 105.826 1052.04 108.508C1050.79 111.175 1049.1 113.198 1046.95 114.576C1044.81 115.94 1042.42 116.622 1039.76 116.622C1037.88 116.622 1036.29 116.311 1034.97 115.69C1033.67 115.069 1032.6 114.289 1031.76 113.349C1030.93 112.395 1030.29 111.432 1029.85 110.463H1029.56V129.145H1019.88ZM1029.35 98.5992C1029.35 100.675 1029.64 102.486 1030.22 104.031C1030.79 105.576 1031.63 106.781 1032.72 107.645C1033.81 108.493 1035.13 108.917 1036.7 108.917C1038.27 108.917 1039.6 108.486 1040.7 107.622C1041.79 106.743 1042.61 105.531 1043.17 103.986C1043.75 102.425 1044.04 100.629 1044.04 98.5992C1044.04 96.584 1043.76 94.8113 1043.2 93.281C1042.63 91.7507 1041.81 90.5537 1040.72 89.6901C1039.63 88.8264 1038.29 88.3946 1036.7 88.3946C1035.12 88.3946 1033.79 88.8113 1032.7 89.6446C1031.62 90.478 1030.79 91.6598 1030.22 93.1901C1029.64 94.7204 1029.35 96.5234 1029.35 98.5992ZM1070.06 69.5083V116.054H1060.38V69.5083H1070.06ZM1093.59 116.736C1090.06 116.736 1087 115.986 1084.43 114.486C1081.87 112.97 1079.89 110.864 1078.5 108.167C1077.1 105.455 1076.41 102.311 1076.41 98.7355C1076.41 95.1295 1077.1 91.978 1078.5 89.281C1079.89 86.5689 1081.87 84.4628 1084.43 82.9628C1087 81.4476 1090.06 80.6901 1093.59 80.6901C1097.12 80.6901 1100.16 81.4476 1102.72 82.9628C1105.3 84.4628 1107.28 86.5689 1108.68 89.281C1110.07 91.978 1110.77 95.1295 1110.77 98.7355C1110.77 102.311 1110.07 105.455 1108.68 108.167C1107.28 110.864 1105.3 112.97 1102.72 114.486C1100.16 115.986 1097.12 116.736 1093.59 116.736ZM1093.63 109.236C1095.24 109.236 1096.58 108.781 1097.66 107.872C1098.73 106.948 1099.54 105.69 1100.09 104.099C1100.65 102.508 1100.93 100.698 1100.93 98.6673C1100.93 96.637 1100.65 94.8264 1100.09 93.2355C1099.54 91.6446 1098.73 90.387 1097.66 89.4628C1096.58 88.5386 1095.24 88.0764 1093.63 88.0764C1092.01 88.0764 1090.65 88.5386 1089.54 89.4628C1088.45 90.387 1087.63 91.6446 1087.06 93.2355C1086.52 94.8264 1086.25 96.637 1086.25 98.6673C1086.25 100.698 1086.52 102.508 1087.06 104.099C1087.63 105.69 1088.45 106.948 1089.54 107.872C1090.65 108.781 1092.01 109.236 1093.63 109.236ZM1117.06 116.054V81.1446H1126.45V87.2355H1126.81C1127.45 85.0689 1128.52 83.4325 1130.02 82.3264C1131.52 81.2052 1133.25 80.6446 1135.2 80.6446C1135.69 80.6446 1136.21 80.6749 1136.77 80.7355C1137.33 80.7961 1137.82 80.8795 1138.25 80.9855V89.5764C1137.79 89.4401 1137.16 89.3189 1136.36 89.2128C1135.56 89.1067 1134.82 89.0537 1134.16 89.0537C1132.73 89.0537 1131.46 89.3643 1130.34 89.9855C1129.23 90.5916 1128.35 91.4401 1127.7 92.531C1127.06 93.6219 1126.75 94.8795 1126.75 96.3037V116.054H1117.06ZM1152.21 116.713C1149.98 116.713 1147.99 116.326 1146.25 115.554C1144.51 114.766 1143.13 113.607 1142.12 112.076C1141.12 110.531 1140.62 108.607 1140.62 106.304C1140.62 104.364 1140.97 102.736 1141.68 101.417C1142.4 100.099 1143.37 99.0386 1144.59 98.2355C1145.82 97.4325 1147.21 96.8264 1148.78 96.4173C1150.35 96.0083 1152 95.7204 1153.73 95.5537C1155.76 95.3416 1157.4 95.1446 1158.64 94.9628C1159.88 94.7658 1160.78 94.478 1161.34 94.0992C1161.9 93.7204 1162.18 93.1598 1162.18 92.4173V92.281C1162.18 90.8416 1161.73 89.728 1160.82 88.9401C1159.93 88.1522 1158.65 87.7583 1157 87.7583C1155.26 87.7583 1153.87 88.1446 1152.84 88.9173C1151.81 89.6749 1151.13 90.6295 1150.8 91.781L1141.84 91.0537C1142.3 88.9325 1143.19 87.0992 1144.53 85.5537C1145.86 83.9931 1147.58 82.7961 1149.68 81.9628C1151.81 81.1143 1154.26 80.6901 1157.05 80.6901C1158.99 80.6901 1160.84 80.9173 1162.62 81.3719C1164.4 81.8264 1165.99 82.531 1167.37 83.4855C1168.76 84.4401 1169.86 85.6673 1170.66 87.1673C1171.46 88.6522 1171.87 90.4325 1171.87 92.5083V116.054H1162.68V111.213H1162.41C1161.85 112.304 1161.1 113.266 1160.16 114.099C1159.22 114.917 1158.09 115.561 1156.78 116.031C1155.46 116.486 1153.93 116.713 1152.21 116.713ZM1154.98 110.031C1156.4 110.031 1157.66 109.751 1158.75 109.19C1159.84 108.614 1160.7 107.842 1161.32 106.872C1161.94 105.902 1162.25 104.804 1162.25 103.576V99.8719C1161.95 100.069 1161.53 100.251 1161 100.417C1160.49 100.569 1159.9 100.713 1159.25 100.849C1158.6 100.97 1157.95 101.084 1157.3 101.19C1156.65 101.281 1156.06 101.364 1155.53 101.44C1154.39 101.607 1153.4 101.872 1152.55 102.236C1151.7 102.599 1151.04 103.092 1150.57 103.713C1150.1 104.319 1149.87 105.076 1149.87 105.986C1149.87 107.304 1150.34 108.311 1151.3 109.008C1152.27 109.69 1153.49 110.031 1154.98 110.031ZM1197.95 81.1446V88.4173H1176.92V81.1446H1197.95ZM1181.7 72.781H1191.38V105.326C1191.38 106.22 1191.51 106.917 1191.79 107.417C1192.06 107.902 1192.44 108.243 1192.92 108.44C1193.42 108.637 1194 108.736 1194.65 108.736C1195.1 108.736 1195.56 108.698 1196.01 108.622C1196.47 108.531 1196.82 108.463 1197.06 108.417L1198.58 115.622C1198.1 115.773 1197.42 115.948 1196.54 116.145C1195.66 116.357 1194.59 116.486 1193.33 116.531C1191 116.622 1188.95 116.311 1187.2 115.599C1185.45 114.887 1184.1 113.781 1183.13 112.281C1182.16 110.781 1181.68 108.887 1181.7 106.599V72.781ZM1204.25 116.054V81.1446H1213.93V116.054H1204.25ZM1209.12 76.6446C1207.68 76.6446 1206.44 76.1673 1205.41 75.2128C1204.4 74.2431 1203.89 73.084 1203.89 71.7355C1203.89 70.4022 1204.4 69.2583 1205.41 68.3037C1206.44 67.334 1207.68 66.8492 1209.12 66.8492C1210.56 66.8492 1211.78 67.334 1212.8 68.3037C1213.83 69.2583 1214.34 70.4022 1214.34 71.7355C1214.34 73.084 1213.83 74.2431 1212.8 75.2128C1211.78 76.1673 1210.56 76.6446 1209.12 76.6446ZM1237.46 116.736C1233.93 116.736 1230.88 115.986 1228.3 114.486C1225.74 112.97 1223.77 110.864 1222.37 108.167C1220.98 105.455 1220.28 102.311 1220.28 98.7355C1220.28 95.1295 1220.98 91.978 1222.37 89.281C1223.77 86.5689 1225.74 84.4628 1228.3 82.9628C1230.88 81.4476 1233.93 80.6901 1237.46 80.6901C1240.99 80.6901 1244.04 81.4476 1246.6 82.9628C1249.17 84.4628 1251.16 86.5689 1252.55 89.281C1253.95 91.978 1254.64 95.1295 1254.64 98.7355C1254.64 102.311 1253.95 105.455 1252.55 108.167C1251.16 110.864 1249.17 112.97 1246.6 114.486C1244.04 115.986 1240.99 116.736 1237.46 116.736ZM1237.51 109.236C1239.11 109.236 1240.45 108.781 1241.53 107.872C1242.61 106.948 1243.42 105.69 1243.96 104.099C1244.52 102.508 1244.8 100.698 1244.8 98.6673C1244.8 96.637 1244.52 94.8264 1243.96 93.2355C1243.42 91.6446 1242.61 90.387 1241.53 89.4628C1240.45 88.5386 1239.11 88.0764 1237.51 88.0764C1235.89 88.0764 1234.52 88.5386 1233.42 89.4628C1232.33 90.387 1231.5 91.6446 1230.94 93.2355C1230.39 94.8264 1230.12 96.637 1230.12 98.6673C1230.12 100.698 1230.39 102.508 1230.94 104.099C1231.5 105.69 1232.33 106.948 1233.42 107.872C1234.52 108.781 1235.89 109.236 1237.51 109.236ZM1270.62 95.8719V116.054H1260.94V81.1446H1270.17V87.3037H1270.58C1271.35 85.2734 1272.64 83.6673 1274.46 82.4855C1276.28 81.2886 1278.49 80.6901 1281.08 80.6901C1283.5 80.6901 1285.61 81.2204 1287.42 82.281C1289.22 83.3416 1290.62 84.8567 1291.62 86.8264C1292.62 88.781 1293.12 91.1143 1293.12 93.8264V116.054H1283.44V95.5537C1283.45 93.4173 1282.91 91.7507 1281.8 90.5537C1280.7 89.3416 1279.17 88.7355 1277.24 88.7355C1275.93 88.7355 1274.78 89.0158 1273.78 89.5764C1272.8 90.137 1272.02 90.9552 1271.46 92.031C1270.92 93.0916 1270.64 94.3719 1270.62 95.8719Z" fill="black"/>
<path id="A way to do MC = explore the entire state space but combinatorial explosion" d="M170.849 293.054H167.122L175.497 269.781H179.553L187.928 293.054H184.201L177.622 274.008H177.44L170.849 293.054ZM171.474 283.94H183.565V286.895H171.474V283.94ZM203.269 293.054L198.133 275.599H201.644L205.065 288.417H205.235L208.667 275.599H212.178L215.588 288.361H215.758L219.156 275.599H222.667L217.542 293.054H214.076L210.531 280.451H210.269L206.724 293.054H203.269ZM230.971 293.44C229.865 293.44 228.865 293.236 227.971 292.826C227.077 292.41 226.369 291.807 225.846 291.02C225.331 290.232 225.073 289.266 225.073 288.122C225.073 287.137 225.263 286.326 225.642 285.69C226.02 285.054 226.532 284.55 227.176 284.179C227.82 283.807 228.539 283.527 229.335 283.338C230.13 283.148 230.941 283.004 231.767 282.906C232.812 282.785 233.66 282.686 234.312 282.611C234.963 282.527 235.437 282.395 235.732 282.213C236.028 282.031 236.176 281.736 236.176 281.326V281.247C236.176 280.254 235.895 279.486 235.335 278.94C234.782 278.395 233.956 278.122 232.857 278.122C231.713 278.122 230.812 278.376 230.153 278.883C229.501 279.383 229.051 279.94 228.801 280.554L225.607 279.826C225.986 278.766 226.539 277.91 227.267 277.258C228.001 276.599 228.846 276.122 229.801 275.826C230.755 275.523 231.759 275.372 232.812 275.372C233.509 275.372 234.248 275.455 235.028 275.622C235.816 275.781 236.551 276.076 237.232 276.508C237.922 276.94 238.486 277.557 238.926 278.361C239.365 279.156 239.585 280.19 239.585 281.463V293.054H236.267V290.667H236.13C235.91 291.107 235.581 291.539 235.142 291.963C234.702 292.387 234.138 292.739 233.448 293.02C232.759 293.3 231.933 293.44 230.971 293.44ZM231.71 290.713C232.649 290.713 233.452 290.527 234.119 290.156C234.793 289.785 235.304 289.3 235.653 288.701C236.009 288.095 236.187 287.448 236.187 286.758V284.508C236.066 284.629 235.831 284.743 235.482 284.849C235.142 284.948 234.751 285.035 234.312 285.111C233.873 285.179 233.445 285.243 233.028 285.304C232.611 285.357 232.263 285.402 231.982 285.44C231.323 285.523 230.721 285.664 230.176 285.861C229.638 286.057 229.206 286.342 228.88 286.713C228.562 287.076 228.403 287.561 228.403 288.167C228.403 289.008 228.713 289.645 229.335 290.076C229.956 290.501 230.748 290.713 231.71 290.713ZM245.633 299.599C245.125 299.599 244.663 299.557 244.247 299.474C243.83 299.398 243.519 299.315 243.315 299.224L244.133 296.44C244.754 296.607 245.307 296.679 245.792 296.656C246.277 296.633 246.705 296.451 247.076 296.111C247.455 295.77 247.788 295.213 248.076 294.44L248.497 293.281L242.11 275.599H245.747L250.167 289.145H250.349L254.769 275.599H258.417L251.224 295.383C250.891 296.292 250.466 297.061 249.951 297.69C249.436 298.326 248.822 298.804 248.11 299.122C247.398 299.44 246.572 299.599 245.633 299.599ZM278.227 275.599V278.326H268.693V275.599H278.227ZM271.249 271.417H274.647V287.929C274.647 288.588 274.746 289.084 274.943 289.417C275.14 289.743 275.393 289.967 275.704 290.088C276.022 290.201 276.367 290.258 276.738 290.258C277.011 290.258 277.249 290.239 277.454 290.201C277.659 290.164 277.818 290.133 277.931 290.111L278.545 292.917C278.348 292.993 278.068 293.069 277.704 293.145C277.34 293.228 276.886 293.273 276.34 293.281C275.446 293.296 274.613 293.137 273.84 292.804C273.068 292.47 272.443 291.955 271.965 291.258C271.488 290.561 271.249 289.686 271.249 288.633V271.417ZM289.15 293.406C287.514 293.406 286.086 293.031 284.866 292.281C283.646 291.531 282.699 290.482 282.025 289.133C281.351 287.785 281.014 286.209 281.014 284.406C281.014 282.595 281.351 281.012 282.025 279.656C282.699 278.3 283.646 277.247 284.866 276.497C286.086 275.747 287.514 275.372 289.15 275.372C290.786 275.372 292.214 275.747 293.434 276.497C294.654 277.247 295.601 278.3 296.275 279.656C296.949 281.012 297.286 282.595 297.286 284.406C297.286 286.209 296.949 287.785 296.275 289.133C295.601 290.482 294.654 291.531 293.434 292.281C292.214 293.031 290.786 293.406 289.15 293.406ZM289.161 290.554C290.222 290.554 291.101 290.273 291.798 289.713C292.495 289.152 293.01 288.406 293.343 287.474C293.684 286.542 293.855 285.516 293.855 284.395C293.855 283.281 293.684 282.258 293.343 281.326C293.01 280.387 292.495 279.633 291.798 279.065C291.101 278.497 290.222 278.213 289.161 278.213C288.093 278.213 287.207 278.497 286.502 279.065C285.805 279.633 285.286 280.387 284.945 281.326C284.612 282.258 284.445 283.281 284.445 284.395C284.445 285.516 284.612 286.542 284.945 287.474C285.286 288.406 285.805 289.152 286.502 289.713C287.207 290.273 288.093 290.554 289.161 290.554ZM316.082 293.395C314.673 293.395 313.415 293.035 312.309 292.315C311.211 291.588 310.347 290.554 309.718 289.213C309.097 287.864 308.786 286.247 308.786 284.361C308.786 282.474 309.101 280.861 309.73 279.52C310.366 278.179 311.237 277.152 312.343 276.44C313.449 275.728 314.703 275.372 316.105 275.372C317.188 275.372 318.059 275.554 318.718 275.917C319.385 276.273 319.9 276.69 320.264 277.167C320.635 277.645 320.923 278.065 321.127 278.429H321.332V269.781H324.73V293.054H321.411V290.338H321.127C320.923 290.709 320.627 291.133 320.241 291.611C319.862 292.088 319.339 292.504 318.673 292.861C318.006 293.217 317.142 293.395 316.082 293.395ZM316.832 290.497C317.809 290.497 318.635 290.239 319.309 289.724C319.991 289.201 320.506 288.478 320.855 287.554C321.211 286.629 321.389 285.554 321.389 284.326C321.389 283.114 321.214 282.054 320.866 281.145C320.517 280.236 320.006 279.527 319.332 279.02C318.658 278.512 317.824 278.258 316.832 278.258C315.809 278.258 314.957 278.523 314.275 279.054C313.593 279.584 313.078 280.307 312.73 281.224C312.389 282.141 312.218 283.175 312.218 284.326C312.218 285.493 312.392 286.542 312.741 287.474C313.089 288.406 313.605 289.145 314.286 289.69C314.976 290.228 315.824 290.497 316.832 290.497ZM336.931 293.406C335.295 293.406 333.867 293.031 332.647 292.281C331.427 291.531 330.481 290.482 329.806 289.133C329.132 287.785 328.795 286.209 328.795 284.406C328.795 282.595 329.132 281.012 329.806 279.656C330.481 278.3 331.427 277.247 332.647 276.497C333.867 275.747 335.295 275.372 336.931 275.372C338.568 275.372 339.996 275.747 341.215 276.497C342.435 277.247 343.382 278.3 344.056 279.656C344.731 281.012 345.068 282.595 345.068 284.406C345.068 286.209 344.731 287.785 344.056 289.133C343.382 290.482 342.435 291.531 341.215 292.281C339.996 293.031 338.568 293.406 336.931 293.406ZM336.943 290.554C338.003 290.554 338.882 290.273 339.579 289.713C340.276 289.152 340.791 288.406 341.124 287.474C341.465 286.542 341.636 285.516 341.636 284.395C341.636 283.281 341.465 282.258 341.124 281.326C340.791 280.387 340.276 279.633 339.579 279.065C338.882 278.497 338.003 278.213 336.943 278.213C335.874 278.213 334.988 278.497 334.284 279.065C333.587 279.633 333.068 280.387 332.727 281.326C332.393 282.258 332.227 283.281 332.227 284.395C332.227 285.516 332.393 286.542 332.727 287.474C333.068 288.406 333.587 289.152 334.284 289.713C334.988 290.273 335.874 290.554 336.943 290.554ZM357.602 269.781H361.863L369.272 287.872H369.545L376.954 269.781H381.215V293.054H377.874V276.213H377.659L370.795 293.02H368.022L361.159 276.201H360.943V293.054H357.602V269.781ZM405.65 277.349H402.105C401.968 276.592 401.714 275.925 401.343 275.349C400.972 274.773 400.517 274.285 399.98 273.883C399.442 273.482 398.839 273.179 398.173 272.974C397.514 272.77 396.813 272.667 396.07 272.667C394.73 272.667 393.529 273.004 392.468 273.679C391.415 274.353 390.582 275.342 389.968 276.645C389.362 277.948 389.059 279.539 389.059 281.417C389.059 283.311 389.362 284.91 389.968 286.213C390.582 287.516 391.419 288.501 392.48 289.167C393.54 289.834 394.733 290.167 396.059 290.167C396.794 290.167 397.491 290.069 398.15 289.872C398.817 289.667 399.419 289.368 399.957 288.974C400.495 288.58 400.949 288.099 401.32 287.531C401.699 286.955 401.961 286.296 402.105 285.554L405.65 285.565C405.461 286.709 405.093 287.762 404.548 288.724C404.01 289.679 403.317 290.504 402.468 291.201C401.627 291.891 400.665 292.425 399.582 292.804C398.499 293.182 397.317 293.372 396.036 293.372C394.021 293.372 392.226 292.895 390.65 291.94C389.074 290.978 387.832 289.603 386.923 287.815C386.021 286.027 385.57 283.895 385.57 281.417C385.57 278.932 386.025 276.8 386.934 275.02C387.843 273.232 389.086 271.861 390.661 270.906C392.237 269.944 394.029 269.463 396.036 269.463C397.271 269.463 398.423 269.641 399.491 269.997C400.567 270.345 401.533 270.861 402.389 271.542C403.245 272.217 403.953 273.042 404.514 274.02C405.074 274.989 405.453 276.099 405.65 277.349ZM419.139 279.406V276.429H433.695V279.406H419.139ZM419.139 286.406V283.429H433.695V286.406H419.139ZM455.352 293.406C453.632 293.406 452.151 293.039 450.909 292.304C449.674 291.561 448.719 290.52 448.045 289.179C447.378 287.83 447.045 286.251 447.045 284.44C447.045 282.652 447.378 281.076 448.045 279.713C448.719 278.349 449.659 277.285 450.863 276.52C452.075 275.754 453.492 275.372 455.113 275.372C456.098 275.372 457.052 275.535 457.977 275.861C458.901 276.186 459.731 276.698 460.465 277.395C461.2 278.092 461.78 278.997 462.204 280.111C462.628 281.217 462.84 282.561 462.84 284.145V285.349H448.965V282.804H459.511C459.511 281.91 459.329 281.118 458.965 280.429C458.602 279.732 458.09 279.182 457.431 278.781C456.78 278.379 456.015 278.179 455.136 278.179C454.181 278.179 453.348 278.414 452.636 278.883C451.931 279.345 451.386 279.951 450.999 280.701C450.621 281.444 450.431 282.251 450.431 283.122V285.111C450.431 286.277 450.636 287.27 451.045 288.088C451.462 288.906 452.041 289.531 452.784 289.963C453.526 290.387 454.393 290.599 455.386 290.599C456.03 290.599 456.617 290.508 457.147 290.326C457.677 290.137 458.136 289.857 458.522 289.486C458.909 289.114 459.204 288.656 459.409 288.111L462.624 288.69C462.367 289.637 461.905 290.467 461.238 291.179C460.579 291.883 459.749 292.432 458.749 292.826C457.757 293.213 456.624 293.406 455.352 293.406ZM468.886 275.599L472.738 282.395L476.624 275.599H480.34L474.897 284.326L480.386 293.054H476.67L472.738 286.531L468.818 293.054H465.09L470.522 284.326L465.159 275.599H468.886ZM483.829 299.599V275.599H487.147V278.429H487.431C487.628 278.065 487.912 277.645 488.284 277.167C488.655 276.69 489.17 276.273 489.829 275.917C490.488 275.554 491.359 275.372 492.443 275.372C493.852 275.372 495.109 275.728 496.215 276.44C497.321 277.152 498.189 278.179 498.818 279.52C499.454 280.861 499.772 282.474 499.772 284.361C499.772 286.247 499.458 287.864 498.829 289.213C498.2 290.554 497.337 291.588 496.238 292.315C495.14 293.035 493.886 293.395 492.477 293.395C491.416 293.395 490.549 293.217 489.874 292.861C489.208 292.504 488.685 292.088 488.306 291.611C487.927 291.133 487.636 290.709 487.431 290.338H487.227V299.599H483.829ZM487.159 284.326C487.159 285.554 487.337 286.629 487.693 287.554C488.049 288.478 488.564 289.201 489.238 289.724C489.912 290.239 490.738 290.497 491.715 290.497C492.731 290.497 493.579 290.228 494.261 289.69C494.943 289.145 495.458 288.406 495.806 287.474C496.162 286.542 496.34 285.493 496.34 284.326C496.34 283.175 496.166 282.141 495.818 281.224C495.477 280.307 494.962 279.584 494.272 279.054C493.59 278.523 492.738 278.258 491.715 278.258C490.731 278.258 489.897 278.512 489.215 279.02C488.541 279.527 488.03 280.236 487.681 281.145C487.333 282.054 487.159 283.114 487.159 284.326ZM506.977 269.781V293.054H503.579V269.781H506.977ZM518.9 293.406C517.264 293.406 515.836 293.031 514.616 292.281C513.396 291.531 512.449 290.482 511.775 289.133C511.101 287.785 510.764 286.209 510.764 284.406C510.764 282.595 511.101 281.012 511.775 279.656C512.449 278.3 513.396 277.247 514.616 276.497C515.836 275.747 517.264 275.372 518.9 275.372C520.536 275.372 521.964 275.747 523.184 276.497C524.404 277.247 525.351 278.3 526.025 279.656C526.699 281.012 527.036 282.595 527.036 284.406C527.036 286.209 526.699 287.785 526.025 289.133C525.351 290.482 524.404 291.531 523.184 292.281C521.964 293.031 520.536 293.406 518.9 293.406ZM518.911 290.554C519.972 290.554 520.851 290.273 521.548 289.713C522.245 289.152 522.76 288.406 523.093 287.474C523.434 286.542 523.605 285.516 523.605 284.395C523.605 283.281 523.434 282.258 523.093 281.326C522.76 280.387 522.245 279.633 521.548 279.065C520.851 278.497 519.972 278.213 518.911 278.213C517.843 278.213 516.957 278.497 516.252 279.065C515.555 279.633 515.036 280.387 514.695 281.326C514.362 282.258 514.195 283.281 514.195 284.395C514.195 285.516 514.362 286.542 514.695 287.474C515.036 288.406 515.555 289.152 516.252 289.713C516.957 290.273 517.843 290.554 518.911 290.554ZM530.829 293.054V275.599H534.113V278.372H534.295C534.613 277.432 535.174 276.694 535.977 276.156C536.787 275.611 537.704 275.338 538.727 275.338C538.939 275.338 539.189 275.345 539.477 275.361C539.772 275.376 540.003 275.395 540.17 275.417V278.667C540.034 278.629 539.791 278.588 539.443 278.542C539.094 278.489 538.746 278.463 538.397 278.463C537.594 278.463 536.878 278.633 536.249 278.974C535.628 279.307 535.136 279.773 534.772 280.372C534.409 280.963 534.227 281.637 534.227 282.395V293.054H530.829ZM550.008 293.406C548.288 293.406 546.807 293.039 545.565 292.304C544.33 291.561 543.375 290.52 542.701 289.179C542.035 287.83 541.701 286.251 541.701 284.44C541.701 282.652 542.035 281.076 542.701 279.713C543.375 278.349 544.315 277.285 545.519 276.52C546.731 275.754 548.148 275.372 549.769 275.372C550.754 275.372 551.709 275.535 552.633 275.861C553.557 276.186 554.387 276.698 555.122 277.395C555.856 278.092 556.436 278.997 556.86 280.111C557.285 281.217 557.497 282.561 557.497 284.145V285.349H543.622V282.804H554.167C554.167 281.91 553.985 281.118 553.622 280.429C553.258 279.732 552.747 279.182 552.088 278.781C551.436 278.379 550.671 278.179 549.792 278.179C548.838 278.179 548.004 278.414 547.292 278.883C546.588 279.345 546.042 279.951 545.656 280.701C545.277 281.444 545.088 282.251 545.088 283.122V285.111C545.088 286.277 545.292 287.27 545.701 288.088C546.118 288.906 546.697 289.531 547.44 289.963C548.182 290.387 549.05 290.599 550.042 290.599C550.686 290.599 551.273 290.508 551.803 290.326C552.334 290.137 552.792 289.857 553.178 289.486C553.565 289.114 553.86 288.656 554.065 288.111L557.281 288.69C557.023 289.637 556.561 290.467 555.894 291.179C555.235 291.883 554.406 292.432 553.406 292.826C552.413 293.213 551.281 293.406 550.008 293.406ZM577.883 275.599V278.326H568.349V275.599H577.883ZM570.906 271.417H574.303V287.929C574.303 288.588 574.402 289.084 574.599 289.417C574.796 289.743 575.05 289.967 575.36 290.088C575.678 290.201 576.023 290.258 576.394 290.258C576.667 290.258 576.906 290.239 577.11 290.201C577.315 290.164 577.474 290.133 577.588 290.111L578.201 292.917C578.004 292.993 577.724 293.069 577.36 293.145C576.997 293.228 576.542 293.273 575.997 293.281C575.103 293.296 574.269 293.137 573.497 292.804C572.724 292.47 572.099 291.955 571.622 291.258C571.144 290.561 570.906 289.686 570.906 288.633V271.417ZM585.414 282.69V293.054H582.017V269.781H585.369V278.44H585.585C585.994 277.501 586.619 276.754 587.46 276.201C588.301 275.648 589.399 275.372 590.755 275.372C591.952 275.372 592.998 275.618 593.892 276.111C594.793 276.603 595.49 277.338 595.982 278.315C596.482 279.285 596.732 280.497 596.732 281.951V293.054H593.335V282.361C593.335 281.08 593.005 280.088 592.346 279.383C591.687 278.671 590.77 278.315 589.596 278.315C588.793 278.315 588.073 278.486 587.437 278.826C586.808 279.167 586.312 279.667 585.948 280.326C585.592 280.978 585.414 281.766 585.414 282.69ZM608.789 293.406C607.07 293.406 605.588 293.039 604.346 292.304C603.111 291.561 602.157 290.52 601.482 289.179C600.816 287.83 600.482 286.251 600.482 284.44C600.482 282.652 600.816 281.076 601.482 279.713C602.157 278.349 603.096 277.285 604.301 276.52C605.513 275.754 606.929 275.372 608.551 275.372C609.535 275.372 610.49 275.535 611.414 275.861C612.338 276.186 613.168 276.698 613.903 277.395C614.638 278.092 615.217 278.997 615.642 280.111C616.066 281.217 616.278 282.561 616.278 284.145V285.349H602.403V282.804H612.948C612.948 281.91 612.767 281.118 612.403 280.429C612.039 279.732 611.528 279.182 610.869 278.781C610.217 278.379 609.452 278.179 608.573 278.179C607.619 278.179 606.785 278.414 606.073 278.883C605.369 279.345 604.823 279.951 604.437 280.701C604.058 281.444 603.869 282.251 603.869 283.122V285.111C603.869 286.277 604.073 287.27 604.482 288.088C604.899 288.906 605.479 289.531 606.221 289.963C606.963 290.387 607.831 290.599 608.823 290.599C609.467 290.599 610.054 290.508 610.585 290.326C611.115 290.137 611.573 289.857 611.96 289.486C612.346 289.114 612.642 288.656 612.846 288.111L616.062 288.69C615.804 289.637 615.342 290.467 614.676 291.179C614.017 291.883 613.187 292.432 612.187 292.826C611.195 293.213 610.062 293.406 608.789 293.406ZM636.039 293.406C634.32 293.406 632.838 293.039 631.596 292.304C630.361 291.561 629.407 290.52 628.732 289.179C628.066 287.83 627.732 286.251 627.732 284.44C627.732 282.652 628.066 281.076 628.732 279.713C629.407 278.349 630.346 277.285 631.551 276.52C632.763 275.754 634.179 275.372 635.801 275.372C636.785 275.372 637.74 275.535 638.664 275.861C639.588 276.186 640.418 276.698 641.153 277.395C641.888 278.092 642.467 278.997 642.892 280.111C643.316 281.217 643.528 282.561 643.528 284.145V285.349H629.653V282.804H640.198C640.198 281.91 640.017 281.118 639.653 280.429C639.289 279.732 638.778 279.182 638.119 278.781C637.467 278.379 636.702 278.179 635.823 278.179C634.869 278.179 634.035 278.414 633.323 278.883C632.619 279.345 632.073 279.951 631.687 280.701C631.308 281.444 631.119 282.251 631.119 283.122V285.111C631.119 286.277 631.323 287.27 631.732 288.088C632.149 288.906 632.729 289.531 633.471 289.963C634.213 290.387 635.081 290.599 636.073 290.599C636.717 290.599 637.304 290.508 637.835 290.326C638.365 290.137 638.823 289.857 639.21 289.486C639.596 289.114 639.892 288.656 640.096 288.111L643.312 288.69C643.054 289.637 642.592 290.467 641.926 291.179C641.267 291.883 640.437 292.432 639.437 292.826C638.445 293.213 637.312 293.406 636.039 293.406ZM650.695 282.69V293.054H647.298V275.599H650.559V278.44H650.775C651.177 277.516 651.805 276.773 652.661 276.213C653.525 275.652 654.612 275.372 655.923 275.372C657.112 275.372 658.154 275.622 659.048 276.122C659.942 276.614 660.635 277.349 661.127 278.326C661.62 279.304 661.866 280.512 661.866 281.951V293.054H658.468V282.361C658.468 281.095 658.139 280.107 657.48 279.395C656.82 278.675 655.915 278.315 654.764 278.315C653.976 278.315 653.275 278.486 652.661 278.826C652.055 279.167 651.574 279.667 651.218 280.326C650.87 280.978 650.695 281.766 650.695 282.69ZM674.57 275.599V278.326H665.036V275.599H674.57ZM667.593 271.417H670.991V287.929C670.991 288.588 671.089 289.084 671.286 289.417C671.483 289.743 671.737 289.967 672.048 290.088C672.366 290.201 672.711 290.258 673.082 290.258C673.355 290.258 673.593 290.239 673.798 290.201C674.002 290.164 674.161 290.133 674.275 290.111L674.889 292.917C674.692 292.993 674.411 293.069 674.048 293.145C673.684 293.228 673.23 293.273 672.684 293.281C671.79 293.296 670.957 293.137 670.184 292.804C669.411 292.47 668.786 291.955 668.309 291.258C667.832 290.561 667.593 289.686 667.593 288.633V271.417ZM678.329 293.054V275.599H681.727V293.054H678.329ZM680.045 272.906C679.454 272.906 678.946 272.709 678.522 272.315C678.106 271.914 677.897 271.436 677.897 270.883C677.897 270.323 678.106 269.845 678.522 269.451C678.946 269.05 679.454 268.849 680.045 268.849C680.636 268.849 681.14 269.05 681.556 269.451C681.981 269.845 682.193 270.323 682.193 270.883C682.193 271.436 681.981 271.914 681.556 272.315C681.14 272.709 680.636 272.906 680.045 272.906ZM686.298 293.054V275.599H689.582V278.372H689.764C690.082 277.432 690.642 276.694 691.445 276.156C692.256 275.611 693.173 275.338 694.195 275.338C694.408 275.338 694.658 275.345 694.945 275.361C695.241 275.376 695.472 275.395 695.639 275.417V278.667C695.502 278.629 695.26 278.588 694.911 278.542C694.563 278.489 694.214 278.463 693.866 278.463C693.063 278.463 692.347 278.633 691.718 278.974C691.097 279.307 690.605 279.773 690.241 280.372C689.877 280.963 689.695 281.637 689.695 282.395V293.054H686.298ZM705.477 293.406C703.757 293.406 702.276 293.039 701.034 292.304C699.799 291.561 698.844 290.52 698.17 289.179C697.503 287.83 697.17 286.251 697.17 284.44C697.17 282.652 697.503 281.076 698.17 279.713C698.844 278.349 699.784 277.285 700.988 276.52C702.2 275.754 703.617 275.372 705.238 275.372C706.223 275.372 707.177 275.535 708.102 275.861C709.026 276.186 709.856 276.698 710.59 277.395C711.325 278.092 711.905 278.997 712.329 280.111C712.753 281.217 712.965 282.561 712.965 284.145V285.349H699.09V282.804H709.636C709.636 281.91 709.454 281.118 709.09 280.429C708.727 279.732 708.215 279.182 707.556 278.781C706.905 278.379 706.14 278.179 705.261 278.179C704.306 278.179 703.473 278.414 702.761 278.883C702.056 279.345 701.511 279.951 701.124 280.701C700.746 281.444 700.556 282.251 700.556 283.122V285.111C700.556 286.277 700.761 287.27 701.17 288.088C701.587 288.906 702.166 289.531 702.909 289.963C703.651 290.387 704.518 290.599 705.511 290.599C706.155 290.599 706.742 290.508 707.272 290.326C707.802 290.137 708.261 289.857 708.647 289.486C709.034 289.114 709.329 288.656 709.534 288.111L712.749 288.69C712.492 289.637 712.03 290.467 711.363 291.179C710.704 291.883 709.874 292.432 708.874 292.826C707.882 293.213 706.749 293.406 705.477 293.406ZM738.284 279.861L735.204 280.406C735.075 280.012 734.871 279.637 734.59 279.281C734.318 278.925 733.946 278.633 733.477 278.406C733.007 278.179 732.42 278.065 731.715 278.065C730.753 278.065 729.95 278.281 729.306 278.713C728.662 279.137 728.34 279.686 728.34 280.361C728.34 280.944 728.556 281.414 728.988 281.77C729.42 282.126 730.117 282.417 731.079 282.645L733.852 283.281C735.458 283.652 736.655 284.224 737.443 284.997C738.231 285.77 738.624 286.773 738.624 288.008C738.624 289.054 738.321 289.986 737.715 290.804C737.117 291.614 736.28 292.251 735.204 292.713C734.136 293.175 732.897 293.406 731.488 293.406C729.534 293.406 727.939 292.989 726.704 292.156C725.469 291.315 724.712 290.122 724.431 288.576L727.715 288.076C727.92 288.932 728.34 289.58 728.977 290.02C729.613 290.451 730.443 290.667 731.465 290.667C732.579 290.667 733.469 290.436 734.136 289.974C734.802 289.504 735.136 288.932 735.136 288.258C735.136 287.713 734.931 287.254 734.522 286.883C734.121 286.512 733.503 286.232 732.67 286.042L729.715 285.395C728.087 285.023 726.882 284.432 726.102 283.622C725.329 282.811 724.943 281.785 724.943 280.542C724.943 279.512 725.231 278.611 725.806 277.838C726.382 277.065 727.177 276.463 728.193 276.031C729.208 275.592 730.371 275.372 731.681 275.372C733.568 275.372 735.052 275.781 736.136 276.599C737.219 277.41 737.935 278.497 738.284 279.861ZM750.508 275.599V278.326H740.974V275.599H750.508ZM743.531 271.417H746.928V287.929C746.928 288.588 747.027 289.084 747.224 289.417C747.421 289.743 747.675 289.967 747.985 290.088C748.303 290.201 748.648 290.258 749.019 290.258C749.292 290.258 749.531 290.239 749.735 290.201C749.94 290.164 750.099 290.133 750.213 290.111L750.826 292.917C750.629 292.993 750.349 293.069 749.985 293.145C749.622 293.228 749.167 293.273 748.622 293.281C747.728 293.296 746.894 293.137 746.122 292.804C745.349 292.47 744.724 291.955 744.247 291.258C743.769 290.561 743.531 289.686 743.531 288.633V271.417ZM759.346 293.44C758.24 293.44 757.24 293.236 756.346 292.826C755.452 292.41 754.744 291.807 754.221 291.02C753.706 290.232 753.448 289.266 753.448 288.122C753.448 287.137 753.638 286.326 754.017 285.69C754.395 285.054 754.907 284.55 755.551 284.179C756.195 283.807 756.914 283.527 757.71 283.338C758.505 283.148 759.316 283.004 760.142 282.906C761.187 282.785 762.035 282.686 762.687 282.611C763.338 282.527 763.812 282.395 764.107 282.213C764.403 282.031 764.551 281.736 764.551 281.326V281.247C764.551 280.254 764.27 279.486 763.71 278.94C763.157 278.395 762.331 278.122 761.232 278.122C760.088 278.122 759.187 278.376 758.528 278.883C757.876 279.383 757.426 279.94 757.176 280.554L753.982 279.826C754.361 278.766 754.914 277.91 755.642 277.258C756.376 276.599 757.221 276.122 758.176 275.826C759.13 275.523 760.134 275.372 761.187 275.372C761.884 275.372 762.623 275.455 763.403 275.622C764.191 275.781 764.926 276.076 765.607 276.508C766.297 276.94 766.861 277.557 767.301 278.361C767.74 279.156 767.96 280.19 767.96 281.463V293.054H764.642V290.667H764.505C764.285 291.107 763.956 291.539 763.517 291.963C763.077 292.387 762.513 292.739 761.823 293.02C761.134 293.3 760.308 293.44 759.346 293.44ZM760.085 290.713C761.024 290.713 761.827 290.527 762.494 290.156C763.168 289.785 763.679 289.3 764.028 288.701C764.384 288.095 764.562 287.448 764.562 286.758V284.508C764.441 284.629 764.206 284.743 763.857 284.849C763.517 284.948 763.126 285.035 762.687 285.111C762.248 285.179 761.82 285.243 761.403 285.304C760.986 285.357 760.638 285.402 760.357 285.44C759.698 285.523 759.096 285.664 758.551 285.861C758.013 286.057 757.581 286.342 757.255 286.713C756.937 287.076 756.778 287.561 756.778 288.167C756.778 289.008 757.088 289.645 757.71 290.076C758.331 290.501 759.123 290.713 760.085 290.713ZM780.633 275.599V278.326H771.099V275.599H780.633ZM773.656 271.417H777.053V287.929C777.053 288.588 777.152 289.084 777.349 289.417C777.546 289.743 777.8 289.967 778.11 290.088C778.428 290.201 778.773 290.258 779.144 290.258C779.417 290.258 779.656 290.239 779.86 290.201C780.065 290.164 780.224 290.133 780.338 290.111L780.951 292.917C780.754 292.993 780.474 293.069 780.11 293.145C779.747 293.228 779.292 293.273 778.747 293.281C777.853 293.296 777.019 293.137 776.247 292.804C775.474 292.47 774.849 291.955 774.372 291.258C773.894 290.561 773.656 289.686 773.656 288.633V271.417ZM791.727 293.406C790.007 293.406 788.526 293.039 787.284 292.304C786.049 291.561 785.094 290.52 784.42 289.179C783.753 287.83 783.42 286.251 783.42 284.44C783.42 282.652 783.753 281.076 784.42 279.713C785.094 278.349 786.034 277.285 787.238 276.52C788.45 275.754 789.867 275.372 791.488 275.372C792.473 275.372 793.427 275.535 794.352 275.861C795.276 276.186 796.106 276.698 796.84 277.395C797.575 278.092 798.155 278.997 798.579 280.111C799.003 281.217 799.215 282.561 799.215 284.145V285.349H785.34V282.804H795.886C795.886 281.91 795.704 281.118 795.34 280.429C794.977 279.732 794.465 279.182 793.806 278.781C793.155 278.379 792.39 278.179 791.511 278.179C790.556 278.179 789.723 278.414 789.011 278.883C788.306 279.345 787.761 279.951 787.374 280.701C786.996 281.444 786.806 282.251 786.806 283.122V285.111C786.806 286.277 787.011 287.27 787.42 288.088C787.837 288.906 788.416 289.531 789.159 289.963C789.901 290.387 790.768 290.599 791.761 290.599C792.405 290.599 792.992 290.508 793.522 290.326C794.052 290.137 794.511 289.857 794.897 289.486C795.284 289.114 795.579 288.656 795.784 288.111L798.999 288.69C798.742 289.637 798.28 290.467 797.613 291.179C796.954 291.883 796.124 292.432 795.124 292.826C794.132 293.213 792.999 293.406 791.727 293.406ZM824.534 279.861L821.454 280.406C821.325 280.012 821.121 279.637 820.84 279.281C820.568 278.925 820.196 278.633 819.727 278.406C819.257 278.179 818.67 278.065 817.965 278.065C817.003 278.065 816.2 278.281 815.556 278.713C814.912 279.137 814.59 279.686 814.59 280.361C814.59 280.944 814.806 281.414 815.238 281.77C815.67 282.126 816.367 282.417 817.329 282.645L820.102 283.281C821.708 283.652 822.905 284.224 823.693 284.997C824.481 285.77 824.874 286.773 824.874 288.008C824.874 289.054 824.571 289.986 823.965 290.804C823.367 291.614 822.53 292.251 821.454 292.713C820.386 293.175 819.147 293.406 817.738 293.406C815.784 293.406 814.189 292.989 812.954 292.156C811.719 291.315 810.962 290.122 810.681 288.576L813.965 288.076C814.17 288.932 814.59 289.58 815.227 290.02C815.863 290.451 816.693 290.667 817.715 290.667C818.829 290.667 819.719 290.436 820.386 289.974C821.052 289.504 821.386 288.932 821.386 288.258C821.386 287.713 821.181 287.254 820.772 286.883C820.371 286.512 819.753 286.232 818.92 286.042L815.965 285.395C814.337 285.023 813.132 284.432 812.352 283.622C811.579 282.811 811.193 281.785 811.193 280.542C811.193 279.512 811.481 278.611 812.056 277.838C812.632 277.065 813.427 276.463 814.443 276.031C815.458 275.592 816.621 275.372 817.931 275.372C819.818 275.372 821.302 275.781 822.386 276.599C823.469 277.41 824.185 278.497 824.534 279.861ZM828.61 299.599V275.599H831.928V278.429H832.213C832.41 278.065 832.694 277.645 833.065 277.167C833.436 276.69 833.951 276.273 834.61 275.917C835.269 275.554 836.141 275.372 837.224 275.372C838.633 275.372 839.891 275.728 840.997 276.44C842.103 277.152 842.97 278.179 843.599 279.52C844.235 280.861 844.553 282.474 844.553 284.361C844.553 286.247 844.239 287.864 843.61 289.213C842.981 290.554 842.118 291.588 841.019 292.315C839.921 293.035 838.667 293.395 837.258 293.395C836.197 293.395 835.33 293.217 834.656 292.861C833.989 292.504 833.466 292.088 833.088 291.611C832.709 291.133 832.417 290.709 832.213 290.338H832.008V299.599H828.61ZM831.94 284.326C831.94 285.554 832.118 286.629 832.474 287.554C832.83 288.478 833.345 289.201 834.019 289.724C834.694 290.239 835.519 290.497 836.497 290.497C837.512 290.497 838.36 290.228 839.042 289.69C839.724 289.145 840.239 288.406 840.588 287.474C840.944 286.542 841.122 285.493 841.122 284.326C841.122 283.175 840.947 282.141 840.599 281.224C840.258 280.307 839.743 279.584 839.053 279.054C838.372 278.523 837.519 278.258 836.497 278.258C835.512 278.258 834.678 278.512 833.997 279.02C833.322 279.527 832.811 280.236 832.463 281.145C832.114 282.054 831.94 283.114 831.94 284.326ZM853.44 293.44C852.334 293.44 851.334 293.236 850.44 292.826C849.546 292.41 848.838 291.807 848.315 291.02C847.8 290.232 847.542 289.266 847.542 288.122C847.542 287.137 847.731 286.326 848.11 285.69C848.489 285.054 849 284.55 849.644 284.179C850.288 283.807 851.008 283.527 851.803 283.338C852.599 283.148 853.41 283.004 854.235 282.906C855.281 282.785 856.129 282.686 856.781 282.611C857.432 282.527 857.906 282.395 858.201 282.213C858.497 282.031 858.644 281.736 858.644 281.326V281.247C858.644 280.254 858.364 279.486 857.803 278.94C857.25 278.395 856.425 278.122 855.326 278.122C854.182 278.122 853.281 278.376 852.622 278.883C851.97 279.383 851.519 279.94 851.269 280.554L848.076 279.826C848.455 278.766 849.008 277.91 849.735 277.258C850.47 276.599 851.315 276.122 852.269 275.826C853.224 275.523 854.228 275.372 855.281 275.372C855.978 275.372 856.716 275.455 857.497 275.622C858.285 275.781 859.019 276.076 859.701 276.508C860.391 276.94 860.955 277.557 861.394 278.361C861.834 279.156 862.053 280.19 862.053 281.463V293.054H858.735V290.667H858.599C858.379 291.107 858.05 291.539 857.61 291.963C857.171 292.387 856.606 292.739 855.917 293.02C855.228 293.3 854.402 293.44 853.44 293.44ZM854.178 290.713C855.118 290.713 855.921 290.527 856.588 290.156C857.262 289.785 857.773 289.3 858.122 288.701C858.478 288.095 858.656 287.448 858.656 286.758V284.508C858.535 284.629 858.3 284.743 857.951 284.849C857.61 284.948 857.22 285.035 856.781 285.111C856.341 285.179 855.913 285.243 855.497 285.304C855.08 285.357 854.731 285.402 854.451 285.44C853.792 285.523 853.19 285.664 852.644 285.861C852.106 286.057 851.675 286.342 851.349 286.713C851.031 287.076 850.872 287.561 850.872 288.167C850.872 289.008 851.182 289.645 851.803 290.076C852.425 290.501 853.216 290.713 854.178 290.713ZM873.931 293.406C872.242 293.406 870.787 293.023 869.568 292.258C868.356 291.486 867.424 290.421 866.772 289.065C866.121 287.709 865.795 286.156 865.795 284.406C865.795 282.633 866.128 281.069 866.795 279.713C867.462 278.349 868.401 277.285 869.613 276.52C870.825 275.754 872.253 275.372 873.897 275.372C875.223 275.372 876.405 275.618 877.443 276.111C878.481 276.595 879.318 277.277 879.954 278.156C880.598 279.035 880.981 280.061 881.102 281.236H877.795C877.613 280.417 877.196 279.713 876.545 279.122C875.901 278.531 875.037 278.236 873.954 278.236C873.007 278.236 872.177 278.486 871.465 278.986C870.761 279.478 870.212 280.182 869.818 281.099C869.424 282.008 869.227 283.084 869.227 284.326C869.227 285.599 869.42 286.698 869.806 287.622C870.193 288.546 870.738 289.262 871.443 289.77C872.155 290.277 872.992 290.531 873.954 290.531C874.598 290.531 875.181 290.414 875.704 290.179C876.234 289.936 876.677 289.592 877.034 289.145C877.397 288.698 877.651 288.16 877.795 287.531H881.102C880.981 288.66 880.613 289.667 879.999 290.554C879.386 291.44 878.564 292.137 877.534 292.645C876.511 293.152 875.31 293.406 873.931 293.406ZM892.258 293.406C890.538 293.406 889.057 293.039 887.815 292.304C886.58 291.561 885.625 290.52 884.951 289.179C884.285 287.83 883.951 286.251 883.951 284.44C883.951 282.652 884.285 281.076 884.951 279.713C885.625 278.349 886.565 277.285 887.769 276.52C888.981 275.754 890.398 275.372 892.019 275.372C893.004 275.372 893.959 275.535 894.883 275.861C895.807 276.186 896.637 276.698 897.372 277.395C898.106 278.092 898.686 278.997 899.11 280.111C899.535 281.217 899.747 282.561 899.747 284.145V285.349H885.872V282.804H896.417C896.417 281.91 896.235 281.118 895.872 280.429C895.508 279.732 894.997 279.182 894.338 278.781C893.686 278.379 892.921 278.179 892.042 278.179C891.088 278.179 890.254 278.414 889.542 278.883C888.838 279.345 888.292 279.951 887.906 280.701C887.527 281.444 887.338 282.251 887.338 283.122V285.111C887.338 286.277 887.542 287.27 887.951 288.088C888.368 288.906 888.947 289.531 889.69 289.963C890.432 290.387 891.3 290.599 892.292 290.599C892.936 290.599 893.523 290.508 894.053 290.326C894.584 290.137 895.042 289.857 895.428 289.486C895.815 289.114 896.11 288.656 896.315 288.111L899.531 288.69C899.273 289.637 898.811 290.467 898.144 291.179C897.485 291.883 896.656 292.432 895.656 292.826C894.663 293.213 893.531 293.406 892.258 293.406ZM912.258 293.054V269.781H915.656V278.429H915.86C916.057 278.065 916.341 277.645 916.713 277.167C917.084 276.69 917.599 276.273 918.258 275.917C918.917 275.554 919.788 275.372 920.872 275.372C922.281 275.372 923.538 275.728 924.644 276.44C925.75 277.152 926.618 278.179 927.247 279.52C927.883 280.861 928.201 282.474 928.201 284.361C928.201 286.247 927.887 287.864 927.258 289.213C926.629 290.554 925.766 291.588 924.667 292.315C923.569 293.035 922.315 293.395 920.906 293.395C919.845 293.395 918.978 293.217 918.303 292.861C917.637 292.504 917.114 292.088 916.735 291.611C916.356 291.133 916.065 290.709 915.86 290.338H915.576V293.054H912.258ZM915.588 284.326C915.588 285.554 915.766 286.629 916.122 287.554C916.478 288.478 916.993 289.201 917.667 289.724C918.341 290.239 919.167 290.497 920.144 290.497C921.16 290.497 922.008 290.228 922.69 289.69C923.372 289.145 923.887 288.406 924.235 287.474C924.591 286.542 924.769 285.493 924.769 284.326C924.769 283.175 924.595 282.141 924.247 281.224C923.906 280.307 923.391 279.584 922.701 279.054C922.019 278.523 921.167 278.258 920.144 278.258C919.16 278.258 918.326 278.512 917.644 279.02C916.97 279.527 916.459 280.236 916.11 281.145C915.762 282.054 915.588 283.114 915.588 284.326ZM943.073 285.815V275.599H946.482V293.054H943.142V290.031H942.96C942.558 290.963 941.914 291.739 941.028 292.361C940.149 292.974 939.054 293.281 937.744 293.281C936.623 293.281 935.63 293.035 934.767 292.542C933.91 292.042 933.236 291.304 932.744 290.326C932.259 289.349 932.017 288.141 932.017 286.701V275.599H935.414V286.292C935.414 287.482 935.744 288.429 936.403 289.133C937.062 289.838 937.918 290.19 938.971 290.19C939.607 290.19 940.24 290.031 940.869 289.713C941.505 289.395 942.032 288.914 942.448 288.27C942.873 287.626 943.081 286.807 943.073 285.815ZM959.195 275.599V278.326H949.661V275.599H959.195ZM952.218 271.417H955.616V287.929C955.616 288.588 955.714 289.084 955.911 289.417C956.108 289.743 956.362 289.967 956.673 290.088C956.991 290.201 957.336 290.258 957.707 290.258C957.98 290.258 958.218 290.239 958.423 290.201C958.627 290.164 958.786 290.133 958.9 290.111L959.514 292.917C959.317 292.993 959.036 293.069 958.673 293.145C958.309 293.228 957.855 293.273 957.309 293.281C956.415 293.296 955.582 293.137 954.809 292.804C954.036 292.47 953.411 291.955 952.934 291.258C952.457 290.561 952.218 289.686 952.218 288.633V271.417ZM978.775 293.406C977.086 293.406 975.631 293.023 974.411 292.258C973.199 291.486 972.267 290.421 971.616 289.065C970.964 287.709 970.639 286.156 970.639 284.406C970.639 282.633 970.972 281.069 971.639 279.713C972.305 278.349 973.245 277.285 974.457 276.52C975.669 275.754 977.097 275.372 978.741 275.372C980.067 275.372 981.249 275.618 982.286 276.111C983.324 276.595 984.161 277.277 984.798 278.156C985.442 279.035 985.824 280.061 985.945 281.236H982.639C982.457 280.417 982.04 279.713 981.389 279.122C980.745 278.531 979.881 278.236 978.798 278.236C977.851 278.236 977.021 278.486 976.309 278.986C975.605 279.478 975.055 280.182 974.661 281.099C974.267 282.008 974.07 283.084 974.07 284.326C974.07 285.599 974.264 286.698 974.65 287.622C975.036 288.546 975.582 289.262 976.286 289.77C976.999 290.277 977.836 290.531 978.798 290.531C979.442 290.531 980.025 290.414 980.548 290.179C981.078 289.936 981.521 289.592 981.877 289.145C982.241 288.698 982.495 288.16 982.639 287.531H985.945C985.824 288.66 985.457 289.667 984.843 290.554C984.23 291.44 983.408 292.137 982.377 292.645C981.355 293.152 980.154 293.406 978.775 293.406ZM996.931 293.406C995.295 293.406 993.867 293.031 992.647 292.281C991.427 291.531 990.481 290.482 989.806 289.133C989.132 287.785 988.795 286.209 988.795 284.406C988.795 282.595 989.132 281.012 989.806 279.656C990.481 278.3 991.427 277.247 992.647 276.497C993.867 275.747 995.295 275.372 996.931 275.372C998.568 275.372 999.996 275.747 1001.22 276.497C1002.44 277.247 1003.38 278.3 1004.06 279.656C1004.73 281.012 1005.07 282.595 1005.07 284.406C1005.07 286.209 1004.73 287.785 1004.06 289.133C1003.38 290.482 1002.44 291.531 1001.22 292.281C999.996 293.031 998.568 293.406 996.931 293.406ZM996.943 290.554C998.003 290.554 998.882 290.273 999.579 289.713C1000.28 289.152 1000.79 288.406 1001.12 287.474C1001.47 286.542 1001.64 285.516 1001.64 284.395C1001.64 283.281 1001.47 282.258 1001.12 281.326C1000.79 280.387 1000.28 279.633 999.579 279.065C998.882 278.497 998.003 278.213 996.943 278.213C995.874 278.213 994.988 278.497 994.284 279.065C993.587 279.633 993.068 280.387 992.727 281.326C992.393 282.258 992.227 283.281 992.227 284.395C992.227 285.516 992.393 286.542 992.727 287.474C993.068 288.406 993.587 289.152 994.284 289.713C994.988 290.273 995.874 290.554 996.943 290.554ZM1008.86 293.054V275.599H1012.12V278.44H1012.34C1012.7 277.478 1013.3 276.728 1014.12 276.19C1014.95 275.645 1015.94 275.372 1017.09 275.372C1018.25 275.372 1019.23 275.645 1020.02 276.19C1020.81 276.736 1021.4 277.486 1021.78 278.44H1021.96C1022.38 277.508 1023.04 276.766 1023.95 276.213C1024.86 275.652 1025.94 275.372 1027.2 275.372C1028.78 275.372 1030.08 275.868 1031.08 276.861C1032.08 277.853 1032.59 279.349 1032.59 281.349V293.054H1029.19V281.667C1029.19 280.486 1028.87 279.629 1028.22 279.099C1027.58 278.569 1026.81 278.304 1025.92 278.304C1024.81 278.304 1023.95 278.645 1023.34 279.326C1022.72 280.001 1022.42 280.868 1022.42 281.929V293.054H1019.03V281.451C1019.03 280.504 1018.74 279.743 1018.14 279.167C1017.55 278.592 1016.78 278.304 1015.84 278.304C1015.19 278.304 1014.6 278.474 1014.05 278.815C1013.52 279.148 1013.08 279.614 1012.75 280.213C1012.42 280.811 1012.26 281.504 1012.26 282.292V293.054H1008.86ZM1037.41 293.054V269.781H1040.81V278.429H1041.02C1041.21 278.065 1041.5 277.645 1041.87 277.167C1042.24 276.69 1042.76 276.273 1043.41 275.917C1044.07 275.554 1044.94 275.372 1046.03 275.372C1047.44 275.372 1048.69 275.728 1049.8 276.44C1050.91 277.152 1051.77 278.179 1052.4 279.52C1053.04 280.861 1053.36 282.474 1053.36 284.361C1053.36 286.247 1053.04 287.864 1052.41 289.213C1051.79 290.554 1050.92 291.588 1049.82 292.315C1048.72 293.035 1047.47 293.395 1046.06 293.395C1045 293.395 1044.13 293.217 1043.46 292.861C1042.79 292.504 1042.27 292.088 1041.89 291.611C1041.51 291.133 1041.22 290.709 1041.02 290.338H1040.73V293.054H1037.41ZM1040.74 284.326C1040.74 285.554 1040.92 286.629 1041.28 287.554C1041.63 288.478 1042.15 289.201 1042.82 289.724C1043.5 290.239 1044.32 290.497 1045.3 290.497C1046.32 290.497 1047.16 290.228 1047.85 289.69C1048.53 289.145 1049.04 288.406 1049.39 287.474C1049.75 286.542 1049.93 285.493 1049.93 284.326C1049.93 283.175 1049.75 282.141 1049.4 281.224C1049.06 280.307 1048.55 279.584 1047.86 279.054C1047.18 278.523 1046.32 278.258 1045.3 278.258C1044.32 278.258 1043.48 278.512 1042.8 279.02C1042.13 279.527 1041.61 280.236 1041.27 281.145C1040.92 282.054 1040.74 283.114 1040.74 284.326ZM1057.17 293.054V275.599H1060.57V293.054H1057.17ZM1058.89 272.906C1058.3 272.906 1057.79 272.709 1057.37 272.315C1056.95 271.914 1056.74 271.436 1056.74 270.883C1056.74 270.323 1056.95 269.845 1057.37 269.451C1057.79 269.05 1058.3 268.849 1058.89 268.849C1059.48 268.849 1059.98 269.05 1060.4 269.451C1060.82 269.845 1061.04 270.323 1061.04 270.883C1061.04 271.436 1060.82 271.914 1060.4 272.315C1059.98 272.709 1059.48 272.906 1058.89 272.906ZM1068.54 282.69V293.054H1065.14V275.599H1068.4V278.44H1068.62C1069.02 277.516 1069.65 276.773 1070.51 276.213C1071.37 275.652 1072.46 275.372 1073.77 275.372C1074.96 275.372 1076 275.622 1076.89 276.122C1077.79 276.614 1078.48 277.349 1078.97 278.326C1079.46 279.304 1079.71 280.512 1079.71 281.951V293.054H1076.31V282.361C1076.31 281.095 1075.98 280.107 1075.32 279.395C1074.66 278.675 1073.76 278.315 1072.61 278.315C1071.82 278.315 1071.12 278.486 1070.51 278.826C1069.9 279.167 1069.42 279.667 1069.06 280.326C1068.71 280.978 1068.54 281.766 1068.54 282.69ZM1089.35 293.44C1088.24 293.44 1087.24 293.236 1086.35 292.826C1085.45 292.41 1084.74 291.807 1084.22 291.02C1083.71 290.232 1083.45 289.266 1083.45 288.122C1083.45 287.137 1083.64 286.326 1084.02 285.69C1084.4 285.054 1084.91 284.55 1085.55 284.179C1086.19 283.807 1086.91 283.527 1087.71 283.338C1088.51 283.148 1089.32 283.004 1090.14 282.906C1091.19 282.785 1092.04 282.686 1092.69 282.611C1093.34 282.527 1093.81 282.395 1094.11 282.213C1094.4 282.031 1094.55 281.736 1094.55 281.326V281.247C1094.55 280.254 1094.27 279.486 1093.71 278.94C1093.16 278.395 1092.33 278.122 1091.23 278.122C1090.09 278.122 1089.19 278.376 1088.53 278.883C1087.88 279.383 1087.43 279.94 1087.18 280.554L1083.98 279.826C1084.36 278.766 1084.91 277.91 1085.64 277.258C1086.38 276.599 1087.22 276.122 1088.18 275.826C1089.13 275.523 1090.13 275.372 1091.19 275.372C1091.88 275.372 1092.62 275.455 1093.4 275.622C1094.19 275.781 1094.93 276.076 1095.61 276.508C1096.3 276.94 1096.86 277.557 1097.3 278.361C1097.74 279.156 1097.96 280.19 1097.96 281.463V293.054H1094.64V290.667H1094.51C1094.29 291.107 1093.96 291.539 1093.52 291.963C1093.08 292.387 1092.51 292.739 1091.82 293.02C1091.13 293.3 1090.31 293.44 1089.35 293.44ZM1090.08 290.713C1091.02 290.713 1091.83 290.527 1092.49 290.156C1093.17 289.785 1093.68 289.3 1094.03 288.701C1094.38 288.095 1094.56 287.448 1094.56 286.758V284.508C1094.44 284.629 1094.21 284.743 1093.86 284.849C1093.52 284.948 1093.13 285.035 1092.69 285.111C1092.25 285.179 1091.82 285.243 1091.4 285.304C1090.99 285.357 1090.64 285.402 1090.36 285.44C1089.7 285.523 1089.1 285.664 1088.55 285.861C1088.01 286.057 1087.58 286.342 1087.26 286.713C1086.94 287.076 1086.78 287.561 1086.78 288.167C1086.78 289.008 1087.09 289.645 1087.71 290.076C1088.33 290.501 1089.12 290.713 1090.08 290.713ZM1110.63 275.599V278.326H1101.1V275.599H1110.63ZM1103.66 271.417H1107.05V287.929C1107.05 288.588 1107.15 289.084 1107.35 289.417C1107.55 289.743 1107.8 289.967 1108.11 290.088C1108.43 290.201 1108.77 290.258 1109.14 290.258C1109.42 290.258 1109.66 290.239 1109.86 290.201C1110.06 290.164 1110.22 290.133 1110.34 290.111L1110.95 292.917C1110.75 292.993 1110.47 293.069 1110.11 293.145C1109.75 293.228 1109.29 293.273 1108.75 293.281C1107.85 293.296 1107.02 293.137 1106.25 292.804C1105.47 292.47 1104.85 291.955 1104.37 291.258C1103.89 290.561 1103.66 289.686 1103.66 288.633V271.417ZM1121.56 293.406C1119.92 293.406 1118.49 293.031 1117.27 292.281C1116.05 291.531 1115.11 290.482 1114.43 289.133C1113.76 287.785 1113.42 286.209 1113.42 284.406C1113.42 282.595 1113.76 281.012 1114.43 279.656C1115.11 278.3 1116.05 277.247 1117.27 276.497C1118.49 275.747 1119.92 275.372 1121.56 275.372C1123.19 275.372 1124.62 275.747 1125.84 276.497C1127.06 277.247 1128.01 278.3 1128.68 279.656C1129.36 281.012 1129.69 282.595 1129.69 284.406C1129.69 286.209 1129.36 287.785 1128.68 289.133C1128.01 290.482 1127.06 291.531 1125.84 292.281C1124.62 293.031 1123.19 293.406 1121.56 293.406ZM1121.57 290.554C1122.63 290.554 1123.51 290.273 1124.2 289.713C1124.9 289.152 1125.42 288.406 1125.75 287.474C1126.09 286.542 1126.26 285.516 1126.26 284.395C1126.26 283.281 1126.09 282.258 1125.75 281.326C1125.42 280.387 1124.9 279.633 1124.2 279.065C1123.51 278.497 1122.63 278.213 1121.57 278.213C1120.5 278.213 1119.61 278.497 1118.91 279.065C1118.21 279.633 1117.69 280.387 1117.35 281.326C1117.02 282.258 1116.85 283.281 1116.85 284.395C1116.85 285.516 1117.02 286.542 1117.35 287.474C1117.69 288.406 1118.21 289.152 1118.91 289.713C1119.61 290.273 1120.5 290.554 1121.57 290.554ZM1133.49 293.054V275.599H1136.77V278.372H1136.95C1137.27 277.432 1137.83 276.694 1138.63 276.156C1139.44 275.611 1140.36 275.338 1141.38 275.338C1141.6 275.338 1141.85 275.345 1142.13 275.361C1142.43 275.376 1142.66 275.395 1142.83 275.417V278.667C1142.69 278.629 1142.45 278.588 1142.1 278.542C1141.75 278.489 1141.4 278.463 1141.05 278.463C1140.25 278.463 1139.53 278.633 1138.91 278.974C1138.28 279.307 1137.79 279.773 1137.43 280.372C1137.06 280.963 1136.88 281.637 1136.88 282.395V293.054H1133.49ZM1145.77 293.054V275.599H1149.16V293.054H1145.77ZM1147.48 272.906C1146.89 272.906 1146.38 272.709 1145.96 272.315C1145.54 271.914 1145.33 271.436 1145.33 270.883C1145.33 270.323 1145.54 269.845 1145.96 269.451C1146.38 269.05 1146.89 268.849 1147.48 268.849C1148.07 268.849 1148.58 269.05 1148.99 269.451C1149.42 269.845 1149.63 270.323 1149.63 270.883C1149.63 271.436 1149.42 271.914 1148.99 272.315C1148.58 272.709 1148.07 272.906 1147.48 272.906ZM1158.81 293.44C1157.71 293.44 1156.71 293.236 1155.81 292.826C1154.92 292.41 1154.21 291.807 1153.69 291.02C1153.17 290.232 1152.92 289.266 1152.92 288.122C1152.92 287.137 1153.11 286.326 1153.49 285.69C1153.86 285.054 1154.38 284.55 1155.02 284.179C1155.66 283.807 1156.38 283.527 1157.18 283.338C1157.97 283.148 1158.78 283.004 1159.61 282.906C1160.66 282.785 1161.5 282.686 1162.16 282.611C1162.81 282.527 1163.28 282.395 1163.58 282.213C1163.87 282.031 1164.02 281.736 1164.02 281.326V281.247C1164.02 280.254 1163.74 279.486 1163.18 278.94C1162.63 278.395 1161.8 278.122 1160.7 278.122C1159.56 278.122 1158.66 278.376 1158 278.883C1157.35 279.383 1156.89 279.94 1156.64 280.554L1153.45 279.826C1153.83 278.766 1154.38 277.91 1155.11 277.258C1155.85 276.599 1156.69 276.122 1157.64 275.826C1158.6 275.523 1159.6 275.372 1160.66 275.372C1161.35 275.372 1162.09 275.455 1162.87 275.622C1163.66 275.781 1164.39 276.076 1165.08 276.508C1165.77 276.94 1166.33 277.557 1166.77 278.361C1167.21 279.156 1167.43 280.19 1167.43 281.463V293.054H1164.11V290.667H1163.97C1163.75 291.107 1163.42 291.539 1162.99 291.963C1162.55 292.387 1161.98 292.739 1161.29 293.02C1160.6 293.3 1159.78 293.44 1158.81 293.44ZM1159.55 290.713C1160.49 290.713 1161.3 290.527 1161.96 290.156C1162.64 289.785 1163.15 289.3 1163.5 288.701C1163.85 288.095 1164.03 287.448 1164.03 286.758V284.508C1163.91 284.629 1163.67 284.743 1163.33 284.849C1162.99 284.948 1162.6 285.035 1162.16 285.111C1161.72 285.179 1161.29 285.243 1160.87 285.304C1160.45 285.357 1160.11 285.402 1159.83 285.44C1159.17 285.523 1158.56 285.664 1158.02 285.861C1157.48 286.057 1157.05 286.342 1156.72 286.713C1156.41 287.076 1156.25 287.561 1156.25 288.167C1156.25 289.008 1156.56 289.645 1157.18 290.076C1157.8 290.501 1158.59 290.713 1159.55 290.713ZM1175.35 269.781V293.054H1171.95V269.781H1175.35ZM1195.91 293.406C1194.19 293.406 1192.71 293.039 1191.47 292.304C1190.24 291.561 1189.28 290.52 1188.61 289.179C1187.94 287.83 1187.61 286.251 1187.61 284.44C1187.61 282.652 1187.94 281.076 1188.61 279.713C1189.28 278.349 1190.22 277.285 1191.43 276.52C1192.64 275.754 1194.05 275.372 1195.68 275.372C1196.66 275.372 1197.61 275.535 1198.54 275.861C1199.46 276.186 1200.29 276.698 1201.03 277.395C1201.76 278.092 1202.34 278.997 1202.77 280.111C1203.19 281.217 1203.4 282.561 1203.4 284.145V285.349H1189.53V282.804H1200.07C1200.07 281.91 1199.89 281.118 1199.53 280.429C1199.16 279.732 1198.65 279.182 1197.99 278.781C1197.34 278.379 1196.58 278.179 1195.7 278.179C1194.74 278.179 1193.91 278.414 1193.2 278.883C1192.49 279.345 1191.95 279.951 1191.56 280.701C1191.18 281.444 1190.99 282.251 1190.99 283.122V285.111C1190.99 286.277 1191.2 287.27 1191.61 288.088C1192.02 288.906 1192.6 289.531 1193.35 289.963C1194.09 290.387 1194.96 290.599 1195.95 290.599C1196.59 290.599 1197.18 290.508 1197.71 290.326C1198.24 290.137 1198.7 289.857 1199.08 289.486C1199.47 289.114 1199.77 288.656 1199.97 288.111L1203.19 288.69C1202.93 289.637 1202.47 290.467 1201.8 291.179C1201.14 291.883 1200.31 292.432 1199.31 292.826C1198.32 293.213 1197.19 293.406 1195.91 293.406ZM1209.45 275.599L1213.3 282.395L1217.19 275.599H1220.9L1215.46 284.326L1220.95 293.054H1217.23L1213.3 286.531L1209.38 293.054H1205.65L1211.08 284.326L1205.72 275.599H1209.45ZM1224.39 299.599V275.599H1227.71V278.429H1227.99C1228.19 278.065 1228.47 277.645 1228.85 277.167C1229.22 276.69 1229.73 276.273 1230.39 275.917C1231.05 275.554 1231.92 275.372 1233.01 275.372C1234.41 275.372 1235.67 275.728 1236.78 276.44C1237.88 277.152 1238.75 278.179 1239.38 279.52C1240.02 280.861 1240.33 282.474 1240.33 284.361C1240.33 286.247 1240.02 287.864 1239.39 289.213C1238.76 290.554 1237.9 291.588 1236.8 292.315C1235.7 293.035 1234.45 293.395 1233.04 293.395C1231.98 293.395 1231.11 293.217 1230.44 292.861C1229.77 292.504 1229.25 292.088 1228.87 291.611C1228.49 291.133 1228.2 290.709 1227.99 290.338H1227.79V299.599H1224.39ZM1227.72 284.326C1227.72 285.554 1227.9 286.629 1228.26 287.554C1228.61 288.478 1229.13 289.201 1229.8 289.724C1230.47 290.239 1231.3 290.497 1232.28 290.497C1233.29 290.497 1234.14 290.228 1234.82 289.69C1235.51 289.145 1236.02 288.406 1236.37 287.474C1236.72 286.542 1236.9 285.493 1236.9 284.326C1236.9 283.175 1236.73 282.141 1236.38 281.224C1236.04 280.307 1235.52 279.584 1234.83 279.054C1234.15 278.523 1233.3 278.258 1232.28 278.258C1231.29 278.258 1230.46 278.512 1229.78 279.02C1229.1 279.527 1228.59 280.236 1228.24 281.145C1227.9 282.054 1227.72 283.114 1227.72 284.326ZM1247.54 269.781V293.054H1244.14V269.781H1247.54ZM1259.46 293.406C1257.83 293.406 1256.4 293.031 1255.18 292.281C1253.96 291.531 1253.01 290.482 1252.34 289.133C1251.66 287.785 1251.33 286.209 1251.33 284.406C1251.33 282.595 1251.66 281.012 1252.34 279.656C1253.01 278.3 1253.96 277.247 1255.18 276.497C1256.4 275.747 1257.83 275.372 1259.46 275.372C1261.1 275.372 1262.53 275.747 1263.75 276.497C1264.97 277.247 1265.91 278.3 1266.59 279.656C1267.26 281.012 1267.6 282.595 1267.6 284.406C1267.6 286.209 1267.26 287.785 1266.59 289.133C1265.91 290.482 1264.97 291.531 1263.75 292.281C1262.53 293.031 1261.1 293.406 1259.46 293.406ZM1259.47 290.554C1260.53 290.554 1261.41 290.273 1262.11 289.713C1262.81 289.152 1263.32 288.406 1263.66 287.474C1264 286.542 1264.17 285.516 1264.17 284.395C1264.17 283.281 1264 282.258 1263.66 281.326C1263.32 280.387 1262.81 279.633 1262.11 279.065C1261.41 278.497 1260.53 278.213 1259.47 278.213C1258.41 278.213 1257.52 278.497 1256.81 279.065C1256.12 279.633 1255.6 280.387 1255.26 281.326C1254.92 282.258 1254.76 283.281 1254.76 284.395C1254.76 285.516 1254.92 286.542 1255.26 287.474C1255.6 288.406 1256.12 289.152 1256.81 289.713C1257.52 290.273 1258.41 290.554 1259.47 290.554ZM1284.47 279.861L1281.39 280.406C1281.26 280.012 1281.06 279.637 1280.78 279.281C1280.51 278.925 1280.13 278.633 1279.66 278.406C1279.19 278.179 1278.61 278.065 1277.9 278.065C1276.94 278.065 1276.14 278.281 1275.49 278.713C1274.85 279.137 1274.53 279.686 1274.53 280.361C1274.53 280.944 1274.74 281.414 1275.18 281.77C1275.61 282.126 1276.3 282.417 1277.27 282.645L1280.04 283.281C1281.65 283.652 1282.84 284.224 1283.63 284.997C1284.42 285.77 1284.81 286.773 1284.81 288.008C1284.81 289.054 1284.51 289.986 1283.9 290.804C1283.3 291.614 1282.47 292.251 1281.39 292.713C1280.32 293.175 1279.08 293.406 1277.68 293.406C1275.72 293.406 1274.13 292.989 1272.89 292.156C1271.66 291.315 1270.9 290.122 1270.62 288.576L1273.9 288.076C1274.11 288.932 1274.53 289.58 1275.16 290.02C1275.8 290.451 1276.63 290.667 1277.65 290.667C1278.77 290.667 1279.66 290.436 1280.32 289.974C1280.99 289.504 1281.32 288.932 1281.32 288.258C1281.32 287.713 1281.12 287.254 1280.71 286.883C1280.31 286.512 1279.69 286.232 1278.86 286.042L1275.9 285.395C1274.27 285.023 1273.07 284.432 1272.29 283.622C1271.52 282.811 1271.13 281.785 1271.13 280.542C1271.13 279.512 1271.42 278.611 1271.99 277.838C1272.57 277.065 1273.36 276.463 1274.38 276.031C1275.4 275.592 1276.56 275.372 1277.87 275.372C1279.76 275.372 1281.24 275.781 1282.32 276.599C1283.41 277.41 1284.12 278.497 1284.47 279.861ZM1288.55 293.054V275.599H1291.95V293.054H1288.55ZM1290.26 272.906C1289.67 272.906 1289.17 272.709 1288.74 272.315C1288.32 271.914 1288.12 271.436 1288.12 270.883C1288.12 270.323 1288.32 269.845 1288.74 269.451C1289.17 269.05 1289.67 268.849 1290.26 268.849C1290.85 268.849 1291.36 269.05 1291.78 269.451C1292.2 269.845 1292.41 270.323 1292.41 270.883C1292.41 271.436 1292.2 271.914 1291.78 272.315C1291.36 272.709 1290.85 272.906 1290.26 272.906ZM1303.87 293.406C1302.23 293.406 1300.8 293.031 1299.58 292.281C1298.36 291.531 1297.42 290.482 1296.74 289.133C1296.07 287.785 1295.73 286.209 1295.73 284.406C1295.73 282.595 1296.07 281.012 1296.74 279.656C1297.42 278.3 1298.36 277.247 1299.58 276.497C1300.8 275.747 1302.23 275.372 1303.87 275.372C1305.51 275.372 1306.93 275.747 1308.15 276.497C1309.37 277.247 1310.32 278.3 1310.99 279.656C1311.67 281.012 1312.01 282.595 1312.01 284.406C1312.01 286.209 1311.67 287.785 1310.99 289.133C1310.32 290.482 1309.37 291.531 1308.15 292.281C1306.93 293.031 1305.51 293.406 1303.87 293.406ZM1303.88 290.554C1304.94 290.554 1305.82 290.273 1306.52 289.713C1307.21 289.152 1307.73 288.406 1308.06 287.474C1308.4 286.542 1308.57 285.516 1308.57 284.395C1308.57 283.281 1308.4 282.258 1308.06 281.326C1307.73 280.387 1307.21 279.633 1306.52 279.065C1305.82 278.497 1304.94 278.213 1303.88 278.213C1302.81 278.213 1301.93 278.497 1301.22 279.065C1300.52 279.633 1300.01 280.387 1299.66 281.326C1299.33 282.258 1299.16 283.281 1299.16 284.395C1299.16 285.516 1299.33 286.542 1299.66 287.474C1300.01 288.406 1300.52 289.152 1301.22 289.713C1301.93 290.273 1302.81 290.554 1303.88 290.554ZM1319.2 282.69V293.054H1315.8V275.599H1319.06V278.44H1319.28C1319.68 277.516 1320.31 276.773 1321.16 276.213C1322.03 275.652 1323.11 275.372 1324.42 275.372C1325.61 275.372 1326.65 275.622 1327.55 276.122C1328.44 276.614 1329.13 277.349 1329.63 278.326C1330.12 279.304 1330.37 280.512 1330.37 281.951V293.054H1326.97V282.361C1326.97 281.095 1326.64 280.107 1325.98 279.395C1325.32 278.675 1324.42 278.315 1323.26 278.315C1322.48 278.315 1321.78 278.486 1321.16 278.826C1320.56 279.167 1320.07 279.667 1319.72 280.326C1319.37 280.978 1319.2 281.766 1319.2 282.69Z" fill="black"/>
</g>
</svg>
