<svg width="1920" height="1080" viewBox="0 0 1920 1080" fill="none" xmlns="http://www.w3.org/2000/svg">
<g id="Excellent POR algorithm">
<rect width="1920" height="1080" fill="white"/>
<path id="Excellent POR algorithm_2" d="M545.975 116.055V69.5092H577.339V77.6229H555.816V88.7138H575.725V96.8274H555.816V107.941H577.43V116.055H545.975ZM593.072 81.1456L599.481 93.3501L606.049 81.1456H615.981L605.867 98.6001L616.254 116.055H606.367L599.481 103.987L592.708 116.055H582.708L593.072 98.6001L583.072 81.1456H593.072ZM636.254 116.737C632.678 116.737 629.602 115.979 627.026 114.464C624.466 112.933 622.496 110.812 621.117 108.1C619.754 105.388 619.072 102.267 619.072 98.7365C619.072 95.1607 619.761 92.0244 621.14 89.3274C622.534 86.6153 624.511 84.5017 627.072 82.9865C629.632 81.4562 632.678 80.6911 636.208 80.6911C639.254 80.6911 641.92 81.2441 644.208 82.3501C646.496 83.4562 648.307 85.0092 649.64 87.0092C650.973 89.0092 651.708 91.3577 651.844 94.0547H642.708C642.451 92.3123 641.769 90.9107 640.663 89.8501C639.572 88.7744 638.14 88.2365 636.367 88.2365C634.867 88.2365 633.557 88.6456 632.435 89.4638C631.329 90.2668 630.466 91.4411 629.844 92.9865C629.223 94.532 628.913 96.4032 628.913 98.6001C628.913 100.827 629.216 102.721 629.822 104.282C630.443 105.843 631.314 107.032 632.435 107.85C633.557 108.668 634.867 109.077 636.367 109.077C637.473 109.077 638.466 108.85 639.344 108.396C640.238 107.941 640.973 107.282 641.549 106.418C642.14 105.54 642.526 104.487 642.708 103.259H651.844C651.693 105.926 650.966 108.274 649.663 110.305C648.375 112.32 646.594 113.896 644.322 115.032C642.049 116.168 639.36 116.737 636.254 116.737ZM673.952 116.737C670.362 116.737 667.271 116.009 664.68 114.555C662.104 113.085 660.119 111.009 658.725 108.327C657.331 105.63 656.634 102.441 656.634 98.7592C656.634 95.1683 657.331 92.0168 658.725 89.3047C660.119 86.5926 662.081 84.4789 664.612 82.9638C667.157 81.4486 670.142 80.6911 673.566 80.6911C675.869 80.6911 678.013 81.0623 679.998 81.8047C681.998 82.532 683.74 83.6304 685.225 85.1001C686.725 86.5698 687.892 88.4183 688.725 90.6456C689.558 92.8577 689.975 95.4486 689.975 98.4183V101.077H660.498V95.0774H680.862C680.862 93.6835 680.558 92.4486 679.952 91.3729C679.346 90.2971 678.505 89.4562 677.43 88.8501C676.369 88.2289 675.134 87.9183 673.725 87.9183C672.255 87.9183 670.952 88.2592 669.816 88.941C668.695 89.6077 667.816 90.5092 667.18 91.6456C666.543 92.7668 666.218 94.0168 666.202 95.3956V101.1C666.202 102.827 666.521 104.32 667.157 105.577C667.808 106.835 668.725 107.805 669.907 108.487C671.089 109.168 672.49 109.509 674.112 109.509C675.187 109.509 676.172 109.358 677.066 109.055C677.96 108.752 678.725 108.297 679.362 107.691C679.998 107.085 680.483 106.343 680.816 105.464L689.771 106.055C689.316 108.206 688.384 110.085 686.975 111.691C685.581 113.282 683.778 114.524 681.566 115.418C679.369 116.297 676.831 116.737 673.952 116.737ZM705.975 69.5092V116.055H696.293V69.5092H705.975ZM723.413 69.5092V116.055H713.731V69.5092H723.413ZM747.077 116.737C743.487 116.737 740.396 116.009 737.805 114.555C735.229 113.085 733.244 111.009 731.85 108.327C730.456 105.63 729.759 102.441 729.759 98.7592C729.759 95.1683 730.456 92.0168 731.85 89.3047C733.244 86.5926 735.206 84.4789 737.737 82.9638C740.282 81.4486 743.267 80.6911 746.691 80.6911C748.994 80.6911 751.138 81.0623 753.123 81.8047C755.123 82.532 756.865 83.6304 758.35 85.1001C759.85 86.5698 761.017 88.4183 761.85 90.6456C762.683 92.8577 763.1 95.4486 763.1 98.4183V101.077H733.623V95.0774H753.987C753.987 93.6835 753.683 92.4486 753.077 91.3729C752.471 90.2971 751.63 89.4562 750.555 88.8501C749.494 88.2289 748.259 87.9183 746.85 87.9183C745.38 87.9183 744.077 88.2592 742.941 88.941C741.82 89.6077 740.941 90.5092 740.305 91.6456C739.668 92.7668 739.343 94.0168 739.327 95.3956V101.1C739.327 102.827 739.646 104.32 740.282 105.577C740.933 106.835 741.85 107.805 743.032 108.487C744.214 109.168 745.615 109.509 747.237 109.509C748.312 109.509 749.297 109.358 750.191 109.055C751.085 108.752 751.85 108.297 752.487 107.691C753.123 107.085 753.608 106.343 753.941 105.464L762.896 106.055C762.441 108.206 761.509 110.085 760.1 111.691C758.706 113.282 756.903 114.524 754.691 115.418C752.494 116.297 749.956 116.737 747.077 116.737ZM779.1 95.8729V116.055H769.418V81.1456H778.646V87.3047H779.055C779.827 85.2744 781.123 83.6683 782.941 82.4865C784.759 81.2895 786.964 80.6911 789.555 80.6911C791.979 80.6911 794.093 81.2214 795.896 82.282C797.699 83.3426 799.1 84.8577 800.1 86.8274C801.1 88.782 801.6 91.1153 801.6 93.8274V116.055H791.918V95.5547C791.933 93.4183 791.388 91.7517 790.282 90.5547C789.176 89.3426 787.653 88.7365 785.714 88.7365C784.411 88.7365 783.259 89.0168 782.259 89.5774C781.274 90.138 780.502 90.9562 779.941 92.032C779.396 93.0926 779.115 94.3729 779.1 95.8729ZM827.799 81.1456V88.4183H806.776V81.1456H827.799ZM811.549 72.782H821.231V105.327C821.231 106.221 821.367 106.918 821.64 107.418C821.913 107.903 822.291 108.244 822.776 108.441C823.276 108.638 823.852 108.737 824.504 108.737C824.958 108.737 825.413 108.699 825.867 108.623C826.322 108.532 826.67 108.464 826.913 108.418L828.435 115.623C827.951 115.774 827.269 115.949 826.39 116.146C825.511 116.358 824.443 116.487 823.185 116.532C820.852 116.623 818.807 116.312 817.049 115.6C815.307 114.888 813.951 113.782 812.981 112.282C812.011 110.782 811.534 108.888 811.549 106.6V72.782ZM849.1 116.055V69.5092H867.464C870.994 69.5092 874.002 70.1835 876.487 71.532C878.971 72.8653 880.865 74.7214 882.168 77.1001C883.487 79.4638 884.146 82.1911 884.146 85.282C884.146 88.3729 883.479 91.1001 882.146 93.4638C880.812 95.8274 878.88 97.6683 876.35 98.9865C873.835 100.305 870.79 100.964 867.214 100.964H855.509V93.0774H865.623C867.517 93.0774 869.077 92.7517 870.305 92.1001C871.547 91.4335 872.471 90.5168 873.077 89.3501C873.699 88.1683 874.009 86.8123 874.009 85.282C874.009 83.7365 873.699 82.388 873.077 81.2365C872.471 80.0698 871.547 79.1683 870.305 78.532C869.062 77.8804 867.487 77.5547 865.577 77.5547H858.941V116.055H849.1ZM933.31 92.782C933.31 97.8577 932.348 102.176 930.424 105.737C928.515 109.297 925.909 112.017 922.606 113.896C919.318 115.759 915.621 116.691 911.515 116.691C907.379 116.691 903.666 115.752 900.379 113.873C897.091 111.994 894.492 109.274 892.583 105.714C890.674 102.153 889.719 97.8426 889.719 92.782C889.719 87.7062 890.674 83.388 892.583 79.8274C894.492 76.2668 897.091 73.5547 900.379 71.6911C903.666 69.8123 907.379 68.8729 911.515 68.8729C915.621 68.8729 919.318 69.8123 922.606 71.6911C925.909 73.5547 928.515 76.2668 930.424 79.8274C932.348 83.388 933.31 87.7062 933.31 92.782ZM923.333 92.782C923.333 89.4941 922.841 86.7214 921.856 84.4638C920.886 82.2062 919.515 80.4941 917.742 79.3274C915.969 78.1607 913.894 77.5774 911.515 77.5774C909.136 77.5774 907.06 78.1607 905.288 79.3274C903.515 80.4941 902.136 82.2062 901.151 84.4638C900.182 86.7214 899.697 89.4941 899.697 92.782C899.697 96.0698 900.182 98.8426 901.151 101.1C902.136 103.358 903.515 105.07 905.288 106.237C907.06 107.403 909.136 107.987 911.515 107.987C913.894 107.987 915.969 107.403 917.742 106.237C919.515 105.07 920.886 103.358 921.856 101.1C922.841 98.8426 923.333 96.0698 923.333 92.782ZM940.6 116.055V69.5092H958.964C962.479 69.5092 965.479 70.138 967.964 71.3956C970.464 72.638 972.365 74.4032 973.668 76.6911C974.987 78.9638 975.646 81.638 975.646 84.7138C975.646 87.8047 974.979 90.4638 973.646 92.691C972.312 94.9032 970.38 96.6001 967.85 97.782C965.335 98.9638 962.29 99.5547 958.714 99.5547H946.418V91.6456H957.123C959.002 91.6456 960.562 91.388 961.805 90.8729C963.047 90.3577 963.971 89.585 964.577 88.5547C965.199 87.5244 965.509 86.2441 965.509 84.7138C965.509 83.1683 965.199 81.8653 964.577 80.8047C963.971 79.7441 963.04 78.941 961.782 78.3956C960.54 77.835 958.971 77.5547 957.077 77.5547H950.441V116.055H940.6ZM965.737 94.8729L977.305 116.055H966.441L955.123 94.8729H965.737ZM1007.19 116.714C1004.96 116.714 1002.97 116.327 1001.23 115.555C999.488 114.767 998.11 113.608 997.094 112.077C996.094 110.532 995.594 108.608 995.594 106.305C995.594 104.365 995.951 102.737 996.663 101.418C997.375 100.1 998.344 99.0395 999.572 98.2365C1000.8 97.4335 1002.19 96.8274 1003.75 96.4183C1005.33 96.0092 1006.98 95.7214 1008.71 95.5547C1010.74 95.3426 1012.37 95.1456 1013.62 94.9638C1014.86 94.7668 1015.76 94.4789 1016.32 94.1001C1016.88 93.7214 1017.16 93.1607 1017.16 92.4183V92.282C1017.16 90.8426 1016.71 89.7289 1015.8 88.941C1014.91 88.1532 1013.63 87.7592 1011.98 87.7592C1010.24 87.7592 1008.85 88.1456 1007.82 88.9183C1006.79 89.6759 1006.11 90.6304 1005.78 91.782L996.822 91.0547C997.276 88.9335 998.17 87.1001 999.504 85.5547C1000.84 83.9941 1002.56 82.7971 1004.66 81.9638C1006.78 81.1153 1009.24 80.6911 1012.03 80.6911C1013.97 80.6911 1015.82 80.9183 1017.59 81.3729C1019.38 81.8274 1020.97 82.532 1022.34 83.4865C1023.74 84.4411 1024.84 85.6683 1025.64 87.1683C1026.44 88.6532 1026.84 90.4335 1026.84 92.5092V116.055H1017.66V111.214H1017.39C1016.83 112.305 1016.08 113.267 1015.14 114.1C1014.2 114.918 1013.07 115.562 1011.75 116.032C1010.44 116.487 1008.91 116.714 1007.19 116.714ZM1009.96 110.032C1011.38 110.032 1012.64 109.752 1013.73 109.191C1014.82 108.615 1015.68 107.843 1016.3 106.873C1016.92 105.903 1017.23 104.805 1017.23 103.577V99.8729C1016.93 100.07 1016.51 100.252 1015.98 100.418C1015.47 100.57 1014.88 100.714 1014.23 100.85C1013.58 100.971 1012.93 101.085 1012.28 101.191C1011.62 101.282 1011.03 101.365 1010.5 101.441C1009.37 101.608 1008.37 101.873 1007.53 102.237C1006.68 102.6 1006.02 103.093 1005.55 103.714C1005.08 104.32 1004.84 105.077 1004.84 105.987C1004.84 107.305 1005.32 108.312 1006.28 109.009C1007.25 109.691 1008.47 110.032 1009.96 110.032ZM1044.04 69.5092V116.055H1034.36V69.5092H1044.04ZM1067.52 129.873C1064.38 129.873 1061.69 129.441 1059.45 128.577C1057.23 127.729 1055.45 126.57 1054.13 125.1C1052.82 123.63 1051.96 121.979 1051.57 120.146L1060.52 118.941C1060.79 119.638 1061.23 120.29 1061.82 120.896C1062.41 121.502 1063.19 121.987 1064.16 122.35C1065.14 122.729 1066.34 122.918 1067.75 122.918C1069.85 122.918 1071.59 122.403 1072.95 121.373C1074.33 120.358 1075.02 118.653 1075.02 116.259V109.873H1074.61C1074.19 110.843 1073.55 111.759 1072.7 112.623C1071.85 113.487 1070.76 114.191 1069.43 114.737C1068.1 115.282 1066.51 115.555 1064.66 115.555C1062.04 115.555 1059.65 114.949 1057.5 113.737C1055.36 112.509 1053.66 110.638 1052.38 108.123C1051.13 105.593 1050.5 102.396 1050.5 98.532C1050.5 94.5774 1051.14 91.2744 1052.43 88.6229C1053.72 85.9714 1055.43 83.9865 1057.57 82.6683C1059.72 81.3501 1062.07 80.6911 1064.63 80.6911C1066.59 80.6911 1068.23 81.0244 1069.54 81.6911C1070.86 82.3426 1071.92 83.1607 1072.73 84.1456C1073.54 85.1153 1074.17 86.0698 1074.61 87.0092H1074.98V81.1456H1084.59V116.396C1084.59 119.365 1083.86 121.85 1082.41 123.85C1080.95 125.85 1078.94 127.35 1076.36 128.35C1073.8 129.365 1070.85 129.873 1067.52 129.873ZM1067.73 108.282C1069.29 108.282 1070.6 107.896 1071.68 107.123C1072.77 106.335 1073.6 105.214 1074.18 103.759C1074.77 102.29 1075.07 100.532 1075.07 98.4865C1075.07 96.4411 1074.78 94.6683 1074.2 93.1683C1073.63 91.6532 1072.79 90.4789 1071.7 89.6456C1070.61 88.8123 1069.29 88.3956 1067.73 88.3956C1066.13 88.3956 1064.79 88.8274 1063.7 89.691C1062.61 90.5395 1061.79 91.7214 1061.23 93.2365C1060.66 94.7517 1060.38 96.5017 1060.38 98.4865C1060.38 100.502 1060.66 102.244 1061.23 103.714C1061.8 105.168 1062.63 106.297 1063.7 107.1C1064.79 107.888 1066.13 108.282 1067.73 108.282ZM1108.07 116.737C1104.54 116.737 1101.48 115.987 1098.91 114.487C1096.35 112.971 1094.37 110.865 1092.98 108.168C1091.58 105.456 1090.88 102.312 1090.88 98.7365C1090.88 95.1304 1091.58 91.9789 1092.98 89.282C1094.37 86.5698 1096.35 84.4638 1098.91 82.9638C1101.48 81.4486 1104.54 80.6911 1108.07 80.6911C1111.6 80.6911 1114.64 81.4486 1117.2 82.9638C1119.78 84.4638 1121.76 86.5698 1123.16 89.282C1124.55 91.9789 1125.25 95.1304 1125.25 98.7365C1125.25 102.312 1124.55 105.456 1123.16 108.168C1121.76 110.865 1119.78 112.971 1117.2 114.487C1114.64 115.987 1111.6 116.737 1108.07 116.737ZM1108.11 109.237C1109.72 109.237 1111.06 108.782 1112.13 107.873C1113.21 106.949 1114.02 105.691 1114.57 104.1C1115.13 102.509 1115.41 100.699 1115.41 98.6683C1115.41 96.638 1115.13 94.8274 1114.57 93.2365C1114.02 91.6456 1113.21 90.388 1112.13 89.4638C1111.06 88.5395 1109.72 88.0774 1108.11 88.0774C1106.49 88.0774 1105.13 88.5395 1104.02 89.4638C1102.93 90.388 1102.1 91.6456 1101.54 93.2365C1101 94.8274 1100.73 96.638 1100.73 98.6683C1100.73 100.699 1101 102.509 1101.54 104.1C1102.1 105.691 1102.93 106.949 1104.02 107.873C1105.13 108.782 1106.49 109.237 1108.11 109.237ZM1131.54 116.055V81.1456H1140.93V87.2365H1141.29C1141.93 85.0698 1143 83.4335 1144.5 82.3274C1146 81.2062 1147.73 80.6456 1149.68 80.6456C1150.16 80.6456 1150.69 80.6759 1151.25 80.7365C1151.81 80.7971 1152.3 80.8804 1152.73 80.9865V89.5774C1152.27 89.441 1151.64 89.3198 1150.84 89.2138C1150.04 89.1077 1149.3 89.0547 1148.63 89.0547C1147.21 89.0547 1145.94 89.3653 1144.82 89.9865C1143.71 90.5926 1142.83 91.4411 1142.18 92.532C1141.54 93.6229 1141.23 94.8804 1141.23 96.3047V116.055H1131.54ZM1157.73 116.055V81.1456H1167.41V116.055H1157.73ZM1162.59 76.6456C1161.16 76.6456 1159.92 76.1683 1158.89 75.2138C1157.87 74.2441 1157.37 73.085 1157.37 71.7365C1157.37 70.4032 1157.87 69.2592 1158.89 68.3047C1159.92 67.335 1161.16 66.8501 1162.59 66.8501C1164.03 66.8501 1165.26 67.335 1166.28 68.3047C1167.31 69.2592 1167.82 70.4032 1167.82 71.7365C1167.82 73.085 1167.31 74.2441 1166.28 75.2138C1165.26 76.1683 1164.03 76.6456 1162.59 76.6456ZM1193.74 81.1456V88.4183H1172.71V81.1456H1193.74ZM1177.49 72.782H1187.17V105.327C1187.17 106.221 1187.3 106.918 1187.58 107.418C1187.85 107.903 1188.23 108.244 1188.71 108.441C1189.21 108.638 1189.79 108.737 1190.44 108.737C1190.9 108.737 1191.35 108.699 1191.8 108.623C1192.26 108.532 1192.61 108.464 1192.85 108.418L1194.37 115.623C1193.89 115.774 1193.21 115.949 1192.33 116.146C1191.45 116.358 1190.38 116.487 1189.12 116.532C1186.79 116.623 1184.74 116.312 1182.99 115.6C1181.24 114.888 1179.89 113.782 1178.92 112.282C1177.95 110.782 1177.47 108.888 1177.49 106.6V72.782ZM1210.48 95.8729V116.055H1200.79V69.5092H1210.2V87.3047H1210.61C1211.4 85.2441 1212.67 83.6304 1214.43 82.4638C1216.19 81.282 1218.39 80.6911 1221.04 80.6911C1223.47 80.6911 1225.58 81.2214 1227.38 82.282C1229.2 83.3274 1230.61 84.835 1231.61 86.8047C1232.63 88.7592 1233.13 91.1001 1233.11 93.8274V116.055H1223.43V95.5547C1223.44 93.4032 1222.9 91.7289 1221.79 90.532C1220.7 89.335 1219.17 88.7365 1217.2 88.7365C1215.88 88.7365 1214.72 89.0168 1213.7 89.5774C1212.7 90.138 1211.91 90.9562 1211.34 92.032C1210.78 93.0926 1210.49 94.3729 1210.48 95.8729ZM1240.73 116.055V81.1456H1249.96V87.3047H1250.37C1251.09 85.2592 1252.31 83.6456 1254 82.4638C1255.7 81.282 1257.73 80.6911 1260.09 80.6911C1262.49 80.6911 1264.53 81.2895 1266.21 82.4865C1267.89 83.6683 1269.01 85.2744 1269.57 87.3047H1269.94C1270.65 85.3047 1271.94 83.7062 1273.8 82.5092C1275.68 81.2971 1277.9 80.6911 1280.46 80.6911C1283.72 80.6911 1286.36 81.7289 1288.39 83.8047C1290.44 85.8653 1291.46 88.7895 1291.46 92.5774V116.055H1281.8V94.4865C1281.8 92.5471 1281.28 91.0926 1280.25 90.1229C1279.22 89.1532 1277.94 88.6683 1276.39 88.6683C1274.63 88.6683 1273.26 89.2289 1272.28 90.3501C1271.29 91.4562 1270.8 92.9183 1270.8 94.7365V116.055H1261.41V94.282C1261.41 92.5698 1260.92 91.2062 1259.94 90.191C1258.97 89.1759 1257.69 88.6683 1256.09 88.6683C1255.02 88.6683 1254.05 88.9411 1253.19 89.4865C1252.34 90.0168 1251.66 90.7668 1251.16 91.7365C1250.66 92.6911 1250.41 93.8123 1250.41 95.1001V116.055H1240.73Z" fill="black"/>
<path id="Here state what an excellent POR algorithm is theorem concur25 there is no excellent POR algorithm" d="M78.9334 299.719V276.446H81.7516V286.81H94.1607V276.446H96.9789V299.719H94.1607V289.31H81.7516V299.719H78.9334ZM109.575 300.082C107.894 300.082 106.443 299.711 105.223 298.969C104.011 298.219 103.075 297.173 102.416 295.832C101.765 294.484 101.439 292.916 101.439 291.128C101.439 289.34 101.765 287.764 102.416 286.401C103.075 285.029 103.992 283.961 105.166 283.196C106.348 282.423 107.727 282.037 109.303 282.037C110.212 282.037 111.11 282.188 111.996 282.491C112.882 282.795 113.689 283.287 114.416 283.969C115.144 284.643 115.723 285.537 116.155 286.651C116.587 287.764 116.803 289.135 116.803 290.764V291.901H103.348V289.582H114.075C114.075 288.598 113.878 287.719 113.485 286.946C113.098 286.173 112.545 285.563 111.825 285.116C111.113 284.67 110.272 284.446 109.303 284.446C108.235 284.446 107.31 284.711 106.53 285.241C105.757 285.764 105.163 286.446 104.746 287.287C104.329 288.128 104.121 289.029 104.121 289.991V291.537C104.121 292.855 104.348 293.973 104.803 294.889C105.265 295.798 105.905 296.491 106.723 296.969C107.541 297.438 108.492 297.673 109.575 297.673C110.28 297.673 110.916 297.575 111.485 297.378C112.06 297.173 112.557 296.87 112.973 296.469C113.39 296.06 113.712 295.552 113.939 294.946L116.53 295.673C116.257 296.552 115.799 297.325 115.155 297.991C114.511 298.651 113.716 299.166 112.769 299.537C111.822 299.901 110.757 300.082 109.575 300.082ZM120.882 299.719V282.264H123.473V284.901H123.655C123.973 284.037 124.549 283.336 125.382 282.798C126.216 282.26 127.155 281.991 128.2 281.991C128.397 281.991 128.644 281.995 128.939 282.003C129.235 282.01 129.458 282.022 129.61 282.037V284.764C129.519 284.741 129.31 284.707 128.985 284.662C128.666 284.609 128.329 284.582 127.973 284.582C127.125 284.582 126.367 284.76 125.7 285.116C125.041 285.465 124.519 285.95 124.132 286.571C123.753 287.185 123.564 287.885 123.564 288.673V299.719H120.882ZM139.575 300.082C137.894 300.082 136.443 299.711 135.223 298.969C134.011 298.219 133.075 297.173 132.416 295.832C131.765 294.484 131.439 292.916 131.439 291.128C131.439 289.34 131.765 287.764 132.416 286.401C133.075 285.029 133.992 283.961 135.166 283.196C136.348 282.423 137.727 282.037 139.303 282.037C140.212 282.037 141.11 282.188 141.996 282.491C142.882 282.795 143.689 283.287 144.416 283.969C145.144 284.643 145.723 285.537 146.155 286.651C146.587 287.764 146.803 289.135 146.803 290.764V291.901H133.348V289.582H144.075C144.075 288.598 143.878 287.719 143.485 286.946C143.098 286.173 142.545 285.563 141.825 285.116C141.113 284.67 140.272 284.446 139.303 284.446C138.235 284.446 137.31 284.711 136.53 285.241C135.757 285.764 135.163 286.446 134.746 287.287C134.329 288.128 134.121 289.029 134.121 289.991V291.537C134.121 292.855 134.348 293.973 134.803 294.889C135.265 295.798 135.905 296.491 136.723 296.969C137.541 297.438 138.492 297.673 139.575 297.673C140.28 297.673 140.916 297.575 141.485 297.378C142.06 297.173 142.557 296.87 142.973 296.469C143.39 296.06 143.712 295.552 143.939 294.946L146.53 295.673C146.257 296.552 145.799 297.325 145.155 297.991C144.511 298.651 143.716 299.166 142.769 299.537C141.822 299.901 140.757 300.082 139.575 300.082ZM172.246 286.173L169.837 286.855C169.685 286.454 169.462 286.063 169.166 285.685C168.878 285.298 168.485 284.98 167.985 284.73C167.485 284.48 166.844 284.355 166.064 284.355C164.996 284.355 164.106 284.601 163.394 285.094C162.689 285.579 162.337 286.196 162.337 286.946C162.337 287.613 162.579 288.139 163.064 288.526C163.549 288.912 164.307 289.234 165.337 289.491L167.928 290.128C169.488 290.507 170.651 291.086 171.416 291.866C172.182 292.639 172.564 293.635 172.564 294.855C172.564 295.855 172.276 296.749 171.7 297.537C171.132 298.325 170.337 298.946 169.314 299.401C168.291 299.855 167.102 300.082 165.746 300.082C163.966 300.082 162.492 299.696 161.325 298.923C160.159 298.151 159.42 297.022 159.11 295.537L161.655 294.901C161.897 295.84 162.356 296.545 163.03 297.014C163.712 297.484 164.602 297.719 165.7 297.719C166.95 297.719 167.943 297.454 168.678 296.923C169.42 296.385 169.791 295.741 169.791 294.991C169.791 294.385 169.579 293.878 169.155 293.469C168.731 293.052 168.079 292.741 167.2 292.537L164.291 291.855C162.693 291.476 161.519 290.889 160.769 290.094C160.026 289.291 159.655 288.287 159.655 287.082C159.655 286.098 159.932 285.226 160.485 284.469C161.045 283.711 161.807 283.116 162.769 282.685C163.738 282.253 164.837 282.037 166.064 282.037C167.791 282.037 169.147 282.416 170.132 283.173C171.125 283.931 171.829 284.931 172.246 286.173ZM184.192 282.264V284.537H175.146V282.264H184.192ZM177.783 278.082H180.465V294.719C180.465 295.476 180.575 296.045 180.794 296.423C181.021 296.795 181.309 297.045 181.658 297.173C182.014 297.295 182.389 297.355 182.783 297.355C183.078 297.355 183.321 297.34 183.51 297.31C183.7 297.272 183.851 297.241 183.965 297.219L184.51 299.628C184.328 299.696 184.075 299.764 183.749 299.832C183.423 299.908 183.01 299.946 182.51 299.946C181.753 299.946 181.01 299.783 180.283 299.457C179.563 299.132 178.965 298.635 178.487 297.969C178.018 297.302 177.783 296.461 177.783 295.446V278.082ZM193.362 300.128C192.256 300.128 191.253 299.92 190.351 299.503C189.45 299.079 188.734 298.469 188.203 297.673C187.673 296.87 187.408 295.901 187.408 294.764C187.408 293.764 187.605 292.954 187.999 292.332C188.393 291.704 188.919 291.211 189.578 290.855C190.237 290.499 190.965 290.234 191.76 290.06C192.563 289.878 193.37 289.734 194.181 289.628C195.241 289.491 196.101 289.389 196.76 289.321C197.427 289.245 197.912 289.12 198.215 288.946C198.525 288.772 198.681 288.469 198.681 288.037V287.946C198.681 286.825 198.374 285.954 197.76 285.332C197.154 284.711 196.234 284.401 194.999 284.401C193.718 284.401 192.715 284.681 191.987 285.241C191.26 285.802 190.749 286.401 190.453 287.037L187.908 286.128C188.362 285.067 188.968 284.241 189.726 283.651C190.491 283.052 191.325 282.635 192.226 282.401C193.135 282.158 194.029 282.037 194.908 282.037C195.468 282.037 196.112 282.105 196.84 282.241C197.575 282.37 198.283 282.639 198.965 283.048C199.654 283.457 200.226 284.075 200.681 284.901C201.135 285.726 201.362 286.832 201.362 288.219V299.719H198.681V297.355H198.544C198.362 297.734 198.059 298.139 197.635 298.571C197.211 299.003 196.646 299.37 195.942 299.673C195.237 299.976 194.378 300.128 193.362 300.128ZM193.771 297.719C194.832 297.719 195.726 297.51 196.453 297.094C197.188 296.677 197.741 296.139 198.112 295.48C198.491 294.821 198.681 294.128 198.681 293.401V290.946C198.567 291.082 198.317 291.207 197.931 291.321C197.552 291.427 197.112 291.522 196.612 291.605C196.12 291.681 195.639 291.749 195.169 291.81C194.707 291.863 194.332 291.908 194.044 291.946C193.347 292.037 192.696 292.185 192.09 292.389C191.491 292.586 191.006 292.885 190.635 293.287C190.271 293.681 190.09 294.219 190.09 294.901C190.09 295.832 190.434 296.537 191.124 297.014C191.821 297.484 192.703 297.719 193.771 297.719ZM213.848 282.264V284.537H204.803V282.264H213.848ZM207.439 278.082H210.121V294.719C210.121 295.476 210.231 296.045 210.45 296.423C210.678 296.795 210.966 297.045 211.314 297.173C211.67 297.295 212.045 297.355 212.439 297.355C212.735 297.355 212.977 297.34 213.166 297.31C213.356 297.272 213.507 297.241 213.621 297.219L214.166 299.628C213.985 299.696 213.731 299.764 213.405 299.832C213.079 299.908 212.666 299.946 212.166 299.946C211.409 299.946 210.666 299.783 209.939 299.457C209.219 299.132 208.621 298.635 208.144 297.969C207.674 297.302 207.439 296.461 207.439 295.446V278.082ZM225.013 300.082C223.331 300.082 221.88 299.711 220.661 298.969C219.449 298.219 218.513 297.173 217.854 295.832C217.202 294.484 216.877 292.916 216.877 291.128C216.877 289.34 217.202 287.764 217.854 286.401C218.513 285.029 219.43 283.961 220.604 283.196C221.786 282.423 223.164 282.037 224.74 282.037C225.649 282.037 226.547 282.188 227.433 282.491C228.32 282.795 229.127 283.287 229.854 283.969C230.581 284.643 231.161 285.537 231.593 286.651C232.024 287.764 232.24 289.135 232.24 290.764V291.901H218.786V289.582H229.513C229.513 288.598 229.316 287.719 228.922 286.946C228.536 286.173 227.983 285.563 227.263 285.116C226.551 284.67 225.71 284.446 224.74 284.446C223.672 284.446 222.748 284.711 221.968 285.241C221.195 285.764 220.6 286.446 220.183 287.287C219.767 288.128 219.558 289.029 219.558 289.991V291.537C219.558 292.855 219.786 293.973 220.24 294.889C220.702 295.798 221.343 296.491 222.161 296.969C222.979 297.438 223.93 297.673 225.013 297.673C225.718 297.673 226.354 297.575 226.922 297.378C227.498 297.173 227.994 296.87 228.411 296.469C228.827 296.06 229.149 295.552 229.377 294.946L231.968 295.673C231.695 296.552 231.236 297.325 230.593 297.991C229.949 298.651 229.153 299.166 228.206 299.537C227.259 299.901 226.195 300.082 225.013 300.082ZM249.274 299.719L243.956 282.264H246.774L250.547 295.628H250.729L254.456 282.264H257.32L261.002 295.582H261.183L264.956 282.264H267.774L262.456 299.719H259.82L256.002 286.31H255.729L251.911 299.719H249.274ZM274.002 289.219V299.719H271.32V276.446H274.002V284.991H274.229C274.638 284.09 275.252 283.374 276.07 282.844C276.896 282.306 277.994 282.037 279.365 282.037C280.555 282.037 281.596 282.276 282.49 282.753C283.384 283.223 284.077 283.946 284.57 284.923C285.07 285.893 285.32 287.128 285.32 288.628V299.719H282.638V288.81C282.638 287.423 282.278 286.351 281.558 285.594C280.846 284.829 279.858 284.446 278.593 284.446C277.714 284.446 276.926 284.632 276.229 285.003C275.539 285.374 274.994 285.916 274.593 286.628C274.199 287.34 274.002 288.204 274.002 289.219ZM295.362 300.128C294.256 300.128 293.253 299.92 292.351 299.503C291.45 299.079 290.734 298.469 290.203 297.673C289.673 296.87 289.408 295.901 289.408 294.764C289.408 293.764 289.605 292.954 289.999 292.332C290.393 291.704 290.919 291.211 291.578 290.855C292.237 290.499 292.965 290.234 293.76 290.06C294.563 289.878 295.37 289.734 296.181 289.628C297.241 289.491 298.101 289.389 298.76 289.321C299.427 289.245 299.912 289.12 300.215 288.946C300.525 288.772 300.681 288.469 300.681 288.037V287.946C300.681 286.825 300.374 285.954 299.76 285.332C299.154 284.711 298.234 284.401 296.999 284.401C295.718 284.401 294.715 284.681 293.987 285.241C293.26 285.802 292.749 286.401 292.453 287.037L289.908 286.128C290.362 285.067 290.968 284.241 291.726 283.651C292.491 283.052 293.325 282.635 294.226 282.401C295.135 282.158 296.029 282.037 296.908 282.037C297.468 282.037 298.112 282.105 298.84 282.241C299.575 282.37 300.283 282.639 300.965 283.048C301.654 283.457 302.226 284.075 302.681 284.901C303.135 285.726 303.362 286.832 303.362 288.219V299.719H300.681V297.355H300.544C300.362 297.734 300.059 298.139 299.635 298.571C299.211 299.003 298.646 299.37 297.942 299.673C297.237 299.976 296.378 300.128 295.362 300.128ZM295.771 297.719C296.832 297.719 297.726 297.51 298.453 297.094C299.188 296.677 299.741 296.139 300.112 295.48C300.491 294.821 300.681 294.128 300.681 293.401V290.946C300.567 291.082 300.317 291.207 299.931 291.321C299.552 291.427 299.112 291.522 298.612 291.605C298.12 291.681 297.639 291.749 297.169 291.81C296.707 291.863 296.332 291.908 296.044 291.946C295.347 292.037 294.696 292.185 294.09 292.389C293.491 292.586 293.006 292.885 292.635 293.287C292.271 293.681 292.09 294.219 292.09 294.901C292.09 295.832 292.434 296.537 293.124 297.014C293.821 297.484 294.703 297.719 295.771 297.719ZM315.848 282.264V284.537H306.803V282.264H315.848ZM309.439 278.082H312.121V294.719C312.121 295.476 312.231 296.045 312.45 296.423C312.678 296.795 312.966 297.045 313.314 297.173C313.67 297.295 314.045 297.355 314.439 297.355C314.735 297.355 314.977 297.34 315.166 297.31C315.356 297.272 315.507 297.241 315.621 297.219L316.166 299.628C315.985 299.696 315.731 299.764 315.405 299.832C315.079 299.908 314.666 299.946 314.166 299.946C313.409 299.946 312.666 299.783 311.939 299.457C311.219 299.132 310.621 298.635 310.144 297.969C309.674 297.302 309.439 296.461 309.439 295.446V278.082ZM334.019 300.128C332.913 300.128 331.909 299.92 331.007 299.503C330.106 299.079 329.39 298.469 328.86 297.673C328.329 296.87 328.064 295.901 328.064 294.764C328.064 293.764 328.261 292.954 328.655 292.332C329.049 291.704 329.575 291.211 330.235 290.855C330.894 290.499 331.621 290.234 332.416 290.06C333.219 289.878 334.026 289.734 334.837 289.628C335.897 289.491 336.757 289.389 337.416 289.321C338.083 289.245 338.568 289.12 338.871 288.946C339.182 288.772 339.337 288.469 339.337 288.037V287.946C339.337 286.825 339.03 285.954 338.416 285.332C337.81 284.711 336.89 284.401 335.655 284.401C334.375 284.401 333.371 284.681 332.644 285.241C331.916 285.802 331.405 286.401 331.11 287.037L328.564 286.128C329.019 285.067 329.625 284.241 330.382 283.651C331.147 283.052 331.981 282.635 332.882 282.401C333.791 282.158 334.685 282.037 335.564 282.037C336.125 282.037 336.769 282.105 337.496 282.241C338.231 282.37 338.939 282.639 339.621 283.048C340.31 283.457 340.882 284.075 341.337 284.901C341.791 285.726 342.019 286.832 342.019 288.219V299.719H339.337V297.355H339.2C339.019 297.734 338.716 298.139 338.291 298.571C337.867 299.003 337.303 299.37 336.598 299.673C335.894 299.976 335.034 300.128 334.019 300.128ZM334.428 297.719C335.488 297.719 336.382 297.51 337.11 297.094C337.844 296.677 338.397 296.139 338.769 295.48C339.147 294.821 339.337 294.128 339.337 293.401V290.946C339.223 291.082 338.973 291.207 338.587 291.321C338.208 291.427 337.769 291.522 337.269 291.605C336.776 291.681 336.295 291.749 335.825 291.81C335.363 291.863 334.988 291.908 334.7 291.946C334.003 292.037 333.352 292.185 332.746 292.389C332.147 292.586 331.663 292.885 331.291 293.287C330.928 293.681 330.746 294.219 330.746 294.901C330.746 295.832 331.091 296.537 331.78 297.014C332.477 297.484 333.36 297.719 334.428 297.719ZM349.595 289.219V299.719H346.914V282.264H349.504V284.991H349.732C350.141 284.105 350.762 283.393 351.595 282.855C352.429 282.31 353.504 282.037 354.823 282.037C356.004 282.037 357.039 282.279 357.925 282.764C358.811 283.241 359.501 283.969 359.993 284.946C360.486 285.916 360.732 287.143 360.732 288.628V299.719H358.05V288.81C358.05 287.438 357.694 286.37 356.982 285.605C356.27 284.832 355.292 284.446 354.05 284.446C353.194 284.446 352.429 284.632 351.754 285.003C351.088 285.374 350.561 285.916 350.175 286.628C349.789 287.34 349.595 288.204 349.595 289.219ZM381.95 300.082C380.269 300.082 378.818 299.711 377.598 298.969C376.386 298.219 375.45 297.173 374.791 295.832C374.14 294.484 373.814 292.916 373.814 291.128C373.814 289.34 374.14 287.764 374.791 286.401C375.45 285.029 376.367 283.961 377.541 283.196C378.723 282.423 380.102 282.037 381.678 282.037C382.587 282.037 383.485 282.188 384.371 282.491C385.257 282.795 386.064 283.287 386.791 283.969C387.519 284.643 388.098 285.537 388.53 286.651C388.962 287.764 389.178 289.135 389.178 290.764V291.901H375.723V289.582H386.45C386.45 288.598 386.253 287.719 385.86 286.946C385.473 286.173 384.92 285.563 384.2 285.116C383.488 284.67 382.647 284.446 381.678 284.446C380.61 284.446 379.685 284.711 378.905 285.241C378.132 285.764 377.538 286.446 377.121 287.287C376.704 288.128 376.496 289.029 376.496 289.991V291.537C376.496 292.855 376.723 293.973 377.178 294.889C377.64 295.798 378.28 296.491 379.098 296.969C379.916 297.438 380.867 297.673 381.95 297.673C382.655 297.673 383.291 297.575 383.86 297.378C384.435 297.173 384.932 296.87 385.348 296.469C385.765 296.06 386.087 295.552 386.314 294.946L388.905 295.673C388.632 296.552 388.174 297.325 387.53 297.991C386.886 298.651 386.091 299.166 385.144 299.537C384.197 299.901 383.132 300.082 381.95 300.082ZM394.789 282.264L398.97 289.401L403.152 282.264H406.243L400.607 290.991L406.243 299.719H403.152L398.97 292.946L394.789 299.719H391.698L397.243 290.991L391.698 282.264H394.789ZM416.442 300.082C414.806 300.082 413.396 299.696 412.215 298.923C411.033 298.151 410.124 297.086 409.487 295.73C408.851 294.374 408.533 292.825 408.533 291.082C408.533 289.31 408.859 287.745 409.51 286.389C410.169 285.026 411.086 283.961 412.26 283.196C413.442 282.423 414.821 282.037 416.396 282.037C417.624 282.037 418.73 282.264 419.715 282.719C420.7 283.173 421.506 283.81 422.135 284.628C422.764 285.446 423.154 286.401 423.306 287.491H420.624C420.419 286.696 419.965 285.991 419.26 285.378C418.563 284.757 417.624 284.446 416.442 284.446C415.396 284.446 414.48 284.719 413.692 285.264C412.912 285.802 412.302 286.563 411.862 287.548C411.431 288.526 411.215 289.673 411.215 290.991C411.215 292.34 411.427 293.514 411.851 294.514C412.283 295.514 412.889 296.291 413.669 296.844C414.457 297.397 415.381 297.673 416.442 297.673C417.139 297.673 417.771 297.552 418.34 297.31C418.908 297.067 419.389 296.719 419.783 296.264C420.177 295.81 420.457 295.264 420.624 294.628H423.306C423.154 295.658 422.779 296.586 422.181 297.412C421.59 298.23 420.806 298.882 419.828 299.366C418.859 299.844 417.73 300.082 416.442 300.082ZM434.544 300.082C432.862 300.082 431.412 299.711 430.192 298.969C428.98 298.219 428.044 297.173 427.385 295.832C426.734 294.484 426.408 292.916 426.408 291.128C426.408 289.34 426.734 287.764 427.385 286.401C428.044 285.029 428.961 283.961 430.135 283.196C431.317 282.423 432.696 282.037 434.271 282.037C435.181 282.037 436.078 282.188 436.965 282.491C437.851 282.795 438.658 283.287 439.385 283.969C440.112 284.643 440.692 285.537 441.124 286.651C441.556 287.764 441.771 289.135 441.771 290.764V291.901H428.317V289.582H439.044C439.044 288.598 438.847 287.719 438.453 286.946C438.067 286.173 437.514 285.563 436.794 285.116C436.082 284.67 435.241 284.446 434.271 284.446C433.203 284.446 432.279 284.711 431.499 285.241C430.726 285.764 430.131 286.446 429.715 287.287C429.298 288.128 429.09 289.029 429.09 289.991V291.537C429.09 292.855 429.317 293.973 429.771 294.889C430.234 295.798 430.874 296.491 431.692 296.969C432.51 297.438 433.461 297.673 434.544 297.673C435.249 297.673 435.885 297.575 436.453 297.378C437.029 297.173 437.525 296.87 437.942 296.469C438.359 296.06 438.681 295.552 438.908 294.946L441.499 295.673C441.226 296.552 440.768 297.325 440.124 297.991C439.48 298.651 438.684 299.166 437.737 299.537C436.79 299.901 435.726 300.082 434.544 300.082ZM448.533 276.446V299.719H445.851V276.446H448.533ZM456.127 276.446V299.719H453.445V276.446H456.127ZM468.357 300.082C466.675 300.082 465.224 299.711 464.004 298.969C462.792 298.219 461.857 297.173 461.198 295.832C460.546 294.484 460.22 292.916 460.22 291.128C460.22 289.34 460.546 287.764 461.198 286.401C461.857 285.029 462.773 283.961 463.948 283.196C465.129 282.423 466.508 282.037 468.084 282.037C468.993 282.037 469.891 282.188 470.777 282.491C471.664 282.795 472.47 283.287 473.198 283.969C473.925 284.643 474.504 285.537 474.936 286.651C475.368 287.764 475.584 289.135 475.584 290.764V291.901H462.129V289.582H472.857C472.857 288.598 472.66 287.719 472.266 286.946C471.879 286.173 471.326 285.563 470.607 285.116C469.895 284.67 469.054 284.446 468.084 284.446C467.016 284.446 466.092 284.711 465.311 285.241C464.539 285.764 463.944 286.446 463.527 287.287C463.11 288.128 462.902 289.029 462.902 289.991V291.537C462.902 292.855 463.129 293.973 463.584 294.889C464.046 295.798 464.686 296.491 465.504 296.969C466.323 297.438 467.273 297.673 468.357 297.673C469.061 297.673 469.698 297.575 470.266 297.378C470.842 297.173 471.338 296.87 471.754 296.469C472.171 296.06 472.493 295.552 472.72 294.946L475.311 295.673C475.039 296.552 474.58 297.325 473.936 297.991C473.292 298.651 472.497 299.166 471.55 299.537C470.603 299.901 469.539 300.082 468.357 300.082ZM482.345 289.219V299.719H479.664V282.264H482.254V284.991H482.482C482.891 284.105 483.512 283.393 484.345 282.855C485.179 282.31 486.254 282.037 487.573 282.037C488.754 282.037 489.789 282.279 490.675 282.764C491.561 283.241 492.251 283.969 492.743 284.946C493.236 285.916 493.482 287.143 493.482 288.628V299.719H490.8V288.81C490.8 287.438 490.444 286.37 489.732 285.605C489.02 284.832 488.042 284.446 486.8 284.446C485.944 284.446 485.179 284.632 484.504 285.003C483.838 285.374 483.311 285.916 482.925 286.628C482.539 287.34 482.345 288.204 482.345 289.219ZM505.973 282.264V284.537H496.928V282.264H505.973ZM499.564 278.082H502.246V294.719C502.246 295.476 502.356 296.045 502.575 296.423C502.803 296.795 503.091 297.045 503.439 297.173C503.795 297.295 504.17 297.355 504.564 297.355C504.86 297.355 505.102 297.34 505.291 297.31C505.481 297.272 505.632 297.241 505.746 297.219L506.291 299.628C506.11 299.696 505.856 299.764 505.53 299.832C505.204 299.908 504.791 299.946 504.291 299.946C503.534 299.946 502.791 299.783 502.064 299.457C501.344 299.132 500.746 298.635 500.269 297.969C499.799 297.302 499.564 296.461 499.564 295.446V278.082ZM519.371 299.719V276.446H527.235C529.06 276.446 530.553 276.776 531.712 277.435C532.878 278.086 533.742 278.969 534.303 280.082C534.863 281.196 535.144 282.438 535.144 283.81C535.144 285.181 534.863 286.427 534.303 287.548C533.75 288.67 532.894 289.563 531.735 290.23C530.575 290.889 529.091 291.219 527.28 291.219H521.644V288.719H527.189C528.439 288.719 529.443 288.503 530.2 288.071C530.958 287.639 531.507 287.056 531.848 286.321C532.197 285.579 532.371 284.741 532.371 283.81C532.371 282.878 532.197 282.045 531.848 281.31C531.507 280.575 530.954 279.999 530.189 279.582C529.424 279.158 528.409 278.946 527.144 278.946H522.189V299.719H519.371ZM559.32 288.082C559.32 290.537 558.877 292.658 557.99 294.446C557.104 296.234 555.888 297.613 554.343 298.582C552.797 299.552 551.032 300.037 549.047 300.037C547.062 300.037 545.297 299.552 543.752 298.582C542.206 297.613 540.99 296.234 540.104 294.446C539.218 292.658 538.774 290.537 538.774 288.082C538.774 285.628 539.218 283.507 540.104 281.719C540.99 279.931 542.206 278.552 543.752 277.582C545.297 276.613 547.062 276.128 549.047 276.128C551.032 276.128 552.797 276.613 554.343 277.582C555.888 278.552 557.104 279.931 557.99 281.719C558.877 283.507 559.32 285.628 559.32 288.082ZM556.593 288.082C556.593 286.067 556.255 284.366 555.581 282.98C554.914 281.594 554.009 280.545 552.865 279.832C551.729 279.12 550.456 278.764 549.047 278.764C547.638 278.764 546.361 279.12 545.218 279.832C544.081 280.545 543.176 281.594 542.502 282.98C541.835 284.366 541.502 286.067 541.502 288.082C541.502 290.098 541.835 291.798 542.502 293.185C543.176 294.571 544.081 295.62 545.218 296.332C546.361 297.045 547.638 297.401 549.047 297.401C550.456 297.401 551.729 297.045 552.865 296.332C554.009 295.62 554.914 294.571 555.581 293.185C556.255 291.798 556.593 290.098 556.593 288.082ZM564.058 299.719V276.446H571.922C573.74 276.446 575.233 276.757 576.399 277.378C577.566 277.991 578.43 278.836 578.99 279.912C579.551 280.988 579.831 282.211 579.831 283.582C579.831 284.954 579.551 286.17 578.99 287.23C578.43 288.291 577.57 289.124 576.411 289.73C575.252 290.329 573.771 290.628 571.968 290.628H565.604V288.082H571.877C573.119 288.082 574.119 287.901 574.877 287.537C575.642 287.173 576.195 286.658 576.536 285.991C576.884 285.317 577.058 284.514 577.058 283.582C577.058 282.651 576.884 281.836 576.536 281.139C576.187 280.442 575.63 279.904 574.865 279.526C574.1 279.139 573.089 278.946 571.831 278.946H566.877V299.719H564.058ZM575.013 289.264L580.74 299.719H577.468L571.831 289.264H575.013ZM598.3 300.128C597.194 300.128 596.19 299.92 595.289 299.503C594.387 299.079 593.671 298.469 593.141 297.673C592.61 296.87 592.345 295.901 592.345 294.764C592.345 293.764 592.542 292.954 592.936 292.332C593.33 291.704 593.857 291.211 594.516 290.855C595.175 290.499 595.902 290.234 596.698 290.06C597.501 289.878 598.307 289.734 599.118 289.628C600.179 289.491 601.039 289.389 601.698 289.321C602.364 289.245 602.849 289.12 603.152 288.946C603.463 288.772 603.618 288.469 603.618 288.037V287.946C603.618 286.825 603.311 285.954 602.698 285.332C602.092 284.711 601.171 284.401 599.936 284.401C598.656 284.401 597.652 284.681 596.925 285.241C596.198 285.802 595.686 286.401 595.391 287.037L592.845 286.128C593.3 285.067 593.906 284.241 594.664 283.651C595.429 283.052 596.262 282.635 597.164 282.401C598.073 282.158 598.967 282.037 599.845 282.037C600.406 282.037 601.05 282.105 601.777 282.241C602.512 282.37 603.22 282.639 603.902 283.048C604.592 283.457 605.164 284.075 605.618 284.901C606.073 285.726 606.3 286.832 606.3 288.219V299.719H603.618V297.355H603.482C603.3 297.734 602.997 298.139 602.573 298.571C602.148 299.003 601.584 299.37 600.879 299.673C600.175 299.976 599.315 300.128 598.3 300.128ZM598.709 297.719C599.77 297.719 600.664 297.51 601.391 297.094C602.126 296.677 602.679 296.139 603.05 295.48C603.429 294.821 603.618 294.128 603.618 293.401V290.946C603.504 291.082 603.254 291.207 602.868 291.321C602.489 291.427 602.05 291.522 601.55 291.605C601.057 291.681 600.576 291.749 600.107 291.81C599.645 291.863 599.27 291.908 598.982 291.946C598.285 292.037 597.633 292.185 597.027 292.389C596.429 292.586 595.944 292.885 595.573 293.287C595.209 293.681 595.027 294.219 595.027 294.901C595.027 295.832 595.372 296.537 596.061 297.014C596.758 297.484 597.641 297.719 598.709 297.719ZM613.877 276.446V299.719H611.195V276.446H613.877ZM625.834 306.628C624.539 306.628 623.425 306.461 622.493 306.128C621.561 305.802 620.785 305.37 620.164 304.832C619.55 304.302 619.061 303.734 618.698 303.128L620.834 301.628C621.076 301.946 621.383 302.31 621.754 302.719C622.126 303.135 622.633 303.495 623.277 303.798C623.929 304.109 624.781 304.264 625.834 304.264C627.243 304.264 628.406 303.923 629.323 303.241C630.239 302.56 630.698 301.491 630.698 300.037V296.491H630.47C630.273 296.81 629.993 297.204 629.629 297.673C629.273 298.135 628.758 298.548 628.084 298.912C627.417 299.268 626.516 299.446 625.379 299.446C623.97 299.446 622.705 299.113 621.584 298.446C620.47 297.779 619.588 296.81 618.936 295.537C618.292 294.264 617.97 292.719 617.97 290.901C617.97 289.113 618.285 287.556 618.914 286.23C619.542 284.897 620.417 283.866 621.539 283.139C622.66 282.404 623.955 282.037 625.425 282.037C626.561 282.037 627.463 282.226 628.129 282.605C628.804 282.976 629.319 283.401 629.675 283.878C630.039 284.348 630.319 284.734 630.516 285.037H630.789V282.264H633.379V300.219C633.379 301.719 633.039 302.938 632.357 303.878C631.682 304.825 630.773 305.518 629.629 305.957C628.493 306.404 627.228 306.628 625.834 306.628ZM625.743 297.037C626.819 297.037 627.728 296.791 628.47 296.298C629.213 295.806 629.777 295.098 630.164 294.173C630.55 293.249 630.743 292.143 630.743 290.855C630.743 289.598 630.554 288.488 630.175 287.526C629.796 286.563 629.236 285.81 628.493 285.264C627.751 284.719 626.834 284.446 625.743 284.446C624.607 284.446 623.66 284.734 622.902 285.31C622.152 285.885 621.588 286.658 621.209 287.628C620.838 288.598 620.652 289.673 620.652 290.855C620.652 292.067 620.842 293.139 621.22 294.071C621.607 294.995 622.175 295.723 622.925 296.253C623.682 296.776 624.622 297.037 625.743 297.037ZM645.379 300.082C643.804 300.082 642.421 299.707 641.232 298.957C640.05 298.207 639.126 297.158 638.459 295.81C637.8 294.461 637.47 292.885 637.47 291.082C637.47 289.264 637.8 287.677 638.459 286.321C639.126 284.965 640.05 283.912 641.232 283.162C642.421 282.412 643.804 282.037 645.379 282.037C646.955 282.037 648.334 282.412 649.516 283.162C650.705 283.912 651.629 284.965 652.289 286.321C652.955 287.677 653.289 289.264 653.289 291.082C653.289 292.885 652.955 294.461 652.289 295.81C651.629 297.158 650.705 298.207 649.516 298.957C648.334 299.707 646.955 300.082 645.379 300.082ZM645.379 297.673C646.576 297.673 647.561 297.366 648.334 296.753C649.107 296.139 649.679 295.332 650.05 294.332C650.421 293.332 650.607 292.249 650.607 291.082C650.607 289.916 650.421 288.829 650.05 287.821C649.679 286.813 649.107 285.999 648.334 285.378C647.561 284.757 646.576 284.446 645.379 284.446C644.182 284.446 643.198 284.757 642.425 285.378C641.652 285.999 641.08 286.813 640.709 287.821C640.338 288.829 640.152 289.916 640.152 291.082C640.152 292.249 640.338 293.332 640.709 294.332C641.08 295.332 641.652 296.139 642.425 296.753C643.198 297.366 644.182 297.673 645.379 297.673ZM657.382 299.719V282.264H659.973V284.901H660.155C660.473 284.037 661.049 283.336 661.882 282.798C662.716 282.26 663.655 281.991 664.7 281.991C664.897 281.991 665.144 281.995 665.439 282.003C665.735 282.01 665.958 282.022 666.11 282.037V284.764C666.019 284.741 665.81 284.707 665.485 284.662C665.166 284.609 664.829 284.582 664.473 284.582C663.625 284.582 662.867 284.76 662.2 285.116C661.541 285.465 661.019 285.95 660.632 286.571C660.253 287.185 660.064 287.885 660.064 288.673V299.719H657.382ZM669.289 299.719V282.264H671.97V299.719H669.289ZM670.652 279.355C670.129 279.355 669.679 279.177 669.3 278.821C668.929 278.465 668.743 278.037 668.743 277.537C668.743 277.037 668.929 276.609 669.3 276.253C669.679 275.897 670.129 275.719 670.652 275.719C671.175 275.719 671.622 275.897 671.993 276.253C672.372 276.609 672.561 277.037 672.561 277.537C672.561 278.037 672.372 278.465 671.993 278.821C671.622 279.177 671.175 279.355 670.652 279.355ZM684.473 282.264V284.537H675.428V282.264H684.473ZM678.064 278.082H680.746V294.719C680.746 295.476 680.856 296.045 681.075 296.423C681.303 296.795 681.591 297.045 681.939 297.173C682.295 297.295 682.67 297.355 683.064 297.355C683.36 297.355 683.602 297.34 683.791 297.31C683.981 297.272 684.132 297.241 684.246 297.219L684.791 299.628C684.61 299.696 684.356 299.764 684.03 299.832C683.704 299.908 683.291 299.946 682.791 299.946C682.034 299.946 681.291 299.783 680.564 299.457C679.844 299.132 679.246 298.635 678.769 297.969C678.299 297.302 678.064 296.461 678.064 295.446V278.082ZM691.564 289.219V299.719H688.882V276.446H691.564V284.991H691.791C692.2 284.09 692.814 283.374 693.632 282.844C694.458 282.306 695.557 282.037 696.928 282.037C698.117 282.037 699.159 282.276 700.053 282.753C700.947 283.223 701.64 283.946 702.132 284.923C702.632 285.893 702.882 287.128 702.882 288.628V299.719H700.2V288.81C700.2 287.423 699.841 286.351 699.121 285.594C698.409 284.829 697.42 284.446 696.155 284.446C695.276 284.446 694.488 284.632 693.791 285.003C693.102 285.374 692.557 285.916 692.155 286.628C691.761 287.34 691.564 288.204 691.564 289.219ZM707.789 299.719V282.264H710.379V284.991H710.607C710.97 284.06 711.557 283.336 712.368 282.821C713.179 282.298 714.152 282.037 715.289 282.037C716.44 282.037 717.398 282.298 718.164 282.821C718.936 283.336 719.539 284.06 719.97 284.991H720.152C720.599 284.09 721.27 283.374 722.164 282.844C723.057 282.306 724.129 282.037 725.379 282.037C726.94 282.037 728.217 282.526 729.209 283.503C730.201 284.473 730.698 285.984 730.698 288.037V299.719H728.016V288.037C728.016 286.749 727.664 285.829 726.959 285.276C726.254 284.723 725.425 284.446 724.47 284.446C723.243 284.446 722.292 284.817 721.618 285.56C720.944 286.295 720.607 287.226 720.607 288.355V299.719H717.879V287.764C717.879 286.772 717.557 285.973 716.914 285.366C716.27 284.753 715.44 284.446 714.425 284.446C713.728 284.446 713.076 284.632 712.47 285.003C711.872 285.374 711.387 285.889 711.016 286.548C710.652 287.2 710.47 287.954 710.47 288.81V299.719H707.789ZM744.601 299.719V282.264H747.283V299.719H744.601ZM745.965 279.355C745.442 279.355 744.991 279.177 744.612 278.821C744.241 278.465 744.056 278.037 744.056 277.537C744.056 277.037 744.241 276.609 744.612 276.253C744.991 275.897 745.442 275.719 745.965 275.719C746.487 275.719 746.934 275.897 747.306 276.253C747.684 276.609 747.874 277.037 747.874 277.537C747.874 278.037 747.684 278.465 747.306 278.821C746.934 279.177 746.487 279.355 745.965 279.355ZM764.558 286.173L762.149 286.855C761.998 286.454 761.774 286.063 761.479 285.685C761.191 285.298 760.797 284.98 760.297 284.73C759.797 284.48 759.157 284.355 758.377 284.355C757.308 284.355 756.418 284.601 755.706 285.094C755.002 285.579 754.649 286.196 754.649 286.946C754.649 287.613 754.892 288.139 755.377 288.526C755.861 288.912 756.619 289.234 757.649 289.491L760.24 290.128C761.801 290.507 762.964 291.086 763.729 291.866C764.494 292.639 764.877 293.635 764.877 294.855C764.877 295.855 764.589 296.749 764.013 297.537C763.445 298.325 762.649 298.946 761.627 299.401C760.604 299.855 759.414 300.082 758.058 300.082C756.278 300.082 754.805 299.696 753.638 298.923C752.471 298.151 751.733 297.022 751.422 295.537L753.968 294.901C754.21 295.84 754.668 296.545 755.343 297.014C756.024 297.484 756.914 297.719 758.013 297.719C759.263 297.719 760.255 297.454 760.99 296.923C761.733 296.385 762.104 295.741 762.104 294.991C762.104 294.385 761.892 293.878 761.468 293.469C761.043 293.052 760.392 292.741 759.513 292.537L756.604 291.855C755.005 291.476 753.831 290.889 753.081 290.094C752.339 289.291 751.968 288.287 751.968 287.082C751.968 286.098 752.244 285.226 752.797 284.469C753.358 283.711 754.119 283.116 755.081 282.685C756.051 282.253 757.149 282.037 758.377 282.037C760.104 282.037 761.46 282.416 762.445 283.173C763.437 283.931 764.142 284.931 764.558 286.173ZM86.1607 360.264V362.537H77.1152V360.264H86.1607ZM79.7516 356.082H82.4334V372.719C82.4334 373.476 82.5433 374.045 82.763 374.423C82.9902 374.795 83.2781 375.045 83.6266 375.173C83.9827 375.295 84.3577 375.355 84.7516 375.355C85.0471 375.355 85.2895 375.34 85.4789 375.31C85.6683 375.272 85.8198 375.241 85.9334 375.219L86.4789 377.628C86.2971 377.696 86.0433 377.764 85.7175 377.832C85.3918 377.908 84.9789 377.946 84.4789 377.946C83.7213 377.946 82.9789 377.783 82.2516 377.457C81.5319 377.132 80.9334 376.635 80.4561 375.969C79.9864 375.302 79.7516 374.461 79.7516 373.446V356.082ZM93.2516 367.219V377.719H90.5698V354.446H93.2516V362.991H93.4789C93.888 362.09 94.5016 361.374 95.3198 360.844C96.1455 360.306 97.244 360.037 98.6152 360.037C99.8046 360.037 100.846 360.276 101.74 360.753C102.634 361.223 103.327 361.946 103.82 362.923C104.32 363.893 104.57 365.128 104.57 366.628V377.719H101.888V366.81C101.888 365.423 101.528 364.351 100.808 363.594C100.096 362.829 99.1077 362.446 97.8425 362.446C96.9637 362.446 96.1758 362.632 95.4789 363.003C94.7895 363.374 94.244 363.916 93.8425 364.628C93.4486 365.34 93.2516 366.204 93.2516 367.219ZM116.794 378.082C115.112 378.082 113.662 377.711 112.442 376.969C111.23 376.219 110.294 375.173 109.635 373.832C108.984 372.484 108.658 370.916 108.658 369.128C108.658 367.34 108.984 365.764 109.635 364.401C110.294 363.029 111.211 361.961 112.385 361.196C113.567 360.423 114.946 360.037 116.521 360.037C117.431 360.037 118.328 360.188 119.215 360.491C120.101 360.795 120.908 361.287 121.635 361.969C122.362 362.643 122.942 363.537 123.374 364.651C123.806 365.764 124.021 367.135 124.021 368.764V369.901H110.567V367.582H121.294C121.294 366.598 121.097 365.719 120.703 364.946C120.317 364.173 119.764 363.563 119.044 363.116C118.332 362.67 117.491 362.446 116.521 362.446C115.453 362.446 114.529 362.711 113.749 363.241C112.976 363.764 112.381 364.446 111.965 365.287C111.548 366.128 111.34 367.029 111.34 367.991V369.537C111.34 370.855 111.567 371.973 112.021 372.889C112.484 373.798 113.124 374.491 113.942 374.969C114.76 375.438 115.711 375.673 116.794 375.673C117.499 375.673 118.135 375.575 118.703 375.378C119.279 375.173 119.775 374.87 120.192 374.469C120.609 374.06 120.931 373.552 121.158 372.946L123.749 373.673C123.476 374.552 123.018 375.325 122.374 375.991C121.73 376.651 120.934 377.166 119.987 377.537C119.04 377.901 117.976 378.082 116.794 378.082ZM135.192 378.082C133.616 378.082 132.234 377.707 131.044 376.957C129.862 376.207 128.938 375.158 128.271 373.81C127.612 372.461 127.283 370.885 127.283 369.082C127.283 367.264 127.612 365.677 128.271 364.321C128.938 362.965 129.862 361.912 131.044 361.162C132.234 360.412 133.616 360.037 135.192 360.037C136.768 360.037 138.146 360.412 139.328 361.162C140.518 361.912 141.442 362.965 142.101 364.321C142.768 365.677 143.101 367.264 143.101 369.082C143.101 370.885 142.768 372.461 142.101 373.81C141.442 375.158 140.518 376.207 139.328 376.957C138.146 377.707 136.768 378.082 135.192 378.082ZM135.192 375.673C136.389 375.673 137.374 375.366 138.146 374.753C138.919 374.139 139.491 373.332 139.862 372.332C140.234 371.332 140.419 370.249 140.419 369.082C140.419 367.916 140.234 366.829 139.862 365.821C139.491 364.813 138.919 363.999 138.146 363.378C137.374 362.757 136.389 362.446 135.192 362.446C133.995 362.446 133.01 362.757 132.237 363.378C131.465 363.999 130.893 364.813 130.521 365.821C130.15 366.829 129.965 367.916 129.965 369.082C129.965 370.249 130.15 371.332 130.521 372.332C130.893 373.332 131.465 374.139 132.237 374.753C133.01 375.366 133.995 375.673 135.192 375.673ZM147.195 377.719V360.264H149.786V362.901H149.968C150.286 362.037 150.861 361.336 151.695 360.798C152.528 360.26 153.468 359.991 154.513 359.991C154.71 359.991 154.956 359.995 155.252 360.003C155.547 360.01 155.771 360.022 155.922 360.037V362.764C155.831 362.741 155.623 362.707 155.297 362.662C154.979 362.609 154.642 362.582 154.286 362.582C153.437 362.582 152.68 362.76 152.013 363.116C151.354 363.465 150.831 363.95 150.445 364.571C150.066 365.185 149.877 365.885 149.877 366.673V377.719H147.195ZM165.888 378.082C164.206 378.082 162.755 377.711 161.536 376.969C160.324 376.219 159.388 375.173 158.729 373.832C158.077 372.484 157.752 370.916 157.752 369.128C157.752 367.34 158.077 365.764 158.729 364.401C159.388 363.029 160.305 361.961 161.479 361.196C162.661 360.423 164.039 360.037 165.615 360.037C166.524 360.037 167.422 360.188 168.308 360.491C169.195 360.795 170.002 361.287 170.729 361.969C171.456 362.643 172.036 363.537 172.468 364.651C172.899 365.764 173.115 367.135 173.115 368.764V369.901H159.661V367.582H170.388C170.388 366.598 170.191 365.719 169.797 364.946C169.411 364.173 168.858 363.563 168.138 363.116C167.426 362.67 166.585 362.446 165.615 362.446C164.547 362.446 163.623 362.711 162.843 363.241C162.07 363.764 161.475 364.446 161.058 365.287C160.642 366.128 160.433 367.029 160.433 367.991V369.537C160.433 370.855 160.661 371.973 161.115 372.889C161.577 373.798 162.218 374.491 163.036 374.969C163.854 375.438 164.805 375.673 165.888 375.673C166.593 375.673 167.229 375.575 167.797 375.378C168.373 375.173 168.869 374.87 169.286 374.469C169.702 374.06 170.024 373.552 170.252 372.946L172.843 373.673C172.57 374.552 172.111 375.325 171.468 375.991C170.824 376.651 170.028 377.166 169.081 377.537C168.134 377.901 167.07 378.082 165.888 378.082ZM177.195 377.719V360.264H179.786V362.991H180.013C180.377 362.06 180.964 361.336 181.774 360.821C182.585 360.298 183.558 360.037 184.695 360.037C185.846 360.037 186.805 360.298 187.57 360.821C188.343 361.336 188.945 362.06 189.377 362.991H189.558C190.005 362.09 190.676 361.374 191.57 360.844C192.464 360.306 193.536 360.037 194.786 360.037C196.346 360.037 197.623 360.526 198.615 361.503C199.608 362.473 200.104 363.984 200.104 366.037V377.719H197.422V366.037C197.422 364.749 197.07 363.829 196.365 363.276C195.661 362.723 194.831 362.446 193.877 362.446C192.649 362.446 191.699 362.817 191.024 363.56C190.35 364.295 190.013 365.226 190.013 366.355V377.719H187.286V365.764C187.286 364.772 186.964 363.973 186.32 363.366C185.676 362.753 184.846 362.446 183.831 362.446C183.134 362.446 182.483 362.632 181.877 363.003C181.278 363.374 180.793 363.889 180.422 364.548C180.058 365.2 179.877 365.954 179.877 366.81V377.719H177.195ZM221.098 378.082C219.462 378.082 218.053 377.696 216.871 376.923C215.689 376.151 214.78 375.086 214.144 373.73C213.507 372.374 213.189 370.825 213.189 369.082C213.189 367.31 213.515 365.745 214.166 364.389C214.825 363.026 215.742 361.961 216.916 361.196C218.098 360.423 219.477 360.037 221.053 360.037C222.28 360.037 223.386 360.264 224.371 360.719C225.356 361.173 226.163 361.81 226.791 362.628C227.42 363.446 227.81 364.401 227.962 365.491H225.28C225.075 364.696 224.621 363.991 223.916 363.378C223.219 362.757 222.28 362.446 221.098 362.446C220.053 362.446 219.136 362.719 218.348 363.264C217.568 363.802 216.958 364.563 216.519 365.548C216.087 366.526 215.871 367.673 215.871 368.991C215.871 370.34 216.083 371.514 216.507 372.514C216.939 373.514 217.545 374.291 218.325 374.844C219.113 375.397 220.038 375.673 221.098 375.673C221.795 375.673 222.428 375.552 222.996 375.31C223.564 375.067 224.045 374.719 224.439 374.264C224.833 373.81 225.113 373.264 225.28 372.628H227.962C227.81 373.658 227.435 374.586 226.837 375.412C226.246 376.23 225.462 376.882 224.485 377.366C223.515 377.844 222.386 378.082 221.098 378.082ZM238.973 378.082C237.397 378.082 236.015 377.707 234.825 376.957C233.644 376.207 232.719 375.158 232.053 373.81C231.394 372.461 231.064 370.885 231.064 369.082C231.064 367.264 231.394 365.677 232.053 364.321C232.719 362.965 233.644 361.912 234.825 361.162C236.015 360.412 237.397 360.037 238.973 360.037C240.549 360.037 241.928 360.412 243.11 361.162C244.299 361.912 245.223 362.965 245.882 364.321C246.549 365.677 246.882 367.264 246.882 369.082C246.882 370.885 246.549 372.461 245.882 373.81C245.223 375.158 244.299 376.207 243.11 376.957C241.928 377.707 240.549 378.082 238.973 378.082ZM238.973 375.673C240.17 375.673 241.155 375.366 241.928 374.753C242.7 374.139 243.272 373.332 243.644 372.332C244.015 371.332 244.2 370.249 244.2 369.082C244.2 367.916 244.015 366.829 243.644 365.821C243.272 364.813 242.7 363.999 241.928 363.378C241.155 362.757 240.17 362.446 238.973 362.446C237.776 362.446 236.791 362.757 236.019 363.378C235.246 363.999 234.674 364.813 234.303 365.821C233.932 366.829 233.746 367.916 233.746 369.082C233.746 370.249 233.932 371.332 234.303 372.332C234.674 373.332 235.246 374.139 236.019 374.753C236.791 375.366 237.776 375.673 238.973 375.673ZM253.658 367.219V377.719H250.976V360.264H253.567V362.991H253.794C254.203 362.105 254.825 361.393 255.658 360.855C256.491 360.31 257.567 360.037 258.885 360.037C260.067 360.037 261.101 360.279 261.987 360.764C262.874 361.241 263.563 361.969 264.056 362.946C264.548 363.916 264.794 365.143 264.794 366.628V377.719H262.112V366.81C262.112 365.438 261.756 364.37 261.044 363.605C260.332 362.832 259.355 362.446 258.112 362.446C257.256 362.446 256.491 362.632 255.817 363.003C255.15 363.374 254.624 363.916 254.237 364.628C253.851 365.34 253.658 366.204 253.658 367.219ZM276.786 378.082C275.149 378.082 273.74 377.696 272.558 376.923C271.377 376.151 270.468 375.086 269.831 373.73C269.195 372.374 268.877 370.825 268.877 369.082C268.877 367.31 269.202 365.745 269.854 364.389C270.513 363.026 271.43 361.961 272.604 361.196C273.786 360.423 275.164 360.037 276.74 360.037C277.968 360.037 279.074 360.264 280.058 360.719C281.043 361.173 281.85 361.81 282.479 362.628C283.108 363.446 283.498 364.401 283.649 365.491H280.968C280.763 364.696 280.308 363.991 279.604 363.378C278.907 362.757 277.968 362.446 276.786 362.446C275.74 362.446 274.824 362.719 274.036 363.264C273.255 363.802 272.646 364.563 272.206 365.548C271.774 366.526 271.558 367.673 271.558 368.991C271.558 370.34 271.771 371.514 272.195 372.514C272.627 373.514 273.233 374.291 274.013 374.844C274.801 375.397 275.725 375.673 276.786 375.673C277.483 375.673 278.115 375.552 278.683 375.31C279.252 375.067 279.733 374.719 280.127 374.264C280.521 373.81 280.801 373.264 280.968 372.628H283.649C283.498 373.658 283.123 374.586 282.524 375.412C281.933 376.23 281.149 376.882 280.172 377.366C279.202 377.844 278.074 378.082 276.786 378.082ZM298.57 370.582V360.264H301.252V377.719H298.57V374.764H298.388C297.979 375.651 297.343 376.404 296.479 377.026C295.615 377.639 294.524 377.946 293.206 377.946C292.115 377.946 291.146 377.707 290.297 377.23C289.449 376.745 288.782 376.018 288.297 375.048C287.812 374.071 287.57 372.84 287.57 371.355V360.264H290.252V371.173C290.252 372.446 290.608 373.461 291.32 374.219C292.039 374.976 292.956 375.355 294.07 375.355C294.736 375.355 295.414 375.185 296.104 374.844C296.801 374.503 297.384 373.98 297.854 373.276C298.331 372.571 298.57 371.673 298.57 370.582ZM306.164 377.719V360.264H308.754V362.901H308.936C309.254 362.037 309.83 361.336 310.664 360.798C311.497 360.26 312.436 359.991 313.482 359.991C313.679 359.991 313.925 359.995 314.22 360.003C314.516 360.01 314.739 360.022 314.891 360.037V362.764C314.8 362.741 314.592 362.707 314.266 362.662C313.948 362.609 313.611 362.582 313.254 362.582C312.406 362.582 311.648 362.76 310.982 363.116C310.323 363.465 309.8 363.95 309.414 364.571C309.035 365.185 308.845 365.885 308.845 366.673V377.719H306.164ZM318.024 377.719V375.673L325.706 367.264C326.608 366.279 327.35 365.423 327.933 364.696C328.517 363.961 328.949 363.272 329.229 362.628C329.517 361.976 329.661 361.295 329.661 360.582C329.661 359.764 329.464 359.056 329.07 358.457C328.683 357.859 328.153 357.397 327.479 357.071C326.805 356.745 326.047 356.582 325.206 356.582C324.312 356.582 323.532 356.768 322.865 357.139C322.206 357.503 321.695 358.014 321.331 358.673C320.975 359.332 320.797 360.105 320.797 360.991H318.115C318.115 359.628 318.43 358.431 319.058 357.401C319.687 356.37 320.543 355.567 321.627 354.991C322.718 354.416 323.941 354.128 325.297 354.128C326.661 354.128 327.869 354.416 328.922 354.991C329.975 355.567 330.801 356.344 331.399 357.321C331.998 358.298 332.297 359.385 332.297 360.582C332.297 361.438 332.142 362.276 331.831 363.094C331.528 363.904 330.998 364.81 330.24 365.81C329.49 366.802 328.449 368.014 327.115 369.446L321.888 375.037V375.219H332.706V377.719H318.024ZM344.672 378.037C343.339 378.037 342.138 377.772 341.07 377.241C340.002 376.711 339.146 375.984 338.502 375.06C337.858 374.135 337.505 373.082 337.445 371.901H340.172C340.278 372.954 340.755 373.825 341.604 374.514C342.46 375.196 343.483 375.537 344.672 375.537C345.627 375.537 346.475 375.313 347.218 374.866C347.968 374.42 348.555 373.806 348.979 373.026C349.411 372.238 349.627 371.348 349.627 370.355C349.627 369.34 349.403 368.435 348.956 367.639C348.517 366.836 347.911 366.204 347.138 365.741C346.365 365.279 345.483 365.045 344.49 365.037C343.778 365.029 343.047 365.139 342.297 365.366C341.547 365.586 340.93 365.87 340.445 366.219L337.808 365.901L339.218 354.446H351.308V356.946H341.581L340.763 363.81H340.899C341.377 363.431 341.975 363.116 342.695 362.866C343.414 362.616 344.164 362.491 344.945 362.491C346.369 362.491 347.638 362.832 348.752 363.514C349.873 364.188 350.752 365.113 351.388 366.287C352.032 367.461 352.354 368.802 352.354 370.31C352.354 371.795 352.021 373.12 351.354 374.287C350.695 375.446 349.786 376.363 348.627 377.037C347.468 377.704 346.149 378.037 344.672 378.037ZM373.504 360.264V362.537H364.459V360.264H373.504ZM367.095 356.082H369.777V372.719C369.777 373.476 369.887 374.045 370.107 374.423C370.334 374.795 370.622 375.045 370.97 375.173C371.326 375.295 371.701 375.355 372.095 375.355C372.391 375.355 372.633 375.34 372.823 375.31C373.012 375.272 373.164 375.241 373.277 375.219L373.823 377.628C373.641 377.696 373.387 377.764 373.061 377.832C372.736 377.908 372.323 377.946 371.823 377.946C371.065 377.946 370.323 377.783 369.595 377.457C368.876 377.132 368.277 376.635 367.8 375.969C367.33 375.302 367.095 374.461 367.095 373.446V356.082ZM380.595 367.219V377.719H377.914V354.446H380.595V362.991H380.823C381.232 362.09 381.845 361.374 382.664 360.844C383.489 360.306 384.588 360.037 385.959 360.037C387.148 360.037 388.19 360.276 389.084 360.753C389.978 361.223 390.671 361.946 391.164 362.923C391.664 363.893 391.914 365.128 391.914 366.628V377.719H389.232V366.81C389.232 365.423 388.872 364.351 388.152 363.594C387.44 362.829 386.451 362.446 385.186 362.446C384.307 362.446 383.52 362.632 382.823 363.003C382.133 363.374 381.588 363.916 381.186 364.628C380.792 365.34 380.595 366.204 380.595 367.219ZM404.138 378.082C402.456 378.082 401.005 377.711 399.786 376.969C398.574 376.219 397.638 375.173 396.979 373.832C396.327 372.484 396.002 370.916 396.002 369.128C396.002 367.34 396.327 365.764 396.979 364.401C397.638 363.029 398.555 361.961 399.729 361.196C400.911 360.423 402.289 360.037 403.865 360.037C404.774 360.037 405.672 360.188 406.558 360.491C407.445 360.795 408.252 361.287 408.979 361.969C409.706 362.643 410.286 363.537 410.718 364.651C411.149 365.764 411.365 367.135 411.365 368.764V369.901H397.911V367.582H408.638C408.638 366.598 408.441 365.719 408.047 364.946C407.661 364.173 407.108 363.563 406.388 363.116C405.676 362.67 404.835 362.446 403.865 362.446C402.797 362.446 401.873 362.711 401.093 363.241C400.32 363.764 399.725 364.446 399.308 365.287C398.892 366.128 398.683 367.029 398.683 367.991V369.537C398.683 370.855 398.911 371.973 399.365 372.889C399.827 373.798 400.468 374.491 401.286 374.969C402.104 375.438 403.055 375.673 404.138 375.673C404.843 375.673 405.479 375.575 406.047 375.378C406.623 375.173 407.119 374.87 407.536 374.469C407.952 374.06 408.274 373.552 408.502 372.946L411.093 373.673C410.82 374.552 410.361 375.325 409.718 375.991C409.074 376.651 408.278 377.166 407.331 377.537C406.384 377.901 405.32 378.082 404.138 378.082ZM415.445 377.719V360.264H418.036V362.901H418.218C418.536 362.037 419.111 361.336 419.945 360.798C420.778 360.26 421.718 359.991 422.763 359.991C422.96 359.991 423.206 359.995 423.502 360.003C423.797 360.01 424.021 360.022 424.172 360.037V362.764C424.081 362.741 423.873 362.707 423.547 362.662C423.229 362.609 422.892 362.582 422.536 362.582C421.687 362.582 420.93 362.76 420.263 363.116C419.604 363.465 419.081 363.95 418.695 364.571C418.316 365.185 418.127 365.885 418.127 366.673V377.719H415.445ZM434.138 378.082C432.456 378.082 431.005 377.711 429.786 376.969C428.574 376.219 427.638 375.173 426.979 373.832C426.327 372.484 426.002 370.916 426.002 369.128C426.002 367.34 426.327 365.764 426.979 364.401C427.638 363.029 428.555 361.961 429.729 361.196C430.911 360.423 432.289 360.037 433.865 360.037C434.774 360.037 435.672 360.188 436.558 360.491C437.445 360.795 438.252 361.287 438.979 361.969C439.706 362.643 440.286 363.537 440.718 364.651C441.149 365.764 441.365 367.135 441.365 368.764V369.901H427.911V367.582H438.638C438.638 366.598 438.441 365.719 438.047 364.946C437.661 364.173 437.108 363.563 436.388 363.116C435.676 362.67 434.835 362.446 433.865 362.446C432.797 362.446 431.873 362.711 431.093 363.241C430.32 363.764 429.725 364.446 429.308 365.287C428.892 366.128 428.683 367.029 428.683 367.991V369.537C428.683 370.855 428.911 371.973 429.365 372.889C429.827 373.798 430.468 374.491 431.286 374.969C432.104 375.438 433.055 375.673 434.138 375.673C434.843 375.673 435.479 375.575 436.047 375.378C436.623 375.173 437.119 374.87 437.536 374.469C437.952 374.06 438.274 373.552 438.502 372.946L441.093 373.673C440.82 374.552 440.361 375.325 439.718 375.991C439.074 376.651 438.278 377.166 437.331 377.537C436.384 377.901 435.32 378.082 434.138 378.082ZM454.445 377.719V360.264H457.127V377.719H454.445ZM455.808 357.355C455.286 357.355 454.835 357.177 454.456 356.821C454.085 356.465 453.899 356.037 453.899 355.537C453.899 355.037 454.085 354.609 454.456 354.253C454.835 353.897 455.286 353.719 455.808 353.719C456.331 353.719 456.778 353.897 457.149 354.253C457.528 354.609 457.718 355.037 457.718 355.537C457.718 356.037 457.528 356.465 457.149 356.821C456.778 357.177 456.331 357.355 455.808 357.355ZM474.402 364.173L471.993 364.855C471.842 364.454 471.618 364.063 471.323 363.685C471.035 363.298 470.641 362.98 470.141 362.73C469.641 362.48 469.001 362.355 468.22 362.355C467.152 362.355 466.262 362.601 465.55 363.094C464.845 363.579 464.493 364.196 464.493 364.946C464.493 365.613 464.735 366.139 465.22 366.526C465.705 366.912 466.463 367.234 467.493 367.491L470.084 368.128C471.645 368.507 472.807 369.086 473.573 369.866C474.338 370.639 474.72 371.635 474.72 372.855C474.72 373.855 474.432 374.749 473.857 375.537C473.289 376.325 472.493 376.946 471.47 377.401C470.448 377.855 469.258 378.082 467.902 378.082C466.122 378.082 464.648 377.696 463.482 376.923C462.315 376.151 461.576 375.022 461.266 373.537L463.811 372.901C464.054 373.84 464.512 374.545 465.186 375.014C465.868 375.484 466.758 375.719 467.857 375.719C469.107 375.719 470.099 375.454 470.834 374.923C471.576 374.385 471.948 373.741 471.948 372.991C471.948 372.385 471.736 371.878 471.311 371.469C470.887 371.052 470.235 370.741 469.357 370.537L466.448 369.855C464.849 369.476 463.675 368.889 462.925 368.094C462.182 367.291 461.811 366.287 461.811 365.082C461.811 364.098 462.088 363.226 462.641 362.469C463.201 361.711 463.963 361.116 464.925 360.685C465.895 360.253 466.993 360.037 468.22 360.037C469.948 360.037 471.304 360.416 472.289 361.173C473.281 361.931 473.985 362.931 474.402 364.173ZM490.439 367.219V377.719H487.757V360.264H490.348V362.991H490.575C490.985 362.105 491.606 361.393 492.439 360.855C493.272 360.31 494.348 360.037 495.666 360.037C496.848 360.037 497.882 360.279 498.769 360.764C499.655 361.241 500.344 361.969 500.837 362.946C501.329 363.916 501.575 365.143 501.575 366.628V377.719H498.894V366.81C498.894 365.438 498.538 364.37 497.825 363.605C497.113 362.832 496.136 362.446 494.894 362.446C494.038 362.446 493.272 362.632 492.598 363.003C491.932 363.374 491.405 363.916 491.019 364.628C490.632 365.34 490.439 366.204 490.439 367.219ZM513.567 378.082C511.991 378.082 510.609 377.707 509.419 376.957C508.237 376.207 507.313 375.158 506.646 373.81C505.987 372.461 505.658 370.885 505.658 369.082C505.658 367.264 505.987 365.677 506.646 364.321C507.313 362.965 508.237 361.912 509.419 361.162C510.609 360.412 511.991 360.037 513.567 360.037C515.143 360.037 516.521 360.412 517.703 361.162C518.893 361.912 519.817 362.965 520.476 364.321C521.143 365.677 521.476 367.264 521.476 369.082C521.476 370.885 521.143 372.461 520.476 373.81C519.817 375.158 518.893 376.207 517.703 376.957C516.521 377.707 515.143 378.082 513.567 378.082ZM513.567 375.673C514.764 375.673 515.749 375.366 516.521 374.753C517.294 374.139 517.866 373.332 518.237 372.332C518.609 371.332 518.794 370.249 518.794 369.082C518.794 367.916 518.609 366.829 518.237 365.821C517.866 364.813 517.294 363.999 516.521 363.378C515.749 362.757 514.764 362.446 513.567 362.446C512.37 362.446 511.385 362.757 510.612 363.378C509.84 363.999 509.268 364.813 508.896 365.821C508.525 366.829 508.34 367.916 508.34 369.082C508.34 370.249 508.525 371.332 508.896 372.332C509.268 373.332 509.84 374.139 510.612 374.753C511.385 375.366 512.37 375.673 513.567 375.673ZM541.888 378.082C540.206 378.082 538.755 377.711 537.536 376.969C536.324 376.219 535.388 375.173 534.729 373.832C534.077 372.484 533.752 370.916 533.752 369.128C533.752 367.34 534.077 365.764 534.729 364.401C535.388 363.029 536.305 361.961 537.479 361.196C538.661 360.423 540.039 360.037 541.615 360.037C542.524 360.037 543.422 360.188 544.308 360.491C545.195 360.795 546.002 361.287 546.729 361.969C547.456 362.643 548.036 363.537 548.468 364.651C548.899 365.764 549.115 367.135 549.115 368.764V369.901H535.661V367.582H546.388C546.388 366.598 546.191 365.719 545.797 364.946C545.411 364.173 544.858 363.563 544.138 363.116C543.426 362.67 542.585 362.446 541.615 362.446C540.547 362.446 539.623 362.711 538.843 363.241C538.07 363.764 537.475 364.446 537.058 365.287C536.642 366.128 536.433 367.029 536.433 367.991V369.537C536.433 370.855 536.661 371.973 537.115 372.889C537.577 373.798 538.218 374.491 539.036 374.969C539.854 375.438 540.805 375.673 541.888 375.673C542.593 375.673 543.229 375.575 543.797 375.378C544.373 375.173 544.869 374.87 545.286 374.469C545.702 374.06 546.024 373.552 546.252 372.946L548.843 373.673C548.57 374.552 548.111 375.325 547.468 375.991C546.824 376.651 546.028 377.166 545.081 377.537C544.134 377.901 543.07 378.082 541.888 378.082ZM554.726 360.264L558.908 367.401L563.09 360.264H566.181L560.544 368.991L566.181 377.719H563.09L558.908 370.946L554.726 377.719H551.635L557.181 368.991L551.635 360.264H554.726ZM576.379 378.082C574.743 378.082 573.334 377.696 572.152 376.923C570.97 376.151 570.061 375.086 569.425 373.73C568.789 372.374 568.47 370.825 568.47 369.082C568.47 367.31 568.796 365.745 569.448 364.389C570.107 363.026 571.023 361.961 572.198 361.196C573.379 360.423 574.758 360.037 576.334 360.037C577.561 360.037 578.667 360.264 579.652 360.719C580.637 361.173 581.444 361.81 582.073 362.628C582.701 363.446 583.092 364.401 583.243 365.491H580.561C580.357 364.696 579.902 363.991 579.198 363.378C578.501 362.757 577.561 362.446 576.379 362.446C575.334 362.446 574.417 362.719 573.629 363.264C572.849 363.802 572.239 364.563 571.8 365.548C571.368 366.526 571.152 367.673 571.152 368.991C571.152 370.34 571.364 371.514 571.789 372.514C572.22 373.514 572.826 374.291 573.607 374.844C574.395 375.397 575.319 375.673 576.379 375.673C577.076 375.673 577.709 375.552 578.277 375.31C578.845 375.067 579.326 374.719 579.72 374.264C580.114 373.81 580.395 373.264 580.561 372.628H583.243C583.092 373.658 582.717 374.586 582.118 375.412C581.527 376.23 580.743 376.882 579.766 377.366C578.796 377.844 577.667 378.082 576.379 378.082ZM594.482 378.082C592.8 378.082 591.349 377.711 590.129 376.969C588.917 376.219 587.982 375.173 587.323 373.832C586.671 372.484 586.345 370.916 586.345 369.128C586.345 367.34 586.671 365.764 587.323 364.401C587.982 363.029 588.898 361.961 590.073 361.196C591.254 360.423 592.633 360.037 594.209 360.037C595.118 360.037 596.016 360.188 596.902 360.491C597.789 360.795 598.595 361.287 599.323 361.969C600.05 362.643 600.629 363.537 601.061 364.651C601.493 365.764 601.709 367.135 601.709 368.764V369.901H588.254V367.582H598.982C598.982 366.598 598.785 365.719 598.391 364.946C598.004 364.173 597.451 363.563 596.732 363.116C596.02 362.67 595.179 362.446 594.209 362.446C593.141 362.446 592.217 362.711 591.436 363.241C590.664 363.764 590.069 364.446 589.652 365.287C589.235 366.128 589.027 367.029 589.027 367.991V369.537C589.027 370.855 589.254 371.973 589.709 372.889C590.171 373.798 590.811 374.491 591.629 374.969C592.448 375.438 593.398 375.673 594.482 375.673C595.186 375.673 595.823 375.575 596.391 375.378C596.967 375.173 597.463 374.87 597.879 374.469C598.296 374.06 598.618 373.552 598.845 372.946L601.436 373.673C601.164 374.552 600.705 375.325 600.061 375.991C599.417 376.651 598.622 377.166 597.675 377.537C596.728 377.901 595.664 378.082 594.482 378.082ZM608.47 354.446V377.719H605.789V354.446H608.47ZM616.064 354.446V377.719H613.382V354.446H616.064ZM628.294 378.082C626.612 378.082 625.162 377.711 623.942 376.969C622.73 376.219 621.794 375.173 621.135 373.832C620.484 372.484 620.158 370.916 620.158 369.128C620.158 367.34 620.484 365.764 621.135 364.401C621.794 363.029 622.711 361.961 623.885 361.196C625.067 360.423 626.446 360.037 628.021 360.037C628.931 360.037 629.828 360.188 630.715 360.491C631.601 360.795 632.408 361.287 633.135 361.969C633.862 362.643 634.442 363.537 634.874 364.651C635.306 365.764 635.521 367.135 635.521 368.764V369.901H622.067V367.582H632.794C632.794 366.598 632.597 365.719 632.203 364.946C631.817 364.173 631.264 363.563 630.544 363.116C629.832 362.67 628.991 362.446 628.021 362.446C626.953 362.446 626.029 362.711 625.249 363.241C624.476 363.764 623.881 364.446 623.465 365.287C623.048 366.128 622.84 367.029 622.84 367.991V369.537C622.84 370.855 623.067 371.973 623.521 372.889C623.984 373.798 624.624 374.491 625.442 374.969C626.26 375.438 627.211 375.673 628.294 375.673C628.999 375.673 629.635 375.575 630.203 375.378C630.779 375.173 631.275 374.87 631.692 374.469C632.109 374.06 632.431 373.552 632.658 372.946L635.249 373.673C634.976 374.552 634.518 375.325 633.874 375.991C633.23 376.651 632.434 377.166 631.487 377.537C630.54 377.901 629.476 378.082 628.294 378.082ZM642.283 367.219V377.719H639.601V360.264H642.192V362.991H642.419C642.828 362.105 643.45 361.393 644.283 360.855C645.116 360.31 646.192 360.037 647.51 360.037C648.692 360.037 649.726 360.279 650.612 360.764C651.499 361.241 652.188 361.969 652.681 362.946C653.173 363.916 653.419 365.143 653.419 366.628V377.719H650.737V366.81C650.737 365.438 650.381 364.37 649.669 363.605C648.957 362.832 647.98 362.446 646.737 362.446C645.881 362.446 645.116 362.632 644.442 363.003C643.775 363.374 643.249 363.916 642.862 364.628C642.476 365.34 642.283 366.204 642.283 367.219ZM665.911 360.264V362.537H656.865V360.264H665.911ZM659.502 356.082H662.183V372.719C662.183 373.476 662.293 374.045 662.513 374.423C662.74 374.795 663.028 375.045 663.377 375.173C663.733 375.295 664.108 375.355 664.502 375.355C664.797 375.355 665.039 375.34 665.229 375.31C665.418 375.272 665.57 375.241 665.683 375.219L666.229 377.628C666.047 377.696 665.793 377.764 665.468 377.832C665.142 377.908 664.729 377.946 664.229 377.946C663.471 377.946 662.729 377.783 662.002 377.457C661.282 377.132 660.683 376.635 660.206 375.969C659.736 375.302 659.502 374.461 659.502 373.446V356.082ZM679.308 377.719V354.446H687.172C688.998 354.446 690.49 354.776 691.649 355.435C692.816 356.086 693.68 356.969 694.24 358.082C694.801 359.196 695.081 360.438 695.081 361.81C695.081 363.181 694.801 364.427 694.24 365.548C693.687 366.67 692.831 367.563 691.672 368.23C690.513 368.889 689.028 369.219 687.218 369.219H681.581V366.719H687.127C688.377 366.719 689.38 366.503 690.138 366.071C690.896 365.639 691.445 365.056 691.786 364.321C692.134 363.579 692.308 362.741 692.308 361.81C692.308 360.878 692.134 360.045 691.786 359.31C691.445 358.575 690.892 357.999 690.127 357.582C689.361 357.158 688.346 356.946 687.081 356.946H682.127V377.719H679.308ZM719.257 366.082C719.257 368.537 718.814 370.658 717.928 372.446C717.041 374.234 715.825 375.613 714.28 376.582C712.735 377.552 710.969 378.037 708.985 378.037C707 378.037 705.235 377.552 703.689 376.582C702.144 375.613 700.928 374.234 700.041 372.446C699.155 370.658 698.712 368.537 698.712 366.082C698.712 363.628 699.155 361.507 700.041 359.719C700.928 357.931 702.144 356.552 703.689 355.582C705.235 354.613 707 354.128 708.985 354.128C710.969 354.128 712.735 354.613 714.28 355.582C715.825 356.552 717.041 357.931 717.928 359.719C718.814 361.507 719.257 363.628 719.257 366.082ZM716.53 366.082C716.53 364.067 716.193 362.366 715.519 360.98C714.852 359.594 713.947 358.545 712.803 357.832C711.666 357.12 710.394 356.764 708.985 356.764C707.575 356.764 706.299 357.12 705.155 357.832C704.019 358.545 703.113 359.594 702.439 360.98C701.772 362.366 701.439 364.067 701.439 366.082C701.439 368.098 701.772 369.798 702.439 371.185C703.113 372.571 704.019 373.62 705.155 374.332C706.299 375.045 707.575 375.401 708.985 375.401C710.394 375.401 711.666 375.045 712.803 374.332C713.947 373.62 714.852 372.571 715.519 371.185C716.193 369.798 716.53 368.098 716.53 366.082ZM723.996 377.719V354.446H731.86C733.678 354.446 735.17 354.757 736.337 355.378C737.503 355.991 738.367 356.836 738.928 357.912C739.488 358.988 739.769 360.211 739.769 361.582C739.769 362.954 739.488 364.17 738.928 365.23C738.367 366.291 737.507 367.124 736.348 367.73C735.189 368.329 733.708 368.628 731.905 368.628H725.541V366.082H731.814C733.057 366.082 734.057 365.901 734.814 365.537C735.579 365.173 736.132 364.658 736.473 363.991C736.822 363.317 736.996 362.514 736.996 361.582C736.996 360.651 736.822 359.836 736.473 359.139C736.125 358.442 735.568 357.904 734.803 357.526C734.038 357.139 733.026 356.946 731.769 356.946H726.814V377.719H723.996ZM734.95 367.264L740.678 377.719H737.405L731.769 367.264H734.95ZM758.237 378.128C757.131 378.128 756.128 377.92 755.226 377.503C754.325 377.079 753.609 376.469 753.078 375.673C752.548 374.87 752.283 373.901 752.283 372.764C752.283 371.764 752.48 370.954 752.874 370.332C753.268 369.704 753.794 369.211 754.453 368.855C755.112 368.499 755.84 368.234 756.635 368.06C757.438 367.878 758.245 367.734 759.056 367.628C760.116 367.491 760.976 367.389 761.635 367.321C762.302 367.245 762.787 367.12 763.09 366.946C763.4 366.772 763.556 366.469 763.556 366.037V365.946C763.556 364.825 763.249 363.954 762.635 363.332C762.029 362.711 761.109 362.401 759.874 362.401C758.593 362.401 757.59 362.681 756.862 363.241C756.135 363.802 755.624 364.401 755.328 365.037L752.783 364.128C753.237 363.067 753.843 362.241 754.601 361.651C755.366 361.052 756.2 360.635 757.101 360.401C758.01 360.158 758.904 360.037 759.783 360.037C760.343 360.037 760.987 360.105 761.715 360.241C762.45 360.37 763.158 360.639 763.84 361.048C764.529 361.457 765.101 362.075 765.556 362.901C766.01 363.726 766.237 364.832 766.237 366.219V377.719H763.556V375.355H763.419C763.237 375.734 762.934 376.139 762.51 376.571C762.086 377.003 761.521 377.37 760.817 377.673C760.112 377.976 759.253 378.128 758.237 378.128ZM758.646 375.719C759.707 375.719 760.601 375.51 761.328 375.094C762.063 374.677 762.616 374.139 762.987 373.48C763.366 372.821 763.556 372.128 763.556 371.401V368.946C763.442 369.082 763.192 369.207 762.806 369.321C762.427 369.427 761.987 369.522 761.487 369.605C760.995 369.681 760.514 369.749 760.044 369.81C759.582 369.863 759.207 369.908 758.919 369.946C758.222 370.037 757.571 370.185 756.965 370.389C756.366 370.586 755.881 370.885 755.51 371.287C755.146 371.681 754.965 372.219 754.965 372.901C754.965 373.832 755.309 374.537 755.999 375.014C756.696 375.484 757.578 375.719 758.646 375.719ZM773.814 354.446V377.719H771.132V354.446H773.814ZM785.771 384.628C784.476 384.628 783.362 384.461 782.431 384.128C781.499 383.802 780.722 383.37 780.101 382.832C779.487 382.302 778.999 381.734 778.635 381.128L780.771 379.628C781.014 379.946 781.321 380.31 781.692 380.719C782.063 381.135 782.571 381.495 783.215 381.798C783.866 382.109 784.718 382.264 785.771 382.264C787.181 382.264 788.343 381.923 789.26 381.241C790.177 380.56 790.635 379.491 790.635 378.037V374.491H790.408C790.211 374.81 789.931 375.204 789.567 375.673C789.211 376.135 788.696 376.548 788.021 376.912C787.355 377.268 786.453 377.446 785.317 377.446C783.908 377.446 782.643 377.113 781.521 376.446C780.408 375.779 779.525 374.81 778.874 373.537C778.23 372.264 777.908 370.719 777.908 368.901C777.908 367.113 778.222 365.556 778.851 364.23C779.48 362.897 780.355 361.866 781.476 361.139C782.597 360.404 783.893 360.037 785.362 360.037C786.499 360.037 787.4 360.226 788.067 360.605C788.741 360.976 789.256 361.401 789.612 361.878C789.976 362.348 790.256 362.734 790.453 363.037H790.726V360.264H793.317V378.219C793.317 379.719 792.976 380.938 792.294 381.878C791.62 382.825 790.711 383.518 789.567 383.957C788.431 384.404 787.165 384.628 785.771 384.628ZM785.681 375.037C786.756 375.037 787.665 374.791 788.408 374.298C789.15 373.806 789.715 373.098 790.101 372.173C790.487 371.249 790.681 370.143 790.681 368.855C790.681 367.598 790.491 366.488 790.112 365.526C789.734 364.563 789.173 363.81 788.431 363.264C787.688 362.719 786.771 362.446 785.681 362.446C784.544 362.446 783.597 362.734 782.84 363.31C782.09 363.885 781.525 364.658 781.146 365.628C780.775 366.598 780.59 367.673 780.59 368.855C780.59 370.067 780.779 371.139 781.158 372.071C781.544 372.995 782.112 373.723 782.862 374.253C783.62 374.776 784.559 375.037 785.681 375.037ZM805.317 378.082C803.741 378.082 802.359 377.707 801.169 376.957C799.987 376.207 799.063 375.158 798.396 373.81C797.737 372.461 797.408 370.885 797.408 369.082C797.408 367.264 797.737 365.677 798.396 364.321C799.063 362.965 799.987 361.912 801.169 361.162C802.359 360.412 803.741 360.037 805.317 360.037C806.893 360.037 808.271 360.412 809.453 361.162C810.643 361.912 811.567 362.965 812.226 364.321C812.893 365.677 813.226 367.264 813.226 369.082C813.226 370.885 812.893 372.461 812.226 373.81C811.567 375.158 810.643 376.207 809.453 376.957C808.271 377.707 806.893 378.082 805.317 378.082ZM805.317 375.673C806.514 375.673 807.499 375.366 808.271 374.753C809.044 374.139 809.616 373.332 809.987 372.332C810.359 371.332 810.544 370.249 810.544 369.082C810.544 367.916 810.359 366.829 809.987 365.821C809.616 364.813 809.044 363.999 808.271 363.378C807.499 362.757 806.514 362.446 805.317 362.446C804.12 362.446 803.135 362.757 802.362 363.378C801.59 363.999 801.018 364.813 800.646 365.821C800.275 366.829 800.09 367.916 800.09 369.082C800.09 370.249 800.275 371.332 800.646 372.332C801.018 373.332 801.59 374.139 802.362 374.753C803.135 375.366 804.12 375.673 805.317 375.673ZM817.32 377.719V360.264H819.911V362.901H820.093C820.411 362.037 820.986 361.336 821.82 360.798C822.653 360.26 823.593 359.991 824.638 359.991C824.835 359.991 825.081 359.995 825.377 360.003C825.672 360.01 825.896 360.022 826.047 360.037V362.764C825.956 362.741 825.748 362.707 825.422 362.662C825.104 362.609 824.767 362.582 824.411 362.582C823.562 362.582 822.805 362.76 822.138 363.116C821.479 363.465 820.956 363.95 820.57 364.571C820.191 365.185 820.002 365.885 820.002 366.673V377.719H817.32ZM829.226 377.719V360.264H831.908V377.719H829.226ZM830.59 357.355C830.067 357.355 829.616 357.177 829.237 356.821C828.866 356.465 828.681 356.037 828.681 355.537C828.681 355.037 828.866 354.609 829.237 354.253C829.616 353.897 830.067 353.719 830.59 353.719C831.112 353.719 831.559 353.897 831.931 354.253C832.309 354.609 832.499 355.037 832.499 355.537C832.499 356.037 832.309 356.465 831.931 356.821C831.559 357.177 831.112 357.355 830.59 357.355ZM844.411 360.264V362.537H835.365V360.264H844.411ZM838.002 356.082H840.683V372.719C840.683 373.476 840.793 374.045 841.013 374.423C841.24 374.795 841.528 375.045 841.877 375.173C842.233 375.295 842.608 375.355 843.002 375.355C843.297 375.355 843.539 375.34 843.729 375.31C843.918 375.272 844.07 375.241 844.183 375.219L844.729 377.628C844.547 377.696 844.293 377.764 843.968 377.832C843.642 377.908 843.229 377.946 842.729 377.946C841.971 377.946 841.229 377.783 840.502 377.457C839.782 377.132 839.183 376.635 838.706 375.969C838.236 375.302 838.002 374.461 838.002 373.446V356.082ZM851.502 367.219V377.719H848.82V354.446H851.502V362.991H851.729C852.138 362.09 852.752 361.374 853.57 360.844C854.396 360.306 855.494 360.037 856.865 360.037C858.055 360.037 859.096 360.276 859.99 360.753C860.884 361.223 861.577 361.946 862.07 362.923C862.57 363.893 862.82 365.128 862.82 366.628V377.719H860.138V366.81C860.138 365.423 859.778 364.351 859.058 363.594C858.346 362.829 857.358 362.446 856.093 362.446C855.214 362.446 854.426 362.632 853.729 363.003C853.039 363.374 852.494 363.916 852.093 364.628C851.699 365.34 851.502 366.204 851.502 367.219ZM867.726 377.719V360.264H870.317V362.991H870.544C870.908 362.06 871.495 361.336 872.306 360.821C873.116 360.298 874.09 360.037 875.226 360.037C876.378 360.037 877.336 360.298 878.101 360.821C878.874 361.336 879.476 362.06 879.908 362.991H880.09C880.537 362.09 881.207 361.374 882.101 360.844C882.995 360.306 884.067 360.037 885.317 360.037C886.878 360.037 888.154 360.526 889.146 361.503C890.139 362.473 890.635 363.984 890.635 366.037V377.719H887.953V366.037C887.953 364.749 887.601 363.829 886.896 363.276C886.192 362.723 885.362 362.446 884.408 362.446C883.181 362.446 882.23 362.817 881.556 363.56C880.881 364.295 880.544 365.226 880.544 366.355V377.719H877.817V365.764C877.817 364.772 877.495 363.973 876.851 363.366C876.207 362.753 875.378 362.446 874.362 362.446C873.665 362.446 873.014 362.632 872.408 363.003C871.809 363.374 871.325 363.889 870.953 364.548C870.59 365.2 870.408 365.954 870.408 366.81V377.719H867.726Z" fill="black"/>
</g>
</svg>
