<svg width="1920" height="1080" viewBox="0 0 1920 1080" fill="none" xmlns="http://www.w3.org/2000/svg">
<g id="Explore above">
<rect width="1920" height="1080" fill="white"/>
<path id="Explore above_2" d="M702.444 116.448V69.9028H733.808V78.0164H712.285V89.1073H732.194V97.221H712.285V108.335H733.898V116.448H702.444ZM749.54 81.5392L755.95 93.7437L762.518 81.5392H772.45L762.336 98.9937L772.722 116.448H762.836L755.95 104.38L749.177 116.448H739.177L749.54 98.9937L739.54 81.5392H749.54ZM778.2 129.539V81.5392H787.745V87.4028H788.177C788.601 86.4634 789.215 85.5088 790.018 84.5392C790.836 83.5543 791.897 82.7361 793.2 82.0846C794.518 81.4179 796.154 81.0846 798.109 81.0846C800.654 81.0846 803.003 81.7513 805.154 83.0846C807.306 84.4028 809.025 86.3952 810.313 89.0619C811.601 91.7134 812.245 95.0392 812.245 99.0392C812.245 102.933 811.616 106.221 810.359 108.903C809.116 111.569 807.419 113.592 805.268 114.971C803.131 116.335 800.737 117.016 798.086 117.016C796.207 117.016 794.609 116.706 793.29 116.085C791.987 115.463 790.919 114.683 790.086 113.744C789.253 112.789 788.616 111.827 788.177 110.857H787.881V129.539H778.2ZM787.677 98.9937C787.677 101.069 787.965 102.88 788.54 104.426C789.116 105.971 789.95 107.176 791.04 108.039C792.131 108.888 793.457 109.312 795.018 109.312C796.594 109.312 797.927 108.88 799.018 108.016C800.109 107.138 800.934 105.926 801.495 104.38C802.071 102.819 802.359 101.024 802.359 98.9937C802.359 96.9785 802.078 95.2058 801.518 93.6755C800.957 92.1452 800.131 90.9482 799.04 90.0846C797.95 89.221 796.609 88.7892 795.018 88.7892C793.442 88.7892 792.109 89.2058 791.018 90.0392C789.942 90.8725 789.116 92.0543 788.54 93.5846C787.965 95.1149 787.677 96.9179 787.677 98.9937ZM828.381 69.9028V116.448H818.7V69.9028H828.381ZM851.91 117.13C848.379 117.13 845.326 116.38 842.751 114.88C840.19 113.365 838.213 111.259 836.819 108.562C835.425 105.85 834.728 102.706 834.728 99.1301C834.728 95.524 835.425 92.3725 836.819 89.6755C838.213 86.9634 840.19 84.8573 842.751 83.3573C845.326 81.8422 848.379 81.0846 851.91 81.0846C855.44 81.0846 858.486 81.8422 861.046 83.3573C863.622 84.8573 865.607 86.9634 867.001 89.6755C868.395 92.3725 869.092 95.524 869.092 99.1301C869.092 102.706 868.395 105.85 867.001 108.562C865.607 111.259 863.622 113.365 861.046 114.88C858.486 116.38 855.44 117.13 851.91 117.13ZM851.955 109.63C853.561 109.63 854.902 109.176 855.978 108.266C857.054 107.342 857.864 106.085 858.41 104.494C858.97 102.903 859.251 101.092 859.251 99.0619C859.251 97.0316 858.97 95.221 858.41 93.6301C857.864 92.0392 857.054 90.7816 855.978 89.8573C854.902 88.9331 853.561 88.471 851.955 88.471C850.334 88.471 848.97 88.9331 847.864 89.8573C846.773 90.7816 845.948 92.0392 845.387 93.6301C844.842 95.221 844.569 97.0316 844.569 99.0619C844.569 101.092 844.842 102.903 845.387 104.494C845.948 106.085 846.773 107.342 847.864 108.266C848.97 109.176 850.334 109.63 851.955 109.63ZM875.387 116.448V81.5392H884.773V87.6301H885.137C885.773 85.4634 886.842 83.827 888.342 82.721C889.842 81.5998 891.569 81.0392 893.523 81.0392C894.008 81.0392 894.531 81.0695 895.092 81.1301C895.652 81.1907 896.145 81.274 896.569 81.3801V89.971C896.114 89.8346 895.486 89.7134 894.683 89.6073C893.879 89.5013 893.145 89.4482 892.478 89.4482C891.054 89.4482 889.781 89.7588 888.66 90.3801C887.554 90.9861 886.675 91.8346 886.023 92.9255C885.387 94.0164 885.069 95.274 885.069 96.6982V116.448H875.387ZM915.859 117.13C912.268 117.13 909.177 116.403 906.586 114.948C904.01 113.479 902.025 111.403 900.631 108.721C899.237 106.024 898.54 102.835 898.54 99.1528C898.54 95.5619 899.237 92.4104 900.631 89.6982C902.025 86.9861 903.987 84.8725 906.518 83.3573C909.063 81.8422 912.048 81.0846 915.472 81.0846C917.775 81.0846 919.919 81.4558 921.904 82.1982C923.904 82.9255 925.647 84.024 927.131 85.4937C928.631 86.9634 929.798 88.8119 930.631 91.0392C931.465 93.2513 931.881 95.8422 931.881 98.8119V101.471H902.404V95.471H922.768C922.768 94.077 922.465 92.8422 921.859 91.7664C921.253 90.6907 920.412 89.8498 919.336 89.2437C918.275 88.6225 917.04 88.3119 915.631 88.3119C914.162 88.3119 912.859 88.6528 911.722 89.3346C910.601 90.0013 909.722 90.9028 909.086 92.0392C908.45 93.1604 908.124 94.4104 908.109 95.7892V101.494C908.109 103.221 908.427 104.713 909.063 105.971C909.715 107.229 910.631 108.198 911.813 108.88C912.995 109.562 914.397 109.903 916.018 109.903C917.094 109.903 918.078 109.751 918.972 109.448C919.866 109.145 920.631 108.691 921.268 108.085C921.904 107.479 922.389 106.736 922.722 105.857L931.677 106.448C931.222 108.6 930.29 110.479 928.881 112.085C927.487 113.676 925.684 114.918 923.472 115.812C921.275 116.691 918.737 117.13 915.859 117.13ZM962.967 117.107C960.739 117.107 958.754 116.721 957.012 115.948C955.27 115.16 953.891 114.001 952.876 112.471C951.876 110.926 951.376 109.001 951.376 106.698C951.376 104.759 951.732 103.13 952.444 101.812C953.156 100.494 954.126 99.4331 955.353 98.6301C956.58 97.827 957.974 97.221 959.535 96.8119C961.111 96.4028 962.762 96.1149 964.489 95.9482C966.52 95.7361 968.156 95.5392 969.398 95.3573C970.641 95.1604 971.542 94.8725 972.103 94.4937C972.664 94.1149 972.944 93.5543 972.944 92.8119V92.6755C972.944 91.2361 972.489 90.1225 971.58 89.3346C970.686 88.5467 969.414 88.1528 967.762 88.1528C966.02 88.1528 964.633 88.5392 963.603 89.3119C962.573 90.0695 961.891 91.024 961.558 92.1755L952.603 91.4482C953.058 89.327 953.951 87.4937 955.285 85.9482C956.618 84.3876 958.338 83.1907 960.444 82.3573C962.565 81.5088 965.02 81.0846 967.808 81.0846C969.747 81.0846 971.603 81.3119 973.376 81.7664C975.164 82.221 976.747 82.9255 978.126 83.8801C979.52 84.8346 980.618 86.0619 981.421 87.5619C982.224 89.0467 982.626 90.827 982.626 92.9028V116.448H973.444V111.607H973.171C972.611 112.698 971.861 113.66 970.921 114.494C969.982 115.312 968.853 115.956 967.535 116.426C966.217 116.88 964.694 117.107 962.967 117.107ZM965.739 110.426C967.164 110.426 968.421 110.145 969.512 109.585C970.603 109.009 971.459 108.236 972.08 107.266C972.701 106.297 973.012 105.198 973.012 103.971V100.266C972.709 100.463 972.292 100.645 971.762 100.812C971.247 100.963 970.664 101.107 970.012 101.244C969.361 101.365 968.709 101.479 968.058 101.585C967.406 101.676 966.815 101.759 966.285 101.835C965.148 102.001 964.156 102.266 963.308 102.63C962.459 102.994 961.8 103.486 961.33 104.107C960.861 104.713 960.626 105.471 960.626 106.38C960.626 107.698 961.103 108.706 962.058 109.403C963.027 110.085 964.254 110.426 965.739 110.426ZM990.319 116.448V69.9028H1000V87.4028H1000.3C1000.72 86.4634 1001.33 85.5088 1002.14 84.5392C1002.96 83.5543 1004.02 82.7361 1005.32 82.0846C1006.64 81.4179 1008.27 81.0846 1010.23 81.0846C1012.77 81.0846 1015.12 81.7513 1017.27 83.0846C1019.42 84.4028 1021.14 86.3952 1022.43 89.0619C1023.72 91.7134 1024.36 95.0392 1024.36 99.0392C1024.36 102.933 1023.74 106.221 1022.48 108.903C1021.24 111.569 1019.54 113.592 1017.39 114.971C1015.25 116.335 1012.86 117.016 1010.21 117.016C1008.33 117.016 1006.73 116.706 1005.41 116.085C1004.11 115.463 1003.04 114.683 1002.21 113.744C1001.37 112.789 1000.74 111.827 1000.3 110.857H999.864V116.448H990.319ZM999.796 98.9937C999.796 101.069 1000.08 102.88 1000.66 104.426C1001.24 105.971 1002.07 107.176 1003.16 108.039C1004.25 108.888 1005.58 109.312 1007.14 109.312C1008.71 109.312 1010.05 108.88 1011.14 108.016C1012.23 107.138 1013.05 105.926 1013.61 104.38C1014.19 102.819 1014.48 101.024 1014.48 98.9937C1014.48 96.9785 1014.2 95.2058 1013.64 93.6755C1013.08 92.1452 1012.25 90.9482 1011.16 90.0846C1010.07 89.221 1008.73 88.7892 1007.14 88.7892C1005.56 88.7892 1004.23 89.2058 1003.14 90.0392C1002.06 90.8725 1001.24 92.0543 1000.66 93.5846C1000.08 95.1149 999.796 96.9179 999.796 98.9937ZM1046.6 117.13C1043.07 117.13 1040.01 116.38 1037.44 114.88C1034.88 113.365 1032.9 111.259 1031.51 108.562C1030.11 105.85 1029.42 102.706 1029.42 99.1301C1029.42 95.524 1030.11 92.3725 1031.51 89.6755C1032.9 86.9634 1034.88 84.8573 1037.44 83.3573C1040.01 81.8422 1043.07 81.0846 1046.6 81.0846C1050.13 81.0846 1053.17 81.8422 1055.73 83.3573C1058.31 84.8573 1060.29 86.9634 1061.69 89.6755C1063.08 92.3725 1063.78 95.524 1063.78 99.1301C1063.78 102.706 1063.08 105.85 1061.69 108.562C1060.29 111.259 1058.31 113.365 1055.73 114.88C1053.17 116.38 1050.13 117.13 1046.6 117.13ZM1046.64 109.63C1048.25 109.63 1049.59 109.176 1050.67 108.266C1051.74 107.342 1052.55 106.085 1053.1 104.494C1053.66 102.903 1053.94 101.092 1053.94 99.0619C1053.94 97.0316 1053.66 95.221 1053.1 93.6301C1052.55 92.0392 1051.74 90.7816 1050.67 89.8573C1049.59 88.9331 1048.25 88.471 1046.64 88.471C1045.02 88.471 1043.66 88.9331 1042.55 89.8573C1041.46 90.7816 1040.64 92.0392 1040.07 93.6301C1039.53 95.221 1039.26 97.0316 1039.26 99.0619C1039.26 101.092 1039.53 102.903 1040.07 104.494C1040.64 106.085 1041.46 107.342 1042.55 108.266C1043.66 109.176 1045.02 109.63 1046.64 109.63ZM1101.5 81.5392L1089.29 116.448H1078.38L1066.18 81.5392H1076.4L1083.65 106.516H1084.02L1091.25 81.5392H1101.5ZM1121.23 117.13C1117.64 117.13 1114.55 116.403 1111.96 114.948C1109.39 113.479 1107.4 111.403 1106.01 108.721C1104.61 106.024 1103.92 102.835 1103.92 99.1528C1103.92 95.5619 1104.61 92.4104 1106.01 89.6982C1107.4 86.9861 1109.36 84.8725 1111.89 83.3573C1114.44 81.8422 1117.42 81.0846 1120.85 81.0846C1123.15 81.0846 1125.29 81.4558 1127.28 82.1982C1129.28 82.9255 1131.02 84.024 1132.51 85.4937C1134.01 86.9634 1135.17 88.8119 1136.01 91.0392C1136.84 93.2513 1137.26 95.8422 1137.26 98.8119V101.471H1107.78V95.471H1128.14C1128.14 94.077 1127.84 92.8422 1127.23 91.7664C1126.63 90.6907 1125.79 89.8498 1124.71 89.2437C1123.65 88.6225 1122.42 88.3119 1121.01 88.3119C1119.54 88.3119 1118.23 88.6528 1117.1 89.3346C1115.98 90.0013 1115.1 90.9028 1114.46 92.0392C1113.82 93.1604 1113.5 94.4104 1113.48 95.7892V101.494C1113.48 103.221 1113.8 104.713 1114.44 105.971C1115.09 107.229 1116.01 108.198 1117.19 108.88C1118.37 109.562 1119.77 109.903 1121.39 109.903C1122.47 109.903 1123.45 109.751 1124.35 109.448C1125.24 109.145 1126.01 108.691 1126.64 108.085C1127.28 107.479 1127.76 106.736 1128.1 105.857L1137.05 106.448C1136.6 108.6 1135.67 110.479 1134.26 112.085C1132.86 113.676 1131.06 114.918 1128.85 115.812C1126.65 116.691 1124.11 117.13 1121.23 117.13Z" fill="black"/>
</g>
</svg>
