<svg width="1920" height="1080" viewBox="0 0 1920 1080" fill="none" xmlns="http://www.w3.org/2000/svg">
<g id="source sets">
<rect width="1920" height="1080" fill="white"/>
<path id="Source sets" d="M763.057 83.2892C762.875 81.4558 762.095 80.0316 760.716 79.0164C759.337 78.0013 757.466 77.4937 755.103 77.4937C753.497 77.4937 752.141 77.721 751.034 78.1755C749.928 78.6149 749.08 79.2285 748.489 80.0164C747.913 80.8043 747.625 81.6982 747.625 82.6982C747.595 83.5316 747.769 84.2588 748.148 84.8801C748.542 85.5013 749.08 86.0392 749.762 86.4937C750.444 86.9331 751.231 87.3195 752.125 87.6528C753.019 87.971 753.974 88.2437 754.989 88.471L759.171 89.471C761.201 89.9255 763.065 90.5316 764.762 91.2892C766.459 92.0467 767.928 92.9785 769.171 94.0846C770.413 95.1907 771.375 96.4937 772.057 97.9937C772.754 99.4937 773.11 101.213 773.125 103.153C773.11 106.001 772.383 108.471 770.944 110.562C769.519 112.638 767.459 114.251 764.762 115.403C762.08 116.539 758.845 117.107 755.057 117.107C751.3 117.107 748.027 116.532 745.239 115.38C742.466 114.229 740.3 112.524 738.739 110.266C737.194 107.994 736.383 105.183 736.307 101.835H745.83C745.936 103.395 746.383 104.698 747.171 105.744C747.974 106.774 749.042 107.554 750.375 108.085C751.724 108.6 753.247 108.857 754.944 108.857C756.61 108.857 758.057 108.615 759.284 108.13C760.527 107.645 761.489 106.971 762.171 106.107C762.853 105.244 763.194 104.251 763.194 103.13C763.194 102.085 762.883 101.206 762.262 100.494C761.656 99.7816 760.762 99.1755 759.58 98.6755C758.413 98.1755 756.981 97.721 755.284 97.3119L750.216 96.0392C746.292 95.0846 743.194 93.5922 740.921 91.5619C738.648 89.5316 737.519 86.7967 737.534 83.3573C737.519 80.5391 738.269 78.077 739.784 75.971C741.315 73.8649 743.413 72.221 746.08 71.0392C748.747 69.8573 751.777 69.2664 755.171 69.2664C758.625 69.2664 761.641 69.8573 764.216 71.0392C766.807 72.221 768.822 73.8649 770.262 75.971C771.701 78.077 772.444 80.5164 772.489 83.2892H763.057ZM795.336 117.13C791.805 117.13 788.752 116.38 786.176 114.88C783.616 113.365 781.639 111.259 780.245 108.562C778.851 105.85 778.154 102.706 778.154 99.1301C778.154 95.524 778.851 92.3725 780.245 89.6755C781.639 86.9634 783.616 84.8573 786.176 83.3573C788.752 81.8422 791.805 81.0846 795.336 81.0846C798.866 81.0846 801.911 81.8422 804.472 83.3573C807.048 84.8573 809.033 86.9634 810.426 89.6755C811.82 92.3725 812.517 95.524 812.517 99.1301C812.517 102.706 811.82 105.85 810.426 108.562C809.033 111.259 807.048 113.365 804.472 114.88C801.911 116.38 798.866 117.13 795.336 117.13ZM795.381 109.63C796.987 109.63 798.328 109.176 799.404 108.266C800.48 107.342 801.29 106.085 801.836 104.494C802.396 102.903 802.676 101.092 802.676 99.0619C802.676 97.0316 802.396 95.221 801.836 93.6301C801.29 92.0392 800.48 90.7816 799.404 89.8573C798.328 88.9331 796.987 88.471 795.381 88.471C793.76 88.471 792.396 88.9331 791.29 89.8573C790.199 90.7816 789.373 92.0392 788.813 93.6301C788.267 95.221 787.995 97.0316 787.995 99.0619C787.995 101.092 788.267 102.903 788.813 104.494C789.373 106.085 790.199 107.342 791.29 108.266C792.396 109.176 793.76 109.63 795.381 109.63ZM841.199 101.585V81.5392H850.881V116.448H841.586V110.107H841.222C840.434 112.153 839.123 113.797 837.29 115.039C835.472 116.282 833.252 116.903 830.631 116.903C828.298 116.903 826.245 116.372 824.472 115.312C822.699 114.251 821.313 112.744 820.313 110.789C819.328 108.835 818.828 106.494 818.813 103.766V81.5392H828.495V102.039C828.51 104.1 829.063 105.729 830.154 106.926C831.245 108.122 832.707 108.721 834.54 108.721C835.707 108.721 836.798 108.456 837.813 107.926C838.828 107.38 839.646 106.577 840.267 105.516C840.904 104.456 841.214 103.145 841.199 101.585ZM858.625 116.448V81.5392H868.012V87.6301H868.375C869.012 85.4634 870.08 83.827 871.58 82.721C873.08 81.5998 874.807 81.0392 876.762 81.0392C877.247 81.0392 877.769 81.0695 878.33 81.1301C878.891 81.1907 879.383 81.274 879.807 81.3801V89.971C879.353 89.8346 878.724 89.7134 877.921 89.6073C877.118 89.5013 876.383 89.4482 875.716 89.4482C874.292 89.4482 873.019 89.7588 871.898 90.3801C870.792 90.9861 869.913 91.8346 869.262 92.9255C868.625 94.0164 868.307 95.274 868.307 96.6982V116.448H858.625ZM898.961 117.13C895.385 117.13 892.309 116.372 889.733 114.857C887.173 113.327 885.203 111.206 883.824 108.494C882.461 105.782 881.779 102.66 881.779 99.1301C881.779 95.5543 882.468 92.4179 883.847 89.721C885.241 87.0088 887.218 84.8952 889.779 83.3801C892.339 81.8498 895.385 81.0846 898.915 81.0846C901.961 81.0846 904.627 81.6376 906.915 82.7437C909.203 83.8498 911.014 85.4028 912.347 87.4028C913.68 89.4028 914.415 91.7513 914.551 94.4482H905.415C905.158 92.7058 904.476 91.3043 903.37 90.2437C902.279 89.1679 900.847 88.6301 899.074 88.6301C897.574 88.6301 896.264 89.0392 895.142 89.8573C894.036 90.6604 893.173 91.8346 892.551 93.3801C891.93 94.9255 891.62 96.7967 891.62 98.9937C891.62 101.221 891.923 103.115 892.529 104.676C893.15 106.236 894.021 107.426 895.142 108.244C896.264 109.062 897.574 109.471 899.074 109.471C900.18 109.471 901.173 109.244 902.051 108.789C902.945 108.335 903.68 107.676 904.256 106.812C904.847 105.933 905.233 104.88 905.415 103.653H914.551C914.4 106.319 913.673 108.668 912.37 110.698C911.082 112.713 909.301 114.289 907.029 115.426C904.756 116.562 902.067 117.13 898.961 117.13ZM936.659 117.13C933.069 117.13 929.978 116.403 927.387 114.948C924.811 113.479 922.826 111.403 921.432 108.721C920.038 106.024 919.341 102.835 919.341 99.1528C919.341 95.5619 920.038 92.4104 921.432 89.6982C922.826 86.9861 924.788 84.8725 927.319 83.3573C929.864 81.8422 932.849 81.0846 936.273 81.0846C938.576 81.0846 940.72 81.4558 942.705 82.1982C944.705 82.9255 946.447 84.024 947.932 85.4937C949.432 86.9634 950.599 88.8119 951.432 91.0392C952.266 93.2513 952.682 95.8422 952.682 98.8119V101.471H923.205V95.471H943.569C943.569 94.077 943.266 92.8422 942.659 91.7664C942.053 90.6907 941.212 89.8498 940.137 89.2437C939.076 88.6225 937.841 88.3119 936.432 88.3119C934.962 88.3119 933.659 88.6528 932.523 89.3346C931.402 90.0013 930.523 90.9028 929.887 92.0392C929.25 93.1604 928.925 94.4104 928.909 95.7892V101.494C928.909 103.221 929.228 104.713 929.864 105.971C930.516 107.229 931.432 108.198 932.614 108.88C933.796 109.562 935.197 109.903 936.819 109.903C937.894 109.903 938.879 109.751 939.773 109.448C940.667 109.145 941.432 108.691 942.069 108.085C942.705 107.479 943.19 106.736 943.523 105.857L952.478 106.448C952.023 108.6 951.091 110.479 949.682 112.085C948.288 113.676 946.485 114.918 944.273 115.812C942.076 116.691 939.538 117.13 936.659 117.13ZM1002.86 91.4937L993.995 92.0392C993.843 91.2816 993.517 90.5998 993.017 89.9937C992.517 89.3725 991.858 88.8801 991.04 88.5164C990.237 88.1376 989.275 87.9482 988.154 87.9482C986.654 87.9482 985.389 88.2664 984.358 88.9028C983.328 89.524 982.813 90.3573 982.813 91.4028C982.813 92.2361 983.146 92.9407 983.813 93.5164C984.48 94.0922 985.623 94.5543 987.245 94.9028L993.563 96.1755C996.957 96.8725 999.487 97.9937 1001.15 99.5392C1002.82 101.085 1003.65 103.115 1003.65 105.63C1003.65 107.918 1002.98 109.926 1001.63 111.653C1000.3 113.38 998.464 114.729 996.131 115.698C993.813 116.653 991.139 117.13 988.108 117.13C983.487 117.13 979.805 116.168 977.063 114.244C974.336 112.304 972.737 109.668 972.267 106.335L981.79 105.835C982.078 107.244 982.775 108.319 983.881 109.062C984.987 109.789 986.404 110.153 988.131 110.153C989.828 110.153 991.192 109.827 992.222 109.176C993.267 108.509 993.798 107.653 993.813 106.607C993.798 105.729 993.426 105.009 992.699 104.448C991.972 103.872 990.851 103.433 989.336 103.13L983.29 101.926C979.881 101.244 977.343 100.062 975.676 98.3801C974.025 96.6982 973.199 94.5543 973.199 91.9482C973.199 89.7058 973.805 87.774 975.017 86.1528C976.245 84.5316 977.964 83.2816 980.176 82.4028C982.404 81.524 985.01 81.0846 987.995 81.0846C992.404 81.0846 995.873 82.0164 998.404 83.8801C1000.95 85.7437 1002.43 88.2816 1002.86 91.4937ZM1025.66 117.13C1022.07 117.13 1018.98 116.403 1016.39 114.948C1013.81 113.479 1011.83 111.403 1010.43 108.721C1009.04 106.024 1008.34 102.835 1008.34 99.1528C1008.34 95.5619 1009.04 92.4104 1010.43 89.6982C1011.83 86.9861 1013.79 84.8725 1016.32 83.3573C1018.86 81.8422 1021.85 81.0846 1025.27 81.0846C1027.58 81.0846 1029.72 81.4558 1031.7 82.1982C1033.7 82.9255 1035.45 84.024 1036.93 85.4937C1038.43 86.9634 1039.6 88.8119 1040.43 91.0392C1041.27 93.2513 1041.68 95.8422 1041.68 98.8119V101.471H1012.2V95.471H1032.57C1032.57 94.077 1032.27 92.8422 1031.66 91.7664C1031.05 90.6907 1030.21 89.8498 1029.14 89.2437C1028.08 88.6225 1026.84 88.3119 1025.43 88.3119C1023.96 88.3119 1022.66 88.6528 1021.52 89.3346C1020.4 90.0013 1019.52 90.9028 1018.89 92.0392C1018.25 93.1604 1017.92 94.4104 1017.91 95.7892V101.494C1017.91 103.221 1018.23 104.713 1018.86 105.971C1019.52 107.229 1020.43 108.198 1021.61 108.88C1022.8 109.562 1024.2 109.903 1025.82 109.903C1026.89 109.903 1027.88 109.751 1028.77 109.448C1029.67 109.145 1030.43 108.691 1031.07 108.085C1031.7 107.479 1032.19 106.736 1032.52 105.857L1041.48 106.448C1041.02 108.6 1040.09 110.479 1038.68 112.085C1037.29 113.676 1035.49 114.918 1033.27 115.812C1031.08 116.691 1028.54 117.13 1025.66 117.13ZM1066.57 81.5392V88.8119H1045.55V81.5392H1066.57ZM1050.32 73.1755H1060V105.721C1060 106.615 1060.14 107.312 1060.41 107.812C1060.68 108.297 1061.06 108.638 1061.55 108.835C1062.05 109.032 1062.62 109.13 1063.27 109.13C1063.73 109.13 1064.18 109.092 1064.64 109.016C1065.09 108.926 1065.44 108.857 1065.68 108.812L1067.2 116.016C1066.72 116.168 1066.04 116.342 1065.16 116.539C1064.28 116.751 1063.21 116.88 1061.95 116.926C1059.62 117.016 1057.58 116.706 1055.82 115.994C1054.08 115.282 1052.72 114.176 1051.75 112.676C1050.78 111.176 1050.3 109.282 1050.32 106.994V73.1755ZM1101.48 91.4937L1092.62 92.0392C1092.47 91.2816 1092.14 90.5998 1091.64 89.9937C1091.14 89.3725 1090.48 88.8801 1089.67 88.5164C1088.86 88.1376 1087.9 87.9482 1086.78 87.9482C1085.28 87.9482 1084.01 88.2664 1082.98 88.9028C1081.95 89.524 1081.44 90.3573 1081.44 91.4028C1081.44 92.2361 1081.77 92.9407 1082.44 93.5164C1083.1 94.0922 1084.25 94.5543 1085.87 94.9028L1092.19 96.1755C1095.58 96.8725 1098.11 97.9937 1099.78 99.5392C1101.45 101.085 1102.28 103.115 1102.28 105.63C1102.28 107.918 1101.6 109.926 1100.26 111.653C1098.92 113.38 1097.09 114.729 1094.76 115.698C1092.44 116.653 1089.76 117.13 1086.73 117.13C1082.11 117.13 1078.43 116.168 1075.69 114.244C1072.96 112.304 1071.36 109.668 1070.89 106.335L1080.42 105.835C1080.7 107.244 1081.4 108.319 1082.51 109.062C1083.61 109.789 1085.03 110.153 1086.76 110.153C1088.45 110.153 1089.82 109.827 1090.85 109.176C1091.89 108.509 1092.42 107.653 1092.44 106.607C1092.42 105.729 1092.05 105.009 1091.32 104.448C1090.6 103.872 1089.48 103.433 1087.96 103.13L1081.92 101.926C1078.51 101.244 1075.97 100.062 1074.3 98.3801C1072.65 96.6982 1071.82 94.5543 1071.82 91.9482C1071.82 89.7058 1072.43 87.774 1073.64 86.1528C1074.87 84.5316 1076.59 83.2816 1078.8 82.4028C1081.03 81.524 1083.63 81.0846 1086.62 81.0846C1091.03 81.0846 1094.5 82.0164 1097.03 83.8801C1099.57 85.7437 1101.06 88.2816 1101.48 91.4937Z" fill="black"/>
<path id="notion of first exploration with source sets sound and complete" d="M101.578 262.674V273.174H98.896V255.719H101.487V258.447H101.714C102.123 257.56 102.744 256.848 103.578 256.31C104.411 255.765 105.487 255.492 106.805 255.492C107.987 255.492 109.021 255.734 109.907 256.219C110.794 256.697 111.483 257.424 111.975 258.401C112.468 259.371 112.714 260.598 112.714 262.083V273.174H110.032V262.265C110.032 260.894 109.676 259.825 108.964 259.06C108.252 258.287 107.275 257.901 106.032 257.901C105.176 257.901 104.411 258.087 103.737 258.458C103.07 258.829 102.544 259.371 102.157 260.083C101.771 260.795 101.578 261.659 101.578 262.674ZM124.706 273.537C123.13 273.537 121.747 273.162 120.558 272.412C119.376 271.662 118.452 270.613 117.785 269.265C117.126 267.916 116.797 266.34 116.797 264.537C116.797 262.719 117.126 261.132 117.785 259.776C118.452 258.42 119.376 257.367 120.558 256.617C121.747 255.867 123.13 255.492 124.706 255.492C126.281 255.492 127.66 255.867 128.842 256.617C130.031 257.367 130.956 258.42 131.615 259.776C132.281 261.132 132.615 262.719 132.615 264.537C132.615 266.34 132.281 267.916 131.615 269.265C130.956 270.613 130.031 271.662 128.842 272.412C127.66 273.162 126.281 273.537 124.706 273.537ZM124.706 271.128C125.903 271.128 126.887 270.822 127.66 270.208C128.433 269.594 129.005 268.787 129.376 267.787C129.747 266.787 129.933 265.704 129.933 264.537C129.933 263.371 129.747 262.284 129.376 261.276C129.005 260.269 128.433 259.454 127.66 258.833C126.887 258.212 125.903 257.901 124.706 257.901C123.509 257.901 122.524 258.212 121.751 258.833C120.978 259.454 120.406 260.269 120.035 261.276C119.664 262.284 119.478 263.371 119.478 264.537C119.478 265.704 119.664 266.787 120.035 267.787C120.406 268.787 120.978 269.594 121.751 270.208C122.524 270.822 123.509 271.128 124.706 271.128ZM144.299 255.719V257.992H135.254V255.719H144.299ZM137.89 251.537H140.572V268.174C140.572 268.931 140.682 269.5 140.902 269.878C141.129 270.25 141.417 270.5 141.765 270.628C142.121 270.75 142.496 270.81 142.89 270.81C143.186 270.81 143.428 270.795 143.618 270.765C143.807 270.727 143.958 270.697 144.072 270.674L144.618 273.083C144.436 273.151 144.182 273.219 143.856 273.287C143.53 273.363 143.118 273.401 142.618 273.401C141.86 273.401 141.118 273.238 140.39 272.912C139.671 272.587 139.072 272.09 138.595 271.424C138.125 270.757 137.89 269.916 137.89 268.901V251.537ZM148.333 273.174V255.719H151.015V273.174H148.333ZM149.697 252.81C149.174 252.81 148.724 252.632 148.345 252.276C147.974 251.92 147.788 251.492 147.788 250.992C147.788 250.492 147.974 250.064 148.345 249.708C148.724 249.352 149.174 249.174 149.697 249.174C150.22 249.174 150.667 249.352 151.038 249.708C151.417 250.064 151.606 250.492 151.606 250.992C151.606 251.492 151.417 251.92 151.038 252.276C150.667 252.632 150.22 252.81 149.697 252.81ZM163.018 273.537C161.442 273.537 160.06 273.162 158.87 272.412C157.689 271.662 156.764 270.613 156.098 269.265C155.439 267.916 155.109 266.34 155.109 264.537C155.109 262.719 155.439 261.132 156.098 259.776C156.764 258.42 157.689 257.367 158.87 256.617C160.06 255.867 161.442 255.492 163.018 255.492C164.594 255.492 165.973 255.867 167.154 256.617C168.344 257.367 169.268 258.42 169.927 259.776C170.594 261.132 170.927 262.719 170.927 264.537C170.927 266.34 170.594 267.916 169.927 269.265C169.268 270.613 168.344 271.662 167.154 272.412C165.973 273.162 164.594 273.537 163.018 273.537ZM163.018 271.128C164.215 271.128 165.2 270.822 165.973 270.208C166.745 269.594 167.317 268.787 167.689 267.787C168.06 266.787 168.245 265.704 168.245 264.537C168.245 263.371 168.06 262.284 167.689 261.276C167.317 260.269 166.745 259.454 165.973 258.833C165.2 258.212 164.215 257.901 163.018 257.901C161.821 257.901 160.836 258.212 160.064 258.833C159.291 259.454 158.719 260.269 158.348 261.276C157.976 262.284 157.791 263.371 157.791 264.537C157.791 265.704 157.976 266.787 158.348 267.787C158.719 268.787 159.291 269.594 160.064 270.208C160.836 270.822 161.821 271.128 163.018 271.128ZM177.703 262.674V273.174H175.021V255.719H177.612V258.447H177.839C178.248 257.56 178.869 256.848 179.703 256.31C180.536 255.765 181.612 255.492 182.93 255.492C184.112 255.492 185.146 255.734 186.032 256.219C186.919 256.697 187.608 257.424 188.1 258.401C188.593 259.371 188.839 260.598 188.839 262.083V273.174H186.157V262.265C186.157 260.894 185.801 259.825 185.089 259.06C184.377 258.287 183.4 257.901 182.157 257.901C181.301 257.901 180.536 258.087 179.862 258.458C179.195 258.829 178.669 259.371 178.282 260.083C177.896 260.795 177.703 261.659 177.703 262.674ZM209.831 273.537C208.255 273.537 206.872 273.162 205.683 272.412C204.501 271.662 203.577 270.613 202.91 269.265C202.251 267.916 201.922 266.34 201.922 264.537C201.922 262.719 202.251 261.132 202.91 259.776C203.577 258.42 204.501 257.367 205.683 256.617C206.872 255.867 208.255 255.492 209.831 255.492C211.406 255.492 212.785 255.867 213.967 256.617C215.156 257.367 216.081 258.42 216.74 259.776C217.406 261.132 217.74 262.719 217.74 264.537C217.74 266.34 217.406 267.916 216.74 269.265C216.081 270.613 215.156 271.662 213.967 272.412C212.785 273.162 211.406 273.537 209.831 273.537ZM209.831 271.128C211.028 271.128 212.012 270.822 212.785 270.208C213.558 269.594 214.13 268.787 214.501 267.787C214.872 266.787 215.058 265.704 215.058 264.537C215.058 263.371 214.872 262.284 214.501 261.276C214.13 260.269 213.558 259.454 212.785 258.833C212.012 258.212 211.028 257.901 209.831 257.901C208.634 257.901 207.649 258.212 206.876 258.833C206.103 259.454 205.531 260.269 205.16 261.276C204.789 262.284 204.603 263.371 204.603 264.537C204.603 265.704 204.789 266.787 205.16 267.787C205.531 268.787 206.103 269.594 206.876 270.208C207.649 270.822 208.634 271.128 209.831 271.128ZM229.606 255.719V257.992H220.197V255.719H229.606ZM223.015 273.174V253.31C223.015 252.31 223.25 251.477 223.72 250.81C224.19 250.144 224.799 249.644 225.549 249.31C226.299 248.977 227.091 248.81 227.924 248.81C228.583 248.81 229.121 248.863 229.538 248.969C229.955 249.075 230.265 249.174 230.47 249.265L229.697 251.583C229.561 251.537 229.371 251.481 229.129 251.412C228.894 251.344 228.583 251.31 228.197 251.31C227.311 251.31 226.671 251.534 226.277 251.981C225.89 252.428 225.697 253.083 225.697 253.947V273.174H223.015ZM250.137 255.719V257.992H240.728V255.719H250.137ZM243.547 273.174V253.31C243.547 252.31 243.781 251.477 244.251 250.81C244.721 250.144 245.331 249.644 246.081 249.31C246.831 248.977 247.622 248.81 248.456 248.81C249.115 248.81 249.653 248.863 250.069 248.969C250.486 249.075 250.797 249.174 251.001 249.265L250.228 251.583C250.092 251.537 249.903 251.481 249.66 251.412C249.425 251.344 249.115 251.31 248.728 251.31C247.842 251.31 247.202 251.534 246.808 251.981C246.422 252.428 246.228 253.083 246.228 253.947V273.174H243.547ZM253.896 273.174V255.719H256.578V273.174H253.896ZM255.26 252.81C254.737 252.81 254.286 252.632 253.907 252.276C253.536 251.92 253.35 251.492 253.35 250.992C253.35 250.492 253.536 250.064 253.907 249.708C254.286 249.352 254.737 249.174 255.26 249.174C255.782 249.174 256.229 249.352 256.6 249.708C256.979 250.064 257.169 250.492 257.169 250.992C257.169 251.492 256.979 251.92 256.6 252.276C256.229 252.632 255.782 252.81 255.26 252.81ZM261.49 273.174V255.719H264.081V258.356H264.262C264.581 257.492 265.156 256.791 265.99 256.253C266.823 255.715 267.762 255.447 268.808 255.447C269.005 255.447 269.251 255.45 269.547 255.458C269.842 255.465 270.065 255.477 270.217 255.492V258.219C270.126 258.197 269.918 258.162 269.592 258.117C269.274 258.064 268.937 258.037 268.581 258.037C267.732 258.037 266.975 258.215 266.308 258.572C265.649 258.92 265.126 259.405 264.74 260.026C264.361 260.64 264.172 261.34 264.172 262.128V273.174H261.49ZM285.76 259.628L283.35 260.31C283.199 259.909 282.975 259.519 282.68 259.14C282.392 258.753 281.998 258.435 281.498 258.185C280.998 257.935 280.358 257.81 279.578 257.81C278.51 257.81 277.619 258.056 276.907 258.549C276.203 259.034 275.85 259.651 275.85 260.401C275.85 261.068 276.093 261.594 276.578 261.981C277.063 262.367 277.82 262.689 278.85 262.947L281.441 263.583C283.002 263.962 284.165 264.541 284.93 265.322C285.695 266.094 286.078 267.09 286.078 268.31C286.078 269.31 285.79 270.204 285.214 270.992C284.646 271.78 283.85 272.401 282.828 272.856C281.805 273.31 280.616 273.537 279.26 273.537C277.479 273.537 276.006 273.151 274.839 272.378C273.672 271.606 272.934 270.477 272.623 268.992L275.169 268.356C275.411 269.295 275.869 270 276.544 270.469C277.225 270.939 278.116 271.174 279.214 271.174C280.464 271.174 281.457 270.909 282.191 270.378C282.934 269.84 283.305 269.197 283.305 268.447C283.305 267.84 283.093 267.333 282.669 266.924C282.244 266.507 281.593 266.197 280.714 265.992L277.805 265.31C276.207 264.931 275.032 264.344 274.282 263.549C273.54 262.746 273.169 261.742 273.169 260.537C273.169 259.553 273.445 258.681 273.998 257.924C274.559 257.166 275.32 256.572 276.282 256.14C277.252 255.708 278.35 255.492 279.578 255.492C281.305 255.492 282.661 255.871 283.646 256.628C284.638 257.386 285.343 258.386 285.76 259.628ZM297.706 255.719V257.992H288.66V255.719H297.706ZM291.297 251.537H293.978V268.174C293.978 268.931 294.088 269.5 294.308 269.878C294.535 270.25 294.823 270.5 295.172 270.628C295.528 270.75 295.903 270.81 296.297 270.81C296.592 270.81 296.834 270.795 297.024 270.765C297.213 270.727 297.365 270.697 297.478 270.674L298.024 273.083C297.842 273.151 297.588 273.219 297.262 273.287C296.937 273.363 296.524 273.401 296.024 273.401C295.266 273.401 294.524 273.238 293.797 272.912C293.077 272.587 292.478 272.09 292.001 271.424C291.531 270.757 291.297 269.916 291.297 268.901V251.537ZM106.214 312.537C104.532 312.537 103.082 312.166 101.862 311.424C100.65 310.674 99.7141 309.628 99.055 308.287C98.4035 306.939 98.0778 305.371 98.0778 303.583C98.0778 301.795 98.4035 300.219 99.055 298.856C99.7141 297.484 100.631 296.416 101.805 295.651C102.987 294.878 104.366 294.492 105.941 294.492C106.85 294.492 107.748 294.644 108.635 294.947C109.521 295.25 110.328 295.742 111.055 296.424C111.782 297.098 112.362 297.992 112.794 299.106C113.225 300.219 113.441 301.59 113.441 303.219V304.356H99.9869V302.037H110.714C110.714 301.053 110.517 300.174 110.123 299.401C109.737 298.628 109.184 298.019 108.464 297.572C107.752 297.125 106.911 296.901 105.941 296.901C104.873 296.901 103.949 297.166 103.169 297.697C102.396 298.219 101.801 298.901 101.385 299.742C100.968 300.583 100.76 301.484 100.76 302.447V303.992C100.76 305.31 100.987 306.428 101.441 307.344C101.904 308.253 102.544 308.947 103.362 309.424C104.18 309.894 105.131 310.128 106.214 310.128C106.919 310.128 107.555 310.03 108.123 309.833C108.699 309.628 109.195 309.325 109.612 308.924C110.029 308.515 110.35 308.007 110.578 307.401L113.169 308.128C112.896 309.007 112.438 309.78 111.794 310.447C111.15 311.106 110.354 311.621 109.407 311.992C108.46 312.356 107.396 312.537 106.214 312.537ZM119.052 294.719L123.234 301.856L127.416 294.719H130.507L124.87 303.447L130.507 312.174H127.416L123.234 305.401L119.052 312.174H115.961L121.507 303.447L115.961 294.719H119.052ZM134.333 318.719V294.719H136.924V297.492H137.243C137.44 297.189 137.712 296.803 138.061 296.333C138.417 295.856 138.924 295.431 139.583 295.06C140.25 294.681 141.152 294.492 142.288 294.492C143.758 294.492 145.053 294.859 146.174 295.594C147.296 296.329 148.171 297.371 148.799 298.719C149.428 300.068 149.743 301.659 149.743 303.492C149.743 305.34 149.428 306.943 148.799 308.299C148.171 309.647 147.299 310.693 146.186 311.435C145.072 312.17 143.788 312.537 142.333 312.537C141.212 312.537 140.315 312.352 139.64 311.981C138.966 311.602 138.447 311.174 138.083 310.697C137.72 310.212 137.44 309.81 137.243 309.492H137.015V318.719H134.333ZM136.97 303.447C136.97 304.765 137.163 305.928 137.549 306.935C137.936 307.935 138.5 308.719 139.243 309.287C139.985 309.848 140.894 310.128 141.97 310.128C143.091 310.128 144.027 309.833 144.777 309.242C145.534 308.644 146.102 307.84 146.481 306.833C146.868 305.818 147.061 304.689 147.061 303.447C147.061 302.219 146.871 301.113 146.493 300.128C146.121 299.136 145.557 298.352 144.799 297.776C144.049 297.193 143.106 296.901 141.97 296.901C140.879 296.901 139.962 297.178 139.22 297.731C138.477 298.276 137.917 299.041 137.538 300.026C137.159 301.003 136.97 302.144 136.97 303.447ZM156.515 288.901V312.174H153.833V288.901H156.515ZM168.518 312.537C166.942 312.537 165.56 312.162 164.37 311.412C163.189 310.662 162.264 309.613 161.598 308.265C160.939 306.916 160.609 305.34 160.609 303.537C160.609 301.719 160.939 300.132 161.598 298.776C162.264 297.42 163.189 296.367 164.37 295.617C165.56 294.867 166.942 294.492 168.518 294.492C170.094 294.492 171.473 294.867 172.654 295.617C173.844 296.367 174.768 297.42 175.427 298.776C176.094 300.132 176.427 301.719 176.427 303.537C176.427 305.34 176.094 306.916 175.427 308.265C174.768 309.613 173.844 310.662 172.654 311.412C171.473 312.162 170.094 312.537 168.518 312.537ZM168.518 310.128C169.715 310.128 170.7 309.822 171.473 309.208C172.245 308.594 172.817 307.787 173.189 306.787C173.56 305.787 173.745 304.704 173.745 303.537C173.745 302.371 173.56 301.284 173.189 300.276C172.817 299.269 172.245 298.454 171.473 297.833C170.7 297.212 169.715 296.901 168.518 296.901C167.321 296.901 166.336 297.212 165.564 297.833C164.791 298.454 164.219 299.269 163.848 300.276C163.476 301.284 163.291 302.371 163.291 303.537C163.291 304.704 163.476 305.787 163.848 306.787C164.219 307.787 164.791 308.594 165.564 309.208C166.336 309.822 167.321 310.128 168.518 310.128ZM180.521 312.174V294.719H183.112V297.356H183.294C183.612 296.492 184.188 295.791 185.021 295.253C185.854 294.715 186.794 294.447 187.839 294.447C188.036 294.447 188.282 294.45 188.578 294.458C188.873 294.465 189.097 294.477 189.248 294.492V297.219C189.157 297.197 188.949 297.162 188.623 297.117C188.305 297.064 187.968 297.037 187.612 297.037C186.763 297.037 186.006 297.215 185.339 297.572C184.68 297.92 184.157 298.405 183.771 299.026C183.392 299.64 183.203 300.34 183.203 301.128V312.174H180.521ZM197.564 312.583C196.458 312.583 195.454 312.375 194.552 311.958C193.651 311.534 192.935 310.924 192.404 310.128C191.874 309.325 191.609 308.356 191.609 307.219C191.609 306.219 191.806 305.409 192.2 304.787C192.594 304.159 193.12 303.666 193.779 303.31C194.439 302.954 195.166 302.689 195.961 302.515C196.764 302.333 197.571 302.189 198.382 302.083C199.442 301.947 200.302 301.844 200.961 301.776C201.628 301.7 202.113 301.575 202.416 301.401C202.726 301.227 202.882 300.924 202.882 300.492V300.401C202.882 299.28 202.575 298.409 201.961 297.787C201.355 297.166 200.435 296.856 199.2 296.856C197.92 296.856 196.916 297.136 196.189 297.697C195.461 298.257 194.95 298.856 194.654 299.492L192.109 298.583C192.564 297.522 193.17 296.697 193.927 296.106C194.692 295.507 195.526 295.09 196.427 294.856C197.336 294.613 198.23 294.492 199.109 294.492C199.67 294.492 200.314 294.56 201.041 294.697C201.776 294.825 202.484 295.094 203.166 295.503C203.855 295.912 204.427 296.53 204.882 297.356C205.336 298.181 205.564 299.287 205.564 300.674V312.174H202.882V309.81H202.745C202.564 310.189 202.261 310.594 201.836 311.026C201.412 311.458 200.848 311.825 200.143 312.128C199.439 312.431 198.579 312.583 197.564 312.583ZM197.973 310.174C199.033 310.174 199.927 309.965 200.654 309.549C201.389 309.132 201.942 308.594 202.314 307.935C202.692 307.276 202.882 306.583 202.882 305.856V303.401C202.768 303.537 202.518 303.662 202.132 303.776C201.753 303.882 201.314 303.977 200.814 304.06C200.321 304.136 199.84 304.204 199.37 304.265C198.908 304.318 198.533 304.363 198.245 304.401C197.548 304.492 196.897 304.64 196.291 304.844C195.692 305.041 195.208 305.34 194.836 305.742C194.473 306.136 194.291 306.674 194.291 307.356C194.291 308.287 194.636 308.992 195.325 309.469C196.022 309.939 196.904 310.174 197.973 310.174ZM218.049 294.719V296.992H209.004V294.719H218.049ZM211.64 290.537H214.322V307.174C214.322 307.931 214.432 308.5 214.652 308.878C214.879 309.25 215.167 309.5 215.515 309.628C215.871 309.75 216.246 309.81 216.64 309.81C216.936 309.81 217.178 309.795 217.368 309.765C217.557 309.727 217.708 309.697 217.822 309.674L218.368 312.083C218.186 312.151 217.932 312.219 217.606 312.287C217.28 312.363 216.868 312.401 216.368 312.401C215.61 312.401 214.868 312.238 214.14 311.912C213.421 311.587 212.822 311.09 212.345 310.424C211.875 309.757 211.64 308.916 211.64 307.901V290.537ZM222.083 312.174V294.719H224.765V312.174H222.083ZM223.447 291.81C222.924 291.81 222.474 291.632 222.095 291.276C221.724 290.92 221.538 290.492 221.538 289.992C221.538 289.492 221.724 289.064 222.095 288.708C222.474 288.352 222.924 288.174 223.447 288.174C223.97 288.174 224.417 288.352 224.788 288.708C225.167 289.064 225.356 289.492 225.356 289.992C225.356 290.492 225.167 290.92 224.788 291.276C224.417 291.632 223.97 291.81 223.447 291.81ZM236.768 312.537C235.192 312.537 233.81 312.162 232.62 311.412C231.439 310.662 230.514 309.613 229.848 308.265C229.189 306.916 228.859 305.34 228.859 303.537C228.859 301.719 229.189 300.132 229.848 298.776C230.514 297.42 231.439 296.367 232.62 295.617C233.81 294.867 235.192 294.492 236.768 294.492C238.344 294.492 239.723 294.867 240.904 295.617C242.094 296.367 243.018 297.42 243.677 298.776C244.344 300.132 244.677 301.719 244.677 303.537C244.677 305.34 244.344 306.916 243.677 308.265C243.018 309.613 242.094 310.662 240.904 311.412C239.723 312.162 238.344 312.537 236.768 312.537ZM236.768 310.128C237.965 310.128 238.95 309.822 239.723 309.208C240.495 308.594 241.067 307.787 241.439 306.787C241.81 305.787 241.995 304.704 241.995 303.537C241.995 302.371 241.81 301.284 241.439 300.276C241.067 299.269 240.495 298.454 239.723 297.833C238.95 297.212 237.965 296.901 236.768 296.901C235.571 296.901 234.586 297.212 233.814 297.833C233.041 298.454 232.469 299.269 232.098 300.276C231.726 301.284 231.541 302.371 231.541 303.537C231.541 304.704 231.726 305.787 232.098 306.787C232.469 307.787 233.041 308.594 233.814 309.208C234.586 309.822 235.571 310.128 236.768 310.128ZM251.453 301.674V312.174H248.771V294.719H251.362V297.447H251.589C251.998 296.56 252.619 295.848 253.453 295.31C254.286 294.765 255.362 294.492 256.68 294.492C257.862 294.492 258.896 294.734 259.782 295.219C260.669 295.697 261.358 296.424 261.85 297.401C262.343 298.371 262.589 299.598 262.589 301.083V312.174H259.907V301.265C259.907 299.894 259.551 298.825 258.839 298.06C258.127 297.287 257.15 296.901 255.907 296.901C255.051 296.901 254.286 297.087 253.612 297.458C252.945 297.829 252.419 298.371 252.032 299.083C251.646 299.795 251.453 300.659 251.453 301.674ZM280.444 312.174L275.126 294.719H277.944L281.717 308.083H281.899L285.626 294.719H288.49L292.172 308.037H292.353L296.126 294.719H298.944L293.626 312.174H290.99L287.172 298.765H286.899L283.081 312.174H280.444ZM302.49 312.174V294.719H305.172V312.174H302.49ZM303.853 291.81C303.331 291.81 302.88 291.632 302.501 291.276C302.13 290.92 301.944 290.492 301.944 289.992C301.944 289.492 302.13 289.064 302.501 288.708C302.88 288.352 303.331 288.174 303.853 288.174C304.376 288.174 304.823 288.352 305.194 288.708C305.573 289.064 305.762 289.492 305.762 289.992C305.762 290.492 305.573 290.92 305.194 291.276C304.823 291.632 304.376 291.81 303.853 291.81ZM317.674 294.719V296.992H308.629V294.719H317.674ZM311.265 290.537H313.947V307.174C313.947 307.931 314.057 308.5 314.277 308.878C314.504 309.25 314.792 309.5 315.14 309.628C315.496 309.75 315.871 309.81 316.265 309.81C316.561 309.81 316.803 309.795 316.993 309.765C317.182 309.727 317.333 309.697 317.447 309.674L317.993 312.083C317.811 312.151 317.557 312.219 317.231 312.287C316.905 312.363 316.493 312.401 315.993 312.401C315.235 312.401 314.493 312.238 313.765 311.912C313.046 311.587 312.447 311.09 311.97 310.424C311.5 309.757 311.265 308.916 311.265 307.901V290.537ZM324.765 301.674V312.174H322.083V288.901H324.765V297.447H324.993C325.402 296.545 326.015 295.829 326.833 295.299C327.659 294.761 328.758 294.492 330.129 294.492C331.318 294.492 332.36 294.731 333.254 295.208C334.148 295.678 334.841 296.401 335.333 297.378C335.833 298.348 336.083 299.583 336.083 301.083V312.174H333.402V301.265C333.402 299.878 333.042 298.806 332.322 298.049C331.61 297.284 330.621 296.901 329.356 296.901C328.477 296.901 327.69 297.087 326.993 297.458C326.303 297.829 325.758 298.371 325.356 299.083C324.962 299.795 324.765 300.659 324.765 301.674ZM362.353 298.628L359.944 299.31C359.793 298.909 359.569 298.519 359.274 298.14C358.986 297.753 358.592 297.435 358.092 297.185C357.592 296.935 356.952 296.81 356.172 296.81C355.103 296.81 354.213 297.056 353.501 297.549C352.797 298.034 352.444 298.651 352.444 299.401C352.444 300.068 352.687 300.594 353.172 300.981C353.656 301.367 354.414 301.689 355.444 301.947L358.035 302.583C359.596 302.962 360.759 303.541 361.524 304.322C362.289 305.094 362.672 306.09 362.672 307.31C362.672 308.31 362.384 309.204 361.808 309.992C361.24 310.78 360.444 311.401 359.422 311.856C358.399 312.31 357.209 312.537 355.853 312.537C354.073 312.537 352.6 312.151 351.433 311.378C350.266 310.606 349.528 309.477 349.217 307.992L351.762 307.356C352.005 308.295 352.463 309 353.137 309.469C353.819 309.939 354.709 310.174 355.808 310.174C357.058 310.174 358.05 309.909 358.785 309.378C359.528 308.84 359.899 308.197 359.899 307.447C359.899 306.84 359.687 306.333 359.262 305.924C358.838 305.507 358.187 305.197 357.308 304.992L354.399 304.31C352.8 303.931 351.626 303.344 350.876 302.549C350.134 301.746 349.762 300.742 349.762 299.537C349.762 298.553 350.039 297.681 350.592 296.924C351.153 296.166 351.914 295.572 352.876 295.14C353.846 294.708 354.944 294.492 356.172 294.492C357.899 294.492 359.255 294.871 360.24 295.628C361.232 296.386 361.937 297.386 362.353 298.628ZM373.799 312.537C372.224 312.537 370.841 312.162 369.652 311.412C368.47 310.662 367.546 309.613 366.879 308.265C366.22 306.916 365.89 305.34 365.89 303.537C365.89 301.719 366.22 300.132 366.879 298.776C367.546 297.42 368.47 296.367 369.652 295.617C370.841 294.867 372.224 294.492 373.799 294.492C375.375 294.492 376.754 294.867 377.936 295.617C379.125 296.367 380.049 297.42 380.708 298.776C381.375 300.132 381.708 301.719 381.708 303.537C381.708 305.34 381.375 306.916 380.708 308.265C380.049 309.613 379.125 310.662 377.936 311.412C376.754 312.162 375.375 312.537 373.799 312.537ZM373.799 310.128C374.996 310.128 375.981 309.822 376.754 309.208C377.527 308.594 378.099 307.787 378.47 306.787C378.841 305.787 379.027 304.704 379.027 303.537C379.027 302.371 378.841 301.284 378.47 300.276C378.099 299.269 377.527 298.454 376.754 297.833C375.981 297.212 374.996 296.901 373.799 296.901C372.602 296.901 371.618 297.212 370.845 297.833C370.072 298.454 369.5 299.269 369.129 300.276C368.758 301.284 368.572 302.371 368.572 303.537C368.572 304.704 368.758 305.787 369.129 306.787C369.5 307.787 370.072 308.594 370.845 309.208C371.618 309.822 372.602 310.128 373.799 310.128ZM396.802 305.037V294.719H399.484V312.174H396.802V309.219H396.62C396.211 310.106 395.575 310.859 394.711 311.481C393.848 312.094 392.757 312.401 391.439 312.401C390.348 312.401 389.378 312.162 388.529 311.685C387.681 311.2 387.014 310.473 386.529 309.503C386.045 308.526 385.802 307.295 385.802 305.81V294.719H388.484V305.628C388.484 306.901 388.84 307.916 389.552 308.674C390.272 309.431 391.189 309.81 392.302 309.81C392.969 309.81 393.647 309.64 394.336 309.299C395.033 308.958 395.617 308.435 396.086 307.731C396.564 307.026 396.802 306.128 396.802 305.037ZM404.396 312.174V294.719H406.987V297.356H407.169C407.487 296.492 408.063 295.791 408.896 295.253C409.729 294.715 410.669 294.447 411.714 294.447C411.911 294.447 412.157 294.45 412.453 294.458C412.748 294.465 412.972 294.477 413.123 294.492V297.219C413.032 297.197 412.824 297.162 412.498 297.117C412.18 297.064 411.843 297.037 411.487 297.037C410.638 297.037 409.881 297.215 409.214 297.572C408.555 297.92 408.032 298.405 407.646 299.026C407.267 299.64 407.078 300.34 407.078 301.128V312.174H404.396ZM422.862 312.537C421.225 312.537 419.816 312.151 418.635 311.378C417.453 310.606 416.544 309.541 415.907 308.185C415.271 306.829 414.953 305.28 414.953 303.537C414.953 301.765 415.279 300.2 415.93 298.844C416.589 297.481 417.506 296.416 418.68 295.651C419.862 294.878 421.241 294.492 422.816 294.492C424.044 294.492 425.15 294.719 426.135 295.174C427.119 295.628 427.926 296.265 428.555 297.083C429.184 297.901 429.574 298.856 429.725 299.947H427.044C426.839 299.151 426.385 298.447 425.68 297.833C424.983 297.212 424.044 296.901 422.862 296.901C421.816 296.901 420.9 297.174 420.112 297.719C419.332 298.257 418.722 299.019 418.282 300.003C417.85 300.981 417.635 302.128 417.635 303.447C417.635 304.795 417.847 305.969 418.271 306.969C418.703 307.969 419.309 308.746 420.089 309.299C420.877 309.852 421.801 310.128 422.862 310.128C423.559 310.128 424.191 310.007 424.76 309.765C425.328 309.522 425.809 309.174 426.203 308.719C426.597 308.265 426.877 307.719 427.044 307.083H429.725C429.574 308.113 429.199 309.041 428.6 309.867C428.01 310.685 427.225 311.337 426.248 311.822C425.279 312.299 424.15 312.537 422.862 312.537ZM440.964 312.537C439.282 312.537 437.832 312.166 436.612 311.424C435.4 310.674 434.464 309.628 433.805 308.287C433.154 306.939 432.828 305.371 432.828 303.583C432.828 301.795 433.154 300.219 433.805 298.856C434.464 297.484 435.381 296.416 436.555 295.651C437.737 294.878 439.116 294.492 440.691 294.492C441.6 294.492 442.498 294.644 443.385 294.947C444.271 295.25 445.078 295.742 445.805 296.424C446.532 297.098 447.112 297.992 447.544 299.106C447.975 300.219 448.191 301.59 448.191 303.219V304.356H434.737V302.037H445.464C445.464 301.053 445.267 300.174 444.873 299.401C444.487 298.628 443.934 298.019 443.214 297.572C442.502 297.125 441.661 296.901 440.691 296.901C439.623 296.901 438.699 297.166 437.919 297.697C437.146 298.219 436.551 298.901 436.135 299.742C435.718 300.583 435.51 301.484 435.51 302.447V303.992C435.51 305.31 435.737 306.428 436.191 307.344C436.654 308.253 437.294 308.947 438.112 309.424C438.93 309.894 439.881 310.128 440.964 310.128C441.669 310.128 442.305 310.03 442.873 309.833C443.449 309.628 443.945 309.325 444.362 308.924C444.779 308.515 445.1 308.007 445.328 307.401L447.919 308.128C447.646 309.007 447.188 309.78 446.544 310.447C445.9 311.106 445.104 311.621 444.157 311.992C443.21 312.356 442.146 312.537 440.964 312.537ZM473.635 298.628L471.225 299.31C471.074 298.909 470.85 298.519 470.555 298.14C470.267 297.753 469.873 297.435 469.373 297.185C468.873 296.935 468.233 296.81 467.453 296.81C466.385 296.81 465.494 297.056 464.782 297.549C464.078 298.034 463.725 298.651 463.725 299.401C463.725 300.068 463.968 300.594 464.453 300.981C464.938 301.367 465.695 301.689 466.725 301.947L469.316 302.583C470.877 302.962 472.04 303.541 472.805 304.322C473.57 305.094 473.953 306.09 473.953 307.31C473.953 308.31 473.665 309.204 473.089 309.992C472.521 310.78 471.725 311.401 470.703 311.856C469.68 312.31 468.491 312.537 467.135 312.537C465.354 312.537 463.881 312.151 462.714 311.378C461.547 310.606 460.809 309.477 460.498 307.992L463.044 307.356C463.286 308.295 463.744 309 464.419 309.469C465.1 309.939 465.991 310.174 467.089 310.174C468.339 310.174 469.332 309.909 470.066 309.378C470.809 308.84 471.18 308.197 471.18 307.447C471.18 306.84 470.968 306.333 470.544 305.924C470.119 305.507 469.468 305.197 468.589 304.992L465.68 304.31C464.082 303.931 462.907 303.344 462.157 302.549C461.415 301.746 461.044 300.742 461.044 299.537C461.044 298.553 461.32 297.681 461.873 296.924C462.434 296.166 463.195 295.572 464.157 295.14C465.127 294.708 466.225 294.492 467.453 294.492C469.18 294.492 470.536 294.871 471.521 295.628C472.513 296.386 473.218 297.386 473.635 298.628ZM485.308 312.537C483.626 312.537 482.175 312.166 480.956 311.424C479.743 310.674 478.808 309.628 478.149 308.287C477.497 306.939 477.172 305.371 477.172 303.583C477.172 301.795 477.497 300.219 478.149 298.856C478.808 297.484 479.725 296.416 480.899 295.651C482.081 294.878 483.459 294.492 485.035 294.492C485.944 294.492 486.842 294.644 487.728 294.947C488.615 295.25 489.422 295.742 490.149 296.424C490.876 297.098 491.456 297.992 491.887 299.106C492.319 300.219 492.535 301.59 492.535 303.219V304.356H479.081V302.037H489.808C489.808 301.053 489.611 300.174 489.217 299.401C488.831 298.628 488.278 298.019 487.558 297.572C486.846 297.125 486.005 296.901 485.035 296.901C483.967 296.901 483.043 297.166 482.262 297.697C481.49 298.219 480.895 298.901 480.478 299.742C480.062 300.583 479.853 301.484 479.853 302.447V303.992C479.853 305.31 480.081 306.428 480.535 307.344C480.997 308.253 481.637 308.947 482.456 309.424C483.274 309.894 484.225 310.128 485.308 310.128C486.012 310.128 486.649 310.03 487.217 309.833C487.793 309.628 488.289 309.325 488.706 308.924C489.122 308.515 489.444 308.007 489.672 307.401L492.262 308.128C491.99 309.007 491.531 309.78 490.887 310.447C490.243 311.106 489.448 311.621 488.501 311.992C487.554 312.356 486.49 312.537 485.308 312.537ZM504.206 294.719V296.992H495.16V294.719H504.206ZM497.797 290.537H500.478V307.174C500.478 307.931 500.588 308.5 500.808 308.878C501.035 309.25 501.323 309.5 501.672 309.628C502.028 309.75 502.403 309.81 502.797 309.81C503.092 309.81 503.334 309.795 503.524 309.765C503.713 309.727 503.865 309.697 503.978 309.674L504.524 312.083C504.342 312.151 504.088 312.219 503.762 312.287C503.437 312.363 503.024 312.401 502.524 312.401C501.766 312.401 501.024 312.238 500.297 311.912C499.577 311.587 498.978 311.09 498.501 310.424C498.031 309.757 497.797 308.916 497.797 307.901V290.537ZM520.291 298.628L517.882 299.31C517.73 298.909 517.507 298.519 517.211 298.14C516.923 297.753 516.529 297.435 516.029 297.185C515.529 296.935 514.889 296.81 514.109 296.81C513.041 296.81 512.151 297.056 511.439 297.549C510.734 298.034 510.382 298.651 510.382 299.401C510.382 300.068 510.624 300.594 511.109 300.981C511.594 301.367 512.351 301.689 513.382 301.947L515.973 302.583C517.533 302.962 518.696 303.541 519.461 304.322C520.226 305.094 520.609 306.09 520.609 307.31C520.609 308.31 520.321 309.204 519.745 309.992C519.177 310.78 518.382 311.401 517.359 311.856C516.336 312.31 515.147 312.537 513.791 312.537C512.011 312.537 510.537 312.151 509.37 311.378C508.204 310.606 507.465 309.477 507.154 307.992L509.7 307.356C509.942 308.295 510.401 309 511.075 309.469C511.757 309.939 512.647 310.174 513.745 310.174C514.995 310.174 515.988 309.909 516.723 309.378C517.465 308.84 517.836 308.197 517.836 307.447C517.836 306.84 517.624 306.333 517.2 305.924C516.776 305.507 516.124 305.197 515.245 304.992L512.336 304.31C510.738 303.931 509.564 303.344 508.814 302.549C508.071 301.746 507.7 300.742 507.7 299.537C507.7 298.553 507.976 297.681 508.529 296.924C509.09 296.166 509.851 295.572 510.814 295.14C511.783 294.708 512.882 294.492 514.109 294.492C515.836 294.492 517.192 294.871 518.177 295.628C519.17 296.386 519.874 297.386 520.291 298.628ZM546.01 298.628L543.6 299.31C543.449 298.909 543.225 298.519 542.93 298.14C542.642 297.753 542.248 297.435 541.748 297.185C541.248 296.935 540.608 296.81 539.828 296.81C538.76 296.81 537.869 297.056 537.157 297.549C536.453 298.034 536.1 298.651 536.1 299.401C536.1 300.068 536.343 300.594 536.828 300.981C537.313 301.367 538.07 301.689 539.1 301.947L541.691 302.583C543.252 302.962 544.415 303.541 545.18 304.322C545.945 305.094 546.328 306.09 546.328 307.31C546.328 308.31 546.04 309.204 545.464 309.992C544.896 310.78 544.1 311.401 543.078 311.856C542.055 312.31 540.866 312.537 539.51 312.537C537.729 312.537 536.256 312.151 535.089 311.378C533.922 310.606 533.184 309.477 532.873 307.992L535.419 307.356C535.661 308.295 536.119 309 536.794 309.469C537.475 309.939 538.366 310.174 539.464 310.174C540.714 310.174 541.707 309.909 542.441 309.378C543.184 308.84 543.555 308.197 543.555 307.447C543.555 306.84 543.343 306.333 542.919 305.924C542.494 305.507 541.843 305.197 540.964 304.992L538.055 304.31C536.457 303.931 535.282 303.344 534.532 302.549C533.79 301.746 533.419 300.742 533.419 299.537C533.419 298.553 533.695 297.681 534.248 296.924C534.809 296.166 535.57 295.572 536.532 295.14C537.502 294.708 538.6 294.492 539.828 294.492C541.555 294.492 542.911 294.871 543.896 295.628C544.888 296.386 545.593 297.386 546.01 298.628ZM557.456 312.537C555.88 312.537 554.497 312.162 553.308 311.412C552.126 310.662 551.202 309.613 550.535 308.265C549.876 306.916 549.547 305.34 549.547 303.537C549.547 301.719 549.876 300.132 550.535 298.776C551.202 297.42 552.126 296.367 553.308 295.617C554.497 294.867 555.88 294.492 557.456 294.492C559.031 294.492 560.41 294.867 561.592 295.617C562.781 296.367 563.706 297.42 564.365 298.776C565.031 300.132 565.365 301.719 565.365 303.537C565.365 305.34 565.031 306.916 564.365 308.265C563.706 309.613 562.781 310.662 561.592 311.412C560.41 312.162 559.031 312.537 557.456 312.537ZM557.456 310.128C558.653 310.128 559.637 309.822 560.41 309.208C561.183 308.594 561.755 307.787 562.126 306.787C562.497 305.787 562.683 304.704 562.683 303.537C562.683 302.371 562.497 301.284 562.126 300.276C561.755 299.269 561.183 298.454 560.41 297.833C559.637 297.212 558.653 296.901 557.456 296.901C556.259 296.901 555.274 297.212 554.501 297.833C553.728 298.454 553.156 299.269 552.785 300.276C552.414 301.284 552.228 302.371 552.228 303.537C552.228 304.704 552.414 305.787 552.785 306.787C553.156 307.787 553.728 308.594 554.501 309.208C555.274 309.822 556.259 310.128 557.456 310.128ZM580.458 305.037V294.719H583.14V312.174H580.458V309.219H580.277C579.868 310.106 579.231 310.859 578.368 311.481C577.504 312.094 576.413 312.401 575.095 312.401C574.004 312.401 573.034 312.162 572.186 311.685C571.337 311.2 570.671 310.473 570.186 309.503C569.701 308.526 569.458 307.295 569.458 305.81V294.719H572.14V305.628C572.14 306.901 572.496 307.916 573.208 308.674C573.928 309.431 574.845 309.81 575.958 309.81C576.625 309.81 577.303 309.64 577.993 309.299C578.69 308.958 579.273 308.435 579.743 307.731C580.22 307.026 580.458 306.128 580.458 305.037ZM590.734 301.674V312.174H588.052V294.719H590.643V297.447H590.87C591.279 296.56 591.901 295.848 592.734 295.31C593.567 294.765 594.643 294.492 595.961 294.492C597.143 294.492 598.177 294.734 599.064 295.219C599.95 295.697 600.639 296.424 601.132 297.401C601.624 298.371 601.87 299.598 601.87 301.083V312.174H599.189V301.265C599.189 299.894 598.833 298.825 598.12 298.06C597.408 297.287 596.431 296.901 595.189 296.901C594.333 296.901 593.567 297.087 592.893 297.458C592.226 297.829 591.7 298.371 591.314 299.083C590.927 299.795 590.734 300.659 590.734 301.674ZM613.362 312.537C611.907 312.537 610.623 312.17 609.51 311.435C608.396 310.693 607.525 309.647 606.896 308.299C606.267 306.943 605.953 305.34 605.953 303.492C605.953 301.659 606.267 300.068 606.896 298.719C607.525 297.371 608.4 296.329 609.521 295.594C610.642 294.859 611.938 294.492 613.407 294.492C614.544 294.492 615.441 294.681 616.1 295.06C616.767 295.431 617.275 295.856 617.623 296.333C617.979 296.803 618.256 297.189 618.453 297.492H618.68V288.901H621.362V312.174H618.771V309.492H618.453C618.256 309.81 617.975 310.212 617.612 310.697C617.248 311.174 616.729 311.602 616.055 311.981C615.381 312.352 614.483 312.537 613.362 312.537ZM613.725 310.128C614.801 310.128 615.71 309.848 616.453 309.287C617.195 308.719 617.76 307.935 618.146 306.935C618.532 305.928 618.725 304.765 618.725 303.447C618.725 302.144 618.536 301.003 618.157 300.026C617.779 299.041 617.218 298.276 616.475 297.731C615.733 297.178 614.816 296.901 613.725 296.901C612.589 296.901 611.642 297.193 610.885 297.776C610.135 298.352 609.57 299.136 609.191 300.128C608.82 301.113 608.635 302.219 608.635 303.447C608.635 304.689 608.824 305.818 609.203 306.833C609.589 307.84 610.157 308.644 610.907 309.242C611.665 309.833 612.604 310.128 613.725 310.128ZM640.782 312.583C639.676 312.583 638.672 312.375 637.771 311.958C636.869 311.534 636.154 310.924 635.623 310.128C635.093 309.325 634.828 308.356 634.828 307.219C634.828 306.219 635.025 305.409 635.419 304.787C635.813 304.159 636.339 303.666 636.998 303.31C637.657 302.954 638.385 302.689 639.18 302.515C639.983 302.333 640.79 302.189 641.6 302.083C642.661 301.947 643.521 301.844 644.18 301.776C644.847 301.7 645.332 301.575 645.635 301.401C645.945 301.227 646.1 300.924 646.1 300.492V300.401C646.1 299.28 645.794 298.409 645.18 297.787C644.574 297.166 643.654 296.856 642.419 296.856C641.138 296.856 640.135 297.136 639.407 297.697C638.68 298.257 638.169 298.856 637.873 299.492L635.328 298.583C635.782 297.522 636.388 296.697 637.146 296.106C637.911 295.507 638.744 295.09 639.646 294.856C640.555 294.613 641.449 294.492 642.328 294.492C642.888 294.492 643.532 294.56 644.26 294.697C644.994 294.825 645.703 295.094 646.385 295.503C647.074 295.912 647.646 296.53 648.1 297.356C648.555 298.181 648.782 299.287 648.782 300.674V312.174H646.1V309.81H645.964C645.782 310.189 645.479 310.594 645.055 311.026C644.631 311.458 644.066 311.825 643.362 312.128C642.657 312.431 641.797 312.583 640.782 312.583ZM641.191 310.174C642.252 310.174 643.146 309.965 643.873 309.549C644.608 309.132 645.161 308.594 645.532 307.935C645.911 307.276 646.1 306.583 646.1 305.856V303.401C645.987 303.537 645.737 303.662 645.35 303.776C644.972 303.882 644.532 303.977 644.032 304.06C643.54 304.136 643.059 304.204 642.589 304.265C642.127 304.318 641.752 304.363 641.464 304.401C640.767 304.492 640.116 304.64 639.51 304.844C638.911 305.041 638.426 305.34 638.055 305.742C637.691 306.136 637.51 306.674 637.51 307.356C637.51 308.287 637.854 308.992 638.544 309.469C639.241 309.939 640.123 310.174 641.191 310.174ZM656.359 301.674V312.174H653.677V294.719H656.268V297.447H656.495C656.904 296.56 657.526 295.848 658.359 295.31C659.192 294.765 660.268 294.492 661.586 294.492C662.768 294.492 663.802 294.734 664.689 295.219C665.575 295.697 666.264 296.424 666.757 297.401C667.249 298.371 667.495 299.598 667.495 301.083V312.174H664.814V301.265C664.814 299.894 664.458 298.825 663.745 298.06C663.033 297.287 662.056 296.901 660.814 296.901C659.958 296.901 659.192 297.087 658.518 297.458C657.851 297.829 657.325 298.371 656.939 299.083C656.552 299.795 656.359 300.659 656.359 301.674ZM678.987 312.537C677.532 312.537 676.248 312.17 675.135 311.435C674.021 310.693 673.15 309.647 672.521 308.299C671.892 306.943 671.578 305.34 671.578 303.492C671.578 301.659 671.892 300.068 672.521 298.719C673.15 297.371 674.025 296.329 675.146 295.594C676.267 294.859 677.563 294.492 679.032 294.492C680.169 294.492 681.066 294.681 681.725 295.06C682.392 295.431 682.9 295.856 683.248 296.333C683.604 296.803 683.881 297.189 684.078 297.492H684.305V288.901H686.987V312.174H684.396V309.492H684.078C683.881 309.81 683.6 310.212 683.237 310.697C682.873 311.174 682.354 311.602 681.68 311.981C681.006 312.352 680.108 312.537 678.987 312.537ZM679.35 310.128C680.426 310.128 681.335 309.848 682.078 309.287C682.82 308.719 683.385 307.935 683.771 306.935C684.157 305.928 684.35 304.765 684.35 303.447C684.35 302.144 684.161 301.003 683.782 300.026C683.404 299.041 682.843 298.276 682.1 297.731C681.358 297.178 680.441 296.901 679.35 296.901C678.214 296.901 677.267 297.193 676.51 297.776C675.76 298.352 675.195 299.136 674.816 300.128C674.445 301.113 674.26 302.219 674.26 303.447C674.26 304.689 674.449 305.818 674.828 306.833C675.214 307.84 675.782 308.644 676.532 309.242C677.29 309.833 678.229 310.128 679.35 310.128ZM708.362 312.537C706.725 312.537 705.316 312.151 704.135 311.378C702.953 310.606 702.044 309.541 701.407 308.185C700.771 306.829 700.453 305.28 700.453 303.537C700.453 301.765 700.779 300.2 701.43 298.844C702.089 297.481 703.006 296.416 704.18 295.651C705.362 294.878 706.741 294.492 708.316 294.492C709.544 294.492 710.65 294.719 711.635 295.174C712.619 295.628 713.426 296.265 714.055 297.083C714.684 297.901 715.074 298.856 715.225 299.947H712.544C712.339 299.151 711.885 298.447 711.18 297.833C710.483 297.212 709.544 296.901 708.362 296.901C707.316 296.901 706.4 297.174 705.612 297.719C704.832 298.257 704.222 299.019 703.782 300.003C703.35 300.981 703.135 302.128 703.135 303.447C703.135 304.795 703.347 305.969 703.771 306.969C704.203 307.969 704.809 308.746 705.589 309.299C706.377 309.852 707.301 310.128 708.362 310.128C709.059 310.128 709.691 310.007 710.26 309.765C710.828 309.522 711.309 309.174 711.703 308.719C712.097 308.265 712.377 307.719 712.544 307.083H715.225C715.074 308.113 714.699 309.041 714.1 309.867C713.51 310.685 712.725 311.337 711.748 311.822C710.779 312.299 709.65 312.537 708.362 312.537ZM726.237 312.537C724.661 312.537 723.279 312.162 722.089 311.412C720.907 310.662 719.983 309.613 719.316 308.265C718.657 306.916 718.328 305.34 718.328 303.537C718.328 301.719 718.657 300.132 719.316 298.776C719.983 297.42 720.907 296.367 722.089 295.617C723.279 294.867 724.661 294.492 726.237 294.492C727.813 294.492 729.191 294.867 730.373 295.617C731.563 296.367 732.487 297.42 733.146 298.776C733.813 300.132 734.146 301.719 734.146 303.537C734.146 305.34 733.813 306.916 733.146 308.265C732.487 309.613 731.563 310.662 730.373 311.412C729.191 312.162 727.813 312.537 726.237 312.537ZM726.237 310.128C727.434 310.128 728.419 309.822 729.191 309.208C729.964 308.594 730.536 307.787 730.907 306.787C731.279 305.787 731.464 304.704 731.464 303.537C731.464 302.371 731.279 301.284 730.907 300.276C730.536 299.269 729.964 298.454 729.191 297.833C728.419 297.212 727.434 296.901 726.237 296.901C725.04 296.901 724.055 297.212 723.282 297.833C722.51 298.454 721.938 299.269 721.566 300.276C721.195 301.284 721.01 302.371 721.01 303.537C721.01 304.704 721.195 305.787 721.566 306.787C721.938 307.787 722.51 308.594 723.282 309.208C724.055 309.822 725.04 310.128 726.237 310.128ZM738.24 312.174V294.719H740.831V297.447H741.058C741.422 296.515 742.009 295.791 742.819 295.276C743.63 294.753 744.603 294.492 745.74 294.492C746.891 294.492 747.85 294.753 748.615 295.276C749.387 295.791 749.99 296.515 750.422 297.447H750.603C751.05 296.545 751.721 295.829 752.615 295.299C753.509 294.761 754.581 294.492 755.831 294.492C757.391 294.492 758.668 294.981 759.66 295.958C760.653 296.928 761.149 298.439 761.149 300.492V312.174H758.467V300.492C758.467 299.204 758.115 298.284 757.41 297.731C756.706 297.178 755.876 296.901 754.922 296.901C753.694 296.901 752.743 297.272 752.069 298.015C751.395 298.75 751.058 299.681 751.058 300.81V312.174H748.331V300.219C748.331 299.227 748.009 298.428 747.365 297.822C746.721 297.208 745.891 296.901 744.876 296.901C744.179 296.901 743.528 297.087 742.922 297.458C742.323 297.829 741.838 298.344 741.467 299.003C741.103 299.655 740.922 300.409 740.922 301.265V312.174H738.24ZM766.052 318.719V294.719H768.643V297.492H768.961C769.158 297.189 769.431 296.803 769.779 296.333C770.136 295.856 770.643 295.431 771.302 295.06C771.969 294.681 772.87 294.492 774.007 294.492C775.476 294.492 776.772 294.859 777.893 295.594C779.014 296.329 779.889 297.371 780.518 298.719C781.147 300.068 781.461 301.659 781.461 303.492C781.461 305.34 781.147 306.943 780.518 308.299C779.889 309.647 779.018 310.693 777.904 311.435C776.791 312.17 775.507 312.537 774.052 312.537C772.931 312.537 772.033 312.352 771.359 311.981C770.685 311.602 770.166 311.174 769.802 310.697C769.439 310.212 769.158 309.81 768.961 309.492H768.734V318.719H766.052ZM768.689 303.447C768.689 304.765 768.882 305.928 769.268 306.935C769.654 307.935 770.219 308.719 770.961 309.287C771.704 309.848 772.613 310.128 773.689 310.128C774.81 310.128 775.745 309.833 776.495 309.242C777.253 308.644 777.821 307.84 778.2 306.833C778.586 305.818 778.779 304.689 778.779 303.447C778.779 302.219 778.59 301.113 778.211 300.128C777.84 299.136 777.276 298.352 776.518 297.776C775.768 297.193 774.825 296.901 773.689 296.901C772.598 296.901 771.681 297.178 770.939 297.731C770.196 298.276 769.636 299.041 769.257 300.026C768.878 301.003 768.689 302.144 768.689 303.447ZM788.234 288.901V312.174H785.552V288.901H788.234ZM800.464 312.537C798.782 312.537 797.332 312.166 796.112 311.424C794.9 310.674 793.964 309.628 793.305 308.287C792.654 306.939 792.328 305.371 792.328 303.583C792.328 301.795 792.654 300.219 793.305 298.856C793.964 297.484 794.881 296.416 796.055 295.651C797.237 294.878 798.616 294.492 800.191 294.492C801.1 294.492 801.998 294.644 802.885 294.947C803.771 295.25 804.578 295.742 805.305 296.424C806.032 297.098 806.612 297.992 807.044 299.106C807.475 300.219 807.691 301.59 807.691 303.219V304.356H794.237V302.037H804.964C804.964 301.053 804.767 300.174 804.373 299.401C803.987 298.628 803.434 298.019 802.714 297.572C802.002 297.125 801.161 296.901 800.191 296.901C799.123 296.901 798.199 297.166 797.419 297.697C796.646 298.219 796.051 298.901 795.635 299.742C795.218 300.583 795.01 301.484 795.01 302.447V303.992C795.01 305.31 795.237 306.428 795.691 307.344C796.154 308.253 796.794 308.947 797.612 309.424C798.43 309.894 799.381 310.128 800.464 310.128C801.169 310.128 801.805 310.03 802.373 309.833C802.949 309.628 803.445 309.325 803.862 308.924C804.279 308.515 804.6 308.007 804.828 307.401L807.419 308.128C807.146 309.007 806.688 309.78 806.044 310.447C805.4 311.106 804.604 311.621 803.657 311.992C802.71 312.356 801.646 312.537 800.464 312.537ZM819.362 294.719V296.992H810.316V294.719H819.362ZM812.953 290.537H815.635V307.174C815.635 307.931 815.744 308.5 815.964 308.878C816.191 309.25 816.479 309.5 816.828 309.628C817.184 309.75 817.559 309.81 817.953 309.81C818.248 309.81 818.491 309.795 818.68 309.765C818.869 309.727 819.021 309.697 819.135 309.674L819.68 312.083C819.498 312.151 819.244 312.219 818.919 312.287C818.593 312.363 818.18 312.401 817.68 312.401C816.922 312.401 816.18 312.238 815.453 311.912C814.733 311.587 814.135 311.09 813.657 310.424C813.188 309.757 812.953 308.916 812.953 307.901V290.537ZM830.527 312.537C828.845 312.537 827.394 312.166 826.174 311.424C824.962 310.674 824.027 309.628 823.368 308.287C822.716 306.939 822.39 305.371 822.39 303.583C822.39 301.795 822.716 300.219 823.368 298.856C824.027 297.484 824.943 296.416 826.118 295.651C827.299 294.878 828.678 294.492 830.254 294.492C831.163 294.492 832.061 294.644 832.947 294.947C833.833 295.25 834.64 295.742 835.368 296.424C836.095 297.098 836.674 297.992 837.106 299.106C837.538 300.219 837.754 301.59 837.754 303.219V304.356H824.299V302.037H835.027C835.027 301.053 834.83 300.174 834.436 299.401C834.049 298.628 833.496 298.019 832.777 297.572C832.065 297.125 831.224 296.901 830.254 296.901C829.186 296.901 828.261 297.166 827.481 297.697C826.708 298.219 826.114 298.901 825.697 299.742C825.28 300.583 825.072 301.484 825.072 302.447V303.992C825.072 305.31 825.299 306.428 825.754 307.344C826.216 308.253 826.856 308.947 827.674 309.424C828.493 309.894 829.443 310.128 830.527 310.128C831.231 310.128 831.868 310.03 832.436 309.833C833.011 309.628 833.508 309.325 833.924 308.924C834.341 308.515 834.663 308.007 834.89 307.401L837.481 308.128C837.208 309.007 836.75 309.78 836.106 310.447C835.462 311.106 834.667 311.621 833.72 311.992C832.773 312.356 831.708 312.537 830.527 312.537Z" fill="black"/>
</g>
</svg>
