<svg width="1920" height="1080" viewBox="0 0 1920 1080" fill="none" xmlns="http://www.w3.org/2000/svg">
<g id="stateless">
<rect width="1920" height="1080" fill="white"/>
<path id="Stateless" d="M800.837 82.8951C800.656 81.0618 799.875 79.6375 798.497 78.6224C797.118 77.6072 795.247 77.0997 792.883 77.0997C791.277 77.0997 789.921 77.3269 788.815 77.7815C787.709 78.2209 786.86 78.8345 786.269 79.6224C785.694 80.4103 785.406 81.3042 785.406 82.3042C785.375 83.1375 785.55 83.8648 785.928 84.486C786.322 85.1072 786.86 85.6451 787.542 86.0997C788.224 86.539 789.012 86.9254 789.906 87.2587C790.8 87.5769 791.754 87.8497 792.769 88.0769L796.951 89.0769C798.981 89.5315 800.845 90.1375 802.542 90.8951C804.239 91.6527 805.709 92.5845 806.951 93.6906C808.194 94.7966 809.156 96.0997 809.837 97.5997C810.534 99.0997 810.89 100.819 810.906 102.759C810.89 105.607 810.163 108.077 808.724 110.168C807.3 112.244 805.239 113.857 802.542 115.009C799.86 116.145 796.625 116.713 792.837 116.713C789.08 116.713 785.807 116.138 783.019 114.986C780.247 113.835 778.08 112.13 776.519 109.872C774.974 107.6 774.163 104.789 774.087 101.441H783.61C783.716 103.001 784.163 104.304 784.951 105.35C785.754 106.38 786.822 107.16 788.156 107.691C789.504 108.206 791.027 108.463 792.724 108.463C794.39 108.463 795.837 108.221 797.065 107.736C798.307 107.251 799.269 106.577 799.951 105.713C800.633 104.85 800.974 103.857 800.974 102.736C800.974 101.691 800.663 100.812 800.042 100.1C799.436 99.3875 798.542 98.7815 797.36 98.2815C796.194 97.7815 794.762 97.3269 793.065 96.9178L787.997 95.6451C784.072 94.6906 780.974 93.1981 778.701 91.1678C776.428 89.1375 775.3 86.4027 775.315 82.9633C775.3 80.1451 776.05 77.683 777.565 75.5769C779.095 73.4709 781.194 71.8269 783.86 70.6451C786.527 69.4633 789.557 68.8724 792.951 68.8724C796.406 68.8724 799.421 69.4633 801.997 70.6451C804.587 71.8269 806.603 73.4709 808.042 75.5769C809.481 77.683 810.224 80.1224 810.269 82.8951H800.837ZM835.911 81.1451V88.4178H814.889V81.1451H835.911ZM819.661 72.7815H829.343V105.327C829.343 106.221 829.479 106.918 829.752 107.418C830.025 107.903 830.404 108.244 830.889 108.441C831.389 108.638 831.964 108.736 832.616 108.736C833.07 108.736 833.525 108.698 833.979 108.622C834.434 108.531 834.783 108.463 835.025 108.418L836.548 115.622C836.063 115.774 835.381 115.948 834.502 116.145C833.623 116.357 832.555 116.486 831.298 116.531C828.964 116.622 826.919 116.312 825.161 115.6C823.419 114.888 822.063 113.781 821.093 112.281C820.123 110.781 819.646 108.888 819.661 106.6V72.7815ZM852.173 116.713C849.945 116.713 847.961 116.327 846.218 115.554C844.476 114.766 843.097 113.607 842.082 112.077C841.082 110.531 840.582 108.607 840.582 106.304C840.582 104.365 840.938 102.736 841.65 101.418C842.362 100.1 843.332 99.039 844.559 98.236C845.786 97.433 847.18 96.8269 848.741 96.4178C850.317 96.0087 851.968 95.7209 853.695 95.5542C855.726 95.3421 857.362 95.1451 858.604 94.9633C859.847 94.7663 860.748 94.4784 861.309 94.0997C861.87 93.7209 862.15 93.1603 862.15 92.4178V92.2815C862.15 90.8421 861.695 89.7284 860.786 88.9406C859.892 88.1527 858.62 87.7587 856.968 87.7587C855.226 87.7587 853.839 88.1451 852.809 88.9178C851.779 89.6754 851.097 90.63 850.764 91.7815L841.809 91.0542C842.264 88.933 843.158 87.0997 844.491 85.5542C845.824 83.9936 847.544 82.7966 849.65 81.9633C851.771 81.1148 854.226 80.6906 857.014 80.6906C858.953 80.6906 860.809 80.9178 862.582 81.3724C864.37 81.8269 865.953 82.5315 867.332 83.486C868.726 84.4406 869.824 85.6678 870.627 87.1678C871.43 88.6527 871.832 90.433 871.832 92.5087V116.054H862.65V111.213H862.377C861.817 112.304 861.067 113.266 860.127 114.1C859.188 114.918 858.059 115.562 856.741 116.031C855.423 116.486 853.9 116.713 852.173 116.713ZM854.945 110.031C856.37 110.031 857.627 109.751 858.718 109.191C859.809 108.615 860.665 107.842 861.286 106.872C861.908 105.903 862.218 104.804 862.218 103.577V99.8724C861.915 100.069 861.498 100.251 860.968 100.418C860.453 100.569 859.87 100.713 859.218 100.85C858.567 100.971 857.915 101.085 857.264 101.191C856.612 101.281 856.021 101.365 855.491 101.441C854.354 101.607 853.362 101.872 852.514 102.236C851.665 102.6 851.006 103.092 850.536 103.713C850.067 104.319 849.832 105.077 849.832 105.986C849.832 107.304 850.309 108.312 851.264 109.009C852.233 109.691 853.461 110.031 854.945 110.031ZM897.911 81.1451V88.4178H876.889V81.1451H897.911ZM881.661 72.7815H891.343V105.327C891.343 106.221 891.479 106.918 891.752 107.418C892.025 107.903 892.404 108.244 892.889 108.441C893.389 108.638 893.964 108.736 894.616 108.736C895.07 108.736 895.525 108.698 895.979 108.622C896.434 108.531 896.783 108.463 897.025 108.418L898.548 115.622C898.063 115.774 897.381 115.948 896.502 116.145C895.623 116.357 894.555 116.486 893.298 116.531C890.964 116.622 888.919 116.312 887.161 115.6C885.419 114.888 884.063 113.781 883.093 112.281C882.123 110.781 881.646 108.888 881.661 106.6V72.7815ZM919.752 116.736C916.161 116.736 913.07 116.009 910.479 114.554C907.904 113.085 905.919 111.009 904.525 108.327C903.131 105.63 902.434 102.441 902.434 98.7587C902.434 95.1678 903.131 92.0163 904.525 89.3042C905.919 86.5921 907.881 84.4784 910.411 82.9633C912.957 81.4481 915.942 80.6906 919.366 80.6906C921.669 80.6906 923.813 81.0618 925.798 81.8042C927.798 82.5315 929.54 83.63 931.025 85.0997C932.525 86.5694 933.692 88.4178 934.525 90.6451C935.358 92.8572 935.775 95.4481 935.775 98.4178V101.077H906.298V95.0769H926.661C926.661 93.683 926.358 92.4481 925.752 91.3724C925.146 90.2966 924.305 89.4557 923.229 88.8497C922.169 88.2284 920.934 87.9178 919.525 87.9178C918.055 87.9178 916.752 88.2587 915.616 88.9406C914.495 89.6072 913.616 90.5087 912.979 91.6451C912.343 92.7663 912.017 94.0163 912.002 95.3951V101.1C912.002 102.827 912.32 104.319 912.957 105.577C913.608 106.835 914.525 107.804 915.707 108.486C916.889 109.168 918.29 109.509 919.911 109.509C920.987 109.509 921.972 109.357 922.866 109.054C923.76 108.751 924.525 108.297 925.161 107.691C925.798 107.085 926.283 106.342 926.616 105.463L935.57 106.054C935.116 108.206 934.184 110.085 932.775 111.691C931.381 113.281 929.578 114.524 927.366 115.418C925.169 116.297 922.631 116.736 919.752 116.736ZM951.775 69.5087V116.054H942.093V69.5087H951.775ZM975.44 116.736C971.849 116.736 968.758 116.009 966.167 114.554C963.591 113.085 961.606 111.009 960.212 108.327C958.819 105.63 958.122 102.441 958.122 98.7587C958.122 95.1678 958.819 92.0163 960.212 89.3042C961.606 86.5921 963.569 84.4784 966.099 82.9633C968.644 81.4481 971.629 80.6906 975.053 80.6906C977.356 80.6906 979.5 81.0618 981.485 81.8042C983.485 82.5315 985.228 83.63 986.712 85.0997C988.212 86.5694 989.379 88.4178 990.212 90.6451C991.046 92.8572 991.462 95.4481 991.462 98.4178V101.077H961.985V95.0769H982.349C982.349 93.683 982.046 92.4481 981.44 91.3724C980.834 90.2966 979.993 89.4557 978.917 88.8497C977.856 88.2284 976.622 87.9178 975.212 87.9178C973.743 87.9178 972.44 88.2587 971.303 88.9406C970.182 89.6072 969.303 90.5087 968.667 91.6451C968.031 92.7663 967.705 94.0163 967.69 95.3951V101.1C967.69 102.827 968.008 104.319 968.644 105.577C969.296 106.835 970.212 107.804 971.394 108.486C972.576 109.168 973.978 109.509 975.599 109.509C976.675 109.509 977.659 109.357 978.553 109.054C979.447 108.751 980.212 108.297 980.849 107.691C981.485 107.085 981.97 106.342 982.303 105.463L991.258 106.054C990.803 108.206 989.872 110.085 988.462 111.691C987.069 113.281 985.265 114.524 983.053 115.418C980.856 116.297 978.319 116.736 975.44 116.736ZM1026.83 91.0997L1017.96 91.6451C1017.81 90.8875 1017.49 90.2057 1016.99 89.5997C1016.49 88.9784 1015.83 88.486 1015.01 88.1224C1014.2 87.7436 1013.24 87.5542 1012.12 87.5542C1010.62 87.5542 1009.36 87.8724 1008.33 88.5087C1007.3 89.13 1006.78 89.9633 1006.78 91.0087C1006.78 91.8421 1007.11 92.5466 1007.78 93.1224C1008.45 93.6981 1009.59 94.1603 1011.21 94.5087L1017.53 95.7815C1020.92 96.4784 1023.45 97.5997 1025.12 99.1451C1026.79 100.691 1027.62 102.721 1027.62 105.236C1027.62 107.524 1026.95 109.531 1025.6 111.259C1024.27 112.986 1022.43 114.335 1020.1 115.304C1017.78 116.259 1015.11 116.736 1012.08 116.736C1007.45 116.736 1003.77 115.774 1001.03 113.85C998.303 111.91 996.705 109.274 996.235 105.941L1005.76 105.441C1006.05 106.85 1006.74 107.925 1007.85 108.668C1008.95 109.395 1010.37 109.759 1012.1 109.759C1013.8 109.759 1015.16 109.433 1016.19 108.781C1017.24 108.115 1017.77 107.259 1017.78 106.213C1017.77 105.335 1017.39 104.615 1016.67 104.054C1015.94 103.478 1014.82 103.039 1013.3 102.736L1007.26 101.531C1003.85 100.85 1001.31 99.6678 999.644 97.986C997.993 96.3042 997.167 94.1603 997.167 91.5542C997.167 89.3118 997.773 87.38 998.985 85.7587C1000.21 84.1375 1001.93 82.8875 1004.14 82.0087C1006.37 81.13 1008.98 80.6906 1011.96 80.6906C1016.37 80.6906 1019.84 81.6224 1022.37 83.486C1024.92 85.3497 1026.4 87.8875 1026.83 91.0997ZM1062.76 91.0997L1053.9 91.6451C1053.75 90.8875 1053.42 90.2057 1052.92 89.5997C1052.42 88.9784 1051.76 88.486 1050.95 88.1224C1050.14 87.7436 1049.18 87.5542 1048.06 87.5542C1046.56 87.5542 1045.29 87.8724 1044.26 88.5087C1043.23 89.13 1042.72 89.9633 1042.72 91.0087C1042.72 91.8421 1043.05 92.5466 1043.72 93.1224C1044.38 93.6981 1045.53 94.1603 1047.15 94.5087L1053.47 95.7815C1056.86 96.4784 1059.39 97.5997 1061.06 99.1451C1062.73 100.691 1063.56 102.721 1063.56 105.236C1063.56 107.524 1062.88 109.531 1061.54 111.259C1060.2 112.986 1058.37 114.335 1056.04 115.304C1053.72 116.259 1051.04 116.736 1048.01 116.736C1043.39 116.736 1039.71 115.774 1036.97 113.85C1034.24 111.91 1032.64 109.274 1032.17 105.941L1041.7 105.441C1041.98 106.85 1042.68 107.925 1043.79 108.668C1044.89 109.395 1046.31 109.759 1048.04 109.759C1049.73 109.759 1051.1 109.433 1052.13 108.781C1053.17 108.115 1053.7 107.259 1053.72 106.213C1053.7 105.335 1053.33 104.615 1052.6 104.054C1051.88 103.478 1050.76 103.039 1049.24 102.736L1043.2 101.531C1039.79 100.85 1037.25 99.6678 1035.58 97.986C1033.93 96.3042 1033.1 94.1603 1033.1 91.5542C1033.1 89.3118 1033.71 87.38 1034.92 85.7587C1036.15 84.1375 1037.87 82.8875 1040.08 82.0087C1042.31 81.13 1044.92 80.6906 1047.9 80.6906C1052.31 80.6906 1055.78 81.6224 1058.31 83.486C1060.85 85.3497 1062.34 87.8875 1062.76 91.0997Z" fill="black"/>
<path id="Stateless = we only enumerate traces define optimality for stateless" d="M287.97 311.442C287.834 310.29 287.281 309.396 286.311 308.76C285.341 308.124 284.152 307.806 282.743 307.806C281.713 307.806 280.811 307.972 280.038 308.306C279.273 308.639 278.675 309.097 278.243 309.681C277.819 310.264 277.607 310.927 277.607 311.669C277.607 312.29 277.754 312.825 278.05 313.271C278.353 313.711 278.739 314.078 279.209 314.374C279.679 314.662 280.171 314.9 280.686 315.09C281.201 315.271 281.675 315.419 282.107 315.533L284.47 316.169C285.076 316.328 285.751 316.548 286.493 316.828C287.243 317.109 287.959 317.491 288.641 317.976C289.33 318.453 289.898 319.067 290.345 319.817C290.792 320.567 291.016 321.487 291.016 322.578C291.016 323.836 290.686 324.972 290.027 325.987C289.376 327.003 288.421 327.809 287.163 328.408C285.913 329.006 284.395 329.306 282.607 329.306C280.94 329.306 279.497 329.037 278.277 328.499C277.065 327.961 276.11 327.211 275.413 326.249C274.724 325.287 274.334 324.169 274.243 322.896H277.152C277.228 323.775 277.523 324.503 278.038 325.078C278.561 325.646 279.22 326.071 280.016 326.351C280.819 326.624 281.682 326.76 282.607 326.76C283.682 326.76 284.648 326.586 285.504 326.237C286.36 325.881 287.038 325.389 287.538 324.76C288.038 324.124 288.288 323.381 288.288 322.533C288.288 321.76 288.073 321.131 287.641 320.646C287.209 320.162 286.641 319.768 285.936 319.465C285.232 319.162 284.47 318.896 283.652 318.669L280.788 317.851C278.97 317.328 277.531 316.582 276.47 315.612C275.41 314.643 274.879 313.374 274.879 311.806C274.879 310.503 275.232 309.366 275.936 308.396C276.648 307.419 277.603 306.662 278.8 306.124C280.004 305.578 281.349 305.306 282.834 305.306C284.334 305.306 285.667 305.575 286.834 306.112C288.001 306.643 288.925 307.37 289.607 308.294C290.296 309.218 290.66 310.268 290.698 311.442H287.97ZM302.877 311.442V313.715H293.831V311.442H302.877ZM296.467 307.26H299.149V323.896C299.149 324.654 299.259 325.222 299.479 325.601C299.706 325.972 299.994 326.222 300.342 326.351C300.698 326.472 301.073 326.533 301.467 326.533C301.763 326.533 302.005 326.518 302.195 326.487C302.384 326.45 302.536 326.419 302.649 326.396L303.195 328.806C303.013 328.874 302.759 328.942 302.433 329.01C302.108 329.086 301.695 329.124 301.195 329.124C300.437 329.124 299.695 328.961 298.967 328.635C298.248 328.309 297.649 327.813 297.172 327.146C296.702 326.48 296.467 325.639 296.467 324.624V307.26ZM312.047 329.306C310.941 329.306 309.937 329.097 309.036 328.681C308.134 328.256 307.418 327.646 306.888 326.851C306.358 326.048 306.092 325.078 306.092 323.942C306.092 322.942 306.289 322.131 306.683 321.51C307.077 320.881 307.604 320.389 308.263 320.033C308.922 319.677 309.649 319.412 310.445 319.237C311.248 319.056 312.055 318.912 312.865 318.806C313.926 318.669 314.786 318.567 315.445 318.499C316.111 318.423 316.596 318.298 316.899 318.124C317.21 317.95 317.365 317.646 317.365 317.215V317.124C317.365 316.003 317.058 315.131 316.445 314.51C315.839 313.889 314.918 313.578 313.683 313.578C312.403 313.578 311.399 313.859 310.672 314.419C309.945 314.98 309.433 315.578 309.138 316.215L306.592 315.306C307.047 314.245 307.653 313.419 308.411 312.828C309.176 312.23 310.009 311.813 310.911 311.578C311.82 311.336 312.714 311.215 313.592 311.215C314.153 311.215 314.797 311.283 315.524 311.419C316.259 311.548 316.967 311.817 317.649 312.226C318.339 312.635 318.911 313.253 319.365 314.078C319.82 314.904 320.047 316.01 320.047 317.396V328.896H317.365V326.533H317.229C317.047 326.912 316.744 327.317 316.32 327.749C315.895 328.181 315.331 328.548 314.627 328.851C313.922 329.154 313.062 329.306 312.047 329.306ZM312.456 326.896C313.517 326.896 314.411 326.688 315.138 326.271C315.873 325.855 316.426 325.317 316.797 324.658C317.176 323.999 317.365 323.306 317.365 322.578V320.124C317.252 320.26 317.002 320.385 316.615 320.499C316.236 320.605 315.797 320.7 315.297 320.783C314.805 320.859 314.323 320.927 313.854 320.987C313.392 321.04 313.017 321.086 312.729 321.124C312.032 321.215 311.38 321.362 310.774 321.567C310.176 321.764 309.691 322.063 309.32 322.465C308.956 322.859 308.774 323.396 308.774 324.078C308.774 325.01 309.119 325.715 309.808 326.192C310.505 326.662 311.388 326.896 312.456 326.896ZM332.533 311.442V313.715H323.487V311.442H332.533ZM326.124 307.26H328.805V323.896C328.805 324.654 328.915 325.222 329.135 325.601C329.362 325.972 329.65 326.222 329.999 326.351C330.355 326.472 330.73 326.533 331.124 326.533C331.419 326.533 331.662 326.518 331.851 326.487C332.04 326.45 332.192 326.419 332.305 326.396L332.851 328.806C332.669 328.874 332.415 328.942 332.09 329.01C331.764 329.086 331.351 329.124 330.851 329.124C330.093 329.124 329.351 328.961 328.624 328.635C327.904 328.309 327.305 327.813 326.828 327.146C326.359 326.48 326.124 325.639 326.124 324.624V307.26ZM343.698 329.26C342.016 329.26 340.565 328.889 339.345 328.146C338.133 327.396 337.198 326.351 336.538 325.01C335.887 323.662 335.561 322.093 335.561 320.306C335.561 318.518 335.887 316.942 336.538 315.578C337.198 314.207 338.114 313.139 339.288 312.374C340.47 311.601 341.849 311.215 343.425 311.215C344.334 311.215 345.232 311.366 346.118 311.669C347.004 311.972 347.811 312.465 348.538 313.146C349.266 313.821 349.845 314.715 350.277 315.828C350.709 316.942 350.925 318.313 350.925 319.942V321.078H337.47V318.76H348.198C348.198 317.775 348.001 316.896 347.607 316.124C347.22 315.351 346.667 314.741 345.948 314.294C345.235 313.847 344.395 313.624 343.425 313.624C342.357 313.624 341.432 313.889 340.652 314.419C339.879 314.942 339.285 315.624 338.868 316.465C338.451 317.306 338.243 318.207 338.243 319.169V320.715C338.243 322.033 338.47 323.15 338.925 324.067C339.387 324.976 340.027 325.669 340.845 326.146C341.663 326.616 342.614 326.851 343.698 326.851C344.402 326.851 345.038 326.753 345.607 326.556C346.182 326.351 346.679 326.048 347.095 325.646C347.512 325.237 347.834 324.73 348.061 324.124L350.652 324.851C350.379 325.73 349.921 326.503 349.277 327.169C348.633 327.828 347.838 328.343 346.891 328.715C345.944 329.078 344.879 329.26 343.698 329.26ZM357.686 305.624V328.896H355.004V305.624H357.686ZM369.916 329.26C368.234 329.26 366.784 328.889 365.564 328.146C364.352 327.396 363.416 326.351 362.757 325.01C362.106 323.662 361.78 322.093 361.78 320.306C361.78 318.518 362.106 316.942 362.757 315.578C363.416 314.207 364.333 313.139 365.507 312.374C366.689 311.601 368.068 311.215 369.644 311.215C370.553 311.215 371.45 311.366 372.337 311.669C373.223 311.972 374.03 312.465 374.757 313.146C375.484 313.821 376.064 314.715 376.496 315.828C376.928 316.942 377.144 318.313 377.144 319.942V321.078H363.689V318.76H374.416C374.416 317.775 374.219 316.896 373.825 316.124C373.439 315.351 372.886 314.741 372.166 314.294C371.454 313.847 370.613 313.624 369.644 313.624C368.575 313.624 367.651 313.889 366.871 314.419C366.098 314.942 365.503 315.624 365.087 316.465C364.67 317.306 364.462 318.207 364.462 319.169V320.715C364.462 322.033 364.689 323.15 365.144 324.067C365.606 324.976 366.246 325.669 367.064 326.146C367.882 326.616 368.833 326.851 369.916 326.851C370.621 326.851 371.257 326.753 371.825 326.556C372.401 326.351 372.897 326.048 373.314 325.646C373.731 325.237 374.053 324.73 374.28 324.124L376.871 324.851C376.598 325.73 376.14 326.503 375.496 327.169C374.852 327.828 374.056 328.343 373.109 328.715C372.162 329.078 371.098 329.26 369.916 329.26ZM393.587 315.351L391.178 316.033C391.026 315.631 390.803 315.241 390.507 314.862C390.219 314.476 389.825 314.158 389.325 313.908C388.825 313.658 388.185 313.533 387.405 313.533C386.337 313.533 385.447 313.779 384.734 314.271C384.03 314.756 383.678 315.374 383.678 316.124C383.678 316.79 383.92 317.317 384.405 317.703C384.89 318.09 385.647 318.412 386.678 318.669L389.269 319.306C390.829 319.684 391.992 320.264 392.757 321.044C393.522 321.817 393.905 322.813 393.905 324.033C393.905 325.033 393.617 325.927 393.041 326.715C392.473 327.503 391.678 328.124 390.655 328.578C389.632 329.033 388.443 329.26 387.087 329.26C385.306 329.26 383.833 328.874 382.666 328.101C381.5 327.328 380.761 326.2 380.45 324.715L382.996 324.078C383.238 325.018 383.697 325.722 384.371 326.192C385.053 326.662 385.943 326.896 387.041 326.896C388.291 326.896 389.284 326.631 390.019 326.101C390.761 325.563 391.132 324.919 391.132 324.169C391.132 323.563 390.92 323.056 390.496 322.646C390.072 322.23 389.42 321.919 388.541 321.715L385.632 321.033C384.034 320.654 382.859 320.067 382.109 319.271C381.367 318.468 380.996 317.465 380.996 316.26C380.996 315.275 381.272 314.404 381.825 313.646C382.386 312.889 383.147 312.294 384.109 311.862C385.079 311.431 386.178 311.215 387.405 311.215C389.132 311.215 390.488 311.593 391.473 312.351C392.466 313.109 393.17 314.109 393.587 315.351ZM410.305 315.351L407.896 316.033C407.745 315.631 407.521 315.241 407.226 314.862C406.938 314.476 406.544 314.158 406.044 313.908C405.544 313.658 404.904 313.533 404.124 313.533C403.055 313.533 402.165 313.779 401.453 314.271C400.749 314.756 400.396 315.374 400.396 316.124C400.396 316.79 400.639 317.317 401.124 317.703C401.609 318.09 402.366 318.412 403.396 318.669L405.987 319.306C407.548 319.684 408.711 320.264 409.476 321.044C410.241 321.817 410.624 322.813 410.624 324.033C410.624 325.033 410.336 325.927 409.76 326.715C409.192 327.503 408.396 328.124 407.374 328.578C406.351 329.033 405.162 329.26 403.805 329.26C402.025 329.26 400.552 328.874 399.385 328.101C398.218 327.328 397.48 326.2 397.169 324.715L399.715 324.078C399.957 325.018 400.415 325.722 401.09 326.192C401.771 326.662 402.662 326.896 403.76 326.896C405.01 326.896 406.002 326.631 406.737 326.101C407.48 325.563 407.851 324.919 407.851 324.169C407.851 323.563 407.639 323.056 407.215 322.646C406.79 322.23 406.139 321.919 405.26 321.715L402.351 321.033C400.752 320.654 399.578 320.067 398.828 319.271C398.086 318.468 397.715 317.465 397.715 316.26C397.715 315.275 397.991 314.404 398.544 313.646C399.105 312.889 399.866 312.294 400.828 311.862C401.798 311.431 402.896 311.215 404.124 311.215C405.851 311.215 407.207 311.593 408.192 312.351C409.184 313.109 409.889 314.109 410.305 315.351ZM424.752 317.669V315.215H438.752V317.669H424.752ZM424.752 324.396V321.942H438.752V324.396H424.752ZM457.709 328.896L452.391 311.442H455.209L458.982 324.806H459.163L462.891 311.442H465.754L469.436 324.76H469.618L473.391 311.442H476.209L470.891 328.896H468.254L464.436 315.487H464.163L460.345 328.896H457.709ZM486.479 329.26C484.797 329.26 483.346 328.889 482.127 328.146C480.914 327.396 479.979 326.351 479.32 325.01C478.668 323.662 478.342 322.093 478.342 320.306C478.342 318.518 478.668 316.942 479.32 315.578C479.979 314.207 480.895 313.139 482.07 312.374C483.252 311.601 484.63 311.215 486.206 311.215C487.115 311.215 488.013 311.366 488.899 311.669C489.786 311.972 490.592 312.465 491.32 313.146C492.047 313.821 492.627 314.715 493.058 315.828C493.49 316.942 493.706 318.313 493.706 319.942V321.078H480.252V318.76H490.979C490.979 317.775 490.782 316.896 490.388 316.124C490.002 315.351 489.448 314.741 488.729 314.294C488.017 313.847 487.176 313.624 486.206 313.624C485.138 313.624 484.214 313.889 483.433 314.419C482.661 314.942 482.066 315.624 481.649 316.465C481.233 317.306 481.024 318.207 481.024 319.169V320.715C481.024 322.033 481.252 323.15 481.706 324.067C482.168 324.976 482.808 325.669 483.627 326.146C484.445 326.616 485.395 326.851 486.479 326.851C487.183 326.851 487.82 326.753 488.388 326.556C488.964 326.351 489.46 326.048 489.877 325.646C490.293 325.237 490.615 324.73 490.842 324.124L493.433 324.851C493.161 325.73 492.702 326.503 492.058 327.169C491.414 327.828 490.619 328.343 489.672 328.715C488.725 329.078 487.661 329.26 486.479 329.26ZM513.877 329.26C512.301 329.26 510.918 328.885 509.729 328.135C508.547 327.385 507.623 326.336 506.956 324.987C506.297 323.639 505.967 322.063 505.967 320.26C505.967 318.442 506.297 316.855 506.956 315.499C507.623 314.143 508.547 313.09 509.729 312.34C510.918 311.59 512.301 311.215 513.877 311.215C515.452 311.215 516.831 311.59 518.013 312.34C519.202 313.09 520.127 314.143 520.786 315.499C521.452 316.855 521.786 318.442 521.786 320.26C521.786 322.063 521.452 323.639 520.786 324.987C520.127 326.336 519.202 327.385 518.013 328.135C516.831 328.885 515.452 329.26 513.877 329.26ZM513.877 326.851C515.073 326.851 516.058 326.544 516.831 325.931C517.604 325.317 518.176 324.51 518.547 323.51C518.918 322.51 519.104 321.427 519.104 320.26C519.104 319.093 518.918 318.006 518.547 316.999C518.176 315.991 517.604 315.177 516.831 314.556C516.058 313.934 515.073 313.624 513.877 313.624C512.68 313.624 511.695 313.934 510.922 314.556C510.149 315.177 509.577 315.991 509.206 316.999C508.835 318.006 508.649 319.093 508.649 320.26C508.649 321.427 508.835 322.51 509.206 323.51C509.577 324.51 510.149 325.317 510.922 325.931C511.695 326.544 512.68 326.851 513.877 326.851ZM528.561 318.396V328.896H525.879V311.442H528.47V314.169H528.698C529.107 313.283 529.728 312.571 530.561 312.033C531.395 311.487 532.47 311.215 533.788 311.215C534.97 311.215 536.004 311.457 536.891 311.942C537.777 312.419 538.466 313.146 538.959 314.124C539.451 315.093 539.698 316.321 539.698 317.806V328.896H537.016V317.987C537.016 316.616 536.66 315.548 535.948 314.783C535.235 314.01 534.258 313.624 533.016 313.624C532.16 313.624 531.395 313.809 530.72 314.181C530.054 314.552 529.527 315.093 529.141 315.806C528.754 316.518 528.561 317.381 528.561 318.396ZM547.28 305.624V328.896H544.598V305.624H547.28ZM553.919 335.442C553.465 335.442 553.059 335.404 552.703 335.328C552.347 335.26 552.101 335.192 551.965 335.124L552.646 332.76C553.298 332.927 553.874 332.987 554.374 332.942C554.874 332.896 555.317 332.673 555.703 332.271C556.097 331.878 556.457 331.237 556.783 330.351L557.283 328.987L550.828 311.442H553.737L558.555 325.351H558.737L563.555 311.442H566.465L559.055 331.442C558.722 332.343 558.309 333.09 557.817 333.681C557.324 334.279 556.752 334.722 556.101 335.01C555.457 335.298 554.73 335.442 553.919 335.442ZM586.323 329.26C584.641 329.26 583.19 328.889 581.97 328.146C580.758 327.396 579.823 326.351 579.163 325.01C578.512 323.662 578.186 322.093 578.186 320.306C578.186 318.518 578.512 316.942 579.163 315.578C579.823 314.207 580.739 313.139 581.913 312.374C583.095 311.601 584.474 311.215 586.05 311.215C586.959 311.215 587.857 311.366 588.743 311.669C589.629 311.972 590.436 312.465 591.163 313.146C591.891 313.821 592.47 314.715 592.902 315.828C593.334 316.942 593.55 318.313 593.55 319.942V321.078H580.095V318.76H590.823C590.823 317.775 590.626 316.896 590.232 316.124C589.845 315.351 589.292 314.741 588.573 314.294C587.86 313.847 587.02 313.624 586.05 313.624C584.982 313.624 584.057 313.889 583.277 314.419C582.504 314.942 581.91 315.624 581.493 316.465C581.076 317.306 580.868 318.207 580.868 319.169V320.715C580.868 322.033 581.095 323.15 581.55 324.067C582.012 324.976 582.652 325.669 583.47 326.146C584.288 326.616 585.239 326.851 586.323 326.851C587.027 326.851 587.663 326.753 588.232 326.556C588.807 326.351 589.304 326.048 589.72 325.646C590.137 325.237 590.459 324.73 590.686 324.124L593.277 324.851C593.004 325.73 592.546 326.503 591.902 327.169C591.258 327.828 590.463 328.343 589.516 328.715C588.569 329.078 587.504 329.26 586.323 329.26ZM600.311 318.396V328.896H597.629V311.442H600.22V314.169H600.448C600.857 313.283 601.478 312.571 602.311 312.033C603.145 311.487 604.22 311.215 605.538 311.215C606.72 311.215 607.754 311.457 608.641 311.942C609.527 312.419 610.216 313.146 610.709 314.124C611.201 315.093 611.448 316.321 611.448 317.806V328.896H608.766V317.987C608.766 316.616 608.41 315.548 607.698 314.783C606.985 314.01 606.008 313.624 604.766 313.624C603.91 313.624 603.145 313.809 602.47 314.181C601.804 314.552 601.277 315.093 600.891 315.806C600.504 316.518 600.311 317.381 600.311 318.396ZM627.348 321.76V311.442H630.03V328.896H627.348V325.942H627.166C626.757 326.828 626.121 327.582 625.257 328.203C624.394 328.817 623.303 329.124 621.984 329.124C620.894 329.124 619.924 328.885 619.075 328.408C618.227 327.923 617.56 327.196 617.075 326.226C616.591 325.249 616.348 324.018 616.348 322.533V311.442H619.03V322.351C619.03 323.624 619.386 324.639 620.098 325.396C620.818 326.154 621.734 326.533 622.848 326.533C623.515 326.533 624.193 326.362 624.882 326.021C625.579 325.681 626.162 325.158 626.632 324.453C627.109 323.749 627.348 322.851 627.348 321.76ZM634.942 328.896V311.442H637.533V314.169H637.76C638.124 313.237 638.711 312.514 639.521 311.999C640.332 311.476 641.305 311.215 642.442 311.215C643.593 311.215 644.552 311.476 645.317 311.999C646.09 312.514 646.692 313.237 647.124 314.169H647.305C647.752 313.268 648.423 312.552 649.317 312.021C650.211 311.484 651.283 311.215 652.533 311.215C654.093 311.215 655.37 311.703 656.362 312.681C657.355 313.65 657.851 315.162 657.851 317.215V328.896H655.169V317.215C655.169 315.927 654.817 315.006 654.112 314.453C653.408 313.9 652.578 313.624 651.624 313.624C650.396 313.624 649.446 313.995 648.771 314.737C648.097 315.472 647.76 316.404 647.76 317.533V328.896H645.033V316.942C645.033 315.95 644.711 315.15 644.067 314.544C643.423 313.931 642.593 313.624 641.578 313.624C640.881 313.624 640.23 313.809 639.624 314.181C639.025 314.552 638.54 315.067 638.169 315.726C637.805 316.378 637.624 317.131 637.624 317.987V328.896H634.942ZM670.073 329.26C668.391 329.26 666.94 328.889 665.72 328.146C664.508 327.396 663.573 326.351 662.913 325.01C662.262 323.662 661.936 322.093 661.936 320.306C661.936 318.518 662.262 316.942 662.913 315.578C663.573 314.207 664.489 313.139 665.663 312.374C666.845 311.601 668.224 311.215 669.8 311.215C670.709 311.215 671.607 311.366 672.493 311.669C673.379 311.972 674.186 312.465 674.913 313.146C675.641 313.821 676.22 314.715 676.652 315.828C677.084 316.942 677.3 318.313 677.3 319.942V321.078H663.845V318.76H674.573C674.573 317.775 674.376 316.896 673.982 316.124C673.595 315.351 673.042 314.741 672.323 314.294C671.61 313.847 670.77 313.624 669.8 313.624C668.732 313.624 667.807 313.889 667.027 314.419C666.254 314.942 665.66 315.624 665.243 316.465C664.826 317.306 664.618 318.207 664.618 319.169V320.715C664.618 322.033 664.845 323.15 665.3 324.067C665.762 324.976 666.402 325.669 667.22 326.146C668.038 326.616 668.989 326.851 670.073 326.851C670.777 326.851 671.413 326.753 671.982 326.556C672.557 326.351 673.054 326.048 673.47 325.646C673.887 325.237 674.209 324.73 674.436 324.124L677.027 324.851C676.754 325.73 676.296 326.503 675.652 327.169C675.008 327.828 674.213 328.343 673.266 328.715C672.319 329.078 671.254 329.26 670.073 329.26ZM681.379 328.896V311.442H683.97V314.078H684.152C684.47 313.215 685.046 312.514 685.879 311.976C686.713 311.438 687.652 311.169 688.698 311.169C688.895 311.169 689.141 311.173 689.436 311.181C689.732 311.188 689.955 311.2 690.107 311.215V313.942C690.016 313.919 689.807 313.885 689.482 313.84C689.163 313.787 688.826 313.76 688.47 313.76C687.622 313.76 686.864 313.938 686.198 314.294C685.538 314.643 685.016 315.128 684.629 315.749C684.251 316.362 684.061 317.063 684.061 317.851V328.896H681.379ZM698.422 329.306C697.316 329.306 696.312 329.097 695.411 328.681C694.509 328.256 693.793 327.646 693.263 326.851C692.733 326.048 692.467 325.078 692.467 323.942C692.467 322.942 692.664 322.131 693.058 321.51C693.452 320.881 693.979 320.389 694.638 320.033C695.297 319.677 696.024 319.412 696.82 319.237C697.623 319.056 698.43 318.912 699.24 318.806C700.301 318.669 701.161 318.567 701.82 318.499C702.486 318.423 702.971 318.298 703.274 318.124C703.585 317.95 703.74 317.646 703.74 317.215V317.124C703.74 316.003 703.433 315.131 702.82 314.51C702.214 313.889 701.293 313.578 700.058 313.578C698.778 313.578 697.774 313.859 697.047 314.419C696.32 314.98 695.808 315.578 695.513 316.215L692.967 315.306C693.422 314.245 694.028 313.419 694.786 312.828C695.551 312.23 696.384 311.813 697.286 311.578C698.195 311.336 699.089 311.215 699.967 311.215C700.528 311.215 701.172 311.283 701.899 311.419C702.634 311.548 703.342 311.817 704.024 312.226C704.714 312.635 705.286 313.253 705.74 314.078C706.195 314.904 706.422 316.01 706.422 317.396V328.896H703.74V326.533H703.604C703.422 326.912 703.119 327.317 702.695 327.749C702.27 328.181 701.706 328.548 701.002 328.851C700.297 329.154 699.437 329.306 698.422 329.306ZM698.831 326.896C699.892 326.896 700.786 326.688 701.513 326.271C702.248 325.855 702.801 325.317 703.172 324.658C703.551 323.999 703.74 323.306 703.74 322.578V320.124C703.627 320.26 703.377 320.385 702.99 320.499C702.611 320.605 702.172 320.7 701.672 320.783C701.18 320.859 700.698 320.927 700.229 320.987C699.767 321.04 699.392 321.086 699.104 321.124C698.407 321.215 697.755 321.362 697.149 321.567C696.551 321.764 696.066 322.063 695.695 322.465C695.331 322.859 695.149 323.396 695.149 324.078C695.149 325.01 695.494 325.715 696.183 326.192C696.88 326.662 697.763 326.896 698.831 326.896ZM718.908 311.442V313.715H709.862V311.442H718.908ZM712.499 307.26H715.18V323.896C715.18 324.654 715.29 325.222 715.51 325.601C715.737 325.972 716.025 326.222 716.374 326.351C716.73 326.472 717.105 326.533 717.499 326.533C717.794 326.533 718.037 326.518 718.226 326.487C718.415 326.45 718.567 326.419 718.68 326.396L719.226 328.806C719.044 328.874 718.79 328.942 718.465 329.01C718.139 329.086 717.726 329.124 717.226 329.124C716.468 329.124 715.726 328.961 714.999 328.635C714.279 328.309 713.68 327.813 713.203 327.146C712.734 326.48 712.499 325.639 712.499 324.624V307.26ZM730.073 329.26C728.391 329.26 726.94 328.889 725.72 328.146C724.508 327.396 723.573 326.351 722.913 325.01C722.262 323.662 721.936 322.093 721.936 320.306C721.936 318.518 722.262 316.942 722.913 315.578C723.573 314.207 724.489 313.139 725.663 312.374C726.845 311.601 728.224 311.215 729.8 311.215C730.709 311.215 731.607 311.366 732.493 311.669C733.379 311.972 734.186 312.465 734.913 313.146C735.641 313.821 736.22 314.715 736.652 315.828C737.084 316.942 737.3 318.313 737.3 319.942V321.078H723.845V318.76H734.573C734.573 317.775 734.376 316.896 733.982 316.124C733.595 315.351 733.042 314.741 732.323 314.294C731.61 313.847 730.77 313.624 729.8 313.624C728.732 313.624 727.807 313.889 727.027 314.419C726.254 314.942 725.66 315.624 725.243 316.465C724.826 317.306 724.618 318.207 724.618 319.169V320.715C724.618 322.033 724.845 323.15 725.3 324.067C725.762 324.976 726.402 325.669 727.22 326.146C728.038 326.616 728.989 326.851 730.073 326.851C730.777 326.851 731.413 326.753 731.982 326.556C732.557 326.351 733.054 326.048 733.47 325.646C733.887 325.237 734.209 324.73 734.436 324.124L737.027 324.851C736.754 325.73 736.296 326.503 735.652 327.169C735.008 327.828 734.213 328.343 733.266 328.715C732.319 329.078 731.254 329.26 730.073 329.26ZM757.97 311.442V313.715H748.925V311.442H757.97ZM751.561 307.26H754.243V323.896C754.243 324.654 754.353 325.222 754.573 325.601C754.8 325.972 755.088 326.222 755.436 326.351C755.792 326.472 756.167 326.533 756.561 326.533C756.857 326.533 757.099 326.518 757.288 326.487C757.478 326.45 757.629 326.419 757.743 326.396L758.288 328.806C758.107 328.874 757.853 328.942 757.527 329.01C757.201 329.086 756.788 329.124 756.288 329.124C755.531 329.124 754.788 328.961 754.061 328.635C753.341 328.309 752.743 327.813 752.266 327.146C751.796 326.48 751.561 325.639 751.561 324.624V307.26ZM762.004 328.896V311.442H764.595V314.078H764.777C765.095 313.215 765.671 312.514 766.504 311.976C767.338 311.438 768.277 311.169 769.323 311.169C769.52 311.169 769.766 311.173 770.061 311.181C770.357 311.188 770.58 311.2 770.732 311.215V313.942C770.641 313.919 770.432 313.885 770.107 313.84C769.788 313.787 769.451 313.76 769.095 313.76C768.247 313.76 767.489 313.938 766.823 314.294C766.163 314.643 765.641 315.128 765.254 315.749C764.876 316.362 764.686 317.063 764.686 317.851V328.896H762.004ZM779.047 329.306C777.941 329.306 776.937 329.097 776.036 328.681C775.134 328.256 774.418 327.646 773.888 326.851C773.358 326.048 773.092 325.078 773.092 323.942C773.092 322.942 773.289 322.131 773.683 321.51C774.077 320.881 774.604 320.389 775.263 320.033C775.922 319.677 776.649 319.412 777.445 319.237C778.248 319.056 779.055 318.912 779.865 318.806C780.926 318.669 781.786 318.567 782.445 318.499C783.111 318.423 783.596 318.298 783.899 318.124C784.21 317.95 784.365 317.646 784.365 317.215V317.124C784.365 316.003 784.058 315.131 783.445 314.51C782.839 313.889 781.918 313.578 780.683 313.578C779.403 313.578 778.399 313.859 777.672 314.419C776.945 314.98 776.433 315.578 776.138 316.215L773.592 315.306C774.047 314.245 774.653 313.419 775.411 312.828C776.176 312.23 777.009 311.813 777.911 311.578C778.82 311.336 779.714 311.215 780.592 311.215C781.153 311.215 781.797 311.283 782.524 311.419C783.259 311.548 783.967 311.817 784.649 312.226C785.339 312.635 785.911 313.253 786.365 314.078C786.82 314.904 787.047 316.01 787.047 317.396V328.896H784.365V326.533H784.229C784.047 326.912 783.744 327.317 783.32 327.749C782.895 328.181 782.331 328.548 781.627 328.851C780.922 329.154 780.062 329.306 779.047 329.306ZM779.456 326.896C780.517 326.896 781.411 326.688 782.138 326.271C782.873 325.855 783.426 325.317 783.797 324.658C784.176 323.999 784.365 323.306 784.365 322.578V320.124C784.252 320.26 784.002 320.385 783.615 320.499C783.236 320.605 782.797 320.7 782.297 320.783C781.805 320.859 781.323 320.927 780.854 320.987C780.392 321.04 780.017 321.086 779.729 321.124C779.032 321.215 778.38 321.362 777.774 321.567C777.176 321.764 776.691 322.063 776.32 322.465C775.956 322.859 775.774 323.396 775.774 324.078C775.774 325.01 776.119 325.715 776.808 326.192C777.505 326.662 778.388 326.896 779.456 326.896ZM799.033 329.26C797.396 329.26 795.987 328.874 794.805 328.101C793.624 327.328 792.715 326.264 792.078 324.908C791.442 323.552 791.124 322.003 791.124 320.26C791.124 318.487 791.449 316.923 792.101 315.567C792.76 314.203 793.677 313.139 794.851 312.374C796.033 311.601 797.412 311.215 798.987 311.215C800.215 311.215 801.321 311.442 802.305 311.896C803.29 312.351 804.097 312.987 804.726 313.806C805.355 314.624 805.745 315.578 805.896 316.669H803.215C803.01 315.874 802.555 315.169 801.851 314.556C801.154 313.934 800.215 313.624 799.033 313.624C797.987 313.624 797.071 313.896 796.283 314.442C795.502 314.98 794.893 315.741 794.453 316.726C794.021 317.703 793.805 318.851 793.805 320.169C793.805 321.518 794.018 322.692 794.442 323.692C794.874 324.692 795.48 325.468 796.26 326.021C797.048 326.575 797.972 326.851 799.033 326.851C799.73 326.851 800.362 326.73 800.93 326.487C801.499 326.245 801.98 325.896 802.374 325.442C802.768 324.987 803.048 324.442 803.215 323.806H805.896C805.745 324.836 805.37 325.764 804.771 326.59C804.18 327.408 803.396 328.059 802.419 328.544C801.449 329.021 800.321 329.26 799.033 329.26ZM817.135 329.26C815.453 329.26 814.002 328.889 812.783 328.146C811.571 327.396 810.635 326.351 809.976 325.01C809.324 323.662 808.999 322.093 808.999 320.306C808.999 318.518 809.324 316.942 809.976 315.578C810.635 314.207 811.552 313.139 812.726 312.374C813.908 311.601 815.287 311.215 816.862 311.215C817.771 311.215 818.669 311.366 819.555 311.669C820.442 311.972 821.249 312.465 821.976 313.146C822.703 313.821 823.283 314.715 823.715 315.828C824.146 316.942 824.362 318.313 824.362 319.942V321.078H810.908V318.76H821.635C821.635 317.775 821.438 316.896 821.044 316.124C820.658 315.351 820.105 314.741 819.385 314.294C818.673 313.847 817.832 313.624 816.862 313.624C815.794 313.624 814.87 313.889 814.09 314.419C813.317 314.942 812.722 315.624 812.305 316.465C811.889 317.306 811.68 318.207 811.68 319.169V320.715C811.68 322.033 811.908 323.15 812.362 324.067C812.824 324.976 813.465 325.669 814.283 326.146C815.101 326.616 816.052 326.851 817.135 326.851C817.84 326.851 818.476 326.753 819.044 326.556C819.62 326.351 820.116 326.048 820.533 325.646C820.949 325.237 821.271 324.73 821.499 324.124L824.09 324.851C823.817 325.73 823.359 326.503 822.715 327.169C822.071 327.828 821.275 328.343 820.328 328.715C819.381 329.078 818.317 329.26 817.135 329.26ZM840.805 315.351L838.396 316.033C838.245 315.631 838.021 315.241 837.726 314.862C837.438 314.476 837.044 314.158 836.544 313.908C836.044 313.658 835.404 313.533 834.624 313.533C833.555 313.533 832.665 313.779 831.953 314.271C831.249 314.756 830.896 315.374 830.896 316.124C830.896 316.79 831.139 317.317 831.624 317.703C832.109 318.09 832.866 318.412 833.896 318.669L836.487 319.306C838.048 319.684 839.211 320.264 839.976 321.044C840.741 321.817 841.124 322.813 841.124 324.033C841.124 325.033 840.836 325.927 840.26 326.715C839.692 327.503 838.896 328.124 837.874 328.578C836.851 329.033 835.662 329.26 834.305 329.26C832.525 329.26 831.052 328.874 829.885 328.101C828.718 327.328 827.98 326.2 827.669 324.715L830.215 324.078C830.457 325.018 830.915 325.722 831.59 326.192C832.271 326.662 833.162 326.896 834.26 326.896C835.51 326.896 836.502 326.631 837.237 326.101C837.98 325.563 838.351 324.919 838.351 324.169C838.351 323.563 838.139 323.056 837.715 322.646C837.29 322.23 836.639 321.919 835.76 321.715L832.851 321.033C831.252 320.654 830.078 320.067 829.328 319.271C828.586 318.468 828.215 317.465 828.215 316.26C828.215 315.275 828.491 314.404 829.044 313.646C829.605 312.889 830.366 312.294 831.328 311.862C832.298 311.431 833.396 311.215 834.624 311.215C836.351 311.215 837.707 311.593 838.692 312.351C839.684 313.109 840.389 314.109 840.805 315.351ZM281.47 368.26C280.016 368.26 278.732 367.893 277.618 367.158C276.504 366.415 275.633 365.37 275.004 364.021C274.376 362.665 274.061 361.063 274.061 359.215C274.061 357.381 274.376 355.79 275.004 354.442C275.633 353.093 276.508 352.052 277.629 351.317C278.751 350.582 280.046 350.215 281.516 350.215C282.652 350.215 283.55 350.404 284.209 350.783C284.876 351.154 285.383 351.578 285.732 352.056C286.088 352.525 286.364 352.912 286.561 353.215H286.788V344.624H289.47V367.896H286.879V365.215H286.561C286.364 365.533 286.084 365.934 285.72 366.419C285.357 366.896 284.838 367.325 284.163 367.703C283.489 368.075 282.591 368.26 281.47 368.26ZM281.834 365.851C282.91 365.851 283.819 365.571 284.561 365.01C285.304 364.442 285.868 363.658 286.254 362.658C286.641 361.65 286.834 360.487 286.834 359.169C286.834 357.866 286.645 356.726 286.266 355.749C285.887 354.764 285.326 353.999 284.584 353.453C283.841 352.9 282.925 352.624 281.834 352.624C280.698 352.624 279.751 352.915 278.993 353.499C278.243 354.075 277.679 354.859 277.3 355.851C276.929 356.836 276.743 357.942 276.743 359.169C276.743 360.412 276.932 361.54 277.311 362.556C277.698 363.563 278.266 364.366 279.016 364.965C279.773 365.556 280.713 365.851 281.834 365.851ZM302.073 368.26C300.391 368.26 298.94 367.889 297.72 367.146C296.508 366.396 295.573 365.351 294.913 364.01C294.262 362.662 293.936 361.093 293.936 359.306C293.936 357.518 294.262 355.942 294.913 354.578C295.573 353.207 296.489 352.139 297.663 351.374C298.845 350.601 300.224 350.215 301.8 350.215C302.709 350.215 303.607 350.366 304.493 350.669C305.379 350.972 306.186 351.465 306.913 352.146C307.641 352.821 308.22 353.715 308.652 354.828C309.084 355.942 309.3 357.313 309.3 358.942V360.078H295.845V357.76H306.573C306.573 356.775 306.376 355.896 305.982 355.124C305.595 354.351 305.042 353.741 304.323 353.294C303.61 352.847 302.77 352.624 301.8 352.624C300.732 352.624 299.807 352.889 299.027 353.419C298.254 353.942 297.66 354.624 297.243 355.465C296.826 356.306 296.618 357.207 296.618 358.169V359.715C296.618 361.033 296.845 362.15 297.3 363.067C297.762 363.976 298.402 364.669 299.22 365.146C300.038 365.616 300.989 365.851 302.073 365.851C302.777 365.851 303.413 365.753 303.982 365.556C304.557 365.351 305.054 365.048 305.47 364.646C305.887 364.237 306.209 363.73 306.436 363.124L309.027 363.851C308.754 364.73 308.296 365.503 307.652 366.169C307.008 366.828 306.213 367.343 305.266 367.715C304.319 368.078 303.254 368.26 302.073 368.26ZM321.152 350.442V352.715H311.743V350.442H321.152ZM314.561 367.896V348.033C314.561 347.033 314.796 346.2 315.266 345.533C315.735 344.866 316.345 344.366 317.095 344.033C317.845 343.7 318.637 343.533 319.47 343.533C320.129 343.533 320.667 343.586 321.084 343.692C321.501 343.798 321.811 343.896 322.016 343.987L321.243 346.306C321.107 346.26 320.917 346.203 320.675 346.135C320.44 346.067 320.129 346.033 319.743 346.033C318.857 346.033 318.216 346.256 317.823 346.703C317.436 347.15 317.243 347.806 317.243 348.669V367.896H314.561ZM324.911 367.896V350.442H327.592V367.896H324.911ZM326.274 347.533C325.752 347.533 325.301 347.355 324.922 346.999C324.551 346.643 324.365 346.215 324.365 345.715C324.365 345.215 324.551 344.787 324.922 344.431C325.301 344.075 325.752 343.896 326.274 343.896C326.797 343.896 327.244 344.075 327.615 344.431C327.994 344.787 328.183 345.215 328.183 345.715C328.183 346.215 327.994 346.643 327.615 346.999C327.244 347.355 326.797 347.533 326.274 347.533ZM335.186 357.396V367.896H332.504V350.442H335.095V353.169H335.323C335.732 352.283 336.353 351.571 337.186 351.033C338.02 350.487 339.095 350.215 340.413 350.215C341.595 350.215 342.629 350.457 343.516 350.942C344.402 351.419 345.091 352.146 345.584 353.124C346.076 354.093 346.323 355.321 346.323 356.806V367.896H343.641V356.987C343.641 355.616 343.285 354.548 342.573 353.783C341.86 353.01 340.883 352.624 339.641 352.624C338.785 352.624 338.02 352.809 337.345 353.181C336.679 353.552 336.152 354.093 335.766 354.806C335.379 355.518 335.186 356.381 335.186 357.396ZM358.541 368.26C356.859 368.26 355.409 367.889 354.189 367.146C352.977 366.396 352.041 365.351 351.382 364.01C350.731 362.662 350.405 361.093 350.405 359.306C350.405 357.518 350.731 355.942 351.382 354.578C352.041 353.207 352.958 352.139 354.132 351.374C355.314 350.601 356.693 350.215 358.269 350.215C359.178 350.215 360.075 350.366 360.962 350.669C361.848 350.972 362.655 351.465 363.382 352.146C364.109 352.821 364.689 353.715 365.121 354.828C365.553 355.942 365.769 357.313 365.769 358.942V360.078H352.314V357.76H363.041C363.041 356.775 362.844 355.896 362.45 355.124C362.064 354.351 361.511 353.741 360.791 353.294C360.079 352.847 359.238 352.624 358.269 352.624C357.2 352.624 356.276 352.889 355.496 353.419C354.723 353.942 354.128 354.624 353.712 355.465C353.295 356.306 353.087 357.207 353.087 358.169V359.715C353.087 361.033 353.314 362.15 353.769 363.067C354.231 363.976 354.871 364.669 355.689 365.146C356.507 365.616 357.458 365.851 358.541 365.851C359.246 365.851 359.882 365.753 360.45 365.556C361.026 365.351 361.522 365.048 361.939 364.646C362.356 364.237 362.678 363.73 362.905 363.124L365.496 363.851C365.223 364.73 364.765 365.503 364.121 366.169C363.477 366.828 362.681 367.343 361.734 367.715C360.787 368.078 359.723 368.26 358.541 368.26ZM385.939 368.26C384.363 368.26 382.981 367.885 381.791 367.135C380.609 366.385 379.685 365.336 379.019 363.987C378.359 362.639 378.03 361.063 378.03 359.26C378.03 357.442 378.359 355.855 379.019 354.499C379.685 353.143 380.609 352.09 381.791 351.34C382.981 350.59 384.363 350.215 385.939 350.215C387.515 350.215 388.894 350.59 390.075 351.34C391.265 352.09 392.189 353.143 392.848 354.499C393.515 355.855 393.848 357.442 393.848 359.26C393.848 361.063 393.515 362.639 392.848 363.987C392.189 365.336 391.265 366.385 390.075 367.135C388.894 367.885 387.515 368.26 385.939 368.26ZM385.939 365.851C387.136 365.851 388.121 365.544 388.894 364.931C389.666 364.317 390.238 363.51 390.609 362.51C390.981 361.51 391.166 360.427 391.166 359.26C391.166 358.093 390.981 357.006 390.609 355.999C390.238 354.991 389.666 354.177 388.894 353.556C388.121 352.934 387.136 352.624 385.939 352.624C384.742 352.624 383.757 352.934 382.984 353.556C382.212 354.177 381.64 354.991 381.269 355.999C380.897 357.006 380.712 358.093 380.712 359.26C380.712 360.427 380.897 361.51 381.269 362.51C381.64 363.51 382.212 364.317 382.984 364.931C383.757 365.544 384.742 365.851 385.939 365.851ZM397.942 374.442V350.442H400.533V353.215H400.851C401.048 352.912 401.321 352.525 401.669 352.056C402.025 351.578 402.533 351.154 403.192 350.783C403.859 350.404 404.76 350.215 405.896 350.215C407.366 350.215 408.662 350.582 409.783 351.317C410.904 352.052 411.779 353.093 412.408 354.442C413.037 355.79 413.351 357.381 413.351 359.215C413.351 361.063 413.037 362.665 412.408 364.021C411.779 365.37 410.908 366.415 409.794 367.158C408.68 367.893 407.396 368.26 405.942 368.26C404.821 368.26 403.923 368.075 403.249 367.703C402.574 367.325 402.055 366.896 401.692 366.419C401.328 365.934 401.048 365.533 400.851 365.215H400.624V374.442H397.942ZM400.578 359.169C400.578 360.487 400.771 361.65 401.158 362.658C401.544 363.658 402.109 364.442 402.851 365.01C403.593 365.571 404.502 365.851 405.578 365.851C406.699 365.851 407.635 365.556 408.385 364.965C409.143 364.366 409.711 363.563 410.09 362.556C410.476 361.54 410.669 360.412 410.669 359.169C410.669 357.942 410.48 356.836 410.101 355.851C409.73 354.859 409.165 354.075 408.408 353.499C407.658 352.915 406.715 352.624 405.578 352.624C404.487 352.624 403.571 352.9 402.828 353.453C402.086 353.999 401.525 354.764 401.146 355.749C400.768 356.726 400.578 357.866 400.578 359.169ZM425.033 350.442V352.715H415.987V350.442H425.033ZM418.624 346.26H421.305V362.896C421.305 363.654 421.415 364.222 421.635 364.601C421.862 364.972 422.15 365.222 422.499 365.351C422.855 365.472 423.23 365.533 423.624 365.533C423.919 365.533 424.162 365.518 424.351 365.487C424.54 365.45 424.692 365.419 424.805 365.396L425.351 367.806C425.169 367.874 424.915 367.942 424.59 368.01C424.264 368.086 423.851 368.124 423.351 368.124C422.593 368.124 421.851 367.961 421.124 367.635C420.404 367.309 419.805 366.813 419.328 366.146C418.859 365.48 418.624 364.639 418.624 363.624V346.26ZM429.067 367.896V350.442H431.749V367.896H429.067ZM430.43 347.533C429.908 347.533 429.457 347.355 429.078 346.999C428.707 346.643 428.521 346.215 428.521 345.715C428.521 345.215 428.707 344.787 429.078 344.431C429.457 344.075 429.908 343.896 430.43 343.896C430.953 343.896 431.4 344.075 431.771 344.431C432.15 344.787 432.34 345.215 432.34 345.715C432.34 346.215 432.15 346.643 431.771 346.999C431.4 347.355 430.953 347.533 430.43 347.533ZM436.661 367.896V350.442H439.252V353.169H439.479C439.842 352.237 440.43 351.514 441.24 350.999C442.051 350.476 443.024 350.215 444.161 350.215C445.312 350.215 446.27 350.476 447.036 350.999C447.808 351.514 448.411 352.237 448.842 353.169H449.024C449.471 352.268 450.142 351.552 451.036 351.021C451.93 350.484 453.002 350.215 454.252 350.215C455.812 350.215 457.089 350.703 458.081 351.681C459.073 352.65 459.57 354.162 459.57 356.215V367.896H456.888V356.215C456.888 354.927 456.536 354.006 455.831 353.453C455.127 352.9 454.297 352.624 453.342 352.624C452.115 352.624 451.164 352.995 450.49 353.737C449.816 354.472 449.479 355.404 449.479 356.533V367.896H446.752V355.942C446.752 354.95 446.43 354.15 445.786 353.544C445.142 352.931 444.312 352.624 443.297 352.624C442.6 352.624 441.948 352.809 441.342 353.181C440.744 353.552 440.259 354.067 439.888 354.726C439.524 355.378 439.342 356.131 439.342 356.987V367.896H436.661ZM469.609 368.306C468.503 368.306 467.5 368.097 466.598 367.681C465.697 367.256 464.981 366.646 464.45 365.851C463.92 365.048 463.655 364.078 463.655 362.942C463.655 361.942 463.852 361.131 464.246 360.51C464.64 359.881 465.166 359.389 465.825 359.033C466.484 358.677 467.212 358.412 468.007 358.237C468.81 358.056 469.617 357.912 470.428 357.806C471.488 357.669 472.348 357.567 473.007 357.499C473.674 357.423 474.159 357.298 474.462 357.124C474.772 356.95 474.928 356.646 474.928 356.215V356.124C474.928 355.003 474.621 354.131 474.007 353.51C473.401 352.889 472.481 352.578 471.246 352.578C469.966 352.578 468.962 352.859 468.234 353.419C467.507 353.98 466.996 354.578 466.7 355.215L464.155 354.306C464.609 353.245 465.216 352.419 465.973 351.828C466.738 351.23 467.572 350.813 468.473 350.578C469.382 350.336 470.276 350.215 471.155 350.215C471.716 350.215 472.359 350.283 473.087 350.419C473.822 350.548 474.53 350.817 475.212 351.226C475.901 351.635 476.473 352.253 476.928 353.078C477.382 353.904 477.609 355.01 477.609 356.396V367.896H474.928V365.533H474.791C474.609 365.912 474.306 366.317 473.882 366.749C473.458 367.181 472.894 367.548 472.189 367.851C471.484 368.154 470.625 368.306 469.609 368.306ZM470.019 365.896C471.079 365.896 471.973 365.688 472.7 365.271C473.435 364.855 473.988 364.317 474.359 363.658C474.738 362.999 474.928 362.306 474.928 361.578V359.124C474.814 359.26 474.564 359.385 474.178 359.499C473.799 359.605 473.359 359.7 472.859 359.783C472.367 359.859 471.886 359.927 471.416 359.987C470.954 360.04 470.579 360.086 470.291 360.124C469.594 360.215 468.943 360.362 468.337 360.567C467.738 360.764 467.253 361.063 466.882 361.465C466.519 361.859 466.337 362.396 466.337 363.078C466.337 364.01 466.681 364.715 467.371 365.192C468.068 365.662 468.95 365.896 470.019 365.896ZM485.186 344.624V367.896H482.504V344.624H485.186ZM490.098 367.896V350.442H492.78V367.896H490.098ZM491.462 347.533C490.939 347.533 490.488 347.355 490.109 346.999C489.738 346.643 489.553 346.215 489.553 345.715C489.553 345.215 489.738 344.787 490.109 344.431C490.488 344.075 490.939 343.896 491.462 343.896C491.984 343.896 492.431 344.075 492.803 344.431C493.181 344.787 493.371 345.215 493.371 345.715C493.371 346.215 493.181 346.643 492.803 346.999C492.431 347.355 491.984 347.533 491.462 347.533ZM505.283 350.442V352.715H496.237V350.442H505.283ZM498.874 346.26H501.555V362.896C501.555 363.654 501.665 364.222 501.885 364.601C502.112 364.972 502.4 365.222 502.749 365.351C503.105 365.472 503.48 365.533 503.874 365.533C504.169 365.533 504.412 365.518 504.601 365.487C504.79 365.45 504.942 365.419 505.055 365.396L505.601 367.806C505.419 367.874 505.165 367.942 504.84 368.01C504.514 368.086 504.101 368.124 503.601 368.124C502.843 368.124 502.101 367.961 501.374 367.635C500.654 367.309 500.055 366.813 499.578 366.146C499.109 365.48 498.874 364.639 498.874 363.624V346.26ZM511.044 374.442C510.59 374.442 510.184 374.404 509.828 374.328C509.472 374.26 509.226 374.192 509.09 374.124L509.771 371.76C510.423 371.927 510.999 371.987 511.499 371.942C511.999 371.896 512.442 371.673 512.828 371.271C513.222 370.878 513.582 370.237 513.908 369.351L514.408 367.987L507.953 350.442H510.862L515.68 364.351H515.862L520.68 350.442H523.59L516.18 370.442C515.847 371.343 515.434 372.09 514.942 372.681C514.449 373.279 513.877 373.722 513.226 374.01C512.582 374.298 511.855 374.442 511.044 374.442ZM543.902 350.442V352.715H534.493V350.442H543.902ZM537.311 367.896V348.033C537.311 347.033 537.546 346.2 538.016 345.533C538.485 344.866 539.095 344.366 539.845 344.033C540.595 343.7 541.387 343.533 542.22 343.533C542.879 343.533 543.417 343.586 543.834 343.692C544.251 343.798 544.561 343.896 544.766 343.987L543.993 346.306C543.857 346.26 543.667 346.203 543.425 346.135C543.19 346.067 542.879 346.033 542.493 346.033C541.607 346.033 540.966 346.256 540.573 346.703C540.186 347.15 539.993 347.806 539.993 348.669V367.896H537.311ZM554.033 368.26C552.457 368.26 551.074 367.885 549.885 367.135C548.703 366.385 547.779 365.336 547.112 363.987C546.453 362.639 546.124 361.063 546.124 359.26C546.124 357.442 546.453 355.855 547.112 354.499C547.779 353.143 548.703 352.09 549.885 351.34C551.074 350.59 552.457 350.215 554.033 350.215C555.609 350.215 556.987 350.59 558.169 351.34C559.359 352.09 560.283 353.143 560.942 354.499C561.609 355.855 561.942 357.442 561.942 359.26C561.942 361.063 561.609 362.639 560.942 363.987C560.283 365.336 559.359 366.385 558.169 367.135C556.987 367.885 555.609 368.26 554.033 368.26ZM554.033 365.851C555.23 365.851 556.215 365.544 556.987 364.931C557.76 364.317 558.332 363.51 558.703 362.51C559.074 361.51 559.26 360.427 559.26 359.26C559.26 358.093 559.074 357.006 558.703 355.999C558.332 354.991 557.76 354.177 556.987 353.556C556.215 352.934 555.23 352.624 554.033 352.624C552.836 352.624 551.851 352.934 551.078 353.556C550.305 354.177 549.734 354.991 549.362 355.999C548.991 357.006 548.805 358.093 548.805 359.26C548.805 360.427 548.991 361.51 549.362 362.51C549.734 363.51 550.305 364.317 551.078 364.931C551.851 365.544 552.836 365.851 554.033 365.851ZM566.036 367.896V350.442H568.627V353.078H568.808C569.127 352.215 569.702 351.514 570.536 350.976C571.369 350.438 572.308 350.169 573.354 350.169C573.551 350.169 573.797 350.173 574.092 350.181C574.388 350.188 574.611 350.2 574.763 350.215V352.942C574.672 352.919 574.464 352.885 574.138 352.84C573.82 352.787 573.483 352.76 573.127 352.76C572.278 352.76 571.52 352.938 570.854 353.294C570.195 353.643 569.672 354.128 569.286 354.749C568.907 355.362 568.717 356.063 568.717 356.851V367.896H566.036ZM599.305 354.351L596.896 355.033C596.745 354.631 596.521 354.241 596.226 353.862C595.938 353.476 595.544 353.158 595.044 352.908C594.544 352.658 593.904 352.533 593.124 352.533C592.055 352.533 591.165 352.779 590.453 353.271C589.749 353.756 589.396 354.374 589.396 355.124C589.396 355.79 589.639 356.317 590.124 356.703C590.609 357.09 591.366 357.412 592.396 357.669L594.987 358.306C596.548 358.684 597.711 359.264 598.476 360.044C599.241 360.817 599.624 361.813 599.624 363.033C599.624 364.033 599.336 364.927 598.76 365.715C598.192 366.503 597.396 367.124 596.374 367.578C595.351 368.033 594.162 368.26 592.805 368.26C591.025 368.26 589.552 367.874 588.385 367.101C587.218 366.328 586.48 365.2 586.169 363.715L588.715 363.078C588.957 364.018 589.415 364.722 590.09 365.192C590.771 365.662 591.662 365.896 592.76 365.896C594.01 365.896 595.002 365.631 595.737 365.101C596.48 364.563 596.851 363.919 596.851 363.169C596.851 362.563 596.639 362.056 596.215 361.646C595.79 361.23 595.139 360.919 594.26 360.715L591.351 360.033C589.752 359.654 588.578 359.067 587.828 358.271C587.086 357.468 586.715 356.465 586.715 355.26C586.715 354.275 586.991 353.404 587.544 352.646C588.105 351.889 588.866 351.294 589.828 350.862C590.798 350.431 591.896 350.215 593.124 350.215C594.851 350.215 596.207 350.593 597.192 351.351C598.184 352.109 598.889 353.109 599.305 354.351ZM611.252 350.442V352.715H602.206V350.442H611.252ZM604.842 346.26H607.524V362.896C607.524 363.654 607.634 364.222 607.854 364.601C608.081 364.972 608.369 365.222 608.717 365.351C609.073 365.472 609.448 365.533 609.842 365.533C610.138 365.533 610.38 365.518 610.57 365.487C610.759 365.45 610.911 365.419 611.024 365.396L611.57 367.806C611.388 367.874 611.134 367.942 610.808 368.01C610.483 368.086 610.07 368.124 609.57 368.124C608.812 368.124 608.07 367.961 607.342 367.635C606.623 367.309 606.024 366.813 605.547 366.146C605.077 365.48 604.842 364.639 604.842 363.624V346.26ZM620.422 368.306C619.316 368.306 618.312 368.097 617.411 367.681C616.509 367.256 615.793 366.646 615.263 365.851C614.733 365.048 614.467 364.078 614.467 362.942C614.467 361.942 614.664 361.131 615.058 360.51C615.452 359.881 615.979 359.389 616.638 359.033C617.297 358.677 618.024 358.412 618.82 358.237C619.623 358.056 620.43 357.912 621.24 357.806C622.301 357.669 623.161 357.567 623.82 357.499C624.486 357.423 624.971 357.298 625.274 357.124C625.585 356.95 625.74 356.646 625.74 356.215V356.124C625.74 355.003 625.433 354.131 624.82 353.51C624.214 352.889 623.293 352.578 622.058 352.578C620.778 352.578 619.774 352.859 619.047 353.419C618.32 353.98 617.808 354.578 617.513 355.215L614.967 354.306C615.422 353.245 616.028 352.419 616.786 351.828C617.551 351.23 618.384 350.813 619.286 350.578C620.195 350.336 621.089 350.215 621.967 350.215C622.528 350.215 623.172 350.283 623.899 350.419C624.634 350.548 625.342 350.817 626.024 351.226C626.714 351.635 627.286 352.253 627.74 353.078C628.195 353.904 628.422 355.01 628.422 356.396V367.896H625.74V365.533H625.604C625.422 365.912 625.119 366.317 624.695 366.749C624.27 367.181 623.706 367.548 623.002 367.851C622.297 368.154 621.437 368.306 620.422 368.306ZM620.831 365.896C621.892 365.896 622.786 365.688 623.513 365.271C624.248 364.855 624.801 364.317 625.172 363.658C625.551 362.999 625.74 362.306 625.74 361.578V359.124C625.627 359.26 625.377 359.385 624.99 359.499C624.611 359.605 624.172 359.7 623.672 359.783C623.18 359.859 622.698 359.927 622.229 359.987C621.767 360.04 621.392 360.086 621.104 360.124C620.407 360.215 619.755 360.362 619.149 360.567C618.551 360.764 618.066 361.063 617.695 361.465C617.331 361.859 617.149 362.396 617.149 363.078C617.149 364.01 617.494 364.715 618.183 365.192C618.88 365.662 619.763 365.896 620.831 365.896ZM640.908 350.442V352.715H631.862V350.442H640.908ZM634.499 346.26H637.18V362.896C637.18 363.654 637.29 364.222 637.51 364.601C637.737 364.972 638.025 365.222 638.374 365.351C638.73 365.472 639.105 365.533 639.499 365.533C639.794 365.533 640.037 365.518 640.226 365.487C640.415 365.45 640.567 365.419 640.68 365.396L641.226 367.806C641.044 367.874 640.79 367.942 640.465 368.01C640.139 368.086 639.726 368.124 639.226 368.124C638.468 368.124 637.726 367.961 636.999 367.635C636.279 367.309 635.68 366.813 635.203 366.146C634.734 365.48 634.499 364.639 634.499 363.624V346.26ZM652.073 368.26C650.391 368.26 648.94 367.889 647.72 367.146C646.508 366.396 645.573 365.351 644.913 364.01C644.262 362.662 643.936 361.093 643.936 359.306C643.936 357.518 644.262 355.942 644.913 354.578C645.573 353.207 646.489 352.139 647.663 351.374C648.845 350.601 650.224 350.215 651.8 350.215C652.709 350.215 653.607 350.366 654.493 350.669C655.379 350.972 656.186 351.465 656.913 352.146C657.641 352.821 658.22 353.715 658.652 354.828C659.084 355.942 659.3 357.313 659.3 358.942V360.078H645.845V357.76H656.573C656.573 356.775 656.376 355.896 655.982 355.124C655.595 354.351 655.042 353.741 654.323 353.294C653.61 352.847 652.77 352.624 651.8 352.624C650.732 352.624 649.807 352.889 649.027 353.419C648.254 353.942 647.66 354.624 647.243 355.465C646.826 356.306 646.618 357.207 646.618 358.169V359.715C646.618 361.033 646.845 362.15 647.3 363.067C647.762 363.976 648.402 364.669 649.22 365.146C650.038 365.616 650.989 365.851 652.073 365.851C652.777 365.851 653.413 365.753 653.982 365.556C654.557 365.351 655.054 365.048 655.47 364.646C655.887 364.237 656.209 363.73 656.436 363.124L659.027 363.851C658.754 364.73 658.296 365.503 657.652 366.169C657.008 366.828 656.213 367.343 655.266 367.715C654.319 368.078 653.254 368.26 652.073 368.26ZM666.061 344.624V367.896H663.379V344.624H666.061ZM678.291 368.26C676.609 368.26 675.159 367.889 673.939 367.146C672.727 366.396 671.791 365.351 671.132 364.01C670.481 362.662 670.155 361.093 670.155 359.306C670.155 357.518 670.481 355.942 671.132 354.578C671.791 353.207 672.708 352.139 673.882 351.374C675.064 350.601 676.443 350.215 678.019 350.215C678.928 350.215 679.825 350.366 680.712 350.669C681.598 350.972 682.405 351.465 683.132 352.146C683.859 352.821 684.439 353.715 684.871 354.828C685.303 355.942 685.519 357.313 685.519 358.942V360.078H672.064V357.76H682.791C682.791 356.775 682.594 355.896 682.2 355.124C681.814 354.351 681.261 353.741 680.541 353.294C679.829 352.847 678.988 352.624 678.019 352.624C676.95 352.624 676.026 352.889 675.246 353.419C674.473 353.942 673.878 354.624 673.462 355.465C673.045 356.306 672.837 357.207 672.837 358.169V359.715C672.837 361.033 673.064 362.15 673.519 363.067C673.981 363.976 674.621 364.669 675.439 365.146C676.257 365.616 677.208 365.851 678.291 365.851C678.996 365.851 679.632 365.753 680.2 365.556C680.776 365.351 681.272 365.048 681.689 364.646C682.106 364.237 682.428 363.73 682.655 363.124L685.246 363.851C684.973 364.73 684.515 365.503 683.871 366.169C683.227 366.828 682.431 367.343 681.484 367.715C680.537 368.078 679.473 368.26 678.291 368.26ZM701.962 354.351L699.553 355.033C699.401 354.631 699.178 354.241 698.882 353.862C698.594 353.476 698.2 353.158 697.7 352.908C697.2 352.658 696.56 352.533 695.78 352.533C694.712 352.533 693.822 352.779 693.109 353.271C692.405 353.756 692.053 354.374 692.053 355.124C692.053 355.79 692.295 356.317 692.78 356.703C693.265 357.09 694.022 357.412 695.053 357.669L697.644 358.306C699.204 358.684 700.367 359.264 701.132 360.044C701.897 360.817 702.28 361.813 702.28 363.033C702.28 364.033 701.992 364.927 701.416 365.715C700.848 366.503 700.053 367.124 699.03 367.578C698.007 368.033 696.818 368.26 695.462 368.26C693.681 368.26 692.208 367.874 691.041 367.101C689.875 366.328 689.136 365.2 688.825 363.715L691.371 363.078C691.613 364.018 692.072 364.722 692.746 365.192C693.428 365.662 694.318 365.896 695.416 365.896C696.666 365.896 697.659 365.631 698.394 365.101C699.136 364.563 699.507 363.919 699.507 363.169C699.507 362.563 699.295 362.056 698.871 361.646C698.447 361.23 697.795 360.919 696.916 360.715L694.007 360.033C692.409 359.654 691.234 359.067 690.484 358.271C689.742 357.468 689.371 356.465 689.371 355.26C689.371 354.275 689.647 353.404 690.2 352.646C690.761 351.889 691.522 351.294 692.484 350.862C693.454 350.431 694.553 350.215 695.78 350.215C697.507 350.215 698.863 350.593 699.848 351.351C700.841 352.109 701.545 353.109 701.962 354.351ZM718.68 354.351L716.271 355.033C716.12 354.631 715.896 354.241 715.601 353.862C715.313 353.476 714.919 353.158 714.419 352.908C713.919 352.658 713.279 352.533 712.499 352.533C711.43 352.533 710.54 352.779 709.828 353.271C709.124 353.756 708.771 354.374 708.771 355.124C708.771 355.79 709.014 356.317 709.499 356.703C709.984 357.09 710.741 357.412 711.771 357.669L714.362 358.306C715.923 358.684 717.086 359.264 717.851 360.044C718.616 360.817 718.999 361.813 718.999 363.033C718.999 364.033 718.711 364.927 718.135 365.715C717.567 366.503 716.771 367.124 715.749 367.578C714.726 368.033 713.537 368.26 712.18 368.26C710.4 368.26 708.927 367.874 707.76 367.101C706.593 366.328 705.855 365.2 705.544 363.715L708.09 363.078C708.332 364.018 708.79 364.722 709.465 365.192C710.146 365.662 711.037 365.896 712.135 365.896C713.385 365.896 714.377 365.631 715.112 365.101C715.855 364.563 716.226 363.919 716.226 363.169C716.226 362.563 716.014 362.056 715.59 361.646C715.165 361.23 714.514 360.919 713.635 360.715L710.726 360.033C709.127 359.654 707.953 359.067 707.203 358.271C706.461 357.468 706.09 356.465 706.09 355.26C706.09 354.275 706.366 353.404 706.919 352.646C707.48 351.889 708.241 351.294 709.203 350.862C710.173 350.431 711.271 350.215 712.499 350.215C714.226 350.215 715.582 350.593 716.567 351.351C717.559 352.109 718.264 353.109 718.68 354.351Z" fill="black"/>
</g>
</svg>
