<svg width="1920" height="1080" viewBox="0 0 1920 1080" fill="none" xmlns="http://www.w3.org/2000/svg">
<g id="conclusion and future work">
<rect width="1920" height="1080" fill="white"/>
<path id="Conclusion and future work" d="M531.746 85.75H521.792C521.61 84.4621 521.239 83.3182 520.678 82.3182C520.118 81.303 519.398 80.4394 518.519 79.7273C517.64 79.0151 516.625 78.4697 515.474 78.0909C514.337 77.7121 513.103 77.5227 511.769 77.5227C509.36 77.5227 507.262 78.1212 505.474 79.3182C503.686 80.5 502.299 82.2273 501.315 84.5C500.33 86.7576 499.837 89.5 499.837 92.7273C499.837 96.0455 500.33 98.8333 501.315 101.091C502.315 103.348 503.709 105.053 505.496 106.205C507.284 107.356 509.353 107.932 511.701 107.932C513.019 107.932 514.239 107.758 515.36 107.409C516.496 107.061 517.504 106.553 518.383 105.886C519.262 105.205 519.989 104.379 520.565 103.409C521.156 102.439 521.565 101.333 521.792 100.091L531.746 100.136C531.489 102.273 530.845 104.333 529.815 106.318C528.799 108.288 527.428 110.053 525.701 111.614C523.989 113.159 521.943 114.386 519.565 115.295C517.201 116.189 514.527 116.636 511.542 116.636C507.39 116.636 503.678 115.697 500.406 113.818C497.148 111.939 494.572 109.22 492.678 105.659C490.799 102.098 489.86 97.7879 489.86 92.7273C489.86 87.6515 490.815 83.3333 492.724 79.7727C494.633 76.2121 497.224 73.5 500.496 71.6364C503.769 69.7576 507.451 68.8182 511.542 68.8182C514.239 68.8182 516.739 69.197 519.042 69.9545C521.36 70.7121 523.413 71.8182 525.201 73.2727C526.989 74.7121 528.443 76.4773 529.565 78.5682C530.701 80.6591 531.428 83.053 531.746 85.75ZM554.394 116.682C550.864 116.682 547.811 115.932 545.235 114.432C542.674 112.917 540.697 110.811 539.303 108.114C537.909 105.402 537.212 102.258 537.212 98.6818C537.212 95.0758 537.909 91.9242 539.303 89.2273C540.697 86.5152 542.674 84.4091 545.235 82.9091C547.811 81.3939 550.864 80.6364 554.394 80.6364C557.924 80.6364 560.97 81.3939 563.531 82.9091C566.106 84.4091 568.091 86.5152 569.485 89.2273C570.879 91.9242 571.576 95.0758 571.576 98.6818C571.576 102.258 570.879 105.402 569.485 108.114C568.091 110.811 566.106 112.917 563.531 114.432C560.97 115.932 557.924 116.682 554.394 116.682ZM554.44 109.182C556.046 109.182 557.387 108.727 558.462 107.818C559.538 106.894 560.349 105.636 560.894 104.045C561.455 102.455 561.735 100.644 561.735 98.6136C561.735 96.5833 561.455 94.7727 560.894 93.1818C560.349 91.5909 559.538 90.3333 558.462 89.4091C557.387 88.4848 556.046 88.0227 554.44 88.0227C552.818 88.0227 551.455 88.4848 550.349 89.4091C549.258 90.3333 548.432 91.5909 547.871 93.1818C547.326 94.7727 547.053 96.5833 547.053 98.6136C547.053 100.644 547.326 102.455 547.871 104.045C548.432 105.636 549.258 106.894 550.349 107.818C551.455 108.727 552.818 109.182 554.44 109.182ZM587.553 95.8182V116H577.871V81.0909H587.099V87.25H587.508C588.281 85.2197 589.576 83.6136 591.394 82.4318C593.212 81.2348 595.417 80.6364 598.008 80.6364C600.432 80.6364 602.546 81.1667 604.349 82.2273C606.152 83.2879 607.553 84.803 608.553 86.7727C609.553 88.7273 610.053 91.0606 610.053 93.7727V116H600.371V95.5C600.387 93.3636 599.841 91.697 598.735 90.5C597.629 89.2879 596.106 88.6818 594.167 88.6818C592.864 88.6818 591.712 88.9621 590.712 89.5227C589.728 90.0833 588.955 90.9015 588.394 91.9773C587.849 93.0379 587.568 94.3182 587.553 95.8182ZM633.457 116.682C629.881 116.682 626.805 115.924 624.229 114.409C621.669 112.879 619.699 110.758 618.32 108.045C616.957 105.333 616.275 102.212 616.275 98.6818C616.275 95.1061 616.964 91.9697 618.343 89.2727C619.737 86.5606 621.714 84.447 624.275 82.9318C626.835 81.4015 629.881 80.6364 633.411 80.6364C636.457 80.6364 639.123 81.1894 641.411 82.2955C643.699 83.4015 645.51 84.9545 646.843 86.9545C648.176 88.9545 648.911 91.303 649.048 94H639.911C639.654 92.2576 638.972 90.8561 637.866 89.7955C636.775 88.7197 635.343 88.1818 633.57 88.1818C632.07 88.1818 630.76 88.5909 629.638 89.4091C628.532 90.2121 627.669 91.3864 627.048 92.9318C626.426 94.4773 626.116 96.3485 626.116 98.5455C626.116 100.773 626.419 102.667 627.025 104.227C627.646 105.788 628.517 106.977 629.638 107.795C630.76 108.614 632.07 109.023 633.57 109.023C634.676 109.023 635.669 108.795 636.548 108.341C637.442 107.886 638.176 107.227 638.752 106.364C639.343 105.485 639.729 104.432 639.911 103.205H649.048C648.896 105.871 648.169 108.22 646.866 110.25C645.578 112.265 643.798 113.841 641.525 114.977C639.252 116.114 636.563 116.682 633.457 116.682ZM664.928 69.4545V116H655.246V69.4545H664.928ZM695.07 101.136V81.0909H704.752V116H695.457V109.659H695.093C694.305 111.705 692.995 113.348 691.161 114.591C689.343 115.833 687.123 116.455 684.502 116.455C682.169 116.455 680.116 115.924 678.343 114.864C676.57 113.803 675.184 112.295 674.184 110.341C673.199 108.386 672.699 106.045 672.684 103.318V81.0909H682.366V101.591C682.381 103.652 682.934 105.28 684.025 106.477C685.116 107.674 686.578 108.273 688.411 108.273C689.578 108.273 690.669 108.008 691.684 107.477C692.699 106.932 693.517 106.129 694.138 105.068C694.775 104.008 695.085 102.697 695.07 101.136ZM741.542 91.0455L732.678 91.5909C732.527 90.8333 732.201 90.1515 731.701 89.5455C731.201 88.9242 730.542 88.4318 729.724 88.0682C728.921 87.6894 727.959 87.5 726.837 87.5C725.337 87.5 724.072 87.8182 723.042 88.4545C722.012 89.0758 721.496 89.9091 721.496 90.9545C721.496 91.7879 721.83 92.4924 722.496 93.0682C723.163 93.6439 724.307 94.1061 725.928 94.4545L732.246 95.7273C735.64 96.4242 738.171 97.5455 739.837 99.0909C741.504 100.636 742.337 102.667 742.337 105.182C742.337 107.47 741.663 109.477 740.315 111.205C738.981 112.932 737.148 114.28 734.815 115.25C732.496 116.205 729.822 116.682 726.792 116.682C722.171 116.682 718.489 115.72 715.746 113.795C713.019 111.856 711.421 109.22 710.951 105.886L720.474 105.386C720.762 106.795 721.459 107.871 722.565 108.614C723.671 109.341 725.087 109.705 726.815 109.705C728.512 109.705 729.875 109.379 730.906 108.727C731.951 108.061 732.481 107.205 732.496 106.159C732.481 105.28 732.11 104.561 731.383 104C730.656 103.424 729.534 102.985 728.019 102.682L721.974 101.477C718.565 100.795 716.027 99.6136 714.36 97.9318C712.709 96.25 711.883 94.1061 711.883 91.5C711.883 89.2576 712.489 87.3258 713.701 85.7045C714.928 84.0833 716.648 82.8333 718.86 81.9545C721.087 81.0758 723.693 80.6364 726.678 80.6364C731.087 80.6364 734.557 81.5682 737.087 83.4318C739.633 85.2955 741.118 87.8333 741.542 91.0455ZM748.434 116V81.0909H758.116V116H748.434ZM753.298 76.5909C751.858 76.5909 750.623 76.1136 749.593 75.1591C748.578 74.1894 748.07 73.0303 748.07 71.6818C748.07 70.3485 748.578 69.2045 749.593 68.25C750.623 67.2803 751.858 66.7955 753.298 66.7955C754.737 66.7955 755.964 67.2803 756.979 68.25C758.01 69.2045 758.525 70.3485 758.525 71.6818C758.525 73.0303 758.01 74.1894 756.979 75.1591C755.964 76.1136 754.737 76.5909 753.298 76.5909ZM781.644 116.682C778.114 116.682 775.061 115.932 772.485 114.432C769.924 112.917 767.947 110.811 766.553 108.114C765.159 105.402 764.462 102.258 764.462 98.6818C764.462 95.0758 765.159 91.9242 766.553 89.2273C767.947 86.5152 769.924 84.4091 772.485 82.9091C775.061 81.3939 778.114 80.6364 781.644 80.6364C785.174 80.6364 788.22 81.3939 790.781 82.9091C793.356 84.4091 795.341 86.5152 796.735 89.2273C798.129 91.9242 798.826 95.0758 798.826 98.6818C798.826 102.258 798.129 105.402 796.735 108.114C795.341 110.811 793.356 112.917 790.781 114.432C788.22 115.932 785.174 116.682 781.644 116.682ZM781.69 109.182C783.296 109.182 784.637 108.727 785.712 107.818C786.788 106.894 787.599 105.636 788.144 104.045C788.705 102.455 788.985 100.644 788.985 98.6136C788.985 96.5833 788.705 94.7727 788.144 93.1818C787.599 91.5909 786.788 90.3333 785.712 89.4091C784.637 88.4848 783.296 88.0227 781.69 88.0227C780.068 88.0227 778.705 88.4848 777.599 89.4091C776.508 90.3333 775.682 91.5909 775.121 93.1818C774.576 94.7727 774.303 96.5833 774.303 98.6136C774.303 100.644 774.576 102.455 775.121 104.045C775.682 105.636 776.508 106.894 777.599 107.818C778.705 108.727 780.068 109.182 781.69 109.182ZM814.803 95.8182V116H805.121V81.0909H814.349V87.25H814.758C815.531 85.2197 816.826 83.6136 818.644 82.4318C820.462 81.2348 822.667 80.6364 825.258 80.6364C827.682 80.6364 829.796 81.1667 831.599 82.2273C833.402 83.2879 834.803 84.803 835.803 86.7727C836.803 88.7273 837.303 91.0606 837.303 93.7727V116H827.621V95.5C827.637 93.3636 827.091 91.697 825.985 90.5C824.879 89.2879 823.356 88.6818 821.417 88.6818C820.114 88.6818 818.962 88.9621 817.962 89.5227C816.978 90.0833 816.205 90.9015 815.644 91.9773C815.099 93.0379 814.818 94.3182 814.803 95.8182ZM869.701 116.659C867.474 116.659 865.489 116.273 863.746 115.5C862.004 114.712 860.625 113.553 859.61 112.023C858.61 110.477 858.11 108.553 858.11 106.25C858.11 104.311 858.466 102.682 859.178 101.364C859.89 100.045 860.86 98.9848 862.087 98.1818C863.315 97.3788 864.709 96.7727 866.269 96.3636C867.845 95.9545 869.496 95.6667 871.224 95.5C873.254 95.2879 874.89 95.0909 876.133 94.9091C877.375 94.7121 878.277 94.4242 878.837 94.0455C879.398 93.6667 879.678 93.1061 879.678 92.3636V92.2273C879.678 90.7879 879.224 89.6742 878.315 88.8864C877.421 88.0985 876.148 87.7045 874.496 87.7045C872.754 87.7045 871.368 88.0909 870.337 88.8636C869.307 89.6212 868.625 90.5758 868.292 91.7273L859.337 91C859.792 88.8788 860.686 87.0455 862.019 85.5C863.353 83.9394 865.072 82.7424 867.178 81.9091C869.299 81.0606 871.754 80.6364 874.542 80.6364C876.481 80.6364 878.337 80.8636 880.11 81.3182C881.898 81.7727 883.481 82.4773 884.86 83.4318C886.254 84.3864 887.353 85.6136 888.156 87.1136C888.959 88.5985 889.36 90.3788 889.36 92.4545V116H880.178V111.159H879.906C879.345 112.25 878.595 113.212 877.656 114.045C876.716 114.864 875.587 115.508 874.269 115.977C872.951 116.432 871.428 116.659 869.701 116.659ZM872.474 109.977C873.898 109.977 875.156 109.697 876.246 109.136C877.337 108.561 878.193 107.788 878.815 106.818C879.436 105.848 879.746 104.75 879.746 103.523V99.8182C879.443 100.015 879.027 100.197 878.496 100.364C877.981 100.515 877.398 100.659 876.746 100.795C876.095 100.917 875.443 101.03 874.792 101.136C874.14 101.227 873.549 101.311 873.019 101.386C871.883 101.553 870.89 101.818 870.042 102.182C869.193 102.545 868.534 103.038 868.065 103.659C867.595 104.265 867.36 105.023 867.36 105.932C867.36 107.25 867.837 108.258 868.792 108.955C869.762 109.636 870.989 109.977 872.474 109.977ZM906.553 95.8182V116H896.871V81.0909H906.099V87.25H906.508C907.281 85.2197 908.576 83.6136 910.394 82.4318C912.212 81.2348 914.417 80.6364 917.008 80.6364C919.432 80.6364 921.546 81.1667 923.349 82.2273C925.152 83.2879 926.553 84.803 927.553 86.7727C928.553 88.7273 929.053 91.0606 929.053 93.7727V116H919.371V95.5C919.387 93.3636 918.841 91.697 917.735 90.5C916.629 89.2879 915.106 88.6818 913.167 88.6818C911.864 88.6818 910.712 88.9621 909.712 89.5227C908.728 90.0833 907.955 90.9015 907.394 91.9773C906.849 93.0379 906.568 94.3182 906.553 95.8182ZM949.548 116.568C946.896 116.568 944.495 115.886 942.343 114.523C940.207 113.144 938.51 111.121 937.252 108.455C936.01 105.773 935.388 102.485 935.388 98.5909C935.388 94.5909 936.032 91.2652 937.32 88.6136C938.608 85.947 940.32 83.9545 942.457 82.6364C944.608 81.303 946.964 80.6364 949.525 80.6364C951.479 80.6364 953.108 80.9697 954.411 81.6364C955.729 82.2879 956.79 83.1061 957.593 84.0909C958.411 85.0606 959.032 86.0152 959.457 86.9545H959.752V69.4545H969.411V116H959.866V110.409H959.457C959.002 111.379 958.358 112.341 957.525 113.295C956.707 114.235 955.638 115.015 954.32 115.636C953.017 116.258 951.426 116.568 949.548 116.568ZM952.616 108.864C954.176 108.864 955.495 108.439 956.57 107.591C957.661 106.727 958.495 105.523 959.07 103.977C959.661 102.432 959.957 100.621 959.957 98.5455C959.957 96.4697 959.669 94.6667 959.093 93.1364C958.517 91.6061 957.684 90.4242 956.593 89.5909C955.502 88.7576 954.176 88.3409 952.616 88.3409C951.025 88.3409 949.684 88.7727 948.593 89.6364C947.502 90.5 946.676 91.697 946.116 93.2273C945.555 94.7576 945.275 96.5303 945.275 98.5455C945.275 100.576 945.555 102.371 946.116 103.932C946.692 105.477 947.517 106.689 948.593 107.568C949.684 108.432 951.025 108.864 952.616 108.864ZM1010.96 81.0909V88.3636H989.411V81.0909H1010.96ZM994.343 116V78.5682C994.343 76.0379 994.835 73.9394 995.82 72.2727C996.82 70.6061 998.184 69.3561 999.911 68.5227C1001.64 67.6894 1003.6 67.2727 1005.8 67.2727C1007.28 67.2727 1008.64 67.3864 1009.87 67.6136C1011.11 67.8409 1012.03 68.0455 1012.64 68.2273L1010.91 75.5C1010.53 75.3788 1010.06 75.2651 1009.5 75.1591C1008.96 75.053 1008.4 75 1007.82 75C1006.4 75 1005.4 75.3333 1004.84 76C1004.28 76.6515 1004 77.5682 1004 78.75V116H994.343ZM1039.26 101.136V81.0909H1048.94V116H1039.64V109.659H1039.28C1038.49 111.705 1037.18 113.348 1035.35 114.591C1033.53 115.833 1031.31 116.455 1028.69 116.455C1026.36 116.455 1024.3 115.924 1022.53 114.864C1020.76 113.803 1019.37 112.295 1018.37 110.341C1017.39 108.386 1016.89 106.045 1016.87 103.318V81.0909H1026.55V101.591C1026.57 103.652 1027.12 105.28 1028.21 106.477C1029.3 107.674 1030.77 108.273 1032.6 108.273C1033.77 108.273 1034.86 108.008 1035.87 107.477C1036.89 106.932 1037.7 106.129 1038.33 105.068C1038.96 104.008 1039.27 102.697 1039.26 101.136ZM1075.25 81.0909V88.3636H1054.23V81.0909H1075.25ZM1059 72.7273H1068.68V105.273C1068.68 106.167 1068.82 106.864 1069.09 107.364C1069.37 107.848 1069.74 108.189 1070.23 108.386C1070.73 108.583 1071.31 108.682 1071.96 108.682C1072.41 108.682 1072.87 108.644 1073.32 108.568C1073.77 108.477 1074.12 108.409 1074.37 108.364L1075.89 115.568C1075.4 115.72 1074.72 115.894 1073.84 116.091C1072.96 116.303 1071.9 116.432 1070.64 116.477C1068.31 116.568 1066.26 116.258 1064.5 115.545C1062.76 114.833 1061.4 113.727 1060.43 112.227C1059.46 110.727 1058.99 108.833 1059 106.545V72.7273ZM1103.95 101.136V81.0909H1113.63V116H1104.33V109.659H1103.97C1103.18 111.705 1101.87 113.348 1100.04 114.591C1098.22 115.833 1096 116.455 1093.38 116.455C1091.04 116.455 1088.99 115.924 1087.22 114.864C1085.45 113.803 1084.06 112.295 1083.06 110.341C1082.07 108.386 1081.57 106.045 1081.56 103.318V81.0909H1091.24V101.591C1091.26 103.652 1091.81 105.28 1092.9 106.477C1093.99 107.674 1095.45 108.273 1097.29 108.273C1098.45 108.273 1099.54 108.008 1100.56 107.477C1101.57 106.932 1102.39 106.129 1103.01 105.068C1103.65 104.008 1103.96 102.697 1103.95 101.136ZM1121.37 116V81.0909H1130.76V87.1818H1131.12C1131.76 85.0152 1132.83 83.3788 1134.33 82.2727C1135.83 81.1515 1137.55 80.5909 1139.51 80.5909C1139.99 80.5909 1140.52 80.6212 1141.08 80.6818C1141.64 80.7424 1142.13 80.8258 1142.55 80.9318V89.5227C1142.1 89.3864 1141.47 89.2652 1140.67 89.1591C1139.86 89.053 1139.13 89 1138.46 89C1137.04 89 1135.77 89.3106 1134.64 89.9318C1133.54 90.5379 1132.66 91.3864 1132.01 92.4773C1131.37 93.5682 1131.05 94.8258 1131.05 96.25V116H1121.37ZM1161.84 116.682C1158.25 116.682 1155.16 115.955 1152.57 114.5C1149.99 113.03 1148.01 110.955 1146.62 108.273C1145.22 105.576 1144.52 102.386 1144.52 98.7045C1144.52 95.1136 1145.22 91.9621 1146.62 89.25C1148.01 86.5379 1149.97 84.4242 1152.5 82.9091C1155.05 81.3939 1158.03 80.6364 1161.46 80.6364C1163.76 80.6364 1165.9 81.0076 1167.89 81.75C1169.89 82.4773 1171.63 83.5758 1173.12 85.0455C1174.62 86.5152 1175.78 88.3636 1176.62 90.5909C1177.45 92.803 1177.87 95.3939 1177.87 98.3636V101.023H1148.39V95.0227H1168.75C1168.75 93.6288 1168.45 92.3939 1167.84 91.3182C1167.24 90.2424 1166.4 89.4015 1165.32 88.7955C1164.26 88.1742 1163.02 87.8636 1161.62 87.8636C1160.15 87.8636 1158.84 88.2045 1157.71 88.8864C1156.59 89.553 1155.71 90.4545 1155.07 91.5909C1154.43 92.7121 1154.11 93.9621 1154.09 95.3409V101.045C1154.09 102.773 1154.41 104.265 1155.05 105.523C1155.7 106.78 1156.62 107.75 1157.8 108.432C1158.98 109.114 1160.38 109.455 1162 109.455C1163.08 109.455 1164.06 109.303 1164.96 109C1165.85 108.697 1166.62 108.242 1167.25 107.636C1167.89 107.03 1168.37 106.288 1168.71 105.409L1177.66 106C1177.21 108.152 1176.27 110.03 1174.87 111.636C1173.47 113.227 1171.67 114.47 1169.46 115.364C1167.26 116.242 1164.72 116.682 1161.84 116.682ZM1205.88 116L1196.38 81.0909H1206.18L1211.59 104.545H1211.91L1217.54 81.0909H1227.16L1232.88 104.409H1233.18L1238.5 81.0909H1248.27L1238.79 116H1228.54L1222.54 94.0455H1222.11L1216.11 116H1205.88ZM1268.33 116.682C1264.8 116.682 1261.75 115.932 1259.17 114.432C1256.61 112.917 1254.63 110.811 1253.24 108.114C1251.85 105.402 1251.15 102.258 1251.15 98.6818C1251.15 95.0758 1251.85 91.9242 1253.24 89.2273C1254.63 86.5152 1256.61 84.4091 1259.17 82.9091C1261.75 81.3939 1264.8 80.6364 1268.33 80.6364C1271.86 80.6364 1274.91 81.3939 1277.47 82.9091C1280.04 84.4091 1282.03 86.5152 1283.42 89.2273C1284.82 91.9242 1285.51 95.0758 1285.51 98.6818C1285.51 102.258 1284.82 105.402 1283.42 108.114C1282.03 110.811 1280.04 112.917 1277.47 114.432C1274.91 115.932 1271.86 116.682 1268.33 116.682ZM1268.38 109.182C1269.98 109.182 1271.32 108.727 1272.4 107.818C1273.48 106.894 1274.29 105.636 1274.83 104.045C1275.39 102.455 1275.67 100.644 1275.67 98.6136C1275.67 96.5833 1275.39 94.7727 1274.83 93.1818C1274.29 91.5909 1273.48 90.3333 1272.4 89.4091C1271.32 88.4848 1269.98 88.0227 1268.38 88.0227C1266.76 88.0227 1265.39 88.4848 1264.29 89.4091C1263.2 90.3333 1262.37 91.5909 1261.81 93.1818C1261.26 94.7727 1260.99 96.5833 1260.99 98.6136C1260.99 100.644 1261.26 102.455 1261.81 104.045C1262.37 105.636 1263.2 106.894 1264.29 107.818C1265.39 108.727 1266.76 109.182 1268.38 109.182ZM1291.81 116V81.0909H1301.2V87.1818H1301.56C1302.2 85.0152 1303.26 83.3788 1304.76 82.2727C1306.26 81.1515 1307.99 80.5909 1309.95 80.5909C1310.43 80.5909 1310.95 80.6212 1311.51 80.6818C1312.07 80.7424 1312.57 80.8258 1312.99 80.9318V89.5227C1312.54 89.3864 1311.91 89.2652 1311.1 89.1591C1310.3 89.053 1309.57 89 1308.9 89C1307.48 89 1306.2 89.3106 1305.08 89.9318C1303.98 90.5379 1303.1 91.3864 1302.45 92.4773C1301.81 93.5682 1301.49 94.8258 1301.49 96.25V116H1291.81ZM1326.77 105.955L1326.79 94.3409H1328.2L1339.38 81.0909H1350.5L1335.47 98.6364H1333.18L1326.77 105.955ZM1318 116V69.4545H1327.68V116H1318ZM1339.81 116L1329.54 100.795L1336 93.9545L1351.16 116H1339.81Z" fill="black"/>
</g>
</svg>
