<svg width="1920" height="1080" viewBox="0 0 1920 1080" fill="none" xmlns="http://www.w3.org/2000/svg">
<g id="system">
<rect width="1920" height="1080" fill="white"/>
<path id="P" d="M597.836 826.512V779.966H613.563C617.214 779.966 620.199 780.625 622.517 781.944C624.851 783.247 626.578 785.012 627.699 787.239C628.82 789.466 629.381 791.951 629.381 794.694C629.381 797.436 628.82 799.928 627.699 802.171C626.593 804.413 624.881 806.201 622.563 807.534C620.245 808.853 617.275 809.512 613.654 809.512H602.381V804.512H613.472C615.972 804.512 617.98 804.08 619.495 803.216C621.01 802.353 622.108 801.186 622.79 799.716C623.487 798.231 623.836 796.557 623.836 794.694C623.836 792.83 623.487 791.163 622.79 789.694C622.108 788.224 621.002 787.072 619.472 786.239C617.942 785.391 615.911 784.966 613.381 784.966H603.472V826.512H597.836Z" fill="black"/>
<path id="Q" d="M1102.06 807.966H1108.24L1113.42 814.784L1114.78 816.603L1122.51 826.875H1116.33L1111.24 820.057L1109.97 818.33L1102.06 807.966ZM1124.42 799.239C1124.42 804.148 1123.53 808.391 1121.76 811.966C1119.99 815.542 1117.56 818.3 1114.47 820.239C1111.38 822.178 1107.85 823.148 1103.88 823.148C1099.91 823.148 1096.38 822.178 1093.28 820.239C1090.19 818.3 1087.76 815.542 1085.99 811.966C1084.22 808.391 1083.33 804.148 1083.33 799.239C1083.33 794.33 1084.22 790.087 1085.99 786.512C1087.76 782.936 1090.19 780.178 1093.28 778.239C1096.38 776.3 1099.91 775.33 1103.88 775.33C1107.85 775.33 1111.38 776.3 1114.47 778.239C1117.56 780.178 1119.99 782.936 1121.76 786.512C1123.53 790.087 1124.42 794.33 1124.42 799.239ZM1118.97 799.239C1118.97 795.209 1118.29 791.807 1116.94 789.034C1115.61 786.262 1113.8 784.163 1111.51 782.739C1109.24 781.315 1106.69 780.603 1103.88 780.603C1101.06 780.603 1098.5 781.315 1096.22 782.739C1093.94 784.163 1092.13 786.262 1090.78 789.034C1089.45 791.807 1088.78 795.209 1088.78 799.239C1088.78 803.269 1089.45 806.671 1090.78 809.444C1092.13 812.216 1093.94 814.315 1096.22 815.739C1098.5 817.163 1101.06 817.875 1103.88 817.875C1106.69 817.875 1109.24 817.163 1111.51 815.739C1113.8 814.315 1115.61 812.216 1116.94 809.444C1118.29 806.671 1118.97 803.269 1118.97 799.239Z" fill="black"/>
<path id="R" d="M1533.15 826.512V779.966H1548.88C1552.51 779.966 1555.5 780.587 1557.83 781.83C1560.16 783.057 1561.89 784.747 1563.01 786.898C1564.13 789.05 1564.69 791.497 1564.69 794.239C1564.69 796.981 1564.13 799.413 1563.01 801.534C1561.89 803.656 1560.17 805.322 1557.85 806.534C1555.53 807.731 1552.57 808.33 1548.97 808.33H1536.24V803.239H1548.78C1551.27 803.239 1553.27 802.875 1554.78 802.148C1556.31 801.421 1557.42 800.391 1558.1 799.057C1558.8 797.709 1559.15 796.103 1559.15 794.239C1559.15 792.375 1558.8 790.747 1558.1 789.353C1557.41 787.959 1556.29 786.883 1554.76 786.125C1553.23 785.353 1551.21 784.966 1548.69 784.966H1538.78V826.512H1533.15ZM1555.06 805.603L1566.51 826.512H1559.97L1548.69 805.603H1555.06Z" fill="black"/>
<g id="await ( x = 0)" clip-path="url(#clip0_30_120)">
<g id="page1">
<path id="Vector" d="M429.104 932.224C428.77 933.294 428.77 933.42 427.836 934.615C426.369 936.378 423.435 939.084 420.301 939.084C417.567 939.084 416.033 936.755 416.033 933.042C416.033 929.58 418.1 922.531 419.367 919.888C421.635 915.482 424.769 913.217 427.37 913.217C431.771 913.217 432.638 918.378 432.638 918.881C432.638 918.944 432.438 919.762 432.371 919.888L429.104 932.224ZM433.371 916.112C432.638 914.475 430.837 911.958 427.37 911.958C419.834 911.958 411.698 921.147 411.698 930.462C411.698 936.692 415.566 940.343 420.101 940.343C423.769 940.343 426.903 937.636 428.77 935.559C429.437 939.273 432.571 940.343 434.572 940.343C436.572 940.343 438.173 939.21 439.373 936.944C440.44 934.804 441.374 930.965 441.374 930.713C441.374 930.399 441.107 930.147 440.707 930.147C440.107 930.147 440.04 930.462 439.773 931.406C438.773 935.119 437.506 939.084 434.772 939.084C432.838 939.084 432.705 937.448 432.705 936.189C432.705 934.741 432.905 934.049 433.505 931.594C433.972 930.021 434.305 928.636 434.839 926.811C437.306 917.371 437.906 915.105 437.906 914.727C437.906 913.846 437.173 913.154 436.172 913.154C434.038 913.154 433.505 915.357 433.371 916.112Z" fill="black"/>
<path id="Vector_2" d="M466.249 935.874C467.716 939.65 471.851 940.343 474.385 940.343C479.453 940.343 482.454 936.189 484.321 931.846C485.855 928.196 488.322 919.888 488.322 916.175C488.322 912.336 486.255 911.958 485.655 911.958C484.055 911.958 482.587 913.468 482.587 914.727C482.587 915.482 483.054 915.923 483.388 916.175C483.988 916.741 485.722 918.441 485.722 921.713C485.722 923.853 483.854 929.769 482.454 932.727C480.587 936.566 478.119 939.084 474.652 939.084C470.917 939.084 469.717 936.441 469.717 933.545C469.717 931.72 470.317 929.517 470.584 928.448L473.385 917.874C473.718 916.615 474.318 914.413 474.318 914.161C474.318 913.217 473.518 912.587 472.518 912.587C470.584 912.587 470.117 914.161 469.717 915.671C469.05 918.126 466.249 928.762 465.982 930.147C465.716 931.217 465.716 931.909 465.716 933.294C465.716 934.804 463.582 937.196 463.515 937.322C462.781 938.014 461.714 939.084 459.647 939.084C454.379 939.084 454.379 934.364 454.379 933.294C454.379 931.28 454.846 928.51 457.847 921.021C458.647 919.07 458.98 918.252 458.98 916.993C458.98 914.35 456.98 911.958 453.712 911.958C447.577 911.958 445.109 921.084 445.109 921.587C445.109 921.839 445.376 922.154 445.843 922.154C446.443 922.154 446.51 921.902 446.777 921.021C448.444 915.482 451.045 913.217 453.512 913.217C454.179 913.217 455.246 913.28 455.246 915.294C455.246 915.608 455.246 916.93 454.112 919.699C450.978 927.566 450.311 930.147 450.311 932.538C450.311 939.147 456.046 940.343 459.447 940.343C460.581 940.343 463.582 940.343 466.249 935.874Z" fill="black"/>
<path id="Vector_3" d="M511.852 932.224C511.518 933.294 511.518 933.42 510.585 934.615C509.117 936.378 506.183 939.084 503.049 939.084C500.315 939.084 498.781 936.755 498.781 933.042C498.781 929.58 500.848 922.531 502.115 919.888C504.383 915.482 507.517 913.217 510.118 913.217C514.519 913.217 515.386 918.378 515.386 918.881C515.386 918.944 515.186 919.762 515.119 919.888L511.852 932.224ZM516.12 916.112C515.386 914.475 513.585 911.958 510.118 911.958C502.582 911.958 494.446 921.147 494.446 930.462C494.446 936.692 498.314 940.343 502.849 940.343C506.517 940.343 509.651 937.636 511.518 935.559C512.185 939.273 515.319 940.343 517.32 940.343C519.32 940.343 520.921 939.21 522.121 936.944C523.188 934.804 524.122 930.965 524.122 930.713C524.122 930.399 523.855 930.147 523.455 930.147C522.855 930.147 522.788 930.462 522.521 931.406C521.521 935.119 520.254 939.084 517.52 939.084C515.586 939.084 515.453 937.448 515.453 936.189C515.453 934.741 515.653 934.049 516.253 931.594C516.72 930.021 517.053 928.636 517.587 926.811C520.054 917.371 520.654 915.105 520.654 914.727C520.654 913.846 519.921 913.154 518.92 913.154C516.786 913.154 516.253 915.357 516.12 916.112Z" fill="black"/>
<path id="Vector_4" d="M544.928 930.713C544.928 930.398 544.662 930.146 544.261 930.146C543.661 930.146 543.595 930.335 543.261 931.405C541.527 937.133 538.793 939.084 536.592 939.084C535.792 939.084 534.859 938.895 534.859 937.007C534.859 935.307 535.659 933.419 536.392 931.531L541.06 919.825C541.261 919.321 541.727 918.188 541.727 916.993C541.727 914.349 539.727 911.958 536.459 911.958C530.324 911.958 527.856 921.084 527.856 921.587C527.856 921.839 528.123 922.153 528.59 922.153C529.19 922.153 529.257 921.902 529.524 921.021C531.124 915.734 533.658 913.216 536.259 913.216C536.859 913.216 537.993 913.279 537.993 915.293C537.993 916.93 537.126 919.007 536.592 920.391L531.924 932.098C531.524 933.105 531.124 934.112 531.124 935.244C531.124 938.077 533.191 940.342 536.392 940.342C542.528 940.342 544.928 931.153 544.928 930.713ZM544.395 900.44C544.395 899.496 543.595 898.363 542.127 898.363C540.594 898.363 538.86 899.748 538.86 901.384C538.86 902.958 540.26 903.461 541.06 903.461C542.861 903.461 544.395 901.825 544.395 900.44Z" fill="black"/>
<path id="Vector_5" d="M561.736 914.415H567.871C569.138 914.415 569.805 914.415 569.805 913.282C569.805 912.59 569.405 912.59 568.071 912.59H562.203L564.67 903.401C564.937 902.52 564.937 902.394 564.937 901.953C564.937 900.946 564.07 900.38 563.203 900.38C562.669 900.38 561.136 900.569 560.602 902.583L558.001 912.59H551.733C550.399 912.59 549.799 912.59 549.799 913.785C549.799 914.415 550.266 914.415 551.533 914.415H557.468L553.066 931.03C552.533 933.233 552.333 933.862 552.333 934.681C552.333 937.639 554.534 940.345 558.268 940.345C565.003 940.345 568.605 931.156 568.605 930.716C568.605 930.338 568.338 930.149 567.938 930.149C567.804 930.149 567.538 930.149 567.404 930.401C567.337 930.464 567.271 930.527 566.804 931.534C565.404 934.681 562.336 939.086 558.468 939.086C556.468 939.086 556.334 937.513 556.334 936.128C556.334 936.065 556.334 934.869 556.534 934.114L561.736 914.415Z" fill="black"/>
<path id="Vector_6" d="M593.582 955.008C593.582 954.819 593.582 954.694 592.449 953.624C585.78 947.267 582.045 936.882 582.045 924.043C582.045 911.833 585.18 901.323 592.915 893.896C593.582 893.33 593.582 893.204 593.582 893.015C593.582 892.638 593.249 892.512 592.982 892.512C592.115 892.512 586.647 897.043 583.379 903.211C579.978 909.568 578.444 916.302 578.444 924.043C578.444 929.645 579.378 937.134 582.846 943.868C586.78 951.421 592.249 955.512 592.982 955.512C593.249 955.512 593.582 955.386 593.582 955.008Z" fill="black"/>
<path id="Vector_7" d="M628.915 914.035C626.781 914.413 625.981 915.923 625.981 917.119C625.981 918.629 627.248 919.133 628.182 919.133C630.182 919.133 631.583 917.496 631.583 915.797C631.583 913.154 628.382 911.958 625.581 911.958C621.513 911.958 619.246 915.734 618.645 916.93C617.112 912.21 612.977 911.958 611.777 911.958C604.975 911.958 601.374 920.203 601.374 921.587C601.374 921.839 601.64 922.154 602.107 922.154C602.641 922.154 602.774 921.776 602.907 921.524C605.175 914.538 609.643 913.217 611.577 913.217C614.578 913.217 615.178 915.86 615.178 917.371C615.178 918.755 614.778 920.203 613.977 923.224L611.71 931.846C610.71 935.622 608.776 939.084 605.241 939.084C604.908 939.084 603.241 939.084 601.84 938.266C604.241 937.825 604.775 935.937 604.775 935.182C604.775 933.923 603.774 933.168 602.507 933.168C600.907 933.168 599.173 934.489 599.173 936.503C599.173 939.147 602.307 940.343 605.175 940.343C608.376 940.343 610.643 937.951 612.043 935.371C613.11 939.084 616.445 940.343 618.912 940.343C625.714 940.343 629.315 932.098 629.315 930.713C629.315 930.399 629.049 930.147 628.648 930.147C628.048 930.147 627.982 930.462 627.782 930.965C625.981 936.503 622.113 939.084 619.112 939.084C616.778 939.084 615.511 937.448 615.511 934.867C615.511 933.482 615.778 932.475 616.845 928.322L619.179 919.762C620.179 915.986 622.447 913.217 625.514 913.217C625.648 913.217 627.515 913.217 628.915 914.035Z" fill="black"/>
<path id="Vector_8" d="M697.949 919.323C698.882 919.323 700.083 919.323 700.083 918.19C700.083 916.994 698.949 916.994 697.949 916.994H658.67C657.736 916.994 656.536 916.994 656.536 918.127C656.536 919.323 657.67 919.323 658.67 919.323H697.949ZM697.949 931.029C698.882 931.029 700.083 931.029 700.083 929.896C700.083 928.7 698.949 928.7 697.949 928.7H658.67C657.736 928.7 656.536 928.7 656.536 929.833C656.536 931.029 657.67 931.029 658.67 931.029H697.949Z" fill="black"/>
<path id="Vector_9" d="M752.119 919.576C752.119 914.352 751.786 909.254 749.385 904.471C746.651 899.247 741.849 897.862 738.582 897.862C734.714 897.862 729.979 899.687 727.512 904.911C725.644 908.876 724.978 912.778 724.978 919.576C724.978 925.68 725.444 930.275 727.845 934.743C730.446 939.527 735.047 941.037 738.515 941.037C744.317 941.037 747.651 937.764 749.585 934.114C751.986 929.394 752.119 923.226 752.119 919.576ZM738.515 939.778C736.381 939.778 732.046 938.646 730.779 931.785C730.046 928.009 730.046 923.226 730.046 918.82C730.046 913.66 730.046 909.002 731.113 905.289C732.246 901.072 735.647 899.121 738.515 899.121C741.049 899.121 744.917 900.569 746.184 905.981C747.051 909.569 747.051 914.541 747.051 918.82C747.051 923.037 747.051 927.82 746.317 931.66C745.05 938.583 740.849 939.778 738.515 939.778Z" fill="black"/>
<path id="Vector_10" d="M773.699 924.043C773.699 919.26 773.033 911.456 769.298 904.155C765.364 896.603 759.895 892.512 759.162 892.512C758.895 892.512 758.562 892.638 758.562 893.015C758.562 893.204 758.562 893.33 759.695 894.4C766.364 900.756 770.098 911.141 770.098 923.98C770.098 936.19 766.964 946.701 759.228 954.127C758.562 954.694 758.562 954.819 758.562 955.008C758.562 955.386 758.895 955.512 759.162 955.512C760.029 955.512 765.497 950.98 768.765 944.812C772.166 938.393 773.699 931.596 773.699 924.043Z" fill="black"/>
</g>
</g>
<g id="await (y = 0)" clip-path="url(#clip1_30_120)">
<g id="page1_2">
<path id="Vector_11" d="M948.911 937.702C948.578 938.704 948.578 938.822 947.644 939.941C946.178 941.592 943.245 944.126 940.111 944.126C937.378 944.126 935.845 941.945 935.845 938.468C935.845 935.226 937.911 928.625 939.178 926.149C941.445 922.023 944.578 919.901 947.178 919.901C951.577 919.901 952.444 924.735 952.444 925.206C952.444 925.265 952.244 926.031 952.177 926.149L948.911 937.702ZM953.177 922.613C952.444 921.08 950.644 918.723 947.178 918.723C939.645 918.723 931.512 927.328 931.512 936.051C931.512 941.886 935.378 945.305 939.911 945.305C943.578 945.305 946.711 942.771 948.578 940.826C949.244 944.303 952.377 945.305 954.377 945.305C956.377 945.305 957.977 944.244 959.177 942.122C960.244 940.118 961.177 936.523 961.177 936.287C961.177 935.992 960.91 935.757 960.51 935.757C959.91 935.757 959.844 936.051 959.577 936.935C958.577 940.413 957.311 944.126 954.577 944.126C952.644 944.126 952.511 942.594 952.511 941.415C952.511 940.059 952.711 939.411 953.311 937.112C953.777 935.639 954.111 934.342 954.644 932.633C957.111 923.792 957.711 921.67 957.711 921.316C957.711 920.491 956.977 919.843 955.977 919.843C953.844 919.843 953.311 921.905 953.177 922.613Z" fill="black"/>
<path id="Vector_12" d="M986.044 941.12C987.51 944.657 991.643 945.305 994.176 945.305C999.243 945.305 1002.24 941.415 1004.11 937.348C1005.64 933.929 1008.11 926.149 1008.11 922.672C1008.11 919.076 1006.04 918.723 1005.44 918.723C1003.84 918.723 1002.38 920.137 1002.38 921.316C1002.38 922.023 1002.84 922.436 1003.18 922.672C1003.78 923.202 1005.51 924.794 1005.51 927.859C1005.51 929.863 1003.64 935.403 1002.24 938.173C1000.38 941.769 997.91 944.126 994.443 944.126C990.71 944.126 989.51 941.651 989.51 938.939C989.51 937.23 990.11 935.167 990.377 934.165L993.177 924.263C993.51 923.084 994.11 921.021 994.11 920.786C994.11 919.901 993.31 919.312 992.31 919.312C990.377 919.312 989.91 920.786 989.51 922.2C988.843 924.499 986.044 934.46 985.777 935.757C985.51 936.759 985.51 937.407 985.51 938.704C985.51 940.118 983.377 942.358 983.31 942.476C982.577 943.124 981.51 944.126 979.444 944.126C974.177 944.126 974.177 939.706 974.177 938.704C974.177 936.818 974.644 934.224 977.644 927.21C978.444 925.383 978.777 924.617 978.777 923.438C978.777 920.962 976.777 918.723 973.511 918.723C967.378 918.723 964.911 927.269 964.911 927.741C964.911 927.976 965.178 928.271 965.644 928.271C966.244 928.271 966.311 928.035 966.578 927.21C968.244 922.023 970.844 919.901 973.311 919.901C973.977 919.901 975.044 919.96 975.044 921.847C975.044 922.141 975.044 923.379 973.911 925.972C970.778 933.34 970.111 935.757 970.111 937.996C970.111 944.185 975.844 945.305 979.244 945.305C980.377 945.305 983.377 945.305 986.044 941.12Z" fill="black"/>
<path id="Vector_13" d="M1031.63 937.702C1031.3 938.704 1031.3 938.822 1030.36 939.941C1028.9 941.592 1025.96 944.126 1022.83 944.126C1020.1 944.126 1018.56 941.945 1018.56 938.468C1018.56 935.226 1020.63 928.625 1021.9 926.149C1024.16 922.023 1027.3 919.901 1029.9 919.901C1034.3 919.901 1035.16 924.735 1035.16 925.206C1035.16 925.265 1034.96 926.031 1034.9 926.149L1031.63 937.702ZM1035.9 922.613C1035.16 921.08 1033.36 918.723 1029.9 918.723C1022.36 918.723 1014.23 927.328 1014.23 936.051C1014.23 941.886 1018.1 945.305 1022.63 945.305C1026.3 945.305 1029.43 942.771 1031.3 940.826C1031.96 944.303 1035.1 945.305 1037.1 945.305C1039.1 945.305 1040.7 944.244 1041.9 942.122C1042.96 940.118 1043.9 936.523 1043.9 936.287C1043.9 935.992 1043.63 935.757 1043.23 935.757C1042.63 935.757 1042.56 936.051 1042.3 936.935C1041.3 940.413 1040.03 944.126 1037.3 944.126C1035.36 944.126 1035.23 942.594 1035.23 941.415C1035.23 940.059 1035.43 939.411 1036.03 937.112C1036.5 935.639 1036.83 934.342 1037.36 932.633C1039.83 923.792 1040.43 921.67 1040.43 921.316C1040.43 920.491 1039.7 919.843 1038.7 919.843C1036.56 919.843 1036.03 921.905 1035.9 922.613Z" fill="black"/>
<path id="Vector_14" d="M1064.7 936.288C1064.7 935.993 1064.43 935.757 1064.03 935.757C1063.43 935.757 1063.36 935.934 1063.03 936.936C1061.3 942.3 1058.56 944.127 1056.36 944.127C1055.56 944.127 1054.63 943.95 1054.63 942.182C1054.63 940.591 1055.43 938.822 1056.16 937.054L1060.83 926.091C1061.03 925.62 1061.5 924.559 1061.5 923.439C1061.5 920.963 1059.5 918.723 1056.23 918.723C1050.1 918.723 1047.63 927.27 1047.63 927.741C1047.63 927.977 1047.9 928.272 1048.36 928.272C1048.96 928.272 1049.03 928.036 1049.3 927.211C1050.9 922.26 1053.43 919.902 1056.03 919.902C1056.63 919.902 1057.76 919.961 1057.76 921.847C1057.76 923.38 1056.9 925.325 1056.36 926.622L1051.7 937.585C1051.3 938.528 1050.9 939.471 1050.9 940.532C1050.9 943.184 1052.96 945.306 1056.16 945.306C1062.3 945.306 1064.7 936.7 1064.7 936.288ZM1064.16 907.937C1064.16 907.053 1063.36 905.992 1061.9 905.992C1060.36 905.992 1058.63 907.289 1058.63 908.821C1058.63 910.295 1060.03 910.766 1060.83 910.766C1062.63 910.766 1064.16 909.234 1064.16 907.937Z" fill="black"/>
<path id="Vector_15" d="M1081.5 921.025H1087.63C1088.9 921.025 1089.56 921.025 1089.56 919.964C1089.56 919.315 1089.16 919.315 1087.83 919.315H1081.96L1084.43 910.71C1084.7 909.885 1084.7 909.767 1084.7 909.354C1084.7 908.411 1083.83 907.881 1082.96 907.881C1082.43 907.881 1080.9 908.058 1080.36 909.944L1077.76 919.315H1071.5C1070.16 919.315 1069.56 919.315 1069.56 920.435C1069.56 921.025 1070.03 921.025 1071.3 921.025H1077.23L1072.83 936.585C1072.3 938.648 1072.1 939.237 1072.1 940.004C1072.1 942.774 1074.3 945.308 1078.03 945.308C1084.76 945.308 1088.36 936.703 1088.36 936.29C1088.36 935.937 1088.1 935.76 1087.7 935.76C1087.56 935.76 1087.3 935.76 1087.16 935.996C1087.1 936.055 1087.03 936.114 1086.56 937.057C1085.16 940.004 1082.1 944.13 1078.23 944.13C1076.23 944.13 1076.1 942.656 1076.1 941.359C1076.1 941.3 1076.1 940.181 1076.3 939.473L1081.5 921.025Z" fill="black"/>
<path id="Vector_16" d="M1113.33 959.04C1113.33 958.863 1113.33 958.745 1112.2 957.743C1105.53 951.79 1101.8 942.065 1101.8 930.041C1101.8 918.607 1104.93 908.763 1112.67 901.808C1113.33 901.278 1113.33 901.16 1113.33 900.983C1113.33 900.63 1113 900.512 1112.73 900.512C1111.87 900.512 1106.4 904.755 1103.13 910.532C1099.73 916.485 1098.2 922.791 1098.2 930.041C1098.2 935.287 1099.13 942.301 1102.6 948.608C1106.53 955.681 1112 959.512 1112.73 959.512C1113 959.512 1113.33 959.394 1113.33 959.04Z" fill="black"/>
<path id="Vector_17" d="M1134.58 951.317C1132.78 953.557 1130.18 955.561 1126.92 955.561C1126.12 955.561 1122.92 955.443 1121.92 952.732C1122.12 952.791 1122.45 952.791 1122.58 952.791C1124.58 952.791 1125.92 951.258 1125.92 949.902C1125.92 948.547 1124.65 948.075 1123.65 948.075C1122.58 948.075 1120.25 948.783 1120.25 951.671C1120.25 954.677 1123.12 956.74 1126.92 956.74C1133.58 956.74 1140.32 951.317 1142.18 944.775L1148.72 921.788C1148.78 921.493 1148.92 921.139 1148.92 920.786C1148.92 919.901 1148.12 919.312 1147.12 919.312C1146.52 919.312 1145.12 919.548 1144.58 921.316L1139.65 938.645C1139.32 939.706 1139.32 939.824 1138.78 940.472C1137.45 942.122 1135.25 944.126 1132.05 944.126C1128.32 944.126 1127.98 940.884 1127.98 939.293C1127.98 935.933 1129.78 931.395 1131.58 927.151C1132.32 925.442 1132.72 924.617 1132.72 923.438C1132.72 920.962 1130.72 918.723 1127.45 918.723C1121.32 918.723 1118.85 927.269 1118.85 927.741C1118.85 927.976 1119.12 928.271 1119.58 928.271C1120.18 928.271 1120.25 928.035 1120.52 927.21C1122.12 922.259 1124.65 919.901 1127.25 919.901C1127.85 919.901 1128.98 919.901 1128.98 921.847C1128.98 923.379 1128.25 925.088 1127.25 927.328C1123.98 935.049 1123.98 936.994 1123.98 938.409C1123.98 944.008 1128.52 945.305 1131.85 945.305C1133.78 945.305 1136.18 944.775 1138.52 942.594L1138.58 942.653C1137.58 946.13 1136.92 948.429 1134.58 951.317Z" fill="black"/>
<path id="Vector_18" d="M1214.79 925.62C1215.72 925.62 1216.92 925.62 1216.92 924.559C1216.92 923.439 1215.79 923.439 1214.79 923.439H1175.52C1174.59 923.439 1173.39 923.439 1173.39 924.5C1173.39 925.62 1174.52 925.62 1175.52 925.62H1214.79ZM1214.79 936.583C1215.72 936.583 1216.92 936.583 1216.92 935.522C1216.92 934.402 1215.79 934.402 1214.79 934.402H1175.52C1174.59 934.402 1173.39 934.402 1173.39 935.463C1173.39 936.583 1174.52 936.583 1175.52 936.583H1214.79Z" fill="black"/>
<path id="Vector_19" d="M1268.94 925.857C1268.94 920.965 1268.61 916.191 1266.21 911.711C1263.47 906.819 1258.67 905.522 1255.41 905.522C1251.54 905.522 1246.81 907.232 1244.34 912.124C1242.48 915.837 1241.81 919.491 1241.81 925.857C1241.81 931.574 1242.28 935.877 1244.68 940.062C1247.28 944.541 1251.87 945.956 1255.34 945.956C1261.14 945.956 1264.47 942.891 1266.41 939.473C1268.81 935.052 1268.94 929.276 1268.94 925.857ZM1255.34 944.777C1253.21 944.777 1248.87 943.716 1247.61 937.292C1246.88 933.755 1246.88 929.276 1246.88 925.15C1246.88 920.317 1246.88 915.955 1247.94 912.478C1249.07 908.528 1252.47 906.701 1255.34 906.701C1257.87 906.701 1261.74 908.057 1263.01 913.126C1263.87 916.485 1263.87 921.142 1263.87 925.15C1263.87 929.099 1263.87 933.578 1263.14 937.174C1261.87 943.657 1257.67 944.777 1255.34 944.777Z" fill="black"/>
<path id="Vector_20" d="M1290.51 930.041C1290.51 925.562 1289.84 918.253 1286.11 911.416C1282.18 904.343 1276.71 900.512 1275.98 900.512C1275.71 900.512 1275.38 900.63 1275.38 900.983C1275.38 901.16 1275.38 901.278 1276.51 902.28C1283.18 908.233 1286.91 917.958 1286.91 929.982C1286.91 941.417 1283.78 951.26 1276.04 958.215C1275.38 958.745 1275.38 958.863 1275.38 959.04C1275.38 959.394 1275.71 959.512 1275.98 959.512C1276.84 959.512 1282.31 955.268 1285.58 949.492C1288.98 943.48 1290.51 937.114 1290.51 930.041Z" fill="black"/>
</g>
</g>
<g id="x := 5" clip-path="url(#clip2_30_120)">
<g id="page1_3">
<path id="Vector_21" d="M1479.33 913.955C1477.19 914.34 1476.39 915.882 1476.39 917.102C1476.39 918.644 1477.66 919.158 1478.6 919.158C1480.6 919.158 1482.01 917.488 1482.01 915.753C1482.01 913.055 1478.8 911.835 1475.99 911.835C1471.91 911.835 1469.64 915.689 1469.04 916.909C1467.5 912.092 1463.35 911.835 1462.15 911.835C1455.33 911.835 1451.72 920.25 1451.72 921.663C1451.72 921.92 1451.99 922.241 1452.45 922.241C1452.99 922.241 1453.12 921.855 1453.26 921.598C1455.53 914.469 1460.01 913.12 1461.95 913.12C1464.96 913.12 1465.56 915.817 1465.56 917.359C1465.56 918.772 1465.16 920.25 1464.35 923.333L1462.08 932.133C1461.08 935.987 1459.14 939.52 1455.6 939.52C1455.26 939.52 1453.59 939.52 1452.19 938.685C1454.59 938.235 1455.13 936.308 1455.13 935.537C1455.13 934.252 1454.13 933.482 1452.85 933.482C1451.25 933.482 1449.51 934.831 1449.51 936.886C1449.51 939.584 1452.65 940.804 1455.53 940.804C1458.74 940.804 1461.01 938.363 1462.42 935.73C1463.49 939.52 1466.83 940.804 1469.3 940.804C1476.12 940.804 1479.73 932.39 1479.73 930.977C1479.73 930.655 1479.47 930.398 1479.06 930.398C1478.46 930.398 1478.4 930.72 1478.2 931.234C1476.39 936.886 1472.51 939.52 1469.5 939.52C1467.16 939.52 1465.89 937.85 1465.89 935.216C1465.89 933.803 1466.16 932.775 1467.23 928.536L1469.57 919.8C1470.57 915.946 1472.85 913.12 1475.92 913.12C1476.06 913.12 1477.93 913.12 1479.33 913.955Z" fill="black"/>
<path id="Vector_22" d="M1515.72 915.563C1515.72 913.828 1514.18 912.479 1512.51 912.479C1510.57 912.479 1509.23 913.957 1509.23 915.563C1509.23 917.49 1510.9 918.71 1512.44 918.71C1514.25 918.71 1515.72 917.361 1515.72 915.563ZM1515.72 937.017C1515.72 935.282 1514.18 933.934 1512.51 933.934C1510.57 933.934 1509.23 935.411 1509.23 937.017C1509.23 938.944 1510.9 940.164 1512.44 940.164C1514.25 940.164 1515.72 938.815 1515.72 937.017Z" fill="black"/>
<path id="Vector_23" d="M1566.73 919.352C1567.67 919.352 1568.87 919.352 1568.87 918.196C1568.87 916.976 1567.74 916.976 1566.73 916.976H1527.35C1526.42 916.976 1525.21 916.976 1525.21 918.132C1525.21 919.352 1526.35 919.352 1527.35 919.352H1566.73ZM1566.73 931.3C1567.67 931.3 1568.87 931.3 1568.87 930.143C1568.87 928.923 1567.74 928.923 1566.73 928.923H1527.35C1526.42 928.923 1525.21 928.923 1525.21 930.079C1525.21 931.3 1526.35 931.3 1527.35 931.3H1566.73Z" fill="black"/>
<path id="Vector_24" d="M1599.65 903.357C1602.53 904.256 1604.87 904.32 1605.6 904.32C1613.16 904.32 1617.97 898.989 1617.97 898.09C1617.97 897.833 1617.84 897.512 1617.44 897.512C1617.3 897.512 1617.17 897.512 1616.57 897.769C1612.82 899.31 1609.61 899.503 1607.88 899.503C1603.46 899.503 1600.32 898.218 1599.05 897.704C1598.58 897.512 1598.45 897.512 1598.38 897.512C1597.85 897.512 1597.85 897.897 1597.85 898.925V918.002C1597.85 919.158 1597.85 919.544 1598.65 919.544C1598.98 919.544 1599.05 919.48 1599.72 918.709C1601.59 916.075 1604.73 914.534 1608.08 914.534C1611.62 914.534 1613.36 917.681 1613.89 918.773C1615.03 921.278 1615.1 924.426 1615.1 926.866C1615.1 929.307 1615.1 932.969 1613.22 935.859C1611.75 938.172 1609.15 939.777 1606.2 939.777C1601.79 939.777 1597.44 936.887 1596.24 932.198C1596.58 932.326 1596.98 932.391 1597.31 932.391C1598.45 932.391 1600.25 931.748 1600.25 929.564C1600.25 927.766 1598.98 926.738 1597.31 926.738C1596.11 926.738 1594.37 927.316 1594.37 929.821C1594.37 935.281 1598.92 941.512 1606.34 941.512C1613.89 941.512 1620.51 935.41 1620.51 927.252C1620.51 919.608 1615.16 913.249 1608.14 913.249C1604.33 913.249 1601.39 914.855 1599.65 916.653V903.357Z" fill="black"/>
</g>
</g>
<path id="shared int x, y = 0" d="M312.33 655.966L309.921 656.648C309.769 656.247 309.546 655.856 309.25 655.478C308.962 655.091 308.569 654.773 308.069 654.523C307.569 654.273 306.928 654.148 306.148 654.148C305.08 654.148 304.19 654.394 303.478 654.887C302.773 655.372 302.421 655.989 302.421 656.739C302.421 657.406 302.663 657.932 303.148 658.319C303.633 658.705 304.391 659.027 305.421 659.284L308.012 659.921C309.572 660.3 310.735 660.879 311.5 661.659C312.266 662.432 312.648 663.428 312.648 664.648C312.648 665.648 312.36 666.542 311.784 667.33C311.216 668.118 310.421 668.739 309.398 669.194C308.375 669.648 307.186 669.875 305.83 669.875C304.05 669.875 302.576 669.489 301.409 668.716C300.243 667.944 299.504 666.815 299.194 665.33L301.739 664.694C301.981 665.633 302.44 666.337 303.114 666.807C303.796 667.277 304.686 667.512 305.784 667.512C307.034 667.512 308.027 667.247 308.762 666.716C309.504 666.178 309.875 665.534 309.875 664.784C309.875 664.178 309.663 663.671 309.239 663.262C308.815 662.845 308.163 662.534 307.284 662.33L304.375 661.648C302.777 661.269 301.603 660.682 300.853 659.887C300.11 659.084 299.739 658.08 299.739 656.875C299.739 655.891 300.016 655.019 300.569 654.262C301.129 653.504 301.891 652.909 302.853 652.478C303.822 652.046 304.921 651.83 306.148 651.83C307.875 651.83 309.231 652.209 310.216 652.966C311.209 653.724 311.913 654.724 312.33 655.966ZM319.367 659.012V669.512H316.685V646.239H319.367V654.784H319.594C320.003 653.883 320.617 653.167 321.435 652.637C322.261 652.099 323.359 651.83 324.73 651.83C325.92 651.83 326.962 652.069 327.855 652.546C328.749 653.016 329.443 653.739 329.935 654.716C330.435 655.686 330.685 656.921 330.685 658.421V669.512H328.003V658.603C328.003 657.216 327.643 656.144 326.924 655.387C326.212 654.622 325.223 654.239 323.958 654.239C323.079 654.239 322.291 654.425 321.594 654.796C320.905 655.167 320.359 655.709 319.958 656.421C319.564 657.133 319.367 657.997 319.367 659.012ZM340.728 669.921C339.622 669.921 338.618 669.712 337.716 669.296C336.815 668.872 336.099 668.262 335.569 667.466C335.038 666.663 334.773 665.694 334.773 664.557C334.773 663.557 334.97 662.747 335.364 662.125C335.758 661.497 336.284 661.004 336.944 660.648C337.603 660.292 338.33 660.027 339.125 659.853C339.928 659.671 340.735 659.527 341.546 659.421C342.606 659.284 343.466 659.182 344.125 659.114C344.792 659.038 345.277 658.913 345.58 658.739C345.891 658.565 346.046 658.262 346.046 657.83V657.739C346.046 656.618 345.739 655.747 345.125 655.125C344.519 654.504 343.599 654.194 342.364 654.194C341.084 654.194 340.08 654.474 339.353 655.034C338.625 655.595 338.114 656.194 337.819 656.83L335.273 655.921C335.728 654.86 336.334 654.034 337.091 653.444C337.856 652.845 338.69 652.428 339.591 652.194C340.5 651.951 341.394 651.83 342.273 651.83C342.834 651.83 343.478 651.898 344.205 652.034C344.94 652.163 345.648 652.432 346.33 652.841C347.019 653.25 347.591 653.868 348.046 654.694C348.5 655.519 348.728 656.625 348.728 658.012V669.512H346.046V667.148H345.909C345.728 667.527 345.425 667.932 345 668.364C344.576 668.796 344.012 669.163 343.307 669.466C342.603 669.769 341.743 669.921 340.728 669.921ZM341.137 667.512C342.197 667.512 343.091 667.303 343.819 666.887C344.553 666.47 345.106 665.932 345.478 665.273C345.856 664.614 346.046 663.921 346.046 663.194V660.739C345.932 660.875 345.682 661 345.296 661.114C344.917 661.22 344.478 661.315 343.978 661.398C343.485 661.474 343.004 661.542 342.534 661.603C342.072 661.656 341.697 661.701 341.409 661.739C340.712 661.83 340.061 661.978 339.455 662.182C338.856 662.379 338.372 662.678 338 663.08C337.637 663.474 337.455 664.012 337.455 664.694C337.455 665.625 337.8 666.33 338.489 666.807C339.186 667.277 340.069 667.512 341.137 667.512ZM353.623 669.512V652.057H356.213V654.694H356.395C356.713 653.83 357.289 653.129 358.123 652.591C358.956 652.053 359.895 651.784 360.941 651.784C361.138 651.784 361.384 651.788 361.679 651.796C361.975 651.803 362.198 651.815 362.35 651.83V654.557C362.259 654.534 362.051 654.5 361.725 654.455C361.407 654.402 361.069 654.375 360.713 654.375C359.865 654.375 359.107 654.553 358.441 654.909C357.782 655.258 357.259 655.743 356.873 656.364C356.494 656.978 356.304 657.678 356.304 658.466V669.512H353.623ZM372.316 669.875C370.634 669.875 369.183 669.504 367.963 668.762C366.751 668.012 365.816 666.966 365.157 665.625C364.505 664.277 364.179 662.709 364.179 660.921C364.179 659.133 364.505 657.557 365.157 656.194C365.816 654.822 366.732 653.754 367.907 652.989C369.088 652.216 370.467 651.83 372.043 651.83C372.952 651.83 373.85 651.981 374.736 652.284C375.623 652.587 376.429 653.08 377.157 653.762C377.884 654.436 378.463 655.33 378.895 656.444C379.327 657.557 379.543 658.928 379.543 660.557V661.694H366.088V659.375H376.816C376.816 658.391 376.619 657.512 376.225 656.739C375.838 655.966 375.285 655.356 374.566 654.909C373.854 654.462 373.013 654.239 372.043 654.239C370.975 654.239 370.051 654.504 369.27 655.034C368.498 655.557 367.903 656.239 367.486 657.08C367.069 657.921 366.861 658.822 366.861 659.784V661.33C366.861 662.648 367.088 663.766 367.543 664.682C368.005 665.591 368.645 666.284 369.463 666.762C370.282 667.231 371.232 667.466 372.316 667.466C373.02 667.466 373.657 667.368 374.225 667.171C374.801 666.966 375.297 666.663 375.713 666.262C376.13 665.853 376.452 665.345 376.679 664.739L379.27 665.466C378.998 666.345 378.539 667.118 377.895 667.784C377.251 668.444 376.456 668.959 375.509 669.33C374.562 669.694 373.498 669.875 372.316 669.875ZM390.213 669.875C388.759 669.875 387.475 669.508 386.361 668.773C385.248 668.031 384.376 666.985 383.748 665.637C383.119 664.281 382.804 662.678 382.804 660.83C382.804 658.997 383.119 657.406 383.748 656.057C384.376 654.709 385.251 653.667 386.373 652.932C387.494 652.197 388.789 651.83 390.259 651.83C391.395 651.83 392.293 652.019 392.952 652.398C393.619 652.769 394.126 653.194 394.475 653.671C394.831 654.141 395.107 654.527 395.304 654.83H395.532V646.239H398.213V669.512H395.623V666.83H395.304C395.107 667.148 394.827 667.55 394.463 668.034C394.1 668.512 393.581 668.94 392.907 669.319C392.232 669.69 391.335 669.875 390.213 669.875ZM390.577 667.466C391.653 667.466 392.562 667.186 393.304 666.625C394.047 666.057 394.611 665.273 394.998 664.273C395.384 663.266 395.577 662.103 395.577 660.784C395.577 659.481 395.388 658.341 395.009 657.364C394.63 656.379 394.069 655.614 393.327 655.069C392.585 654.516 391.668 654.239 390.577 654.239C389.441 654.239 388.494 654.531 387.736 655.114C386.986 655.69 386.422 656.474 386.043 657.466C385.672 658.451 385.486 659.557 385.486 660.784C385.486 662.027 385.676 663.156 386.054 664.171C386.441 665.178 387.009 665.981 387.759 666.58C388.516 667.171 389.456 667.466 390.577 667.466ZM412.498 669.512V652.057H415.179V669.512H412.498ZM413.861 649.148C413.338 649.148 412.888 648.97 412.509 648.614C412.138 648.258 411.952 647.83 411.952 647.33C411.952 646.83 412.138 646.402 412.509 646.046C412.888 645.69 413.338 645.512 413.861 645.512C414.384 645.512 414.831 645.69 415.202 646.046C415.581 646.402 415.77 646.83 415.77 647.33C415.77 647.83 415.581 648.258 415.202 648.614C414.831 648.97 414.384 649.148 413.861 649.148ZM422.773 659.012V669.512H420.091V652.057H422.682V654.784H422.909C423.319 653.898 423.94 653.186 424.773 652.648C425.606 652.103 426.682 651.83 428 651.83C429.182 651.83 430.216 652.072 431.103 652.557C431.989 653.034 432.678 653.762 433.171 654.739C433.663 655.709 433.909 656.936 433.909 658.421V669.512H431.228V658.603C431.228 657.231 430.872 656.163 430.159 655.398C429.447 654.625 428.47 654.239 427.228 654.239C426.372 654.239 425.606 654.425 424.932 654.796C424.266 655.167 423.739 655.709 423.353 656.421C422.966 657.133 422.773 657.997 422.773 659.012ZM446.401 652.057V654.33H437.355V652.057H446.401ZM439.992 647.875H442.674V664.512C442.674 665.269 442.783 665.837 443.003 666.216C443.23 666.587 443.518 666.837 443.867 666.966C444.223 667.087 444.598 667.148 444.992 667.148C445.287 667.148 445.53 667.133 445.719 667.103C445.908 667.065 446.06 667.034 446.174 667.012L446.719 669.421C446.537 669.489 446.283 669.557 445.958 669.625C445.632 669.701 445.219 669.739 444.719 669.739C443.962 669.739 443.219 669.576 442.492 669.25C441.772 668.925 441.174 668.428 440.696 667.762C440.227 667.095 439.992 666.254 439.992 665.239V647.875ZM461.435 652.057L465.617 659.194L469.799 652.057H472.89L467.253 660.784L472.89 669.512H469.799L465.617 662.739L461.435 669.512H458.344L463.89 660.784L458.344 652.057H461.435ZM480.716 666.33L480.534 667.557C480.406 668.421 480.209 669.345 479.944 670.33C479.686 671.315 479.417 672.243 479.137 673.114C478.856 673.985 478.625 674.678 478.444 675.194H476.398C476.497 674.709 476.625 674.069 476.784 673.273C476.944 672.478 477.103 671.587 477.262 670.603C477.428 669.625 477.565 668.625 477.671 667.603L477.807 666.33H480.716ZM496.412 676.057C495.958 676.057 495.552 676.019 495.196 675.944C494.84 675.875 494.594 675.807 494.458 675.739L495.14 673.375C495.791 673.542 496.367 673.603 496.867 673.557C497.367 673.512 497.81 673.288 498.196 672.887C498.59 672.493 498.95 671.853 499.276 670.966L499.776 669.603L493.321 652.057H496.23L501.049 665.966H501.23L506.049 652.057H508.958L501.549 672.057C501.215 672.959 500.802 673.705 500.31 674.296C499.818 674.894 499.246 675.337 498.594 675.625C497.95 675.913 497.223 676.057 496.412 676.057ZM522.588 655.739V653.284H536.588V655.739H522.588ZM522.588 662.466V660.012H536.588V662.466H522.588ZM559.137 669.83C557.425 669.83 555.966 669.364 554.762 668.432C553.557 667.493 552.637 666.133 552 664.353C551.364 662.565 551.046 660.406 551.046 657.875C551.046 655.36 551.364 653.212 552 651.432C552.644 649.644 553.569 648.281 554.773 647.341C555.985 646.394 557.44 645.921 559.137 645.921C560.834 645.921 562.284 646.394 563.489 647.341C564.701 648.281 565.625 649.644 566.262 651.432C566.906 653.212 567.228 655.36 567.228 657.875C567.228 660.406 566.909 662.565 566.273 664.353C565.637 666.133 564.716 667.493 563.512 668.432C562.307 669.364 560.849 669.83 559.137 669.83ZM559.137 667.33C560.834 667.33 562.152 666.512 563.091 664.875C564.031 663.239 564.5 660.906 564.5 657.875C564.5 655.86 564.284 654.144 563.853 652.728C563.428 651.311 562.815 650.231 562.012 649.489C561.216 648.747 560.258 648.375 559.137 648.375C557.455 648.375 556.141 649.205 555.194 650.864C554.247 652.516 553.773 654.853 553.773 657.875C553.773 659.891 553.985 661.603 554.409 663.012C554.834 664.421 555.444 665.493 556.239 666.228C557.042 666.962 558.008 667.33 559.137 667.33Z" fill="black"/>
<rect id="Rectangle 6" x="547.512" y="734.512" width="130" height="128" stroke="black" stroke-width="2"/>
<rect id="Rectangle 10" x="1482.51" y="739.512" width="130" height="128" stroke="black" stroke-width="2"/>
<rect id="Rectangle 9" x="1040.51" y="734.512" width="130" height="128" stroke="black" stroke-width="2"/>
</g>
<defs>
<clipPath id="clip0_30_120">
<rect width="362" height="63" fill="white" transform="translate(410.512 892.512)"/>
</clipPath>
<clipPath id="clip1_30_120">
<rect width="359" height="59" fill="white" transform="translate(931.512 900.512)"/>
</clipPath>
<clipPath id="clip2_30_120">
<rect width="171" height="44" fill="white" transform="translate(1449.51 897.512)"/>
</clipPath>
</defs>
</svg>
