<svg width="1920" height="1080" viewBox="0 0 1920 1080" fill="none" xmlns="http://www.w3.org/2000/svg">
<g id="Concurrent Pograms">
<rect width="1920" height="1080" fill="white"/>
<rect id="Rectangle 1" x="584.769" y="758.769" width="123" height="105" stroke="black" stroke-width="2"/>
<g id="P" filter="url(#filter0_d_5_39)">
<path d="M626.405 837.769V791.223H642.132C645.784 791.223 648.769 791.882 651.087 793.2C653.42 794.503 655.147 796.269 656.269 798.496C657.39 800.723 657.95 803.208 657.95 805.95C657.95 808.693 657.39 811.185 656.269 813.428C655.162 815.67 653.45 817.458 651.132 818.791C648.814 820.109 645.844 820.769 642.223 820.769H630.95V815.769H642.041C644.541 815.769 646.549 815.337 648.064 814.473C649.579 813.609 650.678 812.443 651.359 810.973C652.056 809.488 652.405 807.814 652.405 805.95C652.405 804.087 652.056 802.42 651.359 800.95C650.678 799.481 649.572 798.329 648.041 797.496C646.511 796.647 644.481 796.223 641.95 796.223H632.041V837.769H626.405Z" fill="black"/>
</g>
<rect id="Rectangle 5" x="1002.77" y="768.769" width="123" height="99" stroke="black" stroke-width="2"/>
<path id="Q" d="M1061.31 827.223H1067.5L1072.68 834.041L1074.04 835.859L1081.77 846.132H1075.59L1070.5 839.314L1069.22 837.587L1061.31 827.223ZM1083.68 818.496C1083.68 823.405 1082.79 827.647 1081.02 831.223C1079.25 834.799 1076.81 837.556 1073.72 839.496C1070.63 841.435 1067.1 842.405 1063.13 842.405C1059.16 842.405 1055.63 841.435 1052.54 839.496C1049.45 837.556 1047.02 834.799 1045.25 831.223C1043.47 827.647 1042.59 823.405 1042.59 818.496C1042.59 813.587 1043.47 809.344 1045.25 805.769C1047.02 802.193 1049.45 799.435 1052.54 797.496C1055.63 795.556 1059.16 794.587 1063.13 794.587C1067.1 794.587 1070.63 795.556 1073.72 797.496C1076.81 799.435 1079.25 802.193 1081.02 805.769C1082.79 809.344 1083.68 813.587 1083.68 818.496ZM1078.22 818.496C1078.22 814.466 1077.55 811.064 1076.2 808.291C1074.87 805.519 1073.06 803.42 1070.77 801.996C1068.5 800.572 1065.95 799.859 1063.13 799.859C1060.31 799.859 1057.76 800.572 1055.47 801.996C1053.2 803.42 1051.39 805.519 1050.04 808.291C1048.71 811.064 1048.04 814.466 1048.04 818.496C1048.04 822.526 1048.71 825.928 1050.04 828.7C1051.39 831.473 1053.2 833.572 1055.47 834.996C1057.76 836.42 1060.31 837.132 1063.13 837.132C1065.95 837.132 1068.5 836.42 1070.77 834.996C1073.06 833.572 1074.87 831.473 1076.2 828.7C1077.55 825.928 1078.22 822.526 1078.22 818.496Z" fill="black"/>
<g id="Rectangle 4">
<mask id="path-5-inside-1_5_39" fill="white">
<path d="M1369.77 764.769H1494.77V871.769H1369.77V764.769Z"/>
</mask>
<path d="M1369.77 764.769V762.769H1367.77V764.769H1369.77ZM1494.77 764.769H1496.77V762.769H1494.77V764.769ZM1494.77 871.769V873.769H1496.77V871.769H1494.77ZM1369.77 871.769H1367.77V873.769H1369.77V871.769ZM1369.77 764.769V766.769H1494.77V764.769V762.769H1369.77V764.769ZM1494.77 764.769H1492.77V871.769H1494.77H1496.77V764.769H1494.77ZM1494.77 871.769V869.769H1369.77V871.769V873.769H1494.77V871.769ZM1369.77 871.769H1371.77V764.769H1369.77H1367.77V871.769H1369.77Z" fill="black" mask="url(#path-5-inside-1_5_39)"/>
</g>
<path id="R" d="M1412.4 844.769V798.223H1428.13C1431.77 798.223 1434.75 798.844 1437.09 800.087C1439.42 801.314 1441.15 803.003 1442.27 805.155C1443.39 807.306 1443.95 809.753 1443.95 812.496C1443.95 815.238 1443.39 817.67 1442.27 819.791C1441.15 821.912 1439.43 823.579 1437.11 824.791C1434.79 825.988 1431.83 826.587 1428.22 826.587H1415.5V821.496H1428.04C1430.53 821.496 1432.53 821.132 1434.04 820.405C1435.57 819.678 1436.68 818.647 1437.36 817.314C1438.06 815.966 1438.4 814.359 1438.4 812.496C1438.4 810.632 1438.06 809.003 1437.36 807.609C1436.66 806.216 1435.55 805.14 1434.02 804.382C1432.49 803.609 1430.47 803.223 1427.95 803.223H1418.04V844.769H1412.4ZM1434.31 823.859L1445.77 844.769H1439.22L1427.95 823.859H1434.31Z" fill="black"/>
<g id="await ( x = 0)" clip-path="url(#clip0_5_39)">
<g id="page1">
<path id="Vector" d="M490.436 933.229C490.155 934.184 490.155 934.297 489.369 935.364C488.132 936.938 485.66 939.355 483.018 939.355C480.714 939.355 479.421 937.275 479.421 933.959C479.421 930.868 481.164 924.574 482.231 922.214C484.142 918.28 486.784 916.257 488.975 916.257C492.684 916.257 493.415 920.865 493.415 921.315C493.415 921.371 493.246 922.101 493.19 922.214L490.436 933.229ZM494.033 918.842C493.415 917.381 491.898 915.133 488.975 915.133C482.625 915.133 475.769 923.338 475.769 931.655C475.769 937.219 479.028 940.478 482.85 940.478C485.941 940.478 488.582 938.062 490.155 936.207C490.717 939.523 493.359 940.478 495.045 940.478C496.731 940.478 498.079 939.467 499.091 937.444C499.99 935.533 500.777 932.105 500.777 931.88C500.777 931.599 500.552 931.374 500.215 931.374C499.709 931.374 499.653 931.655 499.428 932.498C498.585 935.814 497.518 939.355 495.213 939.355C493.584 939.355 493.471 937.893 493.471 936.769C493.471 935.477 493.64 934.859 494.146 932.667C494.539 931.262 494.82 930.026 495.27 928.396C497.349 919.966 497.855 917.943 497.855 917.606C497.855 916.819 497.237 916.201 496.394 916.201C494.595 916.201 494.146 918.168 494.033 918.842Z" fill="black"/>
<path id="Vector_2" d="M521.74 936.488C522.976 939.86 526.461 940.478 528.596 940.478C532.867 940.478 535.396 936.769 536.97 932.892C538.262 929.632 540.342 922.214 540.342 918.898C540.342 915.47 538.599 915.133 538.094 915.133C536.745 915.133 535.509 916.482 535.509 917.606C535.509 918.28 535.902 918.673 536.183 918.898C536.689 919.404 538.15 920.921 538.15 923.844C538.15 925.754 536.576 931.037 535.396 933.678C533.823 937.107 531.743 939.355 528.821 939.355C525.674 939.355 524.662 936.994 524.662 934.409C524.662 932.779 525.168 930.812 525.393 929.857L527.753 920.416C528.034 919.292 528.54 917.325 528.54 917.1C528.54 916.257 527.866 915.695 527.023 915.695C525.393 915.695 524.999 917.1 524.662 918.449C524.1 920.64 521.74 930.138 521.515 931.374C521.29 932.33 521.29 932.948 521.29 934.184C521.29 935.533 519.492 937.669 519.436 937.781C518.817 938.399 517.918 939.355 516.176 939.355C511.736 939.355 511.736 935.14 511.736 934.184C511.736 932.386 512.13 929.913 514.659 923.225C515.333 921.483 515.614 920.753 515.614 919.629C515.614 917.268 513.928 915.133 511.174 915.133C506.004 915.133 503.925 923.282 503.925 923.731C503.925 923.956 504.15 924.237 504.543 924.237C505.049 924.237 505.105 924.012 505.33 923.225C506.735 918.28 508.927 916.257 511.006 916.257C511.568 916.257 512.467 916.313 512.467 918.111C512.467 918.392 512.467 919.573 511.512 922.045C508.87 929.07 508.308 931.374 508.308 933.51C508.308 939.411 513.141 940.478 516.008 940.478C516.963 940.478 519.492 940.478 521.74 936.488Z" fill="black"/>
<path id="Vector_3" d="M560.17 933.229C559.889 934.184 559.889 934.297 559.102 935.364C557.866 936.938 555.393 939.355 552.752 939.355C550.447 939.355 549.155 937.275 549.155 933.959C549.155 930.868 550.897 924.574 551.965 922.214C553.876 918.28 556.517 916.257 558.709 916.257C562.418 916.257 563.148 920.865 563.148 921.315C563.148 921.371 562.98 922.101 562.924 922.214L560.17 933.229ZM563.767 918.842C563.148 917.381 561.631 915.133 558.709 915.133C552.358 915.133 545.502 923.338 545.502 931.655C545.502 937.219 548.761 940.478 552.583 940.478C555.674 940.478 558.315 938.062 559.889 936.207C560.451 939.523 563.092 940.478 564.778 940.478C566.464 940.478 567.813 939.467 568.824 937.444C569.724 935.533 570.51 932.105 570.51 931.88C570.51 931.599 570.286 931.374 569.948 931.374C569.443 931.374 569.386 931.655 569.162 932.498C568.319 935.814 567.251 939.355 564.947 939.355C563.317 939.355 563.205 937.893 563.205 936.769C563.205 935.477 563.373 934.859 563.879 932.667C564.272 931.262 564.553 930.026 565.003 928.396C567.082 919.966 567.588 917.943 567.588 917.606C567.588 916.819 566.97 916.201 566.127 916.201C564.329 916.201 563.879 918.168 563.767 918.842Z" fill="black"/>
<path id="Vector_4" d="M588.045 931.88C588.045 931.599 587.82 931.375 587.483 931.375C586.977 931.375 586.921 931.543 586.64 932.499C585.179 937.613 582.875 939.355 581.02 939.355C580.346 939.355 579.559 939.186 579.559 937.5C579.559 935.983 580.233 934.297 580.852 932.611L584.786 922.158C584.954 921.708 585.348 920.697 585.348 919.629C585.348 917.269 583.662 915.133 580.908 915.133C575.738 915.133 573.658 923.282 573.658 923.732C573.658 923.956 573.883 924.237 574.276 924.237C574.782 924.237 574.838 924.013 575.063 923.226C576.412 918.505 578.548 916.257 580.739 916.257C581.245 916.257 582.2 916.313 582.2 918.112C582.2 919.573 581.47 921.427 581.02 922.664L577.086 933.117C576.749 934.016 576.412 934.915 576.412 935.927C576.412 938.456 578.154 940.479 580.852 940.479C586.022 940.479 588.045 932.274 588.045 931.88ZM587.596 904.849C587.596 904.006 586.921 902.994 585.685 902.994C584.392 902.994 582.931 904.231 582.931 905.692C582.931 907.097 584.111 907.546 584.786 907.546C586.303 907.546 587.596 906.085 587.596 904.849Z" fill="black"/>
<path id="Vector_5" d="M602.21 917.327H607.38C608.448 917.327 609.01 917.327 609.01 916.316C609.01 915.698 608.673 915.698 607.549 915.698H602.603L604.683 907.492C604.908 906.706 604.908 906.593 604.908 906.2C604.908 905.301 604.177 904.795 603.446 904.795C602.997 904.795 601.704 904.964 601.255 906.762L599.063 915.698H593.78C592.656 915.698 592.15 915.698 592.15 916.765C592.15 917.327 592.544 917.327 593.612 917.327H598.613L594.904 932.164C594.455 934.131 594.286 934.693 594.286 935.423C594.286 938.065 596.141 940.481 599.288 940.481C604.964 940.481 607.998 932.276 607.998 931.883C607.998 931.546 607.774 931.377 607.436 931.377C607.324 931.377 607.099 931.377 606.987 931.602C606.931 931.658 606.874 931.714 606.481 932.613C605.301 935.423 602.716 939.357 599.456 939.357C597.77 939.357 597.658 937.952 597.658 936.716C597.658 936.66 597.658 935.592 597.826 934.918L602.21 917.327Z" fill="black"/>
<path id="Vector_6" d="M629.047 953.574C629.047 953.405 629.047 953.293 628.092 952.338C622.472 946.662 619.325 937.389 619.325 925.924C619.325 915.022 621.966 905.636 628.485 899.005C629.047 898.499 629.047 898.387 629.047 898.218C629.047 897.881 628.766 897.769 628.541 897.769C627.811 897.769 623.203 901.815 620.449 907.322C617.583 912.998 616.29 919.012 616.29 925.924C616.29 930.926 617.077 937.614 619.999 943.627C623.315 950.371 627.923 954.024 628.541 954.024C628.766 954.024 629.047 953.911 629.047 953.574Z" fill="black"/>
<path id="Vector_7" d="M658.823 916.987C657.024 917.325 656.35 918.673 656.35 919.741C656.35 921.09 657.418 921.539 658.204 921.539C659.89 921.539 661.07 920.078 661.07 918.561C661.07 916.201 658.373 915.133 656.013 915.133C652.584 915.133 650.674 918.505 650.168 919.573C648.875 915.358 645.391 915.133 644.379 915.133C638.647 915.133 635.612 922.495 635.612 923.731C635.612 923.956 635.837 924.237 636.231 924.237C636.68 924.237 636.793 923.9 636.905 923.675C638.816 917.437 642.581 916.257 644.211 916.257C646.74 916.257 647.246 918.617 647.246 919.966C647.246 921.202 646.908 922.495 646.234 925.192L644.323 932.892C643.48 936.264 641.85 939.355 638.872 939.355C638.591 939.355 637.186 939.355 636.006 938.624C638.029 938.231 638.479 936.545 638.479 935.87C638.479 934.746 637.636 934.072 636.568 934.072C635.219 934.072 633.758 935.252 633.758 937.05C633.758 939.411 636.399 940.478 638.816 940.478C641.513 940.478 643.424 938.343 644.604 936.039C645.503 939.355 648.313 940.478 650.393 940.478C656.125 940.478 659.16 933.116 659.16 931.88C659.16 931.599 658.935 931.374 658.598 931.374C658.092 931.374 658.036 931.655 657.867 932.105C656.35 937.05 653.09 939.355 650.561 939.355C648.594 939.355 647.527 937.893 647.527 935.589C647.527 934.353 647.751 933.454 648.651 929.745L650.617 922.101C651.46 918.73 653.371 916.257 655.956 916.257C656.069 916.257 657.642 916.257 658.823 916.987Z" fill="black"/>
<path id="Vector_8" d="M716.999 921.709C717.786 921.709 718.797 921.709 718.797 920.698C718.797 919.63 717.842 919.63 716.999 919.63H683.898C683.111 919.63 682.1 919.63 682.1 920.641C682.1 921.709 683.055 921.709 683.898 921.709H716.999ZM716.999 932.162C717.786 932.162 718.797 932.162 718.797 931.151C718.797 930.083 717.842 930.083 716.999 930.083H683.898C683.111 930.083 682.1 930.083 682.1 931.094C682.1 932.162 683.055 932.162 683.898 932.162H716.999Z" fill="black"/>
<path id="Vector_9" d="M762.65 921.935C762.65 917.27 762.369 912.718 760.346 908.447C758.042 903.782 753.996 902.546 751.242 902.546C747.982 902.546 743.992 904.176 741.913 908.84C740.339 912.381 739.777 915.865 739.777 921.935C739.777 927.386 740.171 931.488 742.194 935.478C744.386 939.75 748.263 941.098 751.186 941.098C756.075 941.098 758.885 938.176 760.515 934.916C762.538 930.702 762.65 925.194 762.65 921.935ZM751.186 939.974C749.387 939.974 745.734 938.963 744.667 932.837C744.048 929.465 744.048 925.194 744.048 921.26C744.048 916.652 744.048 912.493 744.948 909.177C745.903 905.412 748.769 903.67 751.186 903.67C753.321 903.67 756.581 904.962 757.649 909.796C758.379 912.999 758.379 917.439 758.379 921.26C758.379 925.025 758.379 929.297 757.761 932.725C756.693 938.907 753.153 939.974 751.186 939.974Z" fill="black"/>
<path id="Vector_10" d="M780.837 925.924C780.837 921.653 780.275 914.684 777.128 908.165C773.812 901.421 769.204 897.769 768.586 897.769C768.361 897.769 768.08 897.881 768.08 898.218C768.08 898.387 768.08 898.499 769.035 899.455C774.655 905.131 777.802 914.403 777.802 925.868C777.802 936.771 775.161 946.156 768.642 952.787C768.08 953.293 768.08 953.405 768.08 953.574C768.08 953.911 768.361 954.024 768.586 954.024C769.316 954.024 773.925 949.977 776.679 944.47C779.545 938.738 780.837 932.668 780.837 925.924Z" fill="black"/>
</g>
</g>
<g id="await (y = 0)" clip-path="url(#clip1_5_39)">
<g id="page1_2">
<path id="Vector_11" d="M928.454 938.177C928.172 939.077 928.172 939.183 927.385 940.189C926.147 941.671 923.671 943.948 921.027 943.948C918.72 943.948 917.426 941.989 917.426 938.865C917.426 935.953 919.17 930.023 920.239 927.799C922.152 924.093 924.796 922.187 926.991 922.187C930.704 922.187 931.436 926.529 931.436 926.952C931.436 927.005 931.267 927.693 931.211 927.799L928.454 938.177ZM932.055 924.622C931.436 923.246 929.917 921.128 926.991 921.128C920.633 921.128 913.769 928.858 913.769 936.694C913.769 941.936 917.032 945.007 920.858 945.007C923.952 945.007 926.597 942.73 928.172 940.983C928.735 944.107 931.379 945.007 933.067 945.007C934.755 945.007 936.106 944.054 937.118 942.148C938.019 940.348 938.806 937.118 938.806 936.906C938.806 936.641 938.581 936.43 938.244 936.43C937.737 936.43 937.681 936.694 937.456 937.489C936.612 940.612 935.543 943.948 933.236 943.948C931.605 943.948 931.492 942.571 931.492 941.513C931.492 940.295 931.661 939.712 932.167 937.647C932.561 936.324 932.842 935.159 933.292 933.623C935.374 925.681 935.881 923.775 935.881 923.458C935.881 922.716 935.262 922.134 934.418 922.134C932.617 922.134 932.167 923.987 932.055 924.622Z" fill="black"/>
<path id="Vector_12" d="M959.794 941.248C961.032 944.425 964.52 945.007 966.658 945.007C970.934 945.007 973.466 941.513 975.042 937.859C976.336 934.788 978.418 927.799 978.418 924.675C978.418 921.446 976.673 921.128 976.167 921.128C974.817 921.128 973.579 922.399 973.579 923.458C973.579 924.093 973.973 924.464 974.254 924.675C974.76 925.152 976.223 926.581 976.223 929.335C976.223 931.135 974.648 936.112 973.466 938.6C971.891 941.83 969.809 943.948 966.883 943.948C963.733 943.948 962.72 941.724 962.72 939.289C962.72 937.753 963.226 935.9 963.451 935L965.814 926.105C966.096 925.046 966.602 923.193 966.602 922.981C966.602 922.187 965.927 921.657 965.083 921.657C963.451 921.657 963.057 922.981 962.72 924.252C962.157 926.317 959.794 935.265 959.569 936.43C959.344 937.33 959.344 937.912 959.344 939.077C959.344 940.348 957.543 942.36 957.487 942.466C956.868 943.048 955.968 943.948 954.224 943.948C949.779 943.948 949.779 939.977 949.779 939.077C949.779 937.383 950.173 935.053 952.705 928.752C953.38 927.111 953.661 926.423 953.661 925.364C953.661 923.14 951.973 921.128 949.216 921.128C944.04 921.128 941.958 928.805 941.958 929.229C941.958 929.441 942.183 929.705 942.577 929.705C943.083 929.705 943.14 929.494 943.365 928.752C944.771 924.093 946.966 922.187 949.047 922.187C949.61 922.187 950.51 922.24 950.51 923.934C950.51 924.199 950.51 925.311 949.554 927.64C946.909 934.259 946.347 936.43 946.347 938.442C946.347 944.001 951.185 945.007 954.055 945.007C955.011 945.007 957.543 945.007 959.794 941.248Z" fill="black"/>
<path id="Vector_13" d="M998.269 938.177C997.988 939.077 997.988 939.183 997.2 940.189C995.962 941.671 993.487 943.948 990.842 943.948C988.535 943.948 987.241 941.989 987.241 938.865C987.241 935.953 988.985 930.023 990.054 927.799C991.967 924.093 994.612 922.187 996.806 922.187C1000.52 922.187 1001.25 926.529 1001.25 926.952C1001.25 927.005 1001.08 927.693 1001.03 927.799L998.269 938.177ZM1001.87 924.622C1001.25 923.246 999.732 921.128 996.806 921.128C990.448 921.128 983.584 928.858 983.584 936.694C983.584 941.936 986.847 945.007 990.673 945.007C993.768 945.007 996.412 942.73 997.988 940.983C998.55 944.107 1001.19 945.007 1002.88 945.007C1004.57 945.007 1005.92 944.054 1006.93 942.148C1007.83 940.348 1008.62 937.118 1008.62 936.906C1008.62 936.641 1008.4 936.43 1008.06 936.43C1007.55 936.43 1007.5 936.694 1007.27 937.489C1006.43 940.612 1005.36 943.948 1003.05 943.948C1001.42 943.948 1001.31 942.571 1001.31 941.513C1001.31 940.295 1001.48 939.712 1001.98 937.647C1002.38 936.324 1002.66 935.159 1003.11 933.623C1005.19 925.681 1005.7 923.775 1005.7 923.458C1005.7 922.716 1005.08 922.134 1004.23 922.134C1002.43 922.134 1001.98 923.987 1001.87 924.622Z" fill="black"/>
<path id="Vector_14" d="M1026.18 936.906C1026.18 936.641 1025.95 936.43 1025.61 936.43C1025.11 936.43 1025.05 936.589 1024.77 937.489C1023.31 942.307 1021 943.948 1019.14 943.948C1018.47 943.948 1017.68 943.789 1017.68 942.201C1017.68 940.771 1018.36 939.183 1018.98 937.595L1022.91 927.746C1023.08 927.323 1023.48 926.37 1023.48 925.364C1023.48 923.14 1021.79 921.128 1019.03 921.128C1013.86 921.128 1011.77 928.805 1011.77 929.229C1011.77 929.441 1012 929.705 1012.39 929.705C1012.9 929.705 1012.95 929.494 1013.18 928.752C1014.53 924.305 1016.67 922.187 1018.86 922.187C1019.37 922.187 1020.33 922.24 1020.33 923.934C1020.33 925.311 1019.59 927.058 1019.14 928.223L1015.21 938.071C1014.87 938.918 1014.53 939.765 1014.53 940.718C1014.53 943.101 1016.27 945.007 1018.98 945.007C1024.15 945.007 1026.18 937.277 1026.18 936.906ZM1025.73 911.439C1025.73 910.644 1025.05 909.691 1023.81 909.691C1022.52 909.691 1021.06 910.856 1021.06 912.233C1021.06 913.557 1022.24 913.98 1022.91 913.98C1024.43 913.98 1025.73 912.603 1025.73 911.439Z" fill="black"/>
<path id="Vector_15" d="M1040.36 923.195H1045.53C1046.6 923.195 1047.17 923.195 1047.17 922.242C1047.17 921.659 1046.83 921.659 1045.7 921.659H1040.75L1042.83 913.929C1043.06 913.188 1043.06 913.082 1043.06 912.711C1043.06 911.864 1042.33 911.388 1041.6 911.388C1041.15 911.388 1039.85 911.547 1039.4 913.241L1037.21 921.659H1031.92C1030.79 921.659 1030.29 921.659 1030.29 922.665C1030.29 923.195 1030.68 923.195 1031.75 923.195H1036.76L1033.04 937.173C1032.59 939.026 1032.43 939.556 1032.43 940.244C1032.43 942.732 1034.28 945.009 1037.43 945.009C1043.12 945.009 1046.15 937.279 1046.15 936.908C1046.15 936.59 1045.93 936.432 1045.59 936.432C1045.48 936.432 1045.25 936.432 1045.14 936.643C1045.08 936.696 1045.03 936.749 1044.63 937.596C1043.45 940.244 1040.86 943.95 1037.6 943.95C1035.91 943.95 1035.8 942.626 1035.8 941.462C1035.8 941.409 1035.8 940.403 1035.97 939.767L1040.36 923.195Z" fill="black"/>
<path id="Vector_16" d="M1067.23 957.345C1067.23 957.186 1067.23 957.08 1066.27 956.18C1060.65 950.832 1057.49 942.096 1057.49 931.295C1057.49 921.023 1060.14 912.181 1066.67 905.933C1067.23 905.457 1067.23 905.351 1067.23 905.192C1067.23 904.874 1066.95 904.769 1066.72 904.769C1065.99 904.769 1061.38 908.581 1058.62 913.77C1055.75 919.117 1054.46 924.783 1054.46 931.295C1054.46 936.007 1055.24 942.308 1058.17 947.973C1061.49 954.327 1066.1 957.769 1066.72 957.769C1066.95 957.769 1067.23 957.663 1067.23 957.345Z" fill="black"/>
<path id="Vector_17" d="M1085.16 950.408C1083.65 952.42 1081.45 954.22 1078.69 954.22C1078.02 954.22 1075.32 954.114 1074.47 951.678C1074.64 951.731 1074.92 951.731 1075.04 951.731C1076.72 951.731 1077.85 950.355 1077.85 949.137C1077.85 947.919 1076.78 947.496 1075.94 947.496C1075.04 947.496 1073.07 948.131 1073.07 950.725C1073.07 953.426 1075.49 955.279 1078.69 955.279C1084.32 955.279 1090 950.408 1091.58 944.531L1097.09 923.881C1097.15 923.616 1097.26 923.299 1097.26 922.981C1097.26 922.187 1096.59 921.657 1095.74 921.657C1095.24 921.657 1094.05 921.869 1093.6 923.458L1089.44 939.024C1089.16 939.977 1089.16 940.083 1088.71 940.665C1087.58 942.148 1085.73 943.948 1083.03 943.948C1079.88 943.948 1079.59 941.036 1079.59 939.606C1079.59 936.588 1081.11 932.512 1082.63 928.699C1083.25 927.164 1083.59 926.423 1083.59 925.364C1083.59 923.14 1081.9 921.128 1079.14 921.128C1073.97 921.128 1071.89 928.805 1071.89 929.229C1071.89 929.441 1072.11 929.705 1072.5 929.705C1073.01 929.705 1073.07 929.494 1073.29 928.752C1074.64 924.305 1076.78 922.187 1078.98 922.187C1079.48 922.187 1080.44 922.187 1080.44 923.934C1080.44 925.311 1079.82 926.846 1078.98 928.858C1076.22 935.794 1076.22 937.542 1076.22 938.812C1076.22 943.842 1080.04 945.007 1082.86 945.007C1084.49 945.007 1086.51 944.531 1088.48 942.571L1088.54 942.624C1087.7 945.748 1087.13 947.813 1085.16 950.408Z" fill="black"/>
<path id="Vector_18" d="M1152.85 927.324C1153.64 927.324 1154.66 927.324 1154.66 926.371C1154.66 925.365 1153.7 925.365 1152.85 925.365H1119.71C1118.93 925.365 1117.91 925.365 1117.91 926.318C1117.91 927.324 1118.87 927.324 1119.71 927.324H1152.85ZM1152.85 937.172C1153.64 937.172 1154.66 937.172 1154.66 936.219C1154.66 935.213 1153.7 935.213 1152.85 935.213H1119.71C1118.93 935.213 1117.91 935.213 1117.91 936.166C1117.91 937.172 1118.87 937.172 1119.71 937.172H1152.85Z" fill="black"/>
<path id="Vector_19" d="M1198.56 927.536C1198.56 923.142 1198.28 918.853 1196.26 914.829C1193.95 910.434 1189.9 909.27 1187.14 909.27C1183.88 909.27 1179.88 910.805 1177.8 915.2C1176.22 918.535 1175.66 921.818 1175.66 927.536C1175.66 932.672 1176.06 936.537 1178.08 940.297C1180.28 944.32 1184.16 945.591 1187.08 945.591C1191.98 945.591 1194.79 942.838 1196.42 939.767C1198.45 935.796 1198.56 930.607 1198.56 927.536ZM1187.08 944.532C1185.28 944.532 1181.63 943.579 1180.56 937.808C1179.94 934.631 1179.94 930.607 1179.94 926.901C1179.94 922.559 1179.94 918.641 1180.84 915.517C1181.79 911.97 1184.66 910.328 1187.08 910.328C1189.22 910.328 1192.49 911.546 1193.55 916.1C1194.29 919.118 1194.29 923.301 1194.29 926.901C1194.29 930.448 1194.29 934.472 1193.67 937.702C1192.6 943.526 1189.05 944.532 1187.08 944.532Z" fill="black"/>
<path id="Vector_20" d="M1216.77 931.295C1216.77 927.271 1216.2 920.706 1213.05 914.564C1209.73 908.21 1205.12 904.769 1204.5 904.769C1204.28 904.769 1204 904.874 1204 905.192C1204 905.351 1204 905.457 1204.95 906.357C1210.58 911.705 1213.73 920.441 1213.73 931.242C1213.73 941.514 1211.08 950.356 1204.56 956.604C1204 957.08 1204 957.186 1204 957.345C1204 957.663 1204.28 957.769 1204.5 957.769C1205.23 957.769 1209.85 953.956 1212.6 948.768C1215.47 943.367 1216.77 937.649 1216.77 931.295Z" fill="black"/>
</g>
</g>
<g id="x := 5" clip-path="url(#clip2_5_39)">
<g id="page1_3">
<path id="Vector_21" d="M1375.83 917.155C1374.03 917.493 1373.36 918.841 1373.36 919.909C1373.36 921.258 1374.43 921.707 1375.22 921.707C1376.9 921.707 1378.08 920.246 1378.08 918.729C1378.08 916.369 1375.38 915.301 1373.02 915.301C1369.6 915.301 1367.68 918.673 1367.18 919.74C1365.89 915.526 1362.4 915.301 1361.39 915.301C1355.66 915.301 1352.62 922.663 1352.62 923.899C1352.62 924.124 1352.85 924.405 1353.24 924.405C1353.69 924.405 1353.8 924.068 1353.92 923.843C1355.83 917.605 1359.59 916.425 1361.22 916.425C1363.75 916.425 1364.26 918.785 1364.26 920.134C1364.26 921.37 1363.92 922.663 1363.24 925.36L1361.33 933.06C1360.49 936.432 1358.86 939.522 1355.88 939.522C1355.6 939.522 1354.2 939.522 1353.02 938.792C1355.04 938.399 1355.49 936.713 1355.49 936.038C1355.49 934.914 1354.65 934.24 1353.58 934.24C1352.23 934.24 1350.77 935.42 1350.77 937.218C1350.77 939.579 1353.41 940.646 1355.83 940.646C1358.52 940.646 1360.43 938.511 1361.61 936.207C1362.51 939.522 1365.32 940.646 1367.4 940.646C1373.14 940.646 1376.17 933.284 1376.17 932.048C1376.17 931.767 1375.95 931.542 1375.61 931.542C1375.1 931.542 1375.05 931.823 1374.88 932.273C1373.36 937.218 1370.1 939.522 1367.57 939.522C1365.61 939.522 1364.54 938.061 1364.54 935.757C1364.54 934.521 1364.76 933.622 1365.66 929.912L1367.63 922.269C1368.47 918.898 1370.38 916.425 1372.97 916.425C1373.08 916.425 1374.65 916.425 1375.83 917.155Z" fill="black"/>
<path id="Vector_22" d="M1406.42 918.562C1406.42 917.044 1405.12 915.864 1403.72 915.864C1402.09 915.864 1400.97 917.157 1400.97 918.562C1400.97 920.248 1402.37 921.316 1403.66 921.316C1405.18 921.316 1406.42 920.135 1406.42 918.562ZM1406.42 937.332C1406.42 935.815 1405.12 934.635 1403.72 934.635C1402.09 934.635 1400.97 935.927 1400.97 937.332C1400.97 939.018 1402.37 940.086 1403.66 940.086C1405.18 940.086 1406.42 938.906 1406.42 937.332Z" fill="black"/>
<path id="Vector_23" d="M1449.3 921.877C1450.08 921.877 1451.09 921.877 1451.09 920.866C1451.09 919.798 1450.14 919.798 1449.3 919.798H1416.19C1415.41 919.798 1414.4 919.798 1414.4 920.809C1414.4 921.877 1415.35 921.877 1416.19 921.877H1449.3ZM1449.3 932.33C1450.08 932.33 1451.09 932.33 1451.09 931.319C1451.09 930.251 1450.14 930.251 1449.3 930.251H1416.19C1415.41 930.251 1414.4 930.251 1414.4 931.262C1414.4 932.33 1415.35 932.33 1416.19 932.33H1449.3Z" fill="black"/>
<path id="Vector_24" d="M1476.96 907.883C1479.38 908.669 1481.35 908.726 1481.97 908.726C1488.32 908.726 1492.36 904.061 1492.36 903.274C1492.36 903.05 1492.25 902.769 1491.91 902.769C1491.8 902.769 1491.69 902.769 1491.18 902.993C1488.04 904.342 1485.34 904.511 1483.88 904.511C1480.17 904.511 1477.53 903.387 1476.46 902.937C1476.06 902.769 1475.95 902.769 1475.9 902.769C1475.45 902.769 1475.45 903.106 1475.45 904.005V920.696C1475.45 921.708 1475.45 922.045 1476.12 922.045C1476.4 922.045 1476.46 921.989 1477.02 921.314C1478.59 919.01 1481.24 917.661 1484.05 917.661C1487.02 917.661 1488.48 920.415 1488.93 921.37C1489.89 923.562 1489.95 926.316 1489.95 928.451C1489.95 930.587 1489.95 933.79 1488.37 936.319C1487.14 938.342 1484.94 939.747 1482.47 939.747C1478.76 939.747 1475.11 937.218 1474.1 933.116C1474.38 933.228 1474.72 933.285 1475 933.285C1475.95 933.285 1477.47 932.723 1477.47 930.812C1477.47 929.238 1476.4 928.339 1475 928.339C1473.99 928.339 1472.52 928.845 1472.52 931.037C1472.52 935.813 1476.35 941.265 1482.58 941.265C1488.93 941.265 1494.5 935.926 1494.5 928.789C1494.5 922.101 1490 916.537 1484.1 916.537C1480.9 916.537 1478.43 917.942 1476.96 919.516V907.883Z" fill="black"/>
</g>
</g>
<path id="shared int x, y = 0" d="M394.587 688.223L392.178 688.905C392.026 688.503 391.803 688.113 391.507 687.734C391.219 687.348 390.825 687.03 390.325 686.78C389.825 686.53 389.185 686.405 388.405 686.405C387.337 686.405 386.447 686.651 385.734 687.144C385.03 687.628 384.678 688.246 384.678 688.996C384.678 689.662 384.92 690.189 385.405 690.575C385.89 690.962 386.647 691.284 387.678 691.541L390.269 692.178C391.829 692.556 392.992 693.136 393.757 693.916C394.522 694.689 394.905 695.685 394.905 696.905C394.905 697.905 394.617 698.799 394.041 699.587C393.473 700.375 392.678 700.996 391.655 701.45C390.632 701.905 389.443 702.132 388.087 702.132C386.306 702.132 384.833 701.746 383.666 700.973C382.5 700.2 381.761 699.072 381.45 697.587L383.996 696.95C384.238 697.89 384.697 698.594 385.371 699.064C386.053 699.534 386.943 699.769 388.041 699.769C389.291 699.769 390.284 699.503 391.019 698.973C391.761 698.435 392.132 697.791 392.132 697.041C392.132 696.435 391.92 695.928 391.496 695.519C391.072 695.102 390.42 694.791 389.541 694.587L386.632 693.905C385.034 693.526 383.859 692.939 383.109 692.144C382.367 691.341 381.996 690.337 381.996 689.132C381.996 688.147 382.272 687.276 382.825 686.519C383.386 685.761 384.147 685.166 385.109 684.734C386.079 684.303 387.178 684.087 388.405 684.087C390.132 684.087 391.488 684.466 392.473 685.223C393.466 685.981 394.17 686.981 394.587 688.223ZM401.624 691.269V701.769H398.942V678.496H401.624V687.041H401.851C402.26 686.14 402.874 685.424 403.692 684.894C404.518 684.356 405.616 684.087 406.987 684.087C408.177 684.087 409.218 684.325 410.112 684.803C411.006 685.272 411.699 685.996 412.192 686.973C412.692 687.943 412.942 689.178 412.942 690.678V701.769H410.26V690.859C410.26 689.473 409.9 688.401 409.18 687.644C408.468 686.878 407.48 686.496 406.215 686.496C405.336 686.496 404.548 686.681 403.851 687.053C403.162 687.424 402.616 687.966 402.215 688.678C401.821 689.39 401.624 690.253 401.624 691.269ZM422.984 702.178C421.878 702.178 420.875 701.969 419.973 701.553C419.072 701.128 418.356 700.519 417.825 699.723C417.295 698.92 417.03 697.95 417.03 696.814C417.03 695.814 417.227 695.003 417.621 694.382C418.015 693.753 418.541 693.261 419.2 692.905C419.859 692.549 420.587 692.284 421.382 692.109C422.185 691.928 422.992 691.784 423.803 691.678C424.863 691.541 425.723 691.439 426.382 691.371C427.049 691.295 427.534 691.17 427.837 690.996C428.147 690.822 428.303 690.519 428.303 690.087V689.996C428.303 688.875 427.996 688.003 427.382 687.382C426.776 686.761 425.856 686.45 424.621 686.45C423.341 686.45 422.337 686.731 421.609 687.291C420.882 687.852 420.371 688.45 420.075 689.087L417.53 688.178C417.984 687.117 418.591 686.291 419.348 685.7C420.113 685.102 420.947 684.685 421.848 684.45C422.757 684.208 423.651 684.087 424.53 684.087C425.091 684.087 425.734 684.155 426.462 684.291C427.197 684.42 427.905 684.689 428.587 685.098C429.276 685.507 429.848 686.125 430.303 686.95C430.757 687.776 430.984 688.882 430.984 690.269V701.769H428.303V699.405H428.166C427.984 699.784 427.681 700.189 427.257 700.621C426.833 701.053 426.269 701.42 425.564 701.723C424.859 702.026 424 702.178 422.984 702.178ZM423.394 699.769C424.454 699.769 425.348 699.56 426.075 699.144C426.81 698.727 427.363 698.189 427.734 697.53C428.113 696.871 428.303 696.178 428.303 695.45V692.996C428.189 693.132 427.939 693.257 427.553 693.371C427.174 693.477 426.734 693.572 426.234 693.655C425.742 693.731 425.261 693.799 424.791 693.859C424.329 693.912 423.954 693.958 423.666 693.996C422.969 694.087 422.318 694.234 421.712 694.439C421.113 694.636 420.628 694.935 420.257 695.337C419.894 695.731 419.712 696.269 419.712 696.95C419.712 697.882 420.056 698.587 420.746 699.064C421.443 699.534 422.325 699.769 423.394 699.769ZM435.879 701.769V684.314H438.47V686.95H438.652C438.97 686.087 439.546 685.386 440.379 684.848C441.213 684.31 442.152 684.041 443.198 684.041C443.395 684.041 443.641 684.045 443.936 684.053C444.232 684.06 444.455 684.072 444.607 684.087V686.814C444.516 686.791 444.307 686.757 443.982 686.712C443.663 686.659 443.326 686.632 442.97 686.632C442.122 686.632 441.364 686.81 440.698 687.166C440.038 687.515 439.516 688 439.129 688.621C438.751 689.234 438.561 689.935 438.561 690.723V701.769H435.879ZM454.573 702.132C452.891 702.132 451.44 701.761 450.22 701.019C449.008 700.269 448.073 699.223 447.413 697.882C446.762 696.534 446.436 694.966 446.436 693.178C446.436 691.39 446.762 689.814 447.413 688.45C448.073 687.079 448.989 686.011 450.163 685.246C451.345 684.473 452.724 684.087 454.3 684.087C455.209 684.087 456.107 684.238 456.993 684.541C457.879 684.844 458.686 685.337 459.413 686.019C460.141 686.693 460.72 687.587 461.152 688.7C461.584 689.814 461.8 691.185 461.8 692.814V693.95H448.345V691.632H459.073C459.073 690.647 458.876 689.769 458.482 688.996C458.095 688.223 457.542 687.613 456.823 687.166C456.11 686.719 455.27 686.496 454.3 686.496C453.232 686.496 452.307 686.761 451.527 687.291C450.754 687.814 450.16 688.496 449.743 689.337C449.326 690.178 449.118 691.079 449.118 692.041V693.587C449.118 694.905 449.345 696.022 449.8 696.939C450.262 697.848 450.902 698.541 451.72 699.019C452.538 699.488 453.489 699.723 454.573 699.723C455.277 699.723 455.913 699.625 456.482 699.428C457.057 699.223 457.554 698.92 457.97 698.519C458.387 698.109 458.709 697.602 458.936 696.996L461.527 697.723C461.254 698.602 460.796 699.375 460.152 700.041C459.508 700.7 458.713 701.216 457.766 701.587C456.819 701.95 455.754 702.132 454.573 702.132ZM472.47 702.132C471.016 702.132 469.732 701.765 468.618 701.03C467.504 700.287 466.633 699.242 466.004 697.894C465.376 696.537 465.061 694.935 465.061 693.087C465.061 691.253 465.376 689.662 466.004 688.314C466.633 686.966 467.508 685.924 468.629 685.189C469.751 684.454 471.046 684.087 472.516 684.087C473.652 684.087 474.55 684.276 475.209 684.655C475.876 685.026 476.383 685.45 476.732 685.928C477.088 686.397 477.364 686.784 477.561 687.087H477.788V678.496H480.47V701.769H477.879V699.087H477.561C477.364 699.405 477.084 699.806 476.72 700.291C476.357 700.769 475.838 701.197 475.163 701.575C474.489 701.947 473.591 702.132 472.47 702.132ZM472.834 699.723C473.91 699.723 474.819 699.443 475.561 698.882C476.304 698.314 476.868 697.53 477.254 696.53C477.641 695.522 477.834 694.359 477.834 693.041C477.834 691.738 477.645 690.598 477.266 689.621C476.887 688.636 476.326 687.871 475.584 687.325C474.841 686.772 473.925 686.496 472.834 686.496C471.698 686.496 470.751 686.787 469.993 687.371C469.243 687.947 468.679 688.731 468.3 689.723C467.929 690.708 467.743 691.814 467.743 693.041C467.743 694.284 467.932 695.412 468.311 696.428C468.698 697.435 469.266 698.238 470.016 698.837C470.773 699.428 471.713 699.723 472.834 699.723ZM494.754 701.769V684.314H497.436V701.769H494.754ZM496.118 681.405C495.595 681.405 495.145 681.227 494.766 680.871C494.395 680.515 494.209 680.087 494.209 679.587C494.209 679.087 494.395 678.659 494.766 678.303C495.145 677.947 495.595 677.769 496.118 677.769C496.641 677.769 497.088 677.947 497.459 678.303C497.838 678.659 498.027 679.087 498.027 679.587C498.027 680.087 497.838 680.515 497.459 680.871C497.088 681.227 496.641 681.405 496.118 681.405ZM505.03 691.269V701.769H502.348V684.314H504.939V687.041H505.166C505.575 686.155 506.197 685.443 507.03 684.905C507.863 684.359 508.939 684.087 510.257 684.087C511.439 684.087 512.473 684.329 513.359 684.814C514.246 685.291 514.935 686.019 515.428 686.996C515.92 687.966 516.166 689.193 516.166 690.678V701.769H513.484V690.859C513.484 689.488 513.128 688.42 512.416 687.655C511.704 686.882 510.727 686.496 509.484 686.496C508.628 686.496 507.863 686.681 507.189 687.053C506.522 687.424 505.996 687.966 505.609 688.678C505.223 689.39 505.03 690.253 505.03 691.269ZM528.658 684.314V686.587H519.612V684.314H528.658ZM522.249 680.132H524.93V696.769C524.93 697.526 525.04 698.094 525.26 698.473C525.487 698.844 525.775 699.094 526.124 699.223C526.48 699.344 526.855 699.405 527.249 699.405C527.544 699.405 527.787 699.39 527.976 699.359C528.165 699.322 528.317 699.291 528.43 699.269L528.976 701.678C528.794 701.746 528.54 701.814 528.215 701.882C527.889 701.958 527.476 701.996 526.976 701.996C526.218 701.996 525.476 701.833 524.749 701.507C524.029 701.181 523.43 700.685 522.953 700.019C522.484 699.352 522.249 698.511 522.249 697.496V680.132ZM543.692 684.314L547.874 691.45L552.055 684.314H555.146L549.51 693.041L555.146 701.769H552.055L547.874 694.996L543.692 701.769H540.601L546.146 693.041L540.601 684.314H543.692ZM562.973 698.587L562.791 699.814C562.662 700.678 562.466 701.602 562.2 702.587C561.943 703.572 561.674 704.5 561.394 705.371C561.113 706.242 560.882 706.935 560.7 707.45H558.655C558.753 706.966 558.882 706.325 559.041 705.53C559.2 704.734 559.359 703.844 559.519 702.859C559.685 701.882 559.822 700.882 559.928 699.859L560.064 698.587H562.973ZM578.669 708.314C578.215 708.314 577.809 708.276 577.453 708.2C577.097 708.132 576.851 708.064 576.715 707.996L577.396 705.632C578.048 705.799 578.624 705.859 579.124 705.814C579.624 705.769 580.067 705.545 580.453 705.144C580.847 704.75 581.207 704.109 581.533 703.223L582.033 701.859L575.578 684.314H578.487L583.305 698.223H583.487L588.305 684.314H591.215L583.805 704.314C583.472 705.216 583.059 705.962 582.567 706.553C582.074 707.151 581.502 707.594 580.851 707.882C580.207 708.17 579.48 708.314 578.669 708.314ZM604.845 687.996V685.541H618.845V687.996H604.845ZM604.845 694.723V692.269H618.845V694.723H604.845ZM641.394 702.087C639.681 702.087 638.223 701.621 637.019 700.689C635.814 699.75 634.894 698.39 634.257 696.609C633.621 694.822 633.303 692.662 633.303 690.132C633.303 687.617 633.621 685.469 634.257 683.689C634.901 681.901 635.825 680.537 637.03 679.598C638.242 678.651 639.697 678.178 641.394 678.178C643.091 678.178 644.541 678.651 645.746 679.598C646.958 680.537 647.882 681.901 648.519 683.689C649.162 685.469 649.484 687.617 649.484 690.132C649.484 692.662 649.166 694.822 648.53 696.609C647.894 698.39 646.973 699.75 645.769 700.689C644.564 701.621 643.106 702.087 641.394 702.087ZM641.394 699.587C643.091 699.587 644.409 698.769 645.348 697.132C646.287 695.496 646.757 693.162 646.757 690.132C646.757 688.117 646.541 686.401 646.109 684.984C645.685 683.568 645.072 682.488 644.269 681.746C643.473 681.003 642.515 680.632 641.394 680.632C639.712 680.632 638.397 681.462 637.45 683.121C636.503 684.772 636.03 687.109 636.03 690.132C636.03 692.147 636.242 693.859 636.666 695.269C637.091 696.678 637.7 697.75 638.496 698.484C639.299 699.219 640.265 699.587 641.394 699.587Z" fill="black"/>
</g>
<defs>
<filter id="filter0_d_5_39" x="622.405" y="791.223" width="39.5449" height="54.5459" filterUnits="userSpaceOnUse" color-interpolation-filters="sRGB">
<feFlood flood-opacity="0" result="BackgroundImageFix"/>
<feColorMatrix in="SourceAlpha" type="matrix" values="0 0 0 0 0 0 0 0 0 0 0 0 0 0 0 0 0 0 127 0" result="hardAlpha"/>
<feOffset dy="4"/>
<feGaussianBlur stdDeviation="2"/>
<feComposite in2="hardAlpha" operator="out"/>
<feColorMatrix type="matrix" values="0 0 0 0 0 0 0 0 0 0 0 0 0 0 0 0 0 0 0.25 0"/>
<feBlend mode="normal" in2="BackgroundImageFix" result="effect1_dropShadow_5_39"/>
<feBlend mode="normal" in="SourceGraphic" in2="effect1_dropShadow_5_39" result="shape"/>
</filter>
<clipPath id="clip0_5_39">
<rect width="305.067" height="56.2551" fill="white" transform="translate(474.769 897.769)"/>
</clipPath>
<clipPath id="clip1_5_39">
<rect width="303" height="53" fill="white" transform="translate(913.769 904.769)"/>
</clipPath>
<clipPath id="clip2_5_39">
<rect width="143.73" height="38.4962" fill="white" transform="translate(1350.77 902.769)"/>
</clipPath>
</defs>
</svg>
