<svg width="1920" height="1080" viewBox="0 0 1920 1080" fill="none" xmlns="http://www.w3.org/2000/svg">
<g id="Explore not below">
<rect width="1920" height="1080" fill="white"/>
<path id="Explore not below_2" d="M643.756 116.448V69.9028H675.12V78.0164H653.597V89.1073H673.506V97.221H653.597V108.335H675.211V116.448H643.756ZM690.853 81.5392L697.262 93.7437L703.83 81.5392H713.762L703.648 98.9937L714.035 116.448H704.148L697.262 104.38L690.489 116.448H680.489L690.853 98.9937L680.853 81.5392H690.853ZM719.512 129.539V81.5392H729.058V87.4028H729.489C729.914 86.4634 730.527 85.5088 731.33 84.5392C732.148 83.5543 733.209 82.7361 734.512 82.0846C735.83 81.4179 737.467 81.0846 739.421 81.0846C741.967 81.0846 744.315 81.7513 746.467 83.0846C748.618 84.4028 750.338 86.3952 751.626 89.0619C752.914 91.7134 753.558 95.0392 753.558 99.0392C753.558 102.933 752.929 106.221 751.671 108.903C750.429 111.569 748.732 113.592 746.58 114.971C744.444 116.335 742.05 117.016 739.398 117.016C737.52 117.016 735.921 116.706 734.603 116.085C733.3 115.463 732.232 114.683 731.398 113.744C730.565 112.789 729.929 111.827 729.489 110.857H729.194V129.539H719.512ZM728.989 98.9937C728.989 101.069 729.277 102.88 729.853 104.426C730.429 105.971 731.262 107.176 732.353 108.039C733.444 108.888 734.77 109.312 736.33 109.312C737.906 109.312 739.239 108.88 740.33 108.016C741.421 107.138 742.247 105.926 742.808 104.38C743.383 102.819 743.671 101.024 743.671 98.9937C743.671 96.9785 743.391 95.2058 742.83 93.6755C742.27 92.1452 741.444 90.9482 740.353 90.0846C739.262 89.221 737.921 88.7892 736.33 88.7892C734.754 88.7892 733.421 89.2058 732.33 90.0392C731.254 90.8725 730.429 92.0543 729.853 93.5846C729.277 95.1149 728.989 96.9179 728.989 98.9937ZM769.694 69.9028V116.448H760.012V69.9028H769.694ZM793.222 117.13C789.692 117.13 786.639 116.38 784.063 114.88C781.503 113.365 779.525 111.259 778.131 108.562C776.737 105.85 776.04 102.706 776.04 99.1301C776.04 95.524 776.737 92.3725 778.131 89.6755C779.525 86.9634 781.503 84.8573 784.063 83.3573C786.639 81.8422 789.692 81.0846 793.222 81.0846C796.753 81.0846 799.798 81.8422 802.359 83.3573C804.934 84.8573 806.919 86.9634 808.313 89.6755C809.707 92.3725 810.404 95.524 810.404 99.1301C810.404 102.706 809.707 105.85 808.313 108.562C806.919 111.259 804.934 113.365 802.359 114.88C799.798 116.38 796.753 117.13 793.222 117.13ZM793.268 109.63C794.874 109.63 796.215 109.176 797.29 108.266C798.366 107.342 799.177 106.085 799.722 104.494C800.283 102.903 800.563 101.092 800.563 99.0619C800.563 97.0316 800.283 95.221 799.722 93.6301C799.177 92.0392 798.366 90.7816 797.29 89.8573C796.215 88.9331 794.874 88.471 793.268 88.471C791.647 88.471 790.283 88.9331 789.177 89.8573C788.086 90.7816 787.26 92.0392 786.7 93.6301C786.154 95.221 785.881 97.0316 785.881 99.0619C785.881 101.092 786.154 102.903 786.7 104.494C787.26 106.085 788.086 107.342 789.177 108.266C790.283 109.176 791.647 109.63 793.268 109.63ZM816.7 116.448V81.5392H826.086V87.6301H826.45C827.086 85.4634 828.154 83.827 829.654 82.721C831.154 81.5998 832.881 81.0392 834.836 81.0392C835.321 81.0392 835.844 81.0695 836.404 81.1301C836.965 81.1907 837.457 81.274 837.881 81.3801V89.971C837.427 89.8346 836.798 89.7134 835.995 89.6073C835.192 89.5013 834.457 89.4482 833.79 89.4482C832.366 89.4482 831.094 89.7588 829.972 90.3801C828.866 90.9861 827.987 91.8346 827.336 92.9255C826.7 94.0164 826.381 95.274 826.381 96.6982V116.448H816.7ZM857.171 117.13C853.58 117.13 850.489 116.403 847.898 114.948C845.323 113.479 843.338 111.403 841.944 108.721C840.55 106.024 839.853 102.835 839.853 99.1528C839.853 95.5619 840.55 92.4104 841.944 89.6982C843.338 86.9861 845.3 84.8725 847.83 83.3573C850.376 81.8422 853.361 81.0846 856.785 81.0846C859.088 81.0846 861.232 81.4558 863.217 82.1982C865.217 82.9255 866.959 84.024 868.444 85.4937C869.944 86.9634 871.111 88.8119 871.944 91.0392C872.777 93.2513 873.194 95.8422 873.194 98.8119V101.471H843.717V95.471H864.08C864.08 94.077 863.777 92.8422 863.171 91.7664C862.565 90.6907 861.724 89.8498 860.648 89.2437C859.588 88.6225 858.353 88.3119 856.944 88.3119C855.474 88.3119 854.171 88.6528 853.035 89.3346C851.914 90.0013 851.035 90.9028 850.398 92.0392C849.762 93.1604 849.436 94.4104 849.421 95.7892V101.494C849.421 103.221 849.739 104.713 850.376 105.971C851.027 107.229 851.944 108.198 853.126 108.88C854.308 109.562 855.709 109.903 857.33 109.903C858.406 109.903 859.391 109.751 860.285 109.448C861.179 109.145 861.944 108.691 862.58 108.085C863.217 107.479 863.701 106.736 864.035 105.857L872.989 106.448C872.535 108.6 871.603 110.479 870.194 112.085C868.8 113.676 866.997 114.918 864.785 115.812C862.588 116.691 860.05 117.13 857.171 117.13ZM904.006 96.2664V116.448H894.325V81.5392H903.552V87.6982H903.961C904.734 85.6679 906.029 84.0619 907.847 82.8801C909.665 81.6831 911.87 81.0846 914.461 81.0846C916.885 81.0846 918.999 81.6149 920.802 82.6755C922.605 83.7361 924.006 85.2513 925.006 87.221C926.006 89.1755 926.506 91.5088 926.506 94.221V116.448H916.825V95.9482C916.84 93.8119 916.294 92.1452 915.188 90.9482C914.082 89.7361 912.559 89.1301 910.62 89.1301C909.317 89.1301 908.165 89.4104 907.165 89.971C906.181 90.5316 905.408 91.3498 904.847 92.4255C904.302 93.4861 904.022 94.7664 904.006 96.2664ZM949.91 117.13C946.379 117.13 943.326 116.38 940.751 114.88C938.19 113.365 936.213 111.259 934.819 108.562C933.425 105.85 932.728 102.706 932.728 99.1301C932.728 95.524 933.425 92.3725 934.819 89.6755C936.213 86.9634 938.19 84.8573 940.751 83.3573C943.326 81.8422 946.379 81.0846 949.91 81.0846C953.44 81.0846 956.486 81.8422 959.046 83.3573C961.622 84.8573 963.607 86.9634 965.001 89.6755C966.395 92.3725 967.092 95.524 967.092 99.1301C967.092 102.706 966.395 105.85 965.001 108.562C963.607 111.259 961.622 113.365 959.046 114.88C956.486 116.38 953.44 117.13 949.91 117.13ZM949.955 109.63C951.561 109.63 952.902 109.176 953.978 108.266C955.054 107.342 955.864 106.085 956.41 104.494C956.97 102.903 957.251 101.092 957.251 99.0619C957.251 97.0316 956.97 95.221 956.41 93.6301C955.864 92.0392 955.054 90.7816 953.978 89.8573C952.902 88.9331 951.561 88.471 949.955 88.471C948.334 88.471 946.97 88.9331 945.864 89.8573C944.773 90.7816 943.948 92.0392 943.387 93.6301C942.842 95.221 942.569 97.0316 942.569 99.0619C942.569 101.092 942.842 102.903 943.387 104.494C943.948 106.085 944.773 107.342 945.864 108.266C946.97 109.176 948.334 109.63 949.955 109.63ZM991.955 81.5392V88.8119H970.933V81.5392H991.955ZM975.705 73.1755H985.387V105.721C985.387 106.615 985.523 107.312 985.796 107.812C986.069 108.297 986.448 108.638 986.933 108.835C987.433 109.032 988.008 109.13 988.66 109.13C989.114 109.13 989.569 109.092 990.023 109.016C990.478 108.926 990.826 108.857 991.069 108.812L992.592 116.016C992.107 116.168 991.425 116.342 990.546 116.539C989.667 116.751 988.599 116.88 987.342 116.926C985.008 117.016 982.963 116.706 981.205 115.994C979.463 115.282 978.107 114.176 977.137 112.676C976.167 111.176 975.69 109.282 975.705 106.994V73.1755ZM1013.26 116.448V69.9028H1022.94V87.4028H1023.23C1023.66 86.4634 1024.27 85.5088 1025.07 84.5392C1025.89 83.5543 1026.95 82.7361 1028.26 82.0846C1029.57 81.4179 1031.21 81.0846 1033.17 81.0846C1035.71 81.0846 1038.06 81.7513 1040.21 83.0846C1042.36 84.4028 1044.08 86.3952 1045.37 89.0619C1046.66 91.7134 1047.3 95.0392 1047.3 99.0392C1047.3 102.933 1046.67 106.221 1045.42 108.903C1044.17 111.569 1042.48 113.592 1040.32 114.971C1038.19 116.335 1035.79 117.016 1033.14 117.016C1031.26 117.016 1029.67 116.706 1028.35 116.085C1027.04 115.463 1025.98 114.683 1025.14 113.744C1024.31 112.789 1023.67 111.827 1023.23 110.857H1022.8V116.448H1013.26ZM1022.73 98.9937C1022.73 101.069 1023.02 102.88 1023.6 104.426C1024.17 105.971 1025.01 107.176 1026.1 108.039C1027.19 108.888 1028.51 109.312 1030.07 109.312C1031.65 109.312 1032.98 108.88 1034.07 108.016C1035.17 107.138 1035.99 105.926 1036.55 104.38C1037.13 102.819 1037.42 101.024 1037.42 98.9937C1037.42 96.9785 1037.14 95.2058 1036.57 93.6755C1036.01 92.1452 1035.19 90.9482 1034.1 90.0846C1033.01 89.221 1031.67 88.7892 1030.07 88.7892C1028.5 88.7892 1027.17 89.2058 1026.07 90.0392C1025 90.8725 1024.17 92.0543 1023.6 93.5846C1023.02 95.1149 1022.73 96.9179 1022.73 98.9937ZM1069.67 117.13C1066.08 117.13 1062.99 116.403 1060.4 114.948C1057.82 113.479 1055.84 111.403 1054.44 108.721C1053.05 106.024 1052.35 102.835 1052.35 99.1528C1052.35 95.5619 1053.05 92.4104 1054.44 89.6982C1055.84 86.9861 1057.8 84.8725 1060.33 83.3573C1062.88 81.8422 1065.86 81.0846 1069.28 81.0846C1071.59 81.0846 1073.73 81.4558 1075.72 82.1982C1077.72 82.9255 1079.46 84.024 1080.94 85.4937C1082.44 86.9634 1083.61 88.8119 1084.44 91.0392C1085.28 93.2513 1085.69 95.8422 1085.69 98.8119V101.471H1056.22V95.471H1076.58C1076.58 94.077 1076.28 92.8422 1075.67 91.7664C1075.07 90.6907 1074.22 89.8498 1073.15 89.2437C1072.09 88.6225 1070.85 88.3119 1069.44 88.3119C1067.97 88.3119 1066.67 88.6528 1065.53 89.3346C1064.41 90.0013 1063.53 90.9028 1062.9 92.0392C1062.26 93.1604 1061.94 94.4104 1061.92 95.7892V101.494C1061.92 103.221 1062.24 104.713 1062.88 105.971C1063.53 107.229 1064.44 108.198 1065.63 108.88C1066.81 109.562 1068.21 109.903 1069.83 109.903C1070.91 109.903 1071.89 109.751 1072.78 109.448C1073.68 109.145 1074.44 108.691 1075.08 108.085C1075.72 107.479 1076.2 106.736 1076.53 105.857L1085.49 106.448C1085.03 108.6 1084.1 110.479 1082.69 112.085C1081.3 113.676 1079.5 114.918 1077.28 115.812C1075.09 116.691 1072.55 117.13 1069.67 117.13ZM1101.69 69.9028V116.448H1092.01V69.9028H1101.69ZM1125.22 117.13C1121.69 117.13 1118.64 116.38 1116.06 114.88C1113.5 113.365 1111.53 111.259 1110.13 108.562C1108.74 105.85 1108.04 102.706 1108.04 99.1301C1108.04 95.524 1108.74 92.3725 1110.13 89.6755C1111.53 86.9634 1113.5 84.8573 1116.06 83.3573C1118.64 81.8422 1121.69 81.0846 1125.22 81.0846C1128.75 81.0846 1131.8 81.8422 1134.36 83.3573C1136.93 84.8573 1138.92 86.9634 1140.31 89.6755C1141.71 92.3725 1142.4 95.524 1142.4 99.1301C1142.4 102.706 1141.71 105.85 1140.31 108.562C1138.92 111.259 1136.93 113.365 1134.36 114.88C1131.8 116.38 1128.75 117.13 1125.22 117.13ZM1125.27 109.63C1126.87 109.63 1128.21 109.176 1129.29 108.266C1130.37 107.342 1131.18 106.085 1131.72 104.494C1132.28 102.903 1132.56 101.092 1132.56 99.0619C1132.56 97.0316 1132.28 95.221 1131.72 93.6301C1131.18 92.0392 1130.37 90.7816 1129.29 89.8573C1128.21 88.9331 1126.87 88.471 1125.27 88.471C1123.65 88.471 1122.28 88.9331 1121.18 89.8573C1120.09 90.7816 1119.26 92.0392 1118.7 93.6301C1118.15 95.221 1117.88 97.0316 1117.88 99.0619C1117.88 101.092 1118.15 102.903 1118.7 104.494C1119.26 106.085 1120.09 107.342 1121.18 108.266C1122.28 109.176 1123.65 109.63 1125.27 109.63ZM1154.71 116.448L1145.21 81.5392H1155.01L1160.42 104.994H1160.73L1166.37 81.5392H1175.98L1181.71 104.857H1182.01L1187.32 81.5392H1197.1L1187.62 116.448H1177.37L1171.37 94.4937H1170.94L1164.94 116.448H1154.71Z" fill="black"/>
</g>
</svg>
