<svg width="1920" height="1080" viewBox="0 0 1920 1080" fill="none" xmlns="http://www.w3.org/2000/svg">
<g id="races">
<rect width="1920" height="1080" fill="white"/>
<path id="Races" d="M827.663 116.448V69.9028H846.026C849.541 69.9028 852.541 70.5316 855.026 71.7892C857.526 73.0316 859.428 74.7967 860.731 77.0846C862.049 79.3573 862.708 82.0316 862.708 85.1073C862.708 88.1982 862.041 90.8573 860.708 93.0846C859.375 95.2967 857.443 96.9937 854.913 98.1755C852.397 99.3573 849.352 99.9482 845.776 99.9482H833.481V92.0392H844.185C846.064 92.0392 847.625 91.7816 848.867 91.2664C850.11 90.7513 851.034 89.9785 851.64 88.9482C852.261 87.9179 852.572 86.6376 852.572 85.1073C852.572 83.5619 852.261 82.2588 851.64 81.1982C851.034 80.1376 850.102 79.3346 848.844 78.7892C847.602 78.2285 846.034 77.9482 844.14 77.9482H837.504V116.448H827.663ZM852.799 95.2664L864.367 116.448H853.504L842.185 95.2664H852.799ZM879.435 117.107C877.208 117.107 875.223 116.721 873.481 115.948C871.738 115.16 870.36 114.001 869.344 112.471C868.344 110.926 867.844 109.001 867.844 106.698C867.844 104.759 868.201 103.13 868.913 101.812C869.625 100.494 870.594 99.4331 871.822 98.6301C873.049 97.827 874.443 97.221 876.004 96.8119C877.579 96.4028 879.231 96.1149 880.958 95.9482C882.988 95.7361 884.625 95.5392 885.867 95.3573C887.11 95.1604 888.011 94.8725 888.572 94.4937C889.132 94.1149 889.413 93.5543 889.413 92.8119V92.6755C889.413 91.2361 888.958 90.1225 888.049 89.3346C887.155 88.5467 885.882 88.1528 884.231 88.1528C882.488 88.1528 881.102 88.5392 880.072 89.3119C879.041 90.0695 878.36 91.024 878.026 92.1755L869.072 91.4482C869.526 89.327 870.42 87.4937 871.754 85.9482C873.087 84.3876 874.807 83.1907 876.913 82.3573C879.034 81.5088 881.488 81.0846 884.276 81.0846C886.216 81.0846 888.072 81.3119 889.844 81.7664C891.632 82.221 893.216 82.9255 894.594 83.8801C895.988 84.8346 897.087 86.0619 897.89 87.5619C898.693 89.0467 899.094 90.827 899.094 92.9028V116.448H889.913V111.607H889.64C889.079 112.698 888.329 113.66 887.39 114.494C886.451 115.312 885.322 115.956 884.004 116.426C882.685 116.88 881.163 117.107 879.435 117.107ZM882.208 110.426C883.632 110.426 884.89 110.145 885.981 109.585C887.072 109.009 887.928 108.236 888.549 107.266C889.17 106.297 889.481 105.198 889.481 103.971V100.266C889.178 100.463 888.761 100.645 888.231 100.812C887.716 100.963 887.132 101.107 886.481 101.244C885.829 101.365 885.178 101.479 884.526 101.585C883.875 101.676 883.284 101.759 882.754 101.835C881.617 102.001 880.625 102.266 879.776 102.63C878.928 102.994 878.269 103.486 877.799 104.107C877.329 104.713 877.094 105.471 877.094 106.38C877.094 107.698 877.572 108.706 878.526 109.403C879.496 110.085 880.723 110.426 882.208 110.426ZM922.379 117.13C918.803 117.13 915.727 116.372 913.151 114.857C910.591 113.327 908.621 111.206 907.242 108.494C905.879 105.782 905.197 102.66 905.197 99.1301C905.197 95.5543 905.886 92.4179 907.265 89.721C908.659 87.0088 910.636 84.8952 913.197 83.3801C915.757 81.8498 918.803 81.0846 922.333 81.0846C925.379 81.0846 928.045 81.6376 930.333 82.7437C932.621 83.8498 934.432 85.4028 935.765 87.4028C937.098 89.4028 937.833 91.7513 937.969 94.4482H928.833C928.576 92.7058 927.894 91.3043 926.788 90.2437C925.697 89.1679 924.265 88.6301 922.492 88.6301C920.992 88.6301 919.682 89.0392 918.56 89.8573C917.454 90.6604 916.591 91.8346 915.969 93.3801C915.348 94.9255 915.038 96.7967 915.038 98.9937C915.038 101.221 915.341 103.115 915.947 104.676C916.568 106.236 917.439 107.426 918.56 108.244C919.682 109.062 920.992 109.471 922.492 109.471C923.598 109.471 924.591 109.244 925.469 108.789C926.363 108.335 927.098 107.676 927.674 106.812C928.265 105.933 928.651 104.88 928.833 103.653H937.969C937.818 106.319 937.091 108.668 935.788 110.698C934.5 112.713 932.719 114.289 930.447 115.426C928.174 116.562 925.485 117.13 922.379 117.13ZM960.077 117.13C956.487 117.13 953.396 116.403 950.805 114.948C948.229 113.479 946.244 111.403 944.85 108.721C943.456 106.024 942.759 102.835 942.759 99.1528C942.759 95.5619 943.456 92.4104 944.85 89.6982C946.244 86.9861 948.206 84.8725 950.737 83.3573C953.282 81.8422 956.267 81.0846 959.691 81.0846C961.994 81.0846 964.138 81.4558 966.123 82.1982C968.123 82.9255 969.865 84.024 971.35 85.4937C972.85 86.9634 974.017 88.8119 974.85 91.0392C975.683 93.2513 976.1 95.8422 976.1 98.8119V101.471H946.623V95.471H966.987C966.987 94.077 966.683 92.8422 966.077 91.7664C965.471 90.6907 964.63 89.8498 963.555 89.2437C962.494 88.6225 961.259 88.3119 959.85 88.3119C958.38 88.3119 957.077 88.6528 955.941 89.3346C954.82 90.0013 953.941 90.9028 953.305 92.0392C952.668 93.1604 952.343 94.4104 952.327 95.7892V101.494C952.327 103.221 952.646 104.713 953.282 105.971C953.933 107.229 954.85 108.198 956.032 108.88C957.214 109.562 958.615 109.903 960.237 109.903C961.312 109.903 962.297 109.751 963.191 109.448C964.085 109.145 964.85 108.691 965.487 108.085C966.123 107.479 966.608 106.736 966.941 105.857L975.896 106.448C975.441 108.6 974.509 110.479 973.1 112.085C971.706 113.676 969.903 114.918 967.691 115.812C965.494 116.691 962.956 117.13 960.077 117.13ZM1011.46 91.4937L1002.6 92.0392C1002.45 91.2816 1002.12 90.5998 1001.62 89.9937C1001.12 89.3725 1000.46 88.8801 999.646 88.5164C998.843 88.1376 997.88 87.9482 996.759 87.9482C995.259 87.9482 993.994 88.2664 992.964 88.9028C991.933 89.524 991.418 90.3573 991.418 91.4028C991.418 92.2361 991.752 92.9407 992.418 93.5164C993.085 94.0922 994.229 94.5543 995.85 94.9028L1002.17 96.1755C1005.56 96.8725 1008.09 97.9937 1009.76 99.5392C1011.43 101.085 1012.26 103.115 1012.26 105.63C1012.26 107.918 1011.58 109.926 1010.24 111.653C1008.9 113.38 1007.07 114.729 1004.74 115.698C1002.42 116.653 999.744 117.13 996.714 117.13C992.093 117.13 988.411 116.168 985.668 114.244C982.941 112.304 981.343 109.668 980.873 106.335L990.396 105.835C990.683 107.244 991.38 108.319 992.487 109.062C993.593 109.789 995.009 110.153 996.737 110.153C998.433 110.153 999.797 109.827 1000.83 109.176C1001.87 108.509 1002.4 107.653 1002.42 106.607C1002.4 105.729 1002.03 105.009 1001.3 104.448C1000.58 103.872 999.456 103.433 997.941 103.13L991.896 101.926C988.487 101.244 985.949 100.062 984.282 98.3801C982.63 96.6982 981.805 94.5543 981.805 91.9482C981.805 89.7058 982.411 87.774 983.623 86.1528C984.85 84.5316 986.57 83.2816 988.782 82.4028C991.009 81.524 993.615 81.0846 996.6 81.0846C1001.01 81.0846 1004.48 82.0164 1007.01 83.8801C1009.55 85.7437 1011.04 88.2816 1011.46 91.4937Z" fill="black"/>
</g>
</svg>
