<svg width="1920" height="1080" viewBox="0 0 1920 1080" fill="none" xmlns="http://www.w3.org/2000/svg">
<g id="static">
<rect width="1920" height="1080" fill="white"/>
<g id="s_0" clip-path="url(#clip0_2026_160)">
<g id="page1">
<path id="Vector" d="M941.736 322.855C943.491 323.178 946.279 323.822 946.898 323.93C948.24 324.36 952.885 326.079 952.885 331.236C952.885 334.566 949.995 343.269 938.02 343.269C935.852 343.269 928.11 342.946 926.046 337.037C930.175 337.575 932.239 334.244 932.239 331.88C932.239 329.624 930.794 328.442 928.73 328.442C926.458 328.442 923.465 330.269 923.465 335.103C923.465 341.442 929.659 345.418 937.917 345.418C953.608 345.418 958.253 333.384 958.253 327.798C958.253 326.186 958.253 323.178 954.95 319.74C952.369 317.161 949.892 316.624 944.317 315.442C941.53 314.798 937.091 313.831 937.091 308.996C937.091 306.847 938.949 299.112 948.756 299.112C953.092 299.112 957.324 300.831 958.356 304.698C953.814 304.698 953.608 308.781 953.608 308.889C953.608 311.145 955.569 311.789 956.498 311.789C957.944 311.789 960.834 310.608 960.834 306.095C960.834 301.583 956.911 296.963 948.859 296.963C935.336 296.963 931.723 308.029 931.723 312.434C931.723 320.599 939.362 322.318 941.736 322.855Z" fill="black"/>
<path id="Vector_2" d="M999.462 337.612C999.462 329.949 998.705 325.293 996.434 320.709C993.406 314.406 987.832 312.83 984.046 312.83C975.375 312.83 972.209 319.563 971.246 321.568C968.768 326.797 968.631 333.888 968.631 337.612C968.631 342.34 968.837 349.574 972.141 355.304C975.306 360.604 980.399 361.965 984.046 361.965C987.35 361.965 993.268 360.891 996.709 353.8C999.256 348.643 999.462 342.268 999.462 337.612ZM984.046 359.96C981.707 359.96 976.958 358.814 975.513 351.293C974.756 347.21 974.756 340.478 974.756 336.753C974.756 331.811 974.756 326.797 975.513 322.858C976.958 315.552 982.326 314.836 984.046 314.836C986.386 314.836 991.135 316.053 992.511 322.571C993.337 326.511 993.337 331.882 993.337 336.753C993.337 340.979 993.337 347.425 992.511 351.436C991.066 358.957 986.318 359.96 984.046 359.96Z" fill="black"/>
</g>
</g>
<path id="Arrow 50" d="M816.194 529.155C816.652 530.715 818.344 531.621 819.972 531.179L846.508 523.977C848.136 523.535 849.084 521.912 848.626 520.352C848.167 518.793 846.476 517.886 844.847 518.328L821.26 524.73L814.618 502.135C814.16 500.575 812.468 499.669 810.84 500.11C809.211 500.552 808.263 502.175 808.721 503.735L816.194 529.155ZM903.993 383.154L901.321 381.722L816.47 526.923L819.142 528.355L821.814 529.786L906.665 384.585L903.993 383.154Z" fill="black"/>
<path id="Arrow 53" d="M1006.86 541.928C1005.79 543.184 1003.89 543.326 1002.63 542.246L982.127 524.64C980.868 523.56 980.722 521.666 981.8 520.41C982.878 519.154 984.772 519.011 986.03 520.092L1004.26 535.741L1019.87 517.547C1020.95 516.291 1022.84 516.148 1024.1 517.229C1025.36 518.309 1025.51 520.203 1024.43 521.459L1006.86 541.928ZM992.465 383.154L995.456 382.929L1007.58 539.747L1004.59 539.972L1001.59 540.197L989.474 383.379L992.465 383.154Z" fill="black"/>
<g id="Group_60" opacity="0.1">
<path id="Arrow 54" d="M925.954 541.928C927.032 543.184 928.926 543.326 930.184 542.246L950.692 524.64C951.95 523.56 952.096 521.666 951.019 520.41C949.941 519.154 948.047 519.011 946.788 520.092L928.559 535.741L912.946 517.547C911.869 516.291 909.975 516.148 908.716 517.229C907.458 518.309 907.311 520.203 908.389 521.459L925.954 541.928ZM940.354 383.154L937.362 382.929L925.241 539.747L928.232 539.972L931.224 540.197L943.345 383.379L940.354 383.154Z" fill="black"/>
<path id="Arrow 55" d="M1116.62 529.155C1116.17 530.715 1114.47 531.621 1112.85 531.179L1086.31 523.977C1084.68 523.535 1083.73 521.912 1084.19 520.352C1084.65 518.793 1086.34 517.886 1087.97 518.328L1111.56 524.73L1118.2 502.135C1118.66 500.575 1120.35 499.669 1121.98 500.11C1123.61 500.552 1124.56 502.175 1124.1 503.735L1116.62 529.155ZM1028.83 383.154L1031.5 381.722L1116.35 526.923L1113.68 528.355L1111 529.786L1026.15 384.585L1028.83 383.154Z" fill="black"/>
</g>
<g id="Group_56">
<path id="Arrow 57" d="M1116.62 529.155C1116.17 530.715 1114.47 531.621 1112.85 531.179L1086.31 523.977C1084.68 523.535 1083.73 521.912 1084.19 520.352C1084.65 518.793 1086.34 517.886 1087.97 518.328L1111.56 524.73L1118.2 502.135C1118.66 500.575 1120.35 499.669 1121.98 500.11C1123.61 500.552 1124.56 502.175 1124.1 503.735L1116.62 529.155ZM1028.83 383.154L1031.5 381.722L1116.35 526.923L1113.68 528.355L1111 529.786L1026.15 384.585L1028.83 383.154Z" fill="#D423CE"/>
<path id="Choice made beforehand" d="M1169.7 413.963H1166.53C1166.35 413.051 1166.02 412.25 1165.55 411.559C1165.09 410.869 1164.53 410.29 1163.86 409.821C1163.2 409.344 1162.48 408.986 1161.68 408.747C1160.87 408.508 1160.04 408.389 1159.17 408.389C1157.58 408.389 1156.15 408.79 1154.86 409.591C1153.58 410.392 1152.56 411.572 1151.81 413.132C1151.06 414.692 1150.68 416.605 1150.68 418.872C1150.68 421.139 1151.06 423.052 1151.81 424.612C1152.56 426.172 1153.58 427.352 1154.86 428.153C1156.15 428.954 1157.58 429.355 1159.17 429.355C1160.04 429.355 1160.87 429.236 1161.68 428.997C1162.48 428.758 1163.2 428.405 1163.86 427.936C1164.53 427.459 1165.09 426.875 1165.55 426.184C1166.02 425.486 1166.35 424.684 1166.53 423.781H1169.7C1169.46 425.119 1169.03 426.317 1168.4 427.373C1167.77 428.43 1166.98 429.329 1166.05 430.071C1165.11 430.804 1164.06 431.362 1162.89 431.746C1161.73 432.129 1160.49 432.321 1159.17 432.321C1156.94 432.321 1154.95 431.775 1153.21 430.684C1151.47 429.594 1150.11 428.042 1149.11 426.031C1148.11 424.02 1147.61 421.633 1147.61 418.872C1147.61 416.111 1148.11 413.724 1149.11 411.713C1150.11 409.702 1151.47 408.15 1153.21 407.059C1154.95 405.969 1156.94 405.423 1159.17 405.423C1160.49 405.423 1161.73 405.615 1162.89 405.998C1164.06 406.382 1165.11 406.944 1166.05 407.686C1166.98 408.419 1167.77 409.314 1168.4 410.371C1169.03 411.419 1169.46 412.616 1169.7 413.963ZM1177.43 420.15V431.963H1174.42V405.781H1177.43V415.395H1177.69C1178.15 414.381 1178.84 413.575 1179.76 412.979C1180.69 412.373 1181.93 412.071 1183.47 412.071C1184.81 412.071 1185.98 412.339 1186.98 412.876C1187.99 413.405 1188.77 414.219 1189.32 415.318C1189.89 416.409 1190.17 417.798 1190.17 419.486V431.963H1187.15V419.69C1187.15 418.131 1186.75 416.925 1185.94 416.072C1185.13 415.211 1184.02 414.781 1182.6 414.781C1181.61 414.781 1180.72 414.99 1179.94 415.407C1179.16 415.825 1178.55 416.434 1178.1 417.236C1177.66 418.037 1177.43 419.008 1177.43 420.15ZM1203.66 432.372C1201.89 432.372 1200.34 431.95 1199 431.106C1197.67 430.263 1196.63 429.082 1195.88 427.565C1195.14 426.048 1194.77 424.275 1194.77 422.247C1194.77 420.202 1195.14 418.416 1195.88 416.89C1196.63 415.365 1197.67 414.18 1199 413.336C1200.34 412.493 1201.89 412.071 1203.66 412.071C1205.44 412.071 1206.99 412.493 1208.32 413.336C1209.66 414.18 1210.7 415.365 1211.44 416.89C1212.19 418.416 1212.56 420.202 1212.56 422.247C1212.56 424.275 1212.19 426.048 1211.44 427.565C1210.7 429.082 1209.66 430.263 1208.32 431.106C1206.99 431.95 1205.44 432.372 1203.66 432.372ZM1203.66 429.662C1205.01 429.662 1206.12 429.317 1206.99 428.626C1207.86 427.936 1208.5 427.028 1208.92 425.903C1209.34 424.778 1209.55 423.559 1209.55 422.247C1209.55 420.934 1209.34 419.711 1208.92 418.578C1208.5 417.444 1207.86 416.528 1206.99 415.829C1206.12 415.131 1205.01 414.781 1203.66 414.781C1202.32 414.781 1201.21 415.131 1200.34 415.829C1199.47 416.528 1198.83 417.444 1198.41 418.578C1197.99 419.711 1197.78 420.934 1197.78 422.247C1197.78 423.559 1197.99 424.778 1198.41 425.903C1198.83 427.028 1199.47 427.936 1200.34 428.626C1201.21 429.317 1202.32 429.662 1203.66 429.662ZM1217.17 431.963V412.327H1220.18V431.963H1217.17ZM1218.7 409.054C1218.11 409.054 1217.61 408.854 1217.18 408.453C1216.76 408.052 1216.55 407.571 1216.55 407.008C1216.55 406.446 1216.76 405.964 1217.18 405.564C1217.61 405.163 1218.11 404.963 1218.7 404.963C1219.29 404.963 1219.79 405.163 1220.21 405.564C1220.64 405.964 1220.85 406.446 1220.85 407.008C1220.85 407.571 1220.64 408.052 1220.21 408.453C1219.79 408.854 1219.29 409.054 1218.7 409.054ZM1233.69 432.372C1231.85 432.372 1230.26 431.937 1228.93 431.068C1227.6 430.199 1226.58 429.001 1225.86 427.476C1225.15 425.95 1224.79 424.207 1224.79 422.247C1224.79 420.253 1225.16 418.493 1225.89 416.967C1226.63 415.433 1227.66 414.236 1228.98 413.375C1230.31 412.506 1231.86 412.071 1233.64 412.071C1235.02 412.071 1236.26 412.327 1237.37 412.838C1238.48 413.349 1239.39 414.065 1240.09 414.986C1240.8 415.906 1241.24 416.98 1241.41 418.207H1238.39C1238.16 417.312 1237.65 416.52 1236.86 415.829C1236.07 415.131 1235.02 414.781 1233.69 414.781C1232.51 414.781 1231.48 415.088 1230.59 415.702C1229.72 416.307 1229.03 417.163 1228.54 418.271C1228.05 419.371 1227.81 420.662 1227.81 422.145C1227.81 423.662 1228.05 424.983 1228.52 426.108C1229.01 427.233 1229.69 428.106 1230.57 428.729C1231.45 429.351 1232.49 429.662 1233.69 429.662C1234.47 429.662 1235.18 429.525 1235.82 429.253C1236.46 428.98 1237 428.588 1237.45 428.077C1237.89 427.565 1238.2 426.952 1238.39 426.236H1241.41C1241.24 427.395 1240.82 428.439 1240.14 429.368C1239.48 430.288 1238.6 431.021 1237.5 431.567C1236.41 432.104 1235.14 432.372 1233.69 432.372ZM1254.05 432.372C1252.16 432.372 1250.53 431.954 1249.16 431.119C1247.79 430.275 1246.74 429.099 1246 427.591C1245.27 426.074 1244.9 424.309 1244.9 422.298C1244.9 420.287 1245.27 418.514 1246 416.98C1246.74 415.437 1247.77 414.236 1249.09 413.375C1250.42 412.506 1251.97 412.071 1253.75 412.071C1254.77 412.071 1255.78 412.241 1256.78 412.582C1257.77 412.923 1258.68 413.477 1259.5 414.244C1260.32 415.003 1260.97 416.008 1261.45 417.261C1261.94 418.514 1262.18 420.057 1262.18 421.889V423.167H1247.05V420.559H1259.12C1259.12 419.452 1258.89 418.463 1258.45 417.594C1258.02 416.724 1257.39 416.038 1256.58 415.535C1255.78 415.032 1254.84 414.781 1253.75 414.781C1252.54 414.781 1251.5 415.079 1250.63 415.676C1249.76 416.264 1249.09 417.031 1248.62 417.977C1248.15 418.923 1247.92 419.937 1247.92 421.02V422.758C1247.92 424.241 1248.17 425.498 1248.68 426.53C1249.2 427.552 1249.92 428.332 1250.84 428.869C1251.76 429.398 1252.83 429.662 1254.05 429.662C1254.85 429.662 1255.56 429.551 1256.2 429.329C1256.85 429.099 1257.41 428.758 1257.88 428.307C1258.34 427.846 1258.71 427.275 1258.96 426.594L1261.88 427.412C1261.57 428.4 1261.05 429.27 1260.33 430.02C1259.61 430.761 1258.71 431.341 1257.65 431.758C1256.58 432.167 1255.38 432.372 1254.05 432.372ZM1276.9 431.963V412.327H1279.81V415.395H1280.07C1280.48 414.346 1281.14 413.532 1282.05 412.953C1282.96 412.365 1284.06 412.071 1285.34 412.071C1286.63 412.071 1287.71 412.365 1288.57 412.953C1289.44 413.532 1290.12 414.346 1290.6 415.395H1290.81C1291.31 414.381 1292.06 413.575 1293.07 412.979C1294.08 412.373 1295.28 412.071 1296.69 412.071C1298.44 412.071 1299.88 412.621 1301 413.72C1302.11 414.811 1302.67 416.511 1302.67 418.821V431.963H1299.65V418.821C1299.65 417.372 1299.26 416.336 1298.46 415.714C1297.67 415.092 1296.74 414.781 1295.67 414.781C1294.28 414.781 1293.21 415.199 1292.46 416.034C1291.7 416.861 1291.32 417.909 1291.32 419.179V431.963H1288.25V418.514C1288.25 417.398 1287.89 416.498 1287.16 415.817C1286.44 415.126 1285.51 414.781 1284.36 414.781C1283.58 414.781 1282.85 414.99 1282.17 415.407C1281.49 415.825 1280.95 416.405 1280.53 417.146C1280.12 417.879 1279.92 418.727 1279.92 419.69V431.963H1276.9ZM1313.97 432.423C1312.72 432.423 1311.59 432.189 1310.58 431.72C1309.56 431.243 1308.76 430.557 1308.16 429.662C1307.56 428.758 1307.27 427.667 1307.27 426.389C1307.27 425.264 1307.49 424.352 1307.93 423.653C1308.37 422.946 1308.97 422.392 1309.71 421.991C1310.45 421.591 1311.27 421.292 1312.16 421.096C1313.07 420.892 1313.97 420.73 1314.89 420.611C1316.08 420.457 1317.05 420.342 1317.79 420.265C1318.54 420.18 1319.08 420.04 1319.42 419.844C1319.77 419.648 1319.95 419.307 1319.95 418.821V418.719C1319.95 417.457 1319.6 416.477 1318.91 415.778C1318.23 415.079 1317.2 414.73 1315.81 414.73C1314.37 414.73 1313.24 415.045 1312.42 415.676C1311.6 416.307 1311.03 416.98 1310.69 417.696L1307.83 416.673C1308.34 415.48 1309.02 414.551 1309.87 413.886C1310.74 413.213 1311.67 412.744 1312.69 412.48C1313.71 412.207 1314.72 412.071 1315.7 412.071C1316.33 412.071 1317.06 412.148 1317.88 412.301C1318.7 412.446 1319.5 412.748 1320.27 413.209C1321.04 413.669 1321.69 414.363 1322.2 415.292C1322.71 416.221 1322.97 417.466 1322.97 419.025V431.963H1319.95V429.304H1319.8C1319.59 429.73 1319.25 430.186 1318.77 430.672C1318.3 431.157 1317.66 431.571 1316.87 431.912C1316.07 432.253 1315.11 432.423 1313.97 432.423ZM1314.43 429.713C1315.62 429.713 1316.62 429.479 1317.44 429.01C1318.27 428.541 1318.89 427.936 1319.31 427.194C1319.74 426.453 1319.95 425.673 1319.95 424.855V422.094C1319.82 422.247 1319.54 422.388 1319.1 422.515C1318.68 422.635 1318.18 422.741 1317.62 422.835C1317.07 422.92 1316.53 422.997 1316 423.065C1315.48 423.125 1315.06 423.176 1314.73 423.219C1313.95 423.321 1313.22 423.487 1312.53 423.717C1311.86 423.939 1311.31 424.275 1310.9 424.727C1310.49 425.17 1310.28 425.775 1310.28 426.542C1310.28 427.591 1310.67 428.383 1311.45 428.92C1312.23 429.449 1313.22 429.713 1314.43 429.713ZM1335.89 432.372C1334.25 432.372 1332.81 431.959 1331.55 431.132C1330.3 430.297 1329.32 429.121 1328.61 427.604C1327.91 426.078 1327.55 424.275 1327.55 422.196C1327.55 420.133 1327.91 418.344 1328.61 416.827C1329.32 415.309 1330.3 414.138 1331.57 413.311C1332.83 412.484 1334.28 412.071 1335.94 412.071C1337.22 412.071 1338.23 412.284 1338.97 412.71C1339.72 413.128 1340.29 413.605 1340.68 414.142C1341.08 414.67 1341.39 415.105 1341.61 415.446H1341.87V405.781H1344.89V431.963H1341.97V428.946H1341.61C1341.39 429.304 1341.08 429.756 1340.67 430.301C1340.26 430.838 1339.68 431.319 1338.92 431.746C1338.16 432.163 1337.15 432.372 1335.89 432.372ZM1336.3 429.662C1337.51 429.662 1338.53 429.346 1339.36 428.716C1340.2 428.077 1340.83 427.194 1341.27 426.069C1341.7 424.936 1341.92 423.628 1341.92 422.145C1341.92 420.679 1341.71 419.396 1341.28 418.297C1340.86 417.189 1340.23 416.328 1339.39 415.714C1338.55 415.092 1337.52 414.781 1336.3 414.781C1335.02 414.781 1333.95 415.109 1333.1 415.765C1332.26 416.413 1331.62 417.295 1331.2 418.412C1330.78 419.52 1330.57 420.764 1330.57 422.145C1330.57 423.542 1330.78 424.812 1331.21 425.954C1331.64 427.088 1332.28 427.991 1333.13 428.665C1333.98 429.329 1335.03 429.662 1336.3 429.662ZM1359.06 432.372C1357.17 432.372 1355.54 431.954 1354.17 431.119C1352.8 430.275 1351.75 429.099 1351.01 427.591C1350.28 426.074 1349.91 424.309 1349.91 422.298C1349.91 420.287 1350.28 418.514 1351.01 416.98C1351.75 415.437 1352.78 414.236 1354.1 413.375C1355.43 412.506 1356.99 412.071 1358.76 412.071C1359.78 412.071 1360.79 412.241 1361.79 412.582C1362.78 412.923 1363.69 413.477 1364.51 414.244C1365.33 415.003 1365.98 416.008 1366.47 417.261C1366.95 418.514 1367.2 420.057 1367.2 421.889V423.167H1352.06V420.559H1364.13C1364.13 419.452 1363.91 418.463 1363.46 417.594C1363.03 416.724 1362.41 416.038 1361.6 415.535C1360.79 415.032 1359.85 414.781 1358.76 414.781C1357.56 414.781 1356.52 415.079 1355.64 415.676C1354.77 416.264 1354.1 417.031 1353.63 417.977C1353.16 418.923 1352.93 419.937 1352.93 421.02V422.758C1352.93 424.241 1353.18 425.498 1353.7 426.53C1354.22 427.552 1354.94 428.332 1355.86 428.869C1356.78 429.398 1357.85 429.662 1359.06 429.662C1359.86 429.662 1360.57 429.551 1361.21 429.329C1361.86 429.099 1362.42 428.758 1362.89 428.307C1363.36 427.846 1363.72 427.275 1363.97 426.594L1366.89 427.412C1366.58 428.4 1366.07 429.27 1365.34 430.02C1364.62 430.761 1363.72 431.341 1362.66 431.758C1361.59 432.167 1360.39 432.372 1359.06 432.372ZM1382.32 431.963V405.781H1385.34V415.446H1385.59C1385.81 415.105 1386.12 414.67 1386.51 414.142C1386.91 413.605 1387.48 413.128 1388.23 412.71C1388.98 412.284 1389.99 412.071 1391.27 412.071C1392.92 412.071 1394.38 412.484 1395.64 413.311C1396.9 414.138 1397.89 415.309 1398.59 416.827C1399.3 418.344 1399.65 420.133 1399.65 422.196C1399.65 424.275 1399.3 426.078 1398.59 427.604C1397.89 429.121 1396.91 430.297 1395.65 431.132C1394.4 431.959 1392.96 432.372 1391.32 432.372C1390.06 432.372 1389.05 432.163 1388.29 431.746C1387.53 431.319 1386.95 430.838 1386.54 430.301C1386.13 429.756 1385.81 429.304 1385.59 428.946H1385.23V431.963H1382.32ZM1385.28 422.145C1385.28 423.628 1385.5 424.936 1385.94 426.069C1386.37 427.194 1387.01 428.077 1387.84 428.716C1388.68 429.346 1389.7 429.662 1390.91 429.662C1392.17 429.662 1393.22 429.329 1394.07 428.665C1394.92 427.991 1395.56 427.088 1395.99 425.954C1396.42 424.812 1396.64 423.542 1396.64 422.145C1396.64 420.764 1396.42 419.52 1396 418.412C1395.58 417.295 1394.95 416.413 1394.09 415.765C1393.25 415.109 1392.19 414.781 1390.91 414.781C1389.68 414.781 1388.65 415.092 1387.82 415.714C1386.98 416.328 1386.35 417.189 1385.92 418.297C1385.5 419.396 1385.28 420.679 1385.28 422.145ZM1412.5 432.372C1410.61 432.372 1408.98 431.954 1407.61 431.119C1406.24 430.275 1405.19 429.099 1404.45 427.591C1403.72 426.074 1403.35 424.309 1403.35 422.298C1403.35 420.287 1403.72 418.514 1404.45 416.98C1405.19 415.437 1406.22 414.236 1407.54 413.375C1408.87 412.506 1410.42 412.071 1412.2 412.071C1413.22 412.071 1414.23 412.241 1415.23 412.582C1416.22 412.923 1417.13 413.477 1417.95 414.244C1418.77 415.003 1419.42 416.008 1419.9 417.261C1420.39 418.514 1420.63 420.057 1420.63 421.889V423.167H1405.5V420.559H1417.56C1417.56 419.452 1417.34 418.463 1416.9 417.594C1416.47 416.724 1415.84 416.038 1415.03 415.535C1414.23 415.032 1413.29 414.781 1412.2 414.781C1410.99 414.781 1409.95 415.079 1409.08 415.676C1408.21 416.264 1407.54 417.031 1407.07 417.977C1406.6 418.923 1406.37 419.937 1406.37 421.02V422.758C1406.37 424.241 1406.62 425.498 1407.13 426.53C1407.65 427.552 1408.37 428.332 1409.29 428.869C1410.21 429.398 1411.28 429.662 1412.5 429.662C1413.29 429.662 1414.01 429.551 1414.65 429.329C1415.3 429.099 1415.86 428.758 1416.32 428.307C1416.79 427.846 1417.16 427.275 1417.41 426.594L1420.33 427.412C1420.02 428.4 1419.5 429.27 1418.78 430.02C1418.05 430.761 1417.16 431.341 1416.09 431.758C1415.03 432.167 1413.83 432.372 1412.5 432.372ZM1433.97 412.327V414.883H1423.38V412.327H1433.97ZM1426.55 431.963V409.616C1426.55 408.491 1426.82 407.554 1427.34 406.804C1427.87 406.054 1428.56 405.491 1429.4 405.116C1430.25 404.741 1431.14 404.554 1432.07 404.554C1432.82 404.554 1433.42 404.613 1433.89 404.733C1434.36 404.852 1434.71 404.963 1434.94 405.065L1434.07 407.673C1433.92 407.622 1433.7 407.558 1433.43 407.481C1433.17 407.405 1432.82 407.366 1432.38 407.366C1431.38 407.366 1430.66 407.618 1430.22 408.121C1429.79 408.623 1429.57 409.361 1429.57 410.332V431.963H1426.55ZM1445.36 432.372C1443.59 432.372 1442.04 431.95 1440.7 431.106C1439.37 430.263 1438.33 429.082 1437.58 427.565C1436.84 426.048 1436.47 424.275 1436.47 422.247C1436.47 420.202 1436.84 418.416 1437.58 416.89C1438.33 415.365 1439.37 414.18 1440.7 413.336C1442.04 412.493 1443.59 412.071 1445.36 412.071C1447.14 412.071 1448.69 412.493 1450.02 413.336C1451.36 414.18 1452.39 415.365 1453.14 416.89C1453.89 418.416 1454.26 420.202 1454.26 422.247C1454.26 424.275 1453.89 426.048 1453.14 427.565C1452.39 429.082 1451.36 430.263 1450.02 431.106C1448.69 431.95 1447.14 432.372 1445.36 432.372ZM1445.36 429.662C1446.71 429.662 1447.82 429.317 1448.69 428.626C1449.56 427.936 1450.2 427.028 1450.62 425.903C1451.04 424.778 1451.24 423.559 1451.24 422.247C1451.24 420.934 1451.04 419.711 1450.62 418.578C1450.2 417.444 1449.56 416.528 1448.69 415.829C1447.82 415.131 1446.71 414.781 1445.36 414.781C1444.02 414.781 1442.91 415.131 1442.04 415.829C1441.17 416.528 1440.53 417.444 1440.11 418.578C1439.69 419.711 1439.48 420.934 1439.48 422.247C1439.48 423.559 1439.69 424.778 1440.11 425.903C1440.53 427.028 1441.17 427.936 1442.04 428.626C1442.91 429.317 1444.02 429.662 1445.36 429.662ZM1458.87 431.963V412.327H1461.78V415.292H1461.99C1462.34 414.321 1462.99 413.532 1463.93 412.927C1464.87 412.322 1465.92 412.02 1467.1 412.02C1467.32 412.02 1467.6 412.024 1467.93 412.032C1468.26 412.041 1468.51 412.054 1468.69 412.071V415.139C1468.58 415.113 1468.35 415.075 1467.98 415.024C1467.62 414.964 1467.24 414.934 1466.84 414.934C1465.89 414.934 1465.04 415.135 1464.29 415.535C1463.55 415.927 1462.96 416.473 1462.52 417.172C1462.1 417.862 1461.88 418.65 1461.88 419.537V431.963H1458.87ZM1479.9 432.372C1478 432.372 1476.37 431.954 1475 431.119C1473.64 430.275 1472.58 429.099 1471.84 427.591C1471.11 426.074 1470.74 424.309 1470.74 422.298C1470.74 420.287 1471.11 418.514 1471.84 416.98C1472.58 415.437 1473.62 414.236 1474.94 413.375C1476.27 412.506 1477.82 412.071 1479.59 412.071C1480.61 412.071 1481.62 412.241 1482.62 412.582C1483.62 412.923 1484.52 413.477 1485.34 414.244C1486.16 415.003 1486.81 416.008 1487.3 417.261C1487.78 418.514 1488.03 420.057 1488.03 421.889V423.167H1472.89V420.559H1484.96C1484.96 419.452 1484.74 418.463 1484.29 417.594C1483.86 416.724 1483.24 416.038 1482.43 415.535C1481.63 415.032 1480.68 414.781 1479.59 414.781C1478.39 414.781 1477.35 415.079 1476.47 415.676C1475.6 416.264 1474.93 417.031 1474.46 417.977C1473.99 418.923 1473.76 419.937 1473.76 421.02V422.758C1473.76 424.241 1474.02 425.498 1474.53 426.53C1475.05 427.552 1475.77 428.332 1476.69 428.869C1477.61 429.398 1478.68 429.662 1479.9 429.662C1480.69 429.662 1481.41 429.551 1482.04 429.329C1482.69 429.099 1483.25 428.758 1483.72 428.307C1484.19 427.846 1484.55 427.275 1484.81 426.594L1487.72 427.412C1487.41 428.4 1486.9 429.27 1486.17 430.02C1485.45 430.761 1484.55 431.341 1483.49 431.758C1482.42 432.167 1481.23 432.372 1479.9 432.372ZM1495.63 420.15V431.963H1492.62V405.781H1495.63V415.395H1495.89C1496.35 414.381 1497.04 413.575 1497.96 412.979C1498.89 412.373 1500.13 412.071 1501.67 412.071C1503.01 412.071 1504.18 412.339 1505.18 412.876C1506.19 413.405 1506.97 414.219 1507.52 415.318C1508.09 416.409 1508.37 417.798 1508.37 419.486V431.963H1505.35V419.69C1505.35 418.131 1504.94 416.925 1504.14 416.072C1503.33 415.211 1502.22 414.781 1500.8 414.781C1499.81 414.781 1498.92 414.99 1498.14 415.407C1497.36 415.825 1496.75 416.434 1496.3 417.236C1495.86 418.037 1495.63 419.008 1495.63 420.15ZM1519.66 432.423C1518.42 432.423 1517.29 432.189 1516.28 431.72C1515.26 431.243 1514.46 430.557 1513.86 429.662C1513.26 428.758 1512.97 427.667 1512.97 426.389C1512.97 425.264 1513.19 424.352 1513.63 423.653C1514.07 422.946 1514.67 422.392 1515.41 421.991C1516.15 421.591 1516.97 421.292 1517.86 421.096C1518.77 420.892 1519.67 420.73 1520.59 420.611C1521.78 420.457 1522.75 420.342 1523.49 420.265C1524.24 420.18 1524.78 420.04 1525.12 419.844C1525.47 419.648 1525.65 419.307 1525.65 418.821V418.719C1525.65 417.457 1525.3 416.477 1524.61 415.778C1523.93 415.079 1522.89 414.73 1521.51 414.73C1520.07 414.73 1518.94 415.045 1518.12 415.676C1517.3 416.307 1516.72 416.98 1516.39 417.696L1513.53 416.673C1514.04 415.48 1514.72 414.551 1515.57 413.886C1516.43 413.213 1517.37 412.744 1518.39 412.48C1519.41 412.207 1520.41 412.071 1521.4 412.071C1522.03 412.071 1522.76 412.148 1523.58 412.301C1524.4 412.446 1525.2 412.748 1525.97 413.209C1526.74 413.669 1527.39 414.363 1527.9 415.292C1528.41 416.221 1528.66 417.466 1528.66 419.025V431.963H1525.65V429.304H1525.49C1525.29 429.73 1524.95 430.186 1524.47 430.672C1523.99 431.157 1523.36 431.571 1522.57 431.912C1521.77 432.253 1520.81 432.423 1519.66 432.423ZM1520.12 429.713C1521.32 429.713 1522.32 429.479 1523.14 429.01C1523.97 428.541 1524.59 427.936 1525.01 427.194C1525.43 426.453 1525.65 425.673 1525.65 424.855V422.094C1525.52 422.247 1525.24 422.388 1524.8 422.515C1524.38 422.635 1523.88 422.741 1523.32 422.835C1522.77 422.92 1522.23 422.997 1521.7 423.065C1521.18 423.125 1520.76 423.176 1520.43 423.219C1519.65 423.321 1518.91 423.487 1518.23 423.717C1517.56 423.939 1517.01 424.275 1516.6 424.727C1516.19 425.17 1515.98 425.775 1515.98 426.542C1515.98 427.591 1516.37 428.383 1517.15 428.92C1517.93 429.449 1518.92 429.713 1520.12 429.713ZM1537.19 420.15V431.963H1534.17V412.327H1537.09V415.395H1537.34C1537.8 414.398 1538.5 413.596 1539.44 412.991C1540.38 412.378 1541.59 412.071 1543.07 412.071C1544.4 412.071 1545.56 412.344 1546.56 412.889C1547.56 413.426 1548.33 414.244 1548.89 415.344C1549.44 416.434 1549.72 417.815 1549.72 419.486V431.963H1546.7V419.69C1546.7 418.148 1546.3 416.946 1545.5 416.085C1544.7 415.216 1543.6 414.781 1542.2 414.781C1541.24 414.781 1540.38 414.99 1539.62 415.407C1538.87 415.825 1538.28 416.434 1537.84 417.236C1537.41 418.037 1537.19 419.008 1537.19 420.15ZM1562.64 432.372C1561.01 432.372 1559.56 431.959 1558.31 431.132C1557.06 430.297 1556.08 429.121 1555.37 427.604C1554.66 426.078 1554.31 424.275 1554.31 422.196C1554.31 420.133 1554.66 418.344 1555.37 416.827C1556.08 415.309 1557.06 414.138 1558.32 413.311C1559.59 412.484 1561.04 412.071 1562.7 412.071C1563.97 412.071 1564.98 412.284 1565.73 412.71C1566.48 413.128 1567.05 413.605 1567.44 414.142C1567.84 414.67 1568.15 415.105 1568.37 415.446H1568.63V405.781H1571.64V431.963H1568.73V428.946H1568.37C1568.15 429.304 1567.84 429.756 1567.43 430.301C1567.02 430.838 1566.43 431.319 1565.67 431.746C1564.92 432.163 1563.91 432.372 1562.64 432.372ZM1563.05 429.662C1564.26 429.662 1565.29 429.346 1566.12 428.716C1566.96 428.077 1567.59 427.194 1568.03 426.069C1568.46 424.936 1568.68 423.628 1568.68 422.145C1568.68 420.679 1568.47 419.396 1568.04 418.297C1567.61 417.189 1566.98 416.328 1566.15 415.714C1565.31 415.092 1564.28 414.781 1563.05 414.781C1561.78 414.781 1560.71 415.109 1559.86 415.765C1559.01 416.413 1558.38 417.295 1557.95 418.412C1557.54 419.52 1557.33 420.764 1557.33 422.145C1557.33 423.542 1557.54 424.812 1557.97 425.954C1558.4 427.088 1559.04 427.991 1559.88 428.665C1560.74 429.329 1561.79 429.662 1563.05 429.662Z" fill="#D423CE"/>
<path id="Arrow 56" d="M925.954 541.928C927.032 543.184 928.926 543.326 930.184 542.246L950.692 524.64C951.95 523.56 952.096 521.666 951.019 520.41C949.941 519.154 948.047 519.011 946.788 520.092L928.559 535.741L912.946 517.547C911.869 516.291 909.975 516.148 908.716 517.229C907.458 518.309 907.311 520.203 908.389 521.459L925.954 541.928ZM940.354 383.154L937.362 382.929L925.241 539.747L928.232 539.972L931.224 540.197L943.345 383.379L940.354 383.154Z" fill="#D423CE"/>
</g>
<g id="Group_57">
<path id="Arrow 61" d="M997.631 720.344C996.872 721.815 995.062 722.389 993.589 721.626L969.593 709.198C968.12 708.436 967.542 706.625 968.302 705.154C969.061 703.684 970.871 703.11 972.343 703.872L993.674 714.919L1004.68 693.614C1005.44 692.143 1007.25 691.569 1008.72 692.331C1010.19 693.094 1010.77 694.905 1010.01 696.375L997.631 720.344ZM945.965 565.463L948.823 564.556L997.823 718.056L994.965 718.963L992.107 719.87L943.107 566.37L945.965 565.463Z" fill="black"/>
</g>
<g id="Group_61" opacity="0.1">
<path id="Arrow 56_2" d="M850.229 715.783C850.988 717.231 852.829 717.813 854.341 717.084L878.98 705.196C880.492 704.467 881.103 702.702 880.344 701.254C879.585 699.806 877.744 699.223 876.232 699.953L854.331 710.519L843.341 689.546C842.582 688.098 840.741 687.516 839.229 688.245C837.717 688.974 837.107 690.74 837.865 692.187L850.229 715.783ZM903.996 566.962L901.088 566.043L850.06 713.542L852.967 714.462L855.874 715.382L906.903 567.882L903.996 566.962Z" fill="black"/>
<path id="Arrow 57_2" d="M921.466 727.587C922.638 728.756 924.538 728.752 925.709 727.578L944.802 708.447C945.974 707.273 945.974 705.373 944.802 704.204C943.631 703.035 941.731 703.039 940.559 704.213L923.588 721.219L906.616 704.285C905.445 703.115 903.545 703.119 902.374 704.293C901.202 705.467 901.202 707.367 902.374 708.536L921.466 727.587ZM923.588 567.152L920.587 567.158L920.588 725.467L923.588 725.461L926.588 725.455L926.588 567.145L923.588 567.152Z" fill="black"/>
<path id="Arrow 58" d="M1102.47 714.681C1101.2 715.742 1099.26 715.609 1098.15 714.383L1080.08 694.408C1078.97 693.183 1079.1 691.329 1080.38 690.267C1081.66 689.206 1083.59 689.34 1084.7 690.565L1100.77 708.321L1119.27 692.949C1120.55 691.888 1122.48 692.021 1123.59 693.247C1124.7 694.472 1124.56 696.326 1123.29 697.388L1102.47 714.681ZM1112.47 548.96L1115.52 549.171L1103.52 712.672L1100.47 712.461L1097.41 712.251L1109.41 548.75L1112.47 548.96Z" fill="black"/>
<path id="Arrow 60" d="M1178.63 709.418C1177.79 710.825 1175.92 711.314 1174.45 710.51L1150.49 697.4C1149.02 696.596 1148.51 694.802 1149.35 693.395C1150.19 691.987 1152.06 691.498 1153.53 692.303L1174.82 703.956L1186.95 683.566C1187.78 682.158 1189.65 681.669 1191.12 682.474C1192.59 683.278 1193.11 685.072 1192.27 686.479L1178.63 709.418ZM1130.47 548.962L1133.42 548.189L1178.92 707.189L1175.97 707.961L1173.01 708.733L1127.51 549.734L1130.47 548.962Z" fill="black"/>
</g>
<g id="Group_58">
<path id="Arrow 56_3" d="M850.227 715.785C850.986 717.233 852.827 717.815 854.339 717.085L878.978 705.198C880.49 704.469 881.101 702.704 880.342 701.256C879.583 699.808 877.742 699.225 876.23 699.955L854.329 710.521L843.339 689.548C842.58 688.1 840.739 687.517 839.227 688.247C837.715 688.976 837.105 690.742 837.863 692.189L850.227 715.785ZM903.994 566.964L901.086 566.045L850.058 713.544L852.965 714.464L855.872 715.384L906.901 567.884L903.994 566.964Z" fill="#D423CE"/>
<path id="Arrow 57_3" d="M921.465 727.589C922.636 728.758 924.536 728.754 925.707 727.58L944.8 708.449C945.972 707.275 945.972 705.375 944.8 704.206C943.629 703.037 941.729 703.041 940.557 704.215L923.586 721.22L906.614 704.286C905.443 703.117 903.543 703.121 902.372 704.295C901.2 705.469 901.2 707.369 902.372 708.538L921.465 727.589ZM923.586 567.154L920.585 567.16L920.586 725.469L923.586 725.463L926.586 725.457L926.586 567.147L923.586 567.154Z" fill="#D423CE"/>
<path id="Arrow 58_2" d="M1102.47 714.683C1101.2 715.744 1099.26 715.611 1098.15 714.385L1080.07 694.41C1078.97 693.185 1079.1 691.331 1080.38 690.269C1081.66 689.208 1083.59 689.342 1084.7 690.567L1100.77 708.322L1119.27 692.951C1120.55 691.889 1122.48 692.023 1123.59 693.249C1124.7 694.474 1124.56 696.328 1123.29 697.389L1102.47 714.683ZM1112.46 548.962L1115.52 549.173L1103.52 712.674L1100.46 712.463L1097.41 712.253L1109.41 548.751L1112.46 548.962Z" fill="#D423CE"/>
<path id="Arrow 60_2" d="M1178.63 709.42C1177.79 710.827 1175.92 711.316 1174.45 710.512L1150.49 697.402C1149.02 696.598 1148.51 694.804 1149.35 693.397C1150.18 691.989 1152.05 691.5 1153.52 692.305L1174.82 703.958L1186.94 683.568C1187.78 682.16 1189.65 681.671 1191.12 682.476C1192.59 683.28 1193.1 685.074 1192.27 686.481L1178.63 709.42ZM1130.46 548.964L1133.42 548.191L1178.92 707.191L1175.96 707.963L1173.01 708.735L1127.51 549.736L1130.46 548.964Z" fill="#D423CE"/>
</g>
<g id="Group_59">
<path id="Polygon 11" d="M922.965 728.963L995.278 919.463H850.652L922.965 728.963Z" fill="#9F23D4" fill-opacity="0.41"/>
<path id="Polygon 12" d="M852.104 716.963L839.604 918.713H671.465L852.104 716.963Z" fill="#9F23D4" fill-opacity="0.41"/>
<path id="Polygon 13" d="M1099.46 714.963L1168.75 919.713H1030.18L1099.46 714.963Z" fill="#9F23D4" fill-opacity="0.41"/>
<path id="Polygon 14" d="M1176.46 711.613L1343.46 919.463H1172.46L1176.46 711.613Z" fill="#9F23D4" fill-opacity="0.41"/>
</g>
</g>
<defs>
<clipPath id="clip0_2026_160">
<rect width="76" height="65" fill="white" transform="translate(923.465 296.963)"/>
</clipPath>
</defs>
</svg>
