<svg width="1920" height="1080" viewBox="0 0 1920 1080" fill="none" xmlns="http://www.w3.org/2000/svg">
<g id="experiments">
<rect width="1920" height="1080" fill="white"/>
<path id="Experiments" d="M726.26 116.448V69.9028H757.624V78.0164H736.101V89.1073H756.01V97.221H736.101V108.335H757.715V116.448H726.26ZM773.357 81.5392L779.766 93.7437L786.334 81.5392H796.266L786.152 98.9937L796.539 116.448H786.652L779.766 104.38L772.993 116.448H762.993L773.357 98.9937L763.357 81.5392H773.357ZM802.016 129.539V81.5392H811.561V87.4028H811.993C812.417 86.4634 813.031 85.5088 813.834 84.5392C814.652 83.5543 815.713 82.7361 817.016 82.0846C818.334 81.4179 819.971 81.0846 821.925 81.0846C824.471 81.0846 826.819 81.7513 828.971 83.0846C831.122 84.4028 832.842 86.3952 834.13 89.0619C835.417 91.7134 836.061 95.0392 836.061 99.0392C836.061 102.933 835.433 106.221 834.175 108.903C832.933 111.569 831.236 113.592 829.084 114.971C826.948 116.335 824.554 117.016 821.902 117.016C820.024 117.016 818.425 116.706 817.107 116.085C815.804 115.463 814.736 114.683 813.902 113.744C813.069 112.789 812.433 111.827 811.993 110.857H811.698V129.539H802.016ZM811.493 98.9937C811.493 101.069 811.781 102.88 812.357 104.426C812.933 105.971 813.766 107.176 814.857 108.039C815.948 108.888 817.274 109.312 818.834 109.312C820.41 109.312 821.743 108.88 822.834 108.016C823.925 107.138 824.751 105.926 825.311 104.38C825.887 102.819 826.175 101.024 826.175 98.9937C826.175 96.9785 825.895 95.2058 825.334 93.6755C824.774 92.1452 823.948 90.9482 822.857 90.0846C821.766 89.221 820.425 88.7892 818.834 88.7892C817.258 88.7892 815.925 89.2058 814.834 90.0392C813.758 90.8725 812.933 92.0543 812.357 93.5846C811.781 95.1149 811.493 96.9179 811.493 98.9937ZM858.425 117.13C854.834 117.13 851.743 116.403 849.152 114.948C846.577 113.479 844.592 111.403 843.198 108.721C841.804 106.024 841.107 102.835 841.107 99.1528C841.107 95.5619 841.804 92.4104 843.198 89.6982C844.592 86.9861 846.554 84.8725 849.084 83.3573C851.63 81.8422 854.614 81.0846 858.039 81.0846C860.342 81.0846 862.486 81.4558 864.471 82.1982C866.471 82.9255 868.213 84.024 869.698 85.4937C871.198 86.9634 872.364 88.8119 873.198 91.0392C874.031 93.2513 874.448 95.8422 874.448 98.8119V101.471H844.971V95.471H865.334C865.334 94.077 865.031 92.8422 864.425 91.7664C863.819 90.6907 862.978 89.8498 861.902 89.2437C860.842 88.6225 859.607 88.3119 858.198 88.3119C856.728 88.3119 855.425 88.6528 854.289 89.3346C853.167 90.0013 852.289 90.9028 851.652 92.0392C851.016 93.1604 850.69 94.4104 850.675 95.7892V101.494C850.675 103.221 850.993 104.713 851.63 105.971C852.281 107.229 853.198 108.198 854.38 108.88C855.561 109.562 856.963 109.903 858.584 109.903C859.66 109.903 860.645 109.751 861.539 109.448C862.433 109.145 863.198 108.691 863.834 108.085C864.471 107.479 864.955 106.736 865.289 105.857L874.243 106.448C873.789 108.6 872.857 110.479 871.448 112.085C870.054 113.676 868.251 114.918 866.039 115.812C863.842 116.691 861.304 117.13 858.425 117.13ZM880.766 116.448V81.5392H890.152V87.6301H890.516C891.152 85.4634 892.221 83.827 893.721 82.721C895.221 81.5998 896.948 81.0392 898.902 81.0392C899.387 81.0392 899.91 81.0695 900.471 81.1301C901.031 81.1907 901.524 81.274 901.948 81.3801V89.971C901.493 89.8346 900.864 89.7134 900.061 89.6073C899.258 89.5013 898.524 89.4482 897.857 89.4482C896.433 89.4482 895.16 89.7588 894.039 90.3801C892.933 90.9861 892.054 91.8346 891.402 92.9255C890.766 94.0164 890.448 95.274 890.448 96.6982V116.448H880.766ZM906.953 116.448V81.5392H916.635V116.448H906.953ZM911.817 77.0392C910.378 77.0392 909.143 76.5619 908.113 75.6073C907.097 74.6376 906.59 73.4785 906.59 72.1301C906.59 70.7967 907.097 69.6528 908.113 68.6982C909.143 67.7285 910.378 67.2437 911.817 67.2437C913.257 67.2437 914.484 67.7285 915.499 68.6982C916.529 69.6528 917.044 70.7967 917.044 72.1301C917.044 73.4785 916.529 74.6376 915.499 75.6073C914.484 76.5619 913.257 77.0392 911.817 77.0392ZM924.391 116.448V81.5392H933.618V87.6982H934.027C934.755 85.6528 935.967 84.0392 937.664 82.8573C939.361 81.6755 941.391 81.0846 943.755 81.0846C946.149 81.0846 948.186 81.6831 949.868 82.8801C951.55 84.0619 952.671 85.6679 953.232 87.6982H953.596C954.308 85.6982 955.596 84.0998 957.459 82.9028C959.338 81.6907 961.558 81.0846 964.118 81.0846C967.376 81.0846 970.02 82.1225 972.05 84.1982C974.096 86.2588 975.118 89.1831 975.118 92.971V116.448H965.459V94.8801C965.459 92.9407 964.944 91.4861 963.914 90.5164C962.883 89.5467 961.596 89.0619 960.05 89.0619C958.292 89.0619 956.921 89.6225 955.936 90.7437C954.952 91.8498 954.459 93.3119 954.459 95.1301V116.448H945.073V94.6755C945.073 92.9634 944.58 91.5998 943.596 90.5846C942.626 89.5695 941.346 89.0619 939.755 89.0619C938.679 89.0619 937.709 89.3346 936.846 89.8801C935.997 90.4104 935.323 91.1604 934.823 92.1301C934.323 93.0846 934.073 94.2058 934.073 95.4937V116.448H924.391ZM998.675 117.13C995.084 117.13 991.993 116.403 989.402 114.948C986.827 113.479 984.842 111.403 983.448 108.721C982.054 106.024 981.357 102.835 981.357 99.1528C981.357 95.5619 982.054 92.4104 983.448 89.6982C984.842 86.9861 986.804 84.8725 989.334 83.3573C991.88 81.8422 994.864 81.0846 998.289 81.0846C1000.59 81.0846 1002.74 81.4558 1004.72 82.1982C1006.72 82.9255 1008.46 84.024 1009.95 85.4937C1011.45 86.9634 1012.61 88.8119 1013.45 91.0392C1014.28 93.2513 1014.7 95.8422 1014.7 98.8119V101.471H985.221V95.471H1005.58C1005.58 94.077 1005.28 92.8422 1004.68 91.7664C1004.07 90.6907 1003.23 89.8498 1002.15 89.2437C1001.09 88.6225 999.857 88.3119 998.448 88.3119C996.978 88.3119 995.675 88.6528 994.539 89.3346C993.417 90.0013 992.539 90.9028 991.902 92.0392C991.266 93.1604 990.94 94.4104 990.925 95.7892V101.494C990.925 103.221 991.243 104.713 991.88 105.971C992.531 107.229 993.448 108.198 994.63 108.88C995.811 109.562 997.213 109.903 998.834 109.903C999.91 109.903 1000.89 109.751 1001.79 109.448C1002.68 109.145 1003.45 108.691 1004.08 108.085C1004.72 107.479 1005.21 106.736 1005.54 105.857L1014.49 106.448C1014.04 108.6 1013.11 110.479 1011.7 112.085C1010.3 113.676 1008.5 114.918 1006.29 115.812C1004.09 116.691 1001.55 117.13 998.675 117.13ZM1030.7 96.2664V116.448H1021.02V81.5392H1030.24V87.6982H1030.65C1031.43 85.6679 1032.72 84.0619 1034.54 82.8801C1036.36 81.6831 1038.56 81.0846 1041.15 81.0846C1043.58 81.0846 1045.69 81.6149 1047.49 82.6755C1049.3 83.7361 1050.7 85.2513 1051.7 87.221C1052.7 89.1755 1053.2 91.5088 1053.2 94.221V116.448H1043.52V95.9482C1043.53 93.8119 1042.99 92.1452 1041.88 90.9482C1040.77 89.7361 1039.25 89.1301 1037.31 89.1301C1036.01 89.1301 1034.86 89.4104 1033.86 89.971C1032.87 90.5316 1032.1 91.3498 1031.54 92.4255C1030.99 93.4861 1030.71 94.7664 1030.7 96.2664ZM1079.4 81.5392V88.8119H1058.37V81.5392H1079.4ZM1063.15 73.1755H1072.83V105.721C1072.83 106.615 1072.96 107.312 1073.24 107.812C1073.51 108.297 1073.89 108.638 1074.37 108.835C1074.87 109.032 1075.45 109.13 1076.1 109.13C1076.56 109.13 1077.01 109.092 1077.46 109.016C1077.92 108.926 1078.27 108.857 1078.51 108.812L1080.03 116.016C1079.55 116.168 1078.87 116.342 1077.99 116.539C1077.11 116.751 1076.04 116.88 1074.78 116.926C1072.45 117.016 1070.4 116.706 1068.65 115.994C1066.9 115.282 1065.55 114.176 1064.58 112.676C1063.61 111.176 1063.13 109.282 1063.15 106.994V73.1755ZM1114.31 91.4937L1105.45 92.0392C1105.3 91.2816 1104.97 90.5998 1104.47 89.9937C1103.97 89.3725 1103.31 88.8801 1102.49 88.5164C1101.69 88.1376 1100.73 87.9482 1099.61 87.9482C1098.11 87.9482 1096.84 88.2664 1095.81 88.9028C1094.78 89.524 1094.27 90.3573 1094.27 91.4028C1094.27 92.2361 1094.6 92.9407 1095.27 93.5164C1095.93 94.0922 1097.08 94.5543 1098.7 94.9028L1105.02 96.1755C1108.41 96.8725 1110.94 97.9937 1112.61 99.5392C1114.27 101.085 1115.11 103.115 1115.11 105.63C1115.11 107.918 1114.43 109.926 1113.08 111.653C1111.75 113.38 1109.92 114.729 1107.58 115.698C1105.27 116.653 1102.59 117.13 1099.56 117.13C1094.94 117.13 1091.26 116.168 1088.52 114.244C1085.79 112.304 1084.19 109.668 1083.72 106.335L1093.24 105.835C1093.53 107.244 1094.23 108.319 1095.33 109.062C1096.44 109.789 1097.86 110.153 1099.58 110.153C1101.28 110.153 1102.64 109.827 1103.68 109.176C1104.72 108.509 1105.25 107.653 1105.27 106.607C1105.25 105.729 1104.88 105.009 1104.15 104.448C1103.43 103.872 1102.3 103.433 1100.79 103.13L1094.74 101.926C1091.33 101.244 1088.8 100.062 1087.13 98.3801C1085.48 96.6982 1084.65 94.5543 1084.65 91.9482C1084.65 89.7058 1085.26 87.774 1086.47 86.1528C1087.7 84.5316 1089.42 83.2816 1091.63 82.4028C1093.86 81.524 1096.46 81.0846 1099.45 81.0846C1103.86 81.0846 1107.33 82.0164 1109.86 83.8801C1112.4 85.7437 1113.89 88.2816 1114.31 91.4937Z" fill="black"/>
</g>
</svg>
