<svg width="1920" height="1080" viewBox="0 0 1920 1080" fill="none" xmlns="http://www.w3.org/2000/svg">
<g id="full reachability">
<rect width="1920" height="1080" fill="white"/>
<path id="State-space exploration" d="M570.059 82.8951C569.877 81.0618 569.097 79.6375 567.718 78.6224C566.339 77.6072 564.468 77.0997 562.105 77.0997C560.499 77.0997 559.142 77.3269 558.036 77.7815C556.93 78.2209 556.082 78.8345 555.491 79.6224C554.915 80.4103 554.627 81.3042 554.627 82.3042C554.597 83.1375 554.771 83.8648 555.15 84.486C555.544 85.1072 556.082 85.6451 556.764 86.0997C557.445 86.539 558.233 86.9254 559.127 87.2587C560.021 87.5769 560.976 87.8497 561.991 88.0769L566.173 89.0769C568.203 89.5315 570.067 90.1375 571.764 90.8951C573.461 91.6527 574.93 92.5845 576.173 93.6906C577.415 94.7966 578.377 96.0997 579.059 97.5997C579.756 99.0997 580.112 100.819 580.127 102.759C580.112 105.607 579.385 108.077 577.945 110.168C576.521 112.244 574.461 113.857 571.764 115.009C569.082 116.145 565.847 116.713 562.059 116.713C558.302 116.713 555.029 116.138 552.241 114.986C549.468 113.835 547.302 112.13 545.741 109.872C544.195 107.6 543.385 104.789 543.309 101.441H552.832C552.938 103.001 553.385 104.304 554.173 105.35C554.976 106.38 556.044 107.16 557.377 107.691C558.726 108.206 560.249 108.463 561.945 108.463C563.612 108.463 565.059 108.221 566.286 107.736C567.529 107.251 568.491 106.577 569.173 105.713C569.855 104.85 570.195 103.857 570.195 102.736C570.195 101.691 569.885 100.812 569.264 100.1C568.658 99.3875 567.764 98.7815 566.582 98.2815C565.415 97.7815 563.983 97.3269 562.286 96.9178L557.218 95.6451C553.294 94.6906 550.195 93.1981 547.923 91.1678C545.65 89.1375 544.521 86.4027 544.536 82.9633C544.521 80.1451 545.271 77.683 546.786 75.5769C548.317 73.4709 550.415 71.8269 553.082 70.6451C555.749 69.4633 558.779 68.8724 562.173 68.8724C565.627 68.8724 568.642 69.4633 571.218 70.6451C573.809 71.8269 575.824 73.4709 577.264 75.5769C578.703 77.683 579.445 80.1224 579.491 82.8951H570.059ZM605.133 81.1451V88.4178H584.11V81.1451H605.133ZM588.883 72.7815H598.565V105.327C598.565 106.221 598.701 106.918 598.974 107.418C599.247 107.903 599.625 108.244 600.11 108.441C600.61 108.638 601.186 108.736 601.838 108.736C602.292 108.736 602.747 108.698 603.201 108.622C603.656 108.531 604.004 108.463 604.247 108.418L605.769 115.622C605.285 115.774 604.603 115.948 603.724 116.145C602.845 116.357 601.777 116.486 600.519 116.531C598.186 116.622 596.141 116.312 594.383 115.6C592.641 114.888 591.285 113.781 590.315 112.281C589.345 110.781 588.868 108.888 588.883 106.6V72.7815ZM621.394 116.713C619.167 116.713 617.182 116.327 615.44 115.554C613.697 114.766 612.319 113.607 611.303 112.077C610.303 110.531 609.803 108.607 609.803 106.304C609.803 104.365 610.16 102.736 610.872 101.418C611.584 100.1 612.553 99.039 613.781 98.236C615.008 97.433 616.402 96.8269 617.963 96.4178C619.538 96.0087 621.19 95.7209 622.917 95.5542C624.947 95.3421 626.584 95.1451 627.826 94.9633C629.069 94.7663 629.97 94.4784 630.531 94.0997C631.091 93.7209 631.372 93.1603 631.372 92.4178V92.2815C631.372 90.8421 630.917 89.7284 630.008 88.9406C629.114 88.1527 627.841 87.7587 626.19 87.7587C624.447 87.7587 623.061 88.1451 622.031 88.9178C621 89.6754 620.319 90.63 619.985 91.7815L611.031 91.0542C611.485 88.933 612.379 87.0997 613.713 85.5542C615.046 83.9936 616.766 82.7966 618.872 81.9633C620.993 81.1148 623.447 80.6906 626.235 80.6906C628.175 80.6906 630.031 80.9178 631.803 81.3724C633.591 81.8269 635.175 82.5315 636.553 83.486C637.947 84.4406 639.046 85.6678 639.849 87.1678C640.652 88.6527 641.053 90.433 641.053 92.5087V116.054H631.872V111.213H631.599C631.038 112.304 630.288 113.266 629.349 114.1C628.41 114.918 627.281 115.562 625.963 116.031C624.644 116.486 623.122 116.713 621.394 116.713ZM624.167 110.031C625.591 110.031 626.849 109.751 627.94 109.191C629.031 108.615 629.887 107.842 630.508 106.872C631.129 105.903 631.44 104.804 631.44 103.577V99.8724C631.137 100.069 630.72 100.251 630.19 100.418C629.675 100.569 629.091 100.713 628.44 100.85C627.788 100.971 627.137 101.085 626.485 101.191C625.834 101.281 625.243 101.365 624.713 101.441C623.576 101.607 622.584 101.872 621.735 102.236C620.887 102.6 620.228 103.092 619.758 103.713C619.288 104.319 619.053 105.077 619.053 105.986C619.053 107.304 619.531 108.312 620.485 109.009C621.455 109.691 622.682 110.031 624.167 110.031ZM667.133 81.1451V88.4178H646.11V81.1451H667.133ZM650.883 72.7815H660.565V105.327C660.565 106.221 660.701 106.918 660.974 107.418C661.247 107.903 661.625 108.244 662.11 108.441C662.61 108.638 663.186 108.736 663.838 108.736C664.292 108.736 664.747 108.698 665.201 108.622C665.656 108.531 666.004 108.463 666.247 108.418L667.769 115.622C667.285 115.774 666.603 115.948 665.724 116.145C664.845 116.357 663.777 116.486 662.519 116.531C660.186 116.622 658.141 116.312 656.383 115.6C654.641 114.888 653.285 113.781 652.315 112.281C651.345 110.781 650.868 108.888 650.883 106.6V72.7815ZM688.974 116.736C685.383 116.736 682.292 116.009 679.701 114.554C677.125 113.085 675.141 111.009 673.747 108.327C672.353 105.63 671.656 102.441 671.656 98.7587C671.656 95.1678 672.353 92.0163 673.747 89.3042C675.141 86.5921 677.103 84.4784 679.633 82.9633C682.178 81.4481 685.163 80.6906 688.588 80.6906C690.891 80.6906 693.035 81.0618 695.019 81.8042C697.019 82.5315 698.762 83.63 700.247 85.0997C701.747 86.5694 702.913 88.4178 703.747 90.6451C704.58 92.8572 704.997 95.4481 704.997 98.4178V101.077H675.519V95.0769H695.883C695.883 93.683 695.58 92.4481 694.974 91.3724C694.368 90.2966 693.527 89.4557 692.451 88.8497C691.391 88.2284 690.156 87.9178 688.747 87.9178C687.277 87.9178 685.974 88.2587 684.838 88.9406C683.716 89.6072 682.838 90.5087 682.201 91.6451C681.565 92.7663 681.239 94.0163 681.224 95.3951V101.1C681.224 102.827 681.542 104.319 682.178 105.577C682.83 106.835 683.747 107.804 684.928 108.486C686.11 109.168 687.512 109.509 689.133 109.509C690.209 109.509 691.194 109.357 692.088 109.054C692.981 108.751 693.747 108.297 694.383 107.691C695.019 107.085 695.504 106.342 695.838 105.463L704.792 106.054C704.338 108.206 703.406 110.085 701.997 111.691C700.603 113.281 698.8 114.524 696.588 115.418C694.391 116.297 691.853 116.736 688.974 116.736ZM733.065 93.0997V100.781H711.838V93.0997H733.065ZM770.36 91.0997L761.497 91.6451C761.345 90.8875 761.019 90.2057 760.519 89.5997C760.019 88.9784 759.36 88.486 758.542 88.1224C757.739 87.7436 756.777 87.5542 755.656 87.5542C754.156 87.5542 752.891 87.8724 751.86 88.5087C750.83 89.13 750.315 89.9633 750.315 91.0087C750.315 91.8421 750.648 92.5466 751.315 93.1224C751.981 93.6981 753.125 94.1603 754.747 94.5087L761.065 95.7815C764.459 96.4784 766.989 97.5997 768.656 99.1451C770.322 100.691 771.156 102.721 771.156 105.236C771.156 107.524 770.481 109.531 769.133 111.259C767.8 112.986 765.966 114.335 763.633 115.304C761.315 116.259 758.641 116.736 755.61 116.736C750.989 116.736 747.307 115.774 744.565 113.85C741.838 111.91 740.239 109.274 739.769 105.941L749.292 105.441C749.58 106.85 750.277 107.925 751.383 108.668C752.489 109.395 753.906 109.759 755.633 109.759C757.33 109.759 758.694 109.433 759.724 108.781C760.769 108.115 761.3 107.259 761.315 106.213C761.3 105.335 760.928 104.615 760.201 104.054C759.474 103.478 758.353 103.039 756.838 102.736L750.792 101.531C747.383 100.85 744.845 99.6678 743.178 97.986C741.527 96.3042 740.701 94.1603 740.701 91.5542C740.701 89.3118 741.307 87.38 742.519 85.7587C743.747 84.1375 745.466 82.8875 747.678 82.0087C749.906 81.13 752.512 80.6906 755.497 80.6906C759.906 80.6906 763.375 81.6224 765.906 83.486C768.451 85.3497 769.936 87.8875 770.36 91.0997ZM777.252 129.145V81.1451H786.798V87.0087H787.23C787.654 86.0693 788.267 85.1148 789.07 84.1451C789.889 83.1603 790.949 82.3421 792.252 81.6906C793.57 81.0239 795.207 80.6906 797.161 80.6906C799.707 80.6906 802.055 81.3572 804.207 82.6906C806.358 84.0087 808.078 86.0012 809.366 88.6678C810.654 91.3193 811.298 94.6451 811.298 98.6451C811.298 102.539 810.669 105.827 809.411 108.509C808.169 111.175 806.472 113.198 804.32 114.577C802.184 115.941 799.79 116.622 797.139 116.622C795.26 116.622 793.661 116.312 792.343 115.691C791.04 115.069 789.972 114.289 789.139 113.35C788.305 112.395 787.669 111.433 787.23 110.463H786.934V129.145H777.252ZM786.73 98.5997C786.73 100.675 787.017 102.486 787.593 104.031C788.169 105.577 789.002 106.781 790.093 107.645C791.184 108.494 792.51 108.918 794.07 108.918C795.646 108.918 796.98 108.486 798.07 107.622C799.161 106.744 799.987 105.531 800.548 103.986C801.124 102.425 801.411 100.63 801.411 98.5997C801.411 96.5845 801.131 94.8118 800.57 93.2815C800.01 91.7512 799.184 90.5542 798.093 89.6906C797.002 88.8269 795.661 88.3951 794.07 88.3951C792.495 88.3951 791.161 88.8118 790.07 89.6451C788.995 90.4784 788.169 91.6603 787.593 93.1906C787.017 94.7209 786.73 96.5239 786.73 98.5997ZM827.707 116.713C825.48 116.713 823.495 116.327 821.752 115.554C820.01 114.766 818.631 113.607 817.616 112.077C816.616 110.531 816.116 108.607 816.116 106.304C816.116 104.365 816.472 102.736 817.184 101.418C817.896 100.1 818.866 99.039 820.093 98.236C821.32 97.433 822.714 96.8269 824.275 96.4178C825.851 96.0087 827.502 95.7209 829.23 95.5542C831.26 95.3421 832.896 95.1451 834.139 94.9633C835.381 94.7663 836.283 94.4784 836.843 94.0997C837.404 93.7209 837.684 93.1603 837.684 92.4178V92.2815C837.684 90.8421 837.23 89.7284 836.32 88.9406C835.427 88.1527 834.154 87.7587 832.502 87.7587C830.76 87.7587 829.374 88.1451 828.343 88.9178C827.313 89.6754 826.631 90.63 826.298 91.7815L817.343 91.0542C817.798 88.933 818.692 87.0997 820.025 85.5542C821.358 83.9936 823.078 82.7966 825.184 81.9633C827.305 81.1148 829.76 80.6906 832.548 80.6906C834.487 80.6906 836.343 80.9178 838.116 81.3724C839.904 81.8269 841.487 82.5315 842.866 83.486C844.26 84.4406 845.358 85.6678 846.161 87.1678C846.964 88.6527 847.366 90.433 847.366 92.5087V116.054H838.184V111.213H837.911C837.351 112.304 836.601 113.266 835.661 114.1C834.722 114.918 833.593 115.562 832.275 116.031C830.957 116.486 829.434 116.713 827.707 116.713ZM830.48 110.031C831.904 110.031 833.161 109.751 834.252 109.191C835.343 108.615 836.199 107.842 836.82 106.872C837.442 105.903 837.752 104.804 837.752 103.577V99.8724C837.449 100.069 837.033 100.251 836.502 100.418C835.987 100.569 835.404 100.713 834.752 100.85C834.101 100.971 833.449 101.085 832.798 101.191C832.146 101.281 831.555 101.365 831.025 101.441C829.889 101.607 828.896 101.872 828.048 102.236C827.199 102.6 826.54 103.092 826.07 103.713C825.601 104.319 825.366 105.077 825.366 105.986C825.366 107.304 825.843 108.312 826.798 109.009C827.767 109.691 828.995 110.031 830.48 110.031ZM870.65 116.736C867.074 116.736 863.999 115.978 861.423 114.463C858.862 112.933 856.892 110.812 855.514 108.1C854.15 105.388 853.468 102.266 853.468 98.736C853.468 95.1603 854.158 92.0239 855.536 89.3269C856.93 86.6148 858.908 84.5012 861.468 82.986C864.029 81.4557 867.074 80.6906 870.605 80.6906C873.65 80.6906 876.317 81.2436 878.605 82.3497C880.892 83.4557 882.703 85.0087 884.036 87.0087C885.37 89.0087 886.105 91.3572 886.241 94.0542H877.105C876.847 92.3118 876.165 90.9103 875.059 89.8497C873.968 88.7739 872.536 88.236 870.764 88.236C869.264 88.236 867.953 88.6451 866.832 89.4633C865.726 90.2663 864.862 91.4406 864.241 92.986C863.62 94.5315 863.309 96.4027 863.309 98.5997C863.309 100.827 863.612 102.721 864.218 104.281C864.839 105.842 865.711 107.031 866.832 107.85C867.953 108.668 869.264 109.077 870.764 109.077C871.87 109.077 872.862 108.85 873.741 108.395C874.635 107.941 875.37 107.281 875.945 106.418C876.536 105.539 876.923 104.486 877.105 103.259H886.241C886.089 105.925 885.362 108.274 884.059 110.304C882.771 112.319 880.991 113.895 878.718 115.031C876.445 116.168 873.756 116.736 870.65 116.736ZM908.349 116.736C904.758 116.736 901.667 116.009 899.076 114.554C896.5 113.085 894.516 111.009 893.122 108.327C891.728 105.63 891.031 102.441 891.031 98.7587C891.031 95.1678 891.728 92.0163 893.122 89.3042C894.516 86.5921 896.478 84.4784 899.008 82.9633C901.553 81.4481 904.538 80.6906 907.963 80.6906C910.266 80.6906 912.41 81.0618 914.394 81.8042C916.394 82.5315 918.137 83.63 919.622 85.0997C921.122 86.5694 922.288 88.4178 923.122 90.6451C923.955 92.8572 924.372 95.4481 924.372 98.4178V101.077H894.894V95.0769H915.258C915.258 93.683 914.955 92.4481 914.349 91.3724C913.743 90.2966 912.902 89.4557 911.826 88.8497C910.766 88.2284 909.531 87.9178 908.122 87.9178C906.652 87.9178 905.349 88.2587 904.213 88.9406C903.091 89.6072 902.213 90.5087 901.576 91.6451C900.94 92.7663 900.614 94.0163 900.599 95.3951V101.1C900.599 102.827 900.917 104.319 901.553 105.577C902.205 106.835 903.122 107.804 904.303 108.486C905.485 109.168 906.887 109.509 908.508 109.509C909.584 109.509 910.569 109.357 911.463 109.054C912.356 108.751 913.122 108.297 913.758 107.691C914.394 107.085 914.879 106.342 915.213 105.463L924.167 106.054C923.713 108.206 922.781 110.085 921.372 111.691C919.978 113.281 918.175 114.524 915.963 115.418C913.766 116.297 911.228 116.736 908.349 116.736ZM961.411 116.736C957.82 116.736 954.73 116.009 952.139 114.554C949.563 113.085 947.578 111.009 946.184 108.327C944.79 105.63 944.093 102.441 944.093 98.7587C944.093 95.1678 944.79 92.0163 946.184 89.3042C947.578 86.5921 949.54 84.4784 952.07 82.9633C954.616 81.4481 957.601 80.6906 961.025 80.6906C963.328 80.6906 965.472 81.0618 967.457 81.8042C969.457 82.5315 971.199 83.63 972.684 85.0997C974.184 86.5694 975.351 88.4178 976.184 90.6451C977.017 92.8572 977.434 95.4481 977.434 98.4178V101.077H947.957V95.0769H968.32C968.32 93.683 968.017 92.4481 967.411 91.3724C966.805 90.2966 965.964 89.4557 964.889 88.8497C963.828 88.2284 962.593 87.9178 961.184 87.9178C959.714 87.9178 958.411 88.2587 957.275 88.9406C956.154 89.6072 955.275 90.5087 954.639 91.6451C954.002 92.7663 953.677 94.0163 953.661 95.3951V101.1C953.661 102.827 953.98 104.319 954.616 105.577C955.267 106.835 956.184 107.804 957.366 108.486C958.548 109.168 959.949 109.509 961.57 109.509C962.646 109.509 963.631 109.357 964.525 109.054C965.419 108.751 966.184 108.297 966.82 107.691C967.457 107.085 967.942 106.342 968.275 105.463L977.23 106.054C976.775 108.206 975.843 110.085 974.434 111.691C973.04 113.281 971.237 114.524 969.025 115.418C966.828 116.297 964.29 116.736 961.411 116.736ZM991.218 81.1451L997.627 93.3497L1004.2 81.1451H1014.13L1004.01 98.5997L1014.4 116.054H1004.51L997.627 103.986L990.855 116.054H980.855L991.218 98.5997L981.218 81.1451H991.218ZM1019.88 129.145V81.1451H1029.42V87.0087H1029.85C1030.28 86.0693 1030.89 85.1148 1031.7 84.1451C1032.51 83.1603 1033.57 82.3421 1034.88 81.6906C1036.2 81.0239 1037.83 80.6906 1039.79 80.6906C1042.33 80.6906 1044.68 81.3572 1046.83 82.6906C1048.98 84.0087 1050.7 86.0012 1051.99 88.6678C1053.28 91.3193 1053.92 94.6451 1053.92 98.6451C1053.92 102.539 1053.29 105.827 1052.04 108.509C1050.79 111.175 1049.1 113.198 1046.95 114.577C1044.81 115.941 1042.42 116.622 1039.76 116.622C1037.88 116.622 1036.29 116.312 1034.97 115.691C1033.67 115.069 1032.6 114.289 1031.76 113.35C1030.93 112.395 1030.29 111.433 1029.85 110.463H1029.56V129.145H1019.88ZM1029.35 98.5997C1029.35 100.675 1029.64 102.486 1030.22 104.031C1030.79 105.577 1031.63 106.781 1032.72 107.645C1033.81 108.494 1035.13 108.918 1036.7 108.918C1038.27 108.918 1039.6 108.486 1040.7 107.622C1041.79 106.744 1042.61 105.531 1043.17 103.986C1043.75 102.425 1044.04 100.63 1044.04 98.5997C1044.04 96.5845 1043.76 94.8118 1043.2 93.2815C1042.63 91.7512 1041.81 90.5542 1040.72 89.6906C1039.63 88.8269 1038.29 88.3951 1036.7 88.3951C1035.12 88.3951 1033.79 88.8118 1032.7 89.6451C1031.62 90.4784 1030.79 91.6603 1030.22 93.1906C1029.64 94.7209 1029.35 96.5239 1029.35 98.5997ZM1070.06 69.5087V116.054H1060.38V69.5087H1070.06ZM1093.59 116.736C1090.06 116.736 1087 115.986 1084.43 114.486C1081.87 112.971 1079.89 110.865 1078.5 108.168C1077.1 105.456 1076.41 102.312 1076.41 98.736C1076.41 95.13 1077.1 91.9784 1078.5 89.2815C1079.89 86.5693 1081.87 84.4633 1084.43 82.9633C1087 81.4481 1090.06 80.6906 1093.59 80.6906C1097.12 80.6906 1100.16 81.4481 1102.72 82.9633C1105.3 84.4633 1107.28 86.5693 1108.68 89.2815C1110.07 91.9784 1110.77 95.13 1110.77 98.736C1110.77 102.312 1110.07 105.456 1108.68 108.168C1107.28 110.865 1105.3 112.971 1102.72 114.486C1100.16 115.986 1097.12 116.736 1093.59 116.736ZM1093.63 109.236C1095.24 109.236 1096.58 108.781 1097.66 107.872C1098.73 106.948 1099.54 105.691 1100.09 104.1C1100.65 102.509 1100.93 100.698 1100.93 98.6678C1100.93 96.6375 1100.65 94.8269 1100.09 93.236C1099.54 91.6451 1098.73 90.3875 1097.66 89.4633C1096.58 88.539 1095.24 88.0769 1093.63 88.0769C1092.01 88.0769 1090.65 88.539 1089.54 89.4633C1088.45 90.3875 1087.63 91.6451 1087.06 93.236C1086.52 94.8269 1086.25 96.6375 1086.25 98.6678C1086.25 100.698 1086.52 102.509 1087.06 104.1C1087.63 105.691 1088.45 106.948 1089.54 107.872C1090.65 108.781 1092.01 109.236 1093.63 109.236ZM1117.06 116.054V81.1451H1126.45V87.236H1126.81C1127.45 85.0693 1128.52 83.433 1130.02 82.3269C1131.52 81.2057 1133.25 80.6451 1135.2 80.6451C1135.69 80.6451 1136.21 80.6754 1136.77 80.736C1137.33 80.7966 1137.82 80.88 1138.25 80.986V89.5769C1137.79 89.4406 1137.16 89.3193 1136.36 89.2133C1135.56 89.1072 1134.82 89.0542 1134.16 89.0542C1132.73 89.0542 1131.46 89.3648 1130.34 89.986C1129.23 90.5921 1128.35 91.4406 1127.7 92.5315C1127.06 93.6224 1126.75 94.88 1126.75 96.3042V116.054H1117.06ZM1152.21 116.713C1149.98 116.713 1147.99 116.327 1146.25 115.554C1144.51 114.766 1143.13 113.607 1142.12 112.077C1141.12 110.531 1140.62 108.607 1140.62 106.304C1140.62 104.365 1140.97 102.736 1141.68 101.418C1142.4 100.1 1143.37 99.039 1144.59 98.236C1145.82 97.433 1147.21 96.8269 1148.78 96.4178C1150.35 96.0087 1152 95.7209 1153.73 95.5542C1155.76 95.3421 1157.4 95.1451 1158.64 94.9633C1159.88 94.7663 1160.78 94.4784 1161.34 94.0997C1161.9 93.7209 1162.18 93.1603 1162.18 92.4178V92.2815C1162.18 90.8421 1161.73 89.7284 1160.82 88.9406C1159.93 88.1527 1158.65 87.7587 1157 87.7587C1155.26 87.7587 1153.87 88.1451 1152.84 88.9178C1151.81 89.6754 1151.13 90.63 1150.8 91.7815L1141.84 91.0542C1142.3 88.933 1143.19 87.0997 1144.53 85.5542C1145.86 83.9936 1147.58 82.7966 1149.68 81.9633C1151.81 81.1148 1154.26 80.6906 1157.05 80.6906C1158.99 80.6906 1160.84 80.9178 1162.62 81.3724C1164.4 81.8269 1165.99 82.5315 1167.37 83.486C1168.76 84.4406 1169.86 85.6678 1170.66 87.1678C1171.46 88.6527 1171.87 90.433 1171.87 92.5087V116.054H1162.68V111.213H1162.41C1161.85 112.304 1161.1 113.266 1160.16 114.1C1159.22 114.918 1158.09 115.562 1156.78 116.031C1155.46 116.486 1153.93 116.713 1152.21 116.713ZM1154.98 110.031C1156.4 110.031 1157.66 109.751 1158.75 109.191C1159.84 108.615 1160.7 107.842 1161.32 106.872C1161.94 105.903 1162.25 104.804 1162.25 103.577V99.8724C1161.95 100.069 1161.53 100.251 1161 100.418C1160.49 100.569 1159.9 100.713 1159.25 100.85C1158.6 100.971 1157.95 101.085 1157.3 101.191C1156.65 101.281 1156.06 101.365 1155.53 101.441C1154.39 101.607 1153.4 101.872 1152.55 102.236C1151.7 102.6 1151.04 103.092 1150.57 103.713C1150.1 104.319 1149.87 105.077 1149.87 105.986C1149.87 107.304 1150.34 108.312 1151.3 109.009C1152.27 109.691 1153.49 110.031 1154.98 110.031ZM1197.95 81.1451V88.4178H1176.92V81.1451H1197.95ZM1181.7 72.7815H1191.38V105.327C1191.38 106.221 1191.51 106.918 1191.79 107.418C1192.06 107.903 1192.44 108.244 1192.92 108.441C1193.42 108.638 1194 108.736 1194.65 108.736C1195.1 108.736 1195.56 108.698 1196.01 108.622C1196.47 108.531 1196.82 108.463 1197.06 108.418L1198.58 115.622C1198.1 115.774 1197.42 115.948 1196.54 116.145C1195.66 116.357 1194.59 116.486 1193.33 116.531C1191 116.622 1188.95 116.312 1187.2 115.6C1185.45 114.888 1184.1 113.781 1183.13 112.281C1182.16 110.781 1181.68 108.888 1181.7 106.6V72.7815ZM1204.25 116.054V81.1451H1213.93V116.054H1204.25ZM1209.12 76.6451C1207.68 76.6451 1206.44 76.1678 1205.41 75.2133C1204.4 74.2436 1203.89 73.0845 1203.89 71.736C1203.89 70.4027 1204.4 69.2587 1205.41 68.3042C1206.44 67.3345 1207.68 66.8497 1209.12 66.8497C1210.56 66.8497 1211.78 67.3345 1212.8 68.3042C1213.83 69.2587 1214.34 70.4027 1214.34 71.736C1214.34 73.0845 1213.83 74.2436 1212.8 75.2133C1211.78 76.1678 1210.56 76.6451 1209.12 76.6451ZM1237.46 116.736C1233.93 116.736 1230.88 115.986 1228.3 114.486C1225.74 112.971 1223.77 110.865 1222.37 108.168C1220.98 105.456 1220.28 102.312 1220.28 98.736C1220.28 95.13 1220.98 91.9784 1222.37 89.2815C1223.77 86.5693 1225.74 84.4633 1228.3 82.9633C1230.88 81.4481 1233.93 80.6906 1237.46 80.6906C1240.99 80.6906 1244.04 81.4481 1246.6 82.9633C1249.17 84.4633 1251.16 86.5693 1252.55 89.2815C1253.95 91.9784 1254.64 95.13 1254.64 98.736C1254.64 102.312 1253.95 105.456 1252.55 108.168C1251.16 110.865 1249.17 112.971 1246.6 114.486C1244.04 115.986 1240.99 116.736 1237.46 116.736ZM1237.51 109.236C1239.11 109.236 1240.45 108.781 1241.53 107.872C1242.61 106.948 1243.42 105.691 1243.96 104.1C1244.52 102.509 1244.8 100.698 1244.8 98.6678C1244.8 96.6375 1244.52 94.8269 1243.96 93.236C1243.42 91.6451 1242.61 90.3875 1241.53 89.4633C1240.45 88.539 1239.11 88.0769 1237.51 88.0769C1235.89 88.0769 1234.52 88.539 1233.42 89.4633C1232.33 90.3875 1231.5 91.6451 1230.94 93.236C1230.39 94.8269 1230.12 96.6375 1230.12 98.6678C1230.12 100.698 1230.39 102.509 1230.94 104.1C1231.5 105.691 1232.33 106.948 1233.42 107.872C1234.52 108.781 1235.89 109.236 1237.51 109.236ZM1270.62 95.8724V116.054H1260.94V81.1451H1270.17V87.3042H1270.58C1271.35 85.2739 1272.64 83.6678 1274.46 82.486C1276.28 81.289 1278.49 80.6906 1281.08 80.6906C1283.5 80.6906 1285.61 81.2209 1287.42 82.2815C1289.22 83.3421 1290.62 84.8572 1291.62 86.8269C1292.62 88.7815 1293.12 91.1148 1293.12 93.8269V116.054H1283.44V95.5542C1283.45 93.4178 1282.91 91.7512 1281.8 90.5542C1280.7 89.3421 1279.17 88.736 1277.24 88.736C1275.93 88.736 1274.78 89.0163 1273.78 89.5769C1272.8 90.1375 1272.02 90.9557 1271.46 92.0315C1270.92 93.0921 1270.64 94.3724 1270.62 95.8724Z" fill="black"/>
<path id="A way to do MC = explore the entire state space but combinatorial explosion" d="M170.849 293.054H167.122L175.497 269.781H179.553L187.928 293.054H184.201L177.622 274.009H177.44L170.849 293.054ZM171.474 283.941H183.565V286.895H171.474V283.941ZM203.269 293.054L198.133 275.6H201.644L205.065 288.418H205.235L208.667 275.6H212.178L215.588 288.361H215.758L219.156 275.6H222.667L217.542 293.054H214.076L210.531 280.452H210.269L206.724 293.054H203.269ZM230.971 293.441C229.865 293.441 228.865 293.236 227.971 292.827C227.077 292.41 226.369 291.808 225.846 291.02C225.331 290.232 225.073 289.266 225.073 288.122C225.073 287.138 225.263 286.327 225.642 285.691C226.02 285.054 226.532 284.55 227.176 284.179C227.82 283.808 228.539 283.528 229.335 283.338C230.13 283.149 230.941 283.005 231.767 282.906C232.812 282.785 233.66 282.687 234.312 282.611C234.963 282.528 235.437 282.395 235.732 282.213C236.028 282.031 236.176 281.736 236.176 281.327V281.247C236.176 280.255 235.895 279.486 235.335 278.941C234.782 278.395 233.956 278.122 232.857 278.122C231.713 278.122 230.812 278.376 230.153 278.884C229.501 279.384 229.051 279.941 228.801 280.554L225.607 279.827C225.986 278.766 226.539 277.91 227.267 277.259C228.001 276.6 228.846 276.122 229.801 275.827C230.755 275.524 231.759 275.372 232.812 275.372C233.509 275.372 234.248 275.456 235.028 275.622C235.816 275.781 236.551 276.077 237.232 276.509C237.922 276.941 238.486 277.558 238.926 278.361C239.365 279.156 239.585 280.191 239.585 281.463V293.054H236.267V290.668H236.13C235.91 291.107 235.581 291.539 235.142 291.963C234.702 292.388 234.138 292.74 233.448 293.02C232.759 293.3 231.933 293.441 230.971 293.441ZM231.71 290.713C232.649 290.713 233.452 290.528 234.119 290.156C234.793 289.785 235.304 289.3 235.653 288.702C236.009 288.096 236.187 287.448 236.187 286.759V284.509C236.066 284.63 235.831 284.744 235.482 284.85C235.142 284.948 234.751 285.035 234.312 285.111C233.873 285.179 233.445 285.244 233.028 285.304C232.611 285.357 232.263 285.403 231.982 285.441C231.323 285.524 230.721 285.664 230.176 285.861C229.638 286.058 229.206 286.342 228.88 286.713C228.562 287.077 228.403 287.562 228.403 288.168C228.403 289.009 228.713 289.645 229.335 290.077C229.956 290.501 230.748 290.713 231.71 290.713ZM245.633 299.6C245.125 299.6 244.663 299.558 244.247 299.475C243.83 299.399 243.519 299.316 243.315 299.225L244.133 296.441C244.754 296.607 245.307 296.679 245.792 296.656C246.277 296.634 246.705 296.452 247.076 296.111C247.455 295.77 247.788 295.213 248.076 294.441L248.497 293.281L242.11 275.6H245.747L250.167 289.145H250.349L254.769 275.6H258.417L251.224 295.384C250.891 296.293 250.466 297.062 249.951 297.691C249.436 298.327 248.822 298.804 248.11 299.122C247.398 299.441 246.572 299.6 245.633 299.6ZM278.227 275.6V278.327H268.693V275.6H278.227ZM271.249 271.418H274.647V287.929C274.647 288.588 274.746 289.085 274.943 289.418C275.14 289.744 275.393 289.967 275.704 290.088C276.022 290.202 276.367 290.259 276.738 290.259C277.011 290.259 277.249 290.24 277.454 290.202C277.659 290.164 277.818 290.134 277.931 290.111L278.545 292.918C278.348 292.994 278.068 293.069 277.704 293.145C277.34 293.228 276.886 293.274 276.34 293.281C275.446 293.297 274.613 293.138 273.84 292.804C273.068 292.471 272.443 291.956 271.965 291.259C271.488 290.562 271.249 289.687 271.249 288.634V271.418ZM289.15 293.406C287.514 293.406 286.086 293.031 284.866 292.281C283.646 291.531 282.699 290.482 282.025 289.134C281.351 287.785 281.014 286.21 281.014 284.406C281.014 282.596 281.351 281.013 282.025 279.656C282.699 278.3 283.646 277.247 284.866 276.497C286.086 275.747 287.514 275.372 289.15 275.372C290.786 275.372 292.214 275.747 293.434 276.497C294.654 277.247 295.601 278.3 296.275 279.656C296.949 281.013 297.286 282.596 297.286 284.406C297.286 286.21 296.949 287.785 296.275 289.134C295.601 290.482 294.654 291.531 293.434 292.281C292.214 293.031 290.786 293.406 289.15 293.406ZM289.161 290.554C290.222 290.554 291.101 290.274 291.798 289.713C292.495 289.153 293.01 288.406 293.343 287.475C293.684 286.543 293.855 285.516 293.855 284.395C293.855 283.281 293.684 282.259 293.343 281.327C293.01 280.388 292.495 279.634 291.798 279.066C291.101 278.497 290.222 278.213 289.161 278.213C288.093 278.213 287.207 278.497 286.502 279.066C285.805 279.634 285.286 280.388 284.945 281.327C284.612 282.259 284.445 283.281 284.445 284.395C284.445 285.516 284.612 286.543 284.945 287.475C285.286 288.406 285.805 289.153 286.502 289.713C287.207 290.274 288.093 290.554 289.161 290.554ZM316.082 293.395C314.673 293.395 313.415 293.035 312.309 292.316C311.211 291.588 310.347 290.554 309.718 289.213C309.097 287.865 308.786 286.247 308.786 284.361C308.786 282.475 309.101 280.861 309.73 279.52C310.366 278.179 311.237 277.153 312.343 276.441C313.449 275.728 314.703 275.372 316.105 275.372C317.188 275.372 318.059 275.554 318.718 275.918C319.385 276.274 319.9 276.691 320.264 277.168C320.635 277.645 320.923 278.066 321.127 278.429H321.332V269.781H324.73V293.054H321.411V290.338H321.127C320.923 290.71 320.627 291.134 320.241 291.611C319.862 292.088 319.339 292.505 318.673 292.861C318.006 293.217 317.142 293.395 316.082 293.395ZM316.832 290.497C317.809 290.497 318.635 290.24 319.309 289.725C319.991 289.202 320.506 288.478 320.855 287.554C321.211 286.63 321.389 285.554 321.389 284.327C321.389 283.115 321.214 282.054 320.866 281.145C320.517 280.236 320.006 279.528 319.332 279.02C318.658 278.513 317.824 278.259 316.832 278.259C315.809 278.259 314.957 278.524 314.275 279.054C313.593 279.585 313.078 280.308 312.73 281.225C312.389 282.141 312.218 283.175 312.218 284.327C312.218 285.494 312.392 286.543 312.741 287.475C313.089 288.406 313.605 289.145 314.286 289.691C314.976 290.228 315.824 290.497 316.832 290.497ZM336.931 293.406C335.295 293.406 333.867 293.031 332.647 292.281C331.427 291.531 330.481 290.482 329.806 289.134C329.132 287.785 328.795 286.21 328.795 284.406C328.795 282.596 329.132 281.013 329.806 279.656C330.481 278.3 331.427 277.247 332.647 276.497C333.867 275.747 335.295 275.372 336.931 275.372C338.568 275.372 339.996 275.747 341.215 276.497C342.435 277.247 343.382 278.3 344.056 279.656C344.731 281.013 345.068 282.596 345.068 284.406C345.068 286.21 344.731 287.785 344.056 289.134C343.382 290.482 342.435 291.531 341.215 292.281C339.996 293.031 338.568 293.406 336.931 293.406ZM336.943 290.554C338.003 290.554 338.882 290.274 339.579 289.713C340.276 289.153 340.791 288.406 341.124 287.475C341.465 286.543 341.636 285.516 341.636 284.395C341.636 283.281 341.465 282.259 341.124 281.327C340.791 280.388 340.276 279.634 339.579 279.066C338.882 278.497 338.003 278.213 336.943 278.213C335.874 278.213 334.988 278.497 334.284 279.066C333.587 279.634 333.068 280.388 332.727 281.327C332.393 282.259 332.227 283.281 332.227 284.395C332.227 285.516 332.393 286.543 332.727 287.475C333.068 288.406 333.587 289.153 334.284 289.713C334.988 290.274 335.874 290.554 336.943 290.554ZM357.602 269.781H361.863L369.272 287.872H369.545L376.954 269.781H381.215V293.054H377.874V276.213H377.659L370.795 293.02H368.022L361.159 276.202H360.943V293.054H357.602V269.781ZM405.65 277.35H402.105C401.968 276.592 401.714 275.925 401.343 275.35C400.972 274.774 400.517 274.285 399.98 273.884C399.442 273.482 398.839 273.179 398.173 272.975C397.514 272.77 396.813 272.668 396.07 272.668C394.73 272.668 393.529 273.005 392.468 273.679C391.415 274.353 390.582 275.342 389.968 276.645C389.362 277.948 389.059 279.539 389.059 281.418C389.059 283.312 389.362 284.91 389.968 286.213C390.582 287.516 391.419 288.501 392.48 289.168C393.54 289.835 394.733 290.168 396.059 290.168C396.794 290.168 397.491 290.069 398.15 289.872C398.817 289.668 399.419 289.369 399.957 288.975C400.495 288.581 400.949 288.1 401.32 287.531C401.699 286.956 401.961 286.297 402.105 285.554L405.65 285.566C405.461 286.71 405.093 287.763 404.548 288.725C404.01 289.679 403.317 290.505 402.468 291.202C401.627 291.891 400.665 292.425 399.582 292.804C398.499 293.183 397.317 293.372 396.036 293.372C394.021 293.372 392.226 292.895 390.65 291.941C389.074 290.978 387.832 289.603 386.923 287.816C386.021 286.028 385.57 283.895 385.57 281.418C385.57 278.933 386.025 276.8 386.934 275.02C387.843 273.232 389.086 271.861 390.661 270.906C392.237 269.944 394.029 269.463 396.036 269.463C397.271 269.463 398.423 269.641 399.491 269.997C400.567 270.346 401.533 270.861 402.389 271.543C403.245 272.217 403.953 273.043 404.514 274.02C405.074 274.99 405.453 276.1 405.65 277.35ZM419.139 279.406V276.429H433.695V279.406H419.139ZM419.139 286.406V283.429H433.695V286.406H419.139ZM455.352 293.406C453.632 293.406 452.151 293.039 450.909 292.304C449.674 291.562 448.719 290.52 448.045 289.179C447.378 287.831 447.045 286.251 447.045 284.441C447.045 282.653 447.378 281.077 448.045 279.713C448.719 278.35 449.659 277.285 450.863 276.52C452.075 275.755 453.492 275.372 455.113 275.372C456.098 275.372 457.052 275.535 457.977 275.861C458.901 276.187 459.731 276.698 460.465 277.395C461.2 278.092 461.78 278.997 462.204 280.111C462.628 281.217 462.84 282.562 462.84 284.145V285.35H448.965V282.804H459.511C459.511 281.91 459.329 281.119 458.965 280.429C458.602 279.732 458.09 279.183 457.431 278.781C456.78 278.38 456.015 278.179 455.136 278.179C454.181 278.179 453.348 278.414 452.636 278.884C451.931 279.346 451.386 279.952 450.999 280.702C450.621 281.444 450.431 282.251 450.431 283.122V285.111C450.431 286.278 450.636 287.27 451.045 288.088C451.462 288.906 452.041 289.531 452.784 289.963C453.526 290.388 454.393 290.6 455.386 290.6C456.03 290.6 456.617 290.509 457.147 290.327C457.677 290.138 458.136 289.857 458.522 289.486C458.909 289.115 459.204 288.656 459.409 288.111L462.624 288.691C462.367 289.638 461.905 290.467 461.238 291.179C460.579 291.884 459.749 292.433 458.749 292.827C457.757 293.213 456.624 293.406 455.352 293.406ZM468.886 275.6L472.738 282.395L476.624 275.6H480.34L474.897 284.327L480.386 293.054H476.67L472.738 286.531L468.818 293.054H465.09L470.522 284.327L465.159 275.6H468.886ZM483.829 299.6V275.6H487.147V278.429H487.431C487.628 278.066 487.912 277.645 488.284 277.168C488.655 276.691 489.17 276.274 489.829 275.918C490.488 275.554 491.359 275.372 492.443 275.372C493.852 275.372 495.109 275.728 496.215 276.441C497.321 277.153 498.189 278.179 498.818 279.52C499.454 280.861 499.772 282.475 499.772 284.361C499.772 286.247 499.458 287.865 498.829 289.213C498.2 290.554 497.337 291.588 496.238 292.316C495.14 293.035 493.886 293.395 492.477 293.395C491.416 293.395 490.549 293.217 489.874 292.861C489.208 292.505 488.685 292.088 488.306 291.611C487.927 291.134 487.636 290.71 487.431 290.338H487.227V299.6H483.829ZM487.159 284.327C487.159 285.554 487.337 286.63 487.693 287.554C488.049 288.478 488.564 289.202 489.238 289.725C489.912 290.24 490.738 290.497 491.715 290.497C492.731 290.497 493.579 290.228 494.261 289.691C494.943 289.145 495.458 288.406 495.806 287.475C496.162 286.543 496.34 285.494 496.34 284.327C496.34 283.175 496.166 282.141 495.818 281.225C495.477 280.308 494.962 279.585 494.272 279.054C493.59 278.524 492.738 278.259 491.715 278.259C490.731 278.259 489.897 278.513 489.215 279.02C488.541 279.528 488.03 280.236 487.681 281.145C487.333 282.054 487.159 283.115 487.159 284.327ZM506.977 269.781V293.054H503.579V269.781H506.977ZM518.9 293.406C517.264 293.406 515.836 293.031 514.616 292.281C513.396 291.531 512.449 290.482 511.775 289.134C511.101 287.785 510.764 286.21 510.764 284.406C510.764 282.596 511.101 281.013 511.775 279.656C512.449 278.3 513.396 277.247 514.616 276.497C515.836 275.747 517.264 275.372 518.9 275.372C520.536 275.372 521.964 275.747 523.184 276.497C524.404 277.247 525.351 278.3 526.025 279.656C526.699 281.013 527.036 282.596 527.036 284.406C527.036 286.21 526.699 287.785 526.025 289.134C525.351 290.482 524.404 291.531 523.184 292.281C521.964 293.031 520.536 293.406 518.9 293.406ZM518.911 290.554C519.972 290.554 520.851 290.274 521.548 289.713C522.245 289.153 522.76 288.406 523.093 287.475C523.434 286.543 523.605 285.516 523.605 284.395C523.605 283.281 523.434 282.259 523.093 281.327C522.76 280.388 522.245 279.634 521.548 279.066C520.851 278.497 519.972 278.213 518.911 278.213C517.843 278.213 516.957 278.497 516.252 279.066C515.555 279.634 515.036 280.388 514.695 281.327C514.362 282.259 514.195 283.281 514.195 284.395C514.195 285.516 514.362 286.543 514.695 287.475C515.036 288.406 515.555 289.153 516.252 289.713C516.957 290.274 517.843 290.554 518.911 290.554ZM530.829 293.054V275.6H534.113V278.372H534.295C534.613 277.433 535.174 276.694 535.977 276.156C536.787 275.611 537.704 275.338 538.727 275.338C538.939 275.338 539.189 275.346 539.477 275.361C539.772 275.376 540.003 275.395 540.17 275.418V278.668C540.034 278.63 539.791 278.588 539.443 278.543C539.094 278.49 538.746 278.463 538.397 278.463C537.594 278.463 536.878 278.634 536.249 278.975C535.628 279.308 535.136 279.774 534.772 280.372C534.409 280.963 534.227 281.638 534.227 282.395V293.054H530.829ZM550.008 293.406C548.288 293.406 546.807 293.039 545.565 292.304C544.33 291.562 543.375 290.52 542.701 289.179C542.035 287.831 541.701 286.251 541.701 284.441C541.701 282.653 542.035 281.077 542.701 279.713C543.375 278.35 544.315 277.285 545.519 276.52C546.731 275.755 548.148 275.372 549.769 275.372C550.754 275.372 551.709 275.535 552.633 275.861C553.557 276.187 554.387 276.698 555.122 277.395C555.856 278.092 556.436 278.997 556.86 280.111C557.285 281.217 557.497 282.562 557.497 284.145V285.35H543.622V282.804H554.167C554.167 281.91 553.985 281.119 553.622 280.429C553.258 279.732 552.747 279.183 552.088 278.781C551.436 278.38 550.671 278.179 549.792 278.179C548.838 278.179 548.004 278.414 547.292 278.884C546.588 279.346 546.042 279.952 545.656 280.702C545.277 281.444 545.088 282.251 545.088 283.122V285.111C545.088 286.278 545.292 287.27 545.701 288.088C546.118 288.906 546.697 289.531 547.44 289.963C548.182 290.388 549.05 290.6 550.042 290.6C550.686 290.6 551.273 290.509 551.803 290.327C552.334 290.138 552.792 289.857 553.178 289.486C553.565 289.115 553.86 288.656 554.065 288.111L557.281 288.691C557.023 289.638 556.561 290.467 555.894 291.179C555.235 291.884 554.406 292.433 553.406 292.827C552.413 293.213 551.281 293.406 550.008 293.406ZM577.883 275.6V278.327H568.349V275.6H577.883ZM570.906 271.418H574.303V287.929C574.303 288.588 574.402 289.085 574.599 289.418C574.796 289.744 575.05 289.967 575.36 290.088C575.678 290.202 576.023 290.259 576.394 290.259C576.667 290.259 576.906 290.24 577.11 290.202C577.315 290.164 577.474 290.134 577.588 290.111L578.201 292.918C578.004 292.994 577.724 293.069 577.36 293.145C576.997 293.228 576.542 293.274 575.997 293.281C575.103 293.297 574.269 293.138 573.497 292.804C572.724 292.471 572.099 291.956 571.622 291.259C571.144 290.562 570.906 289.687 570.906 288.634V271.418ZM585.414 282.691V293.054H582.017V269.781H585.369V278.441H585.585C585.994 277.501 586.619 276.755 587.46 276.202C588.301 275.649 589.399 275.372 590.755 275.372C591.952 275.372 592.998 275.619 593.892 276.111C594.793 276.603 595.49 277.338 595.982 278.316C596.482 279.285 596.732 280.497 596.732 281.952V293.054H593.335V282.361C593.335 281.081 593.005 280.088 592.346 279.384C591.687 278.672 590.77 278.316 589.596 278.316C588.793 278.316 588.073 278.486 587.437 278.827C586.808 279.168 586.312 279.668 585.948 280.327C585.592 280.978 585.414 281.766 585.414 282.691ZM608.789 293.406C607.07 293.406 605.588 293.039 604.346 292.304C603.111 291.562 602.157 290.52 601.482 289.179C600.816 287.831 600.482 286.251 600.482 284.441C600.482 282.653 600.816 281.077 601.482 279.713C602.157 278.35 603.096 277.285 604.301 276.52C605.513 275.755 606.929 275.372 608.551 275.372C609.535 275.372 610.49 275.535 611.414 275.861C612.338 276.187 613.168 276.698 613.903 277.395C614.638 278.092 615.217 278.997 615.642 280.111C616.066 281.217 616.278 282.562 616.278 284.145V285.35H602.403V282.804H612.948C612.948 281.91 612.767 281.119 612.403 280.429C612.039 279.732 611.528 279.183 610.869 278.781C610.217 278.38 609.452 278.179 608.573 278.179C607.619 278.179 606.785 278.414 606.073 278.884C605.369 279.346 604.823 279.952 604.437 280.702C604.058 281.444 603.869 282.251 603.869 283.122V285.111C603.869 286.278 604.073 287.27 604.482 288.088C604.899 288.906 605.479 289.531 606.221 289.963C606.963 290.388 607.831 290.6 608.823 290.6C609.467 290.6 610.054 290.509 610.585 290.327C611.115 290.138 611.573 289.857 611.96 289.486C612.346 289.115 612.642 288.656 612.846 288.111L616.062 288.691C615.804 289.638 615.342 290.467 614.676 291.179C614.017 291.884 613.187 292.433 612.187 292.827C611.195 293.213 610.062 293.406 608.789 293.406ZM636.039 293.406C634.32 293.406 632.838 293.039 631.596 292.304C630.361 291.562 629.407 290.52 628.732 289.179C628.066 287.831 627.732 286.251 627.732 284.441C627.732 282.653 628.066 281.077 628.732 279.713C629.407 278.35 630.346 277.285 631.551 276.52C632.763 275.755 634.179 275.372 635.801 275.372C636.785 275.372 637.74 275.535 638.664 275.861C639.588 276.187 640.418 276.698 641.153 277.395C641.888 278.092 642.467 278.997 642.892 280.111C643.316 281.217 643.528 282.562 643.528 284.145V285.35H629.653V282.804H640.198C640.198 281.91 640.017 281.119 639.653 280.429C639.289 279.732 638.778 279.183 638.119 278.781C637.467 278.38 636.702 278.179 635.823 278.179C634.869 278.179 634.035 278.414 633.323 278.884C632.619 279.346 632.073 279.952 631.687 280.702C631.308 281.444 631.119 282.251 631.119 283.122V285.111C631.119 286.278 631.323 287.27 631.732 288.088C632.149 288.906 632.729 289.531 633.471 289.963C634.213 290.388 635.081 290.6 636.073 290.6C636.717 290.6 637.304 290.509 637.835 290.327C638.365 290.138 638.823 289.857 639.21 289.486C639.596 289.115 639.892 288.656 640.096 288.111L643.312 288.691C643.054 289.638 642.592 290.467 641.926 291.179C641.267 291.884 640.437 292.433 639.437 292.827C638.445 293.213 637.312 293.406 636.039 293.406ZM650.695 282.691V293.054H647.298V275.6H650.559V278.441H650.775C651.177 277.516 651.805 276.774 652.661 276.213C653.525 275.653 654.612 275.372 655.923 275.372C657.112 275.372 658.154 275.622 659.048 276.122C659.942 276.615 660.635 277.35 661.127 278.327C661.62 279.304 661.866 280.513 661.866 281.952V293.054H658.468V282.361C658.468 281.096 658.139 280.107 657.48 279.395C656.82 278.675 655.915 278.316 654.764 278.316C653.976 278.316 653.275 278.486 652.661 278.827C652.055 279.168 651.574 279.668 651.218 280.327C650.87 280.978 650.695 281.766 650.695 282.691ZM674.57 275.6V278.327H665.036V275.6H674.57ZM667.593 271.418H670.991V287.929C670.991 288.588 671.089 289.085 671.286 289.418C671.483 289.744 671.737 289.967 672.048 290.088C672.366 290.202 672.711 290.259 673.082 290.259C673.355 290.259 673.593 290.24 673.798 290.202C674.002 290.164 674.161 290.134 674.275 290.111L674.889 292.918C674.692 292.994 674.411 293.069 674.048 293.145C673.684 293.228 673.23 293.274 672.684 293.281C671.79 293.297 670.957 293.138 670.184 292.804C669.411 292.471 668.786 291.956 668.309 291.259C667.832 290.562 667.593 289.687 667.593 288.634V271.418ZM678.329 293.054V275.6H681.727V293.054H678.329ZM680.045 272.906C679.454 272.906 678.946 272.71 678.522 272.316C678.106 271.914 677.897 271.437 677.897 270.884C677.897 270.323 678.106 269.846 678.522 269.452C678.946 269.05 679.454 268.85 680.045 268.85C680.636 268.85 681.14 269.05 681.556 269.452C681.981 269.846 682.193 270.323 682.193 270.884C682.193 271.437 681.981 271.914 681.556 272.316C681.14 272.71 680.636 272.906 680.045 272.906ZM686.298 293.054V275.6H689.582V278.372H689.764C690.082 277.433 690.642 276.694 691.445 276.156C692.256 275.611 693.173 275.338 694.195 275.338C694.408 275.338 694.658 275.346 694.945 275.361C695.241 275.376 695.472 275.395 695.639 275.418V278.668C695.502 278.63 695.26 278.588 694.911 278.543C694.563 278.49 694.214 278.463 693.866 278.463C693.063 278.463 692.347 278.634 691.718 278.975C691.097 279.308 690.605 279.774 690.241 280.372C689.877 280.963 689.695 281.638 689.695 282.395V293.054H686.298ZM705.477 293.406C703.757 293.406 702.276 293.039 701.034 292.304C699.799 291.562 698.844 290.52 698.17 289.179C697.503 287.831 697.17 286.251 697.17 284.441C697.17 282.653 697.503 281.077 698.17 279.713C698.844 278.35 699.784 277.285 700.988 276.52C702.2 275.755 703.617 275.372 705.238 275.372C706.223 275.372 707.177 275.535 708.102 275.861C709.026 276.187 709.856 276.698 710.59 277.395C711.325 278.092 711.905 278.997 712.329 280.111C712.753 281.217 712.965 282.562 712.965 284.145V285.35H699.09V282.804H709.636C709.636 281.91 709.454 281.119 709.09 280.429C708.727 279.732 708.215 279.183 707.556 278.781C706.905 278.38 706.14 278.179 705.261 278.179C704.306 278.179 703.473 278.414 702.761 278.884C702.056 279.346 701.511 279.952 701.124 280.702C700.746 281.444 700.556 282.251 700.556 283.122V285.111C700.556 286.278 700.761 287.27 701.17 288.088C701.587 288.906 702.166 289.531 702.909 289.963C703.651 290.388 704.518 290.6 705.511 290.6C706.155 290.6 706.742 290.509 707.272 290.327C707.802 290.138 708.261 289.857 708.647 289.486C709.034 289.115 709.329 288.656 709.534 288.111L712.749 288.691C712.492 289.638 712.03 290.467 711.363 291.179C710.704 291.884 709.874 292.433 708.874 292.827C707.882 293.213 706.749 293.406 705.477 293.406ZM738.284 279.861L735.204 280.406C735.075 280.013 734.871 279.638 734.59 279.281C734.318 278.925 733.946 278.634 733.477 278.406C733.007 278.179 732.42 278.066 731.715 278.066C730.753 278.066 729.95 278.281 729.306 278.713C728.662 279.138 728.34 279.687 728.34 280.361C728.34 280.944 728.556 281.414 728.988 281.77C729.42 282.126 730.117 282.418 731.079 282.645L733.852 283.281C735.458 283.653 736.655 284.225 737.443 284.997C738.231 285.77 738.624 286.774 738.624 288.009C738.624 289.054 738.321 289.986 737.715 290.804C737.117 291.615 736.28 292.251 735.204 292.713C734.136 293.175 732.897 293.406 731.488 293.406C729.534 293.406 727.939 292.99 726.704 292.156C725.469 291.316 724.712 290.122 724.431 288.577L727.715 288.077C727.92 288.933 728.34 289.581 728.977 290.02C729.613 290.452 730.443 290.668 731.465 290.668C732.579 290.668 733.469 290.437 734.136 289.975C734.802 289.505 735.136 288.933 735.136 288.259C735.136 287.713 734.931 287.255 734.522 286.884C734.121 286.513 733.503 286.232 732.67 286.043L729.715 285.395C728.087 285.024 726.882 284.433 726.102 283.622C725.329 282.812 724.943 281.785 724.943 280.543C724.943 279.513 725.231 278.611 725.806 277.838C726.382 277.066 727.177 276.463 728.193 276.031C729.208 275.592 730.371 275.372 731.681 275.372C733.568 275.372 735.052 275.781 736.136 276.6C737.219 277.41 737.935 278.497 738.284 279.861ZM750.508 275.6V278.327H740.974V275.6H750.508ZM743.531 271.418H746.928V287.929C746.928 288.588 747.027 289.085 747.224 289.418C747.421 289.744 747.675 289.967 747.985 290.088C748.303 290.202 748.648 290.259 749.019 290.259C749.292 290.259 749.531 290.24 749.735 290.202C749.94 290.164 750.099 290.134 750.213 290.111L750.826 292.918C750.629 292.994 750.349 293.069 749.985 293.145C749.622 293.228 749.167 293.274 748.622 293.281C747.728 293.297 746.894 293.138 746.122 292.804C745.349 292.471 744.724 291.956 744.247 291.259C743.769 290.562 743.531 289.687 743.531 288.634V271.418ZM759.346 293.441C758.24 293.441 757.24 293.236 756.346 292.827C755.452 292.41 754.744 291.808 754.221 291.02C753.706 290.232 753.448 289.266 753.448 288.122C753.448 287.138 753.638 286.327 754.017 285.691C754.395 285.054 754.907 284.55 755.551 284.179C756.195 283.808 756.914 283.528 757.71 283.338C758.505 283.149 759.316 283.005 760.142 282.906C761.187 282.785 762.035 282.687 762.687 282.611C763.338 282.528 763.812 282.395 764.107 282.213C764.403 282.031 764.551 281.736 764.551 281.327V281.247C764.551 280.255 764.27 279.486 763.71 278.941C763.157 278.395 762.331 278.122 761.232 278.122C760.088 278.122 759.187 278.376 758.528 278.884C757.876 279.384 757.426 279.941 757.176 280.554L753.982 279.827C754.361 278.766 754.914 277.91 755.642 277.259C756.376 276.6 757.221 276.122 758.176 275.827C759.13 275.524 760.134 275.372 761.187 275.372C761.884 275.372 762.623 275.456 763.403 275.622C764.191 275.781 764.926 276.077 765.607 276.509C766.297 276.941 766.861 277.558 767.301 278.361C767.74 279.156 767.96 280.191 767.96 281.463V293.054H764.642V290.668H764.505C764.285 291.107 763.956 291.539 763.517 291.963C763.077 292.388 762.513 292.74 761.823 293.02C761.134 293.3 760.308 293.441 759.346 293.441ZM760.085 290.713C761.024 290.713 761.827 290.528 762.494 290.156C763.168 289.785 763.679 289.3 764.028 288.702C764.384 288.096 764.562 287.448 764.562 286.759V284.509C764.441 284.63 764.206 284.744 763.857 284.85C763.517 284.948 763.126 285.035 762.687 285.111C762.248 285.179 761.82 285.244 761.403 285.304C760.986 285.357 760.638 285.403 760.357 285.441C759.698 285.524 759.096 285.664 758.551 285.861C758.013 286.058 757.581 286.342 757.255 286.713C756.937 287.077 756.778 287.562 756.778 288.168C756.778 289.009 757.088 289.645 757.71 290.077C758.331 290.501 759.123 290.713 760.085 290.713ZM780.633 275.6V278.327H771.099V275.6H780.633ZM773.656 271.418H777.053V287.929C777.053 288.588 777.152 289.085 777.349 289.418C777.546 289.744 777.8 289.967 778.11 290.088C778.428 290.202 778.773 290.259 779.144 290.259C779.417 290.259 779.656 290.24 779.86 290.202C780.065 290.164 780.224 290.134 780.338 290.111L780.951 292.918C780.754 292.994 780.474 293.069 780.11 293.145C779.747 293.228 779.292 293.274 778.747 293.281C777.853 293.297 777.019 293.138 776.247 292.804C775.474 292.471 774.849 291.956 774.372 291.259C773.894 290.562 773.656 289.687 773.656 288.634V271.418ZM791.727 293.406C790.007 293.406 788.526 293.039 787.284 292.304C786.049 291.562 785.094 290.52 784.42 289.179C783.753 287.831 783.42 286.251 783.42 284.441C783.42 282.653 783.753 281.077 784.42 279.713C785.094 278.35 786.034 277.285 787.238 276.52C788.45 275.755 789.867 275.372 791.488 275.372C792.473 275.372 793.427 275.535 794.352 275.861C795.276 276.187 796.106 276.698 796.84 277.395C797.575 278.092 798.155 278.997 798.579 280.111C799.003 281.217 799.215 282.562 799.215 284.145V285.35H785.34V282.804H795.886C795.886 281.91 795.704 281.119 795.34 280.429C794.977 279.732 794.465 279.183 793.806 278.781C793.155 278.38 792.39 278.179 791.511 278.179C790.556 278.179 789.723 278.414 789.011 278.884C788.306 279.346 787.761 279.952 787.374 280.702C786.996 281.444 786.806 282.251 786.806 283.122V285.111C786.806 286.278 787.011 287.27 787.42 288.088C787.837 288.906 788.416 289.531 789.159 289.963C789.901 290.388 790.768 290.6 791.761 290.6C792.405 290.6 792.992 290.509 793.522 290.327C794.052 290.138 794.511 289.857 794.897 289.486C795.284 289.115 795.579 288.656 795.784 288.111L798.999 288.691C798.742 289.638 798.28 290.467 797.613 291.179C796.954 291.884 796.124 292.433 795.124 292.827C794.132 293.213 792.999 293.406 791.727 293.406ZM824.534 279.861L821.454 280.406C821.325 280.013 821.121 279.638 820.84 279.281C820.568 278.925 820.196 278.634 819.727 278.406C819.257 278.179 818.67 278.066 817.965 278.066C817.003 278.066 816.2 278.281 815.556 278.713C814.912 279.138 814.59 279.687 814.59 280.361C814.59 280.944 814.806 281.414 815.238 281.77C815.67 282.126 816.367 282.418 817.329 282.645L820.102 283.281C821.708 283.653 822.905 284.225 823.693 284.997C824.481 285.77 824.874 286.774 824.874 288.009C824.874 289.054 824.571 289.986 823.965 290.804C823.367 291.615 822.53 292.251 821.454 292.713C820.386 293.175 819.147 293.406 817.738 293.406C815.784 293.406 814.189 292.99 812.954 292.156C811.719 291.316 810.962 290.122 810.681 288.577L813.965 288.077C814.17 288.933 814.59 289.581 815.227 290.02C815.863 290.452 816.693 290.668 817.715 290.668C818.829 290.668 819.719 290.437 820.386 289.975C821.052 289.505 821.386 288.933 821.386 288.259C821.386 287.713 821.181 287.255 820.772 286.884C820.371 286.513 819.753 286.232 818.92 286.043L815.965 285.395C814.337 285.024 813.132 284.433 812.352 283.622C811.579 282.812 811.193 281.785 811.193 280.543C811.193 279.513 811.481 278.611 812.056 277.838C812.632 277.066 813.427 276.463 814.443 276.031C815.458 275.592 816.621 275.372 817.931 275.372C819.818 275.372 821.302 275.781 822.386 276.6C823.469 277.41 824.185 278.497 824.534 279.861ZM828.61 299.6V275.6H831.928V278.429H832.213C832.41 278.066 832.694 277.645 833.065 277.168C833.436 276.691 833.951 276.274 834.61 275.918C835.269 275.554 836.141 275.372 837.224 275.372C838.633 275.372 839.891 275.728 840.997 276.441C842.103 277.153 842.97 278.179 843.599 279.52C844.235 280.861 844.553 282.475 844.553 284.361C844.553 286.247 844.239 287.865 843.61 289.213C842.981 290.554 842.118 291.588 841.019 292.316C839.921 293.035 838.667 293.395 837.258 293.395C836.197 293.395 835.33 293.217 834.656 292.861C833.989 292.505 833.466 292.088 833.088 291.611C832.709 291.134 832.417 290.71 832.213 290.338H832.008V299.6H828.61ZM831.94 284.327C831.94 285.554 832.118 286.63 832.474 287.554C832.83 288.478 833.345 289.202 834.019 289.725C834.694 290.24 835.519 290.497 836.497 290.497C837.512 290.497 838.36 290.228 839.042 289.691C839.724 289.145 840.239 288.406 840.588 287.475C840.944 286.543 841.122 285.494 841.122 284.327C841.122 283.175 840.947 282.141 840.599 281.225C840.258 280.308 839.743 279.585 839.053 279.054C838.372 278.524 837.519 278.259 836.497 278.259C835.512 278.259 834.678 278.513 833.997 279.02C833.322 279.528 832.811 280.236 832.463 281.145C832.114 282.054 831.94 283.115 831.94 284.327ZM853.44 293.441C852.334 293.441 851.334 293.236 850.44 292.827C849.546 292.41 848.838 291.808 848.315 291.02C847.8 290.232 847.542 289.266 847.542 288.122C847.542 287.138 847.731 286.327 848.11 285.691C848.489 285.054 849 284.55 849.644 284.179C850.288 283.808 851.008 283.528 851.803 283.338C852.599 283.149 853.41 283.005 854.235 282.906C855.281 282.785 856.129 282.687 856.781 282.611C857.432 282.528 857.906 282.395 858.201 282.213C858.497 282.031 858.644 281.736 858.644 281.327V281.247C858.644 280.255 858.364 279.486 857.803 278.941C857.25 278.395 856.425 278.122 855.326 278.122C854.182 278.122 853.281 278.376 852.622 278.884C851.97 279.384 851.519 279.941 851.269 280.554L848.076 279.827C848.455 278.766 849.008 277.91 849.735 277.259C850.47 276.6 851.315 276.122 852.269 275.827C853.224 275.524 854.228 275.372 855.281 275.372C855.978 275.372 856.716 275.456 857.497 275.622C858.285 275.781 859.019 276.077 859.701 276.509C860.391 276.941 860.955 277.558 861.394 278.361C861.834 279.156 862.053 280.191 862.053 281.463V293.054H858.735V290.668H858.599C858.379 291.107 858.05 291.539 857.61 291.963C857.171 292.388 856.606 292.74 855.917 293.02C855.228 293.3 854.402 293.441 853.44 293.441ZM854.178 290.713C855.118 290.713 855.921 290.528 856.588 290.156C857.262 289.785 857.773 289.3 858.122 288.702C858.478 288.096 858.656 287.448 858.656 286.759V284.509C858.535 284.63 858.3 284.744 857.951 284.85C857.61 284.948 857.22 285.035 856.781 285.111C856.341 285.179 855.913 285.244 855.497 285.304C855.08 285.357 854.731 285.403 854.451 285.441C853.792 285.524 853.19 285.664 852.644 285.861C852.106 286.058 851.675 286.342 851.349 286.713C851.031 287.077 850.872 287.562 850.872 288.168C850.872 289.009 851.182 289.645 851.803 290.077C852.425 290.501 853.216 290.713 854.178 290.713ZM873.931 293.406C872.242 293.406 870.787 293.024 869.568 292.259C868.356 291.486 867.424 290.422 866.772 289.066C866.121 287.71 865.795 286.156 865.795 284.406C865.795 282.634 866.128 281.069 866.795 279.713C867.462 278.35 868.401 277.285 869.613 276.52C870.825 275.755 872.253 275.372 873.897 275.372C875.223 275.372 876.405 275.619 877.443 276.111C878.481 276.596 879.318 277.278 879.954 278.156C880.598 279.035 880.981 280.062 881.102 281.236H877.795C877.613 280.418 877.196 279.713 876.545 279.122C875.901 278.531 875.037 278.236 873.954 278.236C873.007 278.236 872.177 278.486 871.465 278.986C870.761 279.478 870.212 280.183 869.818 281.1C869.424 282.009 869.227 283.085 869.227 284.327C869.227 285.6 869.42 286.698 869.806 287.622C870.193 288.547 870.738 289.263 871.443 289.77C872.155 290.278 872.992 290.531 873.954 290.531C874.598 290.531 875.181 290.414 875.704 290.179C876.234 289.937 876.677 289.592 877.034 289.145C877.397 288.698 877.651 288.16 877.795 287.531H881.102C880.981 288.66 880.613 289.668 879.999 290.554C879.386 291.441 878.564 292.138 877.534 292.645C876.511 293.153 875.31 293.406 873.931 293.406ZM892.258 293.406C890.538 293.406 889.057 293.039 887.815 292.304C886.58 291.562 885.625 290.52 884.951 289.179C884.285 287.831 883.951 286.251 883.951 284.441C883.951 282.653 884.285 281.077 884.951 279.713C885.625 278.35 886.565 277.285 887.769 276.52C888.981 275.755 890.398 275.372 892.019 275.372C893.004 275.372 893.959 275.535 894.883 275.861C895.807 276.187 896.637 276.698 897.372 277.395C898.106 278.092 898.686 278.997 899.11 280.111C899.535 281.217 899.747 282.562 899.747 284.145V285.35H885.872V282.804H896.417C896.417 281.91 896.235 281.119 895.872 280.429C895.508 279.732 894.997 279.183 894.338 278.781C893.686 278.38 892.921 278.179 892.042 278.179C891.088 278.179 890.254 278.414 889.542 278.884C888.838 279.346 888.292 279.952 887.906 280.702C887.527 281.444 887.338 282.251 887.338 283.122V285.111C887.338 286.278 887.542 287.27 887.951 288.088C888.368 288.906 888.947 289.531 889.69 289.963C890.432 290.388 891.3 290.6 892.292 290.6C892.936 290.6 893.523 290.509 894.053 290.327C894.584 290.138 895.042 289.857 895.428 289.486C895.815 289.115 896.11 288.656 896.315 288.111L899.531 288.691C899.273 289.638 898.811 290.467 898.144 291.179C897.485 291.884 896.656 292.433 895.656 292.827C894.663 293.213 893.531 293.406 892.258 293.406ZM912.258 293.054V269.781H915.656V278.429H915.86C916.057 278.066 916.341 277.645 916.713 277.168C917.084 276.691 917.599 276.274 918.258 275.918C918.917 275.554 919.788 275.372 920.872 275.372C922.281 275.372 923.538 275.728 924.644 276.441C925.75 277.153 926.618 278.179 927.247 279.52C927.883 280.861 928.201 282.475 928.201 284.361C928.201 286.247 927.887 287.865 927.258 289.213C926.629 290.554 925.766 291.588 924.667 292.316C923.569 293.035 922.315 293.395 920.906 293.395C919.845 293.395 918.978 293.217 918.303 292.861C917.637 292.505 917.114 292.088 916.735 291.611C916.356 291.134 916.065 290.71 915.86 290.338H915.576V293.054H912.258ZM915.588 284.327C915.588 285.554 915.766 286.63 916.122 287.554C916.478 288.478 916.993 289.202 917.667 289.725C918.341 290.24 919.167 290.497 920.144 290.497C921.16 290.497 922.008 290.228 922.69 289.691C923.372 289.145 923.887 288.406 924.235 287.475C924.591 286.543 924.769 285.494 924.769 284.327C924.769 283.175 924.595 282.141 924.247 281.225C923.906 280.308 923.391 279.585 922.701 279.054C922.019 278.524 921.167 278.259 920.144 278.259C919.16 278.259 918.326 278.513 917.644 279.02C916.97 279.528 916.459 280.236 916.11 281.145C915.762 282.054 915.588 283.115 915.588 284.327ZM943.073 285.816V275.6H946.482V293.054H943.142V290.031H942.96C942.558 290.963 941.914 291.74 941.028 292.361C940.149 292.975 939.054 293.281 937.744 293.281C936.623 293.281 935.63 293.035 934.767 292.543C933.91 292.043 933.236 291.304 932.744 290.327C932.259 289.35 932.017 288.141 932.017 286.702V275.6H935.414V286.293C935.414 287.482 935.744 288.429 936.403 289.134C937.062 289.838 937.918 290.191 938.971 290.191C939.607 290.191 940.24 290.031 940.869 289.713C941.505 289.395 942.032 288.914 942.448 288.27C942.873 287.626 943.081 286.808 943.073 285.816ZM959.195 275.6V278.327H949.661V275.6H959.195ZM952.218 271.418H955.616V287.929C955.616 288.588 955.714 289.085 955.911 289.418C956.108 289.744 956.362 289.967 956.673 290.088C956.991 290.202 957.336 290.259 957.707 290.259C957.98 290.259 958.218 290.24 958.423 290.202C958.627 290.164 958.786 290.134 958.9 290.111L959.514 292.918C959.317 292.994 959.036 293.069 958.673 293.145C958.309 293.228 957.855 293.274 957.309 293.281C956.415 293.297 955.582 293.138 954.809 292.804C954.036 292.471 953.411 291.956 952.934 291.259C952.457 290.562 952.218 289.687 952.218 288.634V271.418ZM978.775 293.406C977.086 293.406 975.631 293.024 974.411 292.259C973.199 291.486 972.267 290.422 971.616 289.066C970.964 287.71 970.639 286.156 970.639 284.406C970.639 282.634 970.972 281.069 971.639 279.713C972.305 278.35 973.245 277.285 974.457 276.52C975.669 275.755 977.097 275.372 978.741 275.372C980.067 275.372 981.249 275.619 982.286 276.111C983.324 276.596 984.161 277.278 984.798 278.156C985.442 279.035 985.824 280.062 985.945 281.236H982.639C982.457 280.418 982.04 279.713 981.389 279.122C980.745 278.531 979.881 278.236 978.798 278.236C977.851 278.236 977.021 278.486 976.309 278.986C975.605 279.478 975.055 280.183 974.661 281.1C974.267 282.009 974.07 283.085 974.07 284.327C974.07 285.6 974.264 286.698 974.65 287.622C975.036 288.547 975.582 289.263 976.286 289.77C976.999 290.278 977.836 290.531 978.798 290.531C979.442 290.531 980.025 290.414 980.548 290.179C981.078 289.937 981.521 289.592 981.877 289.145C982.241 288.698 982.495 288.16 982.639 287.531H985.945C985.824 288.66 985.457 289.668 984.843 290.554C984.23 291.441 983.408 292.138 982.377 292.645C981.355 293.153 980.154 293.406 978.775 293.406ZM996.931 293.406C995.295 293.406 993.867 293.031 992.647 292.281C991.427 291.531 990.481 290.482 989.806 289.134C989.132 287.785 988.795 286.21 988.795 284.406C988.795 282.596 989.132 281.013 989.806 279.656C990.481 278.3 991.427 277.247 992.647 276.497C993.867 275.747 995.295 275.372 996.931 275.372C998.568 275.372 999.996 275.747 1001.22 276.497C1002.44 277.247 1003.38 278.3 1004.06 279.656C1004.73 281.013 1005.07 282.596 1005.07 284.406C1005.07 286.21 1004.73 287.785 1004.06 289.134C1003.38 290.482 1002.44 291.531 1001.22 292.281C999.996 293.031 998.568 293.406 996.931 293.406ZM996.943 290.554C998.003 290.554 998.882 290.274 999.579 289.713C1000.28 289.153 1000.79 288.406 1001.12 287.475C1001.47 286.543 1001.64 285.516 1001.64 284.395C1001.64 283.281 1001.47 282.259 1001.12 281.327C1000.79 280.388 1000.28 279.634 999.579 279.066C998.882 278.497 998.003 278.213 996.943 278.213C995.874 278.213 994.988 278.497 994.284 279.066C993.587 279.634 993.068 280.388 992.727 281.327C992.393 282.259 992.227 283.281 992.227 284.395C992.227 285.516 992.393 286.543 992.727 287.475C993.068 288.406 993.587 289.153 994.284 289.713C994.988 290.274 995.874 290.554 996.943 290.554ZM1008.86 293.054V275.6H1012.12V278.441H1012.34C1012.7 277.478 1013.3 276.728 1014.12 276.191C1014.95 275.645 1015.94 275.372 1017.09 275.372C1018.25 275.372 1019.23 275.645 1020.02 276.191C1020.81 276.736 1021.4 277.486 1021.78 278.441H1021.96C1022.38 277.509 1023.04 276.766 1023.95 276.213C1024.86 275.653 1025.94 275.372 1027.2 275.372C1028.78 275.372 1030.08 275.869 1031.08 276.861C1032.08 277.853 1032.59 279.35 1032.59 281.35V293.054H1029.19V281.668C1029.19 280.486 1028.87 279.63 1028.22 279.1C1027.58 278.569 1026.81 278.304 1025.92 278.304C1024.81 278.304 1023.95 278.645 1023.34 279.327C1022.72 280.001 1022.42 280.869 1022.42 281.929V293.054H1019.03V281.452C1019.03 280.505 1018.74 279.744 1018.14 279.168C1017.55 278.592 1016.78 278.304 1015.84 278.304C1015.19 278.304 1014.6 278.475 1014.05 278.816C1013.52 279.149 1013.08 279.615 1012.75 280.213C1012.42 280.812 1012.26 281.505 1012.26 282.293V293.054H1008.86ZM1037.41 293.054V269.781H1040.81V278.429H1041.02C1041.21 278.066 1041.5 277.645 1041.87 277.168C1042.24 276.691 1042.76 276.274 1043.41 275.918C1044.07 275.554 1044.94 275.372 1046.03 275.372C1047.44 275.372 1048.69 275.728 1049.8 276.441C1050.91 277.153 1051.77 278.179 1052.4 279.52C1053.04 280.861 1053.36 282.475 1053.36 284.361C1053.36 286.247 1053.04 287.865 1052.41 289.213C1051.79 290.554 1050.92 291.588 1049.82 292.316C1048.72 293.035 1047.47 293.395 1046.06 293.395C1045 293.395 1044.13 293.217 1043.46 292.861C1042.79 292.505 1042.27 292.088 1041.89 291.611C1041.51 291.134 1041.22 290.71 1041.02 290.338H1040.73V293.054H1037.41ZM1040.74 284.327C1040.74 285.554 1040.92 286.63 1041.28 287.554C1041.63 288.478 1042.15 289.202 1042.82 289.725C1043.5 290.24 1044.32 290.497 1045.3 290.497C1046.32 290.497 1047.16 290.228 1047.85 289.691C1048.53 289.145 1049.04 288.406 1049.39 287.475C1049.75 286.543 1049.93 285.494 1049.93 284.327C1049.93 283.175 1049.75 282.141 1049.4 281.225C1049.06 280.308 1048.55 279.585 1047.86 279.054C1047.18 278.524 1046.32 278.259 1045.3 278.259C1044.32 278.259 1043.48 278.513 1042.8 279.02C1042.13 279.528 1041.61 280.236 1041.27 281.145C1040.92 282.054 1040.74 283.115 1040.74 284.327ZM1057.17 293.054V275.6H1060.57V293.054H1057.17ZM1058.89 272.906C1058.3 272.906 1057.79 272.71 1057.37 272.316C1056.95 271.914 1056.74 271.437 1056.74 270.884C1056.74 270.323 1056.95 269.846 1057.37 269.452C1057.79 269.05 1058.3 268.85 1058.89 268.85C1059.48 268.85 1059.98 269.05 1060.4 269.452C1060.82 269.846 1061.04 270.323 1061.04 270.884C1061.04 271.437 1060.82 271.914 1060.4 272.316C1059.98 272.71 1059.48 272.906 1058.89 272.906ZM1068.54 282.691V293.054H1065.14V275.6H1068.4V278.441H1068.62C1069.02 277.516 1069.65 276.774 1070.51 276.213C1071.37 275.653 1072.46 275.372 1073.77 275.372C1074.96 275.372 1076 275.622 1076.89 276.122C1077.79 276.615 1078.48 277.35 1078.97 278.327C1079.46 279.304 1079.71 280.513 1079.71 281.952V293.054H1076.31V282.361C1076.31 281.096 1075.98 280.107 1075.32 279.395C1074.66 278.675 1073.76 278.316 1072.61 278.316C1071.82 278.316 1071.12 278.486 1070.51 278.827C1069.9 279.168 1069.42 279.668 1069.06 280.327C1068.71 280.978 1068.54 281.766 1068.54 282.691ZM1089.35 293.441C1088.24 293.441 1087.24 293.236 1086.35 292.827C1085.45 292.41 1084.74 291.808 1084.22 291.02C1083.71 290.232 1083.45 289.266 1083.45 288.122C1083.45 287.138 1083.64 286.327 1084.02 285.691C1084.4 285.054 1084.91 284.55 1085.55 284.179C1086.19 283.808 1086.91 283.528 1087.71 283.338C1088.51 283.149 1089.32 283.005 1090.14 282.906C1091.19 282.785 1092.04 282.687 1092.69 282.611C1093.34 282.528 1093.81 282.395 1094.11 282.213C1094.4 282.031 1094.55 281.736 1094.55 281.327V281.247C1094.55 280.255 1094.27 279.486 1093.71 278.941C1093.16 278.395 1092.33 278.122 1091.23 278.122C1090.09 278.122 1089.19 278.376 1088.53 278.884C1087.88 279.384 1087.43 279.941 1087.18 280.554L1083.98 279.827C1084.36 278.766 1084.91 277.91 1085.64 277.259C1086.38 276.6 1087.22 276.122 1088.18 275.827C1089.13 275.524 1090.13 275.372 1091.19 275.372C1091.88 275.372 1092.62 275.456 1093.4 275.622C1094.19 275.781 1094.93 276.077 1095.61 276.509C1096.3 276.941 1096.86 277.558 1097.3 278.361C1097.74 279.156 1097.96 280.191 1097.96 281.463V293.054H1094.64V290.668H1094.51C1094.29 291.107 1093.96 291.539 1093.52 291.963C1093.08 292.388 1092.51 292.74 1091.82 293.02C1091.13 293.3 1090.31 293.441 1089.35 293.441ZM1090.08 290.713C1091.02 290.713 1091.83 290.528 1092.49 290.156C1093.17 289.785 1093.68 289.3 1094.03 288.702C1094.38 288.096 1094.56 287.448 1094.56 286.759V284.509C1094.44 284.63 1094.21 284.744 1093.86 284.85C1093.52 284.948 1093.13 285.035 1092.69 285.111C1092.25 285.179 1091.82 285.244 1091.4 285.304C1090.99 285.357 1090.64 285.403 1090.36 285.441C1089.7 285.524 1089.1 285.664 1088.55 285.861C1088.01 286.058 1087.58 286.342 1087.26 286.713C1086.94 287.077 1086.78 287.562 1086.78 288.168C1086.78 289.009 1087.09 289.645 1087.71 290.077C1088.33 290.501 1089.12 290.713 1090.08 290.713ZM1110.63 275.6V278.327H1101.1V275.6H1110.63ZM1103.66 271.418H1107.05V287.929C1107.05 288.588 1107.15 289.085 1107.35 289.418C1107.55 289.744 1107.8 289.967 1108.11 290.088C1108.43 290.202 1108.77 290.259 1109.14 290.259C1109.42 290.259 1109.66 290.24 1109.86 290.202C1110.06 290.164 1110.22 290.134 1110.34 290.111L1110.95 292.918C1110.75 292.994 1110.47 293.069 1110.11 293.145C1109.75 293.228 1109.29 293.274 1108.75 293.281C1107.85 293.297 1107.02 293.138 1106.25 292.804C1105.47 292.471 1104.85 291.956 1104.37 291.259C1103.89 290.562 1103.66 289.687 1103.66 288.634V271.418ZM1121.56 293.406C1119.92 293.406 1118.49 293.031 1117.27 292.281C1116.05 291.531 1115.11 290.482 1114.43 289.134C1113.76 287.785 1113.42 286.21 1113.42 284.406C1113.42 282.596 1113.76 281.013 1114.43 279.656C1115.11 278.3 1116.05 277.247 1117.27 276.497C1118.49 275.747 1119.92 275.372 1121.56 275.372C1123.19 275.372 1124.62 275.747 1125.84 276.497C1127.06 277.247 1128.01 278.3 1128.68 279.656C1129.36 281.013 1129.69 282.596 1129.69 284.406C1129.69 286.21 1129.36 287.785 1128.68 289.134C1128.01 290.482 1127.06 291.531 1125.84 292.281C1124.62 293.031 1123.19 293.406 1121.56 293.406ZM1121.57 290.554C1122.63 290.554 1123.51 290.274 1124.2 289.713C1124.9 289.153 1125.42 288.406 1125.75 287.475C1126.09 286.543 1126.26 285.516 1126.26 284.395C1126.26 283.281 1126.09 282.259 1125.75 281.327C1125.42 280.388 1124.9 279.634 1124.2 279.066C1123.51 278.497 1122.63 278.213 1121.57 278.213C1120.5 278.213 1119.61 278.497 1118.91 279.066C1118.21 279.634 1117.69 280.388 1117.35 281.327C1117.02 282.259 1116.85 283.281 1116.85 284.395C1116.85 285.516 1117.02 286.543 1117.35 287.475C1117.69 288.406 1118.21 289.153 1118.91 289.713C1119.61 290.274 1120.5 290.554 1121.57 290.554ZM1133.49 293.054V275.6H1136.77V278.372H1136.95C1137.27 277.433 1137.83 276.694 1138.63 276.156C1139.44 275.611 1140.36 275.338 1141.38 275.338C1141.6 275.338 1141.85 275.346 1142.13 275.361C1142.43 275.376 1142.66 275.395 1142.83 275.418V278.668C1142.69 278.63 1142.45 278.588 1142.1 278.543C1141.75 278.49 1141.4 278.463 1141.05 278.463C1140.25 278.463 1139.53 278.634 1138.91 278.975C1138.28 279.308 1137.79 279.774 1137.43 280.372C1137.06 280.963 1136.88 281.638 1136.88 282.395V293.054H1133.49ZM1145.77 293.054V275.6H1149.16V293.054H1145.77ZM1147.48 272.906C1146.89 272.906 1146.38 272.71 1145.96 272.316C1145.54 271.914 1145.33 271.437 1145.33 270.884C1145.33 270.323 1145.54 269.846 1145.96 269.452C1146.38 269.05 1146.89 268.85 1147.48 268.85C1148.07 268.85 1148.58 269.05 1148.99 269.452C1149.42 269.846 1149.63 270.323 1149.63 270.884C1149.63 271.437 1149.42 271.914 1148.99 272.316C1148.58 272.71 1148.07 272.906 1147.48 272.906ZM1158.81 293.441C1157.71 293.441 1156.71 293.236 1155.81 292.827C1154.92 292.41 1154.21 291.808 1153.69 291.02C1153.17 290.232 1152.92 289.266 1152.92 288.122C1152.92 287.138 1153.11 286.327 1153.49 285.691C1153.86 285.054 1154.38 284.55 1155.02 284.179C1155.66 283.808 1156.38 283.528 1157.18 283.338C1157.97 283.149 1158.78 283.005 1159.61 282.906C1160.66 282.785 1161.5 282.687 1162.16 282.611C1162.81 282.528 1163.28 282.395 1163.58 282.213C1163.87 282.031 1164.02 281.736 1164.02 281.327V281.247C1164.02 280.255 1163.74 279.486 1163.18 278.941C1162.63 278.395 1161.8 278.122 1160.7 278.122C1159.56 278.122 1158.66 278.376 1158 278.884C1157.35 279.384 1156.89 279.941 1156.64 280.554L1153.45 279.827C1153.83 278.766 1154.38 277.91 1155.11 277.259C1155.85 276.6 1156.69 276.122 1157.64 275.827C1158.6 275.524 1159.6 275.372 1160.66 275.372C1161.35 275.372 1162.09 275.456 1162.87 275.622C1163.66 275.781 1164.39 276.077 1165.08 276.509C1165.77 276.941 1166.33 277.558 1166.77 278.361C1167.21 279.156 1167.43 280.191 1167.43 281.463V293.054H1164.11V290.668H1163.97C1163.75 291.107 1163.42 291.539 1162.99 291.963C1162.55 292.388 1161.98 292.74 1161.29 293.02C1160.6 293.3 1159.78 293.441 1158.81 293.441ZM1159.55 290.713C1160.49 290.713 1161.3 290.528 1161.96 290.156C1162.64 289.785 1163.15 289.3 1163.5 288.702C1163.85 288.096 1164.03 287.448 1164.03 286.759V284.509C1163.91 284.63 1163.67 284.744 1163.33 284.85C1162.99 284.948 1162.6 285.035 1162.16 285.111C1161.72 285.179 1161.29 285.244 1160.87 285.304C1160.45 285.357 1160.11 285.403 1159.83 285.441C1159.17 285.524 1158.56 285.664 1158.02 285.861C1157.48 286.058 1157.05 286.342 1156.72 286.713C1156.41 287.077 1156.25 287.562 1156.25 288.168C1156.25 289.009 1156.56 289.645 1157.18 290.077C1157.8 290.501 1158.59 290.713 1159.55 290.713ZM1175.35 269.781V293.054H1171.95V269.781H1175.35ZM1195.91 293.406C1194.19 293.406 1192.71 293.039 1191.47 292.304C1190.24 291.562 1189.28 290.52 1188.61 289.179C1187.94 287.831 1187.61 286.251 1187.61 284.441C1187.61 282.653 1187.94 281.077 1188.61 279.713C1189.28 278.35 1190.22 277.285 1191.43 276.52C1192.64 275.755 1194.05 275.372 1195.68 275.372C1196.66 275.372 1197.61 275.535 1198.54 275.861C1199.46 276.187 1200.29 276.698 1201.03 277.395C1201.76 278.092 1202.34 278.997 1202.77 280.111C1203.19 281.217 1203.4 282.562 1203.4 284.145V285.35H1189.53V282.804H1200.07C1200.07 281.91 1199.89 281.119 1199.53 280.429C1199.16 279.732 1198.65 279.183 1197.99 278.781C1197.34 278.38 1196.58 278.179 1195.7 278.179C1194.74 278.179 1193.91 278.414 1193.2 278.884C1192.49 279.346 1191.95 279.952 1191.56 280.702C1191.18 281.444 1190.99 282.251 1190.99 283.122V285.111C1190.99 286.278 1191.2 287.27 1191.61 288.088C1192.02 288.906 1192.6 289.531 1193.35 289.963C1194.09 290.388 1194.96 290.6 1195.95 290.6C1196.59 290.6 1197.18 290.509 1197.71 290.327C1198.24 290.138 1198.7 289.857 1199.08 289.486C1199.47 289.115 1199.77 288.656 1199.97 288.111L1203.19 288.691C1202.93 289.638 1202.47 290.467 1201.8 291.179C1201.14 291.884 1200.31 292.433 1199.31 292.827C1198.32 293.213 1197.19 293.406 1195.91 293.406ZM1209.45 275.6L1213.3 282.395L1217.19 275.6H1220.9L1215.46 284.327L1220.95 293.054H1217.23L1213.3 286.531L1209.38 293.054H1205.65L1211.08 284.327L1205.72 275.6H1209.45ZM1224.39 299.6V275.6H1227.71V278.429H1227.99C1228.19 278.066 1228.47 277.645 1228.85 277.168C1229.22 276.691 1229.73 276.274 1230.39 275.918C1231.05 275.554 1231.92 275.372 1233.01 275.372C1234.41 275.372 1235.67 275.728 1236.78 276.441C1237.88 277.153 1238.75 278.179 1239.38 279.52C1240.02 280.861 1240.33 282.475 1240.33 284.361C1240.33 286.247 1240.02 287.865 1239.39 289.213C1238.76 290.554 1237.9 291.588 1236.8 292.316C1235.7 293.035 1234.45 293.395 1233.04 293.395C1231.98 293.395 1231.11 293.217 1230.44 292.861C1229.77 292.505 1229.25 292.088 1228.87 291.611C1228.49 291.134 1228.2 290.71 1227.99 290.338H1227.79V299.6H1224.39ZM1227.72 284.327C1227.72 285.554 1227.9 286.63 1228.26 287.554C1228.61 288.478 1229.13 289.202 1229.8 289.725C1230.47 290.24 1231.3 290.497 1232.28 290.497C1233.29 290.497 1234.14 290.228 1234.82 289.691C1235.51 289.145 1236.02 288.406 1236.37 287.475C1236.72 286.543 1236.9 285.494 1236.9 284.327C1236.9 283.175 1236.73 282.141 1236.38 281.225C1236.04 280.308 1235.52 279.585 1234.83 279.054C1234.15 278.524 1233.3 278.259 1232.28 278.259C1231.29 278.259 1230.46 278.513 1229.78 279.02C1229.1 279.528 1228.59 280.236 1228.24 281.145C1227.9 282.054 1227.72 283.115 1227.72 284.327ZM1247.54 269.781V293.054H1244.14V269.781H1247.54ZM1259.46 293.406C1257.83 293.406 1256.4 293.031 1255.18 292.281C1253.96 291.531 1253.01 290.482 1252.34 289.134C1251.66 287.785 1251.33 286.21 1251.33 284.406C1251.33 282.596 1251.66 281.013 1252.34 279.656C1253.01 278.3 1253.96 277.247 1255.18 276.497C1256.4 275.747 1257.83 275.372 1259.46 275.372C1261.1 275.372 1262.53 275.747 1263.75 276.497C1264.97 277.247 1265.91 278.3 1266.59 279.656C1267.26 281.013 1267.6 282.596 1267.6 284.406C1267.6 286.21 1267.26 287.785 1266.59 289.134C1265.91 290.482 1264.97 291.531 1263.75 292.281C1262.53 293.031 1261.1 293.406 1259.46 293.406ZM1259.47 290.554C1260.53 290.554 1261.41 290.274 1262.11 289.713C1262.81 289.153 1263.32 288.406 1263.66 287.475C1264 286.543 1264.17 285.516 1264.17 284.395C1264.17 283.281 1264 282.259 1263.66 281.327C1263.32 280.388 1262.81 279.634 1262.11 279.066C1261.41 278.497 1260.53 278.213 1259.47 278.213C1258.41 278.213 1257.52 278.497 1256.81 279.066C1256.12 279.634 1255.6 280.388 1255.26 281.327C1254.92 282.259 1254.76 283.281 1254.76 284.395C1254.76 285.516 1254.92 286.543 1255.26 287.475C1255.6 288.406 1256.12 289.153 1256.81 289.713C1257.52 290.274 1258.41 290.554 1259.47 290.554ZM1284.47 279.861L1281.39 280.406C1281.26 280.013 1281.06 279.638 1280.78 279.281C1280.51 278.925 1280.13 278.634 1279.66 278.406C1279.19 278.179 1278.61 278.066 1277.9 278.066C1276.94 278.066 1276.14 278.281 1275.49 278.713C1274.85 279.138 1274.53 279.687 1274.53 280.361C1274.53 280.944 1274.74 281.414 1275.18 281.77C1275.61 282.126 1276.3 282.418 1277.27 282.645L1280.04 283.281C1281.65 283.653 1282.84 284.225 1283.63 284.997C1284.42 285.77 1284.81 286.774 1284.81 288.009C1284.81 289.054 1284.51 289.986 1283.9 290.804C1283.3 291.615 1282.47 292.251 1281.39 292.713C1280.32 293.175 1279.08 293.406 1277.68 293.406C1275.72 293.406 1274.13 292.99 1272.89 292.156C1271.66 291.316 1270.9 290.122 1270.62 288.577L1273.9 288.077C1274.11 288.933 1274.53 289.581 1275.16 290.02C1275.8 290.452 1276.63 290.668 1277.65 290.668C1278.77 290.668 1279.66 290.437 1280.32 289.975C1280.99 289.505 1281.32 288.933 1281.32 288.259C1281.32 287.713 1281.12 287.255 1280.71 286.884C1280.31 286.513 1279.69 286.232 1278.86 286.043L1275.9 285.395C1274.27 285.024 1273.07 284.433 1272.29 283.622C1271.52 282.812 1271.13 281.785 1271.13 280.543C1271.13 279.513 1271.42 278.611 1271.99 277.838C1272.57 277.066 1273.36 276.463 1274.38 276.031C1275.4 275.592 1276.56 275.372 1277.87 275.372C1279.76 275.372 1281.24 275.781 1282.32 276.6C1283.41 277.41 1284.12 278.497 1284.47 279.861ZM1288.55 293.054V275.6H1291.95V293.054H1288.55ZM1290.26 272.906C1289.67 272.906 1289.17 272.71 1288.74 272.316C1288.32 271.914 1288.12 271.437 1288.12 270.884C1288.12 270.323 1288.32 269.846 1288.74 269.452C1289.17 269.05 1289.67 268.85 1290.26 268.85C1290.85 268.85 1291.36 269.05 1291.78 269.452C1292.2 269.846 1292.41 270.323 1292.41 270.884C1292.41 271.437 1292.2 271.914 1291.78 272.316C1291.36 272.71 1290.85 272.906 1290.26 272.906ZM1303.87 293.406C1302.23 293.406 1300.8 293.031 1299.58 292.281C1298.36 291.531 1297.42 290.482 1296.74 289.134C1296.07 287.785 1295.73 286.21 1295.73 284.406C1295.73 282.596 1296.07 281.013 1296.74 279.656C1297.42 278.3 1298.36 277.247 1299.58 276.497C1300.8 275.747 1302.23 275.372 1303.87 275.372C1305.51 275.372 1306.93 275.747 1308.15 276.497C1309.37 277.247 1310.32 278.3 1310.99 279.656C1311.67 281.013 1312.01 282.596 1312.01 284.406C1312.01 286.21 1311.67 287.785 1310.99 289.134C1310.32 290.482 1309.37 291.531 1308.15 292.281C1306.93 293.031 1305.51 293.406 1303.87 293.406ZM1303.88 290.554C1304.94 290.554 1305.82 290.274 1306.52 289.713C1307.21 289.153 1307.73 288.406 1308.06 287.475C1308.4 286.543 1308.57 285.516 1308.57 284.395C1308.57 283.281 1308.4 282.259 1308.06 281.327C1307.73 280.388 1307.21 279.634 1306.52 279.066C1305.82 278.497 1304.94 278.213 1303.88 278.213C1302.81 278.213 1301.93 278.497 1301.22 279.066C1300.52 279.634 1300.01 280.388 1299.66 281.327C1299.33 282.259 1299.16 283.281 1299.16 284.395C1299.16 285.516 1299.33 286.543 1299.66 287.475C1300.01 288.406 1300.52 289.153 1301.22 289.713C1301.93 290.274 1302.81 290.554 1303.88 290.554ZM1319.2 282.691V293.054H1315.8V275.6H1319.06V278.441H1319.28C1319.68 277.516 1320.31 276.774 1321.16 276.213C1322.03 275.653 1323.11 275.372 1324.42 275.372C1325.61 275.372 1326.65 275.622 1327.55 276.122C1328.44 276.615 1329.13 277.35 1329.63 278.327C1330.12 279.304 1330.37 280.513 1330.37 281.952V293.054H1326.97V282.361C1326.97 281.096 1326.64 280.107 1325.98 279.395C1325.32 278.675 1324.42 278.316 1323.26 278.316C1322.48 278.316 1321.78 278.486 1321.16 278.827C1320.56 279.168 1320.07 279.668 1319.72 280.327C1319.37 280.978 1319.2 281.766 1319.2 282.691Z" fill="black"/>
</g>
</svg>
