<svg width="1920" height="1080" viewBox="0 0 1920 1080" fill="none" xmlns="http://www.w3.org/2000/svg">
<g id="Mazurkiewicz trace equivalence">
<rect width="1920" height="1080" fill="white"/>
<path id="Mazurkiewicz&#226;&#128;&#153;s trace equivalence" d="M394.528 69.5087H406.664L419.482 100.781H420.028L432.846 69.5087H444.982V116.054H435.437V85.7587H435.051L423.005 115.827H416.505L404.46 85.6451H404.073V116.054H394.528V69.5087ZM462.863 116.713C460.636 116.713 458.651 116.327 456.909 115.554C455.166 114.766 453.787 113.607 452.772 112.077C451.772 110.531 451.272 108.607 451.272 106.304C451.272 104.365 451.628 102.736 452.34 101.418C453.052 100.1 454.022 99.039 455.249 98.236C456.477 97.433 457.871 96.8269 459.431 96.4178C461.007 96.0087 462.659 95.7209 464.386 95.5542C466.416 95.3421 468.052 95.1451 469.295 94.9633C470.537 94.7663 471.439 94.4784 471.999 94.0997C472.56 93.7209 472.84 93.1603 472.84 92.4178V92.2815C472.84 90.8421 472.386 89.7284 471.477 88.9406C470.583 88.1527 469.31 87.7587 467.659 87.7587C465.916 87.7587 464.53 88.1451 463.499 88.9178C462.469 89.6754 461.787 90.63 461.454 91.7815L452.499 91.0542C452.954 88.933 453.848 87.0997 455.181 85.5542C456.515 83.9936 458.234 82.7966 460.34 81.9633C462.462 81.1148 464.916 80.6906 467.704 80.6906C469.643 80.6906 471.499 80.9178 473.272 81.3724C475.06 81.8269 476.643 82.5315 478.022 83.486C479.416 84.4406 480.515 85.6678 481.318 87.1678C482.121 88.6527 482.522 90.433 482.522 92.5087V116.054H473.34V111.213H473.068C472.507 112.304 471.757 113.266 470.818 114.1C469.878 114.918 468.749 115.562 467.431 116.031C466.113 116.486 464.59 116.713 462.863 116.713ZM465.636 110.031C467.06 110.031 468.318 109.751 469.409 109.191C470.499 108.615 471.356 107.842 471.977 106.872C472.598 105.903 472.909 104.804 472.909 103.577V99.8724C472.606 100.069 472.189 100.251 471.659 100.418C471.143 100.569 470.56 100.713 469.909 100.85C469.257 100.971 468.606 101.085 467.954 101.191C467.302 101.281 466.712 101.365 466.181 101.441C465.045 101.607 464.052 101.872 463.204 102.236C462.356 102.6 461.696 103.092 461.227 103.713C460.757 104.319 460.522 105.077 460.522 105.986C460.522 107.304 460.999 108.312 461.954 109.009C462.924 109.691 464.151 110.031 465.636 110.031ZM489.852 116.054V110.281L506.943 89.1224V88.8724H490.443V81.1451H518.602V87.4406L502.556 108.077V108.327H519.193V116.054H489.852ZM548.982 101.191V81.1451H558.664V116.054H549.369V109.713H549.005C548.217 111.759 546.907 113.403 545.073 114.645C543.255 115.888 541.035 116.509 538.414 116.509C536.081 116.509 534.028 115.978 532.255 114.918C530.482 113.857 529.096 112.35 528.096 110.395C527.111 108.441 526.611 106.1 526.596 103.372V81.1451H536.278V101.645C536.293 103.706 536.846 105.335 537.937 106.531C539.028 107.728 540.49 108.327 542.323 108.327C543.49 108.327 544.581 108.062 545.596 107.531C546.611 106.986 547.429 106.183 548.051 105.122C548.687 104.062 548.998 102.751 548.982 101.191ZM566.409 116.054V81.1451H575.795V87.236H576.159C576.795 85.0693 577.863 83.433 579.363 82.3269C580.863 81.2057 582.59 80.6451 584.545 80.6451C585.03 80.6451 585.552 80.6754 586.113 80.736C586.674 80.7966 587.166 80.88 587.59 80.986V89.5769C587.136 89.4406 586.507 89.3193 585.704 89.2133C584.901 89.1072 584.166 89.0542 583.499 89.0542C582.075 89.0542 580.802 89.3648 579.681 89.986C578.575 90.5921 577.696 91.4406 577.045 92.5315C576.409 93.6224 576.09 94.88 576.09 96.3042V116.054H566.409ZM601.369 106.009L601.392 94.3951H602.801L613.982 81.1451H625.096L610.073 98.6906H607.778L601.369 106.009ZM592.596 116.054V69.5087H602.278V116.054H592.596ZM614.414 116.054L604.142 100.85L610.596 94.0087L625.755 116.054H614.414ZM629.846 116.054V81.1451H639.528V116.054H629.846ZM634.71 76.6451C633.27 76.6451 632.035 76.1678 631.005 75.2133C629.99 74.2436 629.482 73.0845 629.482 71.736C629.482 70.4027 629.99 69.2587 631.005 68.3042C632.035 67.3345 633.27 66.8497 634.71 66.8497C636.149 66.8497 637.376 67.3345 638.392 68.3042C639.422 69.2587 639.937 70.4027 639.937 71.736C639.937 73.0845 639.422 74.2436 638.392 75.2133C637.376 76.1678 636.149 76.6451 634.71 76.6451ZM663.193 116.736C659.602 116.736 656.511 116.009 653.92 114.554C651.344 113.085 649.359 111.009 647.965 108.327C646.571 105.63 645.874 102.441 645.874 98.7587C645.874 95.1678 646.571 92.0163 647.965 89.3042C649.359 86.5921 651.321 84.4784 653.852 82.9633C656.397 81.4481 659.382 80.6906 662.806 80.6906C665.109 80.6906 667.253 81.0618 669.238 81.8042C671.238 82.5315 672.981 83.63 674.465 85.0997C675.965 86.5694 677.132 88.4178 677.965 90.6451C678.799 92.8572 679.215 95.4481 679.215 98.4178V101.077H649.738V95.0769H670.102C670.102 93.683 669.799 92.4481 669.193 91.3724C668.587 90.2966 667.746 89.4557 666.67 88.8497C665.609 88.2284 664.374 87.9178 662.965 87.9178C661.496 87.9178 660.193 88.2587 659.056 88.9406C657.935 89.6072 657.056 90.5087 656.42 91.6451C655.784 92.7663 655.458 94.0163 655.443 95.3951V101.1C655.443 102.827 655.761 104.319 656.397 105.577C657.049 106.835 657.965 107.804 659.147 108.486C660.329 109.168 661.731 109.509 663.352 109.509C664.427 109.509 665.412 109.357 666.306 109.054C667.2 108.751 667.965 108.297 668.602 107.691C669.238 107.085 669.723 106.342 670.056 105.463L679.011 106.054C678.556 108.206 677.624 110.085 676.215 111.691C674.821 113.281 673.018 114.524 670.806 115.418C668.609 116.297 666.071 116.736 663.193 116.736ZM692.17 116.054L682.67 81.1451H692.465L697.874 104.6H698.193L703.829 81.1451H713.443L719.17 104.463H719.465L724.784 81.1451H734.556L725.079 116.054H714.829L708.829 94.0997H708.397L702.397 116.054H692.17ZM739.721 116.054V81.1451H749.403V116.054H739.721ZM744.585 76.6451C743.145 76.6451 741.91 76.1678 740.88 75.2133C739.865 74.2436 739.357 73.0845 739.357 71.736C739.357 70.4027 739.865 69.2587 740.88 68.3042C741.91 67.3345 743.145 66.8497 744.585 66.8497C746.024 66.8497 747.251 67.3345 748.267 68.3042C749.297 69.2587 749.812 70.4027 749.812 71.736C749.812 73.0845 749.297 74.2436 748.267 75.2133C747.251 76.1678 746.024 76.6451 744.585 76.6451ZM772.931 116.736C769.356 116.736 766.28 115.978 763.704 114.463C761.143 112.933 759.174 110.812 757.795 108.1C756.431 105.388 755.749 102.266 755.749 98.736C755.749 95.1603 756.439 92.0239 757.818 89.3269C759.212 86.6148 761.189 84.5012 763.749 82.986C766.31 81.4557 769.356 80.6906 772.886 80.6906C775.931 80.6906 778.598 81.2436 780.886 82.3497C783.174 83.4557 784.984 85.0087 786.318 87.0087C787.651 89.0087 788.386 91.3572 788.522 94.0542H779.386C779.128 92.3118 778.446 90.9103 777.34 89.8497C776.249 88.7739 774.818 88.236 773.045 88.236C771.545 88.236 770.234 88.6451 769.113 89.4633C768.007 90.2663 767.143 91.4406 766.522 92.986C765.901 94.5315 765.59 96.4027 765.59 98.5997C765.59 100.827 765.893 102.721 766.499 104.281C767.121 105.842 767.992 107.031 769.113 107.85C770.234 108.668 771.545 109.077 773.045 109.077C774.151 109.077 775.143 108.85 776.022 108.395C776.916 107.941 777.651 107.281 778.227 106.418C778.818 105.539 779.204 104.486 779.386 103.259H788.522C788.371 105.925 787.643 108.274 786.34 110.304C785.052 112.319 783.272 113.895 780.999 115.031C778.727 116.168 776.037 116.736 772.931 116.736ZM794.539 116.054V110.281L811.63 89.1224V88.8724H795.13V81.1451H823.289V87.4406L807.244 108.077V108.327H823.88V116.054H794.539ZM839.397 69.5087V74.4178C839.397 75.8118 839.124 77.236 838.579 78.6906C838.049 80.13 837.337 81.4936 836.443 82.7815C835.549 84.0542 834.571 85.1375 833.511 86.0315L829.238 83.5087C829.996 82.3118 830.662 80.986 831.238 79.5315C831.829 78.0769 832.124 76.3875 832.124 74.4633V69.5087H839.397ZM870.517 91.0997L861.653 91.6451C861.501 90.8875 861.176 90.2057 860.676 89.5997C860.176 88.9784 859.517 88.486 858.698 88.1224C857.895 87.7436 856.933 87.5542 855.812 87.5542C854.312 87.5542 853.047 87.8724 852.017 88.5087C850.986 89.13 850.471 89.9633 850.471 91.0087C850.471 91.8421 850.804 92.5466 851.471 93.1224C852.138 93.6981 853.282 94.1603 854.903 94.5087L861.221 95.7815C864.615 96.4784 867.145 97.5997 868.812 99.1451C870.479 100.691 871.312 102.721 871.312 105.236C871.312 107.524 870.638 109.531 869.289 111.259C867.956 112.986 866.123 114.335 863.789 115.304C861.471 116.259 858.797 116.736 855.767 116.736C851.145 116.736 847.463 115.774 844.721 113.85C841.994 111.91 840.395 109.274 839.926 105.941L849.448 105.441C849.736 106.85 850.433 107.925 851.539 108.668C852.645 109.395 854.062 109.759 855.789 109.759C857.486 109.759 858.85 109.433 859.88 108.781C860.926 108.115 861.456 107.259 861.471 106.213C861.456 105.335 861.085 104.615 860.357 104.054C859.63 103.478 858.509 103.039 856.994 102.736L850.948 101.531C847.539 100.85 845.001 99.6678 843.335 97.986C841.683 96.3042 840.857 94.1603 840.857 91.5542C840.857 89.3118 841.463 87.38 842.676 85.7587C843.903 84.1375 845.623 82.8875 847.835 82.0087C850.062 81.13 852.668 80.6906 855.653 80.6906C860.062 80.6906 863.532 81.6224 866.062 83.486C868.607 85.3497 870.092 87.8875 870.517 91.0997ZM910.789 81.1451V88.4178H889.767V81.1451H910.789ZM894.539 72.7815H904.221V105.327C904.221 106.221 904.357 106.918 904.63 107.418C904.903 107.903 905.282 108.244 905.767 108.441C906.267 108.638 906.842 108.736 907.494 108.736C907.948 108.736 908.403 108.698 908.857 108.622C909.312 108.531 909.66 108.463 909.903 108.418L911.426 115.622C910.941 115.774 910.259 115.948 909.38 116.145C908.501 116.357 907.433 116.486 906.176 116.531C903.842 116.622 901.797 116.312 900.039 115.6C898.297 114.888 896.941 113.781 895.971 112.281C895.001 110.781 894.524 108.888 894.539 106.6V72.7815ZM917.096 116.054V81.1451H926.482V87.236H926.846C927.482 85.0693 928.551 83.433 930.051 82.3269C931.551 81.2057 933.278 80.6451 935.232 80.6451C935.717 80.6451 936.24 80.6754 936.801 80.736C937.361 80.7966 937.854 80.88 938.278 80.986V89.5769C937.823 89.4406 937.195 89.3193 936.392 89.2133C935.588 89.1072 934.854 89.0542 934.187 89.0542C932.763 89.0542 931.49 89.3648 930.369 89.986C929.263 90.5921 928.384 91.4406 927.732 92.5315C927.096 93.6224 926.778 94.88 926.778 96.3042V116.054H917.096ZM952.238 116.713C950.011 116.713 948.026 116.327 946.284 115.554C944.541 114.766 943.162 113.607 942.147 112.077C941.147 110.531 940.647 108.607 940.647 106.304C940.647 104.365 941.003 102.736 941.715 101.418C942.427 100.1 943.397 99.039 944.624 98.236C945.852 97.433 947.246 96.8269 948.806 96.4178C950.382 96.0087 952.034 95.7209 953.761 95.5542C955.791 95.3421 957.427 95.1451 958.67 94.9633C959.912 94.7663 960.814 94.4784 961.374 94.0997C961.935 93.7209 962.215 93.1603 962.215 92.4178V92.2815C962.215 90.8421 961.761 89.7284 960.852 88.9406C959.958 88.1527 958.685 87.7587 957.034 87.7587C955.291 87.7587 953.905 88.1451 952.874 88.9178C951.844 89.6754 951.162 90.63 950.829 91.7815L941.874 91.0542C942.329 88.933 943.223 87.0997 944.556 85.5542C945.89 83.9936 947.609 82.7966 949.715 81.9633C951.837 81.1148 954.291 80.6906 957.079 80.6906C959.018 80.6906 960.874 80.9178 962.647 81.3724C964.435 81.8269 966.018 82.5315 967.397 83.486C968.791 84.4406 969.89 85.6678 970.693 87.1678C971.496 88.6527 971.897 90.433 971.897 92.5087V116.054H962.715V111.213H962.443C961.882 112.304 961.132 113.266 960.193 114.1C959.253 114.918 958.124 115.562 956.806 116.031C955.488 116.486 953.965 116.713 952.238 116.713ZM955.011 110.031C956.435 110.031 957.693 109.751 958.784 109.191C959.874 108.615 960.731 107.842 961.352 106.872C961.973 105.903 962.284 104.804 962.284 103.577V99.8724C961.981 100.069 961.564 100.251 961.034 100.418C960.518 100.569 959.935 100.713 959.284 100.85C958.632 100.971 957.981 101.085 957.329 101.191C956.677 101.281 956.087 101.365 955.556 101.441C954.42 101.607 953.427 101.872 952.579 102.236C951.731 102.6 951.071 103.092 950.602 103.713C950.132 104.319 949.897 105.077 949.897 105.986C949.897 107.304 950.374 108.312 951.329 109.009C952.299 109.691 953.526 110.031 955.011 110.031ZM995.181 116.736C991.606 116.736 988.53 115.978 985.954 114.463C983.393 112.933 981.424 110.812 980.045 108.1C978.681 105.388 977.999 102.266 977.999 98.736C977.999 95.1603 978.689 92.0239 980.068 89.3269C981.462 86.6148 983.439 84.5012 985.999 82.986C988.56 81.4557 991.606 80.6906 995.136 80.6906C998.181 80.6906 1000.85 81.2436 1003.14 82.3497C1005.42 83.4557 1007.23 85.0087 1008.57 87.0087C1009.9 89.0087 1010.64 91.3572 1010.77 94.0542H1001.64C1001.38 92.3118 1000.7 90.9103 999.59 89.8497C998.499 88.7739 997.068 88.236 995.295 88.236C993.795 88.236 992.484 88.6451 991.363 89.4633C990.257 90.2663 989.393 91.4406 988.772 92.986C988.151 94.5315 987.84 96.4027 987.84 98.5997C987.84 100.827 988.143 102.721 988.749 104.281C989.371 105.842 990.242 107.031 991.363 107.85C992.484 108.668 993.795 109.077 995.295 109.077C996.401 109.077 997.393 108.85 998.272 108.395C999.166 107.941 999.901 107.281 1000.48 106.418C1001.07 105.539 1001.45 104.486 1001.64 103.259H1010.77C1010.62 105.925 1009.89 108.274 1008.59 110.304C1007.3 112.319 1005.52 113.895 1003.25 115.031C1000.98 116.168 998.287 116.736 995.181 116.736ZM1032.88 116.736C1029.29 116.736 1026.2 116.009 1023.61 114.554C1021.03 113.085 1019.05 111.009 1017.65 108.327C1016.26 105.63 1015.56 102.441 1015.56 98.7587C1015.56 95.1678 1016.26 92.0163 1017.65 89.3042C1019.05 86.5921 1021.01 84.4784 1023.54 82.9633C1026.08 81.4481 1029.07 80.6906 1032.49 80.6906C1034.8 80.6906 1036.94 81.0618 1038.93 81.8042C1040.93 82.5315 1042.67 83.63 1044.15 85.0997C1045.65 86.5694 1046.82 88.4178 1047.65 90.6451C1048.49 92.8572 1048.9 95.4481 1048.9 98.4178V101.077H1019.43V95.0769H1039.79C1039.79 93.683 1039.49 92.4481 1038.88 91.3724C1038.27 90.2966 1037.43 89.4557 1036.36 88.8497C1035.3 88.2284 1034.06 87.9178 1032.65 87.9178C1031.18 87.9178 1029.88 88.2587 1028.74 88.9406C1027.62 89.6072 1026.74 90.5087 1026.11 91.6451C1025.47 92.7663 1025.15 94.0163 1025.13 95.3951V101.1C1025.13 102.827 1025.45 104.319 1026.08 105.577C1026.74 106.835 1027.65 107.804 1028.83 108.486C1030.02 109.168 1031.42 109.509 1033.04 109.509C1034.11 109.509 1035.1 109.357 1035.99 109.054C1036.89 108.751 1037.65 108.297 1038.29 107.691C1038.93 107.085 1039.41 106.342 1039.74 105.463L1048.7 106.054C1048.24 108.206 1047.31 110.085 1045.9 111.691C1044.51 113.281 1042.71 114.524 1040.49 115.418C1038.3 116.297 1035.76 116.736 1032.88 116.736ZM1085.94 116.736C1082.35 116.736 1079.26 116.009 1076.67 114.554C1074.09 113.085 1072.11 111.009 1070.72 108.327C1069.32 105.63 1068.62 102.441 1068.62 98.7587C1068.62 95.1678 1069.32 92.0163 1070.72 89.3042C1072.11 86.5921 1074.07 84.4784 1076.6 82.9633C1079.15 81.4481 1082.13 80.6906 1085.56 80.6906C1087.86 80.6906 1090 81.0618 1091.99 81.8042C1093.99 82.5315 1095.73 83.63 1097.22 85.0997C1098.72 86.5694 1099.88 88.4178 1100.72 90.6451C1101.55 92.8572 1101.97 95.4481 1101.97 98.4178V101.077H1072.49V95.0769H1092.85C1092.85 93.683 1092.55 92.4481 1091.94 91.3724C1091.34 90.2966 1090.5 89.4557 1089.42 88.8497C1088.36 88.2284 1087.12 87.9178 1085.72 87.9178C1084.25 87.9178 1082.94 88.2587 1081.81 88.9406C1080.69 89.6072 1079.81 90.5087 1079.17 91.6451C1078.53 92.7663 1078.21 94.0163 1078.19 95.3951V101.1C1078.19 102.827 1078.51 104.319 1079.15 105.577C1079.8 106.835 1080.72 107.804 1081.9 108.486C1083.08 109.168 1084.48 109.509 1086.1 109.509C1087.18 109.509 1088.16 109.357 1089.06 109.054C1089.95 108.751 1090.72 108.297 1091.35 107.691C1091.99 107.085 1092.47 106.342 1092.81 105.463L1101.76 106.054C1101.31 108.206 1100.37 110.085 1098.97 111.691C1097.57 113.281 1095.77 114.524 1093.56 115.418C1091.36 116.297 1088.82 116.736 1085.94 116.736ZM1131.35 129.145V110.463H1131.06C1130.6 111.433 1129.96 112.395 1129.12 113.35C1128.31 114.289 1127.24 115.069 1125.92 115.691C1124.62 116.312 1123.03 116.622 1121.15 116.622C1118.5 116.622 1116.09 115.941 1113.94 114.577C1111.81 113.198 1110.11 111.175 1108.85 108.509C1107.61 105.827 1106.99 102.539 1106.99 98.6451C1106.99 94.6451 1107.63 91.3193 1108.92 88.6678C1110.21 86.0012 1111.92 84.0087 1114.06 82.6906C1116.21 81.3572 1118.56 80.6906 1121.12 80.6906C1123.08 80.6906 1124.71 81.0239 1126.01 81.6906C1127.33 82.3421 1128.39 83.1603 1129.19 84.1451C1130.01 85.1148 1130.63 86.0693 1131.06 87.0087H1131.47V81.1451H1141.01V129.145H1131.35ZM1124.22 108.918C1125.78 108.918 1127.09 108.494 1128.17 107.645C1129.26 106.781 1130.09 105.577 1130.67 104.031C1131.26 102.486 1131.56 100.675 1131.56 98.5997C1131.56 96.5239 1131.27 94.7209 1130.69 93.1906C1130.12 91.6603 1129.28 90.4784 1128.19 89.6451C1127.1 88.8118 1125.78 88.3951 1124.22 88.3951C1122.62 88.3951 1121.28 88.8269 1120.19 89.6906C1119.1 90.5542 1118.28 91.7512 1117.72 93.2815C1117.15 94.8118 1116.87 96.5845 1116.87 98.5997C1116.87 100.63 1117.15 102.425 1117.72 103.986C1118.29 105.531 1119.12 106.744 1120.19 107.622C1121.28 108.486 1122.62 108.918 1124.22 108.918ZM1171.17 101.191V81.1451H1180.85V116.054H1171.56V109.713H1171.19C1170.4 111.759 1169.09 113.403 1167.26 114.645C1165.44 115.888 1163.22 116.509 1160.6 116.509C1158.27 116.509 1156.22 115.978 1154.44 114.918C1152.67 113.857 1151.28 112.35 1150.28 110.395C1149.3 108.441 1148.8 106.1 1148.78 103.372V81.1451H1158.47V101.645C1158.48 103.706 1159.03 105.335 1160.12 106.531C1161.22 107.728 1162.68 108.327 1164.51 108.327C1165.68 108.327 1166.77 108.062 1167.78 107.531C1168.8 106.986 1169.62 106.183 1170.24 105.122C1170.87 104.062 1171.19 102.751 1171.17 101.191ZM1188.6 116.054V81.1451H1198.28V116.054H1188.6ZM1193.46 76.6451C1192.02 76.6451 1190.79 76.1678 1189.76 75.2133C1188.74 74.2436 1188.23 73.0845 1188.23 71.736C1188.23 70.4027 1188.74 69.2587 1189.76 68.3042C1190.79 67.3345 1192.02 66.8497 1193.46 66.8497C1194.9 66.8497 1196.13 67.3345 1197.14 68.3042C1198.17 69.2587 1198.69 70.4027 1198.69 71.736C1198.69 73.0845 1198.17 74.2436 1197.14 75.2133C1196.13 76.1678 1194.9 76.6451 1193.46 76.6451ZM1238.58 81.1451L1226.37 116.054H1215.47L1203.26 81.1451H1213.49L1220.74 106.122H1221.1L1228.33 81.1451H1238.58ZM1252.55 116.713C1250.32 116.713 1248.34 116.327 1246.6 115.554C1244.85 114.766 1243.47 113.607 1242.46 112.077C1241.46 110.531 1240.96 108.607 1240.96 106.304C1240.96 104.365 1241.32 102.736 1242.03 101.418C1242.74 100.1 1243.71 99.039 1244.94 98.236C1246.16 97.433 1247.56 96.8269 1249.12 96.4178C1250.69 96.0087 1252.35 95.7209 1254.07 95.5542C1256.1 95.3421 1257.74 95.1451 1258.98 94.9633C1260.22 94.7663 1261.13 94.4784 1261.69 94.0997C1262.25 93.7209 1262.53 93.1603 1262.53 92.4178V92.2815C1262.53 90.8421 1262.07 89.7284 1261.16 88.9406C1260.27 88.1527 1259 87.7587 1257.35 87.7587C1255.6 87.7587 1254.22 88.1451 1253.19 88.9178C1252.16 89.6754 1251.47 90.63 1251.14 91.7815L1242.19 91.0542C1242.64 88.933 1243.54 87.0997 1244.87 85.5542C1246.2 83.9936 1247.92 82.7966 1250.03 81.9633C1252.15 81.1148 1254.6 80.6906 1257.39 80.6906C1259.33 80.6906 1261.19 80.9178 1262.96 81.3724C1264.75 81.8269 1266.33 82.5315 1267.71 83.486C1269.1 84.4406 1270.2 85.6678 1271.01 87.1678C1271.81 88.6527 1272.21 90.433 1272.21 92.5087V116.054H1263.03V111.213H1262.76C1262.19 112.304 1261.44 113.266 1260.51 114.1C1259.57 114.918 1258.44 115.562 1257.12 116.031C1255.8 116.486 1254.28 116.713 1252.55 116.713ZM1255.32 110.031C1256.75 110.031 1258.01 109.751 1259.1 109.191C1260.19 108.615 1261.04 107.842 1261.66 106.872C1262.29 105.903 1262.6 104.804 1262.6 103.577V99.8724C1262.29 100.069 1261.88 100.251 1261.35 100.418C1260.83 100.569 1260.25 100.713 1259.6 100.85C1258.94 100.971 1258.29 101.085 1257.64 101.191C1256.99 101.281 1256.4 101.365 1255.87 101.441C1254.73 101.607 1253.74 101.872 1252.89 102.236C1252.04 102.6 1251.38 103.092 1250.91 103.713C1250.44 104.319 1250.21 105.077 1250.21 105.986C1250.21 107.304 1250.69 108.312 1251.64 109.009C1252.61 109.691 1253.84 110.031 1255.32 110.031ZM1289.4 69.5087V116.054H1279.72V69.5087H1289.4ZM1313.07 116.736C1309.48 116.736 1306.39 116.009 1303.79 114.554C1301.22 113.085 1299.23 111.009 1297.84 108.327C1296.45 105.63 1295.75 102.441 1295.75 98.7587C1295.75 95.1678 1296.45 92.0163 1297.84 89.3042C1299.23 86.5921 1301.2 84.4784 1303.73 82.9633C1306.27 81.4481 1309.26 80.6906 1312.68 80.6906C1314.98 80.6906 1317.13 81.0618 1319.11 81.8042C1321.11 82.5315 1322.86 83.63 1324.34 85.0997C1325.84 86.5694 1327.01 88.4178 1327.84 90.6451C1328.67 92.8572 1329.09 95.4481 1329.09 98.4178V101.077H1299.61V95.0769H1319.98C1319.98 93.683 1319.67 92.4481 1319.07 91.3724C1318.46 90.2966 1317.62 89.4557 1316.54 88.8497C1315.48 88.2284 1314.25 87.9178 1312.84 87.9178C1311.37 87.9178 1310.07 88.2587 1308.93 88.9406C1307.81 89.6072 1306.93 90.5087 1306.29 91.6451C1305.66 92.7663 1305.33 94.0163 1305.32 95.3951V101.1C1305.32 102.827 1305.64 104.319 1306.27 105.577C1306.92 106.835 1307.84 107.804 1309.02 108.486C1310.2 109.168 1311.61 109.509 1313.23 109.509C1314.3 109.509 1315.29 109.357 1316.18 109.054C1317.08 108.751 1317.84 108.297 1318.48 107.691C1319.11 107.085 1319.6 106.342 1319.93 105.463L1328.89 106.054C1328.43 108.206 1327.5 110.085 1326.09 111.691C1324.7 113.281 1322.89 114.524 1320.68 115.418C1318.48 116.297 1315.95 116.736 1313.07 116.736ZM1345.09 95.8724V116.054H1335.41V81.1451H1344.64V87.3042H1345.04C1345.82 85.2739 1347.11 83.6678 1348.93 82.486C1350.75 81.289 1352.95 80.6906 1355.54 80.6906C1357.97 80.6906 1360.08 81.2209 1361.89 82.2815C1363.69 83.3421 1365.09 84.8572 1366.09 86.8269C1367.09 88.7815 1367.59 91.1148 1367.59 93.8269V116.054H1357.91V95.5542C1357.92 93.4178 1357.38 91.7512 1356.27 90.5542C1355.17 89.3421 1353.64 88.736 1351.7 88.736C1350.4 88.736 1349.25 89.0163 1348.25 89.5769C1347.26 90.1375 1346.49 90.9557 1345.93 92.0315C1345.39 93.0921 1345.11 94.3724 1345.09 95.8724ZM1390.99 116.736C1387.42 116.736 1384.34 115.978 1381.77 114.463C1379.21 112.933 1377.24 110.812 1375.86 108.1C1374.49 105.388 1373.81 102.266 1373.81 98.736C1373.81 95.1603 1374.5 92.0239 1375.88 89.3269C1377.27 86.6148 1379.25 84.5012 1381.81 82.986C1384.37 81.4557 1387.42 80.6906 1390.95 80.6906C1393.99 80.6906 1396.66 81.2436 1398.95 82.3497C1401.24 83.4557 1403.05 85.0087 1404.38 87.0087C1405.71 89.0087 1406.45 91.3572 1406.58 94.0542H1397.45C1397.19 92.3118 1396.51 90.9103 1395.4 89.8497C1394.31 88.7739 1392.88 88.236 1391.11 88.236C1389.61 88.236 1388.3 88.6451 1387.18 89.4633C1386.07 90.2663 1385.21 91.4406 1384.58 92.986C1383.96 94.5315 1383.65 96.4027 1383.65 98.5997C1383.65 100.827 1383.96 102.721 1384.56 104.281C1385.18 105.842 1386.05 107.031 1387.18 107.85C1388.3 108.668 1389.61 109.077 1391.11 109.077C1392.21 109.077 1393.21 108.85 1394.08 108.395C1394.98 107.941 1395.71 107.281 1396.29 106.418C1396.88 105.539 1397.27 104.486 1397.45 103.259H1406.58C1406.43 105.925 1405.71 108.274 1404.4 110.304C1403.11 112.319 1401.33 113.895 1399.06 115.031C1396.79 116.168 1394.1 116.736 1390.99 116.736ZM1428.69 116.736C1425.1 116.736 1422.01 116.009 1419.42 114.554C1416.84 113.085 1414.86 111.009 1413.47 108.327C1412.07 105.63 1411.37 102.441 1411.37 98.7587C1411.37 95.1678 1412.07 92.0163 1413.47 89.3042C1414.86 86.5921 1416.82 84.4784 1419.35 82.9633C1421.9 81.4481 1424.88 80.6906 1428.31 80.6906C1430.61 80.6906 1432.75 81.0618 1434.74 81.8042C1436.74 82.5315 1438.48 83.63 1439.97 85.0997C1441.47 86.5694 1442.63 88.4178 1443.47 90.6451C1444.3 92.8572 1444.72 95.4481 1444.72 98.4178V101.077H1415.24V95.0769H1435.6C1435.6 93.683 1435.3 92.4481 1434.69 91.3724C1434.09 90.2966 1433.25 89.4557 1432.17 88.8497C1431.11 88.2284 1429.87 87.9178 1428.47 87.9178C1427 87.9178 1425.69 88.2587 1424.56 88.9406C1423.44 89.6072 1422.56 90.5087 1421.92 91.6451C1421.28 92.7663 1420.96 94.0163 1420.94 95.3951V101.1C1420.94 102.827 1421.26 104.319 1421.9 105.577C1422.55 106.835 1423.47 107.804 1424.65 108.486C1425.83 109.168 1427.23 109.509 1428.85 109.509C1429.93 109.509 1430.91 109.357 1431.81 109.054C1432.7 108.751 1433.47 108.297 1434.1 107.691C1434.74 107.085 1435.22 106.342 1435.56 105.463L1444.51 106.054C1444.06 108.206 1443.12 110.085 1441.72 111.691C1440.32 113.281 1438.52 114.524 1436.31 115.418C1434.11 116.297 1431.57 116.736 1428.69 116.736Z" fill="black"/>
<path id="independency, equivalence, explore at least one run per equivalence class" d="M187.61 306.054V288.6H191.008V306.054H187.61ZM189.326 285.906C188.735 285.906 188.228 285.71 187.803 285.316C187.387 284.914 187.178 284.437 187.178 283.884C187.178 283.323 187.387 282.846 187.803 282.452C188.228 282.05 188.735 281.85 189.326 281.85C189.917 281.85 190.421 282.05 190.838 282.452C191.262 282.846 191.474 283.323 191.474 283.884C191.474 284.437 191.262 284.914 190.838 285.316C190.421 285.71 189.917 285.906 189.326 285.906ZM198.977 295.691V306.054H195.579V288.6H198.84V291.441H199.056C199.458 290.516 200.087 289.774 200.943 289.213C201.806 288.653 202.893 288.372 204.204 288.372C205.393 288.372 206.435 288.622 207.329 289.122C208.223 289.615 208.916 290.35 209.409 291.327C209.901 292.304 210.147 293.513 210.147 294.952V306.054H206.749V295.361C206.749 294.096 206.42 293.107 205.761 292.395C205.102 291.675 204.196 291.316 203.045 291.316C202.257 291.316 201.556 291.486 200.943 291.827C200.337 292.168 199.856 292.668 199.499 293.327C199.151 293.978 198.977 294.766 198.977 295.691ZM221.238 306.395C219.829 306.395 218.571 306.035 217.465 305.316C216.367 304.588 215.503 303.554 214.874 302.213C214.253 300.865 213.943 299.247 213.943 297.361C213.943 295.475 214.257 293.861 214.886 292.52C215.522 291.179 216.393 290.153 217.499 289.441C218.606 288.728 219.859 288.372 221.261 288.372C222.344 288.372 223.215 288.554 223.874 288.918C224.541 289.274 225.056 289.691 225.42 290.168C225.791 290.645 226.079 291.066 226.284 291.429H226.488V282.781H229.886V306.054H226.568V303.338H226.284C226.079 303.71 225.784 304.134 225.397 304.611C225.018 305.088 224.496 305.505 223.829 305.861C223.162 306.217 222.299 306.395 221.238 306.395ZM221.988 303.497C222.965 303.497 223.791 303.24 224.465 302.725C225.147 302.202 225.662 301.478 226.011 300.554C226.367 299.63 226.545 298.554 226.545 297.327C226.545 296.115 226.371 295.054 226.022 294.145C225.674 293.236 225.162 292.528 224.488 292.02C223.814 291.513 222.981 291.259 221.988 291.259C220.965 291.259 220.113 291.524 219.431 292.054C218.749 292.585 218.234 293.308 217.886 294.225C217.545 295.141 217.374 296.175 217.374 297.327C217.374 298.494 217.549 299.543 217.897 300.475C218.246 301.406 218.761 302.145 219.443 302.691C220.132 303.228 220.981 303.497 221.988 303.497ZM242.258 306.406C240.538 306.406 239.057 306.039 237.815 305.304C236.58 304.562 235.625 303.52 234.951 302.179C234.285 300.831 233.951 299.251 233.951 297.441C233.951 295.653 234.285 294.077 234.951 292.713C235.625 291.35 236.565 290.285 237.769 289.52C238.981 288.755 240.398 288.372 242.019 288.372C243.004 288.372 243.959 288.535 244.883 288.861C245.807 289.187 246.637 289.698 247.372 290.395C248.106 291.092 248.686 291.997 249.11 293.111C249.535 294.217 249.747 295.562 249.747 297.145V298.35H235.872V295.804H246.417C246.417 294.91 246.235 294.119 245.872 293.429C245.508 292.732 244.997 292.183 244.338 291.781C243.686 291.38 242.921 291.179 242.042 291.179C241.088 291.179 240.254 291.414 239.542 291.884C238.838 292.346 238.292 292.952 237.906 293.702C237.527 294.444 237.338 295.251 237.338 296.122V298.111C237.338 299.278 237.542 300.27 237.951 301.088C238.368 301.906 238.947 302.531 239.69 302.963C240.432 303.388 241.3 303.6 242.292 303.6C242.936 303.6 243.523 303.509 244.053 303.327C244.584 303.138 245.042 302.857 245.428 302.486C245.815 302.115 246.11 301.656 246.315 301.111L249.531 301.691C249.273 302.638 248.811 303.467 248.144 304.179C247.485 304.884 246.656 305.433 245.656 305.827C244.663 306.213 243.531 306.406 242.258 306.406ZM253.517 312.6V288.6H256.835V291.429H257.119C257.316 291.066 257.6 290.645 257.971 290.168C258.342 289.691 258.857 289.274 259.517 288.918C260.176 288.554 261.047 288.372 262.13 288.372C263.539 288.372 264.797 288.728 265.903 289.441C267.009 290.153 267.876 291.179 268.505 292.52C269.142 293.861 269.46 295.475 269.46 297.361C269.46 299.247 269.145 300.865 268.517 302.213C267.888 303.554 267.024 304.588 265.926 305.316C264.827 306.035 263.573 306.395 262.164 306.395C261.104 306.395 260.236 306.217 259.562 305.861C258.895 305.505 258.373 305.088 257.994 304.611C257.615 304.134 257.323 303.71 257.119 303.338H256.914V312.6H253.517ZM256.846 297.327C256.846 298.554 257.024 299.63 257.38 300.554C257.736 301.478 258.251 302.202 258.926 302.725C259.6 303.24 260.426 303.497 261.403 303.497C262.418 303.497 263.267 303.228 263.948 302.691C264.63 302.145 265.145 301.406 265.494 300.475C265.85 299.543 266.028 298.494 266.028 297.327C266.028 296.175 265.854 295.141 265.505 294.225C265.164 293.308 264.649 292.585 263.96 292.054C263.278 291.524 262.426 291.259 261.403 291.259C260.418 291.259 259.585 291.513 258.903 292.02C258.229 292.528 257.717 293.236 257.369 294.145C257.02 295.054 256.846 296.115 256.846 297.327ZM280.789 306.406C279.07 306.406 277.588 306.039 276.346 305.304C275.111 304.562 274.157 303.52 273.482 302.179C272.816 300.831 272.482 299.251 272.482 297.441C272.482 295.653 272.816 294.077 273.482 292.713C274.157 291.35 275.096 290.285 276.301 289.52C277.513 288.755 278.929 288.372 280.551 288.372C281.535 288.372 282.49 288.535 283.414 288.861C284.338 289.187 285.168 289.698 285.903 290.395C286.638 291.092 287.217 291.997 287.642 293.111C288.066 294.217 288.278 295.562 288.278 297.145V298.35H274.403V295.804H284.948C284.948 294.91 284.767 294.119 284.403 293.429C284.039 292.732 283.528 292.183 282.869 291.781C282.217 291.38 281.452 291.179 280.573 291.179C279.619 291.179 278.785 291.414 278.073 291.884C277.369 292.346 276.823 292.952 276.437 293.702C276.058 294.444 275.869 295.251 275.869 296.122V298.111C275.869 299.278 276.073 300.27 276.482 301.088C276.899 301.906 277.479 302.531 278.221 302.963C278.963 303.388 279.831 303.6 280.823 303.6C281.467 303.6 282.054 303.509 282.585 303.327C283.115 303.138 283.573 302.857 283.96 302.486C284.346 302.115 284.642 301.656 284.846 301.111L288.062 301.691C287.804 302.638 287.342 303.467 286.676 304.179C286.017 304.884 285.187 305.433 284.187 305.827C283.195 306.213 282.062 306.406 280.789 306.406ZM295.445 295.691V306.054H292.048V288.6H295.309V291.441H295.525C295.927 290.516 296.555 289.774 297.411 289.213C298.275 288.653 299.362 288.372 300.673 288.372C301.862 288.372 302.904 288.622 303.798 289.122C304.692 289.615 305.385 290.35 305.877 291.327C306.37 292.304 306.616 293.513 306.616 294.952V306.054H303.218V295.361C303.218 294.096 302.889 293.107 302.23 292.395C301.57 291.675 300.665 291.316 299.514 291.316C298.726 291.316 298.025 291.486 297.411 291.827C296.805 292.168 296.324 292.668 295.968 293.327C295.62 293.978 295.445 294.766 295.445 295.691ZM317.707 306.395C316.298 306.395 315.04 306.035 313.934 305.316C312.836 304.588 311.972 303.554 311.343 302.213C310.722 300.865 310.411 299.247 310.411 297.361C310.411 295.475 310.726 293.861 311.355 292.52C311.991 291.179 312.862 290.153 313.968 289.441C315.074 288.728 316.328 288.372 317.73 288.372C318.813 288.372 319.684 288.554 320.343 288.918C321.01 289.274 321.525 289.691 321.889 290.168C322.26 290.645 322.548 291.066 322.752 291.429H322.957V282.781H326.355V306.054H323.036V303.338H322.752C322.548 303.71 322.252 304.134 321.866 304.611C321.487 305.088 320.964 305.505 320.298 305.861C319.631 306.217 318.767 306.395 317.707 306.395ZM318.457 303.497C319.434 303.497 320.26 303.24 320.934 302.725C321.616 302.202 322.131 301.478 322.48 300.554C322.836 299.63 323.014 298.554 323.014 297.327C323.014 296.115 322.839 295.054 322.491 294.145C322.142 293.236 321.631 292.528 320.957 292.02C320.283 291.513 319.449 291.259 318.457 291.259C317.434 291.259 316.582 291.524 315.9 292.054C315.218 292.585 314.703 293.308 314.355 294.225C314.014 295.141 313.843 296.175 313.843 297.327C313.843 298.494 314.017 299.543 314.366 300.475C314.714 301.406 315.23 302.145 315.911 302.691C316.601 303.228 317.449 303.497 318.457 303.497ZM338.727 306.406C337.007 306.406 335.526 306.039 334.284 305.304C333.049 304.562 332.094 303.52 331.42 302.179C330.753 300.831 330.42 299.251 330.42 297.441C330.42 295.653 330.753 294.077 331.42 292.713C332.094 291.35 333.034 290.285 334.238 289.52C335.45 288.755 336.867 288.372 338.488 288.372C339.473 288.372 340.427 288.535 341.352 288.861C342.276 289.187 343.106 289.698 343.84 290.395C344.575 291.092 345.155 291.997 345.579 293.111C346.003 294.217 346.215 295.562 346.215 297.145V298.35H332.34V295.804H342.886C342.886 294.91 342.704 294.119 342.34 293.429C341.977 292.732 341.465 292.183 340.806 291.781C340.155 291.38 339.39 291.179 338.511 291.179C337.556 291.179 336.723 291.414 336.011 291.884C335.306 292.346 334.761 292.952 334.374 293.702C333.996 294.444 333.806 295.251 333.806 296.122V298.111C333.806 299.278 334.011 300.27 334.42 301.088C334.837 301.906 335.416 302.531 336.159 302.963C336.901 303.388 337.768 303.6 338.761 303.6C339.405 303.6 339.992 303.509 340.522 303.327C341.052 303.138 341.511 302.857 341.897 302.486C342.284 302.115 342.579 301.656 342.784 301.111L345.999 301.691C345.742 302.638 345.28 303.467 344.613 304.179C343.954 304.884 343.124 305.433 342.124 305.827C341.132 306.213 339.999 306.406 338.727 306.406ZM353.383 295.691V306.054H349.985V288.6H353.247V291.441H353.463C353.864 290.516 354.493 289.774 355.349 289.213C356.213 288.653 357.3 288.372 358.61 288.372C359.8 288.372 360.841 288.622 361.735 289.122C362.629 289.615 363.322 290.35 363.815 291.327C364.307 292.304 364.553 293.513 364.553 294.952V306.054H361.156V295.361C361.156 294.096 360.826 293.107 360.167 292.395C359.508 291.675 358.603 291.316 357.451 291.316C356.663 291.316 355.963 291.486 355.349 291.827C354.743 292.168 354.262 292.668 353.906 293.327C353.557 293.978 353.383 294.766 353.383 295.691ZM376.463 306.406C374.773 306.406 373.319 306.024 372.099 305.259C370.887 304.486 369.955 303.422 369.303 302.066C368.652 300.71 368.326 299.156 368.326 297.406C368.326 295.634 368.66 294.069 369.326 292.713C369.993 291.35 370.932 290.285 372.144 289.52C373.356 288.755 374.785 288.372 376.428 288.372C377.754 288.372 378.936 288.619 379.974 289.111C381.012 289.596 381.849 290.278 382.485 291.156C383.129 292.035 383.512 293.062 383.633 294.236H380.326C380.144 293.418 379.728 292.713 379.076 292.122C378.432 291.531 377.569 291.236 376.485 291.236C375.538 291.236 374.709 291.486 373.997 291.986C373.292 292.478 372.743 293.183 372.349 294.1C371.955 295.009 371.758 296.085 371.758 297.327C371.758 298.6 371.951 299.698 372.338 300.622C372.724 301.547 373.269 302.263 373.974 302.77C374.686 303.278 375.523 303.531 376.485 303.531C377.129 303.531 377.713 303.414 378.235 303.179C378.766 302.937 379.209 302.592 379.565 302.145C379.928 301.698 380.182 301.16 380.326 300.531H383.633C383.512 301.66 383.144 302.668 382.531 303.554C381.917 304.441 381.095 305.138 380.065 305.645C379.042 306.153 377.841 306.406 376.463 306.406ZM389.414 312.6C388.907 312.6 388.445 312.558 388.028 312.475C387.611 312.399 387.301 312.316 387.096 312.225L387.914 309.441C388.535 309.607 389.088 309.679 389.573 309.656C390.058 309.634 390.486 309.452 390.857 309.111C391.236 308.77 391.57 308.213 391.857 307.441L392.278 306.281L385.892 288.6H389.528L393.948 302.145H394.13L398.551 288.6H402.198L395.005 308.384C394.672 309.293 394.248 310.062 393.732 310.691C393.217 311.327 392.604 311.804 391.892 312.122C391.179 312.441 390.354 312.6 389.414 312.6ZM408.718 302.872L408.548 304.111C408.434 305.02 408.241 305.967 407.968 306.952C407.703 307.944 407.427 308.865 407.139 309.713C406.858 310.562 406.627 311.236 406.445 311.736H404.036C404.135 311.266 404.271 310.63 404.445 309.827C404.62 309.031 404.79 308.141 404.957 307.156C405.124 306.172 405.249 305.168 405.332 304.145L405.445 302.872H408.718ZM429.133 306.406C427.413 306.406 425.932 306.039 424.69 305.304C423.455 304.562 422.5 303.52 421.826 302.179C421.16 300.831 420.826 299.251 420.826 297.441C420.826 295.653 421.16 294.077 421.826 292.713C422.5 291.35 423.44 290.285 424.644 289.52C425.856 288.755 427.273 288.372 428.894 288.372C429.879 288.372 430.834 288.535 431.758 288.861C432.682 289.187 433.512 289.698 434.247 290.395C434.981 291.092 435.561 291.997 435.985 293.111C436.41 294.217 436.622 295.562 436.622 297.145V298.35H422.747V295.804H433.292C433.292 294.91 433.11 294.119 432.747 293.429C432.383 292.732 431.872 292.183 431.213 291.781C430.561 291.38 429.796 291.179 428.917 291.179C427.963 291.179 427.129 291.414 426.417 291.884C425.713 292.346 425.167 292.952 424.781 293.702C424.402 294.444 424.213 295.251 424.213 296.122V298.111C424.213 299.278 424.417 300.27 424.826 301.088C425.243 301.906 425.822 302.531 426.565 302.963C427.307 303.388 428.175 303.6 429.167 303.6C429.811 303.6 430.398 303.509 430.928 303.327C431.459 303.138 431.917 302.857 432.303 302.486C432.69 302.115 432.985 301.656 433.19 301.111L436.406 301.691C436.148 302.638 435.686 303.467 435.019 304.179C434.36 304.884 433.531 305.433 432.531 305.827C431.538 306.213 430.406 306.406 429.133 306.406ZM452.176 312.6V303.338H451.971C451.767 303.71 451.471 304.134 451.085 304.611C450.706 305.088 450.183 305.505 449.517 305.861C448.85 306.217 447.986 306.395 446.926 306.395C445.517 306.395 444.259 306.035 443.153 305.316C442.054 304.588 441.191 303.554 440.562 302.213C439.941 300.865 439.63 299.247 439.63 297.361C439.63 295.475 439.945 293.861 440.573 292.52C441.21 291.179 442.081 290.153 443.187 289.441C444.293 288.728 445.547 288.372 446.948 288.372C448.032 288.372 448.903 288.554 449.562 288.918C450.229 289.274 450.744 289.691 451.107 290.168C451.479 290.645 451.767 291.066 451.971 291.429H452.255V288.6H455.573V312.6H452.176ZM447.676 303.497C448.653 303.497 449.479 303.24 450.153 302.725C450.835 302.202 451.35 301.478 451.698 300.554C452.054 299.63 452.232 298.554 452.232 297.327C452.232 296.115 452.058 295.054 451.71 294.145C451.361 293.236 450.85 292.528 450.176 292.02C449.501 291.513 448.668 291.259 447.676 291.259C446.653 291.259 445.801 291.524 445.119 292.054C444.437 292.585 443.922 293.308 443.573 294.225C443.232 295.141 443.062 296.175 443.062 297.327C443.062 298.494 443.236 299.543 443.585 300.475C443.933 301.406 444.448 302.145 445.13 302.691C445.82 303.228 446.668 303.497 447.676 303.497ZM471.198 298.816V288.6H474.607V306.054H471.267V303.031H471.085C470.683 303.963 470.039 304.74 469.153 305.361C468.274 305.975 467.179 306.281 465.869 306.281C464.748 306.281 463.755 306.035 462.892 305.543C462.035 305.043 461.361 304.304 460.869 303.327C460.384 302.35 460.142 301.141 460.142 299.702V288.6H463.539V299.293C463.539 300.482 463.869 301.429 464.528 302.134C465.187 302.838 466.043 303.191 467.096 303.191C467.732 303.191 468.365 303.031 468.994 302.713C469.63 302.395 470.157 301.914 470.573 301.27C470.998 300.626 471.206 299.808 471.198 298.816ZM479.173 306.054V288.6H482.57V306.054H479.173ZM480.889 285.906C480.298 285.906 479.79 285.71 479.366 285.316C478.949 284.914 478.741 284.437 478.741 283.884C478.741 283.323 478.949 282.846 479.366 282.452C479.79 282.05 480.298 281.85 480.889 281.85C481.48 281.85 481.983 282.05 482.4 282.452C482.824 282.846 483.036 283.323 483.036 283.884C483.036 284.437 482.824 284.914 482.4 285.316C481.983 285.71 481.48 285.906 480.889 285.906ZM502.073 288.6L495.744 306.054H492.107L485.767 288.6H489.414L493.835 302.031H494.017L498.426 288.6H502.073ZM509.846 306.441C508.74 306.441 507.74 306.236 506.846 305.827C505.952 305.41 505.244 304.808 504.721 304.02C504.206 303.232 503.948 302.266 503.948 301.122C503.948 300.138 504.138 299.327 504.517 298.691C504.895 298.054 505.407 297.55 506.051 297.179C506.695 296.808 507.414 296.528 508.21 296.338C509.005 296.149 509.816 296.005 510.642 295.906C511.687 295.785 512.535 295.687 513.187 295.611C513.838 295.528 514.312 295.395 514.607 295.213C514.903 295.031 515.051 294.736 515.051 294.327V294.247C515.051 293.255 514.77 292.486 514.21 291.941C513.657 291.395 512.831 291.122 511.732 291.122C510.588 291.122 509.687 291.376 509.028 291.884C508.376 292.384 507.926 292.941 507.676 293.554L504.482 292.827C504.861 291.766 505.414 290.91 506.142 290.259C506.876 289.6 507.721 289.122 508.676 288.827C509.63 288.524 510.634 288.372 511.687 288.372C512.384 288.372 513.123 288.456 513.903 288.622C514.691 288.781 515.426 289.077 516.107 289.509C516.797 289.941 517.361 290.558 517.801 291.361C518.24 292.156 518.46 293.191 518.46 294.463V306.054H515.142V303.668H515.005C514.785 304.107 514.456 304.539 514.017 304.963C513.577 305.388 513.013 305.74 512.323 306.02C511.634 306.3 510.808 306.441 509.846 306.441ZM510.585 303.713C511.524 303.713 512.327 303.528 512.994 303.156C513.668 302.785 514.179 302.3 514.528 301.702C514.884 301.096 515.062 300.448 515.062 299.759V297.509C514.941 297.63 514.706 297.744 514.357 297.85C514.017 297.948 513.626 298.035 513.187 298.111C512.748 298.179 512.32 298.244 511.903 298.304C511.486 298.357 511.138 298.403 510.857 298.441C510.198 298.524 509.596 298.664 509.051 298.861C508.513 299.058 508.081 299.342 507.755 299.713C507.437 300.077 507.278 300.562 507.278 301.168C507.278 302.009 507.588 302.645 508.21 303.077C508.831 303.501 509.623 303.713 510.585 303.713ZM526.383 282.781V306.054H522.985V282.781H526.383ZM538.477 306.406C536.757 306.406 535.276 306.039 534.034 305.304C532.799 304.562 531.844 303.52 531.17 302.179C530.503 300.831 530.17 299.251 530.17 297.441C530.17 295.653 530.503 294.077 531.17 292.713C531.844 291.35 532.784 290.285 533.988 289.52C535.2 288.755 536.617 288.372 538.238 288.372C539.223 288.372 540.177 288.535 541.102 288.861C542.026 289.187 542.856 289.698 543.59 290.395C544.325 291.092 544.905 291.997 545.329 293.111C545.753 294.217 545.965 295.562 545.965 297.145V298.35H532.09V295.804H542.636C542.636 294.91 542.454 294.119 542.09 293.429C541.727 292.732 541.215 292.183 540.556 291.781C539.905 291.38 539.14 291.179 538.261 291.179C537.306 291.179 536.473 291.414 535.761 291.884C535.056 292.346 534.511 292.952 534.124 293.702C533.746 294.444 533.556 295.251 533.556 296.122V298.111C533.556 299.278 533.761 300.27 534.17 301.088C534.587 301.906 535.166 302.531 535.909 302.963C536.651 303.388 537.518 303.6 538.511 303.6C539.155 303.6 539.742 303.509 540.272 303.327C540.802 303.138 541.261 302.857 541.647 302.486C542.034 302.115 542.329 301.656 542.534 301.111L545.749 301.691C545.492 302.638 545.03 303.467 544.363 304.179C543.704 304.884 542.874 305.433 541.874 305.827C540.882 306.213 539.749 306.406 538.477 306.406ZM553.133 295.691V306.054H549.735V288.6H552.997V291.441H553.213C553.614 290.516 554.243 289.774 555.099 289.213C555.963 288.653 557.05 288.372 558.36 288.372C559.55 288.372 560.591 288.622 561.485 289.122C562.379 289.615 563.072 290.35 563.565 291.327C564.057 292.304 564.303 293.513 564.303 294.952V306.054H560.906V295.361C560.906 294.096 560.576 293.107 559.917 292.395C559.258 291.675 558.353 291.316 557.201 291.316C556.413 291.316 555.713 291.486 555.099 291.827C554.493 292.168 554.012 292.668 553.656 293.327C553.307 293.978 553.133 294.766 553.133 295.691ZM576.213 306.406C574.523 306.406 573.069 306.024 571.849 305.259C570.637 304.486 569.705 303.422 569.053 302.066C568.402 300.71 568.076 299.156 568.076 297.406C568.076 295.634 568.41 294.069 569.076 292.713C569.743 291.35 570.682 290.285 571.894 289.52C573.106 288.755 574.535 288.372 576.178 288.372C577.504 288.372 578.686 288.619 579.724 289.111C580.762 289.596 581.599 290.278 582.235 291.156C582.879 292.035 583.262 293.062 583.383 294.236H580.076C579.894 293.418 579.478 292.713 578.826 292.122C578.182 291.531 577.319 291.236 576.235 291.236C575.288 291.236 574.459 291.486 573.747 291.986C573.042 292.478 572.493 293.183 572.099 294.1C571.705 295.009 571.508 296.085 571.508 297.327C571.508 298.6 571.701 299.698 572.088 300.622C572.474 301.547 573.019 302.263 573.724 302.77C574.436 303.278 575.273 303.531 576.235 303.531C576.879 303.531 577.463 303.414 577.985 303.179C578.516 302.937 578.959 302.592 579.315 302.145C579.678 301.698 579.932 301.16 580.076 300.531H583.383C583.262 301.66 582.894 302.668 582.281 303.554C581.667 304.441 580.845 305.138 579.815 305.645C578.792 306.153 577.591 306.406 576.213 306.406ZM594.539 306.406C592.82 306.406 591.338 306.039 590.096 305.304C588.861 304.562 587.907 303.52 587.232 302.179C586.566 300.831 586.232 299.251 586.232 297.441C586.232 295.653 586.566 294.077 587.232 292.713C587.907 291.35 588.846 290.285 590.051 289.52C591.263 288.755 592.679 288.372 594.301 288.372C595.285 288.372 596.24 288.535 597.164 288.861C598.088 289.187 598.918 289.698 599.653 290.395C600.388 291.092 600.967 291.997 601.392 293.111C601.816 294.217 602.028 295.562 602.028 297.145V298.35H588.153V295.804H598.698C598.698 294.91 598.517 294.119 598.153 293.429C597.789 292.732 597.278 292.183 596.619 291.781C595.967 291.38 595.202 291.179 594.323 291.179C593.369 291.179 592.535 291.414 591.823 291.884C591.119 292.346 590.573 292.952 590.187 293.702C589.808 294.444 589.619 295.251 589.619 296.122V298.111C589.619 299.278 589.823 300.27 590.232 301.088C590.649 301.906 591.229 302.531 591.971 302.963C592.713 303.388 593.581 303.6 594.573 303.6C595.217 303.6 595.804 303.509 596.335 303.327C596.865 303.138 597.323 302.857 597.71 302.486C598.096 302.115 598.392 301.656 598.596 301.111L601.812 301.691C601.554 302.638 601.092 303.467 600.426 304.179C599.767 304.884 598.937 305.433 597.937 305.827C596.945 306.213 595.812 306.406 594.539 306.406ZM610.218 302.872L610.048 304.111C609.934 305.02 609.741 305.967 609.468 306.952C609.203 307.944 608.927 308.865 608.639 309.713C608.358 310.562 608.127 311.236 607.945 311.736H605.536C605.635 311.266 605.771 310.63 605.945 309.827C606.12 309.031 606.29 308.141 606.457 307.156C606.624 306.172 606.749 305.168 606.832 304.145L606.945 302.872H610.218ZM630.633 306.406C628.913 306.406 627.432 306.039 626.19 305.304C624.955 304.562 624 303.52 623.326 302.179C622.66 300.831 622.326 299.251 622.326 297.441C622.326 295.653 622.66 294.077 623.326 292.713C624 291.35 624.94 290.285 626.144 289.52C627.356 288.755 628.773 288.372 630.394 288.372C631.379 288.372 632.334 288.535 633.258 288.861C634.182 289.187 635.012 289.698 635.747 290.395C636.481 291.092 637.061 291.997 637.485 293.111C637.91 294.217 638.122 295.562 638.122 297.145V298.35H624.247V295.804H634.792C634.792 294.91 634.61 294.119 634.247 293.429C633.883 292.732 633.372 292.183 632.713 291.781C632.061 291.38 631.296 291.179 630.417 291.179C629.463 291.179 628.629 291.414 627.917 291.884C627.213 292.346 626.667 292.952 626.281 293.702C625.902 294.444 625.713 295.251 625.713 296.122V298.111C625.713 299.278 625.917 300.27 626.326 301.088C626.743 301.906 627.322 302.531 628.065 302.963C628.807 303.388 629.675 303.6 630.667 303.6C631.311 303.6 631.898 303.509 632.428 303.327C632.959 303.138 633.417 302.857 633.803 302.486C634.19 302.115 634.485 301.656 634.69 301.111L637.906 301.691C637.648 302.638 637.186 303.467 636.519 304.179C635.86 304.884 635.031 305.433 634.031 305.827C633.038 306.213 631.906 306.406 630.633 306.406ZM644.167 288.6L648.019 295.395L651.906 288.6H655.622L650.178 297.327L655.667 306.054H651.951L648.019 299.531L644.099 306.054H640.372L645.803 297.327L640.44 288.6H644.167ZM659.11 312.6V288.6H662.428V291.429H662.713C662.91 291.066 663.194 290.645 663.565 290.168C663.936 289.691 664.451 289.274 665.11 288.918C665.769 288.554 666.641 288.372 667.724 288.372C669.133 288.372 670.391 288.728 671.497 289.441C672.603 290.153 673.47 291.179 674.099 292.52C674.735 293.861 675.053 295.475 675.053 297.361C675.053 299.247 674.739 300.865 674.11 302.213C673.481 303.554 672.618 304.588 671.519 305.316C670.421 306.035 669.167 306.395 667.758 306.395C666.697 306.395 665.83 306.217 665.156 305.861C664.489 305.505 663.966 305.088 663.588 304.611C663.209 304.134 662.917 303.71 662.713 303.338H662.508V312.6H659.11ZM662.44 297.327C662.44 298.554 662.618 299.63 662.974 300.554C663.33 301.478 663.845 302.202 664.519 302.725C665.194 303.24 666.019 303.497 666.997 303.497C668.012 303.497 668.86 303.228 669.542 302.691C670.224 302.145 670.739 301.406 671.088 300.475C671.444 299.543 671.622 298.494 671.622 297.327C671.622 296.175 671.447 295.141 671.099 294.225C670.758 293.308 670.243 292.585 669.553 292.054C668.872 291.524 668.019 291.259 666.997 291.259C666.012 291.259 665.178 291.513 664.497 292.02C663.822 292.528 663.311 293.236 662.963 294.145C662.614 295.054 662.44 296.115 662.44 297.327ZM682.258 282.781V306.054H678.86V282.781H682.258ZM694.181 306.406C692.545 306.406 691.117 306.031 689.897 305.281C688.677 304.531 687.731 303.482 687.056 302.134C686.382 300.785 686.045 299.21 686.045 297.406C686.045 295.596 686.382 294.013 687.056 292.656C687.731 291.3 688.677 290.247 689.897 289.497C691.117 288.747 692.545 288.372 694.181 288.372C695.818 288.372 697.246 288.747 698.465 289.497C699.685 290.247 700.632 291.3 701.306 292.656C701.981 294.013 702.318 295.596 702.318 297.406C702.318 299.21 701.981 300.785 701.306 302.134C700.632 303.482 699.685 304.531 698.465 305.281C697.246 306.031 695.818 306.406 694.181 306.406ZM694.193 303.554C695.253 303.554 696.132 303.274 696.829 302.713C697.526 302.153 698.041 301.406 698.374 300.475C698.715 299.543 698.886 298.516 698.886 297.395C698.886 296.281 698.715 295.259 698.374 294.327C698.041 293.388 697.526 292.634 696.829 292.066C696.132 291.497 695.253 291.213 694.193 291.213C693.124 291.213 692.238 291.497 691.534 292.066C690.837 292.634 690.318 293.388 689.977 294.327C689.643 295.259 689.477 296.281 689.477 297.395C689.477 298.516 689.643 299.543 689.977 300.475C690.318 301.406 690.837 302.153 691.534 302.713C692.238 303.274 693.124 303.554 694.193 303.554ZM706.11 306.054V288.6H709.394V291.372H709.576C709.894 290.433 710.455 289.694 711.258 289.156C712.069 288.611 712.985 288.338 714.008 288.338C714.22 288.338 714.47 288.346 714.758 288.361C715.053 288.376 715.285 288.395 715.451 288.418V291.668C715.315 291.63 715.072 291.588 714.724 291.543C714.375 291.49 714.027 291.463 713.678 291.463C712.875 291.463 712.16 291.634 711.531 291.975C710.91 292.308 710.417 292.774 710.053 293.372C709.69 293.963 709.508 294.638 709.508 295.395V306.054H706.11ZM725.289 306.406C723.57 306.406 722.088 306.039 720.846 305.304C719.611 304.562 718.657 303.52 717.982 302.179C717.316 300.831 716.982 299.251 716.982 297.441C716.982 295.653 717.316 294.077 717.982 292.713C718.657 291.35 719.596 290.285 720.801 289.52C722.013 288.755 723.429 288.372 725.051 288.372C726.035 288.372 726.99 288.535 727.914 288.861C728.838 289.187 729.668 289.698 730.403 290.395C731.138 291.092 731.717 291.997 732.142 293.111C732.566 294.217 732.778 295.562 732.778 297.145V298.35H718.903V295.804H729.448C729.448 294.91 729.267 294.119 728.903 293.429C728.539 292.732 728.028 292.183 727.369 291.781C726.717 291.38 725.952 291.179 725.073 291.179C724.119 291.179 723.285 291.414 722.573 291.884C721.869 292.346 721.323 292.952 720.937 293.702C720.558 294.444 720.369 295.251 720.369 296.122V298.111C720.369 299.278 720.573 300.27 720.982 301.088C721.399 301.906 721.979 302.531 722.721 302.963C723.463 303.388 724.331 303.6 725.323 303.6C725.967 303.6 726.554 303.509 727.085 303.327C727.615 303.138 728.073 302.857 728.46 302.486C728.846 302.115 729.142 301.656 729.346 301.111L732.562 301.691C732.304 302.638 731.842 303.467 731.176 304.179C730.517 304.884 729.687 305.433 728.687 305.827C727.695 306.213 726.562 306.406 725.289 306.406ZM750.096 306.441C748.99 306.441 747.99 306.236 747.096 305.827C746.202 305.41 745.494 304.808 744.971 304.02C744.456 303.232 744.198 302.266 744.198 301.122C744.198 300.138 744.388 299.327 744.767 298.691C745.145 298.054 745.657 297.55 746.301 297.179C746.945 296.808 747.664 296.528 748.46 296.338C749.255 296.149 750.066 296.005 750.892 295.906C751.937 295.785 752.785 295.687 753.437 295.611C754.088 295.528 754.562 295.395 754.857 295.213C755.153 295.031 755.301 294.736 755.301 294.327V294.247C755.301 293.255 755.02 292.486 754.46 291.941C753.907 291.395 753.081 291.122 751.982 291.122C750.838 291.122 749.937 291.376 749.278 291.884C748.626 292.384 748.176 292.941 747.926 293.554L744.732 292.827C745.111 291.766 745.664 290.91 746.392 290.259C747.126 289.6 747.971 289.122 748.926 288.827C749.88 288.524 750.884 288.372 751.937 288.372C752.634 288.372 753.373 288.456 754.153 288.622C754.941 288.781 755.676 289.077 756.357 289.509C757.047 289.941 757.611 290.558 758.051 291.361C758.49 292.156 758.71 293.191 758.71 294.463V306.054H755.392V303.668H755.255C755.035 304.107 754.706 304.539 754.267 304.963C753.827 305.388 753.263 305.74 752.573 306.02C751.884 306.3 751.058 306.441 750.096 306.441ZM750.835 303.713C751.774 303.713 752.577 303.528 753.244 303.156C753.918 302.785 754.429 302.3 754.778 301.702C755.134 301.096 755.312 300.448 755.312 299.759V297.509C755.191 297.63 754.956 297.744 754.607 297.85C754.267 297.948 753.876 298.035 753.437 298.111C752.998 298.179 752.57 298.244 752.153 298.304C751.736 298.357 751.388 298.403 751.107 298.441C750.448 298.524 749.846 298.664 749.301 298.861C748.763 299.058 748.331 299.342 748.005 299.713C747.687 300.077 747.528 300.562 747.528 301.168C747.528 302.009 747.838 302.645 748.46 303.077C749.081 303.501 749.873 303.713 750.835 303.713ZM771.383 288.6V291.327H761.849V288.6H771.383ZM764.406 284.418H767.803V300.929C767.803 301.588 767.902 302.085 768.099 302.418C768.296 302.744 768.55 302.967 768.86 303.088C769.178 303.202 769.523 303.259 769.894 303.259C770.167 303.259 770.406 303.24 770.61 303.202C770.815 303.164 770.974 303.134 771.088 303.111L771.701 305.918C771.504 305.994 771.224 306.069 770.86 306.145C770.497 306.228 770.042 306.274 769.497 306.281C768.603 306.297 767.769 306.138 766.997 305.804C766.224 305.471 765.599 304.956 765.122 304.259C764.644 303.562 764.406 302.687 764.406 301.634V284.418ZM787.008 282.781V306.054H783.61V282.781H787.008ZM799.102 306.406C797.382 306.406 795.901 306.039 794.659 305.304C793.424 304.562 792.469 303.52 791.795 302.179C791.128 300.831 790.795 299.251 790.795 297.441C790.795 295.653 791.128 294.077 791.795 292.713C792.469 291.35 793.409 290.285 794.613 289.52C795.825 288.755 797.242 288.372 798.863 288.372C799.848 288.372 800.802 288.535 801.727 288.861C802.651 289.187 803.481 289.698 804.215 290.395C804.95 291.092 805.53 291.997 805.954 293.111C806.378 294.217 806.59 295.562 806.59 297.145V298.35H792.715V295.804H803.261C803.261 294.91 803.079 294.119 802.715 293.429C802.352 292.732 801.84 292.183 801.181 291.781C800.53 291.38 799.765 291.179 798.886 291.179C797.931 291.179 797.098 291.414 796.386 291.884C795.681 292.346 795.136 292.952 794.749 293.702C794.371 294.444 794.181 295.251 794.181 296.122V298.111C794.181 299.278 794.386 300.27 794.795 301.088C795.212 301.906 795.791 302.531 796.534 302.963C797.276 303.388 798.143 303.6 799.136 303.6C799.78 303.6 800.367 303.509 800.897 303.327C801.427 303.138 801.886 302.857 802.272 302.486C802.659 302.115 802.954 301.656 803.159 301.111L806.374 301.691C806.117 302.638 805.655 303.467 804.988 304.179C804.329 304.884 803.499 305.433 802.499 305.827C801.507 306.213 800.374 306.406 799.102 306.406ZM815.44 306.441C814.334 306.441 813.334 306.236 812.44 305.827C811.546 305.41 810.838 304.808 810.315 304.02C809.8 303.232 809.542 302.266 809.542 301.122C809.542 300.138 809.731 299.327 810.11 298.691C810.489 298.054 811 297.55 811.644 297.179C812.288 296.808 813.008 296.528 813.803 296.338C814.599 296.149 815.41 296.005 816.235 295.906C817.281 295.785 818.129 295.687 818.781 295.611C819.432 295.528 819.906 295.395 820.201 295.213C820.497 295.031 820.644 294.736 820.644 294.327V294.247C820.644 293.255 820.364 292.486 819.803 291.941C819.25 291.395 818.425 291.122 817.326 291.122C816.182 291.122 815.281 291.376 814.622 291.884C813.97 292.384 813.519 292.941 813.269 293.554L810.076 292.827C810.455 291.766 811.008 290.91 811.735 290.259C812.47 289.6 813.315 289.122 814.269 288.827C815.224 288.524 816.228 288.372 817.281 288.372C817.978 288.372 818.716 288.456 819.497 288.622C820.285 288.781 821.019 289.077 821.701 289.509C822.391 289.941 822.955 290.558 823.394 291.361C823.834 292.156 824.053 293.191 824.053 294.463V306.054H820.735V303.668H820.599C820.379 304.107 820.05 304.539 819.61 304.963C819.171 305.388 818.606 305.74 817.917 306.02C817.228 306.3 816.402 306.441 815.44 306.441ZM816.178 303.713C817.118 303.713 817.921 303.528 818.588 303.156C819.262 302.785 819.773 302.3 820.122 301.702C820.478 301.096 820.656 300.448 820.656 299.759V297.509C820.535 297.63 820.3 297.744 819.951 297.85C819.61 297.948 819.22 298.035 818.781 298.111C818.341 298.179 817.913 298.244 817.497 298.304C817.08 298.357 816.731 298.403 816.451 298.441C815.792 298.524 815.19 298.664 814.644 298.861C814.106 299.058 813.675 299.342 813.349 299.713C813.031 300.077 812.872 300.562 812.872 301.168C812.872 302.009 813.182 302.645 813.803 303.077C814.425 303.501 815.216 303.713 816.178 303.713ZM841.659 292.861L838.579 293.406C838.45 293.013 838.246 292.638 837.965 292.281C837.693 291.925 837.321 291.634 836.852 291.406C836.382 291.179 835.795 291.066 835.09 291.066C834.128 291.066 833.325 291.281 832.681 291.713C832.037 292.138 831.715 292.687 831.715 293.361C831.715 293.944 831.931 294.414 832.363 294.77C832.795 295.126 833.492 295.418 834.454 295.645L837.227 296.281C838.833 296.653 840.03 297.225 840.818 297.997C841.606 298.77 841.999 299.774 841.999 301.009C841.999 302.054 841.696 302.986 841.09 303.804C840.492 304.615 839.655 305.251 838.579 305.713C837.511 306.175 836.272 306.406 834.863 306.406C832.909 306.406 831.314 305.99 830.079 305.156C828.844 304.316 828.087 303.122 827.806 301.577L831.09 301.077C831.295 301.933 831.715 302.581 832.352 303.02C832.988 303.452 833.818 303.668 834.84 303.668C835.954 303.668 836.844 303.437 837.511 302.975C838.177 302.505 838.511 301.933 838.511 301.259C838.511 300.713 838.306 300.255 837.897 299.884C837.496 299.513 836.878 299.232 836.045 299.043L833.09 298.395C831.462 298.024 830.257 297.433 829.477 296.622C828.704 295.812 828.318 294.785 828.318 293.543C828.318 292.513 828.606 291.611 829.181 290.838C829.757 290.066 830.552 289.463 831.568 289.031C832.583 288.592 833.746 288.372 835.056 288.372C836.943 288.372 838.427 288.781 839.511 289.6C840.594 290.41 841.31 291.497 841.659 292.861ZM853.883 288.6V291.327H844.349V288.6H853.883ZM846.906 284.418H850.303V300.929C850.303 301.588 850.402 302.085 850.599 302.418C850.796 302.744 851.05 302.967 851.36 303.088C851.678 303.202 852.023 303.259 852.394 303.259C852.667 303.259 852.906 303.24 853.11 303.202C853.315 303.164 853.474 303.134 853.588 303.111L854.201 305.918C854.004 305.994 853.724 306.069 853.36 306.145C852.997 306.228 852.542 306.274 851.997 306.281C851.103 306.297 850.269 306.138 849.497 305.804C848.724 305.471 848.099 304.956 847.622 304.259C847.144 303.562 846.906 302.687 846.906 301.634V284.418ZM873.463 306.406C871.826 306.406 870.398 306.031 869.178 305.281C867.959 304.531 867.012 303.482 866.338 302.134C865.663 300.785 865.326 299.21 865.326 297.406C865.326 295.596 865.663 294.013 866.338 292.656C867.012 291.3 867.959 290.247 869.178 289.497C870.398 288.747 871.826 288.372 873.463 288.372C875.099 288.372 876.527 288.747 877.747 289.497C878.966 290.247 879.913 291.3 880.588 292.656C881.262 294.013 881.599 295.596 881.599 297.406C881.599 299.21 881.262 300.785 880.588 302.134C879.913 303.482 878.966 304.531 877.747 305.281C876.527 306.031 875.099 306.406 873.463 306.406ZM873.474 303.554C874.535 303.554 875.413 303.274 876.11 302.713C876.807 302.153 877.322 301.406 877.656 300.475C877.997 299.543 878.167 298.516 878.167 297.395C878.167 296.281 877.997 295.259 877.656 294.327C877.322 293.388 876.807 292.634 876.11 292.066C875.413 291.497 874.535 291.213 873.474 291.213C872.406 291.213 871.519 291.497 870.815 292.066C870.118 292.634 869.599 293.388 869.258 294.327C868.925 295.259 868.758 296.281 868.758 297.395C868.758 298.516 868.925 299.543 869.258 300.475C869.599 301.406 870.118 302.153 870.815 302.713C871.519 303.274 872.406 303.554 873.474 303.554ZM888.789 295.691V306.054H885.392V288.6H888.653V291.441H888.869C889.27 290.516 889.899 289.774 890.755 289.213C891.619 288.653 892.706 288.372 894.017 288.372C895.206 288.372 896.248 288.622 897.142 289.122C898.035 289.615 898.729 290.35 899.221 291.327C899.713 292.304 899.96 293.513 899.96 294.952V306.054H896.562V295.361C896.562 294.096 896.232 293.107 895.573 292.395C894.914 291.675 894.009 291.316 892.857 291.316C892.07 291.316 891.369 291.486 890.755 291.827C890.149 292.168 889.668 292.668 889.312 293.327C888.963 293.978 888.789 294.766 888.789 295.691ZM912.039 306.406C910.32 306.406 908.838 306.039 907.596 305.304C906.361 304.562 905.407 303.52 904.732 302.179C904.066 300.831 903.732 299.251 903.732 297.441C903.732 295.653 904.066 294.077 904.732 292.713C905.407 291.35 906.346 290.285 907.551 289.52C908.763 288.755 910.179 288.372 911.801 288.372C912.785 288.372 913.74 288.535 914.664 288.861C915.588 289.187 916.418 289.698 917.153 290.395C917.888 291.092 918.467 291.997 918.892 293.111C919.316 294.217 919.528 295.562 919.528 297.145V298.35H905.653V295.804H916.198C916.198 294.91 916.017 294.119 915.653 293.429C915.289 292.732 914.778 292.183 914.119 291.781C913.467 291.38 912.702 291.179 911.823 291.179C910.869 291.179 910.035 291.414 909.323 291.884C908.619 292.346 908.073 292.952 907.687 293.702C907.308 294.444 907.119 295.251 907.119 296.122V298.111C907.119 299.278 907.323 300.27 907.732 301.088C908.149 301.906 908.729 302.531 909.471 302.963C910.213 303.388 911.081 303.6 912.073 303.6C912.717 303.6 913.304 303.509 913.835 303.327C914.365 303.138 914.823 302.857 915.21 302.486C915.596 302.115 915.892 301.656 916.096 301.111L919.312 301.691C919.054 302.638 918.592 303.467 917.926 304.179C917.267 304.884 916.437 305.433 915.437 305.827C914.445 306.213 913.312 306.406 912.039 306.406ZM931.767 306.054V288.6H935.051V291.372H935.232C935.551 290.433 936.111 289.694 936.914 289.156C937.725 288.611 938.642 288.338 939.664 288.338C939.876 288.338 940.126 288.346 940.414 288.361C940.71 288.376 940.941 288.395 941.107 288.418V291.668C940.971 291.63 940.729 291.588 940.38 291.543C940.032 291.49 939.683 291.463 939.335 291.463C938.532 291.463 937.816 291.634 937.187 291.975C936.566 292.308 936.073 292.774 935.71 293.372C935.346 293.963 935.164 294.638 935.164 295.395V306.054H931.767ZM955.105 298.816V288.6H958.514V306.054H955.173V303.031H954.991C954.589 303.963 953.945 304.74 953.059 305.361C952.18 305.975 951.086 306.281 949.775 306.281C948.654 306.281 947.661 306.035 946.798 305.543C945.942 305.043 945.267 304.304 944.775 303.327C944.29 302.35 944.048 301.141 944.048 299.702V288.6H947.445V299.293C947.445 300.482 947.775 301.429 948.434 302.134C949.093 302.838 949.949 303.191 951.002 303.191C951.639 303.191 952.271 303.031 952.9 302.713C953.536 302.395 954.063 301.914 954.48 301.27C954.904 300.626 955.112 299.808 955.105 298.816ZM966.477 295.691V306.054H963.079V288.6H966.34V291.441H966.556C966.958 290.516 967.587 289.774 968.443 289.213C969.306 288.653 970.393 288.372 971.704 288.372C972.893 288.372 973.935 288.622 974.829 289.122C975.723 289.615 976.416 290.35 976.909 291.327C977.401 292.304 977.647 293.513 977.647 294.952V306.054H974.249V295.361C974.249 294.096 973.92 293.107 973.261 292.395C972.602 291.675 971.696 291.316 970.545 291.316C969.757 291.316 969.056 291.486 968.443 291.827C967.837 292.168 967.356 292.668 966.999 293.327C966.651 293.978 966.477 294.766 966.477 295.691ZM990.673 312.6V288.6H993.991V291.429H994.275C994.472 291.066 994.756 290.645 995.127 290.168C995.499 289.691 996.014 289.274 996.673 288.918C997.332 288.554 998.203 288.372 999.286 288.372C1000.7 288.372 1001.95 288.728 1003.06 289.441C1004.17 290.153 1005.03 291.179 1005.66 292.52C1006.3 293.861 1006.62 295.475 1006.62 297.361C1006.62 299.247 1006.3 300.865 1005.67 302.213C1005.04 303.554 1004.18 304.588 1003.08 305.316C1001.98 306.035 1000.73 306.395 999.32 306.395C998.26 306.395 997.392 306.217 996.718 305.861C996.052 305.505 995.529 305.088 995.15 304.611C994.771 304.134 994.48 303.71 994.275 303.338H994.07V312.6H990.673ZM994.002 297.327C994.002 298.554 994.18 299.63 994.536 300.554C994.892 301.478 995.408 302.202 996.082 302.725C996.756 303.24 997.582 303.497 998.559 303.497C999.574 303.497 1000.42 303.228 1001.1 302.691C1001.79 302.145 1002.3 301.406 1002.65 300.475C1003.01 299.543 1003.18 298.494 1003.18 297.327C1003.18 296.175 1003.01 295.141 1002.66 294.225C1002.32 293.308 1001.81 292.585 1001.12 292.054C1000.43 291.524 999.582 291.259 998.559 291.259C997.574 291.259 996.741 291.513 996.059 292.02C995.385 292.528 994.874 293.236 994.525 294.145C994.177 295.054 994.002 296.115 994.002 297.327ZM1017.95 306.406C1016.23 306.406 1014.74 306.039 1013.5 305.304C1012.27 304.562 1011.31 303.52 1010.64 302.179C1009.97 300.831 1009.64 299.251 1009.64 297.441C1009.64 295.653 1009.97 294.077 1010.64 292.713C1011.31 291.35 1012.25 290.285 1013.46 289.52C1014.67 288.755 1016.09 288.372 1017.71 288.372C1018.69 288.372 1019.65 288.535 1020.57 288.861C1021.49 289.187 1022.32 289.698 1023.06 290.395C1023.79 291.092 1024.37 291.997 1024.8 293.111C1025.22 294.217 1025.43 295.562 1025.43 297.145V298.35H1011.56V295.804H1022.1C1022.1 294.91 1021.92 294.119 1021.56 293.429C1021.2 292.732 1020.68 292.183 1020.03 291.781C1019.37 291.38 1018.61 291.179 1017.73 291.179C1016.78 291.179 1015.94 291.414 1015.23 291.884C1014.53 292.346 1013.98 292.952 1013.59 293.702C1013.21 294.444 1013.03 295.251 1013.03 296.122V298.111C1013.03 299.278 1013.23 300.27 1013.64 301.088C1014.06 301.906 1014.63 302.531 1015.38 302.963C1016.12 303.388 1016.99 303.6 1017.98 303.6C1018.62 303.6 1019.21 303.509 1019.74 303.327C1020.27 303.138 1020.73 302.857 1021.12 302.486C1021.5 302.115 1021.8 301.656 1022 301.111L1025.22 301.691C1024.96 302.638 1024.5 303.467 1023.83 304.179C1023.17 304.884 1022.34 305.433 1021.34 305.827C1020.35 306.213 1019.22 306.406 1017.95 306.406ZM1029.2 306.054V288.6H1032.49V291.372H1032.67C1032.99 290.433 1033.55 289.694 1034.35 289.156C1035.16 288.611 1036.08 288.338 1037.1 288.338C1037.31 288.338 1037.56 288.346 1037.85 288.361C1038.15 288.376 1038.38 288.395 1038.54 288.418V291.668C1038.41 291.63 1038.17 291.588 1037.82 291.543C1037.47 291.49 1037.12 291.463 1036.77 291.463C1035.97 291.463 1035.25 291.634 1034.62 291.975C1034 292.308 1033.51 292.774 1033.15 293.372C1032.78 293.963 1032.6 294.638 1032.6 295.395V306.054H1029.2ZM1057.48 306.406C1055.76 306.406 1054.28 306.039 1053.03 305.304C1051.8 304.562 1050.84 303.52 1050.17 302.179C1049.5 300.831 1049.17 299.251 1049.17 297.441C1049.17 295.653 1049.5 294.077 1050.17 292.713C1050.84 291.35 1051.78 290.285 1052.99 289.52C1054.2 288.755 1055.62 288.372 1057.24 288.372C1058.22 288.372 1059.18 288.535 1060.1 288.861C1061.03 289.187 1061.86 289.698 1062.59 290.395C1063.33 291.092 1063.9 291.997 1064.33 293.111C1064.75 294.217 1064.97 295.562 1064.97 297.145V298.35H1051.09V295.804H1061.64C1061.64 294.91 1061.45 294.119 1061.09 293.429C1060.73 292.732 1060.22 292.183 1059.56 291.781C1058.9 291.38 1058.14 291.179 1057.26 291.179C1056.31 291.179 1055.47 291.414 1054.76 291.884C1054.06 292.346 1053.51 292.952 1053.12 293.702C1052.75 294.444 1052.56 295.251 1052.56 296.122V298.111C1052.56 299.278 1052.76 300.27 1053.17 301.088C1053.59 301.906 1054.17 302.531 1054.91 302.963C1055.65 303.388 1056.52 303.6 1057.51 303.6C1058.15 303.6 1058.74 303.509 1059.27 303.327C1059.8 303.138 1060.26 302.857 1060.65 302.486C1061.03 302.115 1061.33 301.656 1061.53 301.111L1064.75 301.691C1064.49 302.638 1064.03 303.467 1063.36 304.179C1062.7 304.884 1061.87 305.433 1060.87 305.827C1059.88 306.213 1058.75 306.406 1057.48 306.406ZM1080.52 312.6V303.338H1080.31C1080.11 303.71 1079.81 304.134 1079.43 304.611C1079.05 305.088 1078.53 305.505 1077.86 305.861C1077.19 306.217 1076.33 306.395 1075.27 306.395C1073.86 306.395 1072.6 306.035 1071.5 305.316C1070.4 304.588 1069.53 303.554 1068.91 302.213C1068.28 300.865 1067.97 299.247 1067.97 297.361C1067.97 295.475 1068.29 293.861 1068.92 292.52C1069.55 291.179 1070.42 290.153 1071.53 289.441C1072.64 288.728 1073.89 288.372 1075.29 288.372C1076.38 288.372 1077.25 288.554 1077.91 288.918C1078.57 289.274 1079.09 289.691 1079.45 290.168C1079.82 290.645 1080.11 291.066 1080.31 291.429H1080.6V288.6H1083.92V312.6H1080.52ZM1076.02 303.497C1077 303.497 1077.82 303.24 1078.5 302.725C1079.18 302.202 1079.69 301.478 1080.04 300.554C1080.4 299.63 1080.58 298.554 1080.58 297.327C1080.58 296.115 1080.4 295.054 1080.05 294.145C1079.7 293.236 1079.19 292.528 1078.52 292.02C1077.85 291.513 1077.01 291.259 1076.02 291.259C1075 291.259 1074.14 291.524 1073.46 292.054C1072.78 292.585 1072.27 293.308 1071.92 294.225C1071.58 295.141 1071.41 296.175 1071.41 297.327C1071.41 298.494 1071.58 299.543 1071.93 300.475C1072.28 301.406 1072.79 302.145 1073.47 302.691C1074.16 303.228 1075.01 303.497 1076.02 303.497ZM1099.54 298.816V288.6H1102.95V306.054H1099.61V303.031H1099.43C1099.03 303.963 1098.38 304.74 1097.5 305.361C1096.62 305.975 1095.52 306.281 1094.21 306.281C1093.09 306.281 1092.1 306.035 1091.24 305.543C1090.38 305.043 1089.7 304.304 1089.21 303.327C1088.73 302.35 1088.49 301.141 1088.49 299.702V288.6H1091.88V299.293C1091.88 300.482 1092.21 301.429 1092.87 302.134C1093.53 302.838 1094.39 303.191 1095.44 303.191C1096.08 303.191 1096.71 303.031 1097.34 302.713C1097.97 302.395 1098.5 301.914 1098.92 301.27C1099.34 300.626 1099.55 299.808 1099.54 298.816ZM1107.52 306.054V288.6H1110.91V306.054H1107.52ZM1109.23 285.906C1108.64 285.906 1108.13 285.71 1107.71 285.316C1107.29 284.914 1107.08 284.437 1107.08 283.884C1107.08 283.323 1107.29 282.846 1107.71 282.452C1108.13 282.05 1108.64 281.85 1109.23 281.85C1109.82 281.85 1110.33 282.05 1110.74 282.452C1111.17 282.846 1111.38 283.323 1111.38 283.884C1111.38 284.437 1111.17 284.914 1110.74 285.316C1110.33 285.71 1109.82 285.906 1109.23 285.906ZM1130.42 288.6L1124.09 306.054H1120.45L1114.11 288.6H1117.76L1122.18 302.031H1122.36L1126.77 288.6H1130.42ZM1138.19 306.441C1137.08 306.441 1136.08 306.236 1135.19 305.827C1134.3 305.41 1133.59 304.808 1133.06 304.02C1132.55 303.232 1132.29 302.266 1132.29 301.122C1132.29 300.138 1132.48 299.327 1132.86 298.691C1133.24 298.054 1133.75 297.55 1134.39 297.179C1135.04 296.808 1135.76 296.528 1136.55 296.338C1137.35 296.149 1138.16 296.005 1138.99 295.906C1140.03 295.785 1140.88 295.687 1141.53 295.611C1142.18 295.528 1142.66 295.395 1142.95 295.213C1143.25 295.031 1143.39 294.736 1143.39 294.327V294.247C1143.39 293.255 1143.11 292.486 1142.55 291.941C1142 291.395 1141.17 291.122 1140.08 291.122C1138.93 291.122 1138.03 291.376 1137.37 291.884C1136.72 292.384 1136.27 292.941 1136.02 293.554L1132.83 292.827C1133.2 291.766 1133.76 290.91 1134.49 290.259C1135.22 289.6 1136.06 289.122 1137.02 288.827C1137.97 288.524 1138.98 288.372 1140.03 288.372C1140.73 288.372 1141.47 288.456 1142.25 288.622C1143.03 288.781 1143.77 289.077 1144.45 289.509C1145.14 289.941 1145.7 290.558 1146.14 291.361C1146.58 292.156 1146.8 293.191 1146.8 294.463V306.054H1143.49V303.668H1143.35C1143.13 304.107 1142.8 304.539 1142.36 304.963C1141.92 305.388 1141.36 305.74 1140.67 306.02C1139.98 306.3 1139.15 306.441 1138.19 306.441ZM1138.93 303.713C1139.87 303.713 1140.67 303.528 1141.34 303.156C1142.01 302.785 1142.52 302.3 1142.87 301.702C1143.23 301.096 1143.41 300.448 1143.41 299.759V297.509C1143.28 297.63 1143.05 297.744 1142.7 297.85C1142.36 297.948 1141.97 298.035 1141.53 298.111C1141.09 298.179 1140.66 298.244 1140.25 298.304C1139.83 298.357 1139.48 298.403 1139.2 298.441C1138.54 298.524 1137.94 298.664 1137.39 298.861C1136.86 299.058 1136.42 299.342 1136.1 299.713C1135.78 300.077 1135.62 300.562 1135.62 301.168C1135.62 302.009 1135.93 302.645 1136.55 303.077C1137.17 303.501 1137.97 303.713 1138.93 303.713ZM1154.73 282.781V306.054H1151.33V282.781H1154.73ZM1166.82 306.406C1165.1 306.406 1163.62 306.039 1162.38 305.304C1161.14 304.562 1160.19 303.52 1159.51 302.179C1158.85 300.831 1158.51 299.251 1158.51 297.441C1158.51 295.653 1158.85 294.077 1159.51 292.713C1160.19 291.35 1161.13 290.285 1162.33 289.52C1163.54 288.755 1164.96 288.372 1166.58 288.372C1167.57 288.372 1168.52 288.535 1169.45 288.861C1170.37 289.187 1171.2 289.698 1171.93 290.395C1172.67 291.092 1173.25 291.997 1173.67 293.111C1174.1 294.217 1174.31 295.562 1174.31 297.145V298.35H1160.43V295.804H1170.98C1170.98 294.91 1170.8 294.119 1170.43 293.429C1170.07 292.732 1169.56 292.183 1168.9 291.781C1168.25 291.38 1167.48 291.179 1166.6 291.179C1165.65 291.179 1164.82 291.414 1164.1 291.884C1163.4 292.346 1162.85 292.952 1162.47 293.702C1162.09 294.444 1161.9 295.251 1161.9 296.122V298.111C1161.9 299.278 1162.1 300.27 1162.51 301.088C1162.93 301.906 1163.51 302.531 1164.25 302.963C1164.99 303.388 1165.86 303.6 1166.85 303.6C1167.5 303.6 1168.09 303.509 1168.62 303.327C1169.15 303.138 1169.6 302.857 1169.99 302.486C1170.38 302.115 1170.67 301.656 1170.88 301.111L1174.09 301.691C1173.84 302.638 1173.37 303.467 1172.71 304.179C1172.05 304.884 1171.22 305.433 1170.22 305.827C1169.23 306.213 1168.09 306.406 1166.82 306.406ZM1181.48 295.691V306.054H1178.08V288.6H1181.34V291.441H1181.56C1181.96 290.516 1182.59 289.774 1183.44 289.213C1184.31 288.653 1185.39 288.372 1186.7 288.372C1187.89 288.372 1188.94 288.622 1189.83 289.122C1190.72 289.615 1191.42 290.35 1191.91 291.327C1192.4 292.304 1192.65 293.513 1192.65 294.952V306.054H1189.25V295.361C1189.25 294.096 1188.92 293.107 1188.26 292.395C1187.6 291.675 1186.7 291.316 1185.54 291.316C1184.76 291.316 1184.06 291.486 1183.44 291.827C1182.84 292.168 1182.36 292.668 1182 293.327C1181.65 293.978 1181.48 294.766 1181.48 295.691ZM1204.56 306.406C1202.87 306.406 1201.41 306.024 1200.19 305.259C1198.98 304.486 1198.05 303.422 1197.4 302.066C1196.75 300.71 1196.42 299.156 1196.42 297.406C1196.42 295.634 1196.75 294.069 1197.42 292.713C1198.09 291.35 1199.03 290.285 1200.24 289.52C1201.45 288.755 1202.88 288.372 1204.52 288.372C1205.85 288.372 1207.03 288.619 1208.07 289.111C1209.11 289.596 1209.94 290.278 1210.58 291.156C1211.22 292.035 1211.61 293.062 1211.73 294.236H1208.42C1208.24 293.418 1207.82 292.713 1207.17 292.122C1206.53 291.531 1205.66 291.236 1204.58 291.236C1203.63 291.236 1202.8 291.486 1202.09 291.986C1201.39 292.478 1200.84 293.183 1200.44 294.1C1200.05 295.009 1199.85 296.085 1199.85 297.327C1199.85 298.6 1200.04 299.698 1200.43 300.622C1200.82 301.547 1201.36 302.263 1202.07 302.77C1202.78 303.278 1203.62 303.531 1204.58 303.531C1205.22 303.531 1205.81 303.414 1206.33 303.179C1206.86 302.937 1207.3 302.592 1207.66 302.145C1208.02 301.698 1208.28 301.16 1208.42 300.531H1211.73C1211.61 301.66 1211.24 302.668 1210.62 303.554C1210.01 304.441 1209.19 305.138 1208.16 305.645C1207.14 306.153 1205.94 306.406 1204.56 306.406ZM1222.88 306.406C1221.16 306.406 1219.68 306.039 1218.44 305.304C1217.2 304.562 1216.25 303.52 1215.58 302.179C1214.91 300.831 1214.58 299.251 1214.58 297.441C1214.58 295.653 1214.91 294.077 1215.58 292.713C1216.25 291.35 1217.19 290.285 1218.39 289.52C1219.61 288.755 1221.02 288.372 1222.64 288.372C1223.63 288.372 1224.58 288.535 1225.51 288.861C1226.43 289.187 1227.26 289.698 1228 290.395C1228.73 291.092 1229.31 291.997 1229.74 293.111C1230.16 294.217 1230.37 295.562 1230.37 297.145V298.35H1216.5V295.804H1227.04C1227.04 294.91 1226.86 294.119 1226.5 293.429C1226.13 292.732 1225.62 292.183 1224.96 291.781C1224.31 291.38 1223.55 291.179 1222.67 291.179C1221.71 291.179 1220.88 291.414 1220.17 291.884C1219.46 292.346 1218.92 292.952 1218.53 293.702C1218.15 294.444 1217.96 295.251 1217.96 296.122V298.111C1217.96 299.278 1218.17 300.27 1218.58 301.088C1218.99 301.906 1219.57 302.531 1220.31 302.963C1221.06 303.388 1221.92 303.6 1222.92 303.6C1223.56 303.6 1224.15 303.509 1224.68 303.327C1225.21 303.138 1225.67 302.857 1226.05 302.486C1226.44 302.115 1226.74 301.656 1226.94 301.111L1230.16 301.691C1229.9 302.638 1229.44 303.467 1228.77 304.179C1228.11 304.884 1227.28 305.433 1226.28 305.827C1225.29 306.213 1224.16 306.406 1222.88 306.406ZM1249.96 306.406C1248.27 306.406 1246.82 306.024 1245.6 305.259C1244.39 304.486 1243.45 303.422 1242.8 302.066C1242.15 300.71 1241.83 299.156 1241.83 297.406C1241.83 295.634 1242.16 294.069 1242.83 292.713C1243.49 291.35 1244.43 290.285 1245.64 289.52C1246.86 288.755 1248.28 288.372 1249.93 288.372C1251.25 288.372 1252.44 288.619 1253.47 289.111C1254.51 289.596 1255.35 290.278 1255.99 291.156C1256.63 292.035 1257.01 293.062 1257.13 294.236H1253.83C1253.64 293.418 1253.23 292.713 1252.58 292.122C1251.93 291.531 1251.07 291.236 1249.99 291.236C1249.04 291.236 1248.21 291.486 1247.5 291.986C1246.79 292.478 1246.24 293.183 1245.85 294.1C1245.45 295.009 1245.26 296.085 1245.26 297.327C1245.26 298.6 1245.45 299.698 1245.84 300.622C1246.22 301.547 1246.77 302.263 1247.47 302.77C1248.19 303.278 1249.02 303.531 1249.99 303.531C1250.63 303.531 1251.21 303.414 1251.74 303.179C1252.27 302.937 1252.71 302.592 1253.06 302.145C1253.43 301.698 1253.68 301.16 1253.83 300.531H1257.13C1257.01 301.66 1256.64 302.668 1256.03 303.554C1255.42 304.441 1254.6 305.138 1253.56 305.645C1252.54 306.153 1251.34 306.406 1249.96 306.406ZM1264.16 282.781V306.054H1260.77V282.781H1264.16ZM1273.81 306.441C1272.71 306.441 1271.71 306.236 1270.81 305.827C1269.92 305.41 1269.21 304.808 1268.69 304.02C1268.17 303.232 1267.92 302.266 1267.92 301.122C1267.92 300.138 1268.11 299.327 1268.49 298.691C1268.86 298.054 1269.38 297.55 1270.02 297.179C1270.66 296.808 1271.38 296.528 1272.18 296.338C1272.97 296.149 1273.78 296.005 1274.61 295.906C1275.66 295.785 1276.5 295.687 1277.16 295.611C1277.81 295.528 1278.28 295.395 1278.58 295.213C1278.87 295.031 1279.02 294.736 1279.02 294.327V294.247C1279.02 293.255 1278.74 292.486 1278.18 291.941C1277.63 291.395 1276.8 291.122 1275.7 291.122C1274.56 291.122 1273.66 291.376 1273 291.884C1272.35 292.384 1271.89 292.941 1271.64 293.554L1268.45 292.827C1268.83 291.766 1269.38 290.91 1270.11 290.259C1270.85 289.6 1271.69 289.122 1272.64 288.827C1273.6 288.524 1274.6 288.372 1275.66 288.372C1276.35 288.372 1277.09 288.456 1277.87 288.622C1278.66 288.781 1279.39 289.077 1280.08 289.509C1280.77 289.941 1281.33 290.558 1281.77 291.361C1282.21 292.156 1282.43 293.191 1282.43 294.463V306.054H1279.11V303.668H1278.97C1278.75 304.107 1278.42 304.539 1277.99 304.963C1277.55 305.388 1276.98 305.74 1276.29 306.02C1275.6 306.3 1274.78 306.441 1273.81 306.441ZM1274.55 303.713C1275.49 303.713 1276.3 303.528 1276.96 303.156C1277.64 302.785 1278.15 302.3 1278.5 301.702C1278.85 301.096 1279.03 300.448 1279.03 299.759V297.509C1278.91 297.63 1278.67 297.744 1278.33 297.85C1277.99 297.948 1277.6 298.035 1277.16 298.111C1276.72 298.179 1276.29 298.244 1275.87 298.304C1275.45 298.357 1275.11 298.403 1274.83 298.441C1274.17 298.524 1273.56 298.664 1273.02 298.861C1272.48 299.058 1272.05 299.342 1271.72 299.713C1271.41 300.077 1271.25 300.562 1271.25 301.168C1271.25 302.009 1271.56 302.645 1272.18 303.077C1272.8 303.501 1273.59 303.713 1274.55 303.713ZM1300.03 292.861L1296.95 293.406C1296.83 293.013 1296.62 292.638 1296.34 292.281C1296.07 291.925 1295.7 291.634 1295.23 291.406C1294.76 291.179 1294.17 291.066 1293.47 291.066C1292.5 291.066 1291.7 291.281 1291.06 291.713C1290.41 292.138 1290.09 292.687 1290.09 293.361C1290.09 293.944 1290.31 294.414 1290.74 294.77C1291.17 295.126 1291.87 295.418 1292.83 295.645L1295.6 296.281C1297.21 296.653 1298.4 297.225 1299.19 297.997C1299.98 298.77 1300.37 299.774 1300.37 301.009C1300.37 302.054 1300.07 302.986 1299.47 303.804C1298.87 304.615 1298.03 305.251 1296.95 305.713C1295.89 306.175 1294.65 306.406 1293.24 306.406C1291.28 306.406 1289.69 305.99 1288.45 305.156C1287.22 304.316 1286.46 303.122 1286.18 301.577L1289.47 301.077C1289.67 301.933 1290.09 302.581 1290.73 303.02C1291.36 303.452 1292.19 303.668 1293.22 303.668C1294.33 303.668 1295.22 303.437 1295.89 302.975C1296.55 302.505 1296.89 301.933 1296.89 301.259C1296.89 300.713 1296.68 300.255 1296.27 299.884C1295.87 299.513 1295.25 299.232 1294.42 299.043L1291.47 298.395C1289.84 298.024 1288.63 297.433 1287.85 296.622C1287.08 295.812 1286.69 294.785 1286.69 293.543C1286.69 292.513 1286.98 291.611 1287.56 290.838C1288.13 290.066 1288.93 289.463 1289.94 289.031C1290.96 288.592 1292.12 288.372 1293.43 288.372C1295.32 288.372 1296.8 288.781 1297.89 289.6C1298.97 290.41 1299.69 291.497 1300.03 292.861ZM1317.19 292.861L1314.11 293.406C1313.98 293.013 1313.78 292.638 1313.5 292.281C1313.22 291.925 1312.85 291.634 1312.38 291.406C1311.91 291.179 1311.33 291.066 1310.62 291.066C1309.66 291.066 1308.86 291.281 1308.21 291.713C1307.57 292.138 1307.25 292.687 1307.25 293.361C1307.25 293.944 1307.46 294.414 1307.89 294.77C1308.33 295.126 1309.02 295.418 1309.99 295.645L1312.76 296.281C1314.36 296.653 1315.56 297.225 1316.35 297.997C1317.14 298.77 1317.53 299.774 1317.53 301.009C1317.53 302.054 1317.23 302.986 1316.62 303.804C1316.02 304.615 1315.19 305.251 1314.11 305.713C1313.04 306.175 1311.8 306.406 1310.39 306.406C1308.44 306.406 1306.85 305.99 1305.61 305.156C1304.38 304.316 1303.62 303.122 1303.34 301.577L1306.62 301.077C1306.83 301.933 1307.25 302.581 1307.88 303.02C1308.52 303.452 1309.35 303.668 1310.37 303.668C1311.49 303.668 1312.38 303.437 1313.04 302.975C1313.71 302.505 1314.04 301.933 1314.04 301.259C1314.04 300.713 1313.84 300.255 1313.43 299.884C1313.03 299.513 1312.41 299.232 1311.58 299.043L1308.62 298.395C1306.99 298.024 1305.79 297.433 1305.01 296.622C1304.24 295.812 1303.85 294.785 1303.85 293.543C1303.85 292.513 1304.14 291.611 1304.71 290.838C1305.29 290.066 1306.08 289.463 1307.1 289.031C1308.11 288.592 1309.28 288.372 1310.59 288.372C1312.47 288.372 1313.96 288.781 1315.04 289.6C1316.13 290.41 1316.84 291.497 1317.19 292.861Z" fill="black"/>
</g>
</svg>
