<svg width="1920" height="1080" viewBox="0 0 1920 1080" fill="none" xmlns="http://www.w3.org/2000/svg">
<g id="Mazurkiewicz trace equivalence">
<rect width="1920" height="1080" fill="white"/>
<path id="Mazurkiewicz&#226;&#128;&#153;s trace equivalence" d="M394.528 69.5083H406.664L419.482 100.781H420.028L432.846 69.5083H444.982V116.054H435.437V85.7583H435.051L423.005 115.826H416.505L404.46 85.6446H404.073V116.054H394.528V69.5083ZM462.863 116.713C460.636 116.713 458.651 116.326 456.909 115.554C455.166 114.766 453.787 113.607 452.772 112.076C451.772 110.531 451.272 108.607 451.272 106.304C451.272 104.364 451.628 102.736 452.34 101.417C453.052 100.099 454.022 99.0386 455.249 98.2355C456.477 97.4325 457.871 96.8264 459.431 96.4173C461.007 96.0083 462.659 95.7204 464.386 95.5537C466.416 95.3416 468.052 95.1446 469.295 94.9628C470.537 94.7658 471.439 94.478 471.999 94.0992C472.56 93.7204 472.84 93.1598 472.84 92.4173V92.281C472.84 90.8416 472.386 89.728 471.477 88.9401C470.583 88.1522 469.31 87.7583 467.659 87.7583C465.916 87.7583 464.53 88.1446 463.499 88.9173C462.469 89.6749 461.787 90.6295 461.454 91.781L452.499 91.0537C452.954 88.9325 453.848 87.0992 455.181 85.5537C456.515 83.9931 458.234 82.7961 460.34 81.9628C462.462 81.1143 464.916 80.6901 467.704 80.6901C469.643 80.6901 471.499 80.9173 473.272 81.3719C475.06 81.8264 476.643 82.531 478.022 83.4855C479.416 84.4401 480.515 85.6673 481.318 87.1673C482.121 88.6522 482.522 90.4325 482.522 92.5083V116.054H473.34V111.213H473.068C472.507 112.304 471.757 113.266 470.818 114.099C469.878 114.917 468.749 115.561 467.431 116.031C466.113 116.486 464.59 116.713 462.863 116.713ZM465.636 110.031C467.06 110.031 468.318 109.751 469.409 109.19C470.499 108.614 471.356 107.842 471.977 106.872C472.598 105.902 472.909 104.804 472.909 103.576V99.8719C472.606 100.069 472.189 100.251 471.659 100.417C471.143 100.569 470.56 100.713 469.909 100.849C469.257 100.97 468.606 101.084 467.954 101.19C467.302 101.281 466.712 101.364 466.181 101.44C465.045 101.607 464.052 101.872 463.204 102.236C462.356 102.599 461.696 103.092 461.227 103.713C460.757 104.319 460.522 105.076 460.522 105.986C460.522 107.304 460.999 108.311 461.954 109.008C462.924 109.69 464.151 110.031 465.636 110.031ZM489.852 116.054V110.281L506.943 89.1219V88.8719H490.443V81.1446H518.602V87.4401L502.556 108.076V108.326H519.193V116.054H489.852ZM548.982 101.19V81.1446H558.664V116.054H549.369V109.713H549.005C548.217 111.758 546.907 113.402 545.073 114.645C543.255 115.887 541.035 116.508 538.414 116.508C536.081 116.508 534.028 115.978 532.255 114.917C530.482 113.857 529.096 112.349 528.096 110.395C527.111 108.44 526.611 106.099 526.596 103.372V81.1446H536.278V101.645C536.293 103.705 536.846 105.334 537.937 106.531C539.028 107.728 540.49 108.326 542.323 108.326C543.49 108.326 544.581 108.061 545.596 107.531C546.611 106.986 547.429 106.182 548.051 105.122C548.687 104.061 548.998 102.751 548.982 101.19ZM566.409 116.054V81.1446H575.795V87.2355H576.159C576.795 85.0689 577.863 83.4325 579.363 82.3264C580.863 81.2052 582.59 80.6446 584.545 80.6446C585.03 80.6446 585.552 80.6749 586.113 80.7355C586.674 80.7961 587.166 80.8795 587.59 80.9855V89.5764C587.136 89.4401 586.507 89.3189 585.704 89.2128C584.901 89.1067 584.166 89.0537 583.499 89.0537C582.075 89.0537 580.802 89.3643 579.681 89.9855C578.575 90.5916 577.696 91.4401 577.045 92.531C576.409 93.6219 576.09 94.8795 576.09 96.3037V116.054H566.409ZM601.369 106.008L601.392 94.3946H602.801L613.982 81.1446H625.096L610.073 98.6901H607.778L601.369 106.008ZM592.596 116.054V69.5083H602.278V116.054H592.596ZM614.414 116.054L604.142 100.849L610.596 94.0083L625.755 116.054H614.414ZM629.846 116.054V81.1446H639.528V116.054H629.846ZM634.71 76.6446C633.27 76.6446 632.035 76.1673 631.005 75.2128C629.99 74.2431 629.482 73.084 629.482 71.7355C629.482 70.4022 629.99 69.2583 631.005 68.3037C632.035 67.334 633.27 66.8492 634.71 66.8492C636.149 66.8492 637.376 67.334 638.392 68.3037C639.422 69.2583 639.937 70.4022 639.937 71.7355C639.937 73.084 639.422 74.2431 638.392 75.2128C637.376 76.1673 636.149 76.6446 634.71 76.6446ZM663.193 116.736C659.602 116.736 656.511 116.008 653.92 114.554C651.344 113.084 649.359 111.008 647.965 108.326C646.571 105.629 645.874 102.44 645.874 98.7583C645.874 95.1673 646.571 92.0158 647.965 89.3037C649.359 86.5916 651.321 84.478 653.852 82.9628C656.397 81.4476 659.382 80.6901 662.806 80.6901C665.109 80.6901 667.253 81.0613 669.238 81.8037C671.238 82.531 672.981 83.6295 674.465 85.0992C675.965 86.5689 677.132 88.4173 677.965 90.6446C678.799 92.8567 679.215 95.4476 679.215 98.4173V101.076H649.738V95.0764H670.102C670.102 93.6825 669.799 92.4477 669.193 91.3719C668.587 90.2961 667.746 89.4552 666.67 88.8492C665.609 88.228 664.374 87.9173 662.965 87.9173C661.496 87.9173 660.193 88.2583 659.056 88.9401C657.935 89.6067 657.056 90.5083 656.42 91.6446C655.784 92.7658 655.458 94.0158 655.443 95.3946V101.099C655.443 102.826 655.761 104.319 656.397 105.576C657.049 106.834 657.965 107.804 659.147 108.486C660.329 109.167 661.731 109.508 663.352 109.508C664.427 109.508 665.412 109.357 666.306 109.054C667.2 108.751 667.965 108.296 668.602 107.69C669.238 107.084 669.723 106.342 670.056 105.463L679.011 106.054C678.556 108.205 677.624 110.084 676.215 111.69C674.821 113.281 673.018 114.523 670.806 115.417C668.609 116.296 666.071 116.736 663.193 116.736ZM692.17 116.054L682.67 81.1446H692.465L697.874 104.599H698.193L703.829 81.1446H713.443L719.17 104.463H719.465L724.784 81.1446H734.556L725.079 116.054H714.829L708.829 94.0992H708.397L702.397 116.054H692.17ZM739.721 116.054V81.1446H749.403V116.054H739.721ZM744.585 76.6446C743.145 76.6446 741.91 76.1673 740.88 75.2128C739.865 74.2431 739.357 73.084 739.357 71.7355C739.357 70.4022 739.865 69.2583 740.88 68.3037C741.91 67.334 743.145 66.8492 744.585 66.8492C746.024 66.8492 747.251 67.334 748.267 68.3037C749.297 69.2583 749.812 70.4022 749.812 71.7355C749.812 73.084 749.297 74.2431 748.267 75.2128C747.251 76.1673 746.024 76.6446 744.585 76.6446ZM772.931 116.736C769.356 116.736 766.28 115.978 763.704 114.463C761.143 112.932 759.174 110.811 757.795 108.099C756.431 105.387 755.749 102.266 755.749 98.7355C755.749 95.1598 756.439 92.0234 757.818 89.3264C759.212 86.6143 761.189 84.5007 763.749 82.9855C766.31 81.4552 769.356 80.6901 772.886 80.6901C775.931 80.6901 778.598 81.2431 780.886 82.3492C783.174 83.4552 784.984 85.0083 786.318 87.0083C787.651 89.0083 788.386 91.3567 788.522 94.0537H779.386C779.128 92.3113 778.446 90.9098 777.34 89.8492C776.249 88.7734 774.818 88.2355 773.045 88.2355C771.545 88.2355 770.234 88.6446 769.113 89.4628C768.007 90.2658 767.143 91.4401 766.522 92.9855C765.901 94.531 765.59 96.4022 765.59 98.5992C765.59 100.826 765.893 102.72 766.499 104.281C767.121 105.842 767.992 107.031 769.113 107.849C770.234 108.667 771.545 109.076 773.045 109.076C774.151 109.076 775.143 108.849 776.022 108.395C776.916 107.94 777.651 107.281 778.227 106.417C778.818 105.539 779.204 104.486 779.386 103.258H788.522C788.371 105.925 787.643 108.273 786.34 110.304C785.052 112.319 783.272 113.895 780.999 115.031C778.727 116.167 776.037 116.736 772.931 116.736ZM794.539 116.054V110.281L811.63 89.1219V88.8719H795.13V81.1446H823.289V87.4401L807.244 108.076V108.326H823.88V116.054H794.539ZM839.397 69.5083V74.4173C839.397 75.8113 839.124 77.2355 838.579 78.6901C838.049 80.1295 837.337 81.4931 836.443 82.781C835.549 84.0537 834.571 85.137 833.511 86.031L829.238 83.5083C829.996 82.3113 830.662 80.9855 831.238 79.531C831.829 78.0764 832.124 76.387 832.124 74.4628V69.5083H839.397ZM870.517 91.0992L861.653 91.6446C861.501 90.887 861.176 90.2052 860.676 89.5992C860.176 88.978 859.517 88.4855 858.698 88.1219C857.895 87.7431 856.933 87.5537 855.812 87.5537C854.312 87.5537 853.047 87.8719 852.017 88.5083C850.986 89.1295 850.471 89.9628 850.471 91.0083C850.471 91.8416 850.804 92.5461 851.471 93.1219C852.138 93.6977 853.282 94.1598 854.903 94.5083L861.221 95.781C864.615 96.478 867.145 97.5992 868.812 99.1446C870.479 100.69 871.312 102.72 871.312 105.236C871.312 107.523 870.638 109.531 869.289 111.258C867.956 112.986 866.123 114.334 863.789 115.304C861.471 116.258 858.797 116.736 855.767 116.736C851.145 116.736 847.463 115.773 844.721 113.849C841.994 111.91 840.395 109.273 839.926 105.94L849.448 105.44C849.736 106.849 850.433 107.925 851.539 108.667C852.645 109.395 854.062 109.758 855.789 109.758C857.486 109.758 858.85 109.432 859.88 108.781C860.926 108.114 861.456 107.258 861.471 106.213C861.456 105.334 861.085 104.614 860.357 104.054C859.63 103.478 858.509 103.039 856.994 102.736L850.948 101.531C847.539 100.849 845.001 99.6673 843.335 97.9855C841.683 96.3037 840.857 94.1598 840.857 91.5537C840.857 89.3113 841.463 87.3795 842.676 85.7583C843.903 84.137 845.623 82.887 847.835 82.0083C850.062 81.1295 852.668 80.6901 855.653 80.6901C860.062 80.6901 863.532 81.6219 866.062 83.4855C868.607 85.3492 870.092 87.887 870.517 91.0992ZM910.789 81.1446V88.4173H889.767V81.1446H910.789ZM894.539 72.781H904.221V105.326C904.221 106.22 904.357 106.917 904.63 107.417C904.903 107.902 905.282 108.243 905.767 108.44C906.267 108.637 906.842 108.736 907.494 108.736C907.948 108.736 908.403 108.698 908.857 108.622C909.312 108.531 909.66 108.463 909.903 108.417L911.426 115.622C910.941 115.773 910.259 115.948 909.38 116.145C908.501 116.357 907.433 116.486 906.176 116.531C903.842 116.622 901.797 116.311 900.039 115.599C898.297 114.887 896.941 113.781 895.971 112.281C895.001 110.781 894.524 108.887 894.539 106.599V72.781ZM917.096 116.054V81.1446H926.482V87.2355H926.846C927.482 85.0689 928.551 83.4325 930.051 82.3264C931.551 81.2052 933.278 80.6446 935.232 80.6446C935.717 80.6446 936.24 80.6749 936.801 80.7355C937.361 80.7961 937.854 80.8795 938.278 80.9855V89.5764C937.823 89.4401 937.195 89.3189 936.392 89.2128C935.588 89.1067 934.854 89.0537 934.187 89.0537C932.763 89.0537 931.49 89.3643 930.369 89.9855C929.263 90.5916 928.384 91.4401 927.732 92.531C927.096 93.6219 926.778 94.8795 926.778 96.3037V116.054H917.096ZM952.238 116.713C950.011 116.713 948.026 116.326 946.284 115.554C944.541 114.766 943.162 113.607 942.147 112.076C941.147 110.531 940.647 108.607 940.647 106.304C940.647 104.364 941.003 102.736 941.715 101.417C942.427 100.099 943.397 99.0386 944.624 98.2355C945.852 97.4325 947.246 96.8264 948.806 96.4173C950.382 96.0083 952.034 95.7204 953.761 95.5537C955.791 95.3416 957.427 95.1446 958.67 94.9628C959.912 94.7658 960.814 94.478 961.374 94.0992C961.935 93.7204 962.215 93.1598 962.215 92.4173V92.281C962.215 90.8416 961.761 89.728 960.852 88.9401C959.958 88.1522 958.685 87.7583 957.034 87.7583C955.291 87.7583 953.905 88.1446 952.874 88.9173C951.844 89.6749 951.162 90.6295 950.829 91.781L941.874 91.0537C942.329 88.9325 943.223 87.0992 944.556 85.5537C945.89 83.9931 947.609 82.7961 949.715 81.9628C951.837 81.1143 954.291 80.6901 957.079 80.6901C959.018 80.6901 960.874 80.9173 962.647 81.3719C964.435 81.8264 966.018 82.531 967.397 83.4855C968.791 84.4401 969.89 85.6673 970.693 87.1673C971.496 88.6522 971.897 90.4325 971.897 92.5083V116.054H962.715V111.213H962.443C961.882 112.304 961.132 113.266 960.193 114.099C959.253 114.917 958.124 115.561 956.806 116.031C955.488 116.486 953.965 116.713 952.238 116.713ZM955.011 110.031C956.435 110.031 957.693 109.751 958.784 109.19C959.874 108.614 960.731 107.842 961.352 106.872C961.973 105.902 962.284 104.804 962.284 103.576V99.8719C961.981 100.069 961.564 100.251 961.034 100.417C960.518 100.569 959.935 100.713 959.284 100.849C958.632 100.97 957.981 101.084 957.329 101.19C956.677 101.281 956.087 101.364 955.556 101.44C954.42 101.607 953.427 101.872 952.579 102.236C951.731 102.599 951.071 103.092 950.602 103.713C950.132 104.319 949.897 105.076 949.897 105.986C949.897 107.304 950.374 108.311 951.329 109.008C952.299 109.69 953.526 110.031 955.011 110.031ZM995.181 116.736C991.606 116.736 988.53 115.978 985.954 114.463C983.393 112.932 981.424 110.811 980.045 108.099C978.681 105.387 977.999 102.266 977.999 98.7355C977.999 95.1598 978.689 92.0234 980.068 89.3264C981.462 86.6143 983.439 84.5007 985.999 82.9855C988.56 81.4552 991.606 80.6901 995.136 80.6901C998.181 80.6901 1000.85 81.2431 1003.14 82.3492C1005.42 83.4552 1007.23 85.0083 1008.57 87.0083C1009.9 89.0083 1010.64 91.3567 1010.77 94.0537H1001.64C1001.38 92.3113 1000.7 90.9098 999.59 89.8492C998.499 88.7734 997.068 88.2355 995.295 88.2355C993.795 88.2355 992.484 88.6446 991.363 89.4628C990.257 90.2658 989.393 91.4401 988.772 92.9855C988.151 94.531 987.84 96.4022 987.84 98.5992C987.84 100.826 988.143 102.72 988.749 104.281C989.371 105.842 990.242 107.031 991.363 107.849C992.484 108.667 993.795 109.076 995.295 109.076C996.401 109.076 997.393 108.849 998.272 108.395C999.166 107.94 999.901 107.281 1000.48 106.417C1001.07 105.539 1001.45 104.486 1001.64 103.258H1010.77C1010.62 105.925 1009.89 108.273 1008.59 110.304C1007.3 112.319 1005.52 113.895 1003.25 115.031C1000.98 116.167 998.287 116.736 995.181 116.736ZM1032.88 116.736C1029.29 116.736 1026.2 116.008 1023.61 114.554C1021.03 113.084 1019.05 111.008 1017.65 108.326C1016.26 105.629 1015.56 102.44 1015.56 98.7583C1015.56 95.1673 1016.26 92.0158 1017.65 89.3037C1019.05 86.5916 1021.01 84.478 1023.54 82.9628C1026.08 81.4476 1029.07 80.6901 1032.49 80.6901C1034.8 80.6901 1036.94 81.0613 1038.93 81.8037C1040.93 82.531 1042.67 83.6295 1044.15 85.0992C1045.65 86.5689 1046.82 88.4173 1047.65 90.6446C1048.49 92.8567 1048.9 95.4476 1048.9 98.4173V101.076H1019.43V95.0764H1039.79C1039.79 93.6825 1039.49 92.4477 1038.88 91.3719C1038.27 90.2961 1037.43 89.4552 1036.36 88.8492C1035.3 88.228 1034.06 87.9173 1032.65 87.9173C1031.18 87.9173 1029.88 88.2583 1028.74 88.9401C1027.62 89.6067 1026.74 90.5083 1026.11 91.6446C1025.47 92.7658 1025.15 94.0158 1025.13 95.3946V101.099C1025.13 102.826 1025.45 104.319 1026.08 105.576C1026.74 106.834 1027.65 107.804 1028.83 108.486C1030.02 109.167 1031.42 109.508 1033.04 109.508C1034.11 109.508 1035.1 109.357 1035.99 109.054C1036.89 108.751 1037.65 108.296 1038.29 107.69C1038.93 107.084 1039.41 106.342 1039.74 105.463L1048.7 106.054C1048.24 108.205 1047.31 110.084 1045.9 111.69C1044.51 113.281 1042.71 114.523 1040.49 115.417C1038.3 116.296 1035.76 116.736 1032.88 116.736ZM1085.94 116.736C1082.35 116.736 1079.26 116.008 1076.67 114.554C1074.09 113.084 1072.11 111.008 1070.72 108.326C1069.32 105.629 1068.62 102.44 1068.62 98.7583C1068.62 95.1673 1069.32 92.0158 1070.72 89.3037C1072.11 86.5916 1074.07 84.478 1076.6 82.9628C1079.15 81.4476 1082.13 80.6901 1085.56 80.6901C1087.86 80.6901 1090 81.0613 1091.99 81.8037C1093.99 82.531 1095.73 83.6295 1097.22 85.0992C1098.72 86.5689 1099.88 88.4173 1100.72 90.6446C1101.55 92.8567 1101.97 95.4476 1101.97 98.4173V101.076H1072.49V95.0764H1092.85C1092.85 93.6825 1092.55 92.4477 1091.94 91.3719C1091.34 90.2961 1090.5 89.4552 1089.42 88.8492C1088.36 88.228 1087.12 87.9173 1085.72 87.9173C1084.25 87.9173 1082.94 88.2583 1081.81 88.9401C1080.69 89.6067 1079.81 90.5083 1079.17 91.6446C1078.53 92.7658 1078.21 94.0158 1078.19 95.3946V101.099C1078.19 102.826 1078.51 104.319 1079.15 105.576C1079.8 106.834 1080.72 107.804 1081.9 108.486C1083.08 109.167 1084.48 109.508 1086.1 109.508C1087.18 109.508 1088.16 109.357 1089.06 109.054C1089.95 108.751 1090.72 108.296 1091.35 107.69C1091.99 107.084 1092.47 106.342 1092.81 105.463L1101.76 106.054C1101.31 108.205 1100.37 110.084 1098.97 111.69C1097.57 113.281 1095.77 114.523 1093.56 115.417C1091.36 116.296 1088.82 116.736 1085.94 116.736ZM1131.35 129.145V110.463H1131.06C1130.6 111.432 1129.96 112.395 1129.12 113.349C1128.31 114.289 1127.24 115.069 1125.92 115.69C1124.62 116.311 1123.03 116.622 1121.15 116.622C1118.5 116.622 1116.09 115.94 1113.94 114.576C1111.81 113.198 1110.11 111.175 1108.85 108.508C1107.61 105.826 1106.99 102.539 1106.99 98.6446C1106.99 94.6446 1107.63 91.3189 1108.92 88.6673C1110.21 86.0007 1111.92 84.0083 1114.06 82.6901C1116.21 81.3567 1118.56 80.6901 1121.12 80.6901C1123.08 80.6901 1124.71 81.0234 1126.01 81.6901C1127.33 82.3416 1128.39 83.1598 1129.19 84.1446C1130.01 85.1143 1130.63 86.0689 1131.06 87.0083H1131.47V81.1446H1141.01V129.145H1131.35ZM1124.22 108.917C1125.78 108.917 1127.09 108.493 1128.17 107.645C1129.26 106.781 1130.09 105.576 1130.67 104.031C1131.26 102.486 1131.56 100.675 1131.56 98.5992C1131.56 96.5234 1131.27 94.7204 1130.69 93.1901C1130.12 91.6598 1129.28 90.478 1128.19 89.6446C1127.1 88.8113 1125.78 88.3946 1124.22 88.3946C1122.62 88.3946 1121.28 88.8264 1120.19 89.6901C1119.1 90.5537 1118.28 91.7507 1117.72 93.281C1117.15 94.8113 1116.87 96.584 1116.87 98.5992C1116.87 100.629 1117.15 102.425 1117.72 103.986C1118.29 105.531 1119.12 106.743 1120.19 107.622C1121.28 108.486 1122.62 108.917 1124.22 108.917ZM1171.17 101.19V81.1446H1180.85V116.054H1171.56V109.713H1171.19C1170.4 111.758 1169.09 113.402 1167.26 114.645C1165.44 115.887 1163.22 116.508 1160.6 116.508C1158.27 116.508 1156.22 115.978 1154.44 114.917C1152.67 113.857 1151.28 112.349 1150.28 110.395C1149.3 108.44 1148.8 106.099 1148.78 103.372V81.1446H1158.47V101.645C1158.48 103.705 1159.03 105.334 1160.12 106.531C1161.22 107.728 1162.68 108.326 1164.51 108.326C1165.68 108.326 1166.77 108.061 1167.78 107.531C1168.8 106.986 1169.62 106.182 1170.24 105.122C1170.87 104.061 1171.19 102.751 1171.17 101.19ZM1188.6 116.054V81.1446H1198.28V116.054H1188.6ZM1193.46 76.6446C1192.02 76.6446 1190.79 76.1673 1189.76 75.2128C1188.74 74.2431 1188.23 73.084 1188.23 71.7355C1188.23 70.4022 1188.74 69.2583 1189.76 68.3037C1190.79 67.334 1192.02 66.8492 1193.46 66.8492C1194.9 66.8492 1196.13 67.334 1197.14 68.3037C1198.17 69.2583 1198.69 70.4022 1198.69 71.7355C1198.69 73.084 1198.17 74.2431 1197.14 75.2128C1196.13 76.1673 1194.9 76.6446 1193.46 76.6446ZM1238.58 81.1446L1226.37 116.054H1215.47L1203.26 81.1446H1213.49L1220.74 106.122H1221.1L1228.33 81.1446H1238.58ZM1252.55 116.713C1250.32 116.713 1248.34 116.326 1246.6 115.554C1244.85 114.766 1243.47 113.607 1242.46 112.076C1241.46 110.531 1240.96 108.607 1240.96 106.304C1240.96 104.364 1241.32 102.736 1242.03 101.417C1242.74 100.099 1243.71 99.0386 1244.94 98.2355C1246.16 97.4325 1247.56 96.8264 1249.12 96.4173C1250.69 96.0083 1252.35 95.7204 1254.07 95.5537C1256.1 95.3416 1257.74 95.1446 1258.98 94.9628C1260.22 94.7658 1261.13 94.478 1261.69 94.0992C1262.25 93.7204 1262.53 93.1598 1262.53 92.4173V92.281C1262.53 90.8416 1262.07 89.728 1261.16 88.9401C1260.27 88.1522 1259 87.7583 1257.35 87.7583C1255.6 87.7583 1254.22 88.1446 1253.19 88.9173C1252.16 89.6749 1251.47 90.6295 1251.14 91.781L1242.19 91.0537C1242.64 88.9325 1243.54 87.0992 1244.87 85.5537C1246.2 83.9931 1247.92 82.7961 1250.03 81.9628C1252.15 81.1143 1254.6 80.6901 1257.39 80.6901C1259.33 80.6901 1261.19 80.9173 1262.96 81.3719C1264.75 81.8264 1266.33 82.531 1267.71 83.4855C1269.1 84.4401 1270.2 85.6673 1271.01 87.1673C1271.81 88.6522 1272.21 90.4325 1272.21 92.5083V116.054H1263.03V111.213H1262.76C1262.19 112.304 1261.44 113.266 1260.51 114.099C1259.57 114.917 1258.44 115.561 1257.12 116.031C1255.8 116.486 1254.28 116.713 1252.55 116.713ZM1255.32 110.031C1256.75 110.031 1258.01 109.751 1259.1 109.19C1260.19 108.614 1261.04 107.842 1261.66 106.872C1262.29 105.902 1262.6 104.804 1262.6 103.576V99.8719C1262.29 100.069 1261.88 100.251 1261.35 100.417C1260.83 100.569 1260.25 100.713 1259.6 100.849C1258.94 100.97 1258.29 101.084 1257.64 101.19C1256.99 101.281 1256.4 101.364 1255.87 101.44C1254.73 101.607 1253.74 101.872 1252.89 102.236C1252.04 102.599 1251.38 103.092 1250.91 103.713C1250.44 104.319 1250.21 105.076 1250.21 105.986C1250.21 107.304 1250.69 108.311 1251.64 109.008C1252.61 109.69 1253.84 110.031 1255.32 110.031ZM1289.4 69.5083V116.054H1279.72V69.5083H1289.4ZM1313.07 116.736C1309.48 116.736 1306.39 116.008 1303.79 114.554C1301.22 113.084 1299.23 111.008 1297.84 108.326C1296.45 105.629 1295.75 102.44 1295.75 98.7583C1295.75 95.1673 1296.45 92.0158 1297.84 89.3037C1299.23 86.5916 1301.2 84.478 1303.73 82.9628C1306.27 81.4476 1309.26 80.6901 1312.68 80.6901C1314.98 80.6901 1317.13 81.0613 1319.11 81.8037C1321.11 82.531 1322.86 83.6295 1324.34 85.0992C1325.84 86.5689 1327.01 88.4173 1327.84 90.6446C1328.67 92.8567 1329.09 95.4476 1329.09 98.4173V101.076H1299.61V95.0764H1319.98C1319.98 93.6825 1319.67 92.4477 1319.07 91.3719C1318.46 90.2961 1317.62 89.4552 1316.54 88.8492C1315.48 88.228 1314.25 87.9173 1312.84 87.9173C1311.37 87.9173 1310.07 88.2583 1308.93 88.9401C1307.81 89.6067 1306.93 90.5083 1306.29 91.6446C1305.66 92.7658 1305.33 94.0158 1305.32 95.3946V101.099C1305.32 102.826 1305.64 104.319 1306.27 105.576C1306.92 106.834 1307.84 107.804 1309.02 108.486C1310.2 109.167 1311.61 109.508 1313.23 109.508C1314.3 109.508 1315.29 109.357 1316.18 109.054C1317.08 108.751 1317.84 108.296 1318.48 107.69C1319.11 107.084 1319.6 106.342 1319.93 105.463L1328.89 106.054C1328.43 108.205 1327.5 110.084 1326.09 111.69C1324.7 113.281 1322.89 114.523 1320.68 115.417C1318.48 116.296 1315.95 116.736 1313.07 116.736ZM1345.09 95.8719V116.054H1335.41V81.1446H1344.64V87.3037H1345.04C1345.82 85.2734 1347.11 83.6673 1348.93 82.4855C1350.75 81.2886 1352.95 80.6901 1355.54 80.6901C1357.97 80.6901 1360.08 81.2204 1361.89 82.281C1363.69 83.3416 1365.09 84.8567 1366.09 86.8264C1367.09 88.781 1367.59 91.1143 1367.59 93.8264V116.054H1357.91V95.5537C1357.92 93.4173 1357.38 91.7507 1356.27 90.5537C1355.17 89.3416 1353.64 88.7355 1351.7 88.7355C1350.4 88.7355 1349.25 89.0158 1348.25 89.5764C1347.26 90.137 1346.49 90.9552 1345.93 92.031C1345.39 93.0916 1345.11 94.3719 1345.09 95.8719ZM1390.99 116.736C1387.42 116.736 1384.34 115.978 1381.77 114.463C1379.21 112.932 1377.24 110.811 1375.86 108.099C1374.49 105.387 1373.81 102.266 1373.81 98.7355C1373.81 95.1598 1374.5 92.0234 1375.88 89.3264C1377.27 86.6143 1379.25 84.5007 1381.81 82.9855C1384.37 81.4552 1387.42 80.6901 1390.95 80.6901C1393.99 80.6901 1396.66 81.2431 1398.95 82.3492C1401.24 83.4552 1403.05 85.0083 1404.38 87.0083C1405.71 89.0083 1406.45 91.3567 1406.58 94.0537H1397.45C1397.19 92.3113 1396.51 90.9098 1395.4 89.8492C1394.31 88.7734 1392.88 88.2355 1391.11 88.2355C1389.61 88.2355 1388.3 88.6446 1387.18 89.4628C1386.07 90.2658 1385.21 91.4401 1384.58 92.9855C1383.96 94.531 1383.65 96.4022 1383.65 98.5992C1383.65 100.826 1383.96 102.72 1384.56 104.281C1385.18 105.842 1386.05 107.031 1387.18 107.849C1388.3 108.667 1389.61 109.076 1391.11 109.076C1392.21 109.076 1393.21 108.849 1394.08 108.395C1394.98 107.94 1395.71 107.281 1396.29 106.417C1396.88 105.539 1397.27 104.486 1397.45 103.258H1406.58C1406.43 105.925 1405.71 108.273 1404.4 110.304C1403.11 112.319 1401.33 113.895 1399.06 115.031C1396.79 116.167 1394.1 116.736 1390.99 116.736ZM1428.69 116.736C1425.1 116.736 1422.01 116.008 1419.42 114.554C1416.84 113.084 1414.86 111.008 1413.47 108.326C1412.07 105.629 1411.37 102.44 1411.37 98.7583C1411.37 95.1673 1412.07 92.0158 1413.47 89.3037C1414.86 86.5916 1416.82 84.478 1419.35 82.9628C1421.9 81.4476 1424.88 80.6901 1428.31 80.6901C1430.61 80.6901 1432.75 81.0613 1434.74 81.8037C1436.74 82.531 1438.48 83.6295 1439.97 85.0992C1441.47 86.5689 1442.63 88.4173 1443.47 90.6446C1444.3 92.8567 1444.72 95.4476 1444.72 98.4173V101.076H1415.24V95.0764H1435.6C1435.6 93.6825 1435.3 92.4477 1434.69 91.3719C1434.09 90.2961 1433.25 89.4552 1432.17 88.8492C1431.11 88.228 1429.87 87.9173 1428.47 87.9173C1427 87.9173 1425.69 88.2583 1424.56 88.9401C1423.44 89.6067 1422.56 90.5083 1421.92 91.6446C1421.28 92.7658 1420.96 94.0158 1420.94 95.3946V101.099C1420.94 102.826 1421.26 104.319 1421.9 105.576C1422.55 106.834 1423.47 107.804 1424.65 108.486C1425.83 109.167 1427.23 109.508 1428.85 109.508C1429.93 109.508 1430.91 109.357 1431.81 109.054C1432.7 108.751 1433.47 108.296 1434.1 107.69C1434.74 107.084 1435.22 106.342 1435.56 105.463L1444.51 106.054C1444.06 108.205 1443.12 110.084 1441.72 111.69C1440.32 113.281 1438.52 114.523 1436.31 115.417C1434.11 116.296 1431.57 116.736 1428.69 116.736Z" fill="black"/>
<path id="independency, equivalence, explore at least one run per equivalence class" d="M187.61 306.054V288.599H191.008V306.054H187.61ZM189.326 285.906C188.735 285.906 188.228 285.709 187.803 285.315C187.387 284.914 187.178 284.436 187.178 283.883C187.178 283.323 187.387 282.845 187.803 282.451C188.228 282.05 188.735 281.849 189.326 281.849C189.917 281.849 190.421 282.05 190.838 282.451C191.262 282.845 191.474 283.323 191.474 283.883C191.474 284.436 191.262 284.914 190.838 285.315C190.421 285.709 189.917 285.906 189.326 285.906ZM198.977 295.69V306.054H195.579V288.599H198.84V291.44H199.056C199.458 290.516 200.087 289.773 200.943 289.213C201.806 288.652 202.893 288.372 204.204 288.372C205.393 288.372 206.435 288.622 207.329 289.122C208.223 289.614 208.916 290.349 209.409 291.326C209.901 292.304 210.147 293.512 210.147 294.951V306.054H206.749V295.361C206.749 294.095 206.42 293.107 205.761 292.395C205.102 291.675 204.196 291.315 203.045 291.315C202.257 291.315 201.556 291.486 200.943 291.826C200.337 292.167 199.856 292.667 199.499 293.326C199.151 293.978 198.977 294.766 198.977 295.69ZM221.238 306.395C219.829 306.395 218.571 306.035 217.465 305.315C216.367 304.588 215.503 303.554 214.874 302.213C214.253 300.864 213.943 299.247 213.943 297.361C213.943 295.474 214.257 293.861 214.886 292.52C215.522 291.179 216.393 290.152 217.499 289.44C218.606 288.728 219.859 288.372 221.261 288.372C222.344 288.372 223.215 288.554 223.874 288.917C224.541 289.273 225.056 289.69 225.42 290.167C225.791 290.645 226.079 291.065 226.284 291.429H226.488V282.781H229.886V306.054H226.568V303.338H226.284C226.079 303.709 225.784 304.133 225.397 304.611C225.018 305.088 224.496 305.504 223.829 305.861C223.162 306.217 222.299 306.395 221.238 306.395ZM221.988 303.497C222.965 303.497 223.791 303.239 224.465 302.724C225.147 302.201 225.662 301.478 226.011 300.554C226.367 299.629 226.545 298.554 226.545 297.326C226.545 296.114 226.371 295.054 226.022 294.145C225.674 293.236 225.162 292.527 224.488 292.02C223.814 291.512 222.981 291.258 221.988 291.258C220.965 291.258 220.113 291.523 219.431 292.054C218.749 292.584 218.234 293.307 217.886 294.224C217.545 295.141 217.374 296.175 217.374 297.326C217.374 298.493 217.549 299.542 217.897 300.474C218.246 301.406 218.761 302.145 219.443 302.69C220.132 303.228 220.981 303.497 221.988 303.497ZM242.258 306.406C240.538 306.406 239.057 306.039 237.815 305.304C236.58 304.561 235.625 303.52 234.951 302.179C234.285 300.83 233.951 299.251 233.951 297.44C233.951 295.652 234.285 294.076 234.951 292.713C235.625 291.349 236.565 290.285 237.769 289.52C238.981 288.754 240.398 288.372 242.019 288.372C243.004 288.372 243.959 288.535 244.883 288.861C245.807 289.186 246.637 289.698 247.372 290.395C248.106 291.092 248.686 291.997 249.11 293.111C249.535 294.217 249.747 295.561 249.747 297.145V298.349H235.872V295.804H246.417C246.417 294.91 246.235 294.118 245.872 293.429C245.508 292.732 244.997 292.182 244.338 291.781C243.686 291.379 242.921 291.179 242.042 291.179C241.088 291.179 240.254 291.414 239.542 291.883C238.838 292.345 238.292 292.951 237.906 293.701C237.527 294.444 237.338 295.251 237.338 296.122V298.111C237.338 299.277 237.542 300.27 237.951 301.088C238.368 301.906 238.947 302.531 239.69 302.963C240.432 303.387 241.3 303.599 242.292 303.599C242.936 303.599 243.523 303.508 244.053 303.326C244.584 303.137 245.042 302.857 245.428 302.486C245.815 302.114 246.11 301.656 246.315 301.111L249.531 301.69C249.273 302.637 248.811 303.467 248.144 304.179C247.485 304.883 246.656 305.432 245.656 305.826C244.663 306.213 243.531 306.406 242.258 306.406ZM253.517 312.599V288.599H256.835V291.429H257.119C257.316 291.065 257.6 290.645 257.971 290.167C258.342 289.69 258.857 289.273 259.517 288.917C260.176 288.554 261.047 288.372 262.13 288.372C263.539 288.372 264.797 288.728 265.903 289.44C267.009 290.152 267.876 291.179 268.505 292.52C269.142 293.861 269.46 295.474 269.46 297.361C269.46 299.247 269.145 300.864 268.517 302.213C267.888 303.554 267.024 304.588 265.926 305.315C264.827 306.035 263.573 306.395 262.164 306.395C261.104 306.395 260.236 306.217 259.562 305.861C258.895 305.504 258.373 305.088 257.994 304.611C257.615 304.133 257.323 303.709 257.119 303.338H256.914V312.599H253.517ZM256.846 297.326C256.846 298.554 257.024 299.629 257.38 300.554C257.736 301.478 258.251 302.201 258.926 302.724C259.6 303.239 260.426 303.497 261.403 303.497C262.418 303.497 263.267 303.228 263.948 302.69C264.63 302.145 265.145 301.406 265.494 300.474C265.85 299.542 266.028 298.493 266.028 297.326C266.028 296.175 265.854 295.141 265.505 294.224C265.164 293.307 264.649 292.584 263.96 292.054C263.278 291.523 262.426 291.258 261.403 291.258C260.418 291.258 259.585 291.512 258.903 292.02C258.229 292.527 257.717 293.236 257.369 294.145C257.02 295.054 256.846 296.114 256.846 297.326ZM280.789 306.406C279.07 306.406 277.588 306.039 276.346 305.304C275.111 304.561 274.157 303.52 273.482 302.179C272.816 300.83 272.482 299.251 272.482 297.44C272.482 295.652 272.816 294.076 273.482 292.713C274.157 291.349 275.096 290.285 276.301 289.52C277.513 288.754 278.929 288.372 280.551 288.372C281.535 288.372 282.49 288.535 283.414 288.861C284.338 289.186 285.168 289.698 285.903 290.395C286.638 291.092 287.217 291.997 287.642 293.111C288.066 294.217 288.278 295.561 288.278 297.145V298.349H274.403V295.804H284.948C284.948 294.91 284.767 294.118 284.403 293.429C284.039 292.732 283.528 292.182 282.869 291.781C282.217 291.379 281.452 291.179 280.573 291.179C279.619 291.179 278.785 291.414 278.073 291.883C277.369 292.345 276.823 292.951 276.437 293.701C276.058 294.444 275.869 295.251 275.869 296.122V298.111C275.869 299.277 276.073 300.27 276.482 301.088C276.899 301.906 277.479 302.531 278.221 302.963C278.963 303.387 279.831 303.599 280.823 303.599C281.467 303.599 282.054 303.508 282.585 303.326C283.115 303.137 283.573 302.857 283.96 302.486C284.346 302.114 284.642 301.656 284.846 301.111L288.062 301.69C287.804 302.637 287.342 303.467 286.676 304.179C286.017 304.883 285.187 305.432 284.187 305.826C283.195 306.213 282.062 306.406 280.789 306.406ZM295.445 295.69V306.054H292.048V288.599H295.309V291.44H295.525C295.927 290.516 296.555 289.773 297.411 289.213C298.275 288.652 299.362 288.372 300.673 288.372C301.862 288.372 302.904 288.622 303.798 289.122C304.692 289.614 305.385 290.349 305.877 291.326C306.37 292.304 306.616 293.512 306.616 294.951V306.054H303.218V295.361C303.218 294.095 302.889 293.107 302.23 292.395C301.57 291.675 300.665 291.315 299.514 291.315C298.726 291.315 298.025 291.486 297.411 291.826C296.805 292.167 296.324 292.667 295.968 293.326C295.62 293.978 295.445 294.766 295.445 295.69ZM317.707 306.395C316.298 306.395 315.04 306.035 313.934 305.315C312.836 304.588 311.972 303.554 311.343 302.213C310.722 300.864 310.411 299.247 310.411 297.361C310.411 295.474 310.726 293.861 311.355 292.52C311.991 291.179 312.862 290.152 313.968 289.44C315.074 288.728 316.328 288.372 317.73 288.372C318.813 288.372 319.684 288.554 320.343 288.917C321.01 289.273 321.525 289.69 321.889 290.167C322.26 290.645 322.548 291.065 322.752 291.429H322.957V282.781H326.355V306.054H323.036V303.338H322.752C322.548 303.709 322.252 304.133 321.866 304.611C321.487 305.088 320.964 305.504 320.298 305.861C319.631 306.217 318.767 306.395 317.707 306.395ZM318.457 303.497C319.434 303.497 320.26 303.239 320.934 302.724C321.616 302.201 322.131 301.478 322.48 300.554C322.836 299.629 323.014 298.554 323.014 297.326C323.014 296.114 322.839 295.054 322.491 294.145C322.142 293.236 321.631 292.527 320.957 292.02C320.283 291.512 319.449 291.258 318.457 291.258C317.434 291.258 316.582 291.523 315.9 292.054C315.218 292.584 314.703 293.307 314.355 294.224C314.014 295.141 313.843 296.175 313.843 297.326C313.843 298.493 314.017 299.542 314.366 300.474C314.714 301.406 315.23 302.145 315.911 302.69C316.601 303.228 317.449 303.497 318.457 303.497ZM338.727 306.406C337.007 306.406 335.526 306.039 334.284 305.304C333.049 304.561 332.094 303.52 331.42 302.179C330.753 300.83 330.42 299.251 330.42 297.44C330.42 295.652 330.753 294.076 331.42 292.713C332.094 291.349 333.034 290.285 334.238 289.52C335.45 288.754 336.867 288.372 338.488 288.372C339.473 288.372 340.427 288.535 341.352 288.861C342.276 289.186 343.106 289.698 343.84 290.395C344.575 291.092 345.155 291.997 345.579 293.111C346.003 294.217 346.215 295.561 346.215 297.145V298.349H332.34V295.804H342.886C342.886 294.91 342.704 294.118 342.34 293.429C341.977 292.732 341.465 292.182 340.806 291.781C340.155 291.379 339.39 291.179 338.511 291.179C337.556 291.179 336.723 291.414 336.011 291.883C335.306 292.345 334.761 292.951 334.374 293.701C333.996 294.444 333.806 295.251 333.806 296.122V298.111C333.806 299.277 334.011 300.27 334.42 301.088C334.837 301.906 335.416 302.531 336.159 302.963C336.901 303.387 337.768 303.599 338.761 303.599C339.405 303.599 339.992 303.508 340.522 303.326C341.052 303.137 341.511 302.857 341.897 302.486C342.284 302.114 342.579 301.656 342.784 301.111L345.999 301.69C345.742 302.637 345.28 303.467 344.613 304.179C343.954 304.883 343.124 305.432 342.124 305.826C341.132 306.213 339.999 306.406 338.727 306.406ZM353.383 295.69V306.054H349.985V288.599H353.247V291.44H353.463C353.864 290.516 354.493 289.773 355.349 289.213C356.213 288.652 357.3 288.372 358.61 288.372C359.8 288.372 360.841 288.622 361.735 289.122C362.629 289.614 363.322 290.349 363.815 291.326C364.307 292.304 364.553 293.512 364.553 294.951V306.054H361.156V295.361C361.156 294.095 360.826 293.107 360.167 292.395C359.508 291.675 358.603 291.315 357.451 291.315C356.663 291.315 355.963 291.486 355.349 291.826C354.743 292.167 354.262 292.667 353.906 293.326C353.557 293.978 353.383 294.766 353.383 295.69ZM376.463 306.406C374.773 306.406 373.319 306.023 372.099 305.258C370.887 304.486 369.955 303.421 369.303 302.065C368.652 300.709 368.326 299.156 368.326 297.406C368.326 295.633 368.66 294.069 369.326 292.713C369.993 291.349 370.932 290.285 372.144 289.52C373.356 288.754 374.785 288.372 376.428 288.372C377.754 288.372 378.936 288.618 379.974 289.111C381.012 289.595 381.849 290.277 382.485 291.156C383.129 292.035 383.512 293.061 383.633 294.236H380.326C380.144 293.417 379.728 292.713 379.076 292.122C378.432 291.531 377.569 291.236 376.485 291.236C375.538 291.236 374.709 291.486 373.997 291.986C373.292 292.478 372.743 293.182 372.349 294.099C371.955 295.008 371.758 296.084 371.758 297.326C371.758 298.599 371.951 299.698 372.338 300.622C372.724 301.546 373.269 302.262 373.974 302.77C374.686 303.277 375.523 303.531 376.485 303.531C377.129 303.531 377.713 303.414 378.235 303.179C378.766 302.936 379.209 302.592 379.565 302.145C379.928 301.698 380.182 301.16 380.326 300.531H383.633C383.512 301.66 383.144 302.667 382.531 303.554C381.917 304.44 381.095 305.137 380.065 305.645C379.042 306.152 377.841 306.406 376.463 306.406ZM389.414 312.599C388.907 312.599 388.445 312.557 388.028 312.474C387.611 312.398 387.301 312.315 387.096 312.224L387.914 309.44C388.535 309.607 389.088 309.679 389.573 309.656C390.058 309.633 390.486 309.451 390.857 309.111C391.236 308.77 391.57 308.213 391.857 307.44L392.278 306.281L385.892 288.599H389.528L393.948 302.145H394.13L398.551 288.599H402.198L395.005 308.383C394.672 309.292 394.248 310.061 393.732 310.69C393.217 311.326 392.604 311.804 391.892 312.122C391.179 312.44 390.354 312.599 389.414 312.599ZM408.718 302.872L408.548 304.111C408.434 305.02 408.241 305.967 407.968 306.951C407.703 307.944 407.427 308.864 407.139 309.713C406.858 310.561 406.627 311.236 406.445 311.736H404.036C404.135 311.266 404.271 310.629 404.445 309.826C404.62 309.031 404.79 308.141 404.957 307.156C405.124 306.171 405.249 305.167 405.332 304.145L405.445 302.872H408.718ZM429.133 306.406C427.413 306.406 425.932 306.039 424.69 305.304C423.455 304.561 422.5 303.52 421.826 302.179C421.16 300.83 420.826 299.251 420.826 297.44C420.826 295.652 421.16 294.076 421.826 292.713C422.5 291.349 423.44 290.285 424.644 289.52C425.856 288.754 427.273 288.372 428.894 288.372C429.879 288.372 430.834 288.535 431.758 288.861C432.682 289.186 433.512 289.698 434.247 290.395C434.981 291.092 435.561 291.997 435.985 293.111C436.41 294.217 436.622 295.561 436.622 297.145V298.349H422.747V295.804H433.292C433.292 294.91 433.11 294.118 432.747 293.429C432.383 292.732 431.872 292.182 431.213 291.781C430.561 291.379 429.796 291.179 428.917 291.179C427.963 291.179 427.129 291.414 426.417 291.883C425.713 292.345 425.167 292.951 424.781 293.701C424.402 294.444 424.213 295.251 424.213 296.122V298.111C424.213 299.277 424.417 300.27 424.826 301.088C425.243 301.906 425.822 302.531 426.565 302.963C427.307 303.387 428.175 303.599 429.167 303.599C429.811 303.599 430.398 303.508 430.928 303.326C431.459 303.137 431.917 302.857 432.303 302.486C432.69 302.114 432.985 301.656 433.19 301.111L436.406 301.69C436.148 302.637 435.686 303.467 435.019 304.179C434.36 304.883 433.531 305.432 432.531 305.826C431.538 306.213 430.406 306.406 429.133 306.406ZM452.176 312.599V303.338H451.971C451.767 303.709 451.471 304.133 451.085 304.611C450.706 305.088 450.183 305.504 449.517 305.861C448.85 306.217 447.986 306.395 446.926 306.395C445.517 306.395 444.259 306.035 443.153 305.315C442.054 304.588 441.191 303.554 440.562 302.213C439.941 300.864 439.63 299.247 439.63 297.361C439.63 295.474 439.945 293.861 440.573 292.52C441.21 291.179 442.081 290.152 443.187 289.44C444.293 288.728 445.547 288.372 446.948 288.372C448.032 288.372 448.903 288.554 449.562 288.917C450.229 289.273 450.744 289.69 451.107 290.167C451.479 290.645 451.767 291.065 451.971 291.429H452.255V288.599H455.573V312.599H452.176ZM447.676 303.497C448.653 303.497 449.479 303.239 450.153 302.724C450.835 302.201 451.35 301.478 451.698 300.554C452.054 299.629 452.232 298.554 452.232 297.326C452.232 296.114 452.058 295.054 451.71 294.145C451.361 293.236 450.85 292.527 450.176 292.02C449.501 291.512 448.668 291.258 447.676 291.258C446.653 291.258 445.801 291.523 445.119 292.054C444.437 292.584 443.922 293.307 443.573 294.224C443.232 295.141 443.062 296.175 443.062 297.326C443.062 298.493 443.236 299.542 443.585 300.474C443.933 301.406 444.448 302.145 445.13 302.69C445.82 303.228 446.668 303.497 447.676 303.497ZM471.198 298.815V288.599H474.607V306.054H471.267V303.031H471.085C470.683 303.963 470.039 304.739 469.153 305.361C468.274 305.974 467.179 306.281 465.869 306.281C464.748 306.281 463.755 306.035 462.892 305.542C462.035 305.042 461.361 304.304 460.869 303.326C460.384 302.349 460.142 301.141 460.142 299.701V288.599H463.539V299.292C463.539 300.482 463.869 301.429 464.528 302.133C465.187 302.838 466.043 303.19 467.096 303.19C467.732 303.19 468.365 303.031 468.994 302.713C469.63 302.395 470.157 301.914 470.573 301.27C470.998 300.626 471.206 299.807 471.198 298.815ZM479.173 306.054V288.599H482.57V306.054H479.173ZM480.889 285.906C480.298 285.906 479.79 285.709 479.366 285.315C478.949 284.914 478.741 284.436 478.741 283.883C478.741 283.323 478.949 282.845 479.366 282.451C479.79 282.05 480.298 281.849 480.889 281.849C481.48 281.849 481.983 282.05 482.4 282.451C482.824 282.845 483.036 283.323 483.036 283.883C483.036 284.436 482.824 284.914 482.4 285.315C481.983 285.709 481.48 285.906 480.889 285.906ZM502.073 288.599L495.744 306.054H492.107L485.767 288.599H489.414L493.835 302.031H494.017L498.426 288.599H502.073ZM509.846 306.44C508.74 306.44 507.74 306.236 506.846 305.826C505.952 305.41 505.244 304.807 504.721 304.02C504.206 303.232 503.948 302.266 503.948 301.122C503.948 300.137 504.138 299.326 504.517 298.69C504.895 298.054 505.407 297.55 506.051 297.179C506.695 296.807 507.414 296.527 508.21 296.338C509.005 296.148 509.816 296.004 510.642 295.906C511.687 295.785 512.535 295.686 513.187 295.611C513.838 295.527 514.312 295.395 514.607 295.213C514.903 295.031 515.051 294.736 515.051 294.326V294.247C515.051 293.254 514.77 292.486 514.21 291.94C513.657 291.395 512.831 291.122 511.732 291.122C510.588 291.122 509.687 291.376 509.028 291.883C508.376 292.383 507.926 292.94 507.676 293.554L504.482 292.826C504.861 291.766 505.414 290.91 506.142 290.258C506.876 289.599 507.721 289.122 508.676 288.826C509.63 288.523 510.634 288.372 511.687 288.372C512.384 288.372 513.123 288.455 513.903 288.622C514.691 288.781 515.426 289.076 516.107 289.508C516.797 289.94 517.361 290.557 517.801 291.361C518.24 292.156 518.46 293.19 518.46 294.463V306.054H515.142V303.667H515.005C514.785 304.107 514.456 304.539 514.017 304.963C513.577 305.387 513.013 305.739 512.323 306.02C511.634 306.3 510.808 306.44 509.846 306.44ZM510.585 303.713C511.524 303.713 512.327 303.527 512.994 303.156C513.668 302.785 514.179 302.3 514.528 301.701C514.884 301.095 515.062 300.448 515.062 299.758V297.508C514.941 297.629 514.706 297.743 514.357 297.849C514.017 297.948 513.626 298.035 513.187 298.111C512.748 298.179 512.32 298.243 511.903 298.304C511.486 298.357 511.138 298.402 510.857 298.44C510.198 298.523 509.596 298.664 509.051 298.861C508.513 299.057 508.081 299.342 507.755 299.713C507.437 300.076 507.278 300.561 507.278 301.167C507.278 302.008 507.588 302.645 508.21 303.076C508.831 303.501 509.623 303.713 510.585 303.713ZM526.383 282.781V306.054H522.985V282.781H526.383ZM538.477 306.406C536.757 306.406 535.276 306.039 534.034 305.304C532.799 304.561 531.844 303.52 531.17 302.179C530.503 300.83 530.17 299.251 530.17 297.44C530.17 295.652 530.503 294.076 531.17 292.713C531.844 291.349 532.784 290.285 533.988 289.52C535.2 288.754 536.617 288.372 538.238 288.372C539.223 288.372 540.177 288.535 541.102 288.861C542.026 289.186 542.856 289.698 543.59 290.395C544.325 291.092 544.905 291.997 545.329 293.111C545.753 294.217 545.965 295.561 545.965 297.145V298.349H532.09V295.804H542.636C542.636 294.91 542.454 294.118 542.09 293.429C541.727 292.732 541.215 292.182 540.556 291.781C539.905 291.379 539.14 291.179 538.261 291.179C537.306 291.179 536.473 291.414 535.761 291.883C535.056 292.345 534.511 292.951 534.124 293.701C533.746 294.444 533.556 295.251 533.556 296.122V298.111C533.556 299.277 533.761 300.27 534.17 301.088C534.587 301.906 535.166 302.531 535.909 302.963C536.651 303.387 537.518 303.599 538.511 303.599C539.155 303.599 539.742 303.508 540.272 303.326C540.802 303.137 541.261 302.857 541.647 302.486C542.034 302.114 542.329 301.656 542.534 301.111L545.749 301.69C545.492 302.637 545.03 303.467 544.363 304.179C543.704 304.883 542.874 305.432 541.874 305.826C540.882 306.213 539.749 306.406 538.477 306.406ZM553.133 295.69V306.054H549.735V288.599H552.997V291.44H553.213C553.614 290.516 554.243 289.773 555.099 289.213C555.963 288.652 557.05 288.372 558.36 288.372C559.55 288.372 560.591 288.622 561.485 289.122C562.379 289.614 563.072 290.349 563.565 291.326C564.057 292.304 564.303 293.512 564.303 294.951V306.054H560.906V295.361C560.906 294.095 560.576 293.107 559.917 292.395C559.258 291.675 558.353 291.315 557.201 291.315C556.413 291.315 555.713 291.486 555.099 291.826C554.493 292.167 554.012 292.667 553.656 293.326C553.307 293.978 553.133 294.766 553.133 295.69ZM576.213 306.406C574.523 306.406 573.069 306.023 571.849 305.258C570.637 304.486 569.705 303.421 569.053 302.065C568.402 300.709 568.076 299.156 568.076 297.406C568.076 295.633 568.41 294.069 569.076 292.713C569.743 291.349 570.682 290.285 571.894 289.52C573.106 288.754 574.535 288.372 576.178 288.372C577.504 288.372 578.686 288.618 579.724 289.111C580.762 289.595 581.599 290.277 582.235 291.156C582.879 292.035 583.262 293.061 583.383 294.236H580.076C579.894 293.417 579.478 292.713 578.826 292.122C578.182 291.531 577.319 291.236 576.235 291.236C575.288 291.236 574.459 291.486 573.747 291.986C573.042 292.478 572.493 293.182 572.099 294.099C571.705 295.008 571.508 296.084 571.508 297.326C571.508 298.599 571.701 299.698 572.088 300.622C572.474 301.546 573.019 302.262 573.724 302.77C574.436 303.277 575.273 303.531 576.235 303.531C576.879 303.531 577.463 303.414 577.985 303.179C578.516 302.936 578.959 302.592 579.315 302.145C579.678 301.698 579.932 301.16 580.076 300.531H583.383C583.262 301.66 582.894 302.667 582.281 303.554C581.667 304.44 580.845 305.137 579.815 305.645C578.792 306.152 577.591 306.406 576.213 306.406ZM594.539 306.406C592.82 306.406 591.338 306.039 590.096 305.304C588.861 304.561 587.907 303.52 587.232 302.179C586.566 300.83 586.232 299.251 586.232 297.44C586.232 295.652 586.566 294.076 587.232 292.713C587.907 291.349 588.846 290.285 590.051 289.52C591.263 288.754 592.679 288.372 594.301 288.372C595.285 288.372 596.24 288.535 597.164 288.861C598.088 289.186 598.918 289.698 599.653 290.395C600.388 291.092 600.967 291.997 601.392 293.111C601.816 294.217 602.028 295.561 602.028 297.145V298.349H588.153V295.804H598.698C598.698 294.91 598.517 294.118 598.153 293.429C597.789 292.732 597.278 292.182 596.619 291.781C595.967 291.379 595.202 291.179 594.323 291.179C593.369 291.179 592.535 291.414 591.823 291.883C591.119 292.345 590.573 292.951 590.187 293.701C589.808 294.444 589.619 295.251 589.619 296.122V298.111C589.619 299.277 589.823 300.27 590.232 301.088C590.649 301.906 591.229 302.531 591.971 302.963C592.713 303.387 593.581 303.599 594.573 303.599C595.217 303.599 595.804 303.508 596.335 303.326C596.865 303.137 597.323 302.857 597.71 302.486C598.096 302.114 598.392 301.656 598.596 301.111L601.812 301.69C601.554 302.637 601.092 303.467 600.426 304.179C599.767 304.883 598.937 305.432 597.937 305.826C596.945 306.213 595.812 306.406 594.539 306.406ZM610.218 302.872L610.048 304.111C609.934 305.02 609.741 305.967 609.468 306.951C609.203 307.944 608.927 308.864 608.639 309.713C608.358 310.561 608.127 311.236 607.945 311.736H605.536C605.635 311.266 605.771 310.629 605.945 309.826C606.12 309.031 606.29 308.141 606.457 307.156C606.624 306.171 606.749 305.167 606.832 304.145L606.945 302.872H610.218ZM630.633 306.406C628.913 306.406 627.432 306.039 626.19 305.304C624.955 304.561 624 303.52 623.326 302.179C622.66 300.83 622.326 299.251 622.326 297.44C622.326 295.652 622.66 294.076 623.326 292.713C624 291.349 624.94 290.285 626.144 289.52C627.356 288.754 628.773 288.372 630.394 288.372C631.379 288.372 632.334 288.535 633.258 288.861C634.182 289.186 635.012 289.698 635.747 290.395C636.481 291.092 637.061 291.997 637.485 293.111C637.91 294.217 638.122 295.561 638.122 297.145V298.349H624.247V295.804H634.792C634.792 294.91 634.61 294.118 634.247 293.429C633.883 292.732 633.372 292.182 632.713 291.781C632.061 291.379 631.296 291.179 630.417 291.179C629.463 291.179 628.629 291.414 627.917 291.883C627.213 292.345 626.667 292.951 626.281 293.701C625.902 294.444 625.713 295.251 625.713 296.122V298.111C625.713 299.277 625.917 300.27 626.326 301.088C626.743 301.906 627.322 302.531 628.065 302.963C628.807 303.387 629.675 303.599 630.667 303.599C631.311 303.599 631.898 303.508 632.428 303.326C632.959 303.137 633.417 302.857 633.803 302.486C634.19 302.114 634.485 301.656 634.69 301.111L637.906 301.69C637.648 302.637 637.186 303.467 636.519 304.179C635.86 304.883 635.031 305.432 634.031 305.826C633.038 306.213 631.906 306.406 630.633 306.406ZM644.167 288.599L648.019 295.395L651.906 288.599H655.622L650.178 297.326L655.667 306.054H651.951L648.019 299.531L644.099 306.054H640.372L645.803 297.326L640.44 288.599H644.167ZM659.11 312.599V288.599H662.428V291.429H662.713C662.91 291.065 663.194 290.645 663.565 290.167C663.936 289.69 664.451 289.273 665.11 288.917C665.769 288.554 666.641 288.372 667.724 288.372C669.133 288.372 670.391 288.728 671.497 289.44C672.603 290.152 673.47 291.179 674.099 292.52C674.735 293.861 675.053 295.474 675.053 297.361C675.053 299.247 674.739 300.864 674.11 302.213C673.481 303.554 672.618 304.588 671.519 305.315C670.421 306.035 669.167 306.395 667.758 306.395C666.697 306.395 665.83 306.217 665.156 305.861C664.489 305.504 663.966 305.088 663.588 304.611C663.209 304.133 662.917 303.709 662.713 303.338H662.508V312.599H659.11ZM662.44 297.326C662.44 298.554 662.618 299.629 662.974 300.554C663.33 301.478 663.845 302.201 664.519 302.724C665.194 303.239 666.019 303.497 666.997 303.497C668.012 303.497 668.86 303.228 669.542 302.69C670.224 302.145 670.739 301.406 671.088 300.474C671.444 299.542 671.622 298.493 671.622 297.326C671.622 296.175 671.447 295.141 671.099 294.224C670.758 293.307 670.243 292.584 669.553 292.054C668.872 291.523 668.019 291.258 666.997 291.258C666.012 291.258 665.178 291.512 664.497 292.02C663.822 292.527 663.311 293.236 662.963 294.145C662.614 295.054 662.44 296.114 662.44 297.326ZM682.258 282.781V306.054H678.86V282.781H682.258ZM694.181 306.406C692.545 306.406 691.117 306.031 689.897 305.281C688.677 304.531 687.731 303.482 687.056 302.133C686.382 300.785 686.045 299.209 686.045 297.406C686.045 295.595 686.382 294.012 687.056 292.656C687.731 291.3 688.677 290.247 689.897 289.497C691.117 288.747 692.545 288.372 694.181 288.372C695.818 288.372 697.246 288.747 698.465 289.497C699.685 290.247 700.632 291.3 701.306 292.656C701.981 294.012 702.318 295.595 702.318 297.406C702.318 299.209 701.981 300.785 701.306 302.133C700.632 303.482 699.685 304.531 698.465 305.281C697.246 306.031 695.818 306.406 694.181 306.406ZM694.193 303.554C695.253 303.554 696.132 303.273 696.829 302.713C697.526 302.152 698.041 301.406 698.374 300.474C698.715 299.542 698.886 298.516 698.886 297.395C698.886 296.281 698.715 295.258 698.374 294.326C698.041 293.387 697.526 292.633 696.829 292.065C696.132 291.497 695.253 291.213 694.193 291.213C693.124 291.213 692.238 291.497 691.534 292.065C690.837 292.633 690.318 293.387 689.977 294.326C689.643 295.258 689.477 296.281 689.477 297.395C689.477 298.516 689.643 299.542 689.977 300.474C690.318 301.406 690.837 302.152 691.534 302.713C692.238 303.273 693.124 303.554 694.193 303.554ZM706.11 306.054V288.599H709.394V291.372H709.576C709.894 290.432 710.455 289.694 711.258 289.156C712.069 288.611 712.985 288.338 714.008 288.338C714.22 288.338 714.47 288.345 714.758 288.361C715.053 288.376 715.285 288.395 715.451 288.417V291.667C715.315 291.629 715.072 291.588 714.724 291.542C714.375 291.489 714.027 291.463 713.678 291.463C712.875 291.463 712.16 291.633 711.531 291.974C710.91 292.307 710.417 292.773 710.053 293.372C709.69 293.963 709.508 294.637 709.508 295.395V306.054H706.11ZM725.289 306.406C723.57 306.406 722.088 306.039 720.846 305.304C719.611 304.561 718.657 303.52 717.982 302.179C717.316 300.83 716.982 299.251 716.982 297.44C716.982 295.652 717.316 294.076 717.982 292.713C718.657 291.349 719.596 290.285 720.801 289.52C722.013 288.754 723.429 288.372 725.051 288.372C726.035 288.372 726.99 288.535 727.914 288.861C728.838 289.186 729.668 289.698 730.403 290.395C731.138 291.092 731.717 291.997 732.142 293.111C732.566 294.217 732.778 295.561 732.778 297.145V298.349H718.903V295.804H729.448C729.448 294.91 729.267 294.118 728.903 293.429C728.539 292.732 728.028 292.182 727.369 291.781C726.717 291.379 725.952 291.179 725.073 291.179C724.119 291.179 723.285 291.414 722.573 291.883C721.869 292.345 721.323 292.951 720.937 293.701C720.558 294.444 720.369 295.251 720.369 296.122V298.111C720.369 299.277 720.573 300.27 720.982 301.088C721.399 301.906 721.979 302.531 722.721 302.963C723.463 303.387 724.331 303.599 725.323 303.599C725.967 303.599 726.554 303.508 727.085 303.326C727.615 303.137 728.073 302.857 728.46 302.486C728.846 302.114 729.142 301.656 729.346 301.111L732.562 301.69C732.304 302.637 731.842 303.467 731.176 304.179C730.517 304.883 729.687 305.432 728.687 305.826C727.695 306.213 726.562 306.406 725.289 306.406ZM750.096 306.44C748.99 306.44 747.99 306.236 747.096 305.826C746.202 305.41 745.494 304.807 744.971 304.02C744.456 303.232 744.198 302.266 744.198 301.122C744.198 300.137 744.388 299.326 744.767 298.69C745.145 298.054 745.657 297.55 746.301 297.179C746.945 296.807 747.664 296.527 748.46 296.338C749.255 296.148 750.066 296.004 750.892 295.906C751.937 295.785 752.785 295.686 753.437 295.611C754.088 295.527 754.562 295.395 754.857 295.213C755.153 295.031 755.301 294.736 755.301 294.326V294.247C755.301 293.254 755.02 292.486 754.46 291.94C753.907 291.395 753.081 291.122 751.982 291.122C750.838 291.122 749.937 291.376 749.278 291.883C748.626 292.383 748.176 292.94 747.926 293.554L744.732 292.826C745.111 291.766 745.664 290.91 746.392 290.258C747.126 289.599 747.971 289.122 748.926 288.826C749.88 288.523 750.884 288.372 751.937 288.372C752.634 288.372 753.373 288.455 754.153 288.622C754.941 288.781 755.676 289.076 756.357 289.508C757.047 289.94 757.611 290.557 758.051 291.361C758.49 292.156 758.71 293.19 758.71 294.463V306.054H755.392V303.667H755.255C755.035 304.107 754.706 304.539 754.267 304.963C753.827 305.387 753.263 305.739 752.573 306.02C751.884 306.3 751.058 306.44 750.096 306.44ZM750.835 303.713C751.774 303.713 752.577 303.527 753.244 303.156C753.918 302.785 754.429 302.3 754.778 301.701C755.134 301.095 755.312 300.448 755.312 299.758V297.508C755.191 297.629 754.956 297.743 754.607 297.849C754.267 297.948 753.876 298.035 753.437 298.111C752.998 298.179 752.57 298.243 752.153 298.304C751.736 298.357 751.388 298.402 751.107 298.44C750.448 298.523 749.846 298.664 749.301 298.861C748.763 299.057 748.331 299.342 748.005 299.713C747.687 300.076 747.528 300.561 747.528 301.167C747.528 302.008 747.838 302.645 748.46 303.076C749.081 303.501 749.873 303.713 750.835 303.713ZM771.383 288.599V291.326H761.849V288.599H771.383ZM764.406 284.417H767.803V300.929C767.803 301.588 767.902 302.084 768.099 302.417C768.296 302.743 768.55 302.967 768.86 303.088C769.178 303.201 769.523 303.258 769.894 303.258C770.167 303.258 770.406 303.239 770.61 303.201C770.815 303.164 770.974 303.133 771.088 303.111L771.701 305.917C771.504 305.993 771.224 306.069 770.86 306.145C770.497 306.228 770.042 306.273 769.497 306.281C768.603 306.296 767.769 306.137 766.997 305.804C766.224 305.47 765.599 304.955 765.122 304.258C764.644 303.561 764.406 302.686 764.406 301.633V284.417ZM787.008 282.781V306.054H783.61V282.781H787.008ZM799.102 306.406C797.382 306.406 795.901 306.039 794.659 305.304C793.424 304.561 792.469 303.52 791.795 302.179C791.128 300.83 790.795 299.251 790.795 297.44C790.795 295.652 791.128 294.076 791.795 292.713C792.469 291.349 793.409 290.285 794.613 289.52C795.825 288.754 797.242 288.372 798.863 288.372C799.848 288.372 800.802 288.535 801.727 288.861C802.651 289.186 803.481 289.698 804.215 290.395C804.95 291.092 805.53 291.997 805.954 293.111C806.378 294.217 806.59 295.561 806.59 297.145V298.349H792.715V295.804H803.261C803.261 294.91 803.079 294.118 802.715 293.429C802.352 292.732 801.84 292.182 801.181 291.781C800.53 291.379 799.765 291.179 798.886 291.179C797.931 291.179 797.098 291.414 796.386 291.883C795.681 292.345 795.136 292.951 794.749 293.701C794.371 294.444 794.181 295.251 794.181 296.122V298.111C794.181 299.277 794.386 300.27 794.795 301.088C795.212 301.906 795.791 302.531 796.534 302.963C797.276 303.387 798.143 303.599 799.136 303.599C799.78 303.599 800.367 303.508 800.897 303.326C801.427 303.137 801.886 302.857 802.272 302.486C802.659 302.114 802.954 301.656 803.159 301.111L806.374 301.69C806.117 302.637 805.655 303.467 804.988 304.179C804.329 304.883 803.499 305.432 802.499 305.826C801.507 306.213 800.374 306.406 799.102 306.406ZM815.44 306.44C814.334 306.44 813.334 306.236 812.44 305.826C811.546 305.41 810.838 304.807 810.315 304.02C809.8 303.232 809.542 302.266 809.542 301.122C809.542 300.137 809.731 299.326 810.11 298.69C810.489 298.054 811 297.55 811.644 297.179C812.288 296.807 813.008 296.527 813.803 296.338C814.599 296.148 815.41 296.004 816.235 295.906C817.281 295.785 818.129 295.686 818.781 295.611C819.432 295.527 819.906 295.395 820.201 295.213C820.497 295.031 820.644 294.736 820.644 294.326V294.247C820.644 293.254 820.364 292.486 819.803 291.94C819.25 291.395 818.425 291.122 817.326 291.122C816.182 291.122 815.281 291.376 814.622 291.883C813.97 292.383 813.519 292.94 813.269 293.554L810.076 292.826C810.455 291.766 811.008 290.91 811.735 290.258C812.47 289.599 813.315 289.122 814.269 288.826C815.224 288.523 816.228 288.372 817.281 288.372C817.978 288.372 818.716 288.455 819.497 288.622C820.285 288.781 821.019 289.076 821.701 289.508C822.391 289.94 822.955 290.557 823.394 291.361C823.834 292.156 824.053 293.19 824.053 294.463V306.054H820.735V303.667H820.599C820.379 304.107 820.05 304.539 819.61 304.963C819.171 305.387 818.606 305.739 817.917 306.02C817.228 306.3 816.402 306.44 815.44 306.44ZM816.178 303.713C817.118 303.713 817.921 303.527 818.588 303.156C819.262 302.785 819.773 302.3 820.122 301.701C820.478 301.095 820.656 300.448 820.656 299.758V297.508C820.535 297.629 820.3 297.743 819.951 297.849C819.61 297.948 819.22 298.035 818.781 298.111C818.341 298.179 817.913 298.243 817.497 298.304C817.08 298.357 816.731 298.402 816.451 298.44C815.792 298.523 815.19 298.664 814.644 298.861C814.106 299.057 813.675 299.342 813.349 299.713C813.031 300.076 812.872 300.561 812.872 301.167C812.872 302.008 813.182 302.645 813.803 303.076C814.425 303.501 815.216 303.713 816.178 303.713ZM841.659 292.861L838.579 293.406C838.45 293.012 838.246 292.637 837.965 292.281C837.693 291.925 837.321 291.633 836.852 291.406C836.382 291.179 835.795 291.065 835.09 291.065C834.128 291.065 833.325 291.281 832.681 291.713C832.037 292.137 831.715 292.686 831.715 293.361C831.715 293.944 831.931 294.414 832.363 294.77C832.795 295.126 833.492 295.417 834.454 295.645L837.227 296.281C838.833 296.652 840.03 297.224 840.818 297.997C841.606 298.77 841.999 299.773 841.999 301.008C841.999 302.054 841.696 302.986 841.09 303.804C840.492 304.614 839.655 305.251 838.579 305.713C837.511 306.175 836.272 306.406 834.863 306.406C832.909 306.406 831.314 305.989 830.079 305.156C828.844 304.315 828.087 303.122 827.806 301.576L831.09 301.076C831.295 301.932 831.715 302.58 832.352 303.02C832.988 303.451 833.818 303.667 834.84 303.667C835.954 303.667 836.844 303.436 837.511 302.974C838.177 302.504 838.511 301.932 838.511 301.258C838.511 300.713 838.306 300.254 837.897 299.883C837.496 299.512 836.878 299.232 836.045 299.042L833.09 298.395C831.462 298.023 830.257 297.432 829.477 296.622C828.704 295.811 828.318 294.785 828.318 293.542C828.318 292.512 828.606 291.611 829.181 290.838C829.757 290.065 830.552 289.463 831.568 289.031C832.583 288.592 833.746 288.372 835.056 288.372C836.943 288.372 838.427 288.781 839.511 289.599C840.594 290.41 841.31 291.497 841.659 292.861ZM853.883 288.599V291.326H844.349V288.599H853.883ZM846.906 284.417H850.303V300.929C850.303 301.588 850.402 302.084 850.599 302.417C850.796 302.743 851.05 302.967 851.36 303.088C851.678 303.201 852.023 303.258 852.394 303.258C852.667 303.258 852.906 303.239 853.11 303.201C853.315 303.164 853.474 303.133 853.588 303.111L854.201 305.917C854.004 305.993 853.724 306.069 853.36 306.145C852.997 306.228 852.542 306.273 851.997 306.281C851.103 306.296 850.269 306.137 849.497 305.804C848.724 305.47 848.099 304.955 847.622 304.258C847.144 303.561 846.906 302.686 846.906 301.633V284.417ZM873.463 306.406C871.826 306.406 870.398 306.031 869.178 305.281C867.959 304.531 867.012 303.482 866.338 302.133C865.663 300.785 865.326 299.209 865.326 297.406C865.326 295.595 865.663 294.012 866.338 292.656C867.012 291.3 867.959 290.247 869.178 289.497C870.398 288.747 871.826 288.372 873.463 288.372C875.099 288.372 876.527 288.747 877.747 289.497C878.966 290.247 879.913 291.3 880.588 292.656C881.262 294.012 881.599 295.595 881.599 297.406C881.599 299.209 881.262 300.785 880.588 302.133C879.913 303.482 878.966 304.531 877.747 305.281C876.527 306.031 875.099 306.406 873.463 306.406ZM873.474 303.554C874.535 303.554 875.413 303.273 876.11 302.713C876.807 302.152 877.322 301.406 877.656 300.474C877.997 299.542 878.167 298.516 878.167 297.395C878.167 296.281 877.997 295.258 877.656 294.326C877.322 293.387 876.807 292.633 876.11 292.065C875.413 291.497 874.535 291.213 873.474 291.213C872.406 291.213 871.519 291.497 870.815 292.065C870.118 292.633 869.599 293.387 869.258 294.326C868.925 295.258 868.758 296.281 868.758 297.395C868.758 298.516 868.925 299.542 869.258 300.474C869.599 301.406 870.118 302.152 870.815 302.713C871.519 303.273 872.406 303.554 873.474 303.554ZM888.789 295.69V306.054H885.392V288.599H888.653V291.44H888.869C889.27 290.516 889.899 289.773 890.755 289.213C891.619 288.652 892.706 288.372 894.017 288.372C895.206 288.372 896.248 288.622 897.142 289.122C898.035 289.614 898.729 290.349 899.221 291.326C899.713 292.304 899.96 293.512 899.96 294.951V306.054H896.562V295.361C896.562 294.095 896.232 293.107 895.573 292.395C894.914 291.675 894.009 291.315 892.857 291.315C892.07 291.315 891.369 291.486 890.755 291.826C890.149 292.167 889.668 292.667 889.312 293.326C888.963 293.978 888.789 294.766 888.789 295.69ZM912.039 306.406C910.32 306.406 908.838 306.039 907.596 305.304C906.361 304.561 905.407 303.52 904.732 302.179C904.066 300.83 903.732 299.251 903.732 297.44C903.732 295.652 904.066 294.076 904.732 292.713C905.407 291.349 906.346 290.285 907.551 289.52C908.763 288.754 910.179 288.372 911.801 288.372C912.785 288.372 913.74 288.535 914.664 288.861C915.588 289.186 916.418 289.698 917.153 290.395C917.888 291.092 918.467 291.997 918.892 293.111C919.316 294.217 919.528 295.561 919.528 297.145V298.349H905.653V295.804H916.198C916.198 294.91 916.017 294.118 915.653 293.429C915.289 292.732 914.778 292.182 914.119 291.781C913.467 291.379 912.702 291.179 911.823 291.179C910.869 291.179 910.035 291.414 909.323 291.883C908.619 292.345 908.073 292.951 907.687 293.701C907.308 294.444 907.119 295.251 907.119 296.122V298.111C907.119 299.277 907.323 300.27 907.732 301.088C908.149 301.906 908.729 302.531 909.471 302.963C910.213 303.387 911.081 303.599 912.073 303.599C912.717 303.599 913.304 303.508 913.835 303.326C914.365 303.137 914.823 302.857 915.21 302.486C915.596 302.114 915.892 301.656 916.096 301.111L919.312 301.69C919.054 302.637 918.592 303.467 917.926 304.179C917.267 304.883 916.437 305.432 915.437 305.826C914.445 306.213 913.312 306.406 912.039 306.406ZM931.767 306.054V288.599H935.051V291.372H935.232C935.551 290.432 936.111 289.694 936.914 289.156C937.725 288.611 938.642 288.338 939.664 288.338C939.876 288.338 940.126 288.345 940.414 288.361C940.71 288.376 940.941 288.395 941.107 288.417V291.667C940.971 291.629 940.729 291.588 940.38 291.542C940.032 291.489 939.683 291.463 939.335 291.463C938.532 291.463 937.816 291.633 937.187 291.974C936.566 292.307 936.073 292.773 935.71 293.372C935.346 293.963 935.164 294.637 935.164 295.395V306.054H931.767ZM955.105 298.815V288.599H958.514V306.054H955.173V303.031H954.991C954.589 303.963 953.945 304.739 953.059 305.361C952.18 305.974 951.086 306.281 949.775 306.281C948.654 306.281 947.661 306.035 946.798 305.542C945.942 305.042 945.267 304.304 944.775 303.326C944.29 302.349 944.048 301.141 944.048 299.701V288.599H947.445V299.292C947.445 300.482 947.775 301.429 948.434 302.133C949.093 302.838 949.949 303.19 951.002 303.19C951.639 303.19 952.271 303.031 952.9 302.713C953.536 302.395 954.063 301.914 954.48 301.27C954.904 300.626 955.112 299.807 955.105 298.815ZM966.477 295.69V306.054H963.079V288.599H966.34V291.44H966.556C966.958 290.516 967.587 289.773 968.443 289.213C969.306 288.652 970.393 288.372 971.704 288.372C972.893 288.372 973.935 288.622 974.829 289.122C975.723 289.614 976.416 290.349 976.909 291.326C977.401 292.304 977.647 293.512 977.647 294.951V306.054H974.249V295.361C974.249 294.095 973.92 293.107 973.261 292.395C972.602 291.675 971.696 291.315 970.545 291.315C969.757 291.315 969.056 291.486 968.443 291.826C967.837 292.167 967.356 292.667 966.999 293.326C966.651 293.978 966.477 294.766 966.477 295.69ZM990.673 312.599V288.599H993.991V291.429H994.275C994.472 291.065 994.756 290.645 995.127 290.167C995.499 289.69 996.014 289.273 996.673 288.917C997.332 288.554 998.203 288.372 999.286 288.372C1000.7 288.372 1001.95 288.728 1003.06 289.44C1004.17 290.152 1005.03 291.179 1005.66 292.52C1006.3 293.861 1006.62 295.474 1006.62 297.361C1006.62 299.247 1006.3 300.864 1005.67 302.213C1005.04 303.554 1004.18 304.588 1003.08 305.315C1001.98 306.035 1000.73 306.395 999.32 306.395C998.26 306.395 997.392 306.217 996.718 305.861C996.052 305.504 995.529 305.088 995.15 304.611C994.771 304.133 994.48 303.709 994.275 303.338H994.07V312.599H990.673ZM994.002 297.326C994.002 298.554 994.18 299.629 994.536 300.554C994.892 301.478 995.408 302.201 996.082 302.724C996.756 303.239 997.582 303.497 998.559 303.497C999.574 303.497 1000.42 303.228 1001.1 302.69C1001.79 302.145 1002.3 301.406 1002.65 300.474C1003.01 299.542 1003.18 298.493 1003.18 297.326C1003.18 296.175 1003.01 295.141 1002.66 294.224C1002.32 293.307 1001.81 292.584 1001.12 292.054C1000.43 291.523 999.582 291.258 998.559 291.258C997.574 291.258 996.741 291.512 996.059 292.02C995.385 292.527 994.874 293.236 994.525 294.145C994.177 295.054 994.002 296.114 994.002 297.326ZM1017.95 306.406C1016.23 306.406 1014.74 306.039 1013.5 305.304C1012.27 304.561 1011.31 303.52 1010.64 302.179C1009.97 300.83 1009.64 299.251 1009.64 297.44C1009.64 295.652 1009.97 294.076 1010.64 292.713C1011.31 291.349 1012.25 290.285 1013.46 289.52C1014.67 288.754 1016.09 288.372 1017.71 288.372C1018.69 288.372 1019.65 288.535 1020.57 288.861C1021.49 289.186 1022.32 289.698 1023.06 290.395C1023.79 291.092 1024.37 291.997 1024.8 293.111C1025.22 294.217 1025.43 295.561 1025.43 297.145V298.349H1011.56V295.804H1022.1C1022.1 294.91 1021.92 294.118 1021.56 293.429C1021.2 292.732 1020.68 292.182 1020.03 291.781C1019.37 291.379 1018.61 291.179 1017.73 291.179C1016.78 291.179 1015.94 291.414 1015.23 291.883C1014.53 292.345 1013.98 292.951 1013.59 293.701C1013.21 294.444 1013.03 295.251 1013.03 296.122V298.111C1013.03 299.277 1013.23 300.27 1013.64 301.088C1014.06 301.906 1014.63 302.531 1015.38 302.963C1016.12 303.387 1016.99 303.599 1017.98 303.599C1018.62 303.599 1019.21 303.508 1019.74 303.326C1020.27 303.137 1020.73 302.857 1021.12 302.486C1021.5 302.114 1021.8 301.656 1022 301.111L1025.22 301.69C1024.96 302.637 1024.5 303.467 1023.83 304.179C1023.17 304.883 1022.34 305.432 1021.34 305.826C1020.35 306.213 1019.22 306.406 1017.95 306.406ZM1029.2 306.054V288.599H1032.49V291.372H1032.67C1032.99 290.432 1033.55 289.694 1034.35 289.156C1035.16 288.611 1036.08 288.338 1037.1 288.338C1037.31 288.338 1037.56 288.345 1037.85 288.361C1038.15 288.376 1038.38 288.395 1038.54 288.417V291.667C1038.41 291.629 1038.17 291.588 1037.82 291.542C1037.47 291.489 1037.12 291.463 1036.77 291.463C1035.97 291.463 1035.25 291.633 1034.62 291.974C1034 292.307 1033.51 292.773 1033.15 293.372C1032.78 293.963 1032.6 294.637 1032.6 295.395V306.054H1029.2ZM1057.48 306.406C1055.76 306.406 1054.28 306.039 1053.03 305.304C1051.8 304.561 1050.84 303.52 1050.17 302.179C1049.5 300.83 1049.17 299.251 1049.17 297.44C1049.17 295.652 1049.5 294.076 1050.17 292.713C1050.84 291.349 1051.78 290.285 1052.99 289.52C1054.2 288.754 1055.62 288.372 1057.24 288.372C1058.22 288.372 1059.18 288.535 1060.1 288.861C1061.03 289.186 1061.86 289.698 1062.59 290.395C1063.33 291.092 1063.9 291.997 1064.33 293.111C1064.75 294.217 1064.97 295.561 1064.97 297.145V298.349H1051.09V295.804H1061.64C1061.64 294.91 1061.45 294.118 1061.09 293.429C1060.73 292.732 1060.22 292.182 1059.56 291.781C1058.9 291.379 1058.14 291.179 1057.26 291.179C1056.31 291.179 1055.47 291.414 1054.76 291.883C1054.06 292.345 1053.51 292.951 1053.12 293.701C1052.75 294.444 1052.56 295.251 1052.56 296.122V298.111C1052.56 299.277 1052.76 300.27 1053.17 301.088C1053.59 301.906 1054.17 302.531 1054.91 302.963C1055.65 303.387 1056.52 303.599 1057.51 303.599C1058.15 303.599 1058.74 303.508 1059.27 303.326C1059.8 303.137 1060.26 302.857 1060.65 302.486C1061.03 302.114 1061.33 301.656 1061.53 301.111L1064.75 301.69C1064.49 302.637 1064.03 303.467 1063.36 304.179C1062.7 304.883 1061.87 305.432 1060.87 305.826C1059.88 306.213 1058.75 306.406 1057.48 306.406ZM1080.52 312.599V303.338H1080.31C1080.11 303.709 1079.81 304.133 1079.43 304.611C1079.05 305.088 1078.53 305.504 1077.86 305.861C1077.19 306.217 1076.33 306.395 1075.27 306.395C1073.86 306.395 1072.6 306.035 1071.5 305.315C1070.4 304.588 1069.53 303.554 1068.91 302.213C1068.28 300.864 1067.97 299.247 1067.97 297.361C1067.97 295.474 1068.29 293.861 1068.92 292.52C1069.55 291.179 1070.42 290.152 1071.53 289.44C1072.64 288.728 1073.89 288.372 1075.29 288.372C1076.38 288.372 1077.25 288.554 1077.91 288.917C1078.57 289.273 1079.09 289.69 1079.45 290.167C1079.82 290.645 1080.11 291.065 1080.31 291.429H1080.6V288.599H1083.92V312.599H1080.52ZM1076.02 303.497C1077 303.497 1077.82 303.239 1078.5 302.724C1079.18 302.201 1079.69 301.478 1080.04 300.554C1080.4 299.629 1080.58 298.554 1080.58 297.326C1080.58 296.114 1080.4 295.054 1080.05 294.145C1079.7 293.236 1079.19 292.527 1078.52 292.02C1077.85 291.512 1077.01 291.258 1076.02 291.258C1075 291.258 1074.14 291.523 1073.46 292.054C1072.78 292.584 1072.27 293.307 1071.92 294.224C1071.58 295.141 1071.41 296.175 1071.41 297.326C1071.41 298.493 1071.58 299.542 1071.93 300.474C1072.28 301.406 1072.79 302.145 1073.47 302.69C1074.16 303.228 1075.01 303.497 1076.02 303.497ZM1099.54 298.815V288.599H1102.95V306.054H1099.61V303.031H1099.43C1099.03 303.963 1098.38 304.739 1097.5 305.361C1096.62 305.974 1095.52 306.281 1094.21 306.281C1093.09 306.281 1092.1 306.035 1091.24 305.542C1090.38 305.042 1089.7 304.304 1089.21 303.326C1088.73 302.349 1088.49 301.141 1088.49 299.701V288.599H1091.88V299.292C1091.88 300.482 1092.21 301.429 1092.87 302.133C1093.53 302.838 1094.39 303.19 1095.44 303.19C1096.08 303.19 1096.71 303.031 1097.34 302.713C1097.97 302.395 1098.5 301.914 1098.92 301.27C1099.34 300.626 1099.55 299.807 1099.54 298.815ZM1107.52 306.054V288.599H1110.91V306.054H1107.52ZM1109.23 285.906C1108.64 285.906 1108.13 285.709 1107.71 285.315C1107.29 284.914 1107.08 284.436 1107.08 283.883C1107.08 283.323 1107.29 282.845 1107.71 282.451C1108.13 282.05 1108.64 281.849 1109.23 281.849C1109.82 281.849 1110.33 282.05 1110.74 282.451C1111.17 282.845 1111.38 283.323 1111.38 283.883C1111.38 284.436 1111.17 284.914 1110.74 285.315C1110.33 285.709 1109.82 285.906 1109.23 285.906ZM1130.42 288.599L1124.09 306.054H1120.45L1114.11 288.599H1117.76L1122.18 302.031H1122.36L1126.77 288.599H1130.42ZM1138.19 306.44C1137.08 306.44 1136.08 306.236 1135.19 305.826C1134.3 305.41 1133.59 304.807 1133.06 304.02C1132.55 303.232 1132.29 302.266 1132.29 301.122C1132.29 300.137 1132.48 299.326 1132.86 298.69C1133.24 298.054 1133.75 297.55 1134.39 297.179C1135.04 296.807 1135.76 296.527 1136.55 296.338C1137.35 296.148 1138.16 296.004 1138.99 295.906C1140.03 295.785 1140.88 295.686 1141.53 295.611C1142.18 295.527 1142.66 295.395 1142.95 295.213C1143.25 295.031 1143.39 294.736 1143.39 294.326V294.247C1143.39 293.254 1143.11 292.486 1142.55 291.94C1142 291.395 1141.17 291.122 1140.08 291.122C1138.93 291.122 1138.03 291.376 1137.37 291.883C1136.72 292.383 1136.27 292.94 1136.02 293.554L1132.83 292.826C1133.2 291.766 1133.76 290.91 1134.49 290.258C1135.22 289.599 1136.06 289.122 1137.02 288.826C1137.97 288.523 1138.98 288.372 1140.03 288.372C1140.73 288.372 1141.47 288.455 1142.25 288.622C1143.03 288.781 1143.77 289.076 1144.45 289.508C1145.14 289.94 1145.7 290.557 1146.14 291.361C1146.58 292.156 1146.8 293.19 1146.8 294.463V306.054H1143.49V303.667H1143.35C1143.13 304.107 1142.8 304.539 1142.36 304.963C1141.92 305.387 1141.36 305.739 1140.67 306.02C1139.98 306.3 1139.15 306.44 1138.19 306.44ZM1138.93 303.713C1139.87 303.713 1140.67 303.527 1141.34 303.156C1142.01 302.785 1142.52 302.3 1142.87 301.701C1143.23 301.095 1143.41 300.448 1143.41 299.758V297.508C1143.28 297.629 1143.05 297.743 1142.7 297.849C1142.36 297.948 1141.97 298.035 1141.53 298.111C1141.09 298.179 1140.66 298.243 1140.25 298.304C1139.83 298.357 1139.48 298.402 1139.2 298.44C1138.54 298.523 1137.94 298.664 1137.39 298.861C1136.86 299.057 1136.42 299.342 1136.1 299.713C1135.78 300.076 1135.62 300.561 1135.62 301.167C1135.62 302.008 1135.93 302.645 1136.55 303.076C1137.17 303.501 1137.97 303.713 1138.93 303.713ZM1154.73 282.781V306.054H1151.33V282.781H1154.73ZM1166.82 306.406C1165.1 306.406 1163.62 306.039 1162.38 305.304C1161.14 304.561 1160.19 303.52 1159.51 302.179C1158.85 300.83 1158.51 299.251 1158.51 297.44C1158.51 295.652 1158.85 294.076 1159.51 292.713C1160.19 291.349 1161.13 290.285 1162.33 289.52C1163.54 288.754 1164.96 288.372 1166.58 288.372C1167.57 288.372 1168.52 288.535 1169.45 288.861C1170.37 289.186 1171.2 289.698 1171.93 290.395C1172.67 291.092 1173.25 291.997 1173.67 293.111C1174.1 294.217 1174.31 295.561 1174.31 297.145V298.349H1160.43V295.804H1170.98C1170.98 294.91 1170.8 294.118 1170.43 293.429C1170.07 292.732 1169.56 292.182 1168.9 291.781C1168.25 291.379 1167.48 291.179 1166.6 291.179C1165.65 291.179 1164.82 291.414 1164.1 291.883C1163.4 292.345 1162.85 292.951 1162.47 293.701C1162.09 294.444 1161.9 295.251 1161.9 296.122V298.111C1161.9 299.277 1162.1 300.27 1162.51 301.088C1162.93 301.906 1163.51 302.531 1164.25 302.963C1164.99 303.387 1165.86 303.599 1166.85 303.599C1167.5 303.599 1168.09 303.508 1168.62 303.326C1169.15 303.137 1169.6 302.857 1169.99 302.486C1170.38 302.114 1170.67 301.656 1170.88 301.111L1174.09 301.69C1173.84 302.637 1173.37 303.467 1172.71 304.179C1172.05 304.883 1171.22 305.432 1170.22 305.826C1169.23 306.213 1168.09 306.406 1166.82 306.406ZM1181.48 295.69V306.054H1178.08V288.599H1181.34V291.44H1181.56C1181.96 290.516 1182.59 289.773 1183.44 289.213C1184.31 288.652 1185.39 288.372 1186.7 288.372C1187.89 288.372 1188.94 288.622 1189.83 289.122C1190.72 289.614 1191.42 290.349 1191.91 291.326C1192.4 292.304 1192.65 293.512 1192.65 294.951V306.054H1189.25V295.361C1189.25 294.095 1188.92 293.107 1188.26 292.395C1187.6 291.675 1186.7 291.315 1185.54 291.315C1184.76 291.315 1184.06 291.486 1183.44 291.826C1182.84 292.167 1182.36 292.667 1182 293.326C1181.65 293.978 1181.48 294.766 1181.48 295.69ZM1204.56 306.406C1202.87 306.406 1201.41 306.023 1200.19 305.258C1198.98 304.486 1198.05 303.421 1197.4 302.065C1196.75 300.709 1196.42 299.156 1196.42 297.406C1196.42 295.633 1196.75 294.069 1197.42 292.713C1198.09 291.349 1199.03 290.285 1200.24 289.52C1201.45 288.754 1202.88 288.372 1204.52 288.372C1205.85 288.372 1207.03 288.618 1208.07 289.111C1209.11 289.595 1209.94 290.277 1210.58 291.156C1211.22 292.035 1211.61 293.061 1211.73 294.236H1208.42C1208.24 293.417 1207.82 292.713 1207.17 292.122C1206.53 291.531 1205.66 291.236 1204.58 291.236C1203.63 291.236 1202.8 291.486 1202.09 291.986C1201.39 292.478 1200.84 293.182 1200.44 294.099C1200.05 295.008 1199.85 296.084 1199.85 297.326C1199.85 298.599 1200.04 299.698 1200.43 300.622C1200.82 301.546 1201.36 302.262 1202.07 302.77C1202.78 303.277 1203.62 303.531 1204.58 303.531C1205.22 303.531 1205.81 303.414 1206.33 303.179C1206.86 302.936 1207.3 302.592 1207.66 302.145C1208.02 301.698 1208.28 301.16 1208.42 300.531H1211.73C1211.61 301.66 1211.24 302.667 1210.62 303.554C1210.01 304.44 1209.19 305.137 1208.16 305.645C1207.14 306.152 1205.94 306.406 1204.56 306.406ZM1222.88 306.406C1221.16 306.406 1219.68 306.039 1218.44 305.304C1217.2 304.561 1216.25 303.52 1215.58 302.179C1214.91 300.83 1214.58 299.251 1214.58 297.44C1214.58 295.652 1214.91 294.076 1215.58 292.713C1216.25 291.349 1217.19 290.285 1218.39 289.52C1219.61 288.754 1221.02 288.372 1222.64 288.372C1223.63 288.372 1224.58 288.535 1225.51 288.861C1226.43 289.186 1227.26 289.698 1228 290.395C1228.73 291.092 1229.31 291.997 1229.74 293.111C1230.16 294.217 1230.37 295.561 1230.37 297.145V298.349H1216.5V295.804H1227.04C1227.04 294.91 1226.86 294.118 1226.5 293.429C1226.13 292.732 1225.62 292.182 1224.96 291.781C1224.31 291.379 1223.55 291.179 1222.67 291.179C1221.71 291.179 1220.88 291.414 1220.17 291.883C1219.46 292.345 1218.92 292.951 1218.53 293.701C1218.15 294.444 1217.96 295.251 1217.96 296.122V298.111C1217.96 299.277 1218.17 300.27 1218.58 301.088C1218.99 301.906 1219.57 302.531 1220.31 302.963C1221.06 303.387 1221.92 303.599 1222.92 303.599C1223.56 303.599 1224.15 303.508 1224.68 303.326C1225.21 303.137 1225.67 302.857 1226.05 302.486C1226.44 302.114 1226.74 301.656 1226.94 301.111L1230.16 301.69C1229.9 302.637 1229.44 303.467 1228.77 304.179C1228.11 304.883 1227.28 305.432 1226.28 305.826C1225.29 306.213 1224.16 306.406 1222.88 306.406ZM1249.96 306.406C1248.27 306.406 1246.82 306.023 1245.6 305.258C1244.39 304.486 1243.45 303.421 1242.8 302.065C1242.15 300.709 1241.83 299.156 1241.83 297.406C1241.83 295.633 1242.16 294.069 1242.83 292.713C1243.49 291.349 1244.43 290.285 1245.64 289.52C1246.86 288.754 1248.28 288.372 1249.93 288.372C1251.25 288.372 1252.44 288.618 1253.47 289.111C1254.51 289.595 1255.35 290.277 1255.99 291.156C1256.63 292.035 1257.01 293.061 1257.13 294.236H1253.83C1253.64 293.417 1253.23 292.713 1252.58 292.122C1251.93 291.531 1251.07 291.236 1249.99 291.236C1249.04 291.236 1248.21 291.486 1247.5 291.986C1246.79 292.478 1246.24 293.182 1245.85 294.099C1245.45 295.008 1245.26 296.084 1245.26 297.326C1245.26 298.599 1245.45 299.698 1245.84 300.622C1246.22 301.546 1246.77 302.262 1247.47 302.77C1248.19 303.277 1249.02 303.531 1249.99 303.531C1250.63 303.531 1251.21 303.414 1251.74 303.179C1252.27 302.936 1252.71 302.592 1253.06 302.145C1253.43 301.698 1253.68 301.16 1253.83 300.531H1257.13C1257.01 301.66 1256.64 302.667 1256.03 303.554C1255.42 304.44 1254.6 305.137 1253.56 305.645C1252.54 306.152 1251.34 306.406 1249.96 306.406ZM1264.16 282.781V306.054H1260.77V282.781H1264.16ZM1273.81 306.44C1272.71 306.44 1271.71 306.236 1270.81 305.826C1269.92 305.41 1269.21 304.807 1268.69 304.02C1268.17 303.232 1267.92 302.266 1267.92 301.122C1267.92 300.137 1268.11 299.326 1268.49 298.69C1268.86 298.054 1269.38 297.55 1270.02 297.179C1270.66 296.807 1271.38 296.527 1272.18 296.338C1272.97 296.148 1273.78 296.004 1274.61 295.906C1275.66 295.785 1276.5 295.686 1277.16 295.611C1277.81 295.527 1278.28 295.395 1278.58 295.213C1278.87 295.031 1279.02 294.736 1279.02 294.326V294.247C1279.02 293.254 1278.74 292.486 1278.18 291.94C1277.63 291.395 1276.8 291.122 1275.7 291.122C1274.56 291.122 1273.66 291.376 1273 291.883C1272.35 292.383 1271.89 292.94 1271.64 293.554L1268.45 292.826C1268.83 291.766 1269.38 290.91 1270.11 290.258C1270.85 289.599 1271.69 289.122 1272.64 288.826C1273.6 288.523 1274.6 288.372 1275.66 288.372C1276.35 288.372 1277.09 288.455 1277.87 288.622C1278.66 288.781 1279.39 289.076 1280.08 289.508C1280.77 289.94 1281.33 290.557 1281.77 291.361C1282.21 292.156 1282.43 293.19 1282.43 294.463V306.054H1279.11V303.667H1278.97C1278.75 304.107 1278.42 304.539 1277.99 304.963C1277.55 305.387 1276.98 305.739 1276.29 306.02C1275.6 306.3 1274.78 306.44 1273.81 306.44ZM1274.55 303.713C1275.49 303.713 1276.3 303.527 1276.96 303.156C1277.64 302.785 1278.15 302.3 1278.5 301.701C1278.85 301.095 1279.03 300.448 1279.03 299.758V297.508C1278.91 297.629 1278.67 297.743 1278.33 297.849C1277.99 297.948 1277.6 298.035 1277.16 298.111C1276.72 298.179 1276.29 298.243 1275.87 298.304C1275.45 298.357 1275.11 298.402 1274.83 298.44C1274.17 298.523 1273.56 298.664 1273.02 298.861C1272.48 299.057 1272.05 299.342 1271.72 299.713C1271.41 300.076 1271.25 300.561 1271.25 301.167C1271.25 302.008 1271.56 302.645 1272.18 303.076C1272.8 303.501 1273.59 303.713 1274.55 303.713ZM1300.03 292.861L1296.95 293.406C1296.83 293.012 1296.62 292.637 1296.34 292.281C1296.07 291.925 1295.7 291.633 1295.23 291.406C1294.76 291.179 1294.17 291.065 1293.47 291.065C1292.5 291.065 1291.7 291.281 1291.06 291.713C1290.41 292.137 1290.09 292.686 1290.09 293.361C1290.09 293.944 1290.31 294.414 1290.74 294.77C1291.17 295.126 1291.87 295.417 1292.83 295.645L1295.6 296.281C1297.21 296.652 1298.4 297.224 1299.19 297.997C1299.98 298.77 1300.37 299.773 1300.37 301.008C1300.37 302.054 1300.07 302.986 1299.47 303.804C1298.87 304.614 1298.03 305.251 1296.95 305.713C1295.89 306.175 1294.65 306.406 1293.24 306.406C1291.28 306.406 1289.69 305.989 1288.45 305.156C1287.22 304.315 1286.46 303.122 1286.18 301.576L1289.47 301.076C1289.67 301.932 1290.09 302.58 1290.73 303.02C1291.36 303.451 1292.19 303.667 1293.22 303.667C1294.33 303.667 1295.22 303.436 1295.89 302.974C1296.55 302.504 1296.89 301.932 1296.89 301.258C1296.89 300.713 1296.68 300.254 1296.27 299.883C1295.87 299.512 1295.25 299.232 1294.42 299.042L1291.47 298.395C1289.84 298.023 1288.63 297.432 1287.85 296.622C1287.08 295.811 1286.69 294.785 1286.69 293.542C1286.69 292.512 1286.98 291.611 1287.56 290.838C1288.13 290.065 1288.93 289.463 1289.94 289.031C1290.96 288.592 1292.12 288.372 1293.43 288.372C1295.32 288.372 1296.8 288.781 1297.89 289.599C1298.97 290.41 1299.69 291.497 1300.03 292.861ZM1317.19 292.861L1314.11 293.406C1313.98 293.012 1313.78 292.637 1313.5 292.281C1313.22 291.925 1312.85 291.633 1312.38 291.406C1311.91 291.179 1311.33 291.065 1310.62 291.065C1309.66 291.065 1308.86 291.281 1308.21 291.713C1307.57 292.137 1307.25 292.686 1307.25 293.361C1307.25 293.944 1307.46 294.414 1307.89 294.77C1308.33 295.126 1309.02 295.417 1309.99 295.645L1312.76 296.281C1314.36 296.652 1315.56 297.224 1316.35 297.997C1317.14 298.77 1317.53 299.773 1317.53 301.008C1317.53 302.054 1317.23 302.986 1316.62 303.804C1316.02 304.614 1315.19 305.251 1314.11 305.713C1313.04 306.175 1311.8 306.406 1310.39 306.406C1308.44 306.406 1306.85 305.989 1305.61 305.156C1304.38 304.315 1303.62 303.122 1303.34 301.576L1306.62 301.076C1306.83 301.932 1307.25 302.58 1307.88 303.02C1308.52 303.451 1309.35 303.667 1310.37 303.667C1311.49 303.667 1312.38 303.436 1313.04 302.974C1313.71 302.504 1314.04 301.932 1314.04 301.258C1314.04 300.713 1313.84 300.254 1313.43 299.883C1313.03 299.512 1312.41 299.232 1311.58 299.042L1308.62 298.395C1306.99 298.023 1305.79 297.432 1305.01 296.622C1304.24 295.811 1303.85 294.785 1303.85 293.542C1303.85 292.512 1304.14 291.611 1304.71 290.838C1305.29 290.065 1306.08 289.463 1307.1 289.031C1308.11 288.592 1309.28 288.372 1310.59 288.372C1312.47 288.372 1313.96 288.781 1315.04 289.599C1316.13 290.41 1316.84 291.497 1317.19 292.861Z" fill="black"/>
</g>
</svg>
