<svg width="1920" height="1080" viewBox="0 0 1920 1080" fill="none" xmlns="http://www.w3.org/2000/svg">
<g id="stateless">
<rect width="1920" height="1080" fill="white"/>
<path id="Stateless" d="M800.479 82.8966C800.297 81.0632 799.517 79.639 798.138 78.6238C796.759 77.6087 794.888 77.1011 792.525 77.1011C790.918 77.1011 789.562 77.3284 788.456 77.7829C787.35 78.2223 786.502 78.836 785.911 79.6238C785.335 80.4117 785.047 81.3057 785.047 82.3057C785.017 83.139 785.191 83.8663 785.57 84.4875C785.964 85.1087 786.502 85.6466 787.184 86.1011C787.865 86.5405 788.653 86.9269 789.547 87.2602C790.441 87.5784 791.396 87.8511 792.411 88.0784L796.593 89.0784C798.623 89.5329 800.487 90.139 802.184 90.8966C803.881 91.6541 805.35 92.586 806.593 93.692C807.835 94.7981 808.797 96.1011 809.479 97.6011C810.176 99.1011 810.532 100.821 810.547 102.76C810.532 105.609 809.805 108.078 808.365 110.169C806.941 112.245 804.881 113.859 802.184 115.01C799.502 116.147 796.267 116.715 792.479 116.715C788.721 116.715 785.449 116.139 782.661 114.987C779.888 113.836 777.721 112.131 776.161 109.874C774.615 107.601 773.805 104.791 773.729 101.442H783.252C783.358 103.003 783.805 104.306 784.593 105.351C785.396 106.381 786.464 107.162 787.797 107.692C789.146 108.207 790.668 108.465 792.365 108.465C794.032 108.465 795.479 108.222 796.706 107.737C797.949 107.253 798.911 106.578 799.593 105.715C800.275 104.851 800.615 103.859 800.615 102.737C800.615 101.692 800.305 100.813 799.684 100.101C799.078 99.389 798.184 98.7829 797.002 98.2829C795.835 97.7829 794.403 97.3284 792.706 96.9193L787.638 95.6466C783.714 94.692 780.615 93.1996 778.343 91.1693C776.07 89.139 774.941 86.4041 774.956 82.9648C774.941 80.1466 775.691 77.6845 777.206 75.5784C778.737 73.4723 780.835 71.8284 783.502 70.6466C786.168 69.4648 789.199 68.8738 792.593 68.8738C796.047 68.8738 799.062 69.4648 801.638 70.6466C804.229 71.8284 806.244 73.4723 807.684 75.5784C809.123 77.6845 809.865 80.1238 809.911 82.8966H800.479ZM835.553 81.1466V88.4193H814.53V81.1466H835.553ZM819.303 72.7829H828.985V105.328C828.985 106.222 829.121 106.919 829.394 107.419C829.667 107.904 830.045 108.245 830.53 108.442C831.03 108.639 831.606 108.737 832.257 108.737C832.712 108.737 833.167 108.7 833.621 108.624C834.076 108.533 834.424 108.465 834.667 108.419L836.189 115.624C835.704 115.775 835.023 115.95 834.144 116.147C833.265 116.359 832.197 116.487 830.939 116.533C828.606 116.624 826.56 116.313 824.803 115.601C823.06 114.889 821.704 113.783 820.735 112.283C819.765 110.783 819.288 108.889 819.303 106.601V72.7829ZM851.814 116.715C849.587 116.715 847.602 116.328 845.86 115.556C844.117 114.768 842.739 113.609 841.723 112.078C840.723 110.533 840.223 108.609 840.223 106.306C840.223 104.366 840.579 102.737 841.292 101.419C842.004 100.101 842.973 99.0405 844.201 98.2375C845.428 97.4345 846.822 96.8284 848.382 96.4193C849.958 96.0102 851.61 95.7223 853.337 95.5557C855.367 95.3435 857.004 95.1466 858.246 94.9648C859.489 94.7678 860.39 94.4799 860.951 94.1011C861.511 93.7223 861.792 93.1617 861.792 92.4193V92.2829C861.792 90.8435 861.337 89.7299 860.428 88.942C859.534 88.1541 858.261 87.7602 856.61 87.7602C854.867 87.7602 853.481 88.1466 852.451 88.9193C851.42 89.6769 850.739 90.6314 850.405 91.7829L841.451 91.0557C841.905 88.9345 842.799 87.1011 844.132 85.5557C845.466 83.9951 847.185 82.7981 849.292 81.9648C851.413 81.1163 853.867 80.692 856.655 80.692C858.595 80.692 860.451 80.9193 862.223 81.3738C864.011 81.8284 865.595 82.5329 866.973 83.4875C868.367 84.442 869.466 85.6693 870.269 87.1693C871.072 88.6541 871.473 90.4345 871.473 92.5102V116.056H862.292V111.215H862.019C861.458 112.306 860.708 113.268 859.769 114.101C858.829 114.919 857.701 115.563 856.382 116.033C855.064 116.487 853.542 116.715 851.814 116.715ZM854.587 110.033C856.011 110.033 857.269 109.753 858.36 109.192C859.451 108.616 860.307 107.844 860.928 106.874C861.549 105.904 861.86 104.806 861.86 103.578V99.8738C861.557 100.071 861.14 100.253 860.61 100.419C860.095 100.571 859.511 100.715 858.86 100.851C858.208 100.972 857.557 101.086 856.905 101.192C856.254 101.283 855.663 101.366 855.132 101.442C853.996 101.609 853.004 101.874 852.155 102.237C851.307 102.601 850.648 103.094 850.178 103.715C849.708 104.321 849.473 105.078 849.473 105.987C849.473 107.306 849.951 108.313 850.905 109.01C851.875 109.692 853.102 110.033 854.587 110.033ZM897.553 81.1466V88.4193H876.53V81.1466H897.553ZM881.303 72.7829H890.985V105.328C890.985 106.222 891.121 106.919 891.394 107.419C891.667 107.904 892.045 108.245 892.53 108.442C893.03 108.639 893.606 108.737 894.257 108.737C894.712 108.737 895.167 108.7 895.621 108.624C896.076 108.533 896.424 108.465 896.667 108.419L898.189 115.624C897.704 115.775 897.023 115.95 896.144 116.147C895.265 116.359 894.197 116.487 892.939 116.533C890.606 116.624 888.56 116.313 886.803 115.601C885.06 114.889 883.704 113.783 882.735 112.283C881.765 110.783 881.288 108.889 881.303 106.601V72.7829ZM919.394 116.737C915.803 116.737 912.712 116.01 910.121 114.556C907.545 113.086 905.56 111.01 904.167 108.328C902.773 105.631 902.076 102.442 902.076 98.7602C902.076 95.1693 902.773 92.0178 904.167 89.3057C905.56 86.5935 907.523 84.4799 910.053 82.9648C912.598 81.4496 915.583 80.692 919.007 80.692C921.31 80.692 923.454 81.0632 925.439 81.8057C927.439 82.5329 929.182 83.6314 930.667 85.1011C932.167 86.5708 933.333 88.4193 934.167 90.6466C935 92.8587 935.417 95.4496 935.417 98.4193V101.078H905.939V95.0784H926.303C926.303 93.6845 926 92.4496 925.394 91.3738C924.788 90.2981 923.947 89.4572 922.871 88.8511C921.81 88.2299 920.576 87.9193 919.167 87.9193C917.697 87.9193 916.394 88.2602 915.257 88.942C914.136 89.6087 913.257 90.5102 912.621 91.6466C911.985 92.7678 911.659 94.0178 911.644 95.3966V101.101C911.644 102.828 911.962 104.321 912.598 105.578C913.25 106.836 914.167 107.806 915.348 108.487C916.53 109.169 917.932 109.51 919.553 109.51C920.629 109.51 921.614 109.359 922.507 109.056C923.401 108.753 924.167 108.298 924.803 107.692C925.439 107.086 925.924 106.344 926.257 105.465L935.212 106.056C934.757 108.207 933.826 110.086 932.417 111.692C931.023 113.283 929.22 114.525 927.007 115.419C924.81 116.298 922.273 116.737 919.394 116.737ZM951.417 69.5102V116.056H941.735V69.5102H951.417ZM975.081 116.737C971.49 116.737 968.4 116.01 965.809 114.556C963.233 113.086 961.248 111.01 959.854 108.328C958.46 105.631 957.763 102.442 957.763 98.7602C957.763 95.1693 958.46 92.0178 959.854 89.3057C961.248 86.5935 963.21 84.4799 965.74 82.9648C968.286 81.4496 971.271 80.692 974.695 80.692C976.998 80.692 979.142 81.0632 981.127 81.8057C983.127 82.5329 984.869 83.6314 986.354 85.1011C987.854 86.5708 989.021 88.4193 989.854 90.6466C990.687 92.8587 991.104 95.4496 991.104 98.4193V101.078H961.627V95.0784H981.99C981.99 93.6845 981.687 92.4496 981.081 91.3738C980.475 90.2981 979.634 89.4572 978.559 88.8511C977.498 88.2299 976.263 87.9193 974.854 87.9193C973.384 87.9193 972.081 88.2602 970.945 88.942C969.824 89.6087 968.945 90.5102 968.309 91.6466C967.672 92.7678 967.346 94.0178 967.331 95.3966V101.101C967.331 102.828 967.65 104.321 968.286 105.578C968.937 106.836 969.854 107.806 971.036 108.487C972.218 109.169 973.619 109.51 975.24 109.51C976.316 109.51 977.301 109.359 978.195 109.056C979.089 108.753 979.854 108.298 980.49 107.692C981.127 107.086 981.612 106.344 981.945 105.465L990.9 106.056C990.445 108.207 989.513 110.086 988.104 111.692C986.71 113.283 984.907 114.525 982.695 115.419C980.498 116.298 977.96 116.737 975.081 116.737ZM1026.47 91.1011L1017.6 91.6466C1017.45 90.889 1017.13 90.2072 1016.63 89.6011C1016.13 88.9799 1015.47 88.4875 1014.65 88.1238C1013.85 87.7451 1012.88 87.5557 1011.76 87.5557C1010.26 87.5557 1009 87.8738 1007.97 88.5102C1006.94 89.1314 1006.42 89.9648 1006.42 91.0102C1006.42 91.8435 1006.76 92.5481 1007.42 93.1238C1008.09 93.6996 1009.23 94.1617 1010.85 94.5102L1017.17 95.7829C1020.57 96.4799 1023.1 97.6011 1024.76 99.1466C1026.43 100.692 1027.26 102.722 1027.26 105.237C1027.26 107.525 1026.59 109.533 1025.24 111.26C1023.91 112.987 1022.07 114.336 1019.74 115.306C1017.42 116.26 1014.75 116.737 1011.72 116.737C1007.1 116.737 1003.41 115.775 1000.67 113.851C997.945 111.912 996.346 109.275 995.877 105.942L1005.4 105.442C1005.69 106.851 1006.38 107.927 1007.49 108.669C1008.6 109.397 1010.01 109.76 1011.74 109.76C1013.44 109.76 1014.8 109.434 1015.83 108.783C1016.88 108.116 1017.41 107.26 1017.42 106.215C1017.41 105.336 1017.04 104.616 1016.31 104.056C1015.58 103.48 1014.46 103.041 1012.94 102.737L1006.9 101.533C1003.49 100.851 1000.95 99.6693 999.286 97.9875C997.634 96.3057 996.809 94.1617 996.809 91.5557C996.809 89.3132 997.415 87.3814 998.627 85.7602C999.854 84.139 1001.57 82.889 1003.79 82.0102C1006.01 81.1314 1008.62 80.692 1011.6 80.692C1016.01 80.692 1019.48 81.6238 1022.01 83.4875C1024.56 85.3511 1026.04 87.889 1026.47 91.1011ZM1062.41 91.1011L1053.54 91.6466C1053.39 90.889 1053.06 90.2072 1052.56 89.6011C1052.06 88.9799 1051.41 88.4875 1050.59 88.1238C1049.78 87.7451 1048.82 87.5557 1047.7 87.5557C1046.2 87.5557 1044.94 87.8738 1043.91 88.5102C1042.87 89.1314 1042.36 89.9648 1042.36 91.0102C1042.36 91.8435 1042.69 92.5481 1043.36 93.1238C1044.03 93.6996 1045.17 94.1617 1046.79 94.5102L1053.11 95.7829C1056.5 96.4799 1059.03 97.6011 1060.7 99.1466C1062.37 100.692 1063.2 102.722 1063.2 105.237C1063.2 107.525 1062.53 109.533 1061.18 111.26C1059.84 112.987 1058.01 114.336 1055.68 115.306C1053.36 116.26 1050.69 116.737 1047.66 116.737C1043.03 116.737 1039.35 115.775 1036.61 113.851C1033.88 111.912 1032.28 109.275 1031.81 105.942L1041.34 105.442C1041.62 106.851 1042.32 107.927 1043.43 108.669C1044.53 109.397 1045.95 109.76 1047.68 109.76C1049.37 109.76 1050.74 109.434 1051.77 108.783C1052.81 108.116 1053.34 107.26 1053.36 106.215C1053.34 105.336 1052.97 104.616 1052.25 104.056C1051.52 103.48 1050.4 103.041 1048.88 102.737L1042.84 101.533C1039.43 100.851 1036.89 99.6693 1035.22 97.9875C1033.57 96.3057 1032.75 94.1617 1032.75 91.5557C1032.75 89.3132 1033.35 87.3814 1034.56 85.7602C1035.79 84.139 1037.51 82.889 1039.72 82.0102C1041.95 81.1314 1044.56 80.692 1047.54 80.692C1051.95 80.692 1055.42 81.6238 1057.95 83.4875C1060.5 85.3511 1061.98 87.889 1062.41 91.1011Z" fill="black"/>
<path id="Stateless = we only enumerate traces define optimality for stateless" d="M287.612 311.443C287.475 310.291 286.922 309.397 285.953 308.761C284.983 308.125 283.794 307.807 282.385 307.807C281.354 307.807 280.453 307.973 279.68 308.307C278.915 308.64 278.316 309.098 277.885 309.682C277.46 310.265 277.248 310.928 277.248 311.67C277.248 312.291 277.396 312.825 277.691 313.272C277.994 313.712 278.381 314.079 278.85 314.375C279.32 314.663 279.813 314.901 280.328 315.091C280.843 315.272 281.316 315.42 281.748 315.534L284.112 316.17C284.718 316.329 285.392 316.549 286.135 316.829C286.885 317.11 287.6 317.492 288.282 317.977C288.972 318.454 289.54 319.068 289.987 319.818C290.434 320.568 290.657 321.488 290.657 322.579C290.657 323.837 290.328 324.973 289.669 325.988C289.017 327.004 288.063 327.81 286.805 328.409C285.555 329.007 284.036 329.307 282.248 329.307C280.582 329.307 279.138 329.038 277.919 328.5C276.707 327.962 275.752 327.212 275.055 326.25C274.366 325.288 273.975 324.17 273.885 322.897H276.794C276.869 323.776 277.165 324.504 277.68 325.079C278.203 325.647 278.862 326.072 279.657 326.352C280.46 326.625 281.324 326.761 282.248 326.761C283.324 326.761 284.29 326.587 285.146 326.238C286.002 325.882 286.68 325.39 287.18 324.761C287.68 324.125 287.93 323.382 287.93 322.534C287.93 321.761 287.714 321.132 287.282 320.647C286.85 320.163 286.282 319.769 285.578 319.466C284.873 319.163 284.112 318.897 283.294 318.67L280.43 317.852C278.612 317.329 277.172 316.583 276.112 315.613C275.051 314.644 274.521 313.375 274.521 311.807C274.521 310.504 274.873 309.367 275.578 308.397C276.29 307.42 277.244 306.663 278.441 306.125C279.646 305.579 280.991 305.307 282.475 305.307C283.975 305.307 285.309 305.575 286.475 306.113C287.642 306.644 288.566 307.371 289.248 308.295C289.938 309.219 290.301 310.269 290.339 311.443H287.612ZM302.518 311.443V313.716H293.473V311.443H302.518ZM296.109 307.261H298.791V323.897C298.791 324.655 298.901 325.223 299.12 325.602C299.348 325.973 299.636 326.223 299.984 326.352C300.34 326.473 300.715 326.534 301.109 326.534C301.404 326.534 301.647 326.519 301.836 326.488C302.026 326.45 302.177 326.42 302.291 326.397L302.836 328.807C302.654 328.875 302.401 328.943 302.075 329.011C301.749 329.087 301.336 329.125 300.836 329.125C300.079 329.125 299.336 328.962 298.609 328.636C297.889 328.31 297.291 327.814 296.814 327.147C296.344 326.481 296.109 325.64 296.109 324.625V307.261ZM311.689 329.307C310.583 329.307 309.579 329.098 308.677 328.682C307.776 328.257 307.06 327.647 306.529 326.852C305.999 326.049 305.734 325.079 305.734 323.943C305.734 322.943 305.931 322.132 306.325 321.511C306.719 320.882 307.245 320.39 307.904 320.034C308.564 319.678 309.291 319.413 310.086 319.238C310.889 319.057 311.696 318.913 312.507 318.807C313.567 318.67 314.427 318.568 315.086 318.5C315.753 318.424 316.238 318.299 316.541 318.125C316.851 317.95 317.007 317.647 317.007 317.216V317.125C317.007 316.004 316.7 315.132 316.086 314.511C315.48 313.89 314.56 313.579 313.325 313.579C312.045 313.579 311.041 313.86 310.314 314.42C309.586 314.981 309.075 315.579 308.779 316.216L306.234 315.307C306.689 314.246 307.295 313.42 308.052 312.829C308.817 312.231 309.651 311.814 310.552 311.579C311.461 311.337 312.355 311.216 313.234 311.216C313.795 311.216 314.439 311.284 315.166 311.42C315.901 311.549 316.609 311.818 317.291 312.227C317.98 312.636 318.552 313.254 319.007 314.079C319.461 314.905 319.689 316.011 319.689 317.397V328.897H317.007V326.534H316.87C316.689 326.913 316.386 327.318 315.961 327.75C315.537 328.182 314.973 328.549 314.268 328.852C313.564 329.155 312.704 329.307 311.689 329.307ZM312.098 326.897C313.158 326.897 314.052 326.689 314.779 326.272C315.514 325.856 316.067 325.318 316.439 324.659C316.817 324 317.007 323.307 317.007 322.579V320.125C316.893 320.261 316.643 320.386 316.257 320.5C315.878 320.606 315.439 320.7 314.939 320.784C314.446 320.86 313.965 320.928 313.495 320.988C313.033 321.041 312.658 321.087 312.37 321.125C311.673 321.216 311.022 321.363 310.416 321.568C309.817 321.765 309.333 322.064 308.961 322.466C308.598 322.86 308.416 323.397 308.416 324.079C308.416 325.011 308.761 325.716 309.45 326.193C310.147 326.663 311.029 326.897 312.098 326.897ZM332.174 311.443V313.716H323.129V311.443H332.174ZM325.765 307.261H328.447V323.897C328.447 324.655 328.557 325.223 328.777 325.602C329.004 325.973 329.292 326.223 329.64 326.352C329.996 326.473 330.371 326.534 330.765 326.534C331.061 326.534 331.303 326.519 331.493 326.488C331.682 326.45 331.833 326.42 331.947 326.397L332.493 328.807C332.311 328.875 332.057 328.943 331.731 329.011C331.405 329.087 330.993 329.125 330.493 329.125C329.735 329.125 328.993 328.962 328.265 328.636C327.546 328.31 326.947 327.814 326.47 327.147C326 326.481 325.765 325.64 325.765 324.625V307.261ZM343.339 329.261C341.657 329.261 340.207 328.89 338.987 328.147C337.775 327.397 336.839 326.352 336.18 325.011C335.529 323.663 335.203 322.094 335.203 320.307C335.203 318.519 335.529 316.943 336.18 315.579C336.839 314.208 337.756 313.14 338.93 312.375C340.112 311.602 341.491 311.216 343.066 311.216C343.975 311.216 344.873 311.367 345.76 311.67C346.646 311.973 347.453 312.466 348.18 313.147C348.907 313.822 349.487 314.716 349.919 315.829C350.35 316.943 350.566 318.314 350.566 319.943V321.079H337.112V318.761H347.839C347.839 317.776 347.642 316.897 347.248 316.125C346.862 315.352 346.309 314.742 345.589 314.295C344.877 313.848 344.036 313.625 343.066 313.625C341.998 313.625 341.074 313.89 340.294 314.42C339.521 314.943 338.926 315.625 338.51 316.466C338.093 317.307 337.885 318.208 337.885 319.17V320.716C337.885 322.034 338.112 323.151 338.566 324.068C339.029 324.977 339.669 325.67 340.487 326.147C341.305 326.617 342.256 326.852 343.339 326.852C344.044 326.852 344.68 326.754 345.248 326.557C345.824 326.352 346.32 326.049 346.737 325.647C347.154 325.238 347.475 324.731 347.703 324.125L350.294 324.852C350.021 325.731 349.563 326.504 348.919 327.17C348.275 327.829 347.479 328.344 346.532 328.716C345.585 329.079 344.521 329.261 343.339 329.261ZM357.328 305.625V328.897H354.646V305.625H357.328ZM369.558 329.261C367.876 329.261 366.425 328.89 365.206 328.147C363.993 327.397 363.058 326.352 362.399 325.011C361.747 323.663 361.422 322.094 361.422 320.307C361.422 318.519 361.747 316.943 362.399 315.579C363.058 314.208 363.975 313.14 365.149 312.375C366.331 311.602 367.709 311.216 369.285 311.216C370.194 311.216 371.092 311.367 371.978 311.67C372.865 311.973 373.672 312.466 374.399 313.147C375.126 313.822 375.706 314.716 376.137 315.829C376.569 316.943 376.785 318.314 376.785 319.943V321.079H363.331V318.761H374.058C374.058 317.776 373.861 316.897 373.467 316.125C373.081 315.352 372.528 314.742 371.808 314.295C371.096 313.848 370.255 313.625 369.285 313.625C368.217 313.625 367.293 313.89 366.512 314.42C365.74 314.943 365.145 315.625 364.728 316.466C364.312 317.307 364.103 318.208 364.103 319.17V320.716C364.103 322.034 364.331 323.151 364.785 324.068C365.247 324.977 365.887 325.67 366.706 326.147C367.524 326.617 368.475 326.852 369.558 326.852C370.262 326.852 370.899 326.754 371.467 326.557C372.043 326.352 372.539 326.049 372.956 325.647C373.372 325.238 373.694 324.731 373.922 324.125L376.512 324.852C376.24 325.731 375.781 326.504 375.137 327.17C374.493 327.829 373.698 328.344 372.751 328.716C371.804 329.079 370.74 329.261 369.558 329.261ZM393.228 315.352L390.819 316.034C390.668 315.632 390.444 315.242 390.149 314.863C389.861 314.477 389.467 314.159 388.967 313.909C388.467 313.659 387.827 313.534 387.047 313.534C385.978 313.534 385.088 313.78 384.376 314.272C383.672 314.757 383.319 315.375 383.319 316.125C383.319 316.791 383.562 317.318 384.047 317.704C384.531 318.091 385.289 318.413 386.319 318.67L388.91 319.307C390.471 319.685 391.634 320.265 392.399 321.045C393.164 321.818 393.547 322.814 393.547 324.034C393.547 325.034 393.259 325.928 392.683 326.716C392.115 327.504 391.319 328.125 390.297 328.579C389.274 329.034 388.084 329.261 386.728 329.261C384.948 329.261 383.475 328.875 382.308 328.102C381.141 327.329 380.403 326.2 380.092 324.716L382.637 324.079C382.88 325.019 383.338 325.723 384.012 326.193C384.694 326.663 385.584 326.897 386.683 326.897C387.933 326.897 388.925 326.632 389.66 326.102C390.403 325.564 390.774 324.92 390.774 324.17C390.774 323.564 390.562 323.057 390.137 322.647C389.713 322.231 389.062 321.92 388.183 321.716L385.274 321.034C383.675 320.655 382.501 320.068 381.751 319.272C381.009 318.469 380.637 317.466 380.637 316.261C380.637 315.276 380.914 314.405 381.467 313.647C382.028 312.89 382.789 312.295 383.751 311.863C384.721 311.432 385.819 311.216 387.047 311.216C388.774 311.216 390.13 311.594 391.115 312.352C392.107 313.11 392.812 314.11 393.228 315.352ZM409.947 315.352L407.538 316.034C407.386 315.632 407.163 315.242 406.868 314.863C406.58 314.477 406.186 314.159 405.686 313.909C405.186 313.659 404.546 313.534 403.765 313.534C402.697 313.534 401.807 313.78 401.095 314.272C400.39 314.757 400.038 315.375 400.038 316.125C400.038 316.791 400.28 317.318 400.765 317.704C401.25 318.091 402.008 318.413 403.038 318.67L405.629 319.307C407.19 319.685 408.352 320.265 409.118 321.045C409.883 321.818 410.265 322.814 410.265 324.034C410.265 325.034 409.977 325.928 409.402 326.716C408.833 327.504 408.038 328.125 407.015 328.579C405.993 329.034 404.803 329.261 403.447 329.261C401.667 329.261 400.193 328.875 399.027 328.102C397.86 327.329 397.121 326.2 396.811 324.716L399.356 324.079C399.599 325.019 400.057 325.723 400.731 326.193C401.413 326.663 402.303 326.897 403.402 326.897C404.652 326.897 405.644 326.632 406.379 326.102C407.121 325.564 407.493 324.92 407.493 324.17C407.493 323.564 407.28 323.057 406.856 322.647C406.432 322.231 405.78 321.92 404.902 321.716L401.993 321.034C400.394 320.655 399.22 320.068 398.47 319.272C397.727 318.469 397.356 317.466 397.356 316.261C397.356 315.276 397.633 314.405 398.186 313.647C398.746 312.89 399.508 312.295 400.47 311.863C401.44 311.432 402.538 311.216 403.765 311.216C405.493 311.216 406.849 311.594 407.833 312.352C408.826 313.11 409.53 314.11 409.947 315.352ZM424.393 317.67V315.216H438.393V317.67H424.393ZM424.393 324.397V321.943H438.393V324.397H424.393ZM457.35 328.897L452.032 311.443H454.85L458.623 324.807H458.805L462.532 311.443H465.396L469.078 324.761H469.26L473.032 311.443H475.85L470.532 328.897H467.896L464.078 315.488H463.805L459.987 328.897H457.35ZM486.12 329.261C484.439 329.261 482.988 328.89 481.768 328.147C480.556 327.397 479.62 326.352 478.961 325.011C478.31 323.663 477.984 322.094 477.984 320.307C477.984 318.519 478.31 316.943 478.961 315.579C479.62 314.208 480.537 313.14 481.711 312.375C482.893 311.602 484.272 311.216 485.848 311.216C486.757 311.216 487.654 311.367 488.541 311.67C489.427 311.973 490.234 312.466 490.961 313.147C491.689 313.822 492.268 314.716 492.7 315.829C493.132 316.943 493.348 318.314 493.348 319.943V321.079H479.893V318.761H490.62C490.62 317.776 490.423 316.897 490.029 316.125C489.643 315.352 489.09 314.742 488.37 314.295C487.658 313.848 486.817 313.625 485.848 313.625C484.779 313.625 483.855 313.89 483.075 314.42C482.302 314.943 481.708 315.625 481.291 316.466C480.874 317.307 480.666 318.208 480.666 319.17V320.716C480.666 322.034 480.893 323.151 481.348 324.068C481.81 324.977 482.45 325.67 483.268 326.147C484.086 326.617 485.037 326.852 486.12 326.852C486.825 326.852 487.461 326.754 488.029 326.557C488.605 326.352 489.101 326.049 489.518 325.647C489.935 325.238 490.257 324.731 490.484 324.125L493.075 324.852C492.802 325.731 492.344 326.504 491.7 327.17C491.056 327.829 490.261 328.344 489.314 328.716C488.367 329.079 487.302 329.261 486.12 329.261ZM513.518 329.261C511.942 329.261 510.56 328.886 509.37 328.136C508.189 327.386 507.264 326.337 506.598 324.988C505.939 323.64 505.609 322.064 505.609 320.261C505.609 318.443 505.939 316.856 506.598 315.5C507.264 314.144 508.189 313.091 509.37 312.341C510.56 311.591 511.942 311.216 513.518 311.216C515.094 311.216 516.473 311.591 517.654 312.341C518.844 313.091 519.768 314.144 520.427 315.5C521.094 316.856 521.427 318.443 521.427 320.261C521.427 322.064 521.094 323.64 520.427 324.988C519.768 326.337 518.844 327.386 517.654 328.136C516.473 328.886 515.094 329.261 513.518 329.261ZM513.518 326.852C514.715 326.852 515.7 326.545 516.473 325.932C517.245 325.318 517.817 324.511 518.189 323.511C518.56 322.511 518.745 321.428 518.745 320.261C518.745 319.094 518.56 318.007 518.189 317C517.817 315.992 517.245 315.178 516.473 314.557C515.7 313.935 514.715 313.625 513.518 313.625C512.321 313.625 511.336 313.935 510.564 314.557C509.791 315.178 509.219 315.992 508.848 317C508.476 318.007 508.291 319.094 508.291 320.261C508.291 321.428 508.476 322.511 508.848 323.511C509.219 324.511 509.791 325.318 510.564 325.932C511.336 326.545 512.321 326.852 513.518 326.852ZM528.203 318.397V328.897H525.521V311.443H528.112V314.17H528.339C528.748 313.284 529.369 312.572 530.203 312.034C531.036 311.488 532.112 311.216 533.43 311.216C534.612 311.216 535.646 311.458 536.532 311.943C537.419 312.42 538.108 313.147 538.6 314.125C539.093 315.094 539.339 316.322 539.339 317.807V328.897H536.657V317.988C536.657 316.617 536.301 315.549 535.589 314.784C534.877 314.011 533.9 313.625 532.657 313.625C531.801 313.625 531.036 313.81 530.362 314.182C529.695 314.553 529.169 315.094 528.782 315.807C528.396 316.519 528.203 317.382 528.203 318.397ZM546.922 305.625V328.897H544.24V305.625H546.922ZM553.561 335.443C553.106 335.443 552.701 335.405 552.345 335.329C551.989 335.261 551.743 335.193 551.606 335.125L552.288 332.761C552.94 332.928 553.515 332.988 554.015 332.943C554.515 332.897 554.958 332.674 555.345 332.272C555.739 331.879 556.099 331.238 556.424 330.352L556.924 328.988L550.47 311.443H553.379L558.197 325.352H558.379L563.197 311.443H566.106L558.697 331.443C558.364 332.344 557.951 333.091 557.458 333.682C556.966 334.28 556.394 334.723 555.743 335.011C555.099 335.299 554.371 335.443 553.561 335.443ZM585.964 329.261C584.282 329.261 582.832 328.89 581.612 328.147C580.4 327.397 579.464 326.352 578.805 325.011C578.154 323.663 577.828 322.094 577.828 320.307C577.828 318.519 578.154 316.943 578.805 315.579C579.464 314.208 580.381 313.14 581.555 312.375C582.737 311.602 584.116 311.216 585.691 311.216C586.6 311.216 587.498 311.367 588.385 311.67C589.271 311.973 590.078 312.466 590.805 313.147C591.532 313.822 592.112 314.716 592.544 315.829C592.975 316.943 593.191 318.314 593.191 319.943V321.079H579.737V318.761H590.464C590.464 317.776 590.267 316.897 589.873 316.125C589.487 315.352 588.934 314.742 588.214 314.295C587.502 313.848 586.661 313.625 585.691 313.625C584.623 313.625 583.699 313.89 582.919 314.42C582.146 314.943 581.551 315.625 581.135 316.466C580.718 317.307 580.51 318.208 580.51 319.17V320.716C580.51 322.034 580.737 323.151 581.191 324.068C581.654 324.977 582.294 325.67 583.112 326.147C583.93 326.617 584.881 326.852 585.964 326.852C586.669 326.852 587.305 326.754 587.873 326.557C588.449 326.352 588.945 326.049 589.362 325.647C589.779 325.238 590.1 324.731 590.328 324.125L592.919 324.852C592.646 325.731 592.188 326.504 591.544 327.17C590.9 327.829 590.104 328.344 589.157 328.716C588.21 329.079 587.146 329.261 585.964 329.261ZM599.953 318.397V328.897H597.271V311.443H599.862V314.17H600.089C600.498 313.284 601.119 312.572 601.953 312.034C602.786 311.488 603.862 311.216 605.18 311.216C606.362 311.216 607.396 311.458 608.282 311.943C609.169 312.42 609.858 313.147 610.35 314.125C610.843 315.094 611.089 316.322 611.089 317.807V328.897H608.407V317.988C608.407 316.617 608.051 315.549 607.339 314.784C606.627 314.011 605.65 313.625 604.407 313.625C603.551 313.625 602.786 313.81 602.112 314.182C601.445 314.553 600.919 315.094 600.532 315.807C600.146 316.519 599.953 317.382 599.953 318.397ZM626.99 321.761V311.443H629.672V328.897H626.99V325.943H626.808C626.399 326.829 625.762 327.583 624.899 328.204C624.035 328.818 622.944 329.125 621.626 329.125C620.535 329.125 619.565 328.886 618.717 328.409C617.868 327.924 617.202 327.197 616.717 326.227C616.232 325.25 615.99 324.019 615.99 322.534V311.443H618.672V322.352C618.672 323.625 619.028 324.64 619.74 325.397C620.459 326.155 621.376 326.534 622.49 326.534C623.156 326.534 623.834 326.363 624.524 326.022C625.221 325.682 625.804 325.159 626.274 324.454C626.751 323.75 626.99 322.852 626.99 321.761ZM634.583 328.897V311.443H637.174V314.17H637.402C637.765 313.238 638.352 312.515 639.163 312C639.974 311.477 640.947 311.216 642.083 311.216C643.235 311.216 644.193 311.477 644.958 312C645.731 312.515 646.333 313.238 646.765 314.17H646.947C647.394 313.269 648.065 312.553 648.958 312.022C649.852 311.485 650.924 311.216 652.174 311.216C653.735 311.216 655.011 311.704 656.004 312.682C656.996 313.651 657.493 315.163 657.493 317.216V328.897H654.811V317.216C654.811 315.928 654.458 315.007 653.754 314.454C653.049 313.901 652.22 313.625 651.265 313.625C650.038 313.625 649.087 313.996 648.413 314.738C647.739 315.473 647.402 316.405 647.402 317.534V328.897H644.674V316.943C644.674 315.95 644.352 315.151 643.708 314.545C643.065 313.932 642.235 313.625 641.22 313.625C640.523 313.625 639.871 313.81 639.265 314.182C638.667 314.553 638.182 315.068 637.811 315.727C637.447 316.379 637.265 317.132 637.265 317.988V328.897H634.583ZM669.714 329.261C668.032 329.261 666.582 328.89 665.362 328.147C664.15 327.397 663.214 326.352 662.555 325.011C661.904 323.663 661.578 322.094 661.578 320.307C661.578 318.519 661.904 316.943 662.555 315.579C663.214 314.208 664.131 313.14 665.305 312.375C666.487 311.602 667.866 311.216 669.441 311.216C670.35 311.216 671.248 311.367 672.135 311.67C673.021 311.973 673.828 312.466 674.555 313.147C675.282 313.822 675.862 314.716 676.294 315.829C676.725 316.943 676.941 318.314 676.941 319.943V321.079H663.487V318.761H674.214C674.214 317.776 674.017 316.897 673.623 316.125C673.237 315.352 672.684 314.742 671.964 314.295C671.252 313.848 670.411 313.625 669.441 313.625C668.373 313.625 667.449 313.89 666.669 314.42C665.896 314.943 665.301 315.625 664.885 316.466C664.468 317.307 664.26 318.208 664.26 319.17V320.716C664.26 322.034 664.487 323.151 664.941 324.068C665.404 324.977 666.044 325.67 666.862 326.147C667.68 326.617 668.631 326.852 669.714 326.852C670.419 326.852 671.055 326.754 671.623 326.557C672.199 326.352 672.695 326.049 673.112 325.647C673.529 325.238 673.85 324.731 674.078 324.125L676.669 324.852C676.396 325.731 675.938 326.504 675.294 327.17C674.65 327.829 673.854 328.344 672.907 328.716C671.96 329.079 670.896 329.261 669.714 329.261ZM681.021 328.897V311.443H683.612V314.079H683.794C684.112 313.216 684.688 312.515 685.521 311.977C686.354 311.439 687.294 311.17 688.339 311.17C688.536 311.17 688.782 311.174 689.078 311.182C689.373 311.189 689.597 311.2 689.748 311.216V313.943C689.657 313.92 689.449 313.886 689.123 313.841C688.805 313.788 688.468 313.761 688.112 313.761C687.263 313.761 686.506 313.939 685.839 314.295C685.18 314.644 684.657 315.129 684.271 315.75C683.892 316.363 683.703 317.064 683.703 317.852V328.897H681.021ZM698.064 329.307C696.958 329.307 695.954 329.098 695.052 328.682C694.151 328.257 693.435 327.647 692.904 326.852C692.374 326.049 692.109 325.079 692.109 323.943C692.109 322.943 692.306 322.132 692.7 321.511C693.094 320.882 693.62 320.39 694.279 320.034C694.939 319.678 695.666 319.413 696.461 319.238C697.264 319.057 698.071 318.913 698.882 318.807C699.942 318.67 700.802 318.568 701.461 318.5C702.128 318.424 702.613 318.299 702.916 318.125C703.226 317.95 703.382 317.647 703.382 317.216V317.125C703.382 316.004 703.075 315.132 702.461 314.511C701.855 313.89 700.935 313.579 699.7 313.579C698.42 313.579 697.416 313.86 696.689 314.42C695.961 314.981 695.45 315.579 695.154 316.216L692.609 315.307C693.064 314.246 693.67 313.42 694.427 312.829C695.192 312.231 696.026 311.814 696.927 311.579C697.836 311.337 698.73 311.216 699.609 311.216C700.17 311.216 700.814 311.284 701.541 311.42C702.276 311.549 702.984 311.818 703.666 312.227C704.355 312.636 704.927 313.254 705.382 314.079C705.836 314.905 706.064 316.011 706.064 317.397V328.897H703.382V326.534H703.245C703.064 326.913 702.761 327.318 702.336 327.75C701.912 328.182 701.348 328.549 700.643 328.852C699.939 329.155 699.079 329.307 698.064 329.307ZM698.473 326.897C699.533 326.897 700.427 326.689 701.154 326.272C701.889 325.856 702.442 325.318 702.814 324.659C703.192 324 703.382 323.307 703.382 322.579V320.125C703.268 320.261 703.018 320.386 702.632 320.5C702.253 320.606 701.814 320.7 701.314 320.784C700.821 320.86 700.34 320.928 699.87 320.988C699.408 321.041 699.033 321.087 698.745 321.125C698.048 321.216 697.397 321.363 696.791 321.568C696.192 321.765 695.708 322.064 695.336 322.466C694.973 322.86 694.791 323.397 694.791 324.079C694.791 325.011 695.136 325.716 695.825 326.193C696.522 326.663 697.404 326.897 698.473 326.897ZM718.549 311.443V313.716H709.504V311.443H718.549ZM712.14 307.261H714.822V323.897C714.822 324.655 714.932 325.223 715.152 325.602C715.379 325.973 715.667 326.223 716.015 326.352C716.371 326.473 716.746 326.534 717.14 326.534C717.436 326.534 717.678 326.519 717.868 326.488C718.057 326.45 718.208 326.42 718.322 326.397L718.868 328.807C718.686 328.875 718.432 328.943 718.106 329.011C717.78 329.087 717.368 329.125 716.868 329.125C716.11 329.125 715.368 328.962 714.64 328.636C713.921 328.31 713.322 327.814 712.845 327.147C712.375 326.481 712.14 325.64 712.14 324.625V307.261ZM729.714 329.261C728.032 329.261 726.582 328.89 725.362 328.147C724.15 327.397 723.214 326.352 722.555 325.011C721.904 323.663 721.578 322.094 721.578 320.307C721.578 318.519 721.904 316.943 722.555 315.579C723.214 314.208 724.131 313.14 725.305 312.375C726.487 311.602 727.866 311.216 729.441 311.216C730.35 311.216 731.248 311.367 732.135 311.67C733.021 311.973 733.828 312.466 734.555 313.147C735.282 313.822 735.862 314.716 736.294 315.829C736.725 316.943 736.941 318.314 736.941 319.943V321.079H723.487V318.761H734.214C734.214 317.776 734.017 316.897 733.623 316.125C733.237 315.352 732.684 314.742 731.964 314.295C731.252 313.848 730.411 313.625 729.441 313.625C728.373 313.625 727.449 313.89 726.669 314.42C725.896 314.943 725.301 315.625 724.885 316.466C724.468 317.307 724.26 318.208 724.26 319.17V320.716C724.26 322.034 724.487 323.151 724.941 324.068C725.404 324.977 726.044 325.67 726.862 326.147C727.68 326.617 728.631 326.852 729.714 326.852C730.419 326.852 731.055 326.754 731.623 326.557C732.199 326.352 732.695 326.049 733.112 325.647C733.529 325.238 733.85 324.731 734.078 324.125L736.669 324.852C736.396 325.731 735.938 326.504 735.294 327.17C734.65 327.829 733.854 328.344 732.907 328.716C731.96 329.079 730.896 329.261 729.714 329.261ZM757.612 311.443V313.716H748.566V311.443H757.612ZM751.203 307.261H753.885V323.897C753.885 324.655 753.994 325.223 754.214 325.602C754.441 325.973 754.729 326.223 755.078 326.352C755.434 326.473 755.809 326.534 756.203 326.534C756.498 326.534 756.741 326.519 756.93 326.488C757.119 326.45 757.271 326.42 757.385 326.397L757.93 328.807C757.748 328.875 757.494 328.943 757.169 329.011C756.843 329.087 756.43 329.125 755.93 329.125C755.172 329.125 754.43 328.962 753.703 328.636C752.983 328.31 752.385 327.814 751.907 327.147C751.438 326.481 751.203 325.64 751.203 324.625V307.261ZM761.646 328.897V311.443H764.237V314.079H764.419C764.737 313.216 765.313 312.515 766.146 311.977C766.979 311.439 767.919 311.17 768.964 311.17C769.161 311.17 769.407 311.174 769.703 311.182C769.998 311.189 770.222 311.2 770.373 311.216V313.943C770.282 313.92 770.074 313.886 769.748 313.841C769.43 313.788 769.093 313.761 768.737 313.761C767.888 313.761 767.131 313.939 766.464 314.295C765.805 314.644 765.282 315.129 764.896 315.75C764.517 316.363 764.328 317.064 764.328 317.852V328.897H761.646ZM778.689 329.307C777.583 329.307 776.579 329.098 775.677 328.682C774.776 328.257 774.06 327.647 773.529 326.852C772.999 326.049 772.734 325.079 772.734 323.943C772.734 322.943 772.931 322.132 773.325 321.511C773.719 320.882 774.245 320.39 774.904 320.034C775.564 319.678 776.291 319.413 777.086 319.238C777.889 319.057 778.696 318.913 779.507 318.807C780.567 318.67 781.427 318.568 782.086 318.5C782.753 318.424 783.238 318.299 783.541 318.125C783.851 317.95 784.007 317.647 784.007 317.216V317.125C784.007 316.004 783.7 315.132 783.086 314.511C782.48 313.89 781.56 313.579 780.325 313.579C779.045 313.579 778.041 313.86 777.314 314.42C776.586 314.981 776.075 315.579 775.779 316.216L773.234 315.307C773.689 314.246 774.295 313.42 775.052 312.829C775.817 312.231 776.651 311.814 777.552 311.579C778.461 311.337 779.355 311.216 780.234 311.216C780.795 311.216 781.439 311.284 782.166 311.42C782.901 311.549 783.609 311.818 784.291 312.227C784.98 312.636 785.552 313.254 786.007 314.079C786.461 314.905 786.689 316.011 786.689 317.397V328.897H784.007V326.534H783.87C783.689 326.913 783.386 327.318 782.961 327.75C782.537 328.182 781.973 328.549 781.268 328.852C780.564 329.155 779.704 329.307 778.689 329.307ZM779.098 326.897C780.158 326.897 781.052 326.689 781.779 326.272C782.514 325.856 783.067 325.318 783.439 324.659C783.817 324 784.007 323.307 784.007 322.579V320.125C783.893 320.261 783.643 320.386 783.257 320.5C782.878 320.606 782.439 320.7 781.939 320.784C781.446 320.86 780.965 320.928 780.495 320.988C780.033 321.041 779.658 321.087 779.37 321.125C778.673 321.216 778.022 321.363 777.416 321.568C776.817 321.765 776.333 322.064 775.961 322.466C775.598 322.86 775.416 323.397 775.416 324.079C775.416 325.011 775.761 325.716 776.45 326.193C777.147 326.663 778.029 326.897 779.098 326.897ZM798.674 329.261C797.038 329.261 795.629 328.875 794.447 328.102C793.265 327.329 792.356 326.265 791.72 324.909C791.083 323.553 790.765 322.004 790.765 320.261C790.765 318.488 791.091 316.924 791.743 315.568C792.402 314.204 793.318 313.14 794.493 312.375C795.674 311.602 797.053 311.216 798.629 311.216C799.856 311.216 800.962 311.443 801.947 311.897C802.932 312.352 803.739 312.988 804.368 313.807C804.996 314.625 805.386 315.579 805.538 316.67H802.856C802.652 315.875 802.197 315.17 801.493 314.557C800.796 313.935 799.856 313.625 798.674 313.625C797.629 313.625 796.712 313.897 795.924 314.443C795.144 314.981 794.534 315.742 794.095 316.727C793.663 317.704 793.447 318.852 793.447 320.17C793.447 321.519 793.659 322.693 794.083 323.693C794.515 324.693 795.121 325.469 795.902 326.022C796.69 326.575 797.614 326.852 798.674 326.852C799.371 326.852 800.004 326.731 800.572 326.488C801.14 326.246 801.621 325.897 802.015 325.443C802.409 324.988 802.69 324.443 802.856 323.807H805.538C805.386 324.837 805.011 325.765 804.413 326.591C803.822 327.409 803.038 328.06 802.061 328.545C801.091 329.022 799.962 329.261 798.674 329.261ZM816.777 329.261C815.095 329.261 813.644 328.89 812.424 328.147C811.212 327.397 810.277 326.352 809.618 325.011C808.966 323.663 808.64 322.094 808.64 320.307C808.64 318.519 808.966 316.943 809.618 315.579C810.277 314.208 811.193 313.14 812.368 312.375C813.549 311.602 814.928 311.216 816.504 311.216C817.413 311.216 818.311 311.367 819.197 311.67C820.083 311.973 820.89 312.466 821.618 313.147C822.345 313.822 822.924 314.716 823.356 315.829C823.788 316.943 824.004 318.314 824.004 319.943V321.079H810.549V318.761H821.277C821.277 317.776 821.08 316.897 820.686 316.125C820.299 315.352 819.746 314.742 819.027 314.295C818.315 313.848 817.474 313.625 816.504 313.625C815.436 313.625 814.511 313.89 813.731 314.42C812.958 314.943 812.364 315.625 811.947 316.466C811.53 317.307 811.322 318.208 811.322 319.17V320.716C811.322 322.034 811.549 323.151 812.004 324.068C812.466 324.977 813.106 325.67 813.924 326.147C814.743 326.617 815.693 326.852 816.777 326.852C817.481 326.852 818.118 326.754 818.686 326.557C819.261 326.352 819.758 326.049 820.174 325.647C820.591 325.238 820.913 324.731 821.14 324.125L823.731 324.852C823.458 325.731 823 326.504 822.356 327.17C821.712 327.829 820.917 328.344 819.97 328.716C819.023 329.079 817.958 329.261 816.777 329.261ZM840.447 315.352L838.038 316.034C837.886 315.632 837.663 315.242 837.368 314.863C837.08 314.477 836.686 314.159 836.186 313.909C835.686 313.659 835.046 313.534 834.265 313.534C833.197 313.534 832.307 313.78 831.595 314.272C830.89 314.757 830.538 315.375 830.538 316.125C830.538 316.791 830.78 317.318 831.265 317.704C831.75 318.091 832.508 318.413 833.538 318.67L836.129 319.307C837.69 319.685 838.852 320.265 839.618 321.045C840.383 321.818 840.765 322.814 840.765 324.034C840.765 325.034 840.477 325.928 839.902 326.716C839.333 327.504 838.538 328.125 837.515 328.579C836.493 329.034 835.303 329.261 833.947 329.261C832.167 329.261 830.693 328.875 829.527 328.102C828.36 327.329 827.621 326.2 827.311 324.716L829.856 324.079C830.099 325.019 830.557 325.723 831.231 326.193C831.913 326.663 832.803 326.897 833.902 326.897C835.152 326.897 836.144 326.632 836.879 326.102C837.621 325.564 837.993 324.92 837.993 324.17C837.993 323.564 837.78 323.057 837.356 322.647C836.932 322.231 836.28 321.92 835.402 321.716L832.493 321.034C830.894 320.655 829.72 320.068 828.97 319.272C828.227 318.469 827.856 317.466 827.856 316.261C827.856 315.276 828.133 314.405 828.686 313.647C829.246 312.89 830.008 312.295 830.97 311.863C831.94 311.432 833.038 311.216 834.265 311.216C835.993 311.216 837.349 311.594 838.333 312.352C839.326 313.11 840.03 314.11 840.447 315.352ZM281.112 368.261C279.657 368.261 278.373 367.894 277.26 367.159C276.146 366.416 275.275 365.371 274.646 364.022C274.017 362.666 273.703 361.064 273.703 359.216C273.703 357.382 274.017 355.791 274.646 354.443C275.275 353.094 276.15 352.053 277.271 351.318C278.392 350.583 279.688 350.216 281.157 350.216C282.294 350.216 283.191 350.405 283.85 350.784C284.517 351.155 285.025 351.579 285.373 352.057C285.729 352.526 286.006 352.913 286.203 353.216H286.43V344.625H289.112V367.897H286.521V365.216H286.203C286.006 365.534 285.725 365.935 285.362 366.42C284.998 366.897 284.479 367.325 283.805 367.704C283.131 368.075 282.233 368.261 281.112 368.261ZM281.475 365.852C282.551 365.852 283.46 365.572 284.203 365.011C284.945 364.443 285.51 363.659 285.896 362.659C286.282 361.651 286.475 360.488 286.475 359.17C286.475 357.867 286.286 356.727 285.907 355.75C285.529 354.765 284.968 354 284.225 353.454C283.483 352.901 282.566 352.625 281.475 352.625C280.339 352.625 279.392 352.916 278.635 353.5C277.885 354.075 277.32 354.86 276.941 355.852C276.57 356.837 276.385 357.943 276.385 359.17C276.385 360.413 276.574 361.541 276.953 362.557C277.339 363.564 277.907 364.367 278.657 364.966C279.415 365.557 280.354 365.852 281.475 365.852ZM301.714 368.261C300.032 368.261 298.582 367.89 297.362 367.147C296.15 366.397 295.214 365.352 294.555 364.011C293.904 362.663 293.578 361.094 293.578 359.307C293.578 357.519 293.904 355.943 294.555 354.579C295.214 353.208 296.131 352.14 297.305 351.375C298.487 350.602 299.866 350.216 301.441 350.216C302.35 350.216 303.248 350.367 304.135 350.67C305.021 350.973 305.828 351.466 306.555 352.147C307.282 352.822 307.862 353.716 308.294 354.829C308.725 355.943 308.941 357.314 308.941 358.943V360.079H295.487V357.761H306.214C306.214 356.776 306.017 355.897 305.623 355.125C305.237 354.352 304.684 353.742 303.964 353.295C303.252 352.848 302.411 352.625 301.441 352.625C300.373 352.625 299.449 352.89 298.669 353.42C297.896 353.943 297.301 354.625 296.885 355.466C296.468 356.307 296.26 357.208 296.26 358.17V359.716C296.26 361.034 296.487 362.151 296.941 363.068C297.404 363.977 298.044 364.67 298.862 365.147C299.68 365.617 300.631 365.852 301.714 365.852C302.419 365.852 303.055 365.754 303.623 365.557C304.199 365.352 304.695 365.049 305.112 364.647C305.529 364.238 305.85 363.731 306.078 363.125L308.669 363.852C308.396 364.731 307.938 365.504 307.294 366.17C306.65 366.829 305.854 367.344 304.907 367.716C303.96 368.079 302.896 368.261 301.714 368.261ZM320.794 350.443V352.716H311.385V350.443H320.794ZM314.203 367.897V348.034C314.203 347.034 314.438 346.2 314.907 345.534C315.377 344.867 315.987 344.367 316.737 344.034C317.487 343.7 318.279 343.534 319.112 343.534C319.771 343.534 320.309 343.587 320.725 343.693C321.142 343.799 321.453 343.897 321.657 343.988L320.885 346.307C320.748 346.261 320.559 346.204 320.316 346.136C320.082 346.068 319.771 346.034 319.385 346.034C318.498 346.034 317.858 346.257 317.464 346.704C317.078 347.151 316.885 347.807 316.885 348.67V367.897H314.203ZM324.552 367.897V350.443H327.234V367.897H324.552ZM325.916 347.534C325.393 347.534 324.942 347.356 324.564 347C324.192 346.644 324.007 346.216 324.007 345.716C324.007 345.216 324.192 344.788 324.564 344.432C324.942 344.075 325.393 343.897 325.916 343.897C326.439 343.897 326.886 344.075 327.257 344.432C327.636 344.788 327.825 345.216 327.825 345.716C327.825 346.216 327.636 346.644 327.257 347C326.886 347.356 326.439 347.534 325.916 347.534ZM334.828 357.397V367.897H332.146V350.443H334.737V353.17H334.964C335.373 352.284 335.994 351.572 336.828 351.034C337.661 350.488 338.737 350.216 340.055 350.216C341.237 350.216 342.271 350.458 343.157 350.943C344.044 351.42 344.733 352.147 345.225 353.125C345.718 354.094 345.964 355.322 345.964 356.807V367.897H343.282V356.988C343.282 355.617 342.926 354.549 342.214 353.784C341.502 353.011 340.525 352.625 339.282 352.625C338.426 352.625 337.661 352.81 336.987 353.182C336.32 353.553 335.794 354.094 335.407 354.807C335.021 355.519 334.828 356.382 334.828 357.397ZM358.183 368.261C356.501 368.261 355.05 367.89 353.831 367.147C352.618 366.397 351.683 365.352 351.024 364.011C350.372 362.663 350.047 361.094 350.047 359.307C350.047 357.519 350.372 355.943 351.024 354.579C351.683 353.208 352.6 352.14 353.774 351.375C354.956 350.602 356.334 350.216 357.91 350.216C358.819 350.216 359.717 350.367 360.603 350.67C361.49 350.973 362.297 351.466 363.024 352.147C363.751 352.822 364.331 353.716 364.762 354.829C365.194 355.943 365.41 357.314 365.41 358.943V360.079H351.956V357.761H362.683C362.683 356.776 362.486 355.897 362.092 355.125C361.706 354.352 361.153 353.742 360.433 353.295C359.721 352.848 358.88 352.625 357.91 352.625C356.842 352.625 355.918 352.89 355.137 353.42C354.365 353.943 353.77 354.625 353.353 355.466C352.937 356.307 352.728 357.208 352.728 358.17V359.716C352.728 361.034 352.956 362.151 353.41 363.068C353.872 363.977 354.512 364.67 355.331 365.147C356.149 365.617 357.1 365.852 358.183 365.852C358.887 365.852 359.524 365.754 360.092 365.557C360.668 365.352 361.164 365.049 361.581 364.647C361.997 364.238 362.319 363.731 362.547 363.125L365.137 363.852C364.865 364.731 364.406 365.504 363.762 366.17C363.118 366.829 362.323 367.344 361.376 367.716C360.429 368.079 359.365 368.261 358.183 368.261ZM385.581 368.261C384.005 368.261 382.622 367.886 381.433 367.136C380.251 366.386 379.327 365.337 378.66 363.988C378.001 362.64 377.672 361.064 377.672 359.261C377.672 357.443 378.001 355.856 378.66 354.5C379.327 353.144 380.251 352.091 381.433 351.341C382.622 350.591 384.005 350.216 385.581 350.216C387.156 350.216 388.535 350.591 389.717 351.341C390.906 352.091 391.831 353.144 392.49 354.5C393.156 355.856 393.49 357.443 393.49 359.261C393.49 361.064 393.156 362.64 392.49 363.988C391.831 365.337 390.906 366.386 389.717 367.136C388.535 367.886 387.156 368.261 385.581 368.261ZM385.581 365.852C386.778 365.852 387.762 365.545 388.535 364.932C389.308 364.318 389.88 363.511 390.251 362.511C390.622 361.511 390.808 360.428 390.808 359.261C390.808 358.094 390.622 357.007 390.251 356C389.88 354.992 389.308 354.178 388.535 353.557C387.762 352.935 386.778 352.625 385.581 352.625C384.384 352.625 383.399 352.935 382.626 353.557C381.853 354.178 381.281 354.992 380.91 356C380.539 357.007 380.353 358.094 380.353 359.261C380.353 360.428 380.539 361.511 380.91 362.511C381.281 363.511 381.853 364.318 382.626 364.932C383.399 365.545 384.384 365.852 385.581 365.852ZM397.583 374.443V350.443H400.174V353.216H400.493C400.69 352.913 400.962 352.526 401.311 352.057C401.667 351.579 402.174 351.155 402.833 350.784C403.5 350.405 404.402 350.216 405.538 350.216C407.008 350.216 408.303 350.583 409.424 351.318C410.546 352.053 411.421 353.094 412.049 354.443C412.678 355.791 412.993 357.382 412.993 359.216C412.993 361.064 412.678 362.666 412.049 364.022C411.421 365.371 410.549 366.416 409.436 367.159C408.322 367.894 407.038 368.261 405.583 368.261C404.462 368.261 403.565 368.075 402.89 367.704C402.216 367.325 401.697 366.897 401.333 366.42C400.97 365.935 400.69 365.534 400.493 365.216H400.265V374.443H397.583ZM400.22 359.17C400.22 360.488 400.413 361.651 400.799 362.659C401.186 363.659 401.75 364.443 402.493 365.011C403.235 365.572 404.144 365.852 405.22 365.852C406.341 365.852 407.277 365.557 408.027 364.966C408.784 364.367 409.352 363.564 409.731 362.557C410.118 361.541 410.311 360.413 410.311 359.17C410.311 357.943 410.121 356.837 409.743 355.852C409.371 354.86 408.807 354.075 408.049 353.5C407.299 352.916 406.356 352.625 405.22 352.625C404.129 352.625 403.212 352.901 402.47 353.454C401.727 354 401.167 354.765 400.788 355.75C400.409 356.727 400.22 357.867 400.22 359.17ZM424.674 350.443V352.716H415.629V350.443H424.674ZM418.265 346.261H420.947V362.897C420.947 363.655 421.057 364.223 421.277 364.602C421.504 364.973 421.792 365.223 422.14 365.352C422.496 365.473 422.871 365.534 423.265 365.534C423.561 365.534 423.803 365.519 423.993 365.488C424.182 365.45 424.333 365.42 424.447 365.397L424.993 367.807C424.811 367.875 424.557 367.943 424.231 368.011C423.905 368.087 423.493 368.125 422.993 368.125C422.235 368.125 421.493 367.962 420.765 367.636C420.046 367.31 419.447 366.814 418.97 366.147C418.5 365.481 418.265 364.64 418.265 363.625V346.261ZM428.708 367.897V350.443H431.39V367.897H428.708ZM430.072 347.534C429.549 347.534 429.099 347.356 428.72 347C428.349 346.644 428.163 346.216 428.163 345.716C428.163 345.216 428.349 344.788 428.72 344.432C429.099 344.075 429.549 343.897 430.072 343.897C430.595 343.897 431.042 344.075 431.413 344.432C431.792 344.788 431.981 345.216 431.981 345.716C431.981 346.216 431.792 346.644 431.413 347C431.042 347.356 430.595 347.534 430.072 347.534ZM436.302 367.897V350.443H438.893V353.17H439.12C439.484 352.238 440.071 351.515 440.882 351C441.692 350.477 442.666 350.216 443.802 350.216C444.954 350.216 445.912 350.477 446.677 351C447.45 351.515 448.052 352.238 448.484 353.17H448.666C449.113 352.269 449.783 351.553 450.677 351.022C451.571 350.485 452.643 350.216 453.893 350.216C455.454 350.216 456.73 350.704 457.723 351.682C458.715 352.651 459.211 354.163 459.211 356.216V367.897H456.529V356.216C456.529 354.928 456.177 354.007 455.473 353.454C454.768 352.901 453.939 352.625 452.984 352.625C451.757 352.625 450.806 352.996 450.132 353.738C449.458 354.473 449.12 355.405 449.12 356.534V367.897H446.393V355.943C446.393 354.95 446.071 354.151 445.427 353.545C444.783 352.932 443.954 352.625 442.939 352.625C442.242 352.625 441.59 352.81 440.984 353.182C440.386 353.553 439.901 354.068 439.529 354.727C439.166 355.379 438.984 356.132 438.984 356.988V367.897H436.302ZM469.251 368.307C468.145 368.307 467.141 368.098 466.24 367.682C465.338 367.257 464.622 366.647 464.092 365.852C463.562 365.049 463.297 364.079 463.297 362.943C463.297 361.943 463.493 361.132 463.887 360.511C464.281 359.882 464.808 359.39 465.467 359.034C466.126 358.678 466.853 358.413 467.649 358.238C468.452 358.057 469.259 357.913 470.069 357.807C471.13 357.67 471.99 357.568 472.649 357.5C473.315 357.424 473.8 357.299 474.103 357.125C474.414 356.95 474.569 356.647 474.569 356.216V356.125C474.569 355.004 474.262 354.132 473.649 353.511C473.043 352.89 472.122 352.579 470.887 352.579C469.607 352.579 468.603 352.86 467.876 353.42C467.149 353.981 466.637 354.579 466.342 355.216L463.797 354.307C464.251 353.246 464.857 352.42 465.615 351.829C466.38 351.231 467.213 350.814 468.115 350.579C469.024 350.337 469.918 350.216 470.797 350.216C471.357 350.216 472.001 350.284 472.728 350.42C473.463 350.549 474.172 350.818 474.853 351.227C475.543 351.636 476.115 352.254 476.569 353.079C477.024 353.905 477.251 355.011 477.251 356.397V367.897H474.569V365.534H474.433C474.251 365.913 473.948 366.318 473.524 366.75C473.1 367.182 472.535 367.549 471.831 367.852C471.126 368.155 470.266 368.307 469.251 368.307ZM469.66 365.897C470.721 365.897 471.615 365.689 472.342 365.272C473.077 364.856 473.63 364.318 474.001 363.659C474.38 363 474.569 362.307 474.569 361.579V359.125C474.456 359.261 474.206 359.386 473.819 359.5C473.44 359.606 473.001 359.7 472.501 359.784C472.009 359.86 471.528 359.928 471.058 359.988C470.596 360.041 470.221 360.087 469.933 360.125C469.236 360.216 468.584 360.363 467.978 360.568C467.38 360.765 466.895 361.064 466.524 361.466C466.16 361.86 465.978 362.397 465.978 363.079C465.978 364.011 466.323 364.716 467.012 365.193C467.709 365.663 468.592 365.897 469.66 365.897ZM484.828 344.625V367.897H482.146V344.625H484.828ZM489.74 367.897V350.443H492.422V367.897H489.74ZM491.103 347.534C490.581 347.534 490.13 347.356 489.751 347C489.38 346.644 489.194 346.216 489.194 345.716C489.194 345.216 489.38 344.788 489.751 344.432C490.13 344.075 490.581 343.897 491.103 343.897C491.626 343.897 492.073 344.075 492.444 344.432C492.823 344.788 493.012 345.216 493.012 345.716C493.012 346.216 492.823 346.644 492.444 347C492.073 347.356 491.626 347.534 491.103 347.534ZM504.924 350.443V352.716H495.879V350.443H504.924ZM498.515 346.261H501.197V362.897C501.197 363.655 501.307 364.223 501.527 364.602C501.754 364.973 502.042 365.223 502.39 365.352C502.746 365.473 503.121 365.534 503.515 365.534C503.811 365.534 504.053 365.519 504.243 365.488C504.432 365.45 504.583 365.42 504.697 365.397L505.243 367.807C505.061 367.875 504.807 367.943 504.481 368.011C504.155 368.087 503.743 368.125 503.243 368.125C502.485 368.125 501.743 367.962 501.015 367.636C500.296 367.31 499.697 366.814 499.22 366.147C498.75 365.481 498.515 364.64 498.515 363.625V346.261ZM510.686 374.443C510.231 374.443 509.826 374.405 509.47 374.329C509.114 374.261 508.868 374.193 508.731 374.125L509.413 371.761C510.065 371.928 510.64 371.988 511.14 371.943C511.64 371.897 512.083 371.674 512.47 371.272C512.864 370.879 513.224 370.238 513.549 369.352L514.049 367.988L507.595 350.443H510.504L515.322 364.352H515.504L520.322 350.443H523.231L515.822 370.443C515.489 371.344 515.076 372.091 514.583 372.682C514.091 373.28 513.519 373.723 512.868 374.011C512.224 374.299 511.496 374.443 510.686 374.443ZM543.544 350.443V352.716H534.135V350.443H543.544ZM536.953 367.897V348.034C536.953 347.034 537.188 346.2 537.657 345.534C538.127 344.867 538.737 344.367 539.487 344.034C540.237 343.7 541.029 343.534 541.862 343.534C542.521 343.534 543.059 343.587 543.475 343.693C543.892 343.799 544.203 343.897 544.407 343.988L543.635 346.307C543.498 346.261 543.309 346.204 543.066 346.136C542.832 346.068 542.521 346.034 542.135 346.034C541.248 346.034 540.608 346.257 540.214 346.704C539.828 347.151 539.635 347.807 539.635 348.67V367.897H536.953ZM553.674 368.261C552.099 368.261 550.716 367.886 549.527 367.136C548.345 366.386 547.421 365.337 546.754 363.988C546.095 362.64 545.765 361.064 545.765 359.261C545.765 357.443 546.095 355.856 546.754 354.5C547.421 353.144 548.345 352.091 549.527 351.341C550.716 350.591 552.099 350.216 553.674 350.216C555.25 350.216 556.629 350.591 557.811 351.341C559 352.091 559.924 353.144 560.583 354.5C561.25 355.856 561.583 357.443 561.583 359.261C561.583 361.064 561.25 362.64 560.583 363.988C559.924 365.337 559 366.386 557.811 367.136C556.629 367.886 555.25 368.261 553.674 368.261ZM553.674 365.852C554.871 365.852 555.856 365.545 556.629 364.932C557.402 364.318 557.974 363.511 558.345 362.511C558.716 361.511 558.902 360.428 558.902 359.261C558.902 358.094 558.716 357.007 558.345 356C557.974 354.992 557.402 354.178 556.629 353.557C555.856 352.935 554.871 352.625 553.674 352.625C552.477 352.625 551.493 352.935 550.72 353.557C549.947 354.178 549.375 354.992 549.004 356C548.633 357.007 548.447 358.094 548.447 359.261C548.447 360.428 548.633 361.511 549.004 362.511C549.375 363.511 549.947 364.318 550.72 364.932C551.493 365.545 552.477 365.852 553.674 365.852ZM565.677 367.897V350.443H568.268V353.079H568.45C568.768 352.216 569.344 351.515 570.177 350.977C571.011 350.439 571.95 350.17 572.995 350.17C573.192 350.17 573.439 350.174 573.734 350.182C574.029 350.189 574.253 350.2 574.404 350.216V352.943C574.314 352.92 574.105 352.886 573.779 352.841C573.461 352.788 573.124 352.761 572.768 352.761C571.92 352.761 571.162 352.939 570.495 353.295C569.836 353.644 569.314 354.129 568.927 354.75C568.548 355.363 568.359 356.064 568.359 356.852V367.897H565.677ZM598.947 354.352L596.538 355.034C596.386 354.632 596.163 354.242 595.868 353.863C595.58 353.477 595.186 353.159 594.686 352.909C594.186 352.659 593.546 352.534 592.765 352.534C591.697 352.534 590.807 352.78 590.095 353.272C589.39 353.757 589.038 354.375 589.038 355.125C589.038 355.791 589.28 356.318 589.765 356.704C590.25 357.091 591.008 357.413 592.038 357.67L594.629 358.307C596.19 358.685 597.352 359.265 598.118 360.045C598.883 360.818 599.265 361.814 599.265 363.034C599.265 364.034 598.977 364.928 598.402 365.716C597.833 366.504 597.038 367.125 596.015 367.579C594.993 368.034 593.803 368.261 592.447 368.261C590.667 368.261 589.193 367.875 588.027 367.102C586.86 366.329 586.121 365.2 585.811 363.716L588.356 363.079C588.599 364.019 589.057 364.723 589.731 365.193C590.413 365.663 591.303 365.897 592.402 365.897C593.652 365.897 594.644 365.632 595.379 365.102C596.121 364.564 596.493 363.92 596.493 363.17C596.493 362.564 596.28 362.057 595.856 361.647C595.432 361.231 594.78 360.92 593.902 360.716L590.993 360.034C589.394 359.655 588.22 359.068 587.47 358.272C586.727 357.469 586.356 356.466 586.356 355.261C586.356 354.276 586.633 353.405 587.186 352.647C587.746 351.89 588.508 351.295 589.47 350.863C590.44 350.432 591.538 350.216 592.765 350.216C594.493 350.216 595.849 350.594 596.833 351.352C597.826 352.11 598.53 353.11 598.947 354.352ZM610.893 350.443V352.716H601.848V350.443H610.893ZM604.484 346.261H607.166V362.897C607.166 363.655 607.276 364.223 607.495 364.602C607.723 364.973 608.011 365.223 608.359 365.352C608.715 365.473 609.09 365.534 609.484 365.534C609.779 365.534 610.022 365.519 610.211 365.488C610.401 365.45 610.552 365.42 610.666 365.397L611.211 367.807C611.029 367.875 610.776 367.943 610.45 368.011C610.124 368.087 609.711 368.125 609.211 368.125C608.454 368.125 607.711 367.962 606.984 367.636C606.264 367.31 605.666 366.814 605.189 366.147C604.719 365.481 604.484 364.64 604.484 363.625V346.261ZM620.064 368.307C618.958 368.307 617.954 368.098 617.052 367.682C616.151 367.257 615.435 366.647 614.904 365.852C614.374 365.049 614.109 364.079 614.109 362.943C614.109 361.943 614.306 361.132 614.7 360.511C615.094 359.882 615.62 359.39 616.279 359.034C616.939 358.678 617.666 358.413 618.461 358.238C619.264 358.057 620.071 357.913 620.882 357.807C621.942 357.67 622.802 357.568 623.461 357.5C624.128 357.424 624.613 357.299 624.916 357.125C625.226 356.95 625.382 356.647 625.382 356.216V356.125C625.382 355.004 625.075 354.132 624.461 353.511C623.855 352.89 622.935 352.579 621.7 352.579C620.42 352.579 619.416 352.86 618.689 353.42C617.961 353.981 617.45 354.579 617.154 355.216L614.609 354.307C615.064 353.246 615.67 352.42 616.427 351.829C617.192 351.231 618.026 350.814 618.927 350.579C619.836 350.337 620.73 350.216 621.609 350.216C622.17 350.216 622.814 350.284 623.541 350.42C624.276 350.549 624.984 350.818 625.666 351.227C626.355 351.636 626.927 352.254 627.382 353.079C627.836 353.905 628.064 355.011 628.064 356.397V367.897H625.382V365.534H625.245C625.064 365.913 624.761 366.318 624.336 366.75C623.912 367.182 623.348 367.549 622.643 367.852C621.939 368.155 621.079 368.307 620.064 368.307ZM620.473 365.897C621.533 365.897 622.427 365.689 623.154 365.272C623.889 364.856 624.442 364.318 624.814 363.659C625.192 363 625.382 362.307 625.382 361.579V359.125C625.268 359.261 625.018 359.386 624.632 359.5C624.253 359.606 623.814 359.7 623.314 359.784C622.821 359.86 622.34 359.928 621.87 359.988C621.408 360.041 621.033 360.087 620.745 360.125C620.048 360.216 619.397 360.363 618.791 360.568C618.192 360.765 617.708 361.064 617.336 361.466C616.973 361.86 616.791 362.397 616.791 363.079C616.791 364.011 617.136 364.716 617.825 365.193C618.522 365.663 619.404 365.897 620.473 365.897ZM640.549 350.443V352.716H631.504V350.443H640.549ZM634.14 346.261H636.822V362.897C636.822 363.655 636.932 364.223 637.152 364.602C637.379 364.973 637.667 365.223 638.015 365.352C638.371 365.473 638.746 365.534 639.14 365.534C639.436 365.534 639.678 365.519 639.868 365.488C640.057 365.45 640.208 365.42 640.322 365.397L640.868 367.807C640.686 367.875 640.432 367.943 640.106 368.011C639.78 368.087 639.368 368.125 638.868 368.125C638.11 368.125 637.368 367.962 636.64 367.636C635.921 367.31 635.322 366.814 634.845 366.147C634.375 365.481 634.14 364.64 634.14 363.625V346.261ZM651.714 368.261C650.032 368.261 648.582 367.89 647.362 367.147C646.15 366.397 645.214 365.352 644.555 364.011C643.904 362.663 643.578 361.094 643.578 359.307C643.578 357.519 643.904 355.943 644.555 354.579C645.214 353.208 646.131 352.14 647.305 351.375C648.487 350.602 649.866 350.216 651.441 350.216C652.35 350.216 653.248 350.367 654.135 350.67C655.021 350.973 655.828 351.466 656.555 352.147C657.282 352.822 657.862 353.716 658.294 354.829C658.725 355.943 658.941 357.314 658.941 358.943V360.079H645.487V357.761H656.214C656.214 356.776 656.017 355.897 655.623 355.125C655.237 354.352 654.684 353.742 653.964 353.295C653.252 352.848 652.411 352.625 651.441 352.625C650.373 352.625 649.449 352.89 648.669 353.42C647.896 353.943 647.301 354.625 646.885 355.466C646.468 356.307 646.26 357.208 646.26 358.17V359.716C646.26 361.034 646.487 362.151 646.941 363.068C647.404 363.977 648.044 364.67 648.862 365.147C649.68 365.617 650.631 365.852 651.714 365.852C652.419 365.852 653.055 365.754 653.623 365.557C654.199 365.352 654.695 365.049 655.112 364.647C655.529 364.238 655.85 363.731 656.078 363.125L658.669 363.852C658.396 364.731 657.938 365.504 657.294 366.17C656.65 366.829 655.854 367.344 654.907 367.716C653.96 368.079 652.896 368.261 651.714 368.261ZM665.703 344.625V367.897H663.021V344.625H665.703ZM677.933 368.261C676.251 368.261 674.8 367.89 673.581 367.147C672.368 366.397 671.433 365.352 670.774 364.011C670.122 362.663 669.797 361.094 669.797 359.307C669.797 357.519 670.122 355.943 670.774 354.579C671.433 353.208 672.35 352.14 673.524 351.375C674.706 350.602 676.084 350.216 677.66 350.216C678.569 350.216 679.467 350.367 680.353 350.67C681.24 350.973 682.047 351.466 682.774 352.147C683.501 352.822 684.081 353.716 684.512 354.829C684.944 355.943 685.16 357.314 685.16 358.943V360.079H671.706V357.761H682.433C682.433 356.776 682.236 355.897 681.842 355.125C681.456 354.352 680.903 353.742 680.183 353.295C679.471 352.848 678.63 352.625 677.66 352.625C676.592 352.625 675.668 352.89 674.887 353.42C674.115 353.943 673.52 354.625 673.103 355.466C672.687 356.307 672.478 357.208 672.478 358.17V359.716C672.478 361.034 672.706 362.151 673.16 363.068C673.622 363.977 674.262 364.67 675.081 365.147C675.899 365.617 676.85 365.852 677.933 365.852C678.637 365.852 679.274 365.754 679.842 365.557C680.418 365.352 680.914 365.049 681.331 364.647C681.747 364.238 682.069 363.731 682.297 363.125L684.887 363.852C684.615 364.731 684.156 365.504 683.512 366.17C682.868 366.829 682.073 367.344 681.126 367.716C680.179 368.079 679.115 368.261 677.933 368.261ZM701.603 354.352L699.194 355.034C699.043 354.632 698.819 354.242 698.524 353.863C698.236 353.477 697.842 353.159 697.342 352.909C696.842 352.659 696.202 352.534 695.422 352.534C694.353 352.534 693.463 352.78 692.751 353.272C692.047 353.757 691.694 354.375 691.694 355.125C691.694 355.791 691.937 356.318 692.422 356.704C692.906 357.091 693.664 357.413 694.694 357.67L697.285 358.307C698.846 358.685 700.009 359.265 700.774 360.045C701.539 360.818 701.922 361.814 701.922 363.034C701.922 364.034 701.634 364.928 701.058 365.716C700.49 366.504 699.694 367.125 698.672 367.579C697.649 368.034 696.459 368.261 695.103 368.261C693.323 368.261 691.85 367.875 690.683 367.102C689.516 366.329 688.778 365.2 688.467 363.716L691.012 363.079C691.255 364.019 691.713 364.723 692.387 365.193C693.069 365.663 693.959 365.897 695.058 365.897C696.308 365.897 697.3 365.632 698.035 365.102C698.778 364.564 699.149 363.92 699.149 363.17C699.149 362.564 698.937 362.057 698.512 361.647C698.088 361.231 697.437 360.92 696.558 360.716L693.649 360.034C692.05 359.655 690.876 359.068 690.126 358.272C689.384 357.469 689.012 356.466 689.012 355.261C689.012 354.276 689.289 353.405 689.842 352.647C690.403 351.89 691.164 351.295 692.126 350.863C693.096 350.432 694.194 350.216 695.422 350.216C697.149 350.216 698.505 350.594 699.49 351.352C700.482 352.11 701.187 353.11 701.603 354.352ZM718.322 354.352L715.913 355.034C715.761 354.632 715.538 354.242 715.243 353.863C714.955 353.477 714.561 353.159 714.061 352.909C713.561 352.659 712.921 352.534 712.14 352.534C711.072 352.534 710.182 352.78 709.47 353.272C708.765 353.757 708.413 354.375 708.413 355.125C708.413 355.791 708.655 356.318 709.14 356.704C709.625 357.091 710.383 357.413 711.413 357.67L714.004 358.307C715.565 358.685 716.727 359.265 717.493 360.045C718.258 360.818 718.64 361.814 718.64 363.034C718.64 364.034 718.352 364.928 717.777 365.716C717.208 366.504 716.413 367.125 715.39 367.579C714.368 368.034 713.178 368.261 711.822 368.261C710.042 368.261 708.568 367.875 707.402 367.102C706.235 366.329 705.496 365.2 705.186 363.716L707.731 363.079C707.974 364.019 708.432 364.723 709.106 365.193C709.788 365.663 710.678 365.897 711.777 365.897C713.027 365.897 714.019 365.632 714.754 365.102C715.496 364.564 715.868 363.92 715.868 363.17C715.868 362.564 715.655 362.057 715.231 361.647C714.807 361.231 714.155 360.92 713.277 360.716L710.368 360.034C708.769 359.655 707.595 359.068 706.845 358.272C706.102 357.469 705.731 356.466 705.731 355.261C705.731 354.276 706.008 353.405 706.561 352.647C707.121 351.89 707.883 351.295 708.845 350.863C709.815 350.432 710.913 350.216 712.14 350.216C713.868 350.216 715.224 350.594 716.208 351.352C717.201 352.11 717.905 353.11 718.322 354.352Z" fill="black"/>
</g>
</svg>
