<svg width="1920" height="1080" viewBox="0 0 1920 1080" fill="none" xmlns="http://www.w3.org/2000/svg">
<g id="stateless">
<rect width="1920" height="1080" fill="white"/>
<path id="Stateless" d="M800.838 82.8946C800.657 81.0613 799.876 79.637 798.498 78.6219C797.119 77.6067 795.248 77.0992 792.884 77.0992C791.278 77.0992 789.922 77.3264 788.816 77.781C787.71 78.2204 786.861 78.834 786.27 79.6219C785.694 80.4098 785.407 81.3037 785.407 82.3037C785.376 83.137 785.551 83.8643 785.929 84.4855C786.323 85.1067 786.861 85.6446 787.543 86.0992C788.225 86.5386 789.013 86.9249 789.907 87.2583C790.801 87.5764 791.755 87.8492 792.77 88.0764L796.952 89.0764C798.982 89.531 800.846 90.137 802.543 90.8946C804.24 91.6522 805.71 92.584 806.952 93.6901C808.194 94.7961 809.157 96.0992 809.838 97.5992C810.535 99.0992 810.891 100.819 810.907 102.758C810.891 105.607 810.164 108.076 808.725 110.167C807.301 112.243 805.24 113.857 802.543 115.008C799.861 116.145 796.626 116.713 792.838 116.713C789.081 116.713 785.808 116.137 783.02 114.986C780.248 113.834 778.081 112.129 776.52 109.872C774.975 107.599 774.164 104.789 774.088 101.44H783.611C783.717 103.001 784.164 104.304 784.952 105.349C785.755 106.379 786.823 107.16 788.157 107.69C789.505 108.205 791.028 108.463 792.725 108.463C794.391 108.463 795.838 108.22 797.066 107.736C798.308 107.251 799.27 106.576 799.952 105.713C800.634 104.849 800.975 103.857 800.975 102.736C800.975 101.69 800.664 100.811 800.043 100.099C799.437 99.387 798.543 98.781 797.361 98.281C796.194 97.781 794.763 97.3264 793.066 96.9173L787.998 95.6446C784.073 94.6901 780.975 93.1976 778.702 91.1673C776.429 89.137 775.301 86.4022 775.316 82.9628C775.301 80.1446 776.051 77.6825 777.566 75.5764C779.096 73.4704 781.194 71.8264 783.861 70.6446C786.528 69.4628 789.558 68.8719 792.952 68.8719C796.407 68.8719 799.422 69.4628 801.998 70.6446C804.588 71.8264 806.604 73.4704 808.043 75.5764C809.482 77.6825 810.225 80.1219 810.27 82.8946H800.838ZM835.912 81.1446V88.4173H814.89V81.1446H835.912ZM819.662 72.781H829.344V105.326C829.344 106.22 829.48 106.917 829.753 107.417C830.026 107.902 830.405 108.243 830.89 108.44C831.39 108.637 831.965 108.736 832.617 108.736C833.071 108.736 833.526 108.698 833.98 108.622C834.435 108.531 834.783 108.463 835.026 108.417L836.549 115.622C836.064 115.773 835.382 115.948 834.503 116.145C833.624 116.357 832.556 116.486 831.299 116.531C828.965 116.622 826.92 116.311 825.162 115.599C823.42 114.887 822.064 113.781 821.094 112.281C820.124 110.781 819.647 108.887 819.662 106.599V72.781ZM852.174 116.713C849.946 116.713 847.962 116.326 846.219 115.554C844.477 114.766 843.098 113.607 842.083 112.076C841.083 110.531 840.583 108.607 840.583 106.304C840.583 104.364 840.939 102.736 841.651 101.417C842.363 100.099 843.333 99.0386 844.56 98.2355C845.787 97.4325 847.181 96.8264 848.742 96.4173C850.318 96.0083 851.969 95.7204 853.696 95.5537C855.727 95.3416 857.363 95.1446 858.605 94.9628C859.848 94.7658 860.749 94.478 861.31 94.0992C861.871 93.7204 862.151 93.1598 862.151 92.4173V92.281C862.151 90.8416 861.696 89.728 860.787 88.9401C859.893 88.1522 858.621 87.7583 856.969 87.7583C855.227 87.7583 853.84 88.1446 852.81 88.9173C851.78 89.6749 851.098 90.6295 850.765 91.781L841.81 91.0537C842.265 88.9325 843.158 87.0992 844.492 85.5537C845.825 83.9931 847.545 82.7961 849.651 81.9628C851.772 81.1143 854.227 80.6901 857.015 80.6901C858.954 80.6901 860.81 80.9173 862.583 81.3719C864.371 81.8264 865.954 82.531 867.333 83.4855C868.727 84.4401 869.825 85.6673 870.628 87.1673C871.431 88.6522 871.833 90.4325 871.833 92.5083V116.054H862.651V111.213H862.378C861.818 112.304 861.068 113.266 860.128 114.099C859.189 114.917 858.06 115.561 856.742 116.031C855.424 116.486 853.901 116.713 852.174 116.713ZM854.946 110.031C856.371 110.031 857.628 109.751 858.719 109.19C859.81 108.614 860.666 107.842 861.287 106.872C861.909 105.902 862.219 104.804 862.219 103.576V99.8719C861.916 100.069 861.499 100.251 860.969 100.417C860.454 100.569 859.871 100.713 859.219 100.849C858.568 100.97 857.916 101.084 857.265 101.19C856.613 101.281 856.022 101.364 855.492 101.44C854.355 101.607 853.363 101.872 852.515 102.236C851.666 102.599 851.007 103.092 850.537 103.713C850.068 104.319 849.833 105.076 849.833 105.986C849.833 107.304 850.31 108.311 851.265 109.008C852.234 109.69 853.462 110.031 854.946 110.031ZM897.912 81.1446V88.4173H876.89V81.1446H897.912ZM881.662 72.781H891.344V105.326C891.344 106.22 891.48 106.917 891.753 107.417C892.026 107.902 892.405 108.243 892.89 108.44C893.39 108.637 893.965 108.736 894.617 108.736C895.071 108.736 895.526 108.698 895.98 108.622C896.435 108.531 896.783 108.463 897.026 108.417L898.549 115.622C898.064 115.773 897.382 115.948 896.503 116.145C895.624 116.357 894.556 116.486 893.299 116.531C890.965 116.622 888.92 116.311 887.162 115.599C885.42 114.887 884.064 113.781 883.094 112.281C882.124 110.781 881.647 108.887 881.662 106.599V72.781ZM919.753 116.736C916.162 116.736 913.071 116.008 910.48 114.554C907.905 113.084 905.92 111.008 904.526 108.326C903.132 105.629 902.435 102.44 902.435 98.7583C902.435 95.1673 903.132 92.0158 904.526 89.3037C905.92 86.5916 907.882 84.478 910.412 82.9628C912.958 81.4476 915.943 80.6901 919.367 80.6901C921.67 80.6901 923.814 81.0613 925.799 81.8037C927.799 82.531 929.541 83.6295 931.026 85.0992C932.526 86.5689 933.693 88.4173 934.526 90.6446C935.359 92.8567 935.776 95.4476 935.776 98.4173V101.076H906.299V95.0764H926.662C926.662 93.6825 926.359 92.4477 925.753 91.3719C925.147 90.2961 924.306 89.4552 923.23 88.8492C922.17 88.228 920.935 87.9173 919.526 87.9173C918.056 87.9173 916.753 88.2583 915.617 88.9401C914.496 89.6067 913.617 90.5083 912.98 91.6446C912.344 92.7658 912.018 94.0158 912.003 95.3946V101.099C912.003 102.826 912.321 104.319 912.958 105.576C913.609 106.834 914.526 107.804 915.708 108.486C916.89 109.167 918.291 109.508 919.912 109.508C920.988 109.508 921.973 109.357 922.867 109.054C923.761 108.751 924.526 108.296 925.162 107.69C925.799 107.084 926.283 106.342 926.617 105.463L935.571 106.054C935.117 108.205 934.185 110.084 932.776 111.69C931.382 113.281 929.579 114.523 927.367 115.417C925.17 116.296 922.632 116.736 919.753 116.736ZM951.776 69.5083V116.054H942.094V69.5083H951.776ZM975.441 116.736C971.85 116.736 968.759 116.008 966.168 114.554C963.592 113.084 961.607 111.008 960.213 108.326C958.819 105.629 958.123 102.44 958.123 98.7583C958.123 95.1673 958.819 92.0158 960.213 89.3037C961.607 86.5916 963.569 84.478 966.1 82.9628C968.645 81.4476 971.63 80.6901 975.054 80.6901C977.357 80.6901 979.501 81.0613 981.486 81.8037C983.486 82.531 985.229 83.6295 986.713 85.0992C988.213 86.5689 989.38 88.4173 990.213 90.6446C991.047 92.8567 991.463 95.4476 991.463 98.4173V101.076H961.986V95.0764H982.35C982.35 93.6825 982.047 92.4477 981.441 91.3719C980.835 90.2961 979.994 89.4552 978.918 88.8492C977.857 88.228 976.623 87.9173 975.213 87.9173C973.744 87.9173 972.441 88.2583 971.304 88.9401C970.183 89.6067 969.304 90.5083 968.668 91.6446C968.032 92.7658 967.706 94.0158 967.691 95.3946V101.099C967.691 102.826 968.009 104.319 968.645 105.576C969.297 106.834 970.213 107.804 971.395 108.486C972.577 109.167 973.979 109.508 975.6 109.508C976.676 109.508 977.66 109.357 978.554 109.054C979.448 108.751 980.213 108.296 980.85 107.69C981.486 107.084 981.971 106.342 982.304 105.463L991.259 106.054C990.804 108.205 989.873 110.084 988.463 111.69C987.069 113.281 985.266 114.523 983.054 115.417C980.857 116.296 978.319 116.736 975.441 116.736ZM1026.83 91.0992L1017.96 91.6446C1017.81 90.887 1017.49 90.2052 1016.99 89.5992C1016.49 88.978 1015.83 88.4855 1015.01 88.1219C1014.21 87.7431 1013.24 87.5537 1012.12 87.5537C1010.62 87.5537 1009.36 87.8719 1008.33 88.5083C1007.3 89.1295 1006.78 89.9628 1006.78 91.0083C1006.78 91.8416 1007.11 92.5461 1007.78 93.1219C1008.45 93.6977 1009.59 94.1598 1011.21 94.5083L1017.53 95.781C1020.93 96.478 1023.46 97.5992 1025.12 99.1446C1026.79 100.69 1027.62 102.72 1027.62 105.236C1027.62 107.523 1026.95 109.531 1025.6 111.258C1024.27 112.986 1022.43 114.334 1020.1 115.304C1017.78 116.258 1015.11 116.736 1012.08 116.736C1007.46 116.736 1003.77 115.773 1001.03 113.849C998.304 111.91 996.706 109.273 996.236 105.94L1005.76 105.44C1006.05 106.849 1006.74 107.925 1007.85 108.667C1008.96 109.395 1010.37 109.758 1012.1 109.758C1013.8 109.758 1015.16 109.432 1016.19 108.781C1017.24 108.114 1017.77 107.258 1017.78 106.213C1017.77 105.334 1017.4 104.614 1016.67 104.054C1015.94 103.478 1014.82 103.039 1013.3 102.736L1007.26 101.531C1003.85 100.849 1001.31 99.6673 999.645 97.9855C997.994 96.3037 997.168 94.1598 997.168 91.5537C997.168 89.3113 997.774 87.3795 998.986 85.7583C1000.21 84.137 1001.93 82.887 1004.15 82.0083C1006.37 81.1295 1008.98 80.6901 1011.96 80.6901C1016.37 80.6901 1019.84 81.6219 1022.37 83.4855C1024.92 85.3492 1026.4 87.887 1026.83 91.0992ZM1062.76 91.0992L1053.9 91.6446C1053.75 90.887 1053.42 90.2052 1052.92 89.5992C1052.42 88.978 1051.76 88.4855 1050.95 88.1219C1050.14 87.7431 1049.18 87.5537 1048.06 87.5537C1046.56 87.5537 1045.29 87.8719 1044.26 88.5083C1043.23 89.1295 1042.72 89.9628 1042.72 91.0083C1042.72 91.8416 1043.05 92.5461 1043.72 93.1219C1044.39 93.6977 1045.53 94.1598 1047.15 94.5083L1053.47 95.781C1056.86 96.478 1059.39 97.5992 1061.06 99.1446C1062.73 100.69 1063.56 102.72 1063.56 105.236C1063.56 107.523 1062.89 109.531 1061.54 111.258C1060.2 112.986 1058.37 114.334 1056.04 115.304C1053.72 116.258 1051.04 116.736 1048.01 116.736C1043.39 116.736 1039.71 115.773 1036.97 113.849C1034.24 111.91 1032.64 109.273 1032.17 105.94L1041.7 105.44C1041.98 106.849 1042.68 107.925 1043.79 108.667C1044.89 109.395 1046.31 109.758 1048.04 109.758C1049.73 109.758 1051.1 109.432 1052.13 108.781C1053.17 108.114 1053.7 107.258 1053.72 106.213C1053.7 105.334 1053.33 104.614 1052.61 104.054C1051.88 103.478 1050.76 103.039 1049.24 102.736L1043.2 101.531C1039.79 100.849 1037.25 99.6673 1035.58 97.9855C1033.93 96.3037 1033.11 94.1598 1033.11 91.5537C1033.11 89.3113 1033.71 87.3795 1034.92 85.7583C1036.15 84.137 1037.87 82.887 1040.08 82.0083C1042.31 81.1295 1044.92 80.6901 1047.9 80.6901C1052.31 80.6901 1055.78 81.6219 1058.31 83.4855C1060.86 85.3492 1062.34 87.887 1062.76 91.0992Z" fill="black"/>
<path id="Stateless = we only enumerate traces define optimality for stateless" d="M287.971 311.442C287.835 310.29 287.282 309.396 286.312 308.76C285.342 308.124 284.153 307.806 282.744 307.806C281.714 307.806 280.812 307.972 280.039 308.306C279.274 308.639 278.676 309.097 278.244 309.681C277.82 310.264 277.608 310.927 277.608 311.669C277.608 312.29 277.755 312.825 278.051 313.271C278.354 313.711 278.74 314.078 279.21 314.374C279.68 314.662 280.172 314.9 280.687 315.09C281.202 315.271 281.676 315.419 282.108 315.533L284.471 316.169C285.077 316.328 285.752 316.548 286.494 316.828C287.244 317.109 287.96 317.491 288.642 317.976C289.331 318.453 289.899 319.067 290.346 319.817C290.793 320.567 291.017 321.487 291.017 322.578C291.017 323.836 290.687 324.972 290.028 325.987C289.377 327.003 288.422 327.809 287.164 328.408C285.914 329.006 284.395 329.306 282.608 329.306C280.941 329.306 279.498 329.037 278.278 328.499C277.066 327.961 276.111 327.211 275.414 326.249C274.725 325.287 274.335 324.169 274.244 322.896H277.153C277.229 323.775 277.524 324.503 278.039 325.078C278.562 325.646 279.221 326.071 280.017 326.351C280.82 326.624 281.683 326.76 282.608 326.76C283.683 326.76 284.649 326.586 285.505 326.237C286.361 325.881 287.039 325.389 287.539 324.76C288.039 324.124 288.289 323.381 288.289 322.533C288.289 321.76 288.074 321.131 287.642 320.646C287.21 320.162 286.642 319.768 285.937 319.465C285.233 319.162 284.471 318.896 283.653 318.669L280.789 317.851C278.971 317.328 277.532 316.582 276.471 315.612C275.411 314.643 274.88 313.374 274.88 311.806C274.88 310.503 275.233 309.366 275.937 308.396C276.649 307.419 277.604 306.662 278.801 306.124C280.005 305.578 281.35 305.306 282.835 305.306C284.335 305.306 285.668 305.575 286.835 306.112C288.002 306.643 288.926 307.37 289.608 308.294C290.297 309.218 290.661 310.268 290.699 311.442H287.971ZM302.877 311.442V313.715H293.832V311.442H302.877ZM296.468 307.26H299.15V323.896C299.15 324.654 299.26 325.222 299.48 325.601C299.707 325.972 299.995 326.222 300.343 326.351C300.699 326.472 301.074 326.533 301.468 326.533C301.764 326.533 302.006 326.518 302.196 326.487C302.385 326.45 302.537 326.419 302.65 326.396L303.196 328.806C303.014 328.874 302.76 328.942 302.434 329.01C302.109 329.086 301.696 329.124 301.196 329.124C300.438 329.124 299.696 328.961 298.968 328.635C298.249 328.309 297.65 327.813 297.173 327.146C296.703 326.48 296.468 325.639 296.468 324.624V307.26ZM312.048 329.306C310.942 329.306 309.938 329.097 309.037 328.681C308.135 328.256 307.419 327.646 306.889 326.851C306.359 326.048 306.093 325.078 306.093 323.942C306.093 322.942 306.29 322.131 306.684 321.51C307.078 320.881 307.605 320.389 308.264 320.033C308.923 319.677 309.65 319.412 310.446 319.237C311.249 319.056 312.056 318.912 312.866 318.806C313.927 318.669 314.787 318.567 315.446 318.499C316.112 318.423 316.597 318.298 316.9 318.124C317.211 317.95 317.366 317.646 317.366 317.215V317.124C317.366 316.003 317.059 315.131 316.446 314.51C315.84 313.889 314.919 313.578 313.684 313.578C312.404 313.578 311.4 313.859 310.673 314.419C309.946 314.98 309.434 315.578 309.139 316.215L306.593 315.306C307.048 314.245 307.654 313.419 308.412 312.828C309.177 312.23 310.01 311.813 310.912 311.578C311.821 311.336 312.715 311.215 313.593 311.215C314.154 311.215 314.798 311.283 315.525 311.419C316.26 311.548 316.968 311.817 317.65 312.226C318.34 312.635 318.912 313.253 319.366 314.078C319.821 314.904 320.048 316.01 320.048 317.396V328.896H317.366V326.533H317.23C317.048 326.912 316.745 327.317 316.321 327.749C315.896 328.181 315.332 328.548 314.627 328.851C313.923 329.154 313.063 329.306 312.048 329.306ZM312.457 326.896C313.518 326.896 314.412 326.688 315.139 326.271C315.874 325.855 316.427 325.317 316.798 324.658C317.177 323.999 317.366 323.306 317.366 322.578V320.124C317.252 320.26 317.002 320.385 316.616 320.499C316.237 320.605 315.798 320.7 315.298 320.783C314.806 320.859 314.324 320.927 313.855 320.987C313.393 321.04 313.018 321.086 312.73 321.124C312.033 321.215 311.381 321.362 310.775 321.567C310.177 321.764 309.692 322.063 309.321 322.465C308.957 322.859 308.775 323.396 308.775 324.078C308.775 325.01 309.12 325.715 309.809 326.192C310.506 326.662 311.389 326.896 312.457 326.896ZM332.534 311.442V313.715H323.488V311.442H332.534ZM326.125 307.26H328.806V323.896C328.806 324.654 328.916 325.222 329.136 325.601C329.363 325.972 329.651 326.222 330 326.351C330.356 326.472 330.731 326.533 331.125 326.533C331.42 326.533 331.663 326.518 331.852 326.487C332.041 326.45 332.193 326.419 332.306 326.396L332.852 328.806C332.67 328.874 332.416 328.942 332.091 329.01C331.765 329.086 331.352 329.124 330.852 329.124C330.094 329.124 329.352 328.961 328.625 328.635C327.905 328.309 327.306 327.813 326.829 327.146C326.359 326.48 326.125 325.639 326.125 324.624V307.26ZM343.699 329.26C342.017 329.26 340.566 328.889 339.346 328.146C338.134 327.396 337.199 326.351 336.539 325.01C335.888 323.662 335.562 322.093 335.562 320.306C335.562 318.518 335.888 316.942 336.539 315.578C337.199 314.207 338.115 313.139 339.289 312.374C340.471 311.601 341.85 311.215 343.426 311.215C344.335 311.215 345.233 311.366 346.119 311.669C347.005 311.972 347.812 312.465 348.539 313.146C349.267 313.821 349.846 314.715 350.278 315.828C350.71 316.942 350.926 318.313 350.926 319.942V321.078H337.471V318.76H348.199C348.199 317.775 348.002 316.896 347.608 316.124C347.221 315.351 346.668 314.741 345.949 314.294C345.236 313.847 344.395 313.624 343.426 313.624C342.358 313.624 341.433 313.889 340.653 314.419C339.88 314.942 339.286 315.624 338.869 316.465C338.452 317.306 338.244 318.207 338.244 319.169V320.715C338.244 322.033 338.471 323.15 338.926 324.067C339.388 324.976 340.028 325.669 340.846 326.146C341.664 326.616 342.615 326.851 343.699 326.851C344.403 326.851 345.039 326.753 345.608 326.556C346.183 326.351 346.68 326.048 347.096 325.646C347.513 325.237 347.835 324.73 348.062 324.124L350.653 324.851C350.38 325.73 349.922 326.503 349.278 327.169C348.634 327.828 347.839 328.343 346.892 328.715C345.945 329.078 344.88 329.26 343.699 329.26ZM357.687 305.624V328.896H355.005V305.624H357.687ZM369.917 329.26C368.235 329.26 366.785 328.889 365.565 328.146C364.353 327.396 363.417 326.351 362.758 325.01C362.107 323.662 361.781 322.093 361.781 320.306C361.781 318.518 362.107 316.942 362.758 315.578C363.417 314.207 364.334 313.139 365.508 312.374C366.69 311.601 368.069 311.215 369.645 311.215C370.554 311.215 371.451 311.366 372.338 311.669C373.224 311.972 374.031 312.465 374.758 313.146C375.485 313.821 376.065 314.715 376.497 315.828C376.929 316.942 377.145 318.313 377.145 319.942V321.078H363.69V318.76H374.417C374.417 317.775 374.22 316.896 373.826 316.124C373.44 315.351 372.887 314.741 372.167 314.294C371.455 313.847 370.614 313.624 369.645 313.624C368.576 313.624 367.652 313.889 366.872 314.419C366.099 314.942 365.504 315.624 365.088 316.465C364.671 317.306 364.463 318.207 364.463 319.169V320.715C364.463 322.033 364.69 323.15 365.145 324.067C365.607 324.976 366.247 325.669 367.065 326.146C367.883 326.616 368.834 326.851 369.917 326.851C370.622 326.851 371.258 326.753 371.826 326.556C372.402 326.351 372.898 326.048 373.315 325.646C373.732 325.237 374.054 324.73 374.281 324.124L376.872 324.851C376.599 325.73 376.141 326.503 375.497 327.169C374.853 327.828 374.057 328.343 373.11 328.715C372.163 329.078 371.099 329.26 369.917 329.26ZM393.588 315.351L391.179 316.033C391.027 315.631 390.804 315.241 390.508 314.862C390.22 314.476 389.826 314.158 389.326 313.908C388.826 313.658 388.186 313.533 387.406 313.533C386.338 313.533 385.448 313.779 384.735 314.271C384.031 314.756 383.679 315.374 383.679 316.124C383.679 316.79 383.921 317.317 384.406 317.703C384.891 318.09 385.648 318.412 386.679 318.669L389.27 319.306C390.83 319.684 391.993 320.264 392.758 321.044C393.523 321.817 393.906 322.813 393.906 324.033C393.906 325.033 393.618 325.927 393.042 326.715C392.474 327.503 391.679 328.124 390.656 328.578C389.633 329.033 388.444 329.26 387.088 329.26C385.307 329.26 383.834 328.874 382.667 328.101C381.501 327.328 380.762 326.2 380.451 324.715L382.997 324.078C383.239 325.018 383.698 325.722 384.372 326.192C385.054 326.662 385.944 326.896 387.042 326.896C388.292 326.896 389.285 326.631 390.02 326.101C390.762 325.563 391.133 324.919 391.133 324.169C391.133 323.563 390.921 323.056 390.497 322.646C390.073 322.23 389.421 321.919 388.542 321.715L385.633 321.033C384.035 320.654 382.86 320.067 382.11 319.271C381.368 318.468 380.997 317.465 380.997 316.26C380.997 315.275 381.273 314.404 381.826 313.646C382.387 312.889 383.148 312.294 384.11 311.862C385.08 311.431 386.179 311.215 387.406 311.215C389.133 311.215 390.489 311.593 391.474 312.351C392.467 313.109 393.171 314.109 393.588 315.351ZM410.306 315.351L407.897 316.033C407.746 315.631 407.522 315.241 407.227 314.862C406.939 314.476 406.545 314.158 406.045 313.908C405.545 313.658 404.905 313.533 404.125 313.533C403.056 313.533 402.166 313.779 401.454 314.271C400.75 314.756 400.397 315.374 400.397 316.124C400.397 316.79 400.64 317.317 401.125 317.703C401.609 318.09 402.367 318.412 403.397 318.669L405.988 319.306C407.549 319.684 408.712 320.264 409.477 321.044C410.242 321.817 410.625 322.813 410.625 324.033C410.625 325.033 410.337 325.927 409.761 326.715C409.193 327.503 408.397 328.124 407.375 328.578C406.352 329.033 405.163 329.26 403.806 329.26C402.026 329.26 400.553 328.874 399.386 328.101C398.219 327.328 397.481 326.2 397.17 324.715L399.716 324.078C399.958 325.018 400.416 325.722 401.091 326.192C401.772 326.662 402.663 326.896 403.761 326.896C405.011 326.896 406.003 326.631 406.738 326.101C407.481 325.563 407.852 324.919 407.852 324.169C407.852 323.563 407.64 323.056 407.216 322.646C406.791 322.23 406.14 321.919 405.261 321.715L402.352 321.033C400.753 320.654 399.579 320.067 398.829 319.271C398.087 318.468 397.716 317.465 397.716 316.26C397.716 315.275 397.992 314.404 398.545 313.646C399.106 312.889 399.867 312.294 400.829 311.862C401.799 311.431 402.897 311.215 404.125 311.215C405.852 311.215 407.208 311.593 408.193 312.351C409.185 313.109 409.89 314.109 410.306 315.351ZM424.752 317.669V315.215H438.752V317.669H424.752ZM424.752 324.396V321.942H438.752V324.396H424.752ZM457.71 328.896L452.392 311.442H455.21L458.983 324.806H459.164L462.892 311.442H465.755L469.437 324.76H469.619L473.392 311.442H476.21L470.892 328.896H468.255L464.437 315.487H464.164L460.346 328.896H457.71ZM486.48 329.26C484.798 329.26 483.347 328.889 482.127 328.146C480.915 327.396 479.98 326.351 479.321 325.01C478.669 323.662 478.343 322.093 478.343 320.306C478.343 318.518 478.669 316.942 479.321 315.578C479.98 314.207 480.896 313.139 482.071 312.374C483.252 311.601 484.631 311.215 486.207 311.215C487.116 311.215 488.014 311.366 488.9 311.669C489.787 311.972 490.593 312.465 491.321 313.146C492.048 313.821 492.627 314.715 493.059 315.828C493.491 316.942 493.707 318.313 493.707 319.942V321.078H480.252V318.76H490.98C490.98 317.775 490.783 316.896 490.389 316.124C490.002 315.351 489.449 314.741 488.73 314.294C488.018 313.847 487.177 313.624 486.207 313.624C485.139 313.624 484.215 313.889 483.434 314.419C482.662 314.942 482.067 315.624 481.65 316.465C481.234 317.306 481.025 318.207 481.025 319.169V320.715C481.025 322.033 481.252 323.15 481.707 324.067C482.169 324.976 482.809 325.669 483.627 326.146C484.446 326.616 485.396 326.851 486.48 326.851C487.184 326.851 487.821 326.753 488.389 326.556C488.965 326.351 489.461 326.048 489.877 325.646C490.294 325.237 490.616 324.73 490.843 324.124L493.434 324.851C493.162 325.73 492.703 326.503 492.059 327.169C491.415 327.828 490.62 328.343 489.673 328.715C488.726 329.078 487.662 329.26 486.48 329.26ZM513.877 329.26C512.302 329.26 510.919 328.885 509.73 328.135C508.548 327.385 507.624 326.336 506.957 324.987C506.298 323.639 505.968 322.063 505.968 320.26C505.968 318.442 506.298 316.855 506.957 315.499C507.624 314.143 508.548 313.09 509.73 312.34C510.919 311.59 512.302 311.215 513.877 311.215C515.453 311.215 516.832 311.59 518.014 312.34C519.203 313.09 520.127 314.143 520.787 315.499C521.453 316.855 521.787 318.442 521.787 320.26C521.787 322.063 521.453 323.639 520.787 324.987C520.127 326.336 519.203 327.385 518.014 328.135C516.832 328.885 515.453 329.26 513.877 329.26ZM513.877 326.851C515.074 326.851 516.059 326.544 516.832 325.931C517.605 325.317 518.177 324.51 518.548 323.51C518.919 322.51 519.105 321.427 519.105 320.26C519.105 319.093 518.919 318.006 518.548 316.999C518.177 315.991 517.605 315.177 516.832 314.556C516.059 313.934 515.074 313.624 513.877 313.624C512.681 313.624 511.696 313.934 510.923 314.556C510.15 315.177 509.578 315.991 509.207 316.999C508.836 318.006 508.65 319.093 508.65 320.26C508.65 321.427 508.836 322.51 509.207 323.51C509.578 324.51 510.15 325.317 510.923 325.931C511.696 326.544 512.681 326.851 513.877 326.851ZM528.562 318.396V328.896H525.88V311.442H528.471V314.169H528.699C529.108 313.283 529.729 312.571 530.562 312.033C531.395 311.487 532.471 311.215 533.789 311.215C534.971 311.215 536.005 311.457 536.892 311.942C537.778 312.419 538.467 313.146 538.96 314.124C539.452 315.093 539.699 316.321 539.699 317.806V328.896H537.017V317.987C537.017 316.616 536.661 315.548 535.949 314.783C535.236 314.01 534.259 313.624 533.017 313.624C532.161 313.624 531.395 313.809 530.721 314.181C530.055 314.552 529.528 315.093 529.142 315.806C528.755 316.518 528.562 317.381 528.562 318.396ZM547.281 305.624V328.896H544.599V305.624H547.281ZM553.92 335.442C553.466 335.442 553.06 335.404 552.704 335.328C552.348 335.26 552.102 335.192 551.966 335.124L552.647 332.76C553.299 332.927 553.875 332.987 554.375 332.942C554.875 332.896 555.318 332.673 555.704 332.271C556.098 331.878 556.458 331.237 556.784 330.351L557.284 328.987L550.829 311.442H553.738L558.556 325.351H558.738L563.556 311.442H566.466L559.056 331.442C558.723 332.343 558.31 333.09 557.818 333.681C557.325 334.279 556.753 334.722 556.102 335.01C555.458 335.298 554.731 335.442 553.92 335.442ZM586.324 329.26C584.642 329.26 583.191 328.889 581.971 328.146C580.759 327.396 579.824 326.351 579.164 325.01C578.513 323.662 578.187 322.093 578.187 320.306C578.187 318.518 578.513 316.942 579.164 315.578C579.824 314.207 580.74 313.139 581.914 312.374C583.096 311.601 584.475 311.215 586.051 311.215C586.96 311.215 587.858 311.366 588.744 311.669C589.63 311.972 590.437 312.465 591.164 313.146C591.892 313.821 592.471 314.715 592.903 315.828C593.335 316.942 593.551 318.313 593.551 319.942V321.078H580.096V318.76H590.824C590.824 317.775 590.627 316.896 590.233 316.124C589.846 315.351 589.293 314.741 588.574 314.294C587.861 313.847 587.02 313.624 586.051 313.624C584.983 313.624 584.058 313.889 583.278 314.419C582.505 314.942 581.911 315.624 581.494 316.465C581.077 317.306 580.869 318.207 580.869 319.169V320.715C580.869 322.033 581.096 323.15 581.551 324.067C582.013 324.976 582.653 325.669 583.471 326.146C584.289 326.616 585.24 326.851 586.324 326.851C587.028 326.851 587.664 326.753 588.233 326.556C588.808 326.351 589.305 326.048 589.721 325.646C590.138 325.237 590.46 324.73 590.687 324.124L593.278 324.851C593.005 325.73 592.547 326.503 591.903 327.169C591.259 327.828 590.464 328.343 589.517 328.715C588.57 329.078 587.505 329.26 586.324 329.26ZM600.312 318.396V328.896H597.63V311.442H600.221V314.169H600.449C600.858 313.283 601.479 312.571 602.312 312.033C603.145 311.487 604.221 311.215 605.539 311.215C606.721 311.215 607.755 311.457 608.642 311.942C609.528 312.419 610.217 313.146 610.71 314.124C611.202 315.093 611.449 316.321 611.449 317.806V328.896H608.767V317.987C608.767 316.616 608.411 315.548 607.699 314.783C606.986 314.01 606.009 313.624 604.767 313.624C603.911 313.624 603.145 313.809 602.471 314.181C601.805 314.552 601.278 315.093 600.892 315.806C600.505 316.518 600.312 317.381 600.312 318.396ZM627.349 321.76V311.442H630.031V328.896H627.349V325.942H627.167C626.758 326.828 626.122 327.582 625.258 328.203C624.395 328.817 623.304 329.124 621.985 329.124C620.895 329.124 619.925 328.885 619.076 328.408C618.228 327.923 617.561 327.196 617.076 326.226C616.592 325.249 616.349 324.018 616.349 322.533V311.442H619.031V322.351C619.031 323.624 619.387 324.639 620.099 325.396C620.819 326.154 621.735 326.533 622.849 326.533C623.516 326.533 624.194 326.362 624.883 326.021C625.58 325.681 626.163 325.158 626.633 324.453C627.11 323.749 627.349 322.851 627.349 321.76ZM634.943 328.896V311.442H637.534V314.169H637.761C638.125 313.237 638.712 312.514 639.522 311.999C640.333 311.476 641.306 311.215 642.443 311.215C643.594 311.215 644.553 311.476 645.318 311.999C646.091 312.514 646.693 313.237 647.125 314.169H647.306C647.753 313.268 648.424 312.552 649.318 312.021C650.212 311.484 651.284 311.215 652.534 311.215C654.094 311.215 655.371 311.703 656.363 312.681C657.356 313.65 657.852 315.162 657.852 317.215V328.896H655.17V317.215C655.17 315.927 654.818 315.006 654.113 314.453C653.409 313.9 652.579 313.624 651.625 313.624C650.397 313.624 649.447 313.995 648.772 314.737C648.098 315.472 647.761 316.404 647.761 317.533V328.896H645.034V316.942C645.034 315.95 644.712 315.15 644.068 314.544C643.424 313.931 642.594 313.624 641.579 313.624C640.882 313.624 640.231 313.809 639.625 314.181C639.026 314.552 638.541 315.067 638.17 315.726C637.806 316.378 637.625 317.131 637.625 317.987V328.896H634.943ZM670.074 329.26C668.392 329.26 666.941 328.889 665.721 328.146C664.509 327.396 663.574 326.351 662.914 325.01C662.263 323.662 661.937 322.093 661.937 320.306C661.937 318.518 662.263 316.942 662.914 315.578C663.574 314.207 664.49 313.139 665.664 312.374C666.846 311.601 668.225 311.215 669.801 311.215C670.71 311.215 671.608 311.366 672.494 311.669C673.38 311.972 674.187 312.465 674.914 313.146C675.642 313.821 676.221 314.715 676.653 315.828C677.085 316.942 677.301 318.313 677.301 319.942V321.078H663.846V318.76H674.574C674.574 317.775 674.377 316.896 673.983 316.124C673.596 315.351 673.043 314.741 672.324 314.294C671.611 313.847 670.77 313.624 669.801 313.624C668.733 313.624 667.808 313.889 667.028 314.419C666.255 314.942 665.661 315.624 665.244 316.465C664.827 317.306 664.619 318.207 664.619 319.169V320.715C664.619 322.033 664.846 323.15 665.301 324.067C665.763 324.976 666.403 325.669 667.221 326.146C668.039 326.616 668.99 326.851 670.074 326.851C670.778 326.851 671.414 326.753 671.983 326.556C672.558 326.351 673.055 326.048 673.471 325.646C673.888 325.237 674.21 324.73 674.437 324.124L677.028 324.851C676.755 325.73 676.297 326.503 675.653 327.169C675.009 327.828 674.214 328.343 673.267 328.715C672.32 329.078 671.255 329.26 670.074 329.26ZM681.38 328.896V311.442H683.971V314.078H684.153C684.471 313.215 685.047 312.514 685.88 311.976C686.714 311.438 687.653 311.169 688.699 311.169C688.895 311.169 689.142 311.173 689.437 311.181C689.733 311.188 689.956 311.2 690.108 311.215V313.942C690.017 313.919 689.808 313.885 689.483 313.84C689.164 313.787 688.827 313.76 688.471 313.76C687.623 313.76 686.865 313.938 686.199 314.294C685.539 314.643 685.017 315.128 684.63 315.749C684.252 316.362 684.062 317.063 684.062 317.851V328.896H681.38ZM698.423 329.306C697.317 329.306 696.313 329.097 695.412 328.681C694.51 328.256 693.794 327.646 693.264 326.851C692.734 326.048 692.468 325.078 692.468 323.942C692.468 322.942 692.665 322.131 693.059 321.51C693.453 320.881 693.98 320.389 694.639 320.033C695.298 319.677 696.025 319.412 696.821 319.237C697.624 319.056 698.431 318.912 699.241 318.806C700.302 318.669 701.162 318.567 701.821 318.499C702.487 318.423 702.972 318.298 703.275 318.124C703.586 317.95 703.741 317.646 703.741 317.215V317.124C703.741 316.003 703.434 315.131 702.821 314.51C702.215 313.889 701.294 313.578 700.059 313.578C698.779 313.578 697.775 313.859 697.048 314.419C696.321 314.98 695.809 315.578 695.514 316.215L692.968 315.306C693.423 314.245 694.029 313.419 694.787 312.828C695.552 312.23 696.385 311.813 697.287 311.578C698.196 311.336 699.09 311.215 699.968 311.215C700.529 311.215 701.173 311.283 701.9 311.419C702.635 311.548 703.343 311.817 704.025 312.226C704.715 312.635 705.287 313.253 705.741 314.078C706.196 314.904 706.423 316.01 706.423 317.396V328.896H703.741V326.533H703.605C703.423 326.912 703.12 327.317 702.696 327.749C702.271 328.181 701.707 328.548 701.002 328.851C700.298 329.154 699.438 329.306 698.423 329.306ZM698.832 326.896C699.893 326.896 700.787 326.688 701.514 326.271C702.249 325.855 702.802 325.317 703.173 324.658C703.552 323.999 703.741 323.306 703.741 322.578V320.124C703.627 320.26 703.377 320.385 702.991 320.499C702.612 320.605 702.173 320.7 701.673 320.783C701.181 320.859 700.699 320.927 700.23 320.987C699.768 321.04 699.393 321.086 699.105 321.124C698.408 321.215 697.756 321.362 697.15 321.567C696.552 321.764 696.067 322.063 695.696 322.465C695.332 322.859 695.15 323.396 695.15 324.078C695.15 325.01 695.495 325.715 696.184 326.192C696.881 326.662 697.764 326.896 698.832 326.896ZM718.909 311.442V313.715H709.863V311.442H718.909ZM712.5 307.26H715.181V323.896C715.181 324.654 715.291 325.222 715.511 325.601C715.738 325.972 716.026 326.222 716.375 326.351C716.731 326.472 717.106 326.533 717.5 326.533C717.795 326.533 718.038 326.518 718.227 326.487C718.416 326.45 718.568 326.419 718.681 326.396L719.227 328.806C719.045 328.874 718.791 328.942 718.466 329.01C718.14 329.086 717.727 329.124 717.227 329.124C716.469 329.124 715.727 328.961 715 328.635C714.28 328.309 713.681 327.813 713.204 327.146C712.734 326.48 712.5 325.639 712.5 324.624V307.26ZM730.074 329.26C728.392 329.26 726.941 328.889 725.721 328.146C724.509 327.396 723.574 326.351 722.914 325.01C722.263 323.662 721.937 322.093 721.937 320.306C721.937 318.518 722.263 316.942 722.914 315.578C723.574 314.207 724.49 313.139 725.664 312.374C726.846 311.601 728.225 311.215 729.801 311.215C730.71 311.215 731.608 311.366 732.494 311.669C733.38 311.972 734.187 312.465 734.914 313.146C735.642 313.821 736.221 314.715 736.653 315.828C737.085 316.942 737.301 318.313 737.301 319.942V321.078H723.846V318.76H734.574C734.574 317.775 734.377 316.896 733.983 316.124C733.596 315.351 733.043 314.741 732.324 314.294C731.611 313.847 730.77 313.624 729.801 313.624C728.733 313.624 727.808 313.889 727.028 314.419C726.255 314.942 725.661 315.624 725.244 316.465C724.827 317.306 724.619 318.207 724.619 319.169V320.715C724.619 322.033 724.846 323.15 725.301 324.067C725.763 324.976 726.403 325.669 727.221 326.146C728.039 326.616 728.99 326.851 730.074 326.851C730.778 326.851 731.414 326.753 731.983 326.556C732.558 326.351 733.055 326.048 733.471 325.646C733.888 325.237 734.21 324.73 734.437 324.124L737.028 324.851C736.755 325.73 736.297 326.503 735.653 327.169C735.009 327.828 734.214 328.343 733.267 328.715C732.32 329.078 731.255 329.26 730.074 329.26ZM757.971 311.442V313.715H748.926V311.442H757.971ZM751.562 307.26H754.244V323.896C754.244 324.654 754.354 325.222 754.574 325.601C754.801 325.972 755.089 326.222 755.437 326.351C755.793 326.472 756.168 326.533 756.562 326.533C756.858 326.533 757.1 326.518 757.289 326.487C757.479 326.45 757.63 326.419 757.744 326.396L758.289 328.806C758.108 328.874 757.854 328.942 757.528 329.01C757.202 329.086 756.789 329.124 756.289 329.124C755.532 329.124 754.789 328.961 754.062 328.635C753.342 328.309 752.744 327.813 752.267 327.146C751.797 326.48 751.562 325.639 751.562 324.624V307.26ZM762.005 328.896V311.442H764.596V314.078H764.778C765.096 313.215 765.672 312.514 766.505 311.976C767.339 311.438 768.278 311.169 769.324 311.169C769.52 311.169 769.767 311.173 770.062 311.181C770.358 311.188 770.581 311.2 770.733 311.215V313.942C770.642 313.919 770.433 313.885 770.108 313.84C769.789 313.787 769.452 313.76 769.096 313.76C768.248 313.76 767.49 313.938 766.824 314.294C766.164 314.643 765.642 315.128 765.255 315.749C764.877 316.362 764.687 317.063 764.687 317.851V328.896H762.005ZM779.048 329.306C777.942 329.306 776.938 329.097 776.037 328.681C775.135 328.256 774.419 327.646 773.889 326.851C773.359 326.048 773.093 325.078 773.093 323.942C773.093 322.942 773.29 322.131 773.684 321.51C774.078 320.881 774.605 320.389 775.264 320.033C775.923 319.677 776.65 319.412 777.446 319.237C778.249 319.056 779.056 318.912 779.866 318.806C780.927 318.669 781.787 318.567 782.446 318.499C783.112 318.423 783.597 318.298 783.9 318.124C784.211 317.95 784.366 317.646 784.366 317.215V317.124C784.366 316.003 784.059 315.131 783.446 314.51C782.84 313.889 781.919 313.578 780.684 313.578C779.404 313.578 778.4 313.859 777.673 314.419C776.946 314.98 776.434 315.578 776.139 316.215L773.593 315.306C774.048 314.245 774.654 313.419 775.412 312.828C776.177 312.23 777.01 311.813 777.912 311.578C778.821 311.336 779.715 311.215 780.593 311.215C781.154 311.215 781.798 311.283 782.525 311.419C783.26 311.548 783.968 311.817 784.65 312.226C785.34 312.635 785.912 313.253 786.366 314.078C786.821 314.904 787.048 316.01 787.048 317.396V328.896H784.366V326.533H784.23C784.048 326.912 783.745 327.317 783.321 327.749C782.896 328.181 782.332 328.548 781.627 328.851C780.923 329.154 780.063 329.306 779.048 329.306ZM779.457 326.896C780.518 326.896 781.412 326.688 782.139 326.271C782.874 325.855 783.427 325.317 783.798 324.658C784.177 323.999 784.366 323.306 784.366 322.578V320.124C784.252 320.26 784.002 320.385 783.616 320.499C783.237 320.605 782.798 320.7 782.298 320.783C781.806 320.859 781.324 320.927 780.855 320.987C780.393 321.04 780.018 321.086 779.73 321.124C779.033 321.215 778.381 321.362 777.775 321.567C777.177 321.764 776.692 322.063 776.321 322.465C775.957 322.859 775.775 323.396 775.775 324.078C775.775 325.01 776.12 325.715 776.809 326.192C777.506 326.662 778.389 326.896 779.457 326.896ZM799.034 329.26C797.397 329.26 795.988 328.874 794.806 328.101C793.625 327.328 792.716 326.264 792.079 324.908C791.443 323.552 791.125 322.003 791.125 320.26C791.125 318.487 791.45 316.923 792.102 315.567C792.761 314.203 793.678 313.139 794.852 312.374C796.034 311.601 797.413 311.215 798.988 311.215C800.216 311.215 801.322 311.442 802.306 311.896C803.291 312.351 804.098 312.987 804.727 313.806C805.356 314.624 805.746 315.578 805.897 316.669H803.216C803.011 315.874 802.556 315.169 801.852 314.556C801.155 313.934 800.216 313.624 799.034 313.624C797.988 313.624 797.072 313.896 796.284 314.442C795.503 314.98 794.894 315.741 794.454 316.726C794.022 317.703 793.806 318.851 793.806 320.169C793.806 321.518 794.019 322.692 794.443 323.692C794.875 324.692 795.481 325.468 796.261 326.021C797.049 326.575 797.973 326.851 799.034 326.851C799.731 326.851 800.363 326.73 800.931 326.487C801.5 326.245 801.981 325.896 802.375 325.442C802.769 324.987 803.049 324.442 803.216 323.806H805.897C805.746 324.836 805.371 325.764 804.772 326.59C804.181 327.408 803.397 328.059 802.42 328.544C801.45 329.021 800.322 329.26 799.034 329.26ZM817.136 329.26C815.454 329.26 814.003 328.889 812.784 328.146C811.572 327.396 810.636 326.351 809.977 325.01C809.325 323.662 809 322.093 809 320.306C809 318.518 809.325 316.942 809.977 315.578C810.636 314.207 811.553 313.139 812.727 312.374C813.909 311.601 815.288 311.215 816.863 311.215C817.772 311.215 818.67 311.366 819.556 311.669C820.443 311.972 821.25 312.465 821.977 313.146C822.704 313.821 823.284 314.715 823.716 315.828C824.147 316.942 824.363 318.313 824.363 319.942V321.078H810.909V318.76H821.636C821.636 317.775 821.439 316.896 821.045 316.124C820.659 315.351 820.106 314.741 819.386 314.294C818.674 313.847 817.833 313.624 816.863 313.624C815.795 313.624 814.871 313.889 814.091 314.419C813.318 314.942 812.723 315.624 812.306 316.465C811.89 317.306 811.681 318.207 811.681 319.169V320.715C811.681 322.033 811.909 323.15 812.363 324.067C812.825 324.976 813.466 325.669 814.284 326.146C815.102 326.616 816.053 326.851 817.136 326.851C817.841 326.851 818.477 326.753 819.045 326.556C819.621 326.351 820.117 326.048 820.534 325.646C820.95 325.237 821.272 324.73 821.5 324.124L824.091 324.851C823.818 325.73 823.359 326.503 822.716 327.169C822.072 327.828 821.276 328.343 820.329 328.715C819.382 329.078 818.318 329.26 817.136 329.26ZM840.806 315.351L838.397 316.033C838.246 315.631 838.022 315.241 837.727 314.862C837.439 314.476 837.045 314.158 836.545 313.908C836.045 313.658 835.405 313.533 834.625 313.533C833.556 313.533 832.666 313.779 831.954 314.271C831.25 314.756 830.897 315.374 830.897 316.124C830.897 316.79 831.14 317.317 831.625 317.703C832.109 318.09 832.867 318.412 833.897 318.669L836.488 319.306C838.049 319.684 839.212 320.264 839.977 321.044C840.742 321.817 841.125 322.813 841.125 324.033C841.125 325.033 840.837 325.927 840.261 326.715C839.693 327.503 838.897 328.124 837.875 328.578C836.852 329.033 835.663 329.26 834.306 329.26C832.526 329.26 831.053 328.874 829.886 328.101C828.719 327.328 827.981 326.2 827.67 324.715L830.216 324.078C830.458 325.018 830.916 325.722 831.591 326.192C832.272 326.662 833.163 326.896 834.261 326.896C835.511 326.896 836.503 326.631 837.238 326.101C837.981 325.563 838.352 324.919 838.352 324.169C838.352 323.563 838.14 323.056 837.716 322.646C837.291 322.23 836.64 321.919 835.761 321.715L832.852 321.033C831.253 320.654 830.079 320.067 829.329 319.271C828.587 318.468 828.216 317.465 828.216 316.26C828.216 315.275 828.492 314.404 829.045 313.646C829.606 312.889 830.367 312.294 831.329 311.862C832.299 311.431 833.397 311.215 834.625 311.215C836.352 311.215 837.708 311.593 838.693 312.351C839.685 313.109 840.39 314.109 840.806 315.351ZM281.471 368.26C280.017 368.26 278.733 367.893 277.619 367.158C276.505 366.415 275.634 365.37 275.005 364.021C274.377 362.665 274.062 361.063 274.062 359.215C274.062 357.381 274.377 355.79 275.005 354.442C275.634 353.093 276.509 352.052 277.63 351.317C278.752 350.582 280.047 350.215 281.517 350.215C282.653 350.215 283.551 350.404 284.21 350.783C284.877 351.154 285.384 351.578 285.733 352.056C286.089 352.525 286.365 352.912 286.562 353.215H286.789V344.624H289.471V367.896H286.88V365.215H286.562C286.365 365.533 286.085 365.934 285.721 366.419C285.358 366.896 284.839 367.325 284.164 367.703C283.49 368.075 282.592 368.26 281.471 368.26ZM281.835 365.851C282.911 365.851 283.82 365.571 284.562 365.01C285.305 364.442 285.869 363.658 286.255 362.658C286.642 361.65 286.835 360.487 286.835 359.169C286.835 357.866 286.645 356.726 286.267 355.749C285.888 354.764 285.327 353.999 284.585 353.453C283.842 352.9 282.926 352.624 281.835 352.624C280.699 352.624 279.752 352.915 278.994 353.499C278.244 354.075 277.68 354.859 277.301 355.851C276.93 356.836 276.744 357.942 276.744 359.169C276.744 360.412 276.933 361.54 277.312 362.556C277.699 363.563 278.267 364.366 279.017 364.965C279.774 365.556 280.714 365.851 281.835 365.851ZM302.074 368.26C300.392 368.26 298.941 367.889 297.721 367.146C296.509 366.396 295.574 365.351 294.914 364.01C294.263 362.662 293.937 361.093 293.937 359.306C293.937 357.518 294.263 355.942 294.914 354.578C295.574 353.207 296.49 352.139 297.664 351.374C298.846 350.601 300.225 350.215 301.801 350.215C302.71 350.215 303.608 350.366 304.494 350.669C305.38 350.972 306.187 351.465 306.914 352.146C307.642 352.821 308.221 353.715 308.653 354.828C309.085 355.942 309.301 357.313 309.301 358.942V360.078H295.846V357.76H306.574C306.574 356.775 306.377 355.896 305.983 355.124C305.596 354.351 305.043 353.741 304.324 353.294C303.611 352.847 302.77 352.624 301.801 352.624C300.733 352.624 299.808 352.889 299.028 353.419C298.255 353.942 297.661 354.624 297.244 355.465C296.827 356.306 296.619 357.207 296.619 358.169V359.715C296.619 361.033 296.846 362.15 297.301 363.067C297.763 363.976 298.403 364.669 299.221 365.146C300.039 365.616 300.99 365.851 302.074 365.851C302.778 365.851 303.414 365.753 303.983 365.556C304.558 365.351 305.055 365.048 305.471 364.646C305.888 364.237 306.21 363.73 306.437 363.124L309.028 363.851C308.755 364.73 308.297 365.503 307.653 366.169C307.009 366.828 306.214 367.343 305.267 367.715C304.32 368.078 303.255 368.26 302.074 368.26ZM321.153 350.442V352.715H311.744V350.442H321.153ZM314.562 367.896V348.033C314.562 347.033 314.797 346.2 315.267 345.533C315.736 344.866 316.346 344.366 317.096 344.033C317.846 343.7 318.638 343.533 319.471 343.533C320.13 343.533 320.668 343.586 321.085 343.692C321.502 343.798 321.812 343.896 322.017 343.987L321.244 346.306C321.108 346.26 320.918 346.203 320.676 346.135C320.441 346.067 320.13 346.033 319.744 346.033C318.858 346.033 318.217 346.256 317.824 346.703C317.437 347.15 317.244 347.806 317.244 348.669V367.896H314.562ZM324.912 367.896V350.442H327.593V367.896H324.912ZM326.275 347.533C325.752 347.533 325.302 347.355 324.923 346.999C324.552 346.643 324.366 346.215 324.366 345.715C324.366 345.215 324.552 344.787 324.923 344.431C325.302 344.075 325.752 343.896 326.275 343.896C326.798 343.896 327.245 344.075 327.616 344.431C327.995 344.787 328.184 345.215 328.184 345.715C328.184 346.215 327.995 346.643 327.616 346.999C327.245 347.355 326.798 347.533 326.275 347.533ZM335.187 357.396V367.896H332.505V350.442H335.096V353.169H335.324C335.733 352.283 336.354 351.571 337.187 351.033C338.02 350.487 339.096 350.215 340.414 350.215C341.596 350.215 342.63 350.457 343.517 350.942C344.403 351.419 345.092 352.146 345.585 353.124C346.077 354.093 346.324 355.321 346.324 356.806V367.896H343.642V356.987C343.642 355.616 343.286 354.548 342.574 353.783C341.861 353.01 340.884 352.624 339.642 352.624C338.786 352.624 338.02 352.809 337.346 353.181C336.68 353.552 336.153 354.093 335.767 354.806C335.38 355.518 335.187 356.381 335.187 357.396ZM358.542 368.26C356.86 368.26 355.41 367.889 354.19 367.146C352.978 366.396 352.042 365.351 351.383 364.01C350.732 362.662 350.406 361.093 350.406 359.306C350.406 357.518 350.732 355.942 351.383 354.578C352.042 353.207 352.959 352.139 354.133 351.374C355.315 350.601 356.694 350.215 358.27 350.215C359.179 350.215 360.076 350.366 360.963 350.669C361.849 350.972 362.656 351.465 363.383 352.146C364.11 352.821 364.69 353.715 365.122 354.828C365.554 355.942 365.77 357.313 365.77 358.942V360.078H352.315V357.76H363.042C363.042 356.775 362.845 355.896 362.451 355.124C362.065 354.351 361.512 353.741 360.792 353.294C360.08 352.847 359.239 352.624 358.27 352.624C357.201 352.624 356.277 352.889 355.497 353.419C354.724 353.942 354.129 354.624 353.713 355.465C353.296 356.306 353.088 357.207 353.088 358.169V359.715C353.088 361.033 353.315 362.15 353.77 363.067C354.232 363.976 354.872 364.669 355.69 365.146C356.508 365.616 357.459 365.851 358.542 365.851C359.247 365.851 359.883 365.753 360.451 365.556C361.027 365.351 361.523 365.048 361.94 364.646C362.357 364.237 362.679 363.73 362.906 363.124L365.497 363.851C365.224 364.73 364.766 365.503 364.122 366.169C363.478 366.828 362.682 367.343 361.735 367.715C360.788 368.078 359.724 368.26 358.542 368.26ZM385.94 368.26C384.364 368.26 382.982 367.885 381.792 367.135C380.61 366.385 379.686 365.336 379.02 363.987C378.36 362.639 378.031 361.063 378.031 359.26C378.031 357.442 378.36 355.855 379.02 354.499C379.686 353.143 380.61 352.09 381.792 351.34C382.982 350.59 384.364 350.215 385.94 350.215C387.516 350.215 388.895 350.59 390.076 351.34C391.266 352.09 392.19 353.143 392.849 354.499C393.516 355.855 393.849 357.442 393.849 359.26C393.849 361.063 393.516 362.639 392.849 363.987C392.19 365.336 391.266 366.385 390.076 367.135C388.895 367.885 387.516 368.26 385.94 368.26ZM385.94 365.851C387.137 365.851 388.122 365.544 388.895 364.931C389.667 364.317 390.239 363.51 390.61 362.51C390.982 361.51 391.167 360.427 391.167 359.26C391.167 358.093 390.982 357.006 390.61 355.999C390.239 354.991 389.667 354.177 388.895 353.556C388.122 352.934 387.137 352.624 385.94 352.624C384.743 352.624 383.758 352.934 382.985 353.556C382.213 354.177 381.641 354.991 381.27 355.999C380.898 357.006 380.713 358.093 380.713 359.26C380.713 360.427 380.898 361.51 381.27 362.51C381.641 363.51 382.213 364.317 382.985 364.931C383.758 365.544 384.743 365.851 385.94 365.851ZM397.943 374.442V350.442H400.534V353.215H400.852C401.049 352.912 401.322 352.525 401.67 352.056C402.026 351.578 402.534 351.154 403.193 350.783C403.859 350.404 404.761 350.215 405.897 350.215C407.367 350.215 408.663 350.582 409.784 351.317C410.905 352.052 411.78 353.093 412.409 354.442C413.038 355.79 413.352 357.381 413.352 359.215C413.352 361.063 413.038 362.665 412.409 364.021C411.78 365.37 410.909 366.415 409.795 367.158C408.681 367.893 407.397 368.26 405.943 368.26C404.822 368.26 403.924 368.075 403.25 367.703C402.575 367.325 402.056 366.896 401.693 366.419C401.329 365.934 401.049 365.533 400.852 365.215H400.625V374.442H397.943ZM400.579 359.169C400.579 360.487 400.772 361.65 401.159 362.658C401.545 363.658 402.109 364.442 402.852 365.01C403.594 365.571 404.503 365.851 405.579 365.851C406.7 365.851 407.636 365.556 408.386 364.965C409.144 364.366 409.712 363.563 410.091 362.556C410.477 361.54 410.67 360.412 410.67 359.169C410.67 357.942 410.481 356.836 410.102 355.851C409.731 354.859 409.166 354.075 408.409 353.499C407.659 352.915 406.716 352.624 405.579 352.624C404.488 352.624 403.572 352.9 402.829 353.453C402.087 353.999 401.526 354.764 401.147 355.749C400.769 356.726 400.579 357.866 400.579 359.169ZM425.034 350.442V352.715H415.988V350.442H425.034ZM418.625 346.26H421.306V362.896C421.306 363.654 421.416 364.222 421.636 364.601C421.863 364.972 422.151 365.222 422.5 365.351C422.856 365.472 423.231 365.533 423.625 365.533C423.92 365.533 424.163 365.518 424.352 365.487C424.541 365.45 424.693 365.419 424.806 365.396L425.352 367.806C425.17 367.874 424.916 367.942 424.591 368.01C424.265 368.086 423.852 368.124 423.352 368.124C422.594 368.124 421.852 367.961 421.125 367.635C420.405 367.309 419.806 366.813 419.329 366.146C418.859 365.48 418.625 364.639 418.625 363.624V346.26ZM429.068 367.896V350.442H431.75V367.896H429.068ZM430.431 347.533C429.909 347.533 429.458 347.355 429.079 346.999C428.708 346.643 428.522 346.215 428.522 345.715C428.522 345.215 428.708 344.787 429.079 344.431C429.458 344.075 429.909 343.896 430.431 343.896C430.954 343.896 431.401 344.075 431.772 344.431C432.151 344.787 432.341 345.215 432.341 345.715C432.341 346.215 432.151 346.643 431.772 346.999C431.401 347.355 430.954 347.533 430.431 347.533ZM436.662 367.896V350.442H439.252V353.169H439.48C439.843 352.237 440.431 351.514 441.241 350.999C442.052 350.476 443.025 350.215 444.162 350.215C445.313 350.215 446.271 350.476 447.037 350.999C447.809 351.514 448.412 352.237 448.843 353.169H449.025C449.472 352.268 450.143 351.552 451.037 351.021C451.931 350.484 453.002 350.215 454.252 350.215C455.813 350.215 457.09 350.703 458.082 351.681C459.074 352.65 459.571 354.162 459.571 356.215V367.896H456.889V356.215C456.889 354.927 456.537 354.006 455.832 353.453C455.127 352.9 454.298 352.624 453.343 352.624C452.116 352.624 451.165 352.995 450.491 353.737C449.817 354.472 449.48 355.404 449.48 356.533V367.896H446.752V355.942C446.752 354.95 446.431 354.15 445.787 353.544C445.143 352.931 444.313 352.624 443.298 352.624C442.601 352.624 441.949 352.809 441.343 353.181C440.745 353.552 440.26 354.067 439.889 354.726C439.525 355.378 439.343 356.131 439.343 356.987V367.896H436.662ZM469.61 368.306C468.504 368.306 467.501 368.097 466.599 367.681C465.698 367.256 464.982 366.646 464.451 365.851C463.921 365.048 463.656 364.078 463.656 362.942C463.656 361.942 463.853 361.131 464.247 360.51C464.641 359.881 465.167 359.389 465.826 359.033C466.485 358.677 467.213 358.412 468.008 358.237C468.811 358.056 469.618 357.912 470.429 357.806C471.489 357.669 472.349 357.567 473.008 357.499C473.675 357.423 474.16 357.298 474.463 357.124C474.773 356.95 474.929 356.646 474.929 356.215V356.124C474.929 355.003 474.622 354.131 474.008 353.51C473.402 352.889 472.482 352.578 471.247 352.578C469.967 352.578 468.963 352.859 468.235 353.419C467.508 353.98 466.997 354.578 466.701 355.215L464.156 354.306C464.61 353.245 465.217 352.419 465.974 351.828C466.739 351.23 467.573 350.813 468.474 350.578C469.383 350.336 470.277 350.215 471.156 350.215C471.717 350.215 472.36 350.283 473.088 350.419C473.823 350.548 474.531 350.817 475.213 351.226C475.902 351.635 476.474 352.253 476.929 353.078C477.383 353.904 477.61 355.01 477.61 356.396V367.896H474.929V365.533H474.792C474.61 365.912 474.307 366.317 473.883 366.749C473.459 367.181 472.895 367.548 472.19 367.851C471.485 368.154 470.626 368.306 469.61 368.306ZM470.02 365.896C471.08 365.896 471.974 365.688 472.701 365.271C473.436 364.855 473.989 364.317 474.36 363.658C474.739 362.999 474.929 362.306 474.929 361.578V359.124C474.815 359.26 474.565 359.385 474.179 359.499C473.8 359.605 473.36 359.7 472.86 359.783C472.368 359.859 471.887 359.927 471.417 359.987C470.955 360.04 470.58 360.086 470.292 360.124C469.595 360.215 468.944 360.362 468.338 360.567C467.739 360.764 467.254 361.063 466.883 361.465C466.52 361.859 466.338 362.396 466.338 363.078C466.338 364.01 466.682 364.715 467.372 365.192C468.069 365.662 468.951 365.896 470.02 365.896ZM485.187 344.624V367.896H482.505V344.624H485.187ZM490.099 367.896V350.442H492.781V367.896H490.099ZM491.463 347.533C490.94 347.533 490.489 347.355 490.11 346.999C489.739 346.643 489.554 346.215 489.554 345.715C489.554 345.215 489.739 344.787 490.11 344.431C490.489 344.075 490.94 343.896 491.463 343.896C491.985 343.896 492.432 344.075 492.804 344.431C493.182 344.787 493.372 345.215 493.372 345.715C493.372 346.215 493.182 346.643 492.804 346.999C492.432 347.355 491.985 347.533 491.463 347.533ZM505.284 350.442V352.715H496.238V350.442H505.284ZM498.875 346.26H501.556V362.896C501.556 363.654 501.666 364.222 501.886 364.601C502.113 364.972 502.401 365.222 502.75 365.351C503.106 365.472 503.481 365.533 503.875 365.533C504.17 365.533 504.413 365.518 504.602 365.487C504.791 365.45 504.943 365.419 505.056 365.396L505.602 367.806C505.42 367.874 505.166 367.942 504.841 368.01C504.515 368.086 504.102 368.124 503.602 368.124C502.844 368.124 502.102 367.961 501.375 367.635C500.655 367.309 500.056 366.813 499.579 366.146C499.109 365.48 498.875 364.639 498.875 363.624V346.26ZM511.045 374.442C510.591 374.442 510.185 374.404 509.829 374.328C509.473 374.26 509.227 374.192 509.091 374.124L509.772 371.76C510.424 371.927 511 371.987 511.5 371.942C512 371.896 512.443 371.673 512.829 371.271C513.223 370.878 513.583 370.237 513.909 369.351L514.409 367.987L507.954 350.442H510.863L515.681 364.351H515.863L520.681 350.442H523.591L516.181 370.442C515.848 371.343 515.435 372.09 514.943 372.681C514.45 373.279 513.878 373.722 513.227 374.01C512.583 374.298 511.856 374.442 511.045 374.442ZM543.903 350.442V352.715H534.494V350.442H543.903ZM537.312 367.896V348.033C537.312 347.033 537.547 346.2 538.017 345.533C538.486 344.866 539.096 344.366 539.846 344.033C540.596 343.7 541.388 343.533 542.221 343.533C542.88 343.533 543.418 343.586 543.835 343.692C544.252 343.798 544.562 343.896 544.767 343.987L543.994 346.306C543.858 346.26 543.668 346.203 543.426 346.135C543.191 346.067 542.88 346.033 542.494 346.033C541.608 346.033 540.967 346.256 540.574 346.703C540.187 347.15 539.994 347.806 539.994 348.669V367.896H537.312ZM554.034 368.26C552.458 368.26 551.075 367.885 549.886 367.135C548.704 366.385 547.78 365.336 547.113 363.987C546.454 362.639 546.125 361.063 546.125 359.26C546.125 357.442 546.454 355.855 547.113 354.499C547.78 353.143 548.704 352.09 549.886 351.34C551.075 350.59 552.458 350.215 554.034 350.215C555.609 350.215 556.988 350.59 558.17 351.34C559.359 352.09 560.284 353.143 560.943 354.499C561.609 355.855 561.943 357.442 561.943 359.26C561.943 361.063 561.609 362.639 560.943 363.987C560.284 365.336 559.359 366.385 558.17 367.135C556.988 367.885 555.609 368.26 554.034 368.26ZM554.034 365.851C555.231 365.851 556.216 365.544 556.988 364.931C557.761 364.317 558.333 363.51 558.704 362.51C559.075 361.51 559.261 360.427 559.261 359.26C559.261 358.093 559.075 357.006 558.704 355.999C558.333 354.991 557.761 354.177 556.988 353.556C556.216 352.934 555.231 352.624 554.034 352.624C552.837 352.624 551.852 352.934 551.079 353.556C550.306 354.177 549.734 354.991 549.363 355.999C548.992 357.006 548.806 358.093 548.806 359.26C548.806 360.427 548.992 361.51 549.363 362.51C549.734 363.51 550.306 364.317 551.079 364.931C551.852 365.544 552.837 365.851 554.034 365.851ZM566.037 367.896V350.442H568.627V353.078H568.809C569.127 352.215 569.703 351.514 570.537 350.976C571.37 350.438 572.309 350.169 573.355 350.169C573.552 350.169 573.798 350.173 574.093 350.181C574.389 350.188 574.612 350.2 574.764 350.215V352.942C574.673 352.919 574.465 352.885 574.139 352.84C573.821 352.787 573.484 352.76 573.127 352.76C572.279 352.76 571.521 352.938 570.855 353.294C570.196 353.643 569.673 354.128 569.287 354.749C568.908 355.362 568.718 356.063 568.718 356.851V367.896H566.037ZM599.306 354.351L596.897 355.033C596.746 354.631 596.522 354.241 596.227 353.862C595.939 353.476 595.545 353.158 595.045 352.908C594.545 352.658 593.905 352.533 593.125 352.533C592.056 352.533 591.166 352.779 590.454 353.271C589.75 353.756 589.397 354.374 589.397 355.124C589.397 355.79 589.64 356.317 590.125 356.703C590.609 357.09 591.367 357.412 592.397 357.669L594.988 358.306C596.549 358.684 597.712 359.264 598.477 360.044C599.242 360.817 599.625 361.813 599.625 363.033C599.625 364.033 599.337 364.927 598.761 365.715C598.193 366.503 597.397 367.124 596.375 367.578C595.352 368.033 594.163 368.26 592.806 368.26C591.026 368.26 589.553 367.874 588.386 367.101C587.219 366.328 586.481 365.2 586.17 363.715L588.716 363.078C588.958 364.018 589.416 364.722 590.091 365.192C590.772 365.662 591.663 365.896 592.761 365.896C594.011 365.896 595.003 365.631 595.738 365.101C596.481 364.563 596.852 363.919 596.852 363.169C596.852 362.563 596.64 362.056 596.216 361.646C595.791 361.23 595.14 360.919 594.261 360.715L591.352 360.033C589.753 359.654 588.579 359.067 587.829 358.271C587.087 357.468 586.716 356.465 586.716 355.26C586.716 354.275 586.992 353.404 587.545 352.646C588.106 351.889 588.867 351.294 589.829 350.862C590.799 350.431 591.897 350.215 593.125 350.215C594.852 350.215 596.208 350.593 597.193 351.351C598.185 352.109 598.89 353.109 599.306 354.351ZM611.252 350.442V352.715H602.207V350.442H611.252ZM604.843 346.26H607.525V362.896C607.525 363.654 607.635 364.222 607.855 364.601C608.082 364.972 608.37 365.222 608.718 365.351C609.074 365.472 609.449 365.533 609.843 365.533C610.139 365.533 610.381 365.518 610.571 365.487C610.76 365.45 610.912 365.419 611.025 365.396L611.571 367.806C611.389 367.874 611.135 367.942 610.809 368.01C610.484 368.086 610.071 368.124 609.571 368.124C608.813 368.124 608.071 367.961 607.343 367.635C606.624 367.309 606.025 366.813 605.548 366.146C605.078 365.48 604.843 364.639 604.843 363.624V346.26ZM620.423 368.306C619.317 368.306 618.313 368.097 617.412 367.681C616.51 367.256 615.794 366.646 615.264 365.851C614.734 365.048 614.468 364.078 614.468 362.942C614.468 361.942 614.665 361.131 615.059 360.51C615.453 359.881 615.98 359.389 616.639 359.033C617.298 358.677 618.025 358.412 618.821 358.237C619.624 358.056 620.431 357.912 621.241 357.806C622.302 357.669 623.162 357.567 623.821 357.499C624.487 357.423 624.972 357.298 625.275 357.124C625.586 356.95 625.741 356.646 625.741 356.215V356.124C625.741 355.003 625.434 354.131 624.821 353.51C624.215 352.889 623.294 352.578 622.059 352.578C620.779 352.578 619.775 352.859 619.048 353.419C618.321 353.98 617.809 354.578 617.514 355.215L614.968 354.306C615.423 353.245 616.029 352.419 616.787 351.828C617.552 351.23 618.385 350.813 619.287 350.578C620.196 350.336 621.09 350.215 621.968 350.215C622.529 350.215 623.173 350.283 623.9 350.419C624.635 350.548 625.343 350.817 626.025 351.226C626.715 351.635 627.287 352.253 627.741 353.078C628.196 353.904 628.423 355.01 628.423 356.396V367.896H625.741V365.533H625.605C625.423 365.912 625.12 366.317 624.696 366.749C624.271 367.181 623.707 367.548 623.002 367.851C622.298 368.154 621.438 368.306 620.423 368.306ZM620.832 365.896C621.893 365.896 622.787 365.688 623.514 365.271C624.249 364.855 624.802 364.317 625.173 363.658C625.552 362.999 625.741 362.306 625.741 361.578V359.124C625.627 359.26 625.377 359.385 624.991 359.499C624.612 359.605 624.173 359.7 623.673 359.783C623.181 359.859 622.699 359.927 622.23 359.987C621.768 360.04 621.393 360.086 621.105 360.124C620.408 360.215 619.756 360.362 619.15 360.567C618.552 360.764 618.067 361.063 617.696 361.465C617.332 361.859 617.15 362.396 617.15 363.078C617.15 364.01 617.495 364.715 618.184 365.192C618.881 365.662 619.764 365.896 620.832 365.896ZM640.909 350.442V352.715H631.863V350.442H640.909ZM634.5 346.26H637.181V362.896C637.181 363.654 637.291 364.222 637.511 364.601C637.738 364.972 638.026 365.222 638.375 365.351C638.731 365.472 639.106 365.533 639.5 365.533C639.795 365.533 640.038 365.518 640.227 365.487C640.416 365.45 640.568 365.419 640.681 365.396L641.227 367.806C641.045 367.874 640.791 367.942 640.466 368.01C640.14 368.086 639.727 368.124 639.227 368.124C638.469 368.124 637.727 367.961 637 367.635C636.28 367.309 635.681 366.813 635.204 366.146C634.734 365.48 634.5 364.639 634.5 363.624V346.26ZM652.074 368.26C650.392 368.26 648.941 367.889 647.721 367.146C646.509 366.396 645.574 365.351 644.914 364.01C644.263 362.662 643.937 361.093 643.937 359.306C643.937 357.518 644.263 355.942 644.914 354.578C645.574 353.207 646.49 352.139 647.664 351.374C648.846 350.601 650.225 350.215 651.801 350.215C652.71 350.215 653.608 350.366 654.494 350.669C655.38 350.972 656.187 351.465 656.914 352.146C657.642 352.821 658.221 353.715 658.653 354.828C659.085 355.942 659.301 357.313 659.301 358.942V360.078H645.846V357.76H656.574C656.574 356.775 656.377 355.896 655.983 355.124C655.596 354.351 655.043 353.741 654.324 353.294C653.611 352.847 652.77 352.624 651.801 352.624C650.733 352.624 649.808 352.889 649.028 353.419C648.255 353.942 647.661 354.624 647.244 355.465C646.827 356.306 646.619 357.207 646.619 358.169V359.715C646.619 361.033 646.846 362.15 647.301 363.067C647.763 363.976 648.403 364.669 649.221 365.146C650.039 365.616 650.99 365.851 652.074 365.851C652.778 365.851 653.414 365.753 653.983 365.556C654.558 365.351 655.055 365.048 655.471 364.646C655.888 364.237 656.21 363.73 656.437 363.124L659.028 363.851C658.755 364.73 658.297 365.503 657.653 366.169C657.009 366.828 656.214 367.343 655.267 367.715C654.32 368.078 653.255 368.26 652.074 368.26ZM666.062 344.624V367.896H663.38V344.624H666.062ZM678.292 368.26C676.61 368.26 675.16 367.889 673.94 367.146C672.728 366.396 671.792 365.351 671.133 364.01C670.482 362.662 670.156 361.093 670.156 359.306C670.156 357.518 670.482 355.942 671.133 354.578C671.792 353.207 672.709 352.139 673.883 351.374C675.065 350.601 676.444 350.215 678.02 350.215C678.929 350.215 679.826 350.366 680.713 350.669C681.599 350.972 682.406 351.465 683.133 352.146C683.86 352.821 684.44 353.715 684.872 354.828C685.304 355.942 685.52 357.313 685.52 358.942V360.078H672.065V357.76H682.792C682.792 356.775 682.595 355.896 682.201 355.124C681.815 354.351 681.262 353.741 680.542 353.294C679.83 352.847 678.989 352.624 678.02 352.624C676.951 352.624 676.027 352.889 675.247 353.419C674.474 353.942 673.879 354.624 673.463 355.465C673.046 356.306 672.838 357.207 672.838 358.169V359.715C672.838 361.033 673.065 362.15 673.52 363.067C673.982 363.976 674.622 364.669 675.44 365.146C676.258 365.616 677.209 365.851 678.292 365.851C678.997 365.851 679.633 365.753 680.201 365.556C680.777 365.351 681.273 365.048 681.69 364.646C682.107 364.237 682.429 363.73 682.656 363.124L685.247 363.851C684.974 364.73 684.516 365.503 683.872 366.169C683.228 366.828 682.432 367.343 681.485 367.715C680.538 368.078 679.474 368.26 678.292 368.26ZM701.963 354.351L699.554 355.033C699.402 354.631 699.179 354.241 698.883 353.862C698.595 353.476 698.201 353.158 697.701 352.908C697.201 352.658 696.561 352.533 695.781 352.533C694.713 352.533 693.823 352.779 693.11 353.271C692.406 353.756 692.054 354.374 692.054 355.124C692.054 355.79 692.296 356.317 692.781 356.703C693.266 357.09 694.023 357.412 695.054 357.669L697.645 358.306C699.205 358.684 700.368 359.264 701.133 360.044C701.898 360.817 702.281 361.813 702.281 363.033C702.281 364.033 701.993 364.927 701.417 365.715C700.849 366.503 700.054 367.124 699.031 367.578C698.008 368.033 696.819 368.26 695.463 368.26C693.682 368.26 692.209 367.874 691.042 367.101C689.876 366.328 689.137 365.2 688.826 363.715L691.372 363.078C691.614 364.018 692.073 364.722 692.747 365.192C693.429 365.662 694.319 365.896 695.417 365.896C696.667 365.896 697.66 365.631 698.395 365.101C699.137 364.563 699.508 363.919 699.508 363.169C699.508 362.563 699.296 362.056 698.872 361.646C698.448 361.23 697.796 360.919 696.917 360.715L694.008 360.033C692.41 359.654 691.235 359.067 690.485 358.271C689.743 357.468 689.372 356.465 689.372 355.26C689.372 354.275 689.648 353.404 690.201 352.646C690.762 351.889 691.523 351.294 692.485 350.862C693.455 350.431 694.554 350.215 695.781 350.215C697.508 350.215 698.864 350.593 699.849 351.351C700.842 352.109 701.546 353.109 701.963 354.351ZM718.681 354.351L716.272 355.033C716.121 354.631 715.897 354.241 715.602 353.862C715.314 353.476 714.92 353.158 714.42 352.908C713.92 352.658 713.28 352.533 712.5 352.533C711.431 352.533 710.541 352.779 709.829 353.271C709.125 353.756 708.772 354.374 708.772 355.124C708.772 355.79 709.015 356.317 709.5 356.703C709.984 357.09 710.742 357.412 711.772 357.669L714.363 358.306C715.924 358.684 717.087 359.264 717.852 360.044C718.617 360.817 719 361.813 719 363.033C719 364.033 718.712 364.927 718.136 365.715C717.568 366.503 716.772 367.124 715.75 367.578C714.727 368.033 713.538 368.26 712.181 368.26C710.401 368.26 708.928 367.874 707.761 367.101C706.594 366.328 705.856 365.2 705.545 363.715L708.091 363.078C708.333 364.018 708.791 364.722 709.466 365.192C710.147 365.662 711.038 365.896 712.136 365.896C713.386 365.896 714.378 365.631 715.113 365.101C715.856 364.563 716.227 363.919 716.227 363.169C716.227 362.563 716.015 362.056 715.591 361.646C715.166 361.23 714.515 360.919 713.636 360.715L710.727 360.033C709.128 359.654 707.954 359.067 707.204 358.271C706.462 357.468 706.091 356.465 706.091 355.26C706.091 354.275 706.367 353.404 706.92 352.646C707.481 351.889 708.242 351.294 709.204 350.862C710.174 350.431 711.272 350.215 712.5 350.215C714.227 350.215 715.583 350.593 716.568 351.351C717.56 352.109 718.265 353.109 718.681 354.351Z" fill="black"/>
</g>
</svg>
