<svg width="1920" height="1080" viewBox="0 0 1920 1080" fill="none" xmlns="http://www.w3.org/2000/svg">
<g id="stateless">
<rect width="1920" height="1080" fill="white"/>
<path id="Arrow_84" opacity="0.1" d="M342.394 987.915C342.785 988.305 343.418 988.305 343.809 987.915L350.173 981.551C350.563 981.16 350.563 980.527 350.173 980.137C349.782 979.746 349.149 979.746 348.758 980.137L343.102 985.794L337.445 980.137C337.054 979.746 336.421 979.746 336.03 980.137C335.64 980.527 335.64 981.16 336.03 981.551L342.394 987.915ZM343.102 286.207H342.102L342.102 987.208H343.102H344.102L344.102 286.207H343.102Z" fill="black"/>
<path id="Arrow_87" d="M343.394 988.915C343.785 989.305 344.418 989.305 344.809 988.915L351.173 982.551C351.563 982.16 351.563 981.527 351.173 981.137C350.782 980.746 350.149 980.746 349.758 981.137L344.102 986.794L338.445 981.137C338.054 980.746 337.421 980.746 337.03 981.137C336.64 981.527 336.64 982.16 337.03 982.551L343.394 988.915ZM344.102 287.207H343.102L343.102 988.208H344.102H345.102L345.102 287.207H344.102Z" fill="#CCCCCC"/>
<path id="Arrow_85" opacity="0.1" d="M344.102 843.078L343.102 843.078L343.102 843.619L343.555 843.915L344.102 843.078ZM560.307 985.186C560.847 985.072 561.194 984.542 561.08 984.002L559.234 975.193C559.12 974.653 558.59 974.306 558.05 974.42C557.509 974.533 557.163 975.063 557.276 975.604L558.918 983.434L551.088 985.075C550.547 985.188 550.201 985.718 550.314 986.259C550.428 986.799 550.958 987.146 551.498 987.032L560.307 985.186ZM344.102 286.207L343.102 286.207L343.102 843.078L344.102 843.078L345.102 843.078L345.102 286.207L344.102 286.207ZM344.102 843.078L343.555 843.915L559.555 985.044L560.102 984.207L560.649 983.37L344.649 842.241L344.102 843.078Z" fill="black"/>
<path id="Arrow_88" d="M344.102 842.078L343.102 842.078L343.102 842.617L343.552 842.913L344.102 842.078ZM560.304 985.186C560.844 985.075 561.193 984.546 561.081 984.005L559.263 975.191C559.151 974.65 558.622 974.302 558.081 974.413C557.54 974.525 557.192 975.054 557.304 975.595L558.92 983.43L551.085 985.046C550.544 985.157 550.196 985.686 550.308 986.227C550.419 986.768 550.948 987.116 551.489 987.005L560.304 985.186ZM344.102 286.207L343.102 286.207L343.102 842.078L344.102 842.078L345.102 842.078L345.102 286.207L344.102 286.207ZM344.102 842.078L343.552 842.913L559.552 985.042L560.102 984.207L560.651 983.372L344.651 841.243L344.102 842.078Z" fill="#CCCCCC"/>
<g id="Group_66">
<path id="..." d="M490.896 721.442C489.775 721.442 488.813 721.04 488.01 720.237C487.207 719.434 486.805 718.472 486.805 717.351C486.805 716.23 487.207 715.268 488.01 714.464C488.813 713.661 489.775 713.26 490.896 713.26C492.018 713.26 492.98 713.661 493.783 714.464C494.586 715.268 494.987 716.23 494.987 717.351C494.987 718.093 494.798 718.775 494.419 719.396C494.055 720.018 493.563 720.518 492.942 720.896C492.336 721.26 491.654 721.442 490.896 721.442ZM508.521 721.442C507.4 721.442 506.438 721.04 505.635 720.237C504.832 719.434 504.43 718.472 504.43 717.351C504.43 716.23 504.832 715.268 505.635 714.464C506.438 713.661 507.4 713.26 508.521 713.26C509.643 713.26 510.605 713.661 511.408 714.464C512.211 715.268 512.612 716.23 512.612 717.351C512.612 718.093 512.423 718.775 512.044 719.396C511.68 720.018 511.188 720.518 510.567 720.896C509.961 721.26 509.279 721.442 508.521 721.442ZM526.146 721.442C525.025 721.442 524.063 721.04 523.26 720.237C522.457 719.434 522.055 718.472 522.055 717.351C522.055 716.23 522.457 715.268 523.26 714.464C524.063 713.661 525.025 713.26 526.146 713.26C527.268 713.26 528.23 713.661 529.033 714.464C529.836 715.268 530.237 716.23 530.237 717.351C530.237 718.093 530.048 718.775 529.669 719.396C529.305 720.018 528.813 720.518 528.192 720.896C527.586 721.26 526.904 721.442 526.146 721.442Z" fill="black"/>
<path id="Arrow 86" d="M966.048 981.206C966.599 981.235 967.07 980.812 967.1 980.261L967.585 971.274C967.614 970.722 967.191 970.251 966.64 970.222C966.088 970.192 965.617 970.615 965.588 971.166L965.157 979.155L957.168 978.724C956.617 978.694 956.146 979.117 956.116 979.669C956.086 980.22 956.509 980.691 957.061 980.721L966.048 981.206ZM343.102 286.207L342.357 286.875L965.357 980.875L966.102 980.207L966.846 979.539L343.846 285.539L343.102 286.207Z" fill="black"/>
</g>
<path id="Line_17" d="M963.718 281.591L998.225 312.43L1081.49 219.437" stroke="#58DD4E" stroke-width="11" stroke-linecap="round" stroke-linejoin="round"/>
<path id="Store_only_one_run_at_a_time__polynomial_memory_consumption_" d="M1141.53 231.389C1141.36 229.949 1140.67 228.832 1139.46 228.037C1138.25 227.241 1136.76 226.843 1135 226.843C1133.71 226.843 1132.58 227.052 1131.62 227.468C1130.66 227.885 1129.91 228.458 1129.37 229.187C1128.84 229.916 1128.58 230.745 1128.58 231.673C1128.58 232.449 1128.76 233.117 1129.13 233.676C1129.51 234.225 1129.99 234.684 1130.58 235.054C1131.17 235.413 1131.78 235.712 1132.43 235.949C1133.07 236.176 1133.66 236.36 1134.2 236.502L1137.16 237.298C1137.92 237.497 1138.76 237.771 1139.69 238.122C1140.62 238.472 1141.52 238.95 1142.37 239.556C1143.23 240.153 1143.94 240.92 1144.5 241.858C1145.06 242.795 1145.34 243.946 1145.34 245.309C1145.34 246.881 1144.93 248.302 1144.1 249.571C1143.29 250.84 1142.1 251.848 1140.52 252.596C1138.96 253.344 1137.06 253.718 1134.83 253.718C1132.75 253.718 1130.94 253.382 1129.42 252.71C1127.9 252.038 1126.71 251.1 1125.84 249.897C1124.98 248.695 1124.49 247.298 1124.37 245.707H1128.01C1128.11 246.806 1128.47 247.715 1129.12 248.434C1129.77 249.145 1130.6 249.675 1131.59 250.025C1132.59 250.366 1133.67 250.537 1134.83 250.537C1136.17 250.537 1137.38 250.319 1138.45 249.883C1139.52 249.438 1140.37 248.823 1140.99 248.037C1141.62 247.241 1141.93 246.313 1141.93 245.252C1141.93 244.287 1141.66 243.501 1141.12 242.895C1140.58 242.288 1139.87 241.796 1138.99 241.417C1138.11 241.038 1137.16 240.707 1136.14 240.423L1132.56 239.4C1130.28 238.747 1128.48 237.814 1127.16 236.602C1125.83 235.39 1125.17 233.804 1125.17 231.843C1125.17 230.215 1125.61 228.794 1126.49 227.582C1127.38 226.36 1128.57 225.413 1130.07 224.741C1131.58 224.059 1133.26 223.718 1135.11 223.718C1136.99 223.718 1138.65 224.055 1140.11 224.727C1141.57 225.39 1142.73 226.299 1143.58 227.454C1144.44 228.609 1144.9 229.921 1144.94 231.389H1141.53ZM1160.17 231.389V234.23H1148.86V231.389H1160.17ZM1152.15 226.162H1155.51V246.957C1155.51 247.904 1155.64 248.614 1155.92 249.088C1156.2 249.552 1156.56 249.864 1157 250.025C1157.44 250.177 1157.91 250.252 1158.4 250.252C1158.77 250.252 1159.08 250.234 1159.31 250.196C1159.55 250.148 1159.74 250.11 1159.88 250.082L1160.56 253.093C1160.34 253.179 1160.02 253.264 1159.61 253.349C1159.21 253.444 1158.69 253.491 1158.06 253.491C1157.12 253.491 1156.19 253.288 1155.28 252.88C1154.38 252.473 1153.63 251.853 1153.04 251.02C1152.45 250.186 1152.15 249.135 1152.15 247.866V226.162ZM1173.84 253.662C1171.87 253.662 1170.14 253.193 1168.65 252.255C1167.18 251.318 1166.02 250.006 1165.19 248.321C1164.36 246.635 1163.95 244.665 1163.95 242.412C1163.95 240.139 1164.36 238.155 1165.19 236.46C1166.02 234.765 1167.18 233.449 1168.65 232.511C1170.14 231.574 1171.87 231.105 1173.84 231.105C1175.81 231.105 1177.53 231.574 1179.01 232.511C1180.5 233.449 1181.65 234.765 1182.47 236.46C1183.31 238.155 1183.72 240.139 1183.72 242.412C1183.72 244.665 1183.31 246.635 1182.47 248.321C1181.65 250.006 1180.5 251.318 1179.01 252.255C1177.53 253.193 1175.81 253.662 1173.84 253.662ZM1173.84 250.65C1175.33 250.65 1176.57 250.267 1177.53 249.5C1178.5 248.733 1179.21 247.724 1179.68 246.474C1180.14 245.224 1180.37 243.87 1180.37 242.412C1180.37 240.953 1180.14 239.594 1179.68 238.335C1179.21 237.075 1178.5 236.057 1177.53 235.281C1176.57 234.504 1175.33 234.116 1173.84 234.116C1172.34 234.116 1171.11 234.504 1170.14 235.281C1169.18 236.057 1168.46 237.075 1168 238.335C1167.54 239.594 1167.3 240.953 1167.3 242.412C1167.3 243.87 1167.54 245.224 1168 246.474C1168.46 247.724 1169.18 248.733 1170.14 249.5C1171.11 250.267 1172.34 250.65 1173.84 250.65ZM1188.84 253.207V231.389H1192.08V234.684H1192.31C1192.71 233.605 1193.42 232.729 1194.47 232.056C1195.51 231.384 1196.68 231.048 1197.99 231.048C1198.24 231.048 1198.54 231.053 1198.91 231.062C1199.28 231.072 1199.56 231.086 1199.75 231.105V234.514C1199.64 234.485 1199.38 234.443 1198.97 234.386C1198.57 234.32 1198.15 234.287 1197.71 234.287C1196.64 234.287 1195.7 234.509 1194.86 234.954C1194.04 235.39 1193.39 235.996 1192.9 236.772C1192.43 237.539 1192.19 238.415 1192.19 239.4V253.207H1188.84ZM1212.21 253.662C1210.11 253.662 1208.29 253.198 1206.77 252.27C1205.25 251.332 1204.08 250.025 1203.26 248.349C1202.44 246.663 1202.04 244.703 1202.04 242.468C1202.04 240.234 1202.44 238.264 1203.26 236.559C1204.08 234.845 1205.23 233.51 1206.7 232.554C1208.17 231.588 1209.9 231.105 1211.87 231.105C1213 231.105 1214.13 231.294 1215.23 231.673C1216.34 232.052 1217.35 232.667 1218.26 233.52C1219.17 234.362 1219.89 235.48 1220.43 236.872C1220.97 238.264 1221.24 239.978 1221.24 242.014V243.434H1204.42V240.537H1217.83C1217.83 239.306 1217.59 238.207 1217.09 237.241C1216.61 236.275 1215.92 235.513 1215.02 234.954C1214.13 234.395 1213.08 234.116 1211.87 234.116C1210.53 234.116 1209.38 234.448 1208.4 235.11C1207.44 235.764 1206.69 236.616 1206.17 237.667C1205.65 238.718 1205.39 239.845 1205.39 241.048V242.98C1205.39 244.627 1205.67 246.024 1206.24 247.17C1206.82 248.306 1207.62 249.173 1208.64 249.77C1209.67 250.357 1210.85 250.65 1212.21 250.65C1213.09 250.65 1213.88 250.527 1214.59 250.281C1215.31 250.025 1215.93 249.646 1216.46 249.145C1216.98 248.633 1217.38 247.999 1217.66 247.241L1220.9 248.15C1220.56 249.249 1219.99 250.215 1219.18 251.048C1218.38 251.872 1217.38 252.516 1216.2 252.98C1215.02 253.434 1213.69 253.662 1212.21 253.662ZM1246.46 253.662C1244.49 253.662 1242.76 253.193 1241.27 252.255C1239.79 251.318 1238.64 250.006 1237.8 248.321C1236.98 246.635 1236.57 244.665 1236.57 242.412C1236.57 240.139 1236.98 238.155 1237.8 236.46C1238.64 234.765 1239.79 233.449 1241.27 232.511C1242.76 231.574 1244.49 231.105 1246.46 231.105C1248.42 231.105 1250.15 231.574 1251.63 232.511C1253.11 233.449 1254.27 234.765 1255.09 236.46C1255.92 238.155 1256.34 240.139 1256.34 242.412C1256.34 244.665 1255.92 246.635 1255.09 248.321C1254.27 250.006 1253.11 251.318 1251.63 252.255C1250.15 253.193 1248.42 253.662 1246.46 253.662ZM1246.46 250.65C1247.95 250.65 1249.18 250.267 1250.15 249.5C1251.11 248.733 1251.83 247.724 1252.29 246.474C1252.76 245.224 1252.99 243.87 1252.99 242.412C1252.99 240.953 1252.76 239.594 1252.29 238.335C1251.83 237.075 1251.11 236.057 1250.15 235.281C1249.18 234.504 1247.95 234.116 1246.46 234.116C1244.96 234.116 1243.73 234.504 1242.76 235.281C1241.8 236.057 1241.08 237.075 1240.62 238.335C1240.15 239.594 1239.92 240.953 1239.92 242.412C1239.92 243.87 1240.15 245.224 1240.62 246.474C1241.08 247.724 1241.8 248.733 1242.76 249.5C1243.73 250.267 1244.96 250.65 1246.46 250.65ZM1264.81 240.082V253.207H1261.46V231.389H1264.7V234.798H1264.98C1265.49 233.69 1266.27 232.8 1267.31 232.127C1268.35 231.446 1269.7 231.105 1271.35 231.105C1272.82 231.105 1274.12 231.408 1275.22 232.014C1276.33 232.61 1277.19 233.52 1277.81 234.741C1278.42 235.953 1278.73 237.487 1278.73 239.343V253.207H1275.38V239.571C1275.38 237.857 1274.93 236.521 1274.04 235.565C1273.15 234.599 1271.93 234.116 1270.38 234.116C1269.31 234.116 1268.35 234.348 1267.51 234.812C1266.68 235.276 1266.02 235.953 1265.54 236.843C1265.05 237.734 1264.81 238.813 1264.81 240.082ZM1288.21 224.116V253.207H1284.86V224.116H1288.21ZM1296.51 261.389C1295.94 261.389 1295.43 261.342 1294.99 261.247C1294.54 261.162 1294.24 261.076 1294.07 260.991L1294.92 258.037C1295.73 258.245 1296.45 258.321 1297.08 258.264C1297.7 258.207 1298.26 257.928 1298.74 257.426C1299.23 256.933 1299.68 256.133 1300.09 255.025L1300.71 253.321L1292.64 231.389H1296.28L1302.3 248.775H1302.53L1308.55 231.389H1312.19L1302.93 256.389C1302.51 257.516 1302 258.449 1301.38 259.187C1300.77 259.935 1300.05 260.489 1299.24 260.849C1298.43 261.209 1297.52 261.389 1296.51 261.389ZM1336.73 253.662C1334.76 253.662 1333.03 253.193 1331.54 252.255C1330.07 251.318 1328.91 250.006 1328.08 248.321C1327.25 246.635 1326.84 244.665 1326.84 242.412C1326.84 240.139 1327.25 238.155 1328.08 236.46C1328.91 234.765 1330.07 233.449 1331.54 232.511C1333.03 231.574 1334.76 231.105 1336.73 231.105C1338.7 231.105 1340.42 231.574 1341.9 232.511C1343.39 233.449 1344.54 234.765 1345.37 236.46C1346.2 238.155 1346.62 240.139 1346.62 242.412C1346.62 244.665 1346.2 246.635 1345.37 248.321C1344.54 250.006 1343.39 251.318 1341.9 252.255C1340.42 253.193 1338.7 253.662 1336.73 253.662ZM1336.73 250.65C1338.22 250.65 1339.46 250.267 1340.42 249.5C1341.39 248.733 1342.1 247.724 1342.57 246.474C1343.03 245.224 1343.26 243.87 1343.26 242.412C1343.26 240.953 1343.03 239.594 1342.57 238.335C1342.1 237.075 1341.39 236.057 1340.42 235.281C1339.46 234.504 1338.22 234.116 1336.73 234.116C1335.23 234.116 1334 234.504 1333.04 235.281C1332.07 236.057 1331.35 237.075 1330.89 238.335C1330.43 239.594 1330.19 240.953 1330.19 242.412C1330.19 243.87 1330.43 245.224 1330.89 246.474C1331.35 247.724 1332.07 248.733 1333.04 249.5C1334 250.267 1335.23 250.65 1336.73 250.65ZM1355.08 240.082V253.207H1351.73V231.389H1354.97V234.798H1355.25C1355.77 233.69 1356.54 232.8 1357.58 232.127C1358.63 231.446 1359.97 231.105 1361.62 231.105C1363.1 231.105 1364.39 231.408 1365.5 232.014C1366.6 232.61 1367.47 233.52 1368.08 234.741C1368.7 235.953 1369 237.487 1369 239.343V253.207H1365.65V239.571C1365.65 237.857 1365.21 236.521 1364.32 235.565C1363.43 234.599 1362.21 234.116 1360.65 234.116C1359.58 234.116 1358.63 234.348 1357.78 234.812C1356.95 235.276 1356.29 235.953 1355.81 236.843C1355.33 237.734 1355.08 238.813 1355.08 240.082ZM1384.28 253.662C1382.18 253.662 1380.36 253.198 1378.84 252.27C1377.32 251.332 1376.15 250.025 1375.33 248.349C1374.52 246.663 1374.11 244.703 1374.11 242.468C1374.11 240.234 1374.52 238.264 1375.33 236.559C1376.15 234.845 1377.3 233.51 1378.77 232.554C1380.24 231.588 1381.97 231.105 1383.94 231.105C1385.07 231.105 1386.2 231.294 1387.3 231.673C1388.41 232.052 1389.42 232.667 1390.33 233.52C1391.24 234.362 1391.96 235.48 1392.5 236.872C1393.04 238.264 1393.31 239.978 1393.31 242.014V243.434H1376.49V240.537H1389.9C1389.9 239.306 1389.66 238.207 1389.16 237.241C1388.68 236.275 1387.99 235.513 1387.09 234.954C1386.2 234.395 1385.15 234.116 1383.94 234.116C1382.6 234.116 1381.45 234.448 1380.47 235.11C1379.51 235.764 1378.76 236.616 1378.24 237.667C1377.72 238.718 1377.46 239.845 1377.46 241.048V242.98C1377.46 244.627 1377.74 246.024 1378.31 247.17C1378.89 248.306 1379.69 249.173 1380.71 249.77C1381.74 250.357 1382.92 250.65 1384.28 250.65C1385.16 250.65 1385.95 250.527 1386.66 250.281C1387.38 250.025 1388 249.646 1388.53 249.145C1389.05 248.633 1389.45 247.999 1389.73 247.241L1392.97 248.15C1392.63 249.249 1392.06 250.215 1391.25 251.048C1390.45 251.872 1389.45 252.516 1388.27 252.98C1387.09 253.434 1385.76 253.662 1384.28 253.662ZM1409.66 253.207V231.389H1412.9V234.684H1413.13C1413.53 233.605 1414.25 232.729 1415.29 232.056C1416.33 231.384 1417.5 231.048 1418.81 231.048C1419.06 231.048 1419.36 231.053 1419.73 231.062C1420.1 231.072 1420.38 231.086 1420.57 231.105V234.514C1420.46 234.485 1420.2 234.443 1419.79 234.386C1419.39 234.32 1418.97 234.287 1418.53 234.287C1417.46 234.287 1416.52 234.509 1415.68 234.954C1414.86 235.39 1414.21 235.996 1413.72 236.772C1413.25 237.539 1413.01 238.415 1413.01 239.4V253.207H1409.66ZM1438.29 244.287V231.389H1441.65V253.207H1438.29V249.514H1438.07C1437.56 250.622 1436.76 251.564 1435.68 252.341C1434.6 253.108 1433.24 253.491 1431.59 253.491C1430.23 253.491 1429.01 253.193 1427.95 252.596C1426.89 251.99 1426.06 251.081 1425.45 249.869C1424.85 248.647 1424.54 247.109 1424.54 245.252V231.389H1427.9V245.025C1427.9 246.616 1428.34 247.885 1429.23 248.832C1430.13 249.779 1431.28 250.252 1432.67 250.252C1433.5 250.252 1434.35 250.039 1435.21 249.613C1436.08 249.187 1436.81 248.534 1437.4 247.653C1438 246.772 1438.29 245.65 1438.29 244.287ZM1451.14 240.082V253.207H1447.79V231.389H1451.03V234.798H1451.31C1451.82 233.69 1452.6 232.8 1453.64 232.127C1454.68 231.446 1456.03 231.105 1457.67 231.105C1459.15 231.105 1460.44 231.408 1461.55 232.014C1462.66 232.61 1463.52 233.52 1464.14 234.741C1464.75 235.953 1465.06 237.487 1465.06 239.343V253.207H1461.71V239.571C1461.71 237.857 1461.26 236.521 1460.37 235.565C1459.48 234.599 1458.26 234.116 1456.71 234.116C1455.64 234.116 1454.68 234.348 1453.84 234.812C1453 235.276 1452.35 235.953 1451.86 236.843C1451.38 237.734 1451.14 238.813 1451.14 240.082ZM1488.86 253.718C1487.47 253.718 1486.22 253.458 1485.09 252.937C1483.96 252.407 1483.07 251.645 1482.41 250.65C1481.74 249.646 1481.41 248.434 1481.41 247.014C1481.41 245.764 1481.66 244.751 1482.15 243.974C1482.64 243.188 1483.3 242.573 1484.13 242.127C1484.95 241.682 1485.86 241.351 1486.85 241.133C1487.86 240.906 1488.87 240.726 1489.88 240.593C1491.2 240.423 1492.28 240.295 1493.1 240.21C1493.94 240.115 1494.54 239.959 1494.92 239.741C1495.31 239.523 1495.5 239.145 1495.5 238.605V238.491C1495.5 237.09 1495.12 236.001 1494.35 235.224C1493.6 234.448 1492.44 234.059 1490.9 234.059C1489.3 234.059 1488.05 234.41 1487.14 235.11C1486.23 235.811 1485.59 236.559 1485.22 237.355L1482.04 236.218C1482.61 234.893 1483.36 233.86 1484.31 233.122C1485.27 232.374 1486.31 231.853 1487.44 231.559C1488.57 231.256 1489.69 231.105 1490.79 231.105C1491.49 231.105 1492.29 231.19 1493.2 231.36C1494.12 231.521 1495.01 231.858 1495.86 232.369C1496.72 232.88 1497.44 233.652 1498 234.684C1498.57 235.717 1498.86 237.099 1498.86 238.832V253.207H1495.5V250.252H1495.33C1495.11 250.726 1494.73 251.233 1494.2 251.772C1493.67 252.312 1492.96 252.771 1492.08 253.15C1491.2 253.529 1490.12 253.718 1488.86 253.718ZM1489.37 250.707C1490.69 250.707 1491.81 250.447 1492.72 249.926C1493.64 249.405 1494.33 248.733 1494.79 247.909C1495.27 247.085 1495.5 246.218 1495.5 245.309V242.241C1495.36 242.412 1495.05 242.568 1494.57 242.71C1494.09 242.842 1493.54 242.961 1492.92 243.065C1492.3 243.16 1491.7 243.245 1491.11 243.321C1490.54 243.387 1490.07 243.444 1489.71 243.491C1488.84 243.605 1488.02 243.789 1487.26 244.045C1486.52 244.291 1485.91 244.665 1485.45 245.167C1484.99 245.66 1484.76 246.332 1484.76 247.184C1484.76 248.349 1485.2 249.23 1486.06 249.826C1486.93 250.413 1488.03 250.707 1489.37 250.707ZM1514.46 231.389V234.23H1503.16V231.389H1514.46ZM1506.45 226.162H1509.8V246.957C1509.8 247.904 1509.94 248.614 1510.22 249.088C1510.5 249.552 1510.86 249.864 1511.3 250.025C1511.74 250.177 1512.21 250.252 1512.7 250.252C1513.07 250.252 1513.37 250.234 1513.61 250.196C1513.85 250.148 1514.04 250.11 1514.18 250.082L1514.86 253.093C1514.63 253.179 1514.32 253.264 1513.91 253.349C1513.5 253.444 1512.99 253.491 1512.36 253.491C1511.41 253.491 1510.49 253.288 1509.58 252.88C1508.68 252.473 1507.93 251.853 1507.33 251.02C1506.75 250.186 1506.45 249.135 1506.45 247.866V226.162ZM1537.18 253.718C1535.79 253.718 1534.54 253.458 1533.41 252.937C1532.29 252.407 1531.39 251.645 1530.73 250.65C1530.06 249.646 1529.73 248.434 1529.73 247.014C1529.73 245.764 1529.98 244.751 1530.47 243.974C1530.96 243.188 1531.62 242.573 1532.45 242.127C1533.27 241.682 1534.18 241.351 1535.17 241.133C1536.18 240.906 1537.19 240.726 1538.2 240.593C1539.52 240.423 1540.6 240.295 1541.42 240.21C1542.26 240.115 1542.86 239.959 1543.24 239.741C1543.63 239.523 1543.82 239.145 1543.82 238.605V238.491C1543.82 237.09 1543.44 236.001 1542.67 235.224C1541.92 234.448 1540.77 234.059 1539.22 234.059C1537.62 234.059 1536.37 234.41 1535.46 235.11C1534.55 235.811 1533.91 236.559 1533.54 237.355L1530.36 236.218C1530.93 234.893 1531.68 233.86 1532.63 233.122C1533.59 232.374 1534.63 231.853 1535.76 231.559C1536.89 231.256 1538.01 231.105 1539.11 231.105C1539.81 231.105 1540.61 231.19 1541.52 231.36C1542.44 231.521 1543.33 231.858 1544.18 232.369C1545.04 232.88 1545.76 233.652 1546.32 234.684C1546.89 235.717 1547.18 237.099 1547.18 238.832V253.207H1543.82V250.252H1543.65C1543.43 250.726 1543.05 251.233 1542.52 251.772C1541.99 252.312 1541.28 252.771 1540.4 253.15C1539.52 253.529 1538.45 253.718 1537.18 253.718ZM1537.69 250.707C1539.01 250.707 1540.13 250.447 1541.04 249.926C1541.96 249.405 1542.65 248.733 1543.11 247.909C1543.59 247.085 1543.82 246.218 1543.82 245.309V242.241C1543.68 242.412 1543.37 242.568 1542.89 242.71C1542.41 242.842 1541.86 242.961 1541.24 243.065C1540.62 243.16 1540.02 243.245 1539.43 243.321C1538.86 243.387 1538.39 243.444 1538.03 243.491C1537.16 243.605 1536.34 243.789 1535.59 244.045C1534.84 244.291 1534.23 244.665 1533.77 245.167C1533.31 245.66 1533.09 246.332 1533.09 247.184C1533.09 248.349 1533.52 249.23 1534.38 249.826C1535.25 250.413 1536.35 250.707 1537.69 250.707ZM1574.03 231.389V234.23H1562.73V231.389H1574.03ZM1566.02 226.162H1569.37V246.957C1569.37 247.904 1569.51 248.614 1569.79 249.088C1570.07 249.552 1570.43 249.864 1570.87 250.025C1571.31 250.177 1571.78 250.252 1572.27 250.252C1572.64 250.252 1572.94 250.234 1573.18 250.196C1573.42 250.148 1573.61 250.11 1573.75 250.082L1574.43 253.093C1574.2 253.179 1573.89 253.264 1573.48 253.349C1573.07 253.444 1572.56 253.491 1571.93 253.491C1570.98 253.491 1570.06 253.288 1569.15 252.88C1568.25 252.473 1567.5 251.853 1566.9 251.02C1566.32 250.186 1566.02 249.135 1566.02 247.866V226.162ZM1579.08 253.207V231.389H1582.43V253.207H1579.08ZM1580.78 227.752C1580.13 227.752 1579.56 227.53 1579.09 227.085C1578.63 226.64 1578.39 226.105 1578.39 225.48C1578.39 224.855 1578.63 224.32 1579.09 223.875C1579.56 223.43 1580.13 223.207 1580.78 223.207C1581.43 223.207 1581.99 223.43 1582.46 223.875C1582.93 224.32 1583.17 224.855 1583.17 225.48C1583.17 226.105 1582.93 226.64 1582.46 227.085C1581.99 227.53 1581.43 227.752 1580.78 227.752ZM1588.57 253.207V231.389H1591.81V234.798H1592.09C1592.55 233.633 1593.28 232.729 1594.29 232.085C1595.31 231.431 1596.52 231.105 1597.94 231.105C1599.38 231.105 1600.58 231.431 1601.54 232.085C1602.5 232.729 1603.26 233.633 1603.8 234.798H1604.02C1604.58 233.671 1605.42 232.776 1606.54 232.113C1607.65 231.441 1608.99 231.105 1610.56 231.105C1612.51 231.105 1614.1 231.716 1615.34 232.937C1616.58 234.149 1617.2 236.038 1617.2 238.605V253.207H1613.85V238.605C1613.85 236.995 1613.41 235.844 1612.53 235.153C1611.65 234.462 1610.61 234.116 1609.42 234.116C1607.89 234.116 1606.7 234.58 1605.86 235.508C1605.01 236.427 1604.59 237.592 1604.59 239.002V253.207H1601.18V238.264C1601.18 237.023 1600.78 236.024 1599.97 235.267C1599.17 234.5 1598.13 234.116 1596.86 234.116C1595.99 234.116 1595.18 234.348 1594.42 234.812C1593.67 235.276 1593.07 235.92 1592.6 236.744C1592.15 237.558 1591.92 238.501 1591.92 239.571V253.207H1588.57ZM1632.48 253.662C1630.38 253.662 1628.57 253.198 1627.04 252.27C1625.53 251.332 1624.36 250.025 1623.53 248.349C1622.72 246.663 1622.31 244.703 1622.31 242.468C1622.31 240.234 1622.72 238.264 1623.53 236.559C1624.36 234.845 1625.5 233.51 1626.97 232.554C1628.45 231.588 1630.17 231.105 1632.14 231.105C1633.28 231.105 1634.4 231.294 1635.51 231.673C1636.62 232.052 1637.62 232.667 1638.53 233.52C1639.44 234.362 1640.17 235.48 1640.71 236.872C1641.25 238.264 1641.52 239.978 1641.52 242.014V243.434H1624.7V240.537H1638.11C1638.11 239.306 1637.86 238.207 1637.37 237.241C1636.88 236.275 1636.19 235.513 1635.29 234.954C1634.4 234.395 1633.35 234.116 1632.14 234.116C1630.81 234.116 1629.65 234.448 1628.67 235.11C1627.71 235.764 1626.97 236.616 1626.44 237.667C1625.92 238.718 1625.66 239.845 1625.66 241.048V242.98C1625.66 244.627 1625.95 246.024 1626.52 247.17C1627.09 248.306 1627.89 249.173 1628.92 249.77C1629.94 250.357 1631.13 250.65 1632.48 250.65C1633.36 250.65 1634.16 250.527 1634.87 250.281C1635.59 250.025 1636.21 249.646 1636.73 249.145C1637.25 248.633 1637.65 247.999 1637.94 247.241L1641.17 248.15C1640.83 249.249 1640.26 250.215 1639.46 251.048C1638.65 251.872 1637.66 252.516 1636.47 252.98C1635.29 253.434 1633.96 253.662 1632.48 253.662ZM1649.06 253.434C1648.36 253.434 1647.76 253.183 1647.25 252.681C1646.75 252.18 1646.5 251.578 1646.5 250.877C1646.5 250.177 1646.75 249.575 1647.25 249.074C1647.76 248.572 1648.36 248.321 1649.06 248.321C1649.76 248.321 1650.36 248.572 1650.86 249.074C1651.36 249.575 1651.62 250.177 1651.62 250.877C1651.62 251.342 1651.5 251.768 1651.26 252.156C1651.03 252.544 1650.72 252.857 1650.34 253.093C1649.96 253.321 1649.53 253.434 1649.06 253.434ZM1649.06 237.241C1648.36 237.241 1647.76 236.99 1647.25 236.488C1646.75 235.986 1646.5 235.385 1646.5 234.684C1646.5 233.984 1646.75 233.382 1647.25 232.88C1647.76 232.378 1648.36 232.127 1649.06 232.127C1649.76 232.127 1650.36 232.378 1650.86 232.88C1651.36 233.382 1651.62 233.984 1651.62 234.684C1651.62 235.148 1651.5 235.574 1651.26 235.963C1651.03 236.351 1650.72 236.663 1650.34 236.9C1649.96 237.127 1649.53 237.241 1649.06 237.241ZM1125.17 313.389V283.389H1128.41V286.855H1128.81C1129.05 286.476 1129.39 285.993 1129.83 285.406C1130.27 284.809 1130.91 284.279 1131.73 283.815C1132.57 283.342 1133.69 283.105 1135.11 283.105C1136.95 283.105 1138.57 283.564 1139.97 284.483C1141.37 285.401 1142.47 286.703 1143.25 288.389C1144.04 290.074 1144.43 292.063 1144.43 294.355C1144.43 296.665 1144.04 298.668 1143.25 300.363C1142.47 302.049 1141.38 303.356 1139.99 304.284C1138.59 305.202 1136.99 305.662 1135.17 305.662C1133.77 305.662 1132.65 305.43 1131.8 304.966C1130.96 304.492 1130.31 303.957 1129.86 303.36C1129.4 302.754 1129.05 302.252 1128.81 301.855H1128.52V313.389H1125.17ZM1128.47 294.298C1128.47 295.946 1128.71 297.399 1129.19 298.659C1129.67 299.909 1130.38 300.889 1131.31 301.599C1132.23 302.3 1133.37 302.65 1134.72 302.65C1136.12 302.65 1137.29 302.281 1138.22 301.542C1139.17 300.794 1139.88 299.79 1140.35 298.531C1140.84 297.262 1141.08 295.851 1141.08 294.298C1141.08 292.764 1140.84 291.381 1140.37 290.15C1139.9 288.91 1139.2 287.93 1138.25 287.21C1137.31 286.481 1136.14 286.116 1134.72 286.116C1133.35 286.116 1132.21 286.462 1131.28 287.153C1130.35 287.835 1129.65 288.791 1129.18 290.022C1128.7 291.244 1128.47 292.669 1128.47 294.298ZM1158.41 305.662C1156.44 305.662 1154.71 305.193 1153.22 304.255C1151.75 303.318 1150.59 302.006 1149.76 300.321C1148.93 298.635 1148.52 296.665 1148.52 294.412C1148.52 292.139 1148.93 290.155 1149.76 288.46C1150.59 286.765 1151.75 285.449 1153.22 284.511C1154.71 283.574 1156.44 283.105 1158.41 283.105C1160.38 283.105 1162.1 283.574 1163.58 284.511C1165.07 285.449 1166.22 286.765 1167.04 288.46C1167.88 290.155 1168.29 292.139 1168.29 294.412C1168.29 296.665 1167.88 298.635 1167.04 300.321C1166.22 302.006 1165.07 303.318 1163.58 304.255C1162.1 305.193 1160.38 305.662 1158.41 305.662ZM1158.41 302.65C1159.9 302.65 1161.14 302.267 1162.1 301.5C1163.07 300.733 1163.78 299.724 1164.25 298.474C1164.71 297.224 1164.94 295.87 1164.94 294.412C1164.94 292.953 1164.71 291.594 1164.25 290.335C1163.78 289.075 1163.07 288.057 1162.1 287.281C1161.14 286.504 1159.9 286.116 1158.41 286.116C1156.91 286.116 1155.68 286.504 1154.72 287.281C1153.75 288.057 1153.03 289.075 1152.57 290.335C1152.11 291.594 1151.87 292.953 1151.87 294.412C1151.87 295.87 1152.11 297.224 1152.57 298.474C1153.03 299.724 1153.75 300.733 1154.72 301.5C1155.68 302.267 1156.91 302.65 1158.41 302.65ZM1176.76 276.116V305.207H1173.41V276.116H1176.76ZM1185.06 313.389C1184.5 313.389 1183.99 313.342 1183.54 313.247C1183.1 313.162 1182.79 313.076 1182.62 312.991L1183.47 310.037C1184.29 310.245 1185.01 310.321 1185.63 310.264C1186.26 310.207 1186.81 309.928 1187.29 309.426C1187.79 308.933 1188.24 308.133 1188.64 307.025L1189.27 305.321L1181.2 283.389H1184.84L1190.86 300.775H1191.09L1197.11 283.389H1200.75L1191.48 308.389C1191.07 309.516 1190.55 310.449 1189.94 311.187C1189.32 311.935 1188.6 312.489 1187.79 312.849C1186.99 313.209 1186.08 313.389 1185.06 313.389ZM1208.52 292.082V305.207H1205.17V283.389H1208.41V286.798H1208.69C1209.2 285.69 1209.98 284.8 1211.02 284.127C1212.06 283.446 1213.41 283.105 1215.06 283.105C1216.53 283.105 1217.83 283.408 1218.93 284.014C1220.04 284.61 1220.9 285.52 1221.52 286.741C1222.13 287.953 1222.44 289.487 1222.44 291.343V305.207H1219.09V291.571C1219.09 289.857 1218.65 288.521 1217.75 287.565C1216.86 286.599 1215.64 286.116 1214.09 286.116C1213.02 286.116 1212.06 286.348 1211.22 286.812C1210.39 287.276 1209.73 287.953 1209.25 288.843C1208.76 289.734 1208.52 290.813 1208.52 292.082ZM1237.43 305.662C1235.46 305.662 1233.73 305.193 1232.25 304.255C1230.77 303.318 1229.61 302.006 1228.78 300.321C1227.96 298.635 1227.55 296.665 1227.55 294.412C1227.55 292.139 1227.96 290.155 1228.78 288.46C1229.61 286.765 1230.77 285.449 1232.25 284.511C1233.73 283.574 1235.46 283.105 1237.43 283.105C1239.4 283.105 1241.13 283.574 1242.6 284.511C1244.09 285.449 1245.24 286.765 1246.07 288.46C1246.9 290.155 1247.32 292.139 1247.32 294.412C1247.32 296.665 1246.9 298.635 1246.07 300.321C1245.24 302.006 1244.09 303.318 1242.6 304.255C1241.13 305.193 1239.4 305.662 1237.43 305.662ZM1237.43 302.65C1238.93 302.65 1240.16 302.267 1241.12 301.5C1242.09 300.733 1242.81 299.724 1243.27 298.474C1243.73 297.224 1243.97 295.87 1243.97 294.412C1243.97 292.953 1243.73 291.594 1243.27 290.335C1242.81 289.075 1242.09 288.057 1241.12 287.281C1240.16 286.504 1238.93 286.116 1237.43 286.116C1235.94 286.116 1234.7 286.504 1233.74 287.281C1232.77 288.057 1232.06 289.075 1231.59 290.335C1231.13 291.594 1230.9 292.953 1230.9 294.412C1230.9 295.87 1231.13 297.224 1231.59 298.474C1232.06 299.724 1232.77 300.733 1233.74 301.5C1234.7 302.267 1235.94 302.65 1237.43 302.65ZM1252.44 305.207V283.389H1255.67V286.798H1255.96C1256.41 285.633 1257.15 284.729 1258.16 284.085C1259.17 283.431 1260.39 283.105 1261.81 283.105C1263.25 283.105 1264.45 283.431 1265.4 284.085C1266.37 284.729 1267.12 285.633 1267.66 286.798H1267.89C1268.45 285.671 1269.29 284.776 1270.4 284.113C1271.52 283.441 1272.86 283.105 1274.42 283.105C1276.37 283.105 1277.97 283.716 1279.21 284.937C1280.45 286.149 1281.07 288.038 1281.07 290.605V305.207H1277.72V290.605C1277.72 288.995 1277.28 287.844 1276.4 287.153C1275.52 286.462 1274.48 286.116 1273.29 286.116C1271.75 286.116 1270.57 286.58 1269.72 287.508C1268.88 288.427 1268.46 289.592 1268.46 291.002V305.207H1265.05V290.264C1265.05 289.023 1264.65 288.024 1263.84 287.267C1263.04 286.5 1262 286.116 1260.73 286.116C1259.86 286.116 1259.05 286.348 1258.29 286.812C1257.54 287.276 1256.93 287.92 1256.47 288.744C1256.01 289.558 1255.79 290.501 1255.79 291.571V305.207H1252.44ZM1287.2 305.207V283.389H1290.55V305.207H1287.2ZM1288.91 279.752C1288.25 279.752 1287.69 279.53 1287.22 279.085C1286.75 278.64 1286.52 278.105 1286.52 277.48C1286.52 276.855 1286.75 276.32 1287.22 275.875C1287.69 275.43 1288.25 275.207 1288.91 275.207C1289.56 275.207 1290.12 275.43 1290.58 275.875C1291.06 276.32 1291.29 276.855 1291.29 277.48C1291.29 278.105 1291.06 278.64 1290.58 279.085C1290.12 279.53 1289.56 279.752 1288.91 279.752ZM1303.11 305.718C1301.73 305.718 1300.48 305.458 1299.35 304.937C1298.22 304.407 1297.33 303.645 1296.66 302.65C1296 301.646 1295.67 300.434 1295.67 299.014C1295.67 297.764 1295.92 296.751 1296.41 295.974C1296.9 295.188 1297.56 294.573 1298.38 294.127C1299.21 293.682 1300.12 293.351 1301.11 293.133C1302.11 292.906 1303.12 292.726 1304.14 292.593C1305.46 292.423 1306.54 292.295 1307.36 292.21C1308.19 292.115 1308.8 291.959 1309.18 291.741C1309.57 291.523 1309.76 291.145 1309.76 290.605V290.491C1309.76 289.09 1309.38 288.001 1308.61 287.224C1307.85 286.448 1306.7 286.059 1305.16 286.059C1303.56 286.059 1302.3 286.41 1301.39 287.11C1300.49 287.811 1299.85 288.559 1299.48 289.355L1296.3 288.218C1296.86 286.893 1297.62 285.86 1298.57 285.122C1299.52 284.374 1300.57 283.853 1301.69 283.559C1302.83 283.256 1303.95 283.105 1305.05 283.105C1305.75 283.105 1306.55 283.19 1307.46 283.36C1308.38 283.521 1309.26 283.858 1310.12 284.369C1310.98 284.88 1311.69 285.652 1312.26 286.684C1312.83 287.717 1313.11 289.099 1313.11 290.832V305.207H1309.76V302.252H1309.59C1309.36 302.726 1308.98 303.233 1308.45 303.772C1307.92 304.312 1307.22 304.771 1306.34 305.15C1305.46 305.529 1304.38 305.718 1303.11 305.718ZM1303.62 302.707C1304.95 302.707 1306.07 302.447 1306.98 301.926C1307.9 301.405 1308.59 300.733 1309.05 299.909C1309.52 299.085 1309.76 298.218 1309.76 297.309V294.241C1309.62 294.412 1309.31 294.568 1308.82 294.71C1308.35 294.842 1307.8 294.961 1307.18 295.065C1306.56 295.16 1305.96 295.245 1305.37 295.321C1304.79 295.387 1304.33 295.444 1303.97 295.491C1303.09 295.605 1302.28 295.789 1301.52 296.045C1300.77 296.291 1300.17 296.665 1299.7 297.167C1299.25 297.66 1299.02 298.332 1299.02 299.184C1299.02 300.349 1299.45 301.23 1300.32 301.826C1301.19 302.413 1302.29 302.707 1303.62 302.707ZM1322.58 276.116V305.207H1319.23V276.116H1322.58ZM1339.97 305.207V283.389H1343.21V286.798H1343.5C1343.95 285.633 1344.69 284.729 1345.7 284.085C1346.71 283.431 1347.93 283.105 1349.35 283.105C1350.79 283.105 1351.99 283.431 1352.94 284.085C1353.91 284.729 1354.66 285.633 1355.2 286.798H1355.43C1355.99 285.671 1356.83 284.776 1357.94 284.113C1359.06 283.441 1360.4 283.105 1361.96 283.105C1363.91 283.105 1365.51 283.716 1366.75 284.937C1367.99 286.149 1368.61 288.038 1368.61 290.605V305.207H1365.26V290.605C1365.26 288.995 1364.82 287.844 1363.94 287.153C1363.06 286.462 1362.02 286.116 1360.83 286.116C1359.29 286.116 1358.1 286.58 1357.26 287.508C1356.42 288.427 1356 289.592 1356 291.002V305.207H1352.59V290.264C1352.59 289.023 1352.19 288.024 1351.38 287.267C1350.58 286.5 1349.54 286.116 1348.27 286.116C1347.4 286.116 1346.58 286.348 1345.83 286.812C1345.08 287.276 1344.47 287.92 1344.01 288.744C1343.55 289.558 1343.33 290.501 1343.33 291.571V305.207H1339.97ZM1383.89 305.662C1381.79 305.662 1379.97 305.198 1378.45 304.27C1376.93 303.332 1375.76 302.025 1374.94 300.349C1374.12 298.663 1373.72 296.703 1373.72 294.468C1373.72 292.234 1374.12 290.264 1374.94 288.559C1375.76 286.845 1376.91 285.51 1378.38 284.554C1379.85 283.588 1381.58 283.105 1383.55 283.105C1384.68 283.105 1385.81 283.294 1386.91 283.673C1388.02 284.052 1389.03 284.667 1389.94 285.52C1390.85 286.362 1391.57 287.48 1392.11 288.872C1392.65 290.264 1392.92 291.978 1392.92 294.014V295.434H1376.1V292.537H1389.51C1389.51 291.306 1389.27 290.207 1388.77 289.241C1388.29 288.275 1387.6 287.513 1386.7 286.954C1385.81 286.395 1384.76 286.116 1383.55 286.116C1382.21 286.116 1381.06 286.448 1380.08 287.11C1379.12 287.764 1378.37 288.616 1377.85 289.667C1377.33 290.718 1377.07 291.845 1377.07 293.048V294.98C1377.07 296.627 1377.35 298.024 1377.92 299.17C1378.5 300.306 1379.3 301.173 1380.32 301.77C1381.35 302.357 1382.53 302.65 1383.89 302.65C1384.77 302.65 1385.56 302.527 1386.27 302.281C1386.99 302.025 1387.61 301.646 1388.13 301.145C1388.66 300.633 1389.06 299.999 1389.34 299.241L1392.58 300.15C1392.24 301.249 1391.67 302.215 1390.86 303.048C1390.06 303.872 1389.06 304.516 1387.88 304.98C1386.7 305.434 1385.37 305.662 1383.89 305.662ZM1398.02 305.207V283.389H1401.26V286.798H1401.54C1402 285.633 1402.73 284.729 1403.75 284.085C1404.76 283.431 1405.98 283.105 1407.4 283.105C1408.84 283.105 1410.03 283.431 1410.99 284.085C1411.96 284.729 1412.71 285.633 1413.25 286.798H1413.48C1414.03 285.671 1414.87 284.776 1415.99 284.113C1417.11 283.441 1418.45 283.105 1420.01 283.105C1421.96 283.105 1423.56 283.716 1424.8 284.937C1426.04 286.149 1426.66 288.038 1426.66 290.605V305.207H1423.31V290.605C1423.31 288.995 1422.87 287.844 1421.98 287.153C1421.1 286.462 1420.07 286.116 1418.87 286.116C1417.34 286.116 1416.15 286.58 1415.31 287.508C1414.47 288.427 1414.04 289.592 1414.04 291.002V305.207H1410.63V290.264C1410.63 289.023 1410.23 288.024 1409.43 287.267C1408.62 286.5 1407.59 286.116 1406.32 286.116C1405.45 286.116 1404.63 286.348 1403.87 286.812C1403.13 287.276 1402.52 287.92 1402.06 288.744C1401.6 289.558 1401.37 290.501 1401.37 291.571V305.207H1398.02ZM1441.65 305.662C1439.68 305.662 1437.95 305.193 1436.47 304.255C1434.99 303.318 1433.83 302.006 1433 300.321C1432.18 298.635 1431.76 296.665 1431.76 294.412C1431.76 292.139 1432.18 290.155 1433 288.46C1433.83 286.765 1434.99 285.449 1436.47 284.511C1437.95 283.574 1439.68 283.105 1441.65 283.105C1443.62 283.105 1445.34 283.574 1446.82 284.511C1448.31 285.449 1449.46 286.765 1450.29 288.46C1451.12 290.155 1451.54 292.139 1451.54 294.412C1451.54 296.665 1451.12 298.635 1450.29 300.321C1449.46 302.006 1448.31 303.318 1446.82 304.255C1445.34 305.193 1443.62 305.662 1441.65 305.662ZM1441.65 302.65C1443.15 302.65 1444.38 302.267 1445.34 301.5C1446.31 300.733 1447.02 299.724 1447.49 298.474C1447.95 297.224 1448.18 295.87 1448.18 294.412C1448.18 292.953 1447.95 291.594 1447.49 290.335C1447.02 289.075 1446.31 288.057 1445.34 287.281C1444.38 286.504 1443.15 286.116 1441.65 286.116C1440.15 286.116 1438.92 286.504 1437.96 287.281C1436.99 288.057 1436.28 289.075 1435.81 290.335C1435.35 291.594 1435.12 292.953 1435.12 294.412C1435.12 295.87 1435.35 297.224 1435.81 298.474C1436.28 299.724 1436.99 300.733 1437.96 301.5C1438.92 302.267 1440.15 302.65 1441.65 302.65ZM1456.65 305.207V283.389H1459.89V286.684H1460.12C1460.52 285.605 1461.24 284.729 1462.28 284.056C1463.32 283.384 1464.5 283.048 1465.8 283.048C1466.05 283.048 1466.36 283.053 1466.73 283.062C1467.09 283.072 1467.37 283.086 1467.56 283.105V286.514C1467.45 286.485 1467.19 286.443 1466.78 286.386C1466.38 286.32 1465.96 286.287 1465.52 286.287C1464.46 286.287 1463.51 286.509 1462.68 286.954C1461.85 287.39 1461.2 287.996 1460.72 288.772C1460.24 289.539 1460.01 290.415 1460.01 291.4V305.207H1456.65ZM1474.36 313.389C1473.79 313.389 1473.29 313.342 1472.84 313.247C1472.4 313.162 1472.09 313.076 1471.92 312.991L1472.77 310.037C1473.58 310.245 1474.3 310.321 1474.93 310.264C1475.55 310.207 1476.11 309.928 1476.59 309.426C1477.08 308.933 1477.53 308.133 1477.94 307.025L1478.56 305.321L1470.5 283.389H1474.13L1480.16 300.775H1480.38L1486.41 283.389H1490.04L1480.78 308.389C1480.36 309.516 1479.85 310.449 1479.23 311.187C1478.62 311.935 1477.9 312.489 1477.09 312.849C1476.28 313.209 1475.37 313.389 1474.36 313.389ZM1514.58 305.662C1512.53 305.662 1510.77 305.179 1509.3 304.213C1507.82 303.247 1506.68 301.916 1505.89 300.221C1505.09 298.526 1504.69 296.59 1504.69 294.412C1504.69 292.196 1505.1 290.24 1505.92 288.545C1506.74 286.841 1507.89 285.51 1509.35 284.554C1510.83 283.588 1512.55 283.105 1514.52 283.105C1516.06 283.105 1517.44 283.389 1518.67 283.957C1519.9 284.525 1520.91 285.321 1521.7 286.343C1522.48 287.366 1522.97 288.559 1523.16 289.923H1519.81C1519.55 288.929 1518.98 288.048 1518.1 287.281C1517.23 286.504 1516.06 286.116 1514.58 286.116C1513.27 286.116 1512.13 286.457 1511.14 287.139C1510.17 287.811 1509.41 288.763 1508.86 289.994C1508.32 291.216 1508.05 292.65 1508.05 294.298C1508.05 295.984 1508.31 297.451 1508.84 298.701C1509.38 299.951 1510.14 300.922 1511.11 301.613C1512.1 302.305 1513.25 302.65 1514.58 302.65C1515.45 302.65 1516.24 302.499 1516.95 302.196C1517.66 301.893 1518.26 301.457 1518.76 300.889C1519.25 300.321 1519.6 299.639 1519.81 298.843H1523.16C1522.97 300.131 1522.5 301.291 1521.75 302.324C1521.01 303.346 1520.03 304.161 1518.81 304.767C1517.6 305.363 1516.19 305.662 1514.58 305.662ZM1536.92 305.662C1534.95 305.662 1533.23 305.193 1531.74 304.255C1530.26 303.318 1529.11 302.006 1528.27 300.321C1527.45 298.635 1527.04 296.665 1527.04 294.412C1527.04 292.139 1527.45 290.155 1528.27 288.46C1529.11 286.765 1530.26 285.449 1531.74 284.511C1533.23 283.574 1534.95 283.105 1536.92 283.105C1538.89 283.105 1540.62 283.574 1542.09 284.511C1543.58 285.449 1544.74 286.765 1545.56 288.46C1546.39 290.155 1546.81 292.139 1546.81 294.412C1546.81 296.665 1546.39 298.635 1545.56 300.321C1544.74 302.006 1543.58 303.318 1542.09 304.255C1540.62 305.193 1538.89 305.662 1536.92 305.662ZM1536.92 302.65C1538.42 302.65 1539.65 302.267 1540.62 301.5C1541.58 300.733 1542.3 299.724 1542.76 298.474C1543.23 297.224 1543.46 295.87 1543.46 294.412C1543.46 292.953 1543.23 291.594 1542.76 290.335C1542.3 289.075 1541.58 288.057 1540.62 287.281C1539.65 286.504 1538.42 286.116 1536.92 286.116C1535.43 286.116 1534.2 286.504 1533.23 287.281C1532.26 288.057 1531.55 289.075 1531.09 290.335C1530.62 291.594 1530.39 292.953 1530.39 294.412C1530.39 295.87 1530.62 297.224 1531.09 298.474C1531.55 299.724 1532.26 300.733 1533.23 301.5C1534.2 302.267 1535.43 302.65 1536.92 302.65ZM1555.28 292.082V305.207H1551.93V283.389H1555.17V286.798H1555.45C1555.96 285.69 1556.74 284.8 1557.78 284.127C1558.82 283.446 1560.17 283.105 1561.81 283.105C1563.29 283.105 1564.58 283.408 1565.69 284.014C1566.8 284.61 1567.66 285.52 1568.28 286.741C1568.89 287.953 1569.2 289.487 1569.2 291.343V305.207H1565.85V291.571C1565.85 289.857 1565.4 288.521 1564.51 287.565C1563.62 286.599 1562.4 286.116 1560.85 286.116C1559.78 286.116 1558.82 286.348 1557.98 286.812C1557.15 287.276 1556.49 287.953 1556 288.843C1555.52 289.734 1555.28 290.813 1555.28 292.082ZM1590.78 288.275L1587.77 289.127C1587.58 288.626 1587.3 288.138 1586.93 287.664C1586.57 287.181 1586.08 286.784 1585.45 286.471C1584.83 286.159 1584.03 286.002 1583.05 286.002C1581.72 286.002 1580.61 286.31 1579.72 286.926C1578.83 287.532 1578.39 288.304 1578.39 289.241C1578.39 290.074 1578.7 290.733 1579.3 291.216C1579.91 291.699 1580.86 292.101 1582.14 292.423L1585.38 293.218C1587.33 293.692 1588.79 294.416 1589.74 295.392C1590.7 296.358 1591.18 297.603 1591.18 299.127C1591.18 300.377 1590.82 301.495 1590.1 302.48C1589.39 303.465 1588.39 304.241 1587.12 304.809C1585.84 305.377 1584.35 305.662 1582.66 305.662C1580.43 305.662 1578.59 305.179 1577.13 304.213C1575.67 303.247 1574.75 301.836 1574.36 299.98L1577.54 299.184C1577.84 300.359 1578.42 301.239 1579.26 301.826C1580.11 302.413 1581.23 302.707 1582.6 302.707C1584.16 302.707 1585.4 302.376 1586.32 301.713C1587.25 301.04 1587.71 300.235 1587.71 299.298C1587.71 298.54 1587.45 297.906 1586.92 297.395C1586.39 296.874 1585.57 296.485 1584.47 296.23L1580.84 295.377C1578.84 294.904 1577.37 294.17 1576.43 293.176C1575.51 292.172 1575.04 290.917 1575.04 289.412C1575.04 288.181 1575.39 287.092 1576.08 286.145C1576.78 285.198 1577.73 284.454 1578.93 283.914C1580.15 283.375 1581.52 283.105 1583.05 283.105C1585.21 283.105 1586.91 283.578 1588.14 284.525C1589.38 285.472 1590.26 286.722 1590.78 288.275ZM1609.97 296.287V283.389H1613.33V305.207H1609.97V301.514H1609.75C1609.24 302.622 1608.44 303.564 1607.36 304.341C1606.28 305.108 1604.92 305.491 1603.27 305.491C1601.91 305.491 1600.69 305.193 1599.63 304.596C1598.57 303.99 1597.74 303.081 1597.13 301.869C1596.53 300.647 1596.22 299.109 1596.22 297.252V283.389H1599.58V297.025C1599.58 298.616 1600.02 299.885 1600.91 300.832C1601.81 301.779 1602.96 302.252 1604.35 302.252C1605.18 302.252 1606.03 302.039 1606.89 301.613C1607.76 301.187 1608.49 300.534 1609.08 299.653C1609.68 298.772 1609.97 297.65 1609.97 296.287ZM1619.47 305.207V283.389H1622.71V286.798H1622.99C1623.44 285.633 1624.18 284.729 1625.19 284.085C1626.2 283.431 1627.42 283.105 1628.84 283.105C1630.28 283.105 1631.48 283.431 1632.44 284.085C1633.4 284.729 1634.15 285.633 1634.69 286.798H1634.92C1635.48 285.671 1636.32 284.776 1637.44 284.113C1638.55 283.441 1639.89 283.105 1641.46 283.105C1643.41 283.105 1645 283.716 1646.24 284.937C1647.48 286.149 1648.1 288.038 1648.1 290.605V305.207H1644.75V290.605C1644.75 288.995 1644.31 287.844 1643.43 287.153C1642.55 286.462 1641.51 286.116 1640.32 286.116C1638.78 286.116 1637.6 286.58 1636.75 287.508C1635.91 288.427 1635.49 289.592 1635.49 291.002V305.207H1632.08V290.264C1632.08 289.023 1631.68 288.024 1630.87 287.267C1630.07 286.5 1629.03 286.116 1627.76 286.116C1626.89 286.116 1626.08 286.348 1625.32 286.812C1624.57 287.276 1623.96 287.92 1623.5 288.744C1623.05 289.558 1622.82 290.501 1622.82 291.571V305.207H1619.47ZM1654.23 313.389V283.389H1657.47V286.855H1657.87C1658.11 286.476 1658.46 285.993 1658.89 285.406C1659.34 284.809 1659.97 284.279 1660.79 283.815C1661.63 283.342 1662.75 283.105 1664.18 283.105C1666.01 283.105 1667.63 283.564 1669.03 284.483C1670.43 285.401 1671.53 286.703 1672.31 288.389C1673.1 290.074 1673.49 292.063 1673.49 294.355C1673.49 296.665 1673.1 298.668 1672.31 300.363C1671.53 302.049 1670.44 303.356 1669.05 304.284C1667.66 305.202 1666.05 305.662 1664.23 305.662C1662.83 305.662 1661.71 305.43 1660.87 304.966C1660.02 304.492 1659.37 303.957 1658.92 303.36C1658.47 302.754 1658.11 302.252 1657.87 301.855H1657.58V313.389H1654.23ZM1657.53 294.298C1657.53 295.946 1657.77 297.399 1658.25 298.659C1658.74 299.909 1659.44 300.889 1660.37 301.599C1661.3 302.3 1662.43 302.65 1663.78 302.65C1665.18 302.65 1666.35 302.281 1667.29 301.542C1668.23 300.794 1668.94 299.79 1669.42 298.531C1669.9 297.262 1670.14 295.851 1670.14 294.298C1670.14 292.764 1669.9 291.381 1669.43 290.15C1668.97 288.91 1668.26 287.93 1667.31 287.21C1666.38 286.481 1665.2 286.116 1663.78 286.116C1662.41 286.116 1661.27 286.462 1660.34 287.153C1659.41 287.835 1658.71 288.791 1658.24 290.022C1657.76 291.244 1657.53 292.669 1657.53 294.298ZM1688.1 283.389V286.23H1676.79V283.389H1688.1ZM1680.08 278.162H1683.44V298.957C1683.44 299.904 1683.57 300.614 1683.85 301.088C1684.13 301.552 1684.49 301.864 1684.93 302.025C1685.37 302.177 1685.84 302.252 1686.33 302.252C1686.7 302.252 1687.01 302.234 1687.24 302.196C1687.48 302.148 1687.67 302.11 1687.81 302.082L1688.49 305.093C1688.27 305.179 1687.95 305.264 1687.54 305.349C1687.13 305.444 1686.62 305.491 1685.99 305.491C1685.05 305.491 1684.12 305.288 1683.21 304.88C1682.31 304.473 1681.56 303.853 1680.97 303.02C1680.38 302.186 1680.08 301.135 1680.08 299.866V278.162ZM1693.14 305.207V283.389H1696.49V305.207H1693.14ZM1694.84 279.752C1694.19 279.752 1693.63 279.53 1693.15 279.085C1692.69 278.64 1692.46 278.105 1692.46 277.48C1692.46 276.855 1692.69 276.32 1693.15 275.875C1693.63 275.43 1694.19 275.207 1694.84 275.207C1695.5 275.207 1696.06 275.43 1696.52 275.875C1696.99 276.32 1697.23 276.855 1697.23 277.48C1697.23 278.105 1696.99 278.64 1696.52 279.085C1696.06 279.53 1695.5 279.752 1694.84 279.752ZM1711.49 305.662C1709.52 305.662 1707.8 305.193 1706.31 304.255C1704.83 303.318 1703.68 302.006 1702.84 300.321C1702.02 298.635 1701.61 296.665 1701.61 294.412C1701.61 292.139 1702.02 290.155 1702.84 288.46C1703.68 286.765 1704.83 285.449 1706.31 284.511C1707.8 283.574 1709.52 283.105 1711.49 283.105C1713.46 283.105 1715.19 283.574 1716.66 284.511C1718.15 285.449 1719.31 286.765 1720.13 288.46C1720.96 290.155 1721.38 292.139 1721.38 294.412C1721.38 296.665 1720.96 298.635 1720.13 300.321C1719.31 302.006 1718.15 303.318 1716.66 304.255C1715.19 305.193 1713.46 305.662 1711.49 305.662ZM1711.49 302.65C1712.99 302.65 1714.22 302.267 1715.19 301.5C1716.15 300.733 1716.87 299.724 1717.33 298.474C1717.8 297.224 1718.03 295.87 1718.03 294.412C1718.03 292.953 1717.8 291.594 1717.33 290.335C1716.87 289.075 1716.15 288.057 1715.19 287.281C1714.22 286.504 1712.99 286.116 1711.49 286.116C1710 286.116 1708.77 286.504 1707.8 287.281C1706.84 288.057 1706.12 289.075 1705.66 290.335C1705.19 291.594 1704.96 292.953 1704.96 294.412C1704.96 295.87 1705.19 297.224 1705.66 298.474C1706.12 299.724 1706.84 300.733 1707.8 301.5C1708.77 302.267 1710 302.65 1711.49 302.65ZM1729.85 292.082V305.207H1726.5V283.389H1729.74V286.798H1730.02C1730.53 285.69 1731.31 284.8 1732.35 284.127C1733.39 283.446 1734.74 283.105 1736.38 283.105C1737.86 283.105 1739.15 283.408 1740.26 284.014C1741.37 284.61 1742.23 285.52 1742.85 286.741C1743.46 287.953 1743.77 289.487 1743.77 291.343V305.207H1740.42V291.571C1740.42 289.857 1739.97 288.521 1739.08 287.565C1738.19 286.599 1736.97 286.116 1735.42 286.116C1734.35 286.116 1733.39 286.348 1732.55 286.812C1731.72 287.276 1731.06 287.953 1730.57 288.843C1730.09 289.734 1729.85 290.813 1729.85 292.082Z" fill="black"/>
<g id="Group_69">
<g id="Group 68">
<g id="Group 66">
<path id="Line 18" d="M960.101 464.121L1056.98 549.619" stroke="#FF0000" stroke-width="11" stroke-linecap="round"/>
</g>
<g id="Group 67">
<path id="Line 18_2" d="M1057.49 464.533L960.602 550.031" stroke="#FF0000" stroke-width="11" stroke-linecap="round"/>
</g>
</g>
<path id="A same transition can be explored exponentially many times" d="M1111.82 499.207H1108.12L1118.81 470.116H1122.44L1133.12 499.207H1129.43L1120.74 474.718H1120.51L1111.82 499.207ZM1113.18 487.843H1128.07V490.968H1113.18V487.843ZM1163.91 482.275L1160.89 483.127C1160.7 482.626 1160.43 482.138 1160.06 481.664C1159.7 481.181 1159.2 480.784 1158.58 480.471C1157.95 480.159 1157.15 480.002 1156.18 480.002C1154.84 480.002 1153.73 480.31 1152.84 480.926C1151.96 481.532 1151.52 482.304 1151.52 483.241C1151.52 484.074 1151.82 484.733 1152.43 485.216C1153.03 485.699 1153.98 486.101 1155.27 486.423L1158.51 487.218C1160.46 487.692 1161.91 488.416 1162.87 489.392C1163.83 490.358 1164.3 491.603 1164.3 493.127C1164.3 494.377 1163.94 495.495 1163.22 496.48C1162.51 497.465 1161.52 498.241 1160.24 498.809C1158.96 499.377 1157.48 499.662 1155.78 499.662C1153.56 499.662 1151.71 499.179 1150.25 498.213C1148.8 497.247 1147.87 495.836 1147.49 493.98L1150.67 493.184C1150.97 494.359 1151.54 495.239 1152.39 495.826C1153.24 496.413 1154.35 496.707 1155.72 496.707C1157.29 496.707 1158.53 496.376 1159.45 495.713C1160.37 495.04 1160.84 494.235 1160.84 493.298C1160.84 492.54 1160.57 491.906 1160.04 491.395C1159.51 490.874 1158.7 490.485 1157.6 490.23L1153.96 489.377C1151.96 488.904 1150.5 488.17 1149.56 487.176C1148.63 486.172 1148.17 484.917 1148.17 483.412C1148.17 482.181 1148.51 481.092 1149.2 480.145C1149.9 479.198 1150.86 478.454 1152.06 477.914C1153.27 477.375 1154.64 477.105 1156.18 477.105C1158.34 477.105 1160.03 477.578 1161.26 478.525C1162.5 479.472 1163.38 480.722 1163.91 482.275ZM1175.77 499.718C1174.39 499.718 1173.13 499.458 1172.01 498.937C1170.88 498.407 1169.98 497.645 1169.32 496.65C1168.66 495.646 1168.33 494.434 1168.33 493.014C1168.33 491.764 1168.57 490.751 1169.07 489.974C1169.56 489.188 1170.22 488.573 1171.04 488.127C1171.86 487.682 1172.77 487.351 1173.77 487.133C1174.77 486.906 1175.78 486.726 1176.79 486.593C1178.12 486.423 1179.19 486.295 1180.02 486.21C1180.85 486.115 1181.46 485.959 1181.84 485.741C1182.22 485.523 1182.42 485.145 1182.42 484.605V484.491C1182.42 483.09 1182.03 482.001 1181.27 481.224C1180.51 480.448 1179.36 480.059 1177.82 480.059C1176.21 480.059 1174.96 480.41 1174.05 481.11C1173.14 481.811 1172.5 482.559 1172.13 483.355L1168.95 482.218C1169.52 480.893 1170.28 479.86 1171.22 479.122C1172.18 478.374 1173.22 477.853 1174.35 477.559C1175.49 477.256 1176.6 477.105 1177.7 477.105C1178.4 477.105 1179.21 477.19 1180.12 477.36C1181.04 477.521 1181.92 477.858 1182.77 478.369C1183.63 478.88 1184.35 479.652 1184.92 480.684C1185.49 481.717 1185.77 483.099 1185.77 484.832V499.207H1182.42V496.252H1182.25C1182.02 496.726 1181.64 497.233 1181.11 497.772C1180.58 498.312 1179.88 498.771 1178.99 499.15C1178.11 499.529 1177.04 499.718 1175.77 499.718ZM1176.28 496.707C1177.61 496.707 1178.72 496.447 1179.63 495.926C1180.55 495.405 1181.24 494.733 1181.71 493.909C1182.18 493.085 1182.42 492.218 1182.42 491.309V488.241C1182.28 488.412 1181.96 488.568 1181.48 488.71C1181.01 488.842 1180.46 488.961 1179.83 489.065C1179.22 489.16 1178.62 489.245 1178.03 489.321C1177.45 489.387 1176.98 489.444 1176.62 489.491C1175.75 489.605 1174.94 489.789 1174.18 490.045C1173.43 490.291 1172.82 490.665 1172.36 491.167C1171.91 491.66 1171.68 492.332 1171.68 493.184C1171.68 494.349 1172.11 495.23 1172.97 495.826C1173.84 496.413 1174.95 496.707 1176.28 496.707ZM1191.89 499.207V477.389H1195.13V480.798H1195.41C1195.87 479.633 1196.6 478.729 1197.61 478.085C1198.63 477.431 1199.84 477.105 1201.26 477.105C1202.7 477.105 1203.9 477.431 1204.86 478.085C1205.82 478.729 1206.58 479.633 1207.12 480.798H1207.34C1207.9 479.671 1208.74 478.776 1209.86 478.113C1210.97 477.441 1212.31 477.105 1213.88 477.105C1215.83 477.105 1217.42 477.716 1218.66 478.937C1219.9 480.149 1220.52 482.038 1220.52 484.605V499.207H1217.17V484.605C1217.17 482.995 1216.73 481.844 1215.85 481.153C1214.97 480.462 1213.93 480.116 1212.74 480.116C1211.21 480.116 1210.02 480.58 1209.18 481.508C1208.33 482.427 1207.91 483.592 1207.91 485.002V499.207H1204.5V484.264C1204.5 483.023 1204.1 482.024 1203.29 481.267C1202.49 480.5 1201.45 480.116 1200.18 480.116C1199.31 480.116 1198.5 480.348 1197.74 480.812C1196.99 481.276 1196.39 481.92 1195.92 482.744C1195.47 483.558 1195.24 484.501 1195.24 485.571V499.207H1191.89ZM1235.8 499.662C1233.7 499.662 1231.89 499.198 1230.36 498.27C1228.85 497.332 1227.68 496.025 1226.85 494.349C1226.04 492.663 1225.63 490.703 1225.63 488.468C1225.63 486.234 1226.04 484.264 1226.85 482.559C1227.68 480.845 1228.82 479.51 1230.29 478.554C1231.77 477.588 1233.49 477.105 1235.46 477.105C1236.6 477.105 1237.72 477.294 1238.83 477.673C1239.94 478.052 1240.94 478.667 1241.85 479.52C1242.76 480.362 1243.49 481.48 1244.03 482.872C1244.57 484.264 1244.84 485.978 1244.84 488.014V489.434H1228.02V486.537H1241.43C1241.43 485.306 1241.18 484.207 1240.69 483.241C1240.21 482.275 1239.51 481.513 1238.61 480.954C1237.72 480.395 1236.67 480.116 1235.46 480.116C1234.13 480.116 1232.97 480.448 1232 481.11C1231.03 481.764 1230.29 482.616 1229.76 483.667C1229.24 484.718 1228.98 485.845 1228.98 487.048V488.98C1228.98 490.627 1229.27 492.024 1229.84 493.17C1230.41 494.306 1231.21 495.173 1232.24 495.77C1233.26 496.357 1234.45 496.65 1235.8 496.65C1236.68 496.65 1237.48 496.527 1238.19 496.281C1238.91 496.025 1239.53 495.646 1240.05 495.145C1240.57 494.633 1240.97 493.999 1241.26 493.241L1244.5 494.15C1244.15 495.249 1243.58 496.215 1242.78 497.048C1241.97 497.872 1240.98 498.516 1239.79 498.98C1238.61 499.434 1237.28 499.662 1235.8 499.662ZM1270.67 477.389V480.23H1259.37V477.389H1270.67ZM1262.66 472.162H1266.01V492.957C1266.01 493.904 1266.15 494.614 1266.43 495.088C1266.71 495.552 1267.07 495.864 1267.51 496.025C1267.95 496.177 1268.42 496.252 1268.91 496.252C1269.28 496.252 1269.58 496.234 1269.82 496.196C1270.06 496.148 1270.25 496.11 1270.39 496.082L1271.07 499.093C1270.84 499.179 1270.53 499.264 1270.12 499.349C1269.71 499.444 1269.2 499.491 1268.57 499.491C1267.62 499.491 1266.7 499.288 1265.79 498.88C1264.89 498.473 1264.14 497.853 1263.54 497.02C1262.96 496.186 1262.66 495.135 1262.66 493.866V472.162ZM1275.72 499.207V477.389H1278.96V480.684H1279.18C1279.58 479.605 1280.3 478.729 1281.34 478.056C1282.38 477.384 1283.56 477.048 1284.86 477.048C1285.11 477.048 1285.42 477.053 1285.79 477.062C1286.16 477.072 1286.44 477.086 1286.63 477.105V480.514C1286.51 480.485 1286.25 480.443 1285.84 480.386C1285.45 480.32 1285.03 480.287 1284.58 480.287C1283.52 480.287 1282.57 480.509 1281.74 480.954C1280.92 481.39 1280.26 481.996 1279.78 482.772C1279.31 483.539 1279.07 484.415 1279.07 485.4V499.207H1275.72ZM1297.02 499.718C1295.64 499.718 1294.38 499.458 1293.26 498.937C1292.13 498.407 1291.23 497.645 1290.57 496.65C1289.91 495.646 1289.58 494.434 1289.58 493.014C1289.58 491.764 1289.82 490.751 1290.32 489.974C1290.81 489.188 1291.47 488.573 1292.29 488.127C1293.11 487.682 1294.02 487.351 1295.02 487.133C1296.02 486.906 1297.03 486.726 1298.04 486.593C1299.37 486.423 1300.44 486.295 1301.27 486.21C1302.1 486.115 1302.71 485.959 1303.09 485.741C1303.47 485.523 1303.67 485.145 1303.67 484.605V484.491C1303.67 483.09 1303.28 482.001 1302.52 481.224C1301.76 480.448 1300.61 480.059 1299.07 480.059C1297.46 480.059 1296.21 480.41 1295.3 481.11C1294.39 481.811 1293.75 482.559 1293.38 483.355L1290.2 482.218C1290.77 480.893 1291.53 479.86 1292.47 479.122C1293.43 478.374 1294.47 477.853 1295.6 477.559C1296.74 477.256 1297.85 477.105 1298.95 477.105C1299.65 477.105 1300.46 477.19 1301.37 477.36C1302.29 477.521 1303.17 477.858 1304.02 478.369C1304.88 478.88 1305.6 479.652 1306.17 480.684C1306.74 481.717 1307.02 483.099 1307.02 484.832V499.207H1303.67V496.252H1303.5C1303.27 496.726 1302.89 497.233 1302.36 497.772C1301.83 498.312 1301.13 498.771 1300.24 499.15C1299.36 499.529 1298.29 499.718 1297.02 499.718ZM1297.53 496.707C1298.86 496.707 1299.97 496.447 1300.88 495.926C1301.8 495.405 1302.49 494.733 1302.96 493.909C1303.43 493.085 1303.67 492.218 1303.67 491.309V488.241C1303.53 488.412 1303.21 488.568 1302.73 488.71C1302.26 488.842 1301.71 488.961 1301.08 489.065C1300.47 489.16 1299.87 489.245 1299.28 489.321C1298.7 489.387 1298.23 489.444 1297.87 489.491C1297 489.605 1296.19 489.789 1295.43 490.045C1294.68 490.291 1294.07 490.665 1293.61 491.167C1293.16 491.66 1292.93 492.332 1292.93 493.184C1292.93 494.349 1293.36 495.23 1294.22 495.826C1295.09 496.413 1296.2 496.707 1297.53 496.707ZM1316.49 486.082V499.207H1313.14V477.389H1316.38V480.798H1316.66C1317.17 479.69 1317.95 478.8 1318.99 478.127C1320.03 477.446 1321.38 477.105 1323.02 477.105C1324.5 477.105 1325.79 477.408 1326.9 478.014C1328.01 478.61 1328.87 479.52 1329.49 480.741C1330.1 481.953 1330.41 483.487 1330.41 485.343V499.207H1327.06V485.571C1327.06 483.857 1326.61 482.521 1325.72 481.565C1324.83 480.599 1323.61 480.116 1322.06 480.116C1320.99 480.116 1320.03 480.348 1319.19 480.812C1318.36 481.276 1317.7 481.953 1317.22 482.843C1316.73 483.734 1316.49 484.813 1316.49 486.082ZM1351.99 482.275L1348.98 483.127C1348.79 482.626 1348.51 482.138 1348.14 481.664C1347.78 481.181 1347.29 480.784 1346.66 480.471C1346.04 480.159 1345.24 480.002 1344.26 480.002C1342.93 480.002 1341.82 480.31 1340.93 480.926C1340.05 481.532 1339.61 482.304 1339.61 483.241C1339.61 484.074 1339.91 484.733 1340.51 485.216C1341.12 485.699 1342.07 486.101 1343.36 486.423L1346.59 487.218C1348.54 487.692 1350 488.416 1350.95 489.392C1351.91 490.358 1352.39 491.603 1352.39 493.127C1352.39 494.377 1352.03 495.495 1351.31 496.48C1350.6 497.465 1349.61 498.241 1348.33 498.809C1347.05 499.377 1345.56 499.662 1343.87 499.662C1341.64 499.662 1339.8 499.179 1338.34 498.213C1336.88 497.247 1335.96 495.836 1335.57 493.98L1338.75 493.184C1339.06 494.359 1339.63 495.239 1340.47 495.826C1341.32 496.413 1342.44 496.707 1343.81 496.707C1345.37 496.707 1346.61 496.376 1347.53 495.713C1348.46 495.04 1348.92 494.235 1348.92 493.298C1348.92 492.54 1348.66 491.906 1348.13 491.395C1347.6 490.874 1346.78 490.485 1345.68 490.23L1342.05 489.377C1340.05 488.904 1338.58 488.17 1337.64 487.176C1336.72 486.172 1336.25 484.917 1336.25 483.412C1336.25 482.181 1336.6 481.092 1337.29 480.145C1337.99 479.198 1338.94 478.454 1340.14 477.914C1341.36 477.375 1342.73 477.105 1344.26 477.105C1346.42 477.105 1348.12 477.578 1349.35 478.525C1350.59 479.472 1351.47 480.722 1351.99 482.275ZM1357.44 499.207V477.389H1360.79V499.207H1357.44ZM1359.14 473.752C1358.49 473.752 1357.92 473.53 1357.45 473.085C1356.99 472.64 1356.75 472.105 1356.75 471.48C1356.75 470.855 1356.99 470.32 1357.45 469.875C1357.92 469.43 1358.49 469.207 1359.14 469.207C1359.79 469.207 1360.35 469.43 1360.82 469.875C1361.29 470.32 1361.53 470.855 1361.53 471.48C1361.53 472.105 1361.29 472.64 1360.82 473.085C1360.35 473.53 1359.79 473.752 1359.14 473.752ZM1376.42 477.389V480.23H1365.11V477.389H1376.42ZM1368.4 472.162H1371.76V492.957C1371.76 493.904 1371.89 494.614 1372.17 495.088C1372.45 495.552 1372.81 495.864 1373.25 496.025C1373.69 496.177 1374.16 496.252 1374.65 496.252C1375.02 496.252 1375.33 496.234 1375.56 496.196C1375.8 496.148 1375.99 496.11 1376.13 496.082L1376.81 499.093C1376.59 499.179 1376.27 499.264 1375.86 499.349C1375.46 499.444 1374.94 499.491 1374.31 499.491C1373.37 499.491 1372.44 499.288 1371.53 498.88C1370.63 498.473 1369.88 497.853 1369.29 497.02C1368.7 496.186 1368.4 495.135 1368.4 493.866V472.162ZM1381.46 499.207V477.389H1384.81V499.207H1381.46ZM1383.16 473.752C1382.51 473.752 1381.95 473.53 1381.47 473.085C1381.01 472.64 1380.78 472.105 1380.78 471.48C1380.78 470.855 1381.01 470.32 1381.47 469.875C1381.95 469.43 1382.51 469.207 1383.16 469.207C1383.82 469.207 1384.38 469.43 1384.84 469.875C1385.31 470.32 1385.55 470.855 1385.55 471.48C1385.55 472.105 1385.31 472.64 1384.84 473.085C1384.38 473.53 1383.82 473.752 1383.16 473.752ZM1399.81 499.662C1397.84 499.662 1396.12 499.193 1394.63 498.255C1393.15 497.318 1392 496.006 1391.16 494.321C1390.34 492.635 1389.93 490.665 1389.93 488.412C1389.93 486.139 1390.34 484.155 1391.16 482.46C1392 480.765 1393.15 479.449 1394.63 478.511C1396.12 477.574 1397.84 477.105 1399.81 477.105C1401.78 477.105 1403.51 477.574 1404.99 478.511C1406.47 479.449 1407.63 480.765 1408.45 482.46C1409.28 484.155 1409.7 486.139 1409.7 488.412C1409.7 490.665 1409.28 492.635 1408.45 494.321C1407.63 496.006 1406.47 497.318 1404.99 498.255C1403.51 499.193 1401.78 499.662 1399.81 499.662ZM1399.81 496.65C1401.31 496.65 1402.54 496.267 1403.51 495.5C1404.47 494.733 1405.19 493.724 1405.65 492.474C1406.12 491.224 1406.35 489.87 1406.35 488.412C1406.35 486.953 1406.12 485.594 1405.65 484.335C1405.19 483.075 1404.47 482.057 1403.51 481.281C1402.54 480.504 1401.31 480.116 1399.81 480.116C1398.32 480.116 1397.09 480.504 1396.12 481.281C1395.16 482.057 1394.44 483.075 1393.98 484.335C1393.51 485.594 1393.28 486.953 1393.28 488.412C1393.28 489.87 1393.51 491.224 1393.98 492.474C1394.44 493.724 1395.16 494.733 1396.12 495.5C1397.09 496.267 1398.32 496.65 1399.81 496.65ZM1418.17 486.082V499.207H1414.82V477.389H1418.06V480.798H1418.34C1418.85 479.69 1419.63 478.8 1420.67 478.127C1421.71 477.446 1423.06 477.105 1424.7 477.105C1426.18 477.105 1427.47 477.408 1428.58 478.014C1429.69 478.61 1430.55 479.52 1431.17 480.741C1431.78 481.953 1432.09 483.487 1432.09 485.343V499.207H1428.74V485.571C1428.74 483.857 1428.29 482.521 1427.4 481.565C1426.51 480.599 1425.29 480.116 1423.74 480.116C1422.67 480.116 1421.71 480.348 1420.87 480.812C1420.04 481.276 1419.38 481.953 1418.89 482.843C1418.41 483.734 1418.17 484.813 1418.17 486.082ZM1458.33 499.662C1456.28 499.662 1454.52 499.179 1453.05 498.213C1451.57 497.247 1450.43 495.916 1449.64 494.221C1448.84 492.526 1448.44 490.59 1448.44 488.412C1448.44 486.196 1448.85 484.24 1449.67 482.545C1450.49 480.841 1451.64 479.51 1453.1 478.554C1454.58 477.588 1456.3 477.105 1458.27 477.105C1459.81 477.105 1461.19 477.389 1462.42 477.957C1463.65 478.525 1464.66 479.321 1465.45 480.343C1466.23 481.366 1466.72 482.559 1466.91 483.923H1463.56C1463.3 482.929 1462.73 482.048 1461.85 481.281C1460.98 480.504 1459.81 480.116 1458.33 480.116C1457.02 480.116 1455.88 480.457 1454.89 481.139C1453.92 481.811 1453.16 482.763 1452.61 483.994C1452.07 485.216 1451.8 486.65 1451.8 488.298C1451.8 489.984 1452.06 491.451 1452.59 492.701C1453.13 493.951 1453.89 494.922 1454.86 495.613C1455.85 496.305 1457 496.65 1458.33 496.65C1459.2 496.65 1459.99 496.499 1460.7 496.196C1461.41 495.893 1462.01 495.457 1462.51 494.889C1463 494.321 1463.35 493.639 1463.56 492.843H1466.91C1466.72 494.131 1466.25 495.291 1465.5 496.324C1464.76 497.346 1463.78 498.161 1462.56 498.767C1461.35 499.363 1459.94 499.662 1458.33 499.662ZM1478.23 499.718C1476.85 499.718 1475.59 499.458 1474.47 498.937C1473.34 498.407 1472.44 497.645 1471.78 496.65C1471.12 495.646 1470.79 494.434 1470.79 493.014C1470.79 491.764 1471.03 490.751 1471.53 489.974C1472.02 489.188 1472.68 488.573 1473.5 488.127C1474.32 487.682 1475.23 487.351 1476.23 487.133C1477.23 486.906 1478.24 486.726 1479.25 486.593C1480.58 486.423 1481.65 486.295 1482.48 486.21C1483.31 486.115 1483.92 485.959 1484.3 485.741C1484.68 485.523 1484.88 485.145 1484.88 484.605V484.491C1484.88 483.09 1484.5 482.001 1483.73 481.224C1482.97 480.448 1481.82 480.059 1480.28 480.059C1478.68 480.059 1477.42 480.41 1476.51 481.11C1475.6 481.811 1474.96 482.559 1474.59 483.355L1471.41 482.218C1471.98 480.893 1472.74 479.86 1473.69 479.122C1474.64 478.374 1475.68 477.853 1476.81 477.559C1477.95 477.256 1479.06 477.105 1480.16 477.105C1480.86 477.105 1481.67 477.19 1482.58 477.36C1483.5 477.521 1484.38 477.858 1485.23 478.369C1486.1 478.88 1486.81 479.652 1487.38 480.684C1487.95 481.717 1488.23 483.099 1488.23 484.832V499.207H1484.88V496.252H1484.71C1484.48 496.726 1484.1 497.233 1483.57 497.772C1483.04 498.312 1482.34 498.771 1481.46 499.15C1480.57 499.529 1479.5 499.718 1478.23 499.718ZM1478.74 496.707C1480.07 496.707 1481.19 496.447 1482.09 495.926C1483.01 495.405 1483.7 494.733 1484.17 493.909C1484.64 493.085 1484.88 492.218 1484.88 491.309V488.241C1484.74 488.412 1484.42 488.568 1483.94 488.71C1483.47 488.842 1482.92 488.961 1482.29 489.065C1481.68 489.16 1481.08 489.245 1480.49 489.321C1479.91 489.387 1479.44 489.444 1479.08 489.491C1478.21 489.605 1477.4 489.789 1476.64 490.045C1475.89 490.291 1475.29 490.665 1474.82 491.167C1474.37 491.66 1474.14 492.332 1474.14 493.184C1474.14 494.349 1474.57 495.23 1475.43 495.826C1476.3 496.413 1477.41 496.707 1478.74 496.707ZM1497.7 486.082V499.207H1494.35V477.389H1497.59V480.798H1497.87C1498.38 479.69 1499.16 478.8 1500.2 478.127C1501.24 477.446 1502.59 477.105 1504.24 477.105C1505.71 477.105 1507.01 477.408 1508.11 478.014C1509.22 478.61 1510.08 479.52 1510.7 480.741C1511.31 481.953 1511.62 483.487 1511.62 485.343V499.207H1508.27V485.571C1508.27 483.857 1507.82 482.521 1506.93 481.565C1506.04 480.599 1504.82 480.116 1503.27 480.116C1502.2 480.116 1501.24 480.348 1500.4 480.812C1499.57 481.276 1498.91 481.953 1498.43 482.843C1497.94 483.734 1497.7 484.813 1497.7 486.082ZM1529.45 499.207V470.116H1532.8V480.855H1533.09C1533.33 480.476 1533.68 479.993 1534.11 479.406C1534.56 478.809 1535.19 478.279 1536.01 477.815C1536.85 477.342 1537.98 477.105 1539.4 477.105C1541.23 477.105 1542.85 477.564 1544.25 478.483C1545.66 479.401 1546.75 480.703 1547.53 482.389C1548.32 484.074 1548.71 486.063 1548.71 488.355C1548.71 490.665 1548.32 492.668 1547.53 494.363C1546.75 496.049 1545.66 497.356 1544.27 498.284C1542.88 499.202 1541.27 499.662 1539.45 499.662C1538.05 499.662 1536.93 499.43 1536.09 498.966C1535.24 498.492 1534.59 497.957 1534.14 497.36C1533.69 496.754 1533.33 496.252 1533.09 495.855H1532.69V499.207H1529.45ZM1532.75 488.298C1532.75 489.946 1532.99 491.399 1533.47 492.659C1533.96 493.909 1534.66 494.889 1535.59 495.599C1536.52 496.3 1537.65 496.65 1539 496.65C1540.4 496.65 1541.57 496.281 1542.51 495.542C1543.45 494.794 1544.16 493.79 1544.64 492.531C1545.12 491.262 1545.36 489.851 1545.36 488.298C1545.36 486.764 1545.12 485.381 1544.65 484.15C1544.19 482.91 1543.48 481.93 1542.53 481.21C1541.6 480.481 1540.42 480.116 1539 480.116C1537.63 480.116 1536.49 480.462 1535.56 481.153C1534.63 481.835 1533.93 482.791 1533.46 484.022C1532.98 485.244 1532.75 486.669 1532.75 488.298ZM1562.99 499.662C1560.89 499.662 1559.07 499.198 1557.55 498.27C1556.03 497.332 1554.86 496.025 1554.04 494.349C1553.23 492.663 1552.82 490.703 1552.82 488.468C1552.82 486.234 1553.23 484.264 1554.04 482.559C1554.86 480.845 1556.01 479.51 1557.48 478.554C1558.96 477.588 1560.68 477.105 1562.65 477.105C1563.78 477.105 1564.91 477.294 1566.01 477.673C1567.12 478.052 1568.13 478.667 1569.04 479.52C1569.95 480.362 1570.67 481.48 1571.21 482.872C1571.75 484.264 1572.02 485.978 1572.02 488.014V489.434H1555.21V486.537H1568.61C1568.61 485.306 1568.37 484.207 1567.88 483.241C1567.39 482.275 1566.7 481.513 1565.8 480.954C1564.91 480.395 1563.86 480.116 1562.65 480.116C1561.31 480.116 1560.16 480.448 1559.18 481.11C1558.22 481.764 1557.47 482.616 1556.95 483.667C1556.43 484.718 1556.17 485.845 1556.17 487.048V488.98C1556.17 490.627 1556.46 492.024 1557.02 493.17C1557.6 494.306 1558.4 495.173 1559.42 495.77C1560.45 496.357 1561.64 496.65 1562.99 496.65C1563.87 496.65 1564.67 496.527 1565.38 496.281C1566.1 496.025 1566.72 495.646 1567.24 495.145C1567.76 494.633 1568.16 493.999 1568.44 493.241L1571.68 494.15C1571.34 495.249 1570.77 496.215 1569.96 497.048C1569.16 497.872 1568.16 498.516 1566.98 498.98C1565.8 499.434 1564.47 499.662 1562.99 499.662ZM1597.52 499.662C1595.42 499.662 1593.6 499.198 1592.08 498.27C1590.57 497.332 1589.4 496.025 1588.57 494.349C1587.76 492.663 1587.35 490.703 1587.35 488.468C1587.35 486.234 1587.76 484.264 1588.57 482.559C1589.4 480.845 1590.54 479.51 1592.01 478.554C1593.49 477.588 1595.21 477.105 1597.18 477.105C1598.32 477.105 1599.44 477.294 1600.55 477.673C1601.65 478.052 1602.66 478.667 1603.57 479.52C1604.48 480.362 1605.21 481.48 1605.75 482.872C1606.28 484.264 1606.55 485.978 1606.55 488.014V489.434H1589.74V486.537H1603.15C1603.15 485.306 1602.9 484.207 1602.41 483.241C1601.92 482.275 1601.23 481.513 1600.33 480.954C1599.44 480.395 1598.39 480.116 1597.18 480.116C1595.84 480.116 1594.69 480.448 1593.71 481.11C1592.75 481.764 1592 482.616 1591.48 483.667C1590.96 484.718 1590.7 485.845 1590.7 487.048V488.98C1590.7 490.627 1590.99 492.024 1591.55 493.17C1592.13 494.306 1592.93 495.173 1593.96 495.77C1594.98 496.357 1596.17 496.65 1597.52 496.65C1598.4 496.65 1599.2 496.527 1599.91 496.281C1600.63 496.025 1601.25 495.646 1601.77 495.145C1602.29 494.633 1602.69 493.999 1602.98 493.241L1606.21 494.15C1605.87 495.249 1605.3 496.215 1604.5 497.048C1603.69 497.872 1602.7 498.516 1601.51 498.98C1600.33 499.434 1599 499.662 1597.52 499.662ZM1613.57 477.389L1618.8 486.309L1624.02 477.389H1627.89L1620.84 488.298L1627.89 499.207H1624.02L1618.8 490.741L1613.57 499.207H1609.7L1616.64 488.298L1609.7 477.389H1613.57ZM1632.67 507.389V477.389H1635.91V480.855H1636.31C1636.55 480.476 1636.89 479.993 1637.33 479.406C1637.77 478.809 1638.41 478.279 1639.23 477.815C1640.07 477.342 1641.19 477.105 1642.61 477.105C1644.45 477.105 1646.07 477.564 1647.47 478.483C1648.87 479.401 1649.97 480.703 1650.75 482.389C1651.54 484.074 1651.93 486.063 1651.93 488.355C1651.93 490.665 1651.54 492.668 1650.75 494.363C1649.97 496.049 1648.88 497.356 1647.49 498.284C1646.09 499.202 1644.49 499.662 1642.67 499.662C1641.27 499.662 1640.15 499.43 1639.3 498.966C1638.46 498.492 1637.81 497.957 1637.36 497.36C1636.9 496.754 1636.55 496.252 1636.31 495.855H1636.02V507.389H1632.67ZM1635.97 488.298C1635.97 489.946 1636.21 491.399 1636.69 492.659C1637.17 493.909 1637.88 494.889 1638.81 495.599C1639.73 496.3 1640.87 496.65 1642.22 496.65C1643.62 496.65 1644.79 496.281 1645.72 495.542C1646.67 494.794 1647.38 493.79 1647.85 492.531C1648.34 491.262 1648.58 489.851 1648.58 488.298C1648.58 486.764 1648.34 485.381 1647.87 484.15C1647.4 482.91 1646.7 481.93 1645.75 481.21C1644.81 480.481 1643.64 480.116 1642.22 480.116C1640.85 480.116 1639.71 480.462 1638.78 481.153C1637.85 481.835 1637.15 482.791 1636.68 484.022C1636.2 485.244 1635.97 486.669 1635.97 488.298ZM1660.4 470.116V499.207H1657.04V470.116H1660.4ZM1675.4 499.662C1673.43 499.662 1671.7 499.193 1670.22 498.255C1668.74 497.318 1667.58 496.006 1666.75 494.321C1665.93 492.635 1665.51 490.665 1665.51 488.412C1665.51 486.139 1665.93 484.155 1666.75 482.46C1667.58 480.765 1668.74 479.449 1670.22 478.511C1671.7 477.574 1673.43 477.105 1675.4 477.105C1677.37 477.105 1679.09 477.574 1680.57 478.511C1682.06 479.449 1683.21 480.765 1684.04 482.46C1684.87 484.155 1685.29 486.139 1685.29 488.412C1685.29 490.665 1684.87 492.635 1684.04 494.321C1683.21 496.006 1682.06 497.318 1680.57 498.255C1679.09 499.193 1677.37 499.662 1675.4 499.662ZM1675.4 496.65C1676.9 496.65 1678.13 496.267 1679.09 495.5C1680.06 494.733 1680.77 493.724 1681.24 492.474C1681.7 491.224 1681.93 489.87 1681.93 488.412C1681.93 486.953 1681.7 485.594 1681.24 484.335C1680.77 483.075 1680.06 482.057 1679.09 481.281C1678.13 480.504 1676.9 480.116 1675.4 480.116C1673.9 480.116 1672.67 480.504 1671.71 481.281C1670.74 482.057 1670.03 483.075 1669.56 484.335C1669.1 485.594 1668.87 486.953 1668.87 488.412C1668.87 489.87 1669.1 491.224 1669.56 492.474C1670.03 493.724 1670.74 494.733 1671.71 495.5C1672.67 496.267 1673.9 496.65 1675.4 496.65ZM1690.4 499.207V477.389H1693.64V480.684H1693.87C1694.27 479.605 1694.99 478.729 1696.03 478.056C1697.07 477.384 1698.25 477.048 1699.55 477.048C1699.8 477.048 1700.11 477.053 1700.48 477.062C1700.84 477.072 1701.12 477.086 1701.31 477.105V480.514C1701.2 480.485 1700.94 480.443 1700.53 480.386C1700.13 480.32 1699.71 480.287 1699.27 480.287C1698.21 480.287 1697.26 480.509 1696.43 480.954C1695.6 481.39 1694.95 481.996 1694.47 482.772C1693.99 483.539 1693.76 484.415 1693.76 485.4V499.207H1690.4ZM1713.77 499.662C1711.67 499.662 1709.85 499.198 1708.33 498.27C1706.82 497.332 1705.65 496.025 1704.82 494.349C1704.01 492.663 1703.6 490.703 1703.6 488.468C1703.6 486.234 1704.01 484.264 1704.82 482.559C1705.65 480.845 1706.79 479.51 1708.26 478.554C1709.74 477.588 1711.46 477.105 1713.43 477.105C1714.57 477.105 1715.69 477.294 1716.8 477.673C1717.9 478.052 1718.91 478.667 1719.82 479.52C1720.73 480.362 1721.46 481.48 1722 482.872C1722.53 484.264 1722.8 485.978 1722.8 488.014V489.434H1705.99V486.537H1719.4C1719.4 485.306 1719.15 484.207 1718.66 483.241C1718.17 482.275 1717.48 481.513 1716.58 480.954C1715.69 480.395 1714.64 480.116 1713.43 480.116C1712.09 480.116 1710.94 480.448 1709.96 481.11C1709 481.764 1708.25 482.616 1707.73 483.667C1707.21 484.718 1706.95 485.845 1706.95 487.048V488.98C1706.95 490.627 1707.24 492.024 1707.8 493.17C1708.38 494.306 1709.18 495.173 1710.21 495.77C1711.23 496.357 1712.42 496.65 1713.77 496.65C1714.65 496.65 1715.45 496.527 1716.16 496.281C1716.88 496.025 1717.5 495.646 1718.02 495.145C1718.54 494.633 1718.94 493.999 1719.23 493.241L1722.46 494.15C1722.12 495.249 1721.55 496.215 1720.75 497.048C1719.94 497.872 1718.95 498.516 1717.76 498.98C1716.58 499.434 1715.25 499.662 1713.77 499.662ZM1736.14 499.662C1734.32 499.662 1732.72 499.202 1731.33 498.284C1729.94 497.356 1728.85 496.049 1728.06 494.363C1727.27 492.668 1726.88 490.665 1726.88 488.355C1726.88 486.063 1727.27 484.074 1728.06 482.389C1728.85 480.703 1729.94 479.401 1731.34 478.483C1732.74 477.564 1734.36 477.105 1736.2 477.105C1737.62 477.105 1738.74 477.342 1739.57 477.815C1740.4 478.279 1741.03 478.809 1741.47 479.406C1741.91 479.993 1742.26 480.476 1742.51 480.855H1742.79V470.116H1746.14V499.207H1742.9V495.855H1742.51C1742.26 496.252 1741.91 496.754 1741.46 497.36C1741 497.957 1740.35 498.492 1739.51 498.966C1738.67 499.43 1737.54 499.662 1736.14 499.662ZM1736.6 496.65C1737.94 496.65 1739.08 496.3 1740.01 495.599C1740.93 494.889 1741.64 493.909 1742.12 492.659C1742.61 491.399 1742.85 489.946 1742.85 488.298C1742.85 486.669 1742.61 485.244 1742.14 484.022C1741.66 482.791 1740.96 481.835 1740.03 481.153C1739.11 480.462 1737.96 480.116 1736.6 480.116C1735.18 480.116 1733.99 480.481 1733.05 481.21C1732.11 481.93 1731.4 482.91 1730.93 484.15C1730.47 485.381 1730.23 486.764 1730.23 488.298C1730.23 489.851 1730.47 491.262 1730.94 492.531C1731.43 493.79 1732.14 494.794 1733.07 495.542C1734.02 496.281 1735.2 496.65 1736.6 496.65ZM1119.32 547.662C1117.22 547.662 1115.4 547.198 1113.88 546.27C1112.36 545.332 1111.19 544.025 1110.37 542.349C1109.55 540.663 1109.15 538.703 1109.15 536.468C1109.15 534.234 1109.55 532.264 1110.37 530.559C1111.19 528.845 1112.34 527.51 1113.81 526.554C1115.28 525.588 1117.01 525.105 1118.98 525.105C1120.11 525.105 1121.24 525.294 1122.34 525.673C1123.45 526.052 1124.46 526.667 1125.37 527.52C1126.28 528.362 1127 529.48 1127.54 530.872C1128.08 532.264 1128.35 533.978 1128.35 536.014V537.434H1111.53V534.537H1124.94C1124.94 533.306 1124.7 532.207 1124.2 531.241C1123.72 530.275 1123.03 529.513 1122.13 528.954C1121.24 528.395 1120.19 528.116 1118.98 528.116C1117.64 528.116 1116.49 528.448 1115.51 529.11C1114.54 529.764 1113.8 530.616 1113.28 531.667C1112.76 532.718 1112.5 533.845 1112.5 535.048V536.98C1112.5 538.627 1112.78 540.024 1113.35 541.17C1113.93 542.306 1114.73 543.173 1115.75 543.77C1116.77 544.357 1117.96 544.65 1119.32 544.65C1120.2 544.65 1120.99 544.527 1121.7 544.281C1122.42 544.025 1123.04 543.646 1123.56 543.145C1124.09 542.633 1124.49 541.999 1124.77 541.241L1128.01 542.15C1127.67 543.249 1127.1 544.215 1126.29 545.048C1125.49 545.872 1124.49 546.516 1123.31 546.98C1122.13 547.434 1120.79 547.662 1119.32 547.662ZM1135.37 525.389L1140.59 534.309L1145.82 525.389H1149.68L1142.64 536.298L1149.68 547.207H1145.82L1140.59 538.741L1135.37 547.207H1131.5L1138.43 536.298L1131.5 525.389H1135.37ZM1154.47 555.389V525.389H1157.71V528.855H1158.1C1158.35 528.476 1158.69 527.993 1159.13 527.406C1159.57 526.809 1160.21 526.279 1161.03 525.815C1161.86 525.342 1162.99 525.105 1164.41 525.105C1166.25 525.105 1167.87 525.564 1169.27 526.483C1170.67 527.401 1171.76 528.703 1172.55 530.389C1173.33 532.074 1173.73 534.063 1173.73 536.355C1173.73 538.665 1173.33 540.668 1172.55 542.363C1171.76 544.049 1170.67 545.356 1169.28 546.284C1167.89 547.202 1166.28 547.662 1164.47 547.662C1163.07 547.662 1161.94 547.43 1161.1 546.966C1160.26 546.492 1159.61 545.957 1159.15 545.36C1158.7 544.754 1158.35 544.252 1158.1 543.855H1157.82V555.389H1154.47ZM1157.76 536.298C1157.76 537.946 1158 539.399 1158.49 540.659C1158.97 541.909 1159.67 542.889 1160.6 543.599C1161.53 544.3 1162.67 544.65 1164.01 544.65C1165.41 544.65 1166.58 544.281 1167.52 543.542C1168.47 542.794 1169.18 541.79 1169.65 540.531C1170.13 539.262 1170.38 537.851 1170.38 536.298C1170.38 534.764 1170.14 533.381 1169.67 532.15C1169.2 530.91 1168.5 529.93 1167.55 529.21C1166.61 528.481 1165.43 528.116 1164.01 528.116C1162.65 528.116 1161.5 528.462 1160.57 529.153C1159.65 529.835 1158.95 530.791 1158.47 532.022C1158 533.244 1157.76 534.669 1157.76 536.298ZM1187.71 547.662C1185.74 547.662 1184.01 547.193 1182.52 546.255C1181.04 545.318 1179.89 544.006 1179.05 542.321C1178.23 540.635 1177.82 538.665 1177.82 536.412C1177.82 534.139 1178.23 532.155 1179.05 530.46C1179.89 528.765 1181.04 527.449 1182.52 526.511C1184.01 525.574 1185.74 525.105 1187.71 525.105C1189.67 525.105 1191.4 525.574 1192.88 526.511C1194.36 527.449 1195.52 528.765 1196.34 530.46C1197.17 532.155 1197.59 534.139 1197.59 536.412C1197.59 538.665 1197.17 540.635 1196.34 542.321C1195.52 544.006 1194.36 545.318 1192.88 546.255C1191.4 547.193 1189.67 547.662 1187.71 547.662ZM1187.71 544.65C1189.2 544.65 1190.43 544.267 1191.4 543.5C1192.36 542.733 1193.08 541.724 1193.54 540.474C1194.01 539.224 1194.24 537.87 1194.24 536.412C1194.24 534.953 1194.01 533.594 1193.54 532.335C1193.08 531.075 1192.36 530.057 1191.4 529.281C1190.43 528.504 1189.2 528.116 1187.71 528.116C1186.21 528.116 1184.98 528.504 1184.01 529.281C1183.05 530.057 1182.33 531.075 1181.87 532.335C1181.4 533.594 1181.17 534.953 1181.17 536.412C1181.17 537.87 1181.4 539.224 1181.87 540.474C1182.33 541.724 1183.05 542.733 1184.01 543.5C1184.98 544.267 1186.21 544.65 1187.71 544.65ZM1206.06 534.082V547.207H1202.71V525.389H1205.95V528.798H1206.23C1206.74 527.69 1207.52 526.8 1208.56 526.127C1209.6 525.446 1210.95 525.105 1212.6 525.105C1214.07 525.105 1215.37 525.408 1216.47 526.014C1217.58 526.61 1218.44 527.52 1219.06 528.741C1219.67 529.953 1219.98 531.487 1219.98 533.343V547.207H1216.63V533.571C1216.63 531.857 1216.18 530.521 1215.29 529.565C1214.4 528.599 1213.18 528.116 1211.63 528.116C1210.56 528.116 1209.6 528.348 1208.76 528.812C1207.93 529.276 1207.27 529.953 1206.79 530.843C1206.3 531.734 1206.06 532.813 1206.06 534.082ZM1235.25 547.662C1233.15 547.662 1231.34 547.198 1229.81 546.27C1228.3 545.332 1227.13 544.025 1226.31 542.349C1225.49 540.663 1225.08 538.703 1225.08 536.468C1225.08 534.234 1225.49 532.264 1226.31 530.559C1227.13 528.845 1228.28 527.51 1229.74 526.554C1231.22 525.588 1232.94 525.105 1234.91 525.105C1236.05 525.105 1237.17 525.294 1238.28 525.673C1239.39 526.052 1240.4 526.667 1241.31 527.52C1242.22 528.362 1242.94 529.48 1243.48 530.872C1244.02 532.264 1244.29 533.978 1244.29 536.014V537.434H1227.47V534.537H1240.88C1240.88 533.306 1240.63 532.207 1240.14 531.241C1239.66 530.275 1238.97 529.513 1238.07 528.954C1237.18 528.395 1236.13 528.116 1234.91 528.116C1233.58 528.116 1232.42 528.448 1231.45 529.11C1230.48 529.764 1229.74 530.616 1229.22 531.667C1228.7 532.718 1228.44 533.845 1228.44 535.048V536.98C1228.44 538.627 1228.72 540.024 1229.29 541.17C1229.87 542.306 1230.67 543.173 1231.69 543.77C1232.71 544.357 1233.9 544.65 1235.25 544.65C1236.14 544.65 1236.93 544.527 1237.64 544.281C1238.36 544.025 1238.98 543.646 1239.5 543.145C1240.02 542.633 1240.43 541.999 1240.71 541.241L1243.95 542.15C1243.61 543.249 1243.03 544.215 1242.23 545.048C1241.42 545.872 1240.43 546.516 1239.25 546.98C1238.06 547.434 1236.73 547.662 1235.25 547.662ZM1252.74 534.082V547.207H1249.39V525.389H1252.63V528.798H1252.91C1253.42 527.69 1254.2 526.8 1255.24 526.127C1256.28 525.446 1257.63 525.105 1259.27 525.105C1260.75 525.105 1262.04 525.408 1263.15 526.014C1264.26 526.61 1265.12 527.52 1265.74 528.741C1266.35 529.953 1266.66 531.487 1266.66 533.343V547.207H1263.31V533.571C1263.31 531.857 1262.86 530.521 1261.97 529.565C1261.08 528.599 1259.86 528.116 1258.31 528.116C1257.24 528.116 1256.28 528.348 1255.44 528.812C1254.61 529.276 1253.95 529.953 1253.47 530.843C1252.98 531.734 1252.74 532.813 1252.74 534.082ZM1282.28 525.389V528.23H1270.97V525.389H1282.28ZM1274.26 520.162H1277.62V540.957C1277.62 541.904 1277.75 542.614 1278.03 543.088C1278.31 543.552 1278.67 543.864 1279.11 544.025C1279.55 544.177 1280.02 544.252 1280.51 544.252C1280.88 544.252 1281.19 544.234 1281.42 544.196C1281.66 544.148 1281.85 544.11 1281.99 544.082L1282.67 547.093C1282.45 547.179 1282.13 547.264 1281.72 547.349C1281.31 547.444 1280.8 547.491 1280.17 547.491C1279.23 547.491 1278.3 547.288 1277.39 546.88C1276.49 546.473 1275.74 545.853 1275.14 545.02C1274.56 544.186 1274.26 543.135 1274.26 541.866V520.162ZM1287.32 547.207V525.389H1290.67V547.207H1287.32ZM1289.02 521.752C1288.37 521.752 1287.81 521.53 1287.33 521.085C1286.87 520.64 1286.64 520.105 1286.64 519.48C1286.64 518.855 1286.87 518.32 1287.33 517.875C1287.81 517.43 1288.37 517.207 1289.02 517.207C1289.68 517.207 1290.23 517.43 1290.7 517.875C1291.17 518.32 1291.41 518.855 1291.41 519.48C1291.41 520.105 1291.17 520.64 1290.7 521.085C1290.23 521.53 1289.68 521.752 1289.02 521.752ZM1303.23 547.718C1301.85 547.718 1300.59 547.458 1299.47 546.937C1298.34 546.407 1297.44 545.645 1296.78 544.65C1296.12 543.646 1295.79 542.434 1295.79 541.014C1295.79 539.764 1296.03 538.751 1296.53 537.974C1297.02 537.188 1297.68 536.573 1298.5 536.127C1299.32 535.682 1300.23 535.351 1301.23 535.133C1302.23 534.906 1303.24 534.726 1304.25 534.593C1305.58 534.423 1306.65 534.295 1307.48 534.21C1308.31 534.115 1308.92 533.959 1309.3 533.741C1309.68 533.523 1309.88 533.145 1309.88 532.605V532.491C1309.88 531.09 1309.5 530.001 1308.73 529.224C1307.97 528.448 1306.82 528.059 1305.28 528.059C1303.68 528.059 1302.42 528.41 1301.51 529.11C1300.6 529.811 1299.96 530.559 1299.59 531.355L1296.41 530.218C1296.98 528.893 1297.74 527.86 1298.69 527.122C1299.64 526.374 1300.68 525.853 1301.81 525.559C1302.95 525.256 1304.06 525.105 1305.16 525.105C1305.86 525.105 1306.67 525.19 1307.58 525.36C1308.5 525.521 1309.38 525.858 1310.23 526.369C1311.1 526.88 1311.81 527.652 1312.38 528.684C1312.95 529.717 1313.23 531.099 1313.23 532.832V547.207H1309.88V544.252H1309.71C1309.48 544.726 1309.1 545.233 1308.57 545.772C1308.04 546.312 1307.34 546.771 1306.46 547.15C1305.57 547.529 1304.5 547.718 1303.23 547.718ZM1303.74 544.707C1305.07 544.707 1306.19 544.447 1307.09 543.926C1308.01 543.405 1308.7 542.733 1309.17 541.909C1309.64 541.085 1309.88 540.218 1309.88 539.309V536.241C1309.74 536.412 1309.42 536.568 1308.94 536.71C1308.47 536.842 1307.92 536.961 1307.29 537.065C1306.68 537.16 1306.08 537.245 1305.49 537.321C1304.91 537.387 1304.44 537.444 1304.08 537.491C1303.21 537.605 1302.4 537.789 1301.64 538.045C1300.89 538.291 1300.29 538.665 1299.82 539.167C1299.37 539.66 1299.14 540.332 1299.14 541.184C1299.14 542.349 1299.57 543.23 1300.43 543.826C1301.3 544.413 1302.41 544.707 1303.74 544.707ZM1322.7 518.116V547.207H1319.35V518.116H1322.7ZM1332.19 518.116V547.207H1328.84V518.116H1332.19ZM1340.49 555.389C1339.92 555.389 1339.42 555.342 1338.97 555.247C1338.53 555.162 1338.22 555.076 1338.05 554.991L1338.9 552.037C1339.72 552.245 1340.44 552.321 1341.06 552.264C1341.69 552.207 1342.24 551.928 1342.72 551.426C1343.22 550.933 1343.67 550.133 1344.07 549.025L1344.7 547.321L1336.63 525.389H1340.27L1346.29 542.775H1346.52L1352.54 525.389H1356.17L1346.91 550.389C1346.5 551.516 1345.98 552.449 1345.37 553.187C1344.75 553.935 1344.03 554.489 1343.22 554.849C1342.42 555.209 1341.51 555.389 1340.49 555.389ZM1371.85 547.207V525.389H1375.09V528.798H1375.37C1375.83 527.633 1376.56 526.729 1377.57 526.085C1378.59 525.431 1379.8 525.105 1381.22 525.105C1382.66 525.105 1383.86 525.431 1384.82 526.085C1385.78 526.729 1386.54 527.633 1387.08 528.798H1387.3C1387.86 527.671 1388.7 526.776 1389.82 526.113C1390.94 525.441 1392.28 525.105 1393.84 525.105C1395.79 525.105 1397.38 525.716 1398.62 526.937C1399.87 528.149 1400.49 530.038 1400.49 532.605V547.207H1397.13V532.605C1397.13 530.995 1396.69 529.844 1395.81 529.153C1394.93 528.462 1393.89 528.116 1392.7 528.116C1391.17 528.116 1389.98 528.58 1389.14 529.508C1388.29 530.427 1387.87 531.592 1387.87 533.002V547.207H1384.46V532.264C1384.46 531.023 1384.06 530.024 1383.26 529.267C1382.45 528.5 1381.41 528.116 1380.14 528.116C1379.27 528.116 1378.46 528.348 1377.7 528.812C1376.95 529.276 1376.35 529.92 1375.88 530.744C1375.43 531.558 1375.2 532.501 1375.2 533.571V547.207H1371.85ZM1413.04 547.718C1411.65 547.718 1410.4 547.458 1409.27 546.937C1408.14 546.407 1407.25 545.645 1406.59 544.65C1405.92 543.646 1405.59 542.434 1405.59 541.014C1405.59 539.764 1405.84 538.751 1406.33 537.974C1406.82 537.188 1407.48 536.573 1408.31 536.127C1409.13 535.682 1410.04 535.351 1411.03 535.133C1412.04 534.906 1413.04 534.726 1414.06 534.593C1415.38 534.423 1416.46 534.295 1417.28 534.21C1418.12 534.115 1418.72 533.959 1419.1 533.741C1419.49 533.523 1419.68 533.145 1419.68 532.605V532.491C1419.68 531.09 1419.3 530.001 1418.53 529.224C1417.78 528.448 1416.62 528.059 1415.08 528.059C1413.48 528.059 1412.23 528.41 1411.32 529.11C1410.41 529.811 1409.77 530.559 1409.4 531.355L1406.22 530.218C1406.79 528.893 1407.54 527.86 1408.49 527.122C1409.45 526.374 1410.49 525.853 1411.62 525.559C1412.75 525.256 1413.87 525.105 1414.97 525.105C1415.67 525.105 1416.47 525.19 1417.38 525.36C1418.3 525.521 1419.19 525.858 1420.04 526.369C1420.9 526.88 1421.62 527.652 1422.18 528.684C1422.75 529.717 1423.04 531.099 1423.04 532.832V547.207H1419.68V544.252H1419.51C1419.29 544.726 1418.91 545.233 1418.38 545.772C1417.85 546.312 1417.14 546.771 1416.26 547.15C1415.38 547.529 1414.3 547.718 1413.04 547.718ZM1413.55 544.707C1414.87 544.707 1415.99 544.447 1416.9 543.926C1417.82 543.405 1418.51 542.733 1418.97 541.909C1419.45 541.085 1419.68 540.218 1419.68 539.309V536.241C1419.54 536.412 1419.23 536.568 1418.75 536.71C1418.27 536.842 1417.72 536.961 1417.1 537.065C1416.48 537.16 1415.88 537.245 1415.29 537.321C1414.72 537.387 1414.25 537.444 1413.89 537.491C1413.02 537.605 1412.2 537.789 1411.44 538.045C1410.7 538.291 1410.09 538.665 1409.63 539.167C1409.17 539.66 1408.94 540.332 1408.94 541.184C1408.94 542.349 1409.38 543.23 1410.24 543.826C1411.11 544.413 1412.21 544.707 1413.55 544.707ZM1432.51 534.082V547.207H1429.15V525.389H1432.39V528.798H1432.68C1433.19 527.69 1433.96 526.8 1435.01 526.127C1436.05 525.446 1437.39 525.105 1439.04 525.105C1440.52 525.105 1441.81 525.408 1442.92 526.014C1444.03 526.61 1444.89 527.52 1445.5 528.741C1446.12 529.953 1446.43 531.487 1446.43 533.343V547.207H1443.07V533.571C1443.07 531.857 1442.63 530.521 1441.74 529.565C1440.85 528.599 1439.63 528.116 1438.07 528.116C1437 528.116 1436.05 528.348 1435.21 528.812C1434.37 529.276 1433.71 529.953 1433.23 530.843C1432.75 531.734 1432.51 532.813 1432.51 534.082ZM1453.93 555.389C1453.36 555.389 1452.86 555.342 1452.41 555.247C1451.97 555.162 1451.66 555.076 1451.49 554.991L1452.34 552.037C1453.15 552.245 1453.87 552.321 1454.5 552.264C1455.12 552.207 1455.68 551.928 1456.16 551.426C1456.65 550.933 1457.1 550.133 1457.51 549.025L1458.13 547.321L1450.07 525.389H1453.7L1459.73 542.775H1459.95L1465.98 525.389H1469.61L1460.35 550.389C1459.93 551.516 1459.42 552.449 1458.8 553.187C1458.19 553.935 1457.47 554.489 1456.66 554.849C1455.85 555.209 1454.94 555.389 1453.93 555.389ZM1494.78 525.389V528.23H1483.47V525.389H1494.78ZM1486.76 520.162H1490.12V540.957C1490.12 541.904 1490.25 542.614 1490.53 543.088C1490.81 543.552 1491.17 543.864 1491.61 544.025C1492.05 544.177 1492.52 544.252 1493.01 544.252C1493.38 544.252 1493.69 544.234 1493.92 544.196C1494.16 544.148 1494.35 544.11 1494.49 544.082L1495.17 547.093C1494.95 547.179 1494.63 547.264 1494.22 547.349C1493.81 547.444 1493.3 547.491 1492.67 547.491C1491.73 547.491 1490.8 547.288 1489.89 546.88C1488.99 546.473 1488.24 545.853 1487.64 545.02C1487.06 544.186 1486.76 543.135 1486.76 541.866V520.162ZM1499.82 547.207V525.389H1503.17V547.207H1499.82ZM1501.52 521.752C1500.87 521.752 1500.31 521.53 1499.83 521.085C1499.37 520.64 1499.14 520.105 1499.14 519.48C1499.14 518.855 1499.37 518.32 1499.83 517.875C1500.31 517.43 1500.87 517.207 1501.52 517.207C1502.18 517.207 1502.73 517.43 1503.2 517.875C1503.67 518.32 1503.91 518.855 1503.91 519.48C1503.91 520.105 1503.67 520.64 1503.2 521.085C1502.73 521.53 1502.18 521.752 1501.52 521.752ZM1509.31 547.207V525.389H1512.55V528.798H1512.83C1513.29 527.633 1514.02 526.729 1515.03 526.085C1516.05 525.431 1517.26 525.105 1518.69 525.105C1520.12 525.105 1521.32 525.431 1522.28 526.085C1523.25 526.729 1524 527.633 1524.54 528.798H1524.76C1525.32 527.671 1526.16 526.776 1527.28 526.113C1528.4 525.441 1529.74 525.105 1531.3 525.105C1533.25 525.105 1534.85 525.716 1536.09 526.937C1537.33 528.149 1537.95 530.038 1537.95 532.605V547.207H1534.59V532.605C1534.59 530.995 1534.15 529.844 1533.27 529.153C1532.39 528.462 1531.36 528.116 1530.16 528.116C1528.63 528.116 1527.44 528.58 1526.6 529.508C1525.75 530.427 1525.33 531.592 1525.33 533.002V547.207H1521.92V532.264C1521.92 531.023 1521.52 530.024 1520.72 529.267C1519.91 528.5 1518.87 528.116 1517.61 528.116C1516.73 528.116 1515.92 528.348 1515.16 528.812C1514.41 529.276 1513.81 529.92 1513.34 530.744C1512.89 531.558 1512.66 532.501 1512.66 533.571V547.207H1509.31ZM1553.22 547.662C1551.12 547.662 1549.31 547.198 1547.78 546.27C1546.27 545.332 1545.1 544.025 1544.27 542.349C1543.46 540.663 1543.05 538.703 1543.05 536.468C1543.05 534.234 1543.46 532.264 1544.27 530.559C1545.1 528.845 1546.24 527.51 1547.71 526.554C1549.19 525.588 1550.91 525.105 1552.88 525.105C1554.02 525.105 1555.14 525.294 1556.25 525.673C1557.36 526.052 1558.37 526.667 1559.27 527.52C1560.18 528.362 1560.91 529.48 1561.45 530.872C1561.99 532.264 1562.26 533.978 1562.26 536.014V537.434H1545.44V534.537H1558.85C1558.85 533.306 1558.6 532.207 1558.11 531.241C1557.63 530.275 1556.94 529.513 1556.04 528.954C1555.15 528.395 1554.09 528.116 1552.88 528.116C1551.55 528.116 1550.39 528.448 1549.42 529.11C1548.45 529.764 1547.71 530.616 1547.19 531.667C1546.67 532.718 1546.41 533.845 1546.41 535.048V536.98C1546.41 538.627 1546.69 540.024 1547.26 541.17C1547.84 542.306 1548.64 543.173 1549.66 543.77C1550.68 544.357 1551.87 544.65 1553.22 544.65C1554.1 544.65 1554.9 544.527 1555.61 544.281C1556.33 544.025 1556.95 543.646 1557.47 543.145C1557.99 542.633 1558.39 541.999 1558.68 541.241L1561.92 542.15C1561.58 543.249 1561 544.215 1560.2 545.048C1559.39 545.872 1558.4 546.516 1557.22 546.98C1556.03 547.434 1554.7 547.662 1553.22 547.662ZM1582.81 530.275L1579.8 531.127C1579.61 530.626 1579.33 530.138 1578.96 529.664C1578.6 529.181 1578.11 528.784 1577.49 528.471C1576.86 528.159 1576.06 528.002 1575.08 528.002C1573.75 528.002 1572.64 528.31 1571.75 528.926C1570.87 529.532 1570.43 530.304 1570.43 531.241C1570.43 532.074 1570.73 532.733 1571.33 533.216C1571.94 533.699 1572.89 534.101 1574.18 534.423L1577.41 535.218C1579.36 535.692 1580.82 536.416 1581.77 537.392C1582.73 538.358 1583.21 539.603 1583.21 541.127C1583.21 542.377 1582.85 543.495 1582.13 544.48C1581.42 545.465 1580.43 546.241 1579.15 546.809C1577.87 547.377 1576.38 547.662 1574.69 547.662C1572.46 547.662 1570.62 547.179 1569.16 546.213C1567.7 545.247 1566.78 543.836 1566.39 541.98L1569.57 541.184C1569.88 542.359 1570.45 543.239 1571.29 543.826C1572.14 544.413 1573.26 544.707 1574.63 544.707C1576.19 544.707 1577.43 544.376 1578.35 543.713C1579.28 543.04 1579.74 542.235 1579.74 541.298C1579.74 540.54 1579.48 539.906 1578.95 539.395C1578.42 538.874 1577.6 538.485 1576.5 538.23L1572.87 537.377C1570.87 536.904 1569.4 536.17 1568.47 535.176C1567.54 534.172 1567.07 532.917 1567.07 531.412C1567.07 530.181 1567.42 529.092 1568.11 528.145C1568.81 527.198 1569.76 526.454 1570.97 525.914C1572.18 525.375 1573.55 525.105 1575.08 525.105C1577.24 525.105 1578.94 525.578 1580.17 526.525C1581.41 527.472 1582.29 528.722 1582.81 530.275Z" fill="black"/>
</g>
</g>
</svg>
