<svg width="1920" height="1080" viewBox="0 0 1920 1080" fill="none" xmlns="http://www.w3.org/2000/svg">
<g id="client/server">
<rect width="1920" height="1080" fill="white"/>
<path id="Client/server systems" d="M617.303 86.1982H607.349C607.167 84.9104 606.796 83.7664 606.235 82.7664C605.674 81.7513 604.955 80.8876 604.076 80.1755C603.197 79.4634 602.182 78.9179 601.03 78.5392C599.894 78.1604 598.659 77.971 597.326 77.971C594.917 77.971 592.818 78.5695 591.03 79.7664C589.242 80.9482 587.856 82.6755 586.871 84.9482C585.886 87.2058 585.394 89.9482 585.394 93.1755C585.394 96.4937 585.886 99.2816 586.871 101.539C587.871 103.797 589.265 105.501 591.053 106.653C592.841 107.804 594.909 108.38 597.258 108.38C598.576 108.38 599.796 108.206 600.917 107.857C602.053 107.509 603.061 107.001 603.939 106.335C604.818 105.653 605.546 104.827 606.121 103.857C606.712 102.888 607.121 101.782 607.349 100.539L617.303 100.585C617.046 102.721 616.402 104.782 615.371 106.766C614.356 108.736 612.985 110.501 611.258 112.062C609.546 113.607 607.5 114.835 605.121 115.744C602.758 116.638 600.083 117.085 597.099 117.085C592.947 117.085 589.235 116.145 585.962 114.266C582.705 112.388 580.129 109.668 578.235 106.107C576.356 102.547 575.417 98.2361 575.417 93.1755C575.417 88.0998 576.371 83.7816 578.28 80.221C580.189 76.6604 582.78 73.9482 586.053 72.0846C589.326 70.2058 593.008 69.2664 597.099 69.2664C599.796 69.2664 602.296 69.6452 604.599 70.4028C606.917 71.1604 608.97 72.2664 610.758 73.721C612.546 75.1604 614 76.9255 615.121 79.0164C616.258 81.1073 616.985 83.5013 617.303 86.1982ZM633.86 69.9028V116.448H624.178V69.9028H633.86ZM641.616 116.448V81.5392H651.297V116.448H641.616ZM646.479 77.0392C645.04 77.0392 643.805 76.5619 642.775 75.6073C641.76 74.6376 641.252 73.4785 641.252 72.1301C641.252 70.7967 641.76 69.6528 642.775 68.6982C643.805 67.7285 645.04 67.2437 646.479 67.2437C647.919 67.2437 649.146 67.7285 650.161 68.6982C651.191 69.6528 651.706 70.7967 651.706 72.1301C651.706 73.4785 651.191 74.6376 650.161 75.6073C649.146 76.5619 647.919 77.0392 646.479 77.0392ZM674.962 117.13C671.371 117.13 668.28 116.403 665.689 114.948C663.114 113.479 661.129 111.403 659.735 108.721C658.341 106.024 657.644 102.835 657.644 99.1528C657.644 95.5619 658.341 92.4104 659.735 89.6982C661.129 86.9861 663.091 84.8725 665.621 83.3573C668.167 81.8422 671.152 81.0846 674.576 81.0846C676.879 81.0846 679.023 81.4558 681.008 82.1982C683.008 82.9255 684.75 84.024 686.235 85.4937C687.735 86.9634 688.902 88.8119 689.735 91.0392C690.568 93.2513 690.985 95.8422 690.985 98.8119V101.471H661.508V95.471H681.871C681.871 94.077 681.568 92.8422 680.962 91.7664C680.356 90.6907 679.515 89.8498 678.439 89.2437C677.379 88.6225 676.144 88.3119 674.735 88.3119C673.265 88.3119 671.962 88.6528 670.826 89.3346C669.705 90.0013 668.826 90.9028 668.189 92.0392C667.553 93.1604 667.227 94.4104 667.212 95.7892V101.494C667.212 103.221 667.53 104.713 668.167 105.971C668.818 107.229 669.735 108.198 670.917 108.88C672.099 109.562 673.5 109.903 675.121 109.903C676.197 109.903 677.182 109.751 678.076 109.448C678.97 109.145 679.735 108.691 680.371 108.085C681.008 107.479 681.492 106.736 681.826 105.857L690.78 106.448C690.326 108.6 689.394 110.479 687.985 112.085C686.591 113.676 684.788 114.918 682.576 115.812C680.379 116.691 677.841 117.13 674.962 117.13ZM706.985 96.2664V116.448H697.303V81.5392H706.53V87.6982H706.939C707.712 85.6679 709.008 84.0619 710.826 82.8801C712.644 81.6831 714.849 81.0846 717.439 81.0846C719.864 81.0846 721.977 81.6149 723.78 82.6755C725.583 83.7361 726.985 85.2513 727.985 87.221C728.985 89.1755 729.485 91.5088 729.485 94.221V116.448H719.803V95.9482C719.818 93.8119 719.273 92.1452 718.167 90.9482C717.061 89.7361 715.538 89.1301 713.599 89.1301C712.296 89.1301 711.144 89.4104 710.144 89.971C709.159 90.5316 708.386 91.3498 707.826 92.4255C707.28 93.4861 707 94.7664 706.985 96.2664ZM755.684 81.5392V88.8119H734.661V81.5392H755.684ZM739.434 73.1755H749.116V105.721C749.116 106.615 749.252 107.312 749.525 107.812C749.797 108.297 750.176 108.638 750.661 108.835C751.161 109.032 751.737 109.13 752.388 109.13C752.843 109.13 753.297 109.092 753.752 109.016C754.206 108.926 754.555 108.857 754.797 108.812L756.32 116.016C755.835 116.168 755.153 116.342 754.275 116.539C753.396 116.751 752.328 116.88 751.07 116.926C748.737 117.016 746.691 116.706 744.934 115.994C743.191 115.282 741.835 114.176 740.866 112.676C739.896 111.176 739.419 109.282 739.434 106.994V73.1755ZM782.263 67.721L767.263 123.448H758.922L773.922 67.721H782.263ZM815.974 91.4937L807.11 92.0392C806.958 91.2816 806.633 90.5998 806.133 89.9937C805.633 89.3725 804.974 88.8801 804.155 88.5164C803.352 88.1376 802.39 87.9482 801.269 87.9482C799.769 87.9482 798.504 88.2664 797.474 88.9028C796.443 89.524 795.928 90.3573 795.928 91.4028C795.928 92.2361 796.261 92.9407 796.928 93.5164C797.595 94.0922 798.739 94.5543 800.36 94.9028L806.678 96.1755C810.072 96.8725 812.602 97.9937 814.269 99.5392C815.936 101.085 816.769 103.115 816.769 105.63C816.769 107.918 816.095 109.926 814.746 111.653C813.413 113.38 811.58 114.729 809.246 115.698C806.928 116.653 804.254 117.13 801.224 117.13C796.602 117.13 792.921 116.168 790.178 114.244C787.451 112.304 785.852 109.668 785.383 106.335L794.905 105.835C795.193 107.244 795.89 108.319 796.996 109.062C798.102 109.789 799.519 110.153 801.246 110.153C802.943 110.153 804.307 109.827 805.337 109.176C806.383 108.509 806.913 107.653 806.928 106.607C806.913 105.729 806.542 105.009 805.814 104.448C805.087 103.872 803.966 103.433 802.451 103.13L796.405 101.926C792.996 101.244 790.458 100.062 788.792 98.3801C787.14 96.6982 786.314 94.5543 786.314 91.9482C786.314 89.7058 786.921 87.774 788.133 86.1528C789.36 84.5316 791.08 83.2816 793.292 82.4028C795.519 81.524 798.125 81.0846 801.11 81.0846C805.519 81.0846 808.989 82.0164 811.519 83.8801C814.064 85.7437 815.549 88.2816 815.974 91.4937ZM838.775 117.13C835.184 117.13 832.093 116.403 829.502 114.948C826.926 113.479 824.941 111.403 823.547 108.721C822.153 106.024 821.456 102.835 821.456 99.1528C821.456 95.5619 822.153 92.4104 823.547 89.6982C824.941 86.9861 826.903 84.8725 829.434 83.3573C831.979 81.8422 834.964 81.0846 838.388 81.0846C840.691 81.0846 842.835 81.4558 844.82 82.1982C846.82 82.9255 848.563 84.024 850.047 85.4937C851.547 86.9634 852.714 88.8119 853.547 91.0392C854.381 93.2513 854.797 95.8422 854.797 98.8119V101.471H825.32V95.471H845.684C845.684 94.077 845.381 92.8422 844.775 91.7664C844.169 90.6907 843.328 89.8498 842.252 89.2437C841.191 88.6225 839.956 88.3119 838.547 88.3119C837.078 88.3119 835.775 88.6528 834.638 89.3346C833.517 90.0013 832.638 90.9028 832.002 92.0392C831.366 93.1604 831.04 94.4104 831.025 95.7892V101.494C831.025 103.221 831.343 104.713 831.979 105.971C832.631 107.229 833.547 108.198 834.729 108.88C835.911 109.562 837.313 109.903 838.934 109.903C840.01 109.903 840.994 109.751 841.888 109.448C842.782 109.145 843.547 108.691 844.184 108.085C844.82 107.479 845.305 106.736 845.638 105.857L854.593 106.448C854.138 108.6 853.206 110.479 851.797 112.085C850.403 113.676 848.6 114.918 846.388 115.812C844.191 116.691 841.653 117.13 838.775 117.13ZM861.116 116.448V81.5392H870.502V87.6301H870.866C871.502 85.4634 872.57 83.827 874.07 82.721C875.57 81.5998 877.297 81.0392 879.252 81.0392C879.737 81.0392 880.26 81.0695 880.82 81.1301C881.381 81.1907 881.873 81.274 882.297 81.3801V89.971C881.843 89.8346 881.214 89.7134 880.411 89.6073C879.608 89.5013 878.873 89.4482 878.206 89.4482C876.782 89.4482 875.51 89.7588 874.388 90.3801C873.282 90.9861 872.403 91.8346 871.752 92.9255C871.116 94.0164 870.797 95.274 870.797 96.6982V116.448H861.116ZM920.911 81.5392L908.706 116.448H897.797L885.593 81.5392H895.82L903.07 106.516H903.434L910.661 81.5392H920.911ZM940.65 117.13C937.059 117.13 933.968 116.403 931.377 114.948C928.801 113.479 926.816 111.403 925.422 108.721C924.028 106.024 923.331 102.835 923.331 99.1528C923.331 95.5619 924.028 92.4104 925.422 89.6982C926.816 86.9861 928.778 84.8725 931.309 83.3573C933.854 81.8422 936.839 81.0846 940.263 81.0846C942.566 81.0846 944.71 81.4558 946.695 82.1982C948.695 82.9255 950.438 84.024 951.922 85.4937C953.422 86.9634 954.589 88.8119 955.422 91.0392C956.256 93.2513 956.672 95.8422 956.672 98.8119V101.471H927.195V95.471H947.559C947.559 94.077 947.256 92.8422 946.65 91.7664C946.044 90.6907 945.203 89.8498 944.127 89.2437C943.066 88.6225 941.831 88.3119 940.422 88.3119C938.953 88.3119 937.65 88.6528 936.513 89.3346C935.392 90.0013 934.513 90.9028 933.877 92.0392C933.241 93.1604 932.915 94.4104 932.9 95.7892V101.494C932.9 103.221 933.218 104.713 933.854 105.971C934.506 107.229 935.422 108.198 936.604 108.88C937.786 109.562 939.188 109.903 940.809 109.903C941.885 109.903 942.869 109.751 943.763 109.448C944.657 109.145 945.422 108.691 946.059 108.085C946.695 107.479 947.18 106.736 947.513 105.857L956.468 106.448C956.013 108.6 955.081 110.479 953.672 112.085C952.278 113.676 950.475 114.918 948.263 115.812C946.066 116.691 943.528 117.13 940.65 117.13ZM962.991 116.448V81.5392H972.377V87.6301H972.741C973.377 85.4634 974.445 83.827 975.945 82.721C977.445 81.5998 979.172 81.0392 981.127 81.0392C981.612 81.0392 982.135 81.0695 982.695 81.1301C983.256 81.1907 983.748 81.274 984.172 81.3801V89.971C983.718 89.8346 983.089 89.7134 982.286 89.6073C981.483 89.5013 980.748 89.4482 980.081 89.4482C978.657 89.4482 977.385 89.7588 976.263 90.3801C975.157 90.9861 974.278 91.8346 973.627 92.9255C972.991 94.0164 972.672 95.274 972.672 96.6982V116.448H962.991ZM1033.04 91.4937L1024.17 92.0392C1024.02 91.2816 1023.7 90.5998 1023.2 89.9937C1022.7 89.3725 1022.04 88.8801 1021.22 88.5164C1020.41 88.1376 1019.45 87.9482 1018.33 87.9482C1016.83 87.9482 1015.57 88.2664 1014.54 88.9028C1013.51 89.524 1012.99 90.3573 1012.99 91.4028C1012.99 92.2361 1013.32 92.9407 1013.99 93.5164C1014.66 94.0922 1015.8 94.5543 1017.42 94.9028L1023.74 96.1755C1027.13 96.8725 1029.66 97.9937 1031.33 99.5392C1033 101.085 1033.83 103.115 1033.83 105.63C1033.83 107.918 1033.16 109.926 1031.81 111.653C1030.48 113.38 1028.64 114.729 1026.31 115.698C1023.99 116.653 1021.32 117.13 1018.29 117.13C1013.66 117.13 1009.98 116.168 1007.24 114.244C1004.51 112.304 1002.91 109.668 1002.45 106.335L1011.97 105.835C1012.26 107.244 1012.95 108.319 1014.06 109.062C1015.16 109.789 1016.58 110.153 1018.31 110.153C1020.01 110.153 1021.37 109.827 1022.4 109.176C1023.45 108.509 1023.98 107.653 1023.99 106.607C1023.98 105.729 1023.6 105.009 1022.88 104.448C1022.15 103.872 1021.03 103.433 1019.51 103.13L1013.47 101.926C1010.06 101.244 1007.52 100.062 1005.85 98.3801C1004.2 96.6982 1003.38 94.5543 1003.38 91.9482C1003.38 89.7058 1003.98 87.774 1005.2 86.1528C1006.42 84.5316 1008.14 83.2816 1010.35 82.4028C1012.58 81.524 1015.19 81.0846 1018.17 81.0846C1022.58 81.0846 1026.05 82.0164 1028.58 83.8801C1031.13 85.7437 1032.61 88.2816 1033.04 91.4937ZM1045.91 129.539C1044.68 129.539 1043.53 129.441 1042.45 129.244C1041.39 129.062 1040.51 128.827 1039.81 128.539L1042 121.312C1043.13 121.66 1044.16 121.85 1045.06 121.88C1045.99 121.91 1046.78 121.698 1047.45 121.244C1048.13 120.789 1048.69 120.016 1049.11 118.926L1049.68 117.448L1037.16 81.5392H1047.34L1054.56 107.176H1054.93L1062.22 81.5392H1072.47L1058.91 120.221C1058.25 122.1 1057.37 123.736 1056.25 125.13C1055.14 126.539 1053.74 127.622 1052.04 128.38C1050.34 129.153 1048.3 129.539 1045.91 129.539ZM1106.47 91.4937L1097.61 92.0392C1097.46 91.2816 1097.13 90.5998 1096.63 89.9937C1096.13 89.3725 1095.47 88.8801 1094.66 88.5164C1093.85 88.1376 1092.89 87.9482 1091.77 87.9482C1090.27 87.9482 1089 88.2664 1087.97 88.9028C1086.94 89.524 1086.43 90.3573 1086.43 91.4028C1086.43 92.2361 1086.76 92.9407 1087.43 93.5164C1088.09 94.0922 1089.24 94.5543 1090.86 94.9028L1097.18 96.1755C1100.57 96.8725 1103.1 97.9937 1104.77 99.5392C1106.44 101.085 1107.27 103.115 1107.27 105.63C1107.27 107.918 1106.59 109.926 1105.25 111.653C1103.91 113.38 1102.08 114.729 1099.75 115.698C1097.43 116.653 1094.75 117.13 1091.72 117.13C1087.1 117.13 1083.42 116.168 1080.68 114.244C1077.95 112.304 1076.35 109.668 1075.88 106.335L1085.41 105.835C1085.69 107.244 1086.39 108.319 1087.5 109.062C1088.6 109.789 1090.02 110.153 1091.75 110.153C1093.44 110.153 1094.81 109.827 1095.84 109.176C1096.88 108.509 1097.41 107.653 1097.43 106.607C1097.41 105.729 1097.04 105.009 1096.31 104.448C1095.59 103.872 1094.47 103.433 1092.95 103.13L1086.91 101.926C1083.5 101.244 1080.96 100.062 1079.29 98.3801C1077.64 96.6982 1076.81 94.5543 1076.81 91.9482C1076.81 89.7058 1077.42 87.774 1078.63 86.1528C1079.86 84.5316 1081.58 83.2816 1083.79 82.4028C1086.02 81.524 1088.63 81.0846 1091.61 81.0846C1096.02 81.0846 1099.49 82.0164 1102.02 83.8801C1104.56 85.7437 1106.05 88.2816 1106.47 91.4937ZM1131.93 81.5392V88.8119H1110.91V81.5392H1131.93ZM1115.68 73.1755H1125.37V105.721C1125.37 106.615 1125.5 107.312 1125.77 107.812C1126.05 108.297 1126.43 108.638 1126.91 108.835C1127.41 109.032 1127.99 109.13 1128.64 109.13C1129.09 109.13 1129.55 109.092 1130 109.016C1130.46 108.926 1130.8 108.857 1131.05 108.812L1132.57 116.016C1132.09 116.168 1131.4 116.342 1130.52 116.539C1129.65 116.751 1128.58 116.88 1127.32 116.926C1124.99 117.016 1122.94 116.706 1121.18 115.994C1119.44 115.282 1118.09 114.176 1117.12 112.676C1116.15 111.176 1115.67 109.282 1115.68 106.994V73.1755ZM1153.77 117.13C1150.18 117.13 1147.09 116.403 1144.5 114.948C1141.93 113.479 1139.94 111.403 1138.55 108.721C1137.15 106.024 1136.46 102.835 1136.46 99.1528C1136.46 95.5619 1137.15 92.4104 1138.55 89.6982C1139.94 86.9861 1141.9 84.8725 1144.43 83.3573C1146.98 81.8422 1149.96 81.0846 1153.39 81.0846C1155.69 81.0846 1157.84 81.4558 1159.82 82.1982C1161.82 82.9255 1163.56 84.024 1165.05 85.4937C1166.55 86.9634 1167.71 88.8119 1168.55 91.0392C1169.38 93.2513 1169.8 95.8422 1169.8 98.8119V101.471H1140.32V95.471H1160.68C1160.68 94.077 1160.38 92.8422 1159.77 91.7664C1159.17 90.6907 1158.33 89.8498 1157.25 89.2437C1156.19 88.6225 1154.96 88.3119 1153.55 88.3119C1152.08 88.3119 1150.77 88.6528 1149.64 89.3346C1148.52 90.0013 1147.64 90.9028 1147 92.0392C1146.37 93.1604 1146.04 94.4104 1146.02 95.7892V101.494C1146.02 103.221 1146.34 104.713 1146.98 105.971C1147.63 107.229 1148.55 108.198 1149.73 108.88C1150.91 109.562 1152.31 109.903 1153.93 109.903C1155.01 109.903 1155.99 109.751 1156.89 109.448C1157.78 109.145 1158.55 108.691 1159.18 108.085C1159.82 107.479 1160.3 106.736 1160.64 105.857L1169.59 106.448C1169.14 108.6 1168.21 110.479 1166.8 112.085C1165.4 113.676 1163.6 114.918 1161.39 115.812C1159.19 116.691 1156.65 117.13 1153.77 117.13ZM1176.12 116.448V81.5392H1185.34V87.6982H1185.75C1186.48 85.6528 1187.69 84.0392 1189.39 82.8573C1191.09 81.6755 1193.12 81.0846 1195.48 81.0846C1197.87 81.0846 1199.91 81.6831 1201.59 82.8801C1203.27 84.0619 1204.4 85.6679 1204.96 87.6982H1205.32C1206.03 85.6982 1207.32 84.0998 1209.18 82.9028C1211.06 81.6907 1213.28 81.0846 1215.84 81.0846C1219.1 81.0846 1221.74 82.1225 1223.77 84.1982C1225.82 86.2588 1226.84 89.1831 1226.84 92.971V116.448H1217.18V94.8801C1217.18 92.9407 1216.67 91.4861 1215.64 90.5164C1214.61 89.5467 1213.32 89.0619 1211.77 89.0619C1210.02 89.0619 1208.65 89.6225 1207.66 90.7437C1206.68 91.8498 1206.18 93.3119 1206.18 95.1301V116.448H1196.8V94.6755C1196.8 92.9634 1196.3 91.5998 1195.32 90.5846C1194.35 89.5695 1193.07 89.0619 1191.48 89.0619C1190.4 89.0619 1189.43 89.3346 1188.57 89.8801C1187.72 90.4104 1187.05 91.1604 1186.55 92.1301C1186.05 93.0846 1185.8 94.2058 1185.8 95.4937V116.448H1176.12ZM1263.54 91.4937L1254.67 92.0392C1254.52 91.2816 1254.2 90.5998 1253.7 89.9937C1253.2 89.3725 1252.54 88.8801 1251.72 88.5164C1250.91 88.1376 1249.95 87.9482 1248.83 87.9482C1247.33 87.9482 1246.07 88.2664 1245.04 88.9028C1244.01 89.524 1243.49 90.3573 1243.49 91.4028C1243.49 92.2361 1243.82 92.9407 1244.49 93.5164C1245.16 94.0922 1246.3 94.5543 1247.92 94.9028L1254.24 96.1755C1257.63 96.8725 1260.16 97.9937 1261.83 99.5392C1263.5 101.085 1264.33 103.115 1264.33 105.63C1264.33 107.918 1263.66 109.926 1262.31 111.653C1260.98 113.38 1259.14 114.729 1256.81 115.698C1254.49 116.653 1251.82 117.13 1248.79 117.13C1244.16 117.13 1240.48 116.168 1237.74 114.244C1235.01 112.304 1233.41 109.668 1232.95 106.335L1242.47 105.835C1242.76 107.244 1243.45 108.319 1244.56 109.062C1245.66 109.789 1247.08 110.153 1248.81 110.153C1250.51 110.153 1251.87 109.827 1252.9 109.176C1253.95 108.509 1254.48 107.653 1254.49 106.607C1254.48 105.729 1254.1 105.009 1253.38 104.448C1252.65 103.872 1251.53 103.433 1250.01 103.13L1243.97 101.926C1240.56 101.244 1238.02 100.062 1236.35 98.3801C1234.7 96.6982 1233.88 94.5543 1233.88 91.9482C1233.88 89.7058 1234.48 87.774 1235.7 86.1528C1236.92 84.5316 1238.64 83.2816 1240.85 82.4028C1243.08 81.524 1245.69 81.0846 1248.67 81.0846C1253.08 81.0846 1256.55 82.0164 1259.08 83.8801C1261.63 85.7437 1263.11 88.2816 1263.54 91.4937Z" fill="black"/>
<path id="show an example and give the intuition that a client represents a shared ressource" d="M65.1639 274.246L62.7548 274.927C62.6033 274.526 62.3798 274.136 62.0843 273.757C61.7965 273.371 61.4025 273.052 60.9025 272.802C60.4025 272.552 59.7624 272.427 58.9821 272.427C57.9139 272.427 57.0237 272.674 56.3116 273.166C55.6071 273.651 55.2548 274.268 55.2548 275.018C55.2548 275.685 55.4972 276.211 55.9821 276.598C56.4669 276.984 57.2245 277.306 58.2548 277.564L60.8457 278.2C62.4063 278.579 63.5692 279.158 64.3343 279.939C65.0995 280.711 65.4821 281.708 65.4821 282.927C65.4821 283.927 65.1942 284.821 64.6184 285.609C64.0502 286.397 63.2548 287.018 62.2321 287.473C61.2093 287.927 60.0199 288.155 58.6639 288.155C56.8836 288.155 55.4101 287.768 54.2434 286.996C53.0768 286.223 52.3381 285.094 52.0275 283.609L54.573 282.973C54.8154 283.912 55.2737 284.617 55.948 285.086C56.6298 285.556 57.5199 285.791 58.6184 285.791C59.8684 285.791 60.8609 285.526 61.5957 284.996C62.3381 284.458 62.7093 283.814 62.7093 283.064C62.7093 282.458 62.4972 281.95 62.073 281.541C61.6487 281.124 60.9972 280.814 60.1184 280.609L57.2093 279.927C55.6109 279.549 54.4366 278.961 53.6866 278.166C52.9442 277.363 52.573 276.359 52.573 275.155C52.573 274.17 52.8495 273.299 53.4025 272.541C53.9631 271.783 54.7245 271.189 55.6866 270.757C56.6563 270.325 57.7548 270.109 58.9821 270.109C60.7093 270.109 62.0654 270.488 63.0502 271.246C64.0427 272.003 64.7472 273.003 65.1639 274.246ZM72.2008 277.291V287.791H69.519V264.518H72.2008V273.064H72.4281C72.8372 272.162 73.4508 271.446 74.269 270.916C75.0948 270.378 76.1932 270.109 77.5645 270.109C78.7538 270.109 79.7955 270.348 80.6895 270.825C81.5834 271.295 82.2766 272.018 82.769 272.996C83.269 273.965 83.519 275.2 83.519 276.7V287.791H80.8372V276.882C80.8372 275.496 80.4773 274.424 79.7576 273.666C79.0455 272.901 78.0569 272.518 76.7917 272.518C75.9129 272.518 75.1251 272.704 74.4281 273.075C73.7387 273.446 73.1932 273.988 72.7917 274.7C72.3978 275.412 72.2008 276.276 72.2008 277.291ZM95.5162 288.155C93.9404 288.155 92.5578 287.78 91.3684 287.03C90.1866 286.28 89.2624 285.23 88.5957 283.882C87.9366 282.533 87.6071 280.958 87.6071 279.155C87.6071 277.336 87.9366 275.749 88.5957 274.393C89.2624 273.037 90.1866 271.984 91.3684 271.234C92.5578 270.484 93.9404 270.109 95.5162 270.109C97.0919 270.109 98.4707 270.484 99.6525 271.234C100.842 271.984 101.766 273.037 102.425 274.393C103.092 275.749 103.425 277.336 103.425 279.155C103.425 280.958 103.092 282.533 102.425 283.882C101.766 285.23 100.842 286.28 99.6525 287.03C98.4707 287.78 97.0919 288.155 95.5162 288.155ZM95.5162 285.746C96.7131 285.746 97.698 285.439 98.4707 284.825C99.2434 284.211 99.8154 283.405 100.187 282.405C100.558 281.405 100.743 280.321 100.743 279.155C100.743 277.988 100.558 276.901 100.187 275.893C99.8154 274.886 99.2434 274.071 98.4707 273.45C97.698 272.829 96.7131 272.518 95.5162 272.518C94.3192 272.518 93.3343 272.829 92.5616 273.45C91.7889 274.071 91.2169 274.886 90.8457 275.893C90.4745 276.901 90.2889 277.988 90.2889 279.155C90.2889 280.321 90.4745 281.405 90.8457 282.405C91.2169 283.405 91.7889 284.211 92.5616 284.825C93.3343 285.439 94.3192 285.746 95.5162 285.746ZM110.88 287.791L105.562 270.336H108.38L112.153 283.7H112.334L116.062 270.336H118.925L122.607 283.655H122.789L126.562 270.336H129.38L124.062 287.791H121.425L117.607 274.382H117.334L113.516 287.791H110.88ZM147.062 288.2C145.956 288.2 144.952 287.992 144.05 287.575C143.149 287.151 142.433 286.541 141.903 285.746C141.372 284.943 141.107 283.973 141.107 282.836C141.107 281.836 141.304 281.026 141.698 280.405C142.092 279.776 142.618 279.283 143.278 278.927C143.937 278.571 144.664 278.306 145.459 278.132C146.262 277.95 147.069 277.806 147.88 277.7C148.94 277.564 149.8 277.461 150.459 277.393C151.126 277.318 151.611 277.193 151.914 277.018C152.224 276.844 152.38 276.541 152.38 276.109V276.018C152.38 274.897 152.073 274.026 151.459 273.405C150.853 272.783 149.933 272.473 148.698 272.473C147.418 272.473 146.414 272.753 145.687 273.314C144.959 273.874 144.448 274.473 144.153 275.109L141.607 274.2C142.062 273.139 142.668 272.314 143.425 271.723C144.19 271.124 145.024 270.708 145.925 270.473C146.834 270.23 147.728 270.109 148.607 270.109C149.168 270.109 149.812 270.177 150.539 270.314C151.274 270.443 151.982 270.711 152.664 271.121C153.353 271.53 153.925 272.147 154.38 272.973C154.834 273.799 155.062 274.905 155.062 276.291V287.791H152.38V285.427H152.243C152.062 285.806 151.759 286.211 151.334 286.643C150.91 287.075 150.346 287.443 149.641 287.746C148.937 288.049 148.077 288.2 147.062 288.2ZM147.471 285.791C148.531 285.791 149.425 285.583 150.153 285.166C150.887 284.749 151.44 284.211 151.812 283.552C152.19 282.893 152.38 282.2 152.38 281.473V279.018C152.266 279.155 152.016 279.28 151.63 279.393C151.251 279.499 150.812 279.594 150.312 279.677C149.819 279.753 149.338 279.821 148.868 279.882C148.406 279.935 148.031 279.98 147.743 280.018C147.046 280.109 146.395 280.257 145.789 280.461C145.19 280.658 144.706 280.958 144.334 281.359C143.971 281.753 143.789 282.291 143.789 282.973C143.789 283.905 144.134 284.609 144.823 285.086C145.52 285.556 146.403 285.791 147.471 285.791ZM162.638 277.291V287.791H159.956V270.336H162.547V273.064H162.775C163.184 272.177 163.805 271.465 164.638 270.927C165.472 270.382 166.547 270.109 167.866 270.109C169.047 270.109 170.081 270.352 170.968 270.836C171.854 271.314 172.544 272.041 173.036 273.018C173.528 273.988 173.775 275.215 173.775 276.7V287.791H171.093V276.882C171.093 275.511 170.737 274.443 170.025 273.677C169.313 272.905 168.335 272.518 167.093 272.518C166.237 272.518 165.472 272.704 164.797 273.075C164.131 273.446 163.604 273.988 163.218 274.7C162.831 275.412 162.638 276.276 162.638 277.291ZM194.993 288.155C193.312 288.155 191.861 287.783 190.641 287.041C189.429 286.291 188.493 285.246 187.834 283.905C187.183 282.556 186.857 280.988 186.857 279.2C186.857 277.412 187.183 275.836 187.834 274.473C188.493 273.102 189.41 272.033 190.584 271.268C191.766 270.496 193.145 270.109 194.721 270.109C195.63 270.109 196.528 270.261 197.414 270.564C198.3 270.867 199.107 271.359 199.834 272.041C200.562 272.715 201.141 273.609 201.573 274.723C202.005 275.836 202.221 277.208 202.221 278.836V279.973H188.766V277.655H199.493C199.493 276.67 199.296 275.791 198.903 275.018C198.516 274.246 197.963 273.636 197.243 273.189C196.531 272.742 195.69 272.518 194.721 272.518C193.653 272.518 192.728 272.783 191.948 273.314C191.175 273.836 190.581 274.518 190.164 275.359C189.747 276.2 189.539 277.102 189.539 278.064V279.609C189.539 280.927 189.766 282.045 190.221 282.961C190.683 283.871 191.323 284.564 192.141 285.041C192.959 285.511 193.91 285.746 194.993 285.746C195.698 285.746 196.334 285.647 196.903 285.45C197.478 285.246 197.974 284.943 198.391 284.541C198.808 284.132 199.13 283.624 199.357 283.018L201.948 283.746C201.675 284.624 201.217 285.397 200.573 286.064C199.929 286.723 199.134 287.238 198.187 287.609C197.24 287.973 196.175 288.155 194.993 288.155ZM207.831 270.336L212.013 277.473L216.195 270.336H219.286L213.65 279.064L219.286 287.791H216.195L212.013 281.018L207.831 287.791H204.741L210.286 279.064L204.741 270.336H207.831ZM228.249 288.2C227.143 288.2 226.139 287.992 225.238 287.575C224.336 287.151 223.62 286.541 223.09 285.746C222.56 284.943 222.295 283.973 222.295 282.836C222.295 281.836 222.492 281.026 222.885 280.405C223.279 279.776 223.806 279.283 224.465 278.927C225.124 278.571 225.851 278.306 226.647 278.132C227.45 277.95 228.257 277.806 229.067 277.7C230.128 277.564 230.988 277.461 231.647 277.393C232.314 277.318 232.798 277.193 233.101 277.018C233.412 276.844 233.567 276.541 233.567 276.109V276.018C233.567 274.897 233.26 274.026 232.647 273.405C232.041 272.783 231.12 272.473 229.885 272.473C228.605 272.473 227.601 272.753 226.874 273.314C226.147 273.874 225.635 274.473 225.34 275.109L222.795 274.2C223.249 273.139 223.855 272.314 224.613 271.723C225.378 271.124 226.211 270.708 227.113 270.473C228.022 270.23 228.916 270.109 229.795 270.109C230.355 270.109 230.999 270.177 231.726 270.314C232.461 270.443 233.17 270.711 233.851 271.121C234.541 271.53 235.113 272.147 235.567 272.973C236.022 273.799 236.249 274.905 236.249 276.291V287.791H233.567V285.427H233.431C233.249 285.806 232.946 286.211 232.522 286.643C232.098 287.075 231.533 287.443 230.829 287.746C230.124 288.049 229.264 288.2 228.249 288.2ZM228.658 285.791C229.719 285.791 230.613 285.583 231.34 285.166C232.075 284.749 232.628 284.211 232.999 283.552C233.378 282.893 233.567 282.2 233.567 281.473V279.018C233.454 279.155 233.204 279.28 232.817 279.393C232.439 279.499 231.999 279.594 231.499 279.677C231.007 279.753 230.526 279.821 230.056 279.882C229.594 279.935 229.219 279.98 228.931 280.018C228.234 280.109 227.582 280.257 226.976 280.461C226.378 280.658 225.893 280.958 225.522 281.359C225.158 281.753 224.976 282.291 224.976 282.973C224.976 283.905 225.321 284.609 226.01 285.086C226.707 285.556 227.59 285.791 228.658 285.791ZM241.144 287.791V270.336H243.735V273.064H243.962C244.326 272.132 244.913 271.408 245.724 270.893C246.534 270.371 247.508 270.109 248.644 270.109C249.796 270.109 250.754 270.371 251.519 270.893C252.292 271.408 252.894 272.132 253.326 273.064H253.508C253.955 272.162 254.625 271.446 255.519 270.916C256.413 270.378 257.485 270.109 258.735 270.109C260.296 270.109 261.572 270.598 262.564 271.575C263.557 272.545 264.053 274.056 264.053 276.109V287.791H261.371V276.109C261.371 274.821 261.019 273.901 260.314 273.348C259.61 272.795 258.78 272.518 257.826 272.518C256.599 272.518 255.648 272.889 254.974 273.632C254.299 274.367 253.962 275.299 253.962 276.427V287.791H251.235V275.836C251.235 274.844 250.913 274.045 250.269 273.439C249.625 272.825 248.796 272.518 247.78 272.518C247.083 272.518 246.432 272.704 245.826 273.075C245.227 273.446 244.742 273.961 244.371 274.621C244.008 275.272 243.826 276.026 243.826 276.882V287.791H241.144ZM268.956 294.336V270.336H271.547V273.109H271.866C272.063 272.806 272.335 272.42 272.684 271.95C273.04 271.473 273.547 271.049 274.206 270.677C274.873 270.299 275.775 270.109 276.911 270.109C278.381 270.109 279.676 270.477 280.797 271.211C281.919 271.946 282.794 272.988 283.422 274.336C284.051 275.685 284.366 277.276 284.366 279.109C284.366 280.958 284.051 282.56 283.422 283.916C282.794 285.265 281.922 286.31 280.809 287.052C279.695 287.787 278.411 288.155 276.956 288.155C275.835 288.155 274.938 287.969 274.263 287.598C273.589 287.219 273.07 286.791 272.706 286.314C272.343 285.829 272.063 285.427 271.866 285.109H271.638V294.336H268.956ZM271.593 279.064C271.593 280.382 271.786 281.545 272.172 282.552C272.559 283.552 273.123 284.336 273.866 284.905C274.608 285.465 275.517 285.746 276.593 285.746C277.714 285.746 278.65 285.45 279.4 284.859C280.157 284.261 280.725 283.458 281.104 282.45C281.491 281.435 281.684 280.306 281.684 279.064C281.684 277.836 281.494 276.73 281.116 275.746C280.744 274.753 280.18 273.969 279.422 273.393C278.672 272.81 277.729 272.518 276.593 272.518C275.502 272.518 274.585 272.795 273.843 273.348C273.1 273.893 272.54 274.658 272.161 275.643C271.782 276.621 271.593 277.761 271.593 279.064ZM291.138 264.518V287.791H288.456V264.518H291.138ZM303.368 288.155C301.687 288.155 300.236 287.783 299.016 287.041C297.804 286.291 296.868 285.246 296.209 283.905C295.558 282.556 295.232 280.988 295.232 279.2C295.232 277.412 295.558 275.836 296.209 274.473C296.868 273.102 297.785 272.033 298.959 271.268C300.141 270.496 301.52 270.109 303.096 270.109C304.005 270.109 304.903 270.261 305.789 270.564C306.675 270.867 307.482 271.359 308.209 272.041C308.937 272.715 309.516 273.609 309.948 274.723C310.38 275.836 310.596 277.208 310.596 278.836V279.973H297.141V277.655H307.868C307.868 276.67 307.671 275.791 307.278 275.018C306.891 274.246 306.338 273.636 305.618 273.189C304.906 272.742 304.065 272.518 303.096 272.518C302.028 272.518 301.103 272.783 300.323 273.314C299.55 273.836 298.956 274.518 298.539 275.359C298.122 276.2 297.914 277.102 297.914 278.064V279.609C297.914 280.927 298.141 282.045 298.596 282.961C299.058 283.871 299.698 284.564 300.516 285.041C301.334 285.511 302.285 285.746 303.368 285.746C304.073 285.746 304.709 285.647 305.278 285.45C305.853 285.246 306.349 284.943 306.766 284.541C307.183 284.132 307.505 283.624 307.732 283.018L310.323 283.746C310.05 284.624 309.592 285.397 308.948 286.064C308.304 286.723 307.509 287.238 306.562 287.609C305.615 287.973 304.55 288.155 303.368 288.155ZM328.812 288.2C327.706 288.2 326.702 287.992 325.8 287.575C324.899 287.151 324.183 286.541 323.653 285.746C323.122 284.943 322.857 283.973 322.857 282.836C322.857 281.836 323.054 281.026 323.448 280.405C323.842 279.776 324.368 279.283 325.028 278.927C325.687 278.571 326.414 278.306 327.209 278.132C328.012 277.95 328.819 277.806 329.63 277.7C330.69 277.564 331.55 277.461 332.209 277.393C332.876 277.318 333.361 277.193 333.664 277.018C333.974 276.844 334.13 276.541 334.13 276.109V276.018C334.13 274.897 333.823 274.026 333.209 273.405C332.603 272.783 331.683 272.473 330.448 272.473C329.168 272.473 328.164 272.753 327.437 273.314C326.709 273.874 326.198 274.473 325.903 275.109L323.357 274.2C323.812 273.139 324.418 272.314 325.175 271.723C325.94 271.124 326.774 270.708 327.675 270.473C328.584 270.23 329.478 270.109 330.357 270.109C330.918 270.109 331.562 270.177 332.289 270.314C333.024 270.443 333.732 270.711 334.414 271.121C335.103 271.53 335.675 272.147 336.13 272.973C336.584 273.799 336.812 274.905 336.812 276.291V287.791H334.13V285.427H333.993C333.812 285.806 333.509 286.211 333.084 286.643C332.66 287.075 332.096 287.443 331.391 287.746C330.687 288.049 329.827 288.2 328.812 288.2ZM329.221 285.791C330.281 285.791 331.175 285.583 331.903 285.166C332.637 284.749 333.19 284.211 333.562 283.552C333.94 282.893 334.13 282.2 334.13 281.473V279.018C334.016 279.155 333.766 279.28 333.38 279.393C333.001 279.499 332.562 279.594 332.062 279.677C331.569 279.753 331.088 279.821 330.618 279.882C330.156 279.935 329.781 279.98 329.493 280.018C328.796 280.109 328.145 280.257 327.539 280.461C326.94 280.658 326.456 280.958 326.084 281.359C325.721 281.753 325.539 282.291 325.539 282.973C325.539 283.905 325.884 284.609 326.573 285.086C327.27 285.556 328.153 285.791 329.221 285.791ZM344.388 277.291V287.791H341.706V270.336H344.297V273.064H344.525C344.934 272.177 345.555 271.465 346.388 270.927C347.222 270.382 348.297 270.109 349.616 270.109C350.797 270.109 351.831 270.352 352.718 270.836C353.604 271.314 354.294 272.041 354.786 273.018C355.278 273.988 355.525 275.215 355.525 276.7V287.791H352.843V276.882C352.843 275.511 352.487 274.443 351.775 273.677C351.063 272.905 350.085 272.518 348.843 272.518C347.987 272.518 347.222 272.704 346.547 273.075C345.881 273.446 345.354 273.988 344.968 274.7C344.581 275.412 344.388 276.276 344.388 277.291ZM367.016 288.155C365.562 288.155 364.278 287.787 363.164 287.052C362.05 286.31 361.179 285.265 360.55 283.916C359.921 282.56 359.607 280.958 359.607 279.109C359.607 277.276 359.921 275.685 360.55 274.336C361.179 272.988 362.054 271.946 363.175 271.211C364.296 270.477 365.592 270.109 367.062 270.109C368.198 270.109 369.096 270.299 369.755 270.677C370.421 271.049 370.929 271.473 371.278 271.95C371.634 272.42 371.91 272.806 372.107 273.109H372.334V264.518H375.016V287.791H372.425V285.109H372.107C371.91 285.427 371.63 285.829 371.266 286.314C370.903 286.791 370.384 287.219 369.709 287.598C369.035 287.969 368.137 288.155 367.016 288.155ZM367.38 285.746C368.456 285.746 369.365 285.465 370.107 284.905C370.849 284.336 371.414 283.552 371.8 282.552C372.187 281.545 372.38 280.382 372.38 279.064C372.38 277.761 372.19 276.621 371.812 275.643C371.433 274.658 370.872 273.893 370.13 273.348C369.387 272.795 368.471 272.518 367.38 272.518C366.243 272.518 365.296 272.81 364.539 273.393C363.789 273.969 363.224 274.753 362.846 275.746C362.474 276.73 362.289 277.836 362.289 279.064C362.289 280.306 362.478 281.435 362.857 282.45C363.243 283.458 363.812 284.261 364.562 284.859C365.319 285.45 366.259 285.746 367.38 285.746ZM396.346 294.7C395.05 294.7 393.937 294.533 393.005 294.2C392.073 293.874 391.296 293.443 390.675 292.905C390.062 292.374 389.573 291.806 389.209 291.2L391.346 289.7C391.588 290.018 391.895 290.382 392.266 290.791C392.637 291.208 393.145 291.568 393.789 291.871C394.44 292.181 395.293 292.336 396.346 292.336C397.755 292.336 398.918 291.996 399.834 291.314C400.751 290.632 401.209 289.564 401.209 288.109V284.564H400.982C400.785 284.882 400.505 285.276 400.141 285.746C399.785 286.208 399.27 286.621 398.596 286.984C397.929 287.34 397.028 287.518 395.891 287.518C394.482 287.518 393.217 287.185 392.096 286.518C390.982 285.852 390.099 284.882 389.448 283.609C388.804 282.336 388.482 280.791 388.482 278.973C388.482 277.185 388.796 275.628 389.425 274.302C390.054 272.969 390.929 271.939 392.05 271.211C393.171 270.477 394.467 270.109 395.937 270.109C397.073 270.109 397.974 270.299 398.641 270.677C399.315 271.049 399.831 271.473 400.187 271.95C400.55 272.42 400.831 272.806 401.028 273.109H401.3V270.336H403.891V288.291C403.891 289.791 403.55 291.011 402.868 291.95C402.194 292.897 401.285 293.59 400.141 294.03C399.005 294.477 397.74 294.7 396.346 294.7ZM396.255 285.109C397.331 285.109 398.24 284.863 398.982 284.371C399.724 283.878 400.289 283.17 400.675 282.246C401.062 281.321 401.255 280.215 401.255 278.927C401.255 277.67 401.065 276.56 400.687 275.598C400.308 274.636 399.747 273.882 399.005 273.336C398.262 272.791 397.346 272.518 396.255 272.518C395.118 272.518 394.171 272.806 393.414 273.382C392.664 273.958 392.099 274.73 391.721 275.7C391.349 276.67 391.164 277.746 391.164 278.927C391.164 280.139 391.353 281.211 391.732 282.143C392.118 283.068 392.687 283.795 393.437 284.325C394.194 284.848 395.134 285.109 396.255 285.109ZM408.8 287.791V270.336H411.482V287.791H408.8ZM410.164 267.427C409.641 267.427 409.19 267.249 408.812 266.893C408.44 266.537 408.255 266.109 408.255 265.609C408.255 265.109 408.44 264.681 408.812 264.325C409.19 263.969 409.641 263.791 410.164 263.791C410.687 263.791 411.134 263.969 411.505 264.325C411.884 264.681 412.073 265.109 412.073 265.609C412.073 266.109 411.884 266.537 411.505 266.893C411.134 267.249 410.687 267.427 410.164 267.427ZM430.667 270.336L424.212 287.791H421.485L415.03 270.336H417.939L422.758 284.246H422.939L427.758 270.336H430.667ZM440.9 288.155C439.218 288.155 437.767 287.783 436.547 287.041C435.335 286.291 434.4 285.246 433.741 283.905C433.089 282.556 432.763 280.988 432.763 279.2C432.763 277.412 433.089 275.836 433.741 274.473C434.4 273.102 435.316 272.033 436.491 271.268C437.672 270.496 439.051 270.109 440.627 270.109C441.536 270.109 442.434 270.261 443.32 270.564C444.206 270.867 445.013 271.359 445.741 272.041C446.468 272.715 447.047 273.609 447.479 274.723C447.911 275.836 448.127 277.208 448.127 278.836V279.973H434.672V277.655H445.4C445.4 276.67 445.203 275.791 444.809 275.018C444.422 274.246 443.869 273.636 443.15 273.189C442.438 272.742 441.597 272.518 440.627 272.518C439.559 272.518 438.635 272.783 437.854 273.314C437.081 273.836 436.487 274.518 436.07 275.359C435.653 276.2 435.445 277.102 435.445 278.064V279.609C435.445 280.927 435.672 282.045 436.127 282.961C436.589 283.871 437.229 284.564 438.047 285.041C438.866 285.511 439.816 285.746 440.9 285.746C441.604 285.746 442.241 285.647 442.809 285.45C443.385 285.246 443.881 284.943 444.297 284.541C444.714 284.132 445.036 283.624 445.263 283.018L447.854 283.746C447.581 284.624 447.123 285.397 446.479 286.064C445.835 286.723 445.04 287.238 444.093 287.609C443.146 287.973 442.081 288.155 440.9 288.155ZM468.797 270.336V272.609H459.752V270.336H468.797ZM462.388 266.155H465.07V282.791C465.07 283.549 465.18 284.117 465.4 284.496C465.627 284.867 465.915 285.117 466.263 285.246C466.619 285.367 466.994 285.427 467.388 285.427C467.684 285.427 467.926 285.412 468.116 285.382C468.305 285.344 468.456 285.314 468.57 285.291L469.116 287.7C468.934 287.768 468.68 287.836 468.354 287.905C468.028 287.98 467.616 288.018 467.116 288.018C466.358 288.018 465.616 287.855 464.888 287.53C464.169 287.204 463.57 286.708 463.093 286.041C462.623 285.374 462.388 284.533 462.388 283.518V266.155ZM475.888 277.291V287.791H473.206V264.518H475.888V273.064H476.116C476.525 272.162 477.138 271.446 477.956 270.916C478.782 270.378 479.881 270.109 481.252 270.109C482.441 270.109 483.483 270.348 484.377 270.825C485.271 271.295 485.964 272.018 486.456 272.996C486.956 273.965 487.206 275.2 487.206 276.7V287.791H484.525V276.882C484.525 275.496 484.165 274.424 483.445 273.666C482.733 272.901 481.744 272.518 480.479 272.518C479.6 272.518 478.813 272.704 478.116 273.075C477.426 273.446 476.881 273.988 476.479 274.7C476.085 275.412 475.888 276.276 475.888 277.291ZM499.431 288.155C497.749 288.155 496.298 287.783 495.079 287.041C493.867 286.291 492.931 285.246 492.272 283.905C491.62 282.556 491.295 280.988 491.295 279.2C491.295 277.412 491.62 275.836 492.272 274.473C492.931 273.102 493.848 272.033 495.022 271.268C496.204 270.496 497.582 270.109 499.158 270.109C500.067 270.109 500.965 270.261 501.851 270.564C502.738 270.867 503.545 271.359 504.272 272.041C504.999 272.715 505.579 273.609 506.01 274.723C506.442 275.836 506.658 277.208 506.658 278.836V279.973H493.204V277.655H503.931C503.931 276.67 503.734 275.791 503.34 275.018C502.954 274.246 502.401 273.636 501.681 273.189C500.969 272.742 500.128 272.518 499.158 272.518C498.09 272.518 497.166 272.783 496.385 273.314C495.613 273.836 495.018 274.518 494.601 275.359C494.185 276.2 493.976 277.102 493.976 278.064V279.609C493.976 280.927 494.204 282.045 494.658 282.961C495.12 283.871 495.76 284.564 496.579 285.041C497.397 285.511 498.348 285.746 499.431 285.746C500.135 285.746 500.772 285.647 501.34 285.45C501.916 285.246 502.412 284.943 502.829 284.541C503.245 284.132 503.567 283.624 503.795 283.018L506.385 283.746C506.113 284.624 505.654 285.397 505.01 286.064C504.367 286.723 503.571 287.238 502.624 287.609C501.677 287.973 500.613 288.155 499.431 288.155ZM519.738 287.791V270.336H522.42V287.791H519.738ZM521.101 267.427C520.579 267.427 520.128 267.249 519.749 266.893C519.378 266.537 519.192 266.109 519.192 265.609C519.192 265.109 519.378 264.681 519.749 264.325C520.128 263.969 520.579 263.791 521.101 263.791C521.624 263.791 522.071 263.969 522.442 264.325C522.821 264.681 523.01 265.109 523.01 265.609C523.01 266.109 522.821 266.537 522.442 266.893C522.071 267.249 521.624 267.427 521.101 267.427ZM530.013 277.291V287.791H527.331V270.336H529.922V273.064H530.15C530.559 272.177 531.18 271.465 532.013 270.927C532.847 270.382 533.922 270.109 535.241 270.109C536.422 270.109 537.456 270.352 538.343 270.836C539.229 271.314 539.919 272.041 540.411 273.018C540.903 273.988 541.15 275.215 541.15 276.7V287.791H538.468V276.882C538.468 275.511 538.112 274.443 537.4 273.677C536.688 272.905 535.71 272.518 534.468 272.518C533.612 272.518 532.847 272.704 532.172 273.075C531.506 273.446 530.979 273.988 530.593 274.7C530.206 275.412 530.013 276.276 530.013 277.291ZM553.641 270.336V272.609H544.596V270.336H553.641ZM547.232 266.155H549.914V282.791C549.914 283.549 550.024 284.117 550.243 284.496C550.471 284.867 550.759 285.117 551.107 285.246C551.463 285.367 551.838 285.427 552.232 285.427C552.528 285.427 552.77 285.412 552.959 285.382C553.149 285.344 553.3 285.314 553.414 285.291L553.959 287.7C553.778 287.768 553.524 287.836 553.198 287.905C552.872 287.98 552.459 288.018 551.959 288.018C551.202 288.018 550.459 287.855 549.732 287.53C549.012 287.204 548.414 286.708 547.937 286.041C547.467 285.374 547.232 284.533 547.232 283.518V266.155ZM568.675 280.655V270.336H571.357V287.791H568.675V284.836H568.493C568.084 285.723 567.448 286.477 566.584 287.098C565.721 287.711 564.63 288.018 563.312 288.018C562.221 288.018 561.251 287.78 560.403 287.302C559.554 286.818 558.887 286.09 558.403 285.121C557.918 284.143 557.675 282.912 557.675 281.427V270.336H560.357V281.246C560.357 282.518 560.713 283.533 561.425 284.291C562.145 285.049 563.062 285.427 564.175 285.427C564.842 285.427 565.52 285.257 566.209 284.916C566.906 284.575 567.49 284.052 567.959 283.348C568.437 282.643 568.675 281.746 568.675 280.655ZM576.269 287.791V270.336H578.951V287.791H576.269ZM577.633 267.427C577.11 267.427 576.659 267.249 576.28 266.893C575.909 266.537 575.724 266.109 575.724 265.609C575.724 265.109 575.909 264.681 576.28 264.325C576.659 263.969 577.11 263.791 577.633 263.791C578.155 263.791 578.602 263.969 578.974 264.325C579.352 264.681 579.542 265.109 579.542 265.609C579.542 266.109 579.352 266.537 578.974 266.893C578.602 267.249 578.155 267.427 577.633 267.427ZM591.454 270.336V272.609H582.408V270.336H591.454ZM585.045 266.155H587.726V282.791C587.726 283.549 587.836 284.117 588.056 284.496C588.283 284.867 588.571 285.117 588.92 285.246C589.276 285.367 589.651 285.427 590.045 285.427C590.34 285.427 590.582 285.412 590.772 285.382C590.961 285.344 591.113 285.314 591.226 285.291L591.772 287.7C591.59 287.768 591.336 287.836 591.01 287.905C590.685 287.98 590.272 288.018 589.772 288.018C589.014 288.018 588.272 287.855 587.545 287.53C586.825 287.204 586.226 286.708 585.749 286.041C585.279 285.374 585.045 284.533 585.045 283.518V266.155ZM595.488 287.791V270.336H598.17V287.791H595.488ZM596.851 267.427C596.329 267.427 595.878 267.249 595.499 266.893C595.128 266.537 594.942 266.109 594.942 265.609C594.942 265.109 595.128 264.681 595.499 264.325C595.878 263.969 596.329 263.791 596.851 263.791C597.374 263.791 597.821 263.969 598.192 264.325C598.571 264.681 598.76 265.109 598.76 265.609C598.76 266.109 598.571 266.537 598.192 266.893C597.821 267.249 597.374 267.427 596.851 267.427ZM610.172 288.155C608.597 288.155 607.214 287.78 606.025 287.03C604.843 286.28 603.919 285.23 603.252 283.882C602.593 282.533 602.263 280.958 602.263 279.155C602.263 277.336 602.593 275.749 603.252 274.393C603.919 273.037 604.843 271.984 606.025 271.234C607.214 270.484 608.597 270.109 610.172 270.109C611.748 270.109 613.127 270.484 614.309 271.234C615.498 271.984 616.422 273.037 617.081 274.393C617.748 275.749 618.081 277.336 618.081 279.155C618.081 280.958 617.748 282.533 617.081 283.882C616.422 285.23 615.498 286.28 614.309 287.03C613.127 287.78 611.748 288.155 610.172 288.155ZM610.172 285.746C611.369 285.746 612.354 285.439 613.127 284.825C613.9 284.211 614.472 283.405 614.843 282.405C615.214 281.405 615.4 280.321 615.4 279.155C615.4 277.988 615.214 276.901 614.843 275.893C614.472 274.886 613.9 274.071 613.127 273.45C612.354 272.829 611.369 272.518 610.172 272.518C608.975 272.518 607.991 272.829 607.218 273.45C606.445 274.071 605.873 274.886 605.502 275.893C605.131 276.901 604.945 277.988 604.945 279.155C604.945 280.321 605.131 281.405 605.502 282.405C605.873 283.405 606.445 284.211 607.218 284.825C607.991 285.439 608.975 285.746 610.172 285.746ZM624.857 277.291V287.791H622.175V270.336H624.766V273.064H624.993C625.403 272.177 626.024 271.465 626.857 270.927C627.69 270.382 628.766 270.109 630.084 270.109C631.266 270.109 632.3 270.352 633.187 270.836C634.073 271.314 634.762 272.041 635.255 273.018C635.747 273.988 635.993 275.215 635.993 276.7V287.791H633.312V276.882C633.312 275.511 632.956 274.443 632.243 273.677C631.531 272.905 630.554 272.518 629.312 272.518C628.456 272.518 627.69 272.704 627.016 273.075C626.349 273.446 625.823 273.988 625.437 274.7C625.05 275.412 624.857 276.276 624.857 277.291ZM657.485 270.336V272.609H648.439V270.336H657.485ZM651.076 266.155H653.758V282.791C653.758 283.549 653.867 284.117 654.087 284.496C654.314 284.867 654.602 285.117 654.951 285.246C655.307 285.367 655.682 285.427 656.076 285.427C656.371 285.427 656.614 285.412 656.803 285.382C656.992 285.344 657.144 285.314 657.258 285.291L657.803 287.7C657.621 287.768 657.367 287.836 657.042 287.905C656.716 287.98 656.303 288.018 655.803 288.018C655.046 288.018 654.303 287.855 653.576 287.53C652.856 287.204 652.258 286.708 651.78 286.041C651.311 285.374 651.076 284.533 651.076 283.518V266.155ZM664.576 277.291V287.791H661.894V264.518H664.576V273.064H664.803C665.212 272.162 665.826 271.446 666.644 270.916C667.47 270.378 668.568 270.109 669.939 270.109C671.129 270.109 672.171 270.348 673.064 270.825C673.958 271.295 674.652 272.018 675.144 272.996C675.644 273.965 675.894 275.2 675.894 276.7V287.791H673.212V276.882C673.212 275.496 672.852 274.424 672.133 273.666C671.421 272.901 670.432 272.518 669.167 272.518C668.288 272.518 667.5 272.704 666.803 273.075C666.114 273.446 665.568 273.988 665.167 274.7C664.773 275.412 664.576 276.276 664.576 277.291ZM685.937 288.2C684.831 288.2 683.827 287.992 682.925 287.575C682.024 287.151 681.308 286.541 680.778 285.746C680.247 284.943 679.982 283.973 679.982 282.836C679.982 281.836 680.179 281.026 680.573 280.405C680.967 279.776 681.493 279.283 682.153 278.927C682.812 278.571 683.539 278.306 684.334 278.132C685.137 277.95 685.944 277.806 686.755 277.7C687.815 277.564 688.675 277.461 689.334 277.393C690.001 277.318 690.486 277.193 690.789 277.018C691.099 276.844 691.255 276.541 691.255 276.109V276.018C691.255 274.897 690.948 274.026 690.334 273.405C689.728 272.783 688.808 272.473 687.573 272.473C686.293 272.473 685.289 272.753 684.562 273.314C683.834 273.874 683.323 274.473 683.028 275.109L680.482 274.2C680.937 273.139 681.543 272.314 682.3 271.723C683.065 271.124 683.899 270.708 684.8 270.473C685.709 270.23 686.603 270.109 687.482 270.109C688.043 270.109 688.687 270.177 689.414 270.314C690.149 270.443 690.857 270.711 691.539 271.121C692.228 271.53 692.8 272.147 693.255 272.973C693.709 273.799 693.937 274.905 693.937 276.291V287.791H691.255V285.427H691.118C690.937 285.806 690.634 286.211 690.209 286.643C689.785 287.075 689.221 287.443 688.516 287.746C687.812 288.049 686.952 288.2 685.937 288.2ZM686.346 285.791C687.406 285.791 688.3 285.583 689.028 285.166C689.762 284.749 690.315 284.211 690.687 283.552C691.065 282.893 691.255 282.2 691.255 281.473V279.018C691.141 279.155 690.891 279.28 690.505 279.393C690.126 279.499 689.687 279.594 689.187 279.677C688.694 279.753 688.213 279.821 687.743 279.882C687.281 279.935 686.906 279.98 686.618 280.018C685.921 280.109 685.27 280.257 684.664 280.461C684.065 280.658 683.581 280.958 683.209 281.359C682.846 281.753 682.664 282.291 682.664 282.973C682.664 283.905 683.009 284.609 683.698 285.086C684.395 285.556 685.278 285.791 686.346 285.791ZM706.422 270.336V272.609H697.377V270.336H706.422ZM700.013 266.155H702.695V282.791C702.695 283.549 702.805 284.117 703.025 284.496C703.252 284.867 703.54 285.117 703.888 285.246C704.244 285.367 704.619 285.427 705.013 285.427C705.309 285.427 705.551 285.412 705.741 285.382C705.93 285.344 706.081 285.314 706.195 285.291L706.741 287.7C706.559 287.768 706.305 287.836 705.979 287.905C705.653 287.98 705.241 288.018 704.741 288.018C703.983 288.018 703.241 287.855 702.513 287.53C701.794 287.204 701.195 286.708 700.718 286.041C700.248 285.374 700.013 284.533 700.013 283.518V266.155ZM724.593 288.2C723.487 288.2 722.483 287.992 721.581 287.575C720.68 287.151 719.964 286.541 719.434 285.746C718.903 284.943 718.638 283.973 718.638 282.836C718.638 281.836 718.835 281.026 719.229 280.405C719.623 279.776 720.15 279.283 720.809 278.927C721.468 278.571 722.195 278.306 722.991 278.132C723.794 277.95 724.6 277.806 725.411 277.7C726.472 277.564 727.331 277.461 727.991 277.393C728.657 277.318 729.142 277.193 729.445 277.018C729.756 276.844 729.911 276.541 729.911 276.109V276.018C729.911 274.897 729.604 274.026 728.991 273.405C728.385 272.783 727.464 272.473 726.229 272.473C724.949 272.473 723.945 272.753 723.218 273.314C722.491 273.874 721.979 274.473 721.684 275.109L719.138 274.2C719.593 273.139 720.199 272.314 720.956 271.723C721.722 271.124 722.555 270.708 723.456 270.473C724.366 270.23 725.26 270.109 726.138 270.109C726.699 270.109 727.343 270.177 728.07 270.314C728.805 270.443 729.513 270.711 730.195 271.121C730.885 271.53 731.456 272.147 731.911 272.973C732.366 273.799 732.593 274.905 732.593 276.291V287.791H729.911V285.427H729.775C729.593 285.806 729.29 286.211 728.866 286.643C728.441 287.075 727.877 287.443 727.172 287.746C726.468 288.049 725.608 288.2 724.593 288.2ZM725.002 285.791C726.063 285.791 726.956 285.583 727.684 285.166C728.419 284.749 728.972 284.211 729.343 283.552C729.722 282.893 729.911 282.2 729.911 281.473V279.018C729.797 279.155 729.547 279.28 729.161 279.393C728.782 279.499 728.343 279.594 727.843 279.677C727.35 279.753 726.869 279.821 726.4 279.882C725.938 279.935 725.563 279.98 725.275 280.018C724.578 280.109 723.926 280.257 723.32 280.461C722.722 280.658 722.237 280.958 721.866 281.359C721.502 281.753 721.32 282.291 721.32 282.973C721.32 283.905 721.665 284.609 722.354 285.086C723.051 285.556 723.934 285.791 725.002 285.791ZM753.579 288.155C751.942 288.155 750.533 287.768 749.351 286.996C748.17 286.223 747.26 285.158 746.624 283.802C745.988 282.446 745.67 280.897 745.67 279.155C745.67 277.382 745.995 275.818 746.647 274.461C747.306 273.098 748.223 272.033 749.397 271.268C750.579 270.496 751.957 270.109 753.533 270.109C754.76 270.109 755.867 270.336 756.851 270.791C757.836 271.246 758.643 271.882 759.272 272.7C759.901 273.518 760.291 274.473 760.442 275.564H757.76C757.556 274.768 757.101 274.064 756.397 273.45C755.7 272.829 754.76 272.518 753.579 272.518C752.533 272.518 751.617 272.791 750.829 273.336C750.048 273.874 749.439 274.636 748.999 275.621C748.567 276.598 748.351 277.746 748.351 279.064C748.351 280.412 748.564 281.586 748.988 282.586C749.42 283.586 750.026 284.363 750.806 284.916C751.594 285.469 752.518 285.746 753.579 285.746C754.276 285.746 754.908 285.624 755.476 285.382C756.045 285.14 756.526 284.791 756.92 284.336C757.314 283.882 757.594 283.336 757.76 282.7H760.442C760.291 283.73 759.916 284.658 759.317 285.484C758.726 286.302 757.942 286.954 756.965 287.439C755.995 287.916 754.867 288.155 753.579 288.155ZM767.045 264.518V287.791H764.363V264.518H767.045ZM771.956 287.791V270.336H774.638V287.791H771.956ZM773.32 267.427C772.797 267.427 772.347 267.249 771.968 266.893C771.597 266.537 771.411 266.109 771.411 265.609C771.411 265.109 771.597 264.681 771.968 264.325C772.347 263.969 772.797 263.791 773.32 263.791C773.843 263.791 774.29 263.969 774.661 264.325C775.04 264.681 775.229 265.109 775.229 265.609C775.229 266.109 775.04 266.537 774.661 266.893C774.29 267.249 773.843 267.427 773.32 267.427ZM786.868 288.155C785.187 288.155 783.736 287.783 782.516 287.041C781.304 286.291 780.368 285.246 779.709 283.905C779.058 282.556 778.732 280.988 778.732 279.2C778.732 277.412 779.058 275.836 779.709 274.473C780.368 273.102 781.285 272.033 782.459 271.268C783.641 270.496 785.02 270.109 786.596 270.109C787.505 270.109 788.403 270.261 789.289 270.564C790.175 270.867 790.982 271.359 791.709 272.041C792.437 272.715 793.016 273.609 793.448 274.723C793.88 275.836 794.096 277.208 794.096 278.836V279.973H780.641V277.655H791.368C791.368 276.67 791.171 275.791 790.778 275.018C790.391 274.246 789.838 273.636 789.118 273.189C788.406 272.742 787.565 272.518 786.596 272.518C785.528 272.518 784.603 272.783 783.823 273.314C783.05 273.836 782.456 274.518 782.039 275.359C781.622 276.2 781.414 277.102 781.414 278.064V279.609C781.414 280.927 781.641 282.045 782.096 282.961C782.558 283.871 783.198 284.564 784.016 285.041C784.834 285.511 785.785 285.746 786.868 285.746C787.573 285.746 788.209 285.647 788.778 285.45C789.353 285.246 789.849 284.943 790.266 284.541C790.683 284.132 791.005 283.624 791.232 283.018L793.823 283.746C793.55 284.624 793.092 285.397 792.448 286.064C791.804 286.723 791.009 287.238 790.062 287.609C789.115 287.973 788.05 288.155 786.868 288.155ZM800.857 277.291V287.791H798.175V270.336H800.766V273.064H800.993C801.403 272.177 802.024 271.465 802.857 270.927C803.69 270.382 804.766 270.109 806.084 270.109C807.266 270.109 808.3 270.352 809.187 270.836C810.073 271.314 810.762 272.041 811.255 273.018C811.747 273.988 811.993 275.215 811.993 276.7V287.791H809.312V276.882C809.312 275.511 808.956 274.443 808.243 273.677C807.531 272.905 806.554 272.518 805.312 272.518C804.456 272.518 803.69 272.704 803.016 273.075C802.349 273.446 801.823 273.988 801.437 274.7C801.05 275.412 800.857 276.276 800.857 277.291ZM824.485 270.336V272.609H815.439V270.336H824.485ZM818.076 266.155H820.758V282.791C820.758 283.549 820.867 284.117 821.087 284.496C821.314 284.867 821.602 285.117 821.951 285.246C822.307 285.367 822.682 285.427 823.076 285.427C823.371 285.427 823.614 285.412 823.803 285.382C823.992 285.344 824.144 285.314 824.258 285.291L824.803 287.7C824.621 287.768 824.367 287.836 824.042 287.905C823.716 287.98 823.303 288.018 822.803 288.018C822.046 288.018 821.303 287.855 820.576 287.53C819.856 287.204 819.258 286.708 818.78 286.041C818.311 285.374 818.076 284.533 818.076 283.518V266.155ZM837.519 287.791V270.336H840.11V272.973H840.292C840.61 272.109 841.186 271.408 842.019 270.871C842.852 270.333 843.792 270.064 844.837 270.064C845.034 270.064 845.28 270.068 845.576 270.075C845.871 270.083 846.095 270.094 846.246 270.109V272.836C846.155 272.814 845.947 272.78 845.621 272.734C845.303 272.681 844.966 272.655 844.61 272.655C843.761 272.655 843.004 272.833 842.337 273.189C841.678 273.537 841.155 274.022 840.769 274.643C840.39 275.257 840.201 275.958 840.201 276.746V287.791H837.519ZM856.212 288.155C854.53 288.155 853.08 287.783 851.86 287.041C850.648 286.291 849.712 285.246 849.053 283.905C848.402 282.556 848.076 280.988 848.076 279.2C848.076 277.412 848.402 275.836 849.053 274.473C849.712 273.102 850.629 272.033 851.803 271.268C852.985 270.496 854.364 270.109 855.939 270.109C856.849 270.109 857.746 270.261 858.633 270.564C859.519 270.867 860.326 271.359 861.053 272.041C861.78 272.715 862.36 273.609 862.792 274.723C863.224 275.836 863.439 277.208 863.439 278.836V279.973H849.985V277.655H860.712C860.712 276.67 860.515 275.791 860.121 275.018C859.735 274.246 859.182 273.636 858.462 273.189C857.75 272.742 856.909 272.518 855.939 272.518C854.871 272.518 853.947 272.783 853.167 273.314C852.394 273.836 851.799 274.518 851.383 275.359C850.966 276.2 850.758 277.102 850.758 278.064V279.609C850.758 280.927 850.985 282.045 851.439 282.961C851.902 283.871 852.542 284.564 853.36 285.041C854.178 285.511 855.129 285.746 856.212 285.746C856.917 285.746 857.553 285.647 858.121 285.45C858.697 285.246 859.193 284.943 859.61 284.541C860.027 284.132 860.349 283.624 860.576 283.018L863.167 283.746C862.894 284.624 862.436 285.397 861.792 286.064C861.148 286.723 860.352 287.238 859.405 287.609C858.458 287.973 857.394 288.155 856.212 288.155ZM867.519 294.336V270.336H870.11V273.109H870.428C870.625 272.806 870.898 272.42 871.246 271.95C871.602 271.473 872.11 271.049 872.769 270.677C873.436 270.299 874.337 270.109 875.474 270.109C876.943 270.109 878.239 270.477 879.36 271.211C880.481 271.946 881.356 272.988 881.985 274.336C882.614 275.685 882.928 277.276 882.928 279.109C882.928 280.958 882.614 282.56 881.985 283.916C881.356 285.265 880.485 286.31 879.371 287.052C878.258 287.787 876.974 288.155 875.519 288.155C874.398 288.155 873.5 287.969 872.826 287.598C872.152 287.219 871.633 286.791 871.269 286.314C870.905 285.829 870.625 285.427 870.428 285.109H870.201V294.336H867.519ZM870.155 279.064C870.155 280.382 870.349 281.545 870.735 282.552C871.121 283.552 871.686 284.336 872.428 284.905C873.171 285.465 874.08 285.746 875.155 285.746C876.277 285.746 877.212 285.45 877.962 284.859C878.72 284.261 879.288 283.458 879.667 282.45C880.053 281.435 880.246 280.306 880.246 279.064C880.246 277.836 880.057 276.73 879.678 275.746C879.307 274.753 878.742 273.969 877.985 273.393C877.235 272.81 876.292 272.518 875.155 272.518C874.064 272.518 873.148 272.795 872.405 273.348C871.663 273.893 871.102 274.658 870.724 275.643C870.345 276.621 870.155 277.761 870.155 279.064ZM887.019 287.791V270.336H889.61V272.973H889.792C890.11 272.109 890.686 271.408 891.519 270.871C892.352 270.333 893.292 270.064 894.337 270.064C894.534 270.064 894.78 270.068 895.076 270.075C895.371 270.083 895.595 270.094 895.746 270.109V272.836C895.655 272.814 895.447 272.78 895.121 272.734C894.803 272.681 894.466 272.655 894.11 272.655C893.261 272.655 892.504 272.833 891.837 273.189C891.178 273.537 890.655 274.022 890.269 274.643C889.89 275.257 889.701 275.958 889.701 276.746V287.791H887.019ZM905.712 288.155C904.03 288.155 902.58 287.783 901.36 287.041C900.148 286.291 899.212 285.246 898.553 283.905C897.902 282.556 897.576 280.988 897.576 279.2C897.576 277.412 897.902 275.836 898.553 274.473C899.212 273.102 900.129 272.033 901.303 271.268C902.485 270.496 903.864 270.109 905.439 270.109C906.349 270.109 907.246 270.261 908.133 270.564C909.019 270.867 909.826 271.359 910.553 272.041C911.28 272.715 911.86 273.609 912.292 274.723C912.724 275.836 912.939 277.208 912.939 278.836V279.973H899.485V277.655H910.212C910.212 276.67 910.015 275.791 909.621 275.018C909.235 274.246 908.682 273.636 907.962 273.189C907.25 272.742 906.409 272.518 905.439 272.518C904.371 272.518 903.447 272.783 902.667 273.314C901.894 273.836 901.299 274.518 900.883 275.359C900.466 276.2 900.258 277.102 900.258 278.064V279.609C900.258 280.927 900.485 282.045 900.939 282.961C901.402 283.871 902.042 284.564 902.86 285.041C903.678 285.511 904.629 285.746 905.712 285.746C906.417 285.746 907.053 285.647 907.621 285.45C908.197 285.246 908.693 284.943 909.11 284.541C909.527 284.132 909.849 283.624 910.076 283.018L912.667 283.746C912.394 284.624 911.936 285.397 911.292 286.064C910.648 286.723 909.852 287.238 908.905 287.609C907.958 287.973 906.894 288.155 905.712 288.155ZM929.383 274.246L926.974 274.927C926.822 274.526 926.599 274.136 926.303 273.757C926.015 273.371 925.621 273.052 925.121 272.802C924.621 272.552 923.981 272.427 923.201 272.427C922.133 272.427 921.242 272.674 920.53 273.166C919.826 273.651 919.474 274.268 919.474 275.018C919.474 275.685 919.716 276.211 920.201 276.598C920.686 276.984 921.443 277.306 922.474 277.564L925.064 278.2C926.625 278.579 927.788 279.158 928.553 279.939C929.318 280.711 929.701 281.708 929.701 282.927C929.701 283.927 929.413 284.821 928.837 285.609C928.269 286.397 927.474 287.018 926.451 287.473C925.428 287.927 924.239 288.155 922.883 288.155C921.102 288.155 919.629 287.768 918.462 286.996C917.296 286.223 916.557 285.094 916.246 283.609L918.792 282.973C919.034 283.912 919.492 284.617 920.167 285.086C920.849 285.556 921.739 285.791 922.837 285.791C924.087 285.791 925.08 285.526 925.814 284.996C926.557 284.458 926.928 283.814 926.928 283.064C926.928 282.458 926.716 281.95 926.292 281.541C925.867 281.124 925.216 280.814 924.337 280.609L921.428 279.927C919.83 279.549 918.655 278.961 917.905 278.166C917.163 277.363 916.792 276.359 916.792 275.155C916.792 274.17 917.068 273.299 917.621 272.541C918.182 271.783 918.943 271.189 919.905 270.757C920.875 270.325 921.974 270.109 923.201 270.109C924.928 270.109 926.284 270.488 927.269 271.246C928.261 272.003 928.966 273.003 929.383 274.246ZM941.056 288.155C939.374 288.155 937.923 287.783 936.704 287.041C935.492 286.291 934.556 285.246 933.897 283.905C933.245 282.556 932.92 280.988 932.92 279.2C932.92 277.412 933.245 275.836 933.897 274.473C934.556 273.102 935.473 272.033 936.647 271.268C937.829 270.496 939.207 270.109 940.783 270.109C941.692 270.109 942.59 270.261 943.476 270.564C944.363 270.867 945.17 271.359 945.897 272.041C946.624 272.715 947.204 273.609 947.635 274.723C948.067 275.836 948.283 277.208 948.283 278.836V279.973H934.829V277.655H945.556C945.556 276.67 945.359 275.791 944.965 275.018C944.579 274.246 944.026 273.636 943.306 273.189C942.594 272.742 941.753 272.518 940.783 272.518C939.715 272.518 938.791 272.783 938.01 273.314C937.238 273.836 936.643 274.518 936.226 275.359C935.81 276.2 935.601 277.102 935.601 278.064V279.609C935.601 280.927 935.829 282.045 936.283 282.961C936.745 283.871 937.385 284.564 938.204 285.041C939.022 285.511 939.973 285.746 941.056 285.746C941.76 285.746 942.397 285.647 942.965 285.45C943.541 285.246 944.037 284.943 944.454 284.541C944.87 284.132 945.192 283.624 945.42 283.018L948.01 283.746C947.738 284.624 947.279 285.397 946.635 286.064C945.992 286.723 945.196 287.238 944.249 287.609C943.302 287.973 942.238 288.155 941.056 288.155ZM955.045 277.291V287.791H952.363V270.336H954.954V273.064H955.181C955.59 272.177 956.211 271.465 957.045 270.927C957.878 270.382 958.954 270.109 960.272 270.109C961.454 270.109 962.488 270.352 963.374 270.836C964.26 271.314 964.95 272.041 965.442 273.018C965.935 273.988 966.181 275.215 966.181 276.7V287.791H963.499V276.882C963.499 275.511 963.143 274.443 962.431 273.677C961.719 272.905 960.742 272.518 959.499 272.518C958.643 272.518 957.878 272.704 957.204 273.075C956.537 273.446 956.01 273.988 955.624 274.7C955.238 275.412 955.045 276.276 955.045 277.291ZM978.672 270.336V272.609H969.627V270.336H978.672ZM972.263 266.155H974.945V282.791C974.945 283.549 975.055 284.117 975.275 284.496C975.502 284.867 975.79 285.117 976.138 285.246C976.494 285.367 976.869 285.427 977.263 285.427C977.559 285.427 977.801 285.412 977.991 285.382C978.18 285.344 978.331 285.314 978.445 285.291L978.991 287.7C978.809 287.768 978.555 287.836 978.229 287.905C977.903 287.98 977.491 288.018 976.991 288.018C976.233 288.018 975.491 287.855 974.763 287.53C974.044 287.204 973.445 286.708 972.968 286.041C972.498 285.374 972.263 284.533 972.263 283.518V266.155ZM994.758 274.246L992.349 274.927C992.197 274.526 991.974 274.136 991.678 273.757C991.39 273.371 990.996 273.052 990.496 272.802C989.996 272.552 989.356 272.427 988.576 272.427C987.508 272.427 986.617 272.674 985.905 273.166C985.201 273.651 984.849 274.268 984.849 275.018C984.849 275.685 985.091 276.211 985.576 276.598C986.061 276.984 986.818 277.306 987.849 277.564L990.439 278.2C992 278.579 993.163 279.158 993.928 279.939C994.693 280.711 995.076 281.708 995.076 282.927C995.076 283.927 994.788 284.821 994.212 285.609C993.644 286.397 992.849 287.018 991.826 287.473C990.803 287.927 989.614 288.155 988.258 288.155C986.477 288.155 985.004 287.768 983.837 286.996C982.671 286.223 981.932 285.094 981.621 283.609L984.167 282.973C984.409 283.912 984.867 284.617 985.542 285.086C986.224 285.556 987.114 285.791 988.212 285.791C989.462 285.791 990.455 285.526 991.189 284.996C991.932 284.458 992.303 283.814 992.303 283.064C992.303 282.458 992.091 281.95 991.667 281.541C991.242 281.124 990.591 280.814 989.712 280.609L986.803 279.927C985.205 279.549 984.03 278.961 983.28 278.166C982.538 277.363 982.167 276.359 982.167 275.155C982.167 274.17 982.443 273.299 982.996 272.541C983.557 271.783 984.318 271.189 985.28 270.757C986.25 270.325 987.349 270.109 988.576 270.109C990.303 270.109 991.659 270.488 992.644 271.246C993.636 272.003 994.341 273.003 994.758 274.246ZM1013.25 288.2C1012.14 288.2 1011.14 287.992 1010.24 287.575C1009.34 287.151 1008.62 286.541 1008.09 285.746C1007.56 284.943 1007.29 283.973 1007.29 282.836C1007.29 281.836 1007.49 281.026 1007.89 280.405C1008.28 279.776 1008.81 279.283 1009.47 278.927C1010.12 278.571 1010.85 278.306 1011.65 278.132C1012.45 277.95 1013.26 277.806 1014.07 277.7C1015.13 277.564 1015.99 277.461 1016.65 277.393C1017.31 277.318 1017.8 277.193 1018.1 277.018C1018.41 276.844 1018.57 276.541 1018.57 276.109V276.018C1018.57 274.897 1018.26 274.026 1017.65 273.405C1017.04 272.783 1016.12 272.473 1014.89 272.473C1013.61 272.473 1012.6 272.753 1011.87 273.314C1011.15 273.874 1010.64 274.473 1010.34 275.109L1007.79 274.2C1008.25 273.139 1008.86 272.314 1009.61 271.723C1010.38 271.124 1011.21 270.708 1012.11 270.473C1013.02 270.23 1013.92 270.109 1014.79 270.109C1015.36 270.109 1016 270.177 1016.73 270.314C1017.46 270.443 1018.17 270.711 1018.85 271.121C1019.54 271.53 1020.11 272.147 1020.57 272.973C1021.02 273.799 1021.25 274.905 1021.25 276.291V287.791H1018.57V285.427H1018.43C1018.25 285.806 1017.95 286.211 1017.52 286.643C1017.1 287.075 1016.53 287.443 1015.83 287.746C1015.12 288.049 1014.26 288.2 1013.25 288.2ZM1013.66 285.791C1014.72 285.791 1015.61 285.583 1016.34 285.166C1017.07 284.749 1017.63 284.211 1018 283.552C1018.38 282.893 1018.57 282.2 1018.57 281.473V279.018C1018.45 279.155 1018.2 279.28 1017.82 279.393C1017.44 279.499 1017 279.594 1016.5 279.677C1016.01 279.753 1015.53 279.821 1015.06 279.882C1014.59 279.935 1014.22 279.98 1013.93 280.018C1013.23 280.109 1012.58 280.257 1011.98 280.461C1011.38 280.658 1010.89 280.958 1010.52 281.359C1010.16 281.753 1009.98 282.291 1009.98 282.973C1009.98 283.905 1010.32 284.609 1011.01 285.086C1011.71 285.556 1012.59 285.791 1013.66 285.791ZM1047.51 274.246L1045.1 274.927C1044.95 274.526 1044.72 274.136 1044.43 273.757C1044.14 273.371 1043.75 273.052 1043.25 272.802C1042.75 272.552 1042.11 272.427 1041.33 272.427C1040.26 272.427 1039.37 272.674 1038.66 273.166C1037.95 273.651 1037.6 274.268 1037.6 275.018C1037.6 275.685 1037.84 276.211 1038.33 276.598C1038.81 276.984 1039.57 277.306 1040.6 277.564L1043.19 278.2C1044.75 278.579 1045.91 279.158 1046.68 279.939C1047.44 280.711 1047.83 281.708 1047.83 282.927C1047.83 283.927 1047.54 284.821 1046.96 285.609C1046.39 286.397 1045.6 287.018 1044.58 287.473C1043.55 287.927 1042.36 288.155 1041.01 288.155C1039.23 288.155 1037.75 287.768 1036.59 286.996C1035.42 286.223 1034.68 285.094 1034.37 283.609L1036.92 282.973C1037.16 283.912 1037.62 284.617 1038.29 285.086C1038.97 285.556 1039.86 285.791 1040.96 285.791C1042.21 285.791 1043.2 285.526 1043.94 284.996C1044.68 284.458 1045.05 283.814 1045.05 283.064C1045.05 282.458 1044.84 281.95 1044.42 281.541C1043.99 281.124 1043.34 280.814 1042.46 280.609L1039.55 279.927C1037.95 279.549 1036.78 278.961 1036.03 278.166C1035.29 277.363 1034.92 276.359 1034.92 275.155C1034.92 274.17 1035.19 273.299 1035.75 272.541C1036.31 271.783 1037.07 271.189 1038.03 270.757C1039 270.325 1040.1 270.109 1041.33 270.109C1043.05 270.109 1044.41 270.488 1045.39 271.246C1046.39 272.003 1047.09 273.003 1047.51 274.246ZM1054.54 277.291V287.791H1051.86V264.518H1054.54V273.064H1054.77C1055.18 272.162 1055.79 271.446 1056.61 270.916C1057.44 270.378 1058.54 270.109 1059.91 270.109C1061.1 270.109 1062.14 270.348 1063.03 270.825C1063.93 271.295 1064.62 272.018 1065.11 272.996C1065.61 273.965 1065.86 275.2 1065.86 276.7V287.791H1063.18V276.882C1063.18 275.496 1062.82 274.424 1062.1 273.666C1061.39 272.901 1060.4 272.518 1059.14 272.518C1058.26 272.518 1057.47 272.704 1056.77 273.075C1056.08 273.446 1055.54 273.988 1055.14 274.7C1054.74 275.412 1054.54 276.276 1054.54 277.291ZM1075.91 288.2C1074.8 288.2 1073.8 287.992 1072.89 287.575C1071.99 287.151 1071.28 286.541 1070.75 285.746C1070.22 284.943 1069.95 283.973 1069.95 282.836C1069.95 281.836 1070.15 281.026 1070.54 280.405C1070.94 279.776 1071.46 279.283 1072.12 278.927C1072.78 278.571 1073.51 278.306 1074.3 278.132C1075.11 277.95 1075.91 277.806 1076.72 277.7C1077.78 277.564 1078.64 277.461 1079.3 277.393C1079.97 277.318 1080.45 277.193 1080.76 277.018C1081.07 276.844 1081.22 276.541 1081.22 276.109V276.018C1081.22 274.897 1080.92 274.026 1080.3 273.405C1079.7 272.783 1078.78 272.473 1077.54 272.473C1076.26 272.473 1075.26 272.753 1074.53 273.314C1073.8 273.874 1073.29 274.473 1073 275.109L1070.45 274.2C1070.91 273.139 1071.51 272.314 1072.27 271.723C1073.03 271.124 1073.87 270.708 1074.77 270.473C1075.68 270.23 1076.57 270.109 1077.45 270.109C1078.01 270.109 1078.66 270.177 1079.38 270.314C1080.12 270.443 1080.83 270.711 1081.51 271.121C1082.2 271.53 1082.77 272.147 1083.22 272.973C1083.68 273.799 1083.91 274.905 1083.91 276.291V287.791H1081.22V285.427H1081.09C1080.91 285.806 1080.6 286.211 1080.18 286.643C1079.75 287.075 1079.19 287.443 1078.48 287.746C1077.78 288.049 1076.92 288.2 1075.91 288.2ZM1076.31 285.791C1077.38 285.791 1078.27 285.583 1079 285.166C1079.73 284.749 1080.28 284.211 1080.66 283.552C1081.03 282.893 1081.22 282.2 1081.22 281.473V279.018C1081.11 279.155 1080.86 279.28 1080.47 279.393C1080.09 279.499 1079.66 279.594 1079.16 279.677C1078.66 279.753 1078.18 279.821 1077.71 279.882C1077.25 279.935 1076.88 279.98 1076.59 280.018C1075.89 280.109 1075.24 280.257 1074.63 280.461C1074.03 280.658 1073.55 280.958 1073.18 281.359C1072.81 281.753 1072.63 282.291 1072.63 282.973C1072.63 283.905 1072.98 284.609 1073.67 285.086C1074.36 285.556 1075.25 285.791 1076.31 285.791ZM1088.8 287.791V270.336H1091.39V272.973H1091.57C1091.89 272.109 1092.47 271.408 1093.3 270.871C1094.13 270.333 1095.07 270.064 1096.12 270.064C1096.32 270.064 1096.56 270.068 1096.86 270.075C1097.15 270.083 1097.38 270.094 1097.53 270.109V272.836C1097.44 272.814 1097.23 272.78 1096.9 272.734C1096.58 272.681 1096.25 272.655 1095.89 272.655C1095.04 272.655 1094.29 272.833 1093.62 273.189C1092.96 273.537 1092.44 274.022 1092.05 274.643C1091.67 275.257 1091.48 275.958 1091.48 276.746V287.791H1088.8ZM1107.49 288.155C1105.81 288.155 1104.36 287.783 1103.14 287.041C1101.93 286.291 1100.99 285.246 1100.33 283.905C1099.68 282.556 1099.36 280.988 1099.36 279.2C1099.36 277.412 1099.68 275.836 1100.33 274.473C1100.99 273.102 1101.91 272.033 1103.08 271.268C1104.27 270.496 1105.64 270.109 1107.22 270.109C1108.13 270.109 1109.03 270.261 1109.91 270.564C1110.8 270.867 1111.61 271.359 1112.33 272.041C1113.06 272.715 1113.64 273.609 1114.07 274.723C1114.5 275.836 1114.72 277.208 1114.72 278.836V279.973H1101.27V277.655H1111.99C1111.99 276.67 1111.8 275.791 1111.4 275.018C1111.02 274.246 1110.46 273.636 1109.74 273.189C1109.03 272.742 1108.19 272.518 1107.22 272.518C1106.15 272.518 1105.23 272.783 1104.45 273.314C1103.68 273.836 1103.08 274.518 1102.66 275.359C1102.25 276.2 1102.04 277.102 1102.04 278.064V279.609C1102.04 280.927 1102.27 282.045 1102.72 282.961C1103.18 283.871 1103.82 284.564 1104.64 285.041C1105.46 285.511 1106.41 285.746 1107.49 285.746C1108.2 285.746 1108.83 285.647 1109.4 285.45C1109.98 285.246 1110.47 284.943 1110.89 284.541C1111.31 284.132 1111.63 283.624 1111.86 283.018L1114.45 283.746C1114.18 284.624 1113.72 285.397 1113.07 286.064C1112.43 286.723 1111.63 287.238 1110.69 287.609C1109.74 287.973 1108.68 288.155 1107.49 288.155ZM1125.39 288.155C1123.94 288.155 1122.65 287.787 1121.54 287.052C1120.43 286.31 1119.55 285.265 1118.93 283.916C1118.3 282.56 1117.98 280.958 1117.98 279.109C1117.98 277.276 1118.3 275.685 1118.93 274.336C1119.55 272.988 1120.43 271.946 1121.55 271.211C1122.67 270.477 1123.97 270.109 1125.44 270.109C1126.57 270.109 1127.47 270.299 1128.13 270.677C1128.8 271.049 1129.3 271.473 1129.65 271.95C1130.01 272.42 1130.29 272.806 1130.48 273.109H1130.71V264.518H1133.39V287.791H1130.8V285.109H1130.48C1130.29 285.427 1130 285.829 1129.64 286.314C1129.28 286.791 1128.76 287.219 1128.08 287.598C1127.41 287.969 1126.51 288.155 1125.39 288.155ZM1125.75 285.746C1126.83 285.746 1127.74 285.465 1128.48 284.905C1129.22 284.336 1129.79 283.552 1130.18 282.552C1130.56 281.545 1130.75 280.382 1130.75 279.064C1130.75 277.761 1130.57 276.621 1130.19 275.643C1129.81 274.658 1129.25 273.893 1128.5 273.348C1127.76 272.795 1126.85 272.518 1125.75 272.518C1124.62 272.518 1123.67 272.81 1122.91 273.393C1122.16 273.969 1121.6 274.753 1121.22 275.746C1120.85 276.73 1120.66 277.836 1120.66 279.064C1120.66 280.306 1120.85 281.435 1121.23 282.45C1121.62 283.458 1122.19 284.261 1122.94 284.859C1123.69 285.45 1124.63 285.746 1125.75 285.746ZM1147.68 287.791V270.336H1150.27V272.973H1150.45C1150.77 272.109 1151.34 271.408 1152.18 270.871C1153.01 270.333 1153.95 270.064 1154.99 270.064C1155.19 270.064 1155.44 270.068 1155.73 270.075C1156.03 270.083 1156.25 270.094 1156.4 270.109V272.836C1156.31 272.814 1156.1 272.78 1155.78 272.734C1155.46 272.681 1155.12 272.655 1154.77 272.655C1153.92 272.655 1153.16 272.833 1152.49 273.189C1151.83 273.537 1151.31 274.022 1150.93 274.643C1150.55 275.257 1150.36 275.958 1150.36 276.746V287.791H1147.68ZM1166.37 288.155C1164.69 288.155 1163.24 287.783 1162.02 287.041C1160.8 286.291 1159.87 285.246 1159.21 283.905C1158.56 282.556 1158.23 280.988 1158.23 279.2C1158.23 277.412 1158.56 275.836 1159.21 274.473C1159.87 273.102 1160.79 272.033 1161.96 271.268C1163.14 270.496 1164.52 270.109 1166.1 270.109C1167 270.109 1167.9 270.261 1168.79 270.564C1169.68 270.867 1170.48 271.359 1171.21 272.041C1171.94 272.715 1172.52 273.609 1172.95 274.723C1173.38 275.836 1173.6 277.208 1173.6 278.836V279.973H1160.14V277.655H1170.87C1170.87 276.67 1170.67 275.791 1170.28 275.018C1169.89 274.246 1169.34 273.636 1168.62 273.189C1167.91 272.742 1167.07 272.518 1166.1 272.518C1165.03 272.518 1164.1 272.783 1163.32 273.314C1162.55 273.836 1161.96 274.518 1161.54 275.359C1161.12 276.2 1160.91 277.102 1160.91 278.064V279.609C1160.91 280.927 1161.14 282.045 1161.6 282.961C1162.06 283.871 1162.7 284.564 1163.52 285.041C1164.33 285.511 1165.29 285.746 1166.37 285.746C1167.07 285.746 1167.71 285.647 1168.28 285.45C1168.85 285.246 1169.35 284.943 1169.77 284.541C1170.18 284.132 1170.5 283.624 1170.73 283.018L1173.32 283.746C1173.05 284.624 1172.59 285.397 1171.95 286.064C1171.3 286.723 1170.51 287.238 1169.56 287.609C1168.61 287.973 1167.55 288.155 1166.37 288.155ZM1190.04 274.246L1187.63 274.927C1187.48 274.526 1187.25 274.136 1186.96 273.757C1186.67 273.371 1186.28 273.052 1185.78 272.802C1185.28 272.552 1184.64 272.427 1183.86 272.427C1182.79 272.427 1181.9 272.674 1181.19 273.166C1180.48 273.651 1180.13 274.268 1180.13 275.018C1180.13 275.685 1180.37 276.211 1180.86 276.598C1181.34 276.984 1182.1 277.306 1183.13 277.564L1185.72 278.2C1187.28 278.579 1188.44 279.158 1189.21 279.939C1189.97 280.711 1190.36 281.708 1190.36 282.927C1190.36 283.927 1190.07 284.821 1189.49 285.609C1188.93 286.397 1188.13 287.018 1187.11 287.473C1186.08 287.927 1184.89 288.155 1183.54 288.155C1181.76 288.155 1180.29 287.768 1179.12 286.996C1177.95 286.223 1177.21 285.094 1176.9 283.609L1179.45 282.973C1179.69 283.912 1180.15 284.617 1180.82 285.086C1181.5 285.556 1182.39 285.791 1183.49 285.791C1184.74 285.791 1185.74 285.526 1186.47 284.996C1187.21 284.458 1187.58 283.814 1187.58 283.064C1187.58 282.458 1187.37 281.95 1186.95 281.541C1186.52 281.124 1185.87 280.814 1184.99 280.609L1182.08 279.927C1180.49 279.549 1179.31 278.961 1178.56 278.166C1177.82 277.363 1177.45 276.359 1177.45 275.155C1177.45 274.17 1177.72 273.299 1178.28 272.541C1178.84 271.783 1179.6 271.189 1180.56 270.757C1181.53 270.325 1182.63 270.109 1183.86 270.109C1185.58 270.109 1186.94 270.488 1187.93 271.246C1188.92 272.003 1189.62 273.003 1190.04 274.246ZM1206.76 274.246L1204.35 274.927C1204.2 274.526 1203.97 274.136 1203.68 273.757C1203.39 273.371 1203 273.052 1202.5 272.802C1202 272.552 1201.36 272.427 1200.58 272.427C1199.51 272.427 1198.62 272.674 1197.91 273.166C1197.2 273.651 1196.85 274.268 1196.85 275.018C1196.85 275.685 1197.09 276.211 1197.58 276.598C1198.06 276.984 1198.82 277.306 1199.85 277.564L1202.44 278.2C1204 278.579 1205.16 279.158 1205.93 279.939C1206.69 280.711 1207.08 281.708 1207.08 282.927C1207.08 283.927 1206.79 284.821 1206.21 285.609C1205.64 286.397 1204.85 287.018 1203.83 287.473C1202.8 287.927 1201.61 288.155 1200.26 288.155C1198.48 288.155 1197 287.768 1195.84 286.996C1194.67 286.223 1193.93 285.094 1193.62 283.609L1196.17 282.973C1196.41 283.912 1196.87 284.617 1197.54 285.086C1198.22 285.556 1199.11 285.791 1200.21 285.791C1201.46 285.791 1202.45 285.526 1203.19 284.996C1203.93 284.458 1204.3 283.814 1204.3 283.064C1204.3 282.458 1204.09 281.95 1203.67 281.541C1203.24 281.124 1202.59 280.814 1201.71 280.609L1198.8 279.927C1197.2 279.549 1196.03 278.961 1195.28 278.166C1194.54 277.363 1194.17 276.359 1194.17 275.155C1194.17 274.17 1194.44 273.299 1195 272.541C1195.56 271.783 1196.32 271.189 1197.28 270.757C1198.25 270.325 1199.35 270.109 1200.58 270.109C1202.3 270.109 1203.66 270.488 1204.64 271.246C1205.64 272.003 1206.34 273.003 1206.76 274.246ZM1218.2 288.155C1216.63 288.155 1215.25 287.78 1214.06 287.03C1212.87 286.28 1211.95 285.23 1211.28 283.882C1210.62 282.533 1210.29 280.958 1210.29 279.155C1210.29 277.336 1210.62 275.749 1211.28 274.393C1211.95 273.037 1212.87 271.984 1214.06 271.234C1215.25 270.484 1216.63 270.109 1218.2 270.109C1219.78 270.109 1221.16 270.484 1222.34 271.234C1223.53 271.984 1224.45 273.037 1225.11 274.393C1225.78 275.749 1226.11 277.336 1226.11 279.155C1226.11 280.958 1225.78 282.533 1225.11 283.882C1224.45 285.23 1223.53 286.28 1222.34 287.03C1221.16 287.78 1219.78 288.155 1218.2 288.155ZM1218.2 285.746C1219.4 285.746 1220.39 285.439 1221.16 284.825C1221.93 284.211 1222.5 283.405 1222.87 282.405C1223.25 281.405 1223.43 280.321 1223.43 279.155C1223.43 277.988 1223.25 276.901 1222.87 275.893C1222.5 274.886 1221.93 274.071 1221.16 273.45C1220.39 272.829 1219.4 272.518 1218.2 272.518C1217.01 272.518 1216.02 272.829 1215.25 273.45C1214.48 274.071 1213.9 274.886 1213.53 275.893C1213.16 276.901 1212.98 277.988 1212.98 279.155C1212.98 280.321 1213.16 281.405 1213.53 282.405C1213.9 283.405 1214.48 284.211 1215.25 284.825C1216.02 285.439 1217.01 285.746 1218.2 285.746ZM1241.21 280.655V270.336H1243.89V287.791H1241.21V284.836H1241.02C1240.62 285.723 1239.98 286.477 1239.12 287.098C1238.25 287.711 1237.16 288.018 1235.84 288.018C1234.75 288.018 1233.78 287.78 1232.93 287.302C1232.09 286.818 1231.42 286.09 1230.93 285.121C1230.45 284.143 1230.21 282.912 1230.21 281.427V270.336H1232.89V281.246C1232.89 282.518 1233.24 283.533 1233.96 284.291C1234.68 285.049 1235.59 285.427 1236.71 285.427C1237.37 285.427 1238.05 285.257 1238.74 284.916C1239.44 284.575 1240.02 284.052 1240.49 283.348C1240.97 282.643 1241.21 281.746 1241.21 280.655ZM1248.8 287.791V270.336H1251.39V272.973H1251.57C1251.89 272.109 1252.47 271.408 1253.3 270.871C1254.13 270.333 1255.07 270.064 1256.12 270.064C1256.32 270.064 1256.56 270.068 1256.86 270.075C1257.15 270.083 1257.38 270.094 1257.53 270.109V272.836C1257.44 272.814 1257.23 272.78 1256.9 272.734C1256.58 272.681 1256.25 272.655 1255.89 272.655C1255.04 272.655 1254.29 272.833 1253.62 273.189C1252.96 273.537 1252.44 274.022 1252.05 274.643C1251.67 275.257 1251.48 275.958 1251.48 276.746V287.791H1248.8ZM1267.27 288.155C1265.63 288.155 1264.22 287.768 1263.04 286.996C1261.86 286.223 1260.95 285.158 1260.31 283.802C1259.68 282.446 1259.36 280.897 1259.36 279.155C1259.36 277.382 1259.68 275.818 1260.33 274.461C1260.99 273.098 1261.91 272.033 1263.08 271.268C1264.27 270.496 1265.64 270.109 1267.22 270.109C1268.45 270.109 1269.55 270.336 1270.54 270.791C1271.52 271.246 1272.33 271.882 1272.96 272.7C1273.59 273.518 1273.98 274.473 1274.13 275.564H1271.45C1271.24 274.768 1270.79 274.064 1270.08 273.45C1269.39 272.829 1268.45 272.518 1267.27 272.518C1266.22 272.518 1265.3 272.791 1264.52 273.336C1263.74 273.874 1263.13 274.636 1262.69 275.621C1262.25 276.598 1262.04 277.746 1262.04 279.064C1262.04 280.412 1262.25 281.586 1262.68 282.586C1263.11 283.586 1263.71 284.363 1264.49 284.916C1265.28 285.469 1266.21 285.746 1267.27 285.746C1267.96 285.746 1268.6 285.624 1269.16 285.382C1269.73 285.14 1270.21 284.791 1270.61 284.336C1271 283.882 1271.28 283.336 1271.45 282.7H1274.13C1273.98 283.73 1273.6 284.658 1273 285.484C1272.41 286.302 1271.63 286.954 1270.65 287.439C1269.68 287.916 1268.55 288.155 1267.27 288.155ZM1285.37 288.155C1283.69 288.155 1282.24 287.783 1281.02 287.041C1279.8 286.291 1278.87 285.246 1278.21 283.905C1277.56 282.556 1277.23 280.988 1277.23 279.2C1277.23 277.412 1277.56 275.836 1278.21 274.473C1278.87 273.102 1279.79 272.033 1280.96 271.268C1282.14 270.496 1283.52 270.109 1285.1 270.109C1286 270.109 1286.9 270.261 1287.79 270.564C1288.68 270.867 1289.48 271.359 1290.21 272.041C1290.94 272.715 1291.52 273.609 1291.95 274.723C1292.38 275.836 1292.6 277.208 1292.6 278.836V279.973H1279.14V277.655H1289.87C1289.87 276.67 1289.67 275.791 1289.28 275.018C1288.89 274.246 1288.34 273.636 1287.62 273.189C1286.91 272.742 1286.07 272.518 1285.1 272.518C1284.03 272.518 1283.1 272.783 1282.32 273.314C1281.55 273.836 1280.96 274.518 1280.54 275.359C1280.12 276.2 1279.91 277.102 1279.91 278.064V279.609C1279.91 280.927 1280.14 282.045 1280.6 282.961C1281.06 283.871 1281.7 284.564 1282.52 285.041C1283.33 285.511 1284.29 285.746 1285.37 285.746C1286.07 285.746 1286.71 285.647 1287.28 285.45C1287.85 285.246 1288.35 284.943 1288.77 284.541C1289.18 284.132 1289.5 283.624 1289.73 283.018L1292.32 283.746C1292.05 284.624 1291.59 285.397 1290.95 286.064C1290.3 286.723 1289.51 287.238 1288.56 287.609C1287.61 287.973 1286.55 288.155 1285.37 288.155Z" fill="black"/>
</g>
</svg>
