<svg width="1920" height="1080" viewBox="0 0 1920 1080" fill="none" xmlns="http://www.w3.org/2000/svg">
<g id="staful">
<rect width="1920" height="1080" fill="white"/>
<path id="Arrow 89" d="M443.938 385.354C444.327 385.746 444.96 385.75 445.352 385.361L451.747 379.028C452.139 378.639 452.142 378.006 451.754 377.614C451.365 377.221 450.732 377.218 450.339 377.607L444.655 383.236L439.026 377.552C438.637 377.16 438.004 377.157 437.612 377.545C437.219 377.934 437.216 378.567 437.605 378.959L443.938 385.354ZM445.648 177.65L444.648 177.646L443.648 384.646L444.648 384.65L445.648 384.655L446.648 177.655L445.648 177.65Z" fill="black"/>
<path id="Arrow 90" d="M352.679 539.894C352.813 540.43 353.356 540.755 353.892 540.62L362.621 538.428C363.157 538.294 363.482 537.75 363.347 537.215C363.213 536.679 362.669 536.354 362.134 536.488L354.375 538.437L352.426 530.678C352.292 530.142 351.748 529.817 351.213 529.952C350.677 530.086 350.352 530.629 350.486 531.165L352.679 539.894ZM435.648 402.65L434.79 402.137L352.79 539.137L353.648 539.65L354.506 540.164L436.506 403.164L435.648 402.65Z" fill="black"/>
<path id="Arrow 91" d="M352.941 697.357C353.332 697.748 353.965 697.748 354.356 697.357L360.72 690.994C361.11 690.603 361.11 689.97 360.72 689.579C360.329 689.189 359.696 689.189 359.305 689.579L353.648 695.236L347.992 689.579C347.601 689.189 346.968 689.189 346.577 689.579C346.187 689.97 346.187 690.603 346.577 690.994L352.941 697.357ZM353.648 563.65H352.648V696.65H353.648H354.648V563.65H353.648Z" fill="black"/>
<path id="Arrow 92" d="M539.384 540.615C539.916 540.761 540.467 540.448 540.613 539.915L542.994 531.236C543.141 530.703 542.827 530.153 542.295 530.007C541.762 529.861 541.212 530.174 541.066 530.707L538.949 538.421L531.234 536.304C530.701 536.158 530.151 536.471 530.005 537.004C529.859 537.537 530.172 538.087 530.705 538.233L539.384 540.615ZM461.648 402.65L460.779 403.145L538.779 540.145L539.648 539.65L540.517 539.156L462.517 402.156L461.648 402.65Z" fill="black"/>
<path id="Arrow 93" d="M542.963 697.378C543.365 697.757 543.998 697.738 544.376 697.336L550.546 690.784C550.925 690.381 550.906 689.749 550.504 689.37C550.102 688.991 549.469 689.01 549.09 689.412L543.606 695.237L537.782 689.753C537.379 689.374 536.747 689.393 536.368 689.795C535.989 690.197 536.008 690.83 536.411 691.209L542.963 697.378ZM539.648 563.65L538.649 563.68L542.649 696.68L543.648 696.65L544.648 696.62L540.648 563.62L539.648 563.65Z" fill="black"/>
<path id="..." d="M421.467 631.014C420.345 631.014 419.383 630.613 418.58 629.809C417.777 629.006 417.376 628.044 417.376 626.923C417.376 625.802 417.777 624.84 418.58 624.037C419.383 623.234 420.345 622.832 421.467 622.832C422.588 622.832 423.55 623.234 424.353 624.037C425.156 624.84 425.558 625.802 425.558 626.923C425.558 627.666 425.368 628.347 424.989 628.969C424.626 629.59 424.133 630.09 423.512 630.469C422.906 630.832 422.224 631.014 421.467 631.014ZM439.092 631.014C437.97 631.014 437.008 630.613 436.205 629.809C435.402 629.006 435.001 628.044 435.001 626.923C435.001 625.802 435.402 624.84 436.205 624.037C437.008 623.234 437.97 622.832 439.092 622.832C440.213 622.832 441.175 623.234 441.978 624.037C442.781 624.84 443.183 625.802 443.183 626.923C443.183 627.666 442.993 628.347 442.614 628.969C442.251 629.59 441.758 630.09 441.137 630.469C440.531 630.832 439.849 631.014 439.092 631.014ZM456.717 631.014C455.595 631.014 454.633 630.613 453.83 629.809C453.027 629.006 452.626 628.044 452.626 626.923C452.626 625.802 453.027 624.84 453.83 624.037C454.633 623.234 455.595 622.832 456.717 622.832C457.838 622.832 458.8 623.234 459.603 624.037C460.406 624.84 460.808 625.802 460.808 626.923C460.808 627.666 460.618 628.347 460.239 628.969C459.876 629.59 459.383 630.09 458.762 630.469C458.156 630.832 457.474 631.014 456.717 631.014Z" fill="black"/>
<g id="Group_69">
<path id="Arrow 94" d="M707.776 368.642C708.324 368.572 708.711 368.071 708.64 367.523L707.494 358.596C707.423 358.049 706.922 357.662 706.374 357.732C705.827 357.802 705.44 358.303 705.51 358.851L706.529 366.786L698.594 367.805C698.047 367.875 697.66 368.377 697.73 368.924C697.8 369.472 698.301 369.859 698.849 369.789L707.776 368.642ZM461.648 177.65L461.037 178.442L707.037 368.442L707.648 367.65L708.26 366.859L462.26 176.859L461.648 177.65Z" fill="black"/>
<path id="Arrow 95" d="M712.941 540.357C713.332 540.748 713.965 540.748 714.356 540.357L720.72 533.994C721.11 533.603 721.11 532.97 720.72 532.579C720.329 532.189 719.696 532.189 719.305 532.579L713.648 538.236L707.992 532.579C707.601 532.189 706.968 532.189 706.577 532.579C706.187 532.97 706.187 533.603 706.577 533.994L712.941 540.357ZM713.648 381.65H712.648V539.65H713.648H714.648V381.65H713.648Z" fill="black"/>
</g>
<path id="Arrow_96" d="M542.945 550.939C542.553 551.327 542.549 551.961 542.937 552.353L549.264 558.755C549.652 559.147 550.285 559.151 550.678 558.763C551.071 558.375 551.074 557.742 550.686 557.349L545.063 551.659L550.753 546.035C551.145 545.647 551.149 545.014 550.761 544.621C550.373 544.228 549.74 544.224 549.347 544.613L542.945 550.939ZM713.648 552.65L713.654 551.65L543.654 550.65L543.648 551.65L543.643 552.65L713.643 553.65L713.648 552.65Z" fill="black"/>
<path id="Polygon 18" d="M443.843 161.65L561.844 531.65V711.15H334.344V531.65L443.843 161.65Z" fill="#9F23D4" fill-opacity="0.41"/>
<g id="Group_70">
<path id="Store only one run at a time: polynomial memory consumption" d="M1136.17 257.65V228.559H1153.73V231.684H1139.69V241.514H1152.82V244.639H1139.69V254.525H1153.96V257.65H1136.17ZM1166.04 258.162C1164.66 258.162 1163.41 257.901 1162.28 257.381C1161.15 256.85 1160.26 256.088 1159.59 255.094C1158.93 254.09 1158.6 252.878 1158.6 251.457C1158.6 250.207 1158.85 249.194 1159.34 248.417C1159.83 247.631 1160.49 247.016 1161.31 246.571C1162.14 246.126 1163.05 245.794 1164.04 245.577C1165.04 245.349 1166.05 245.169 1167.07 245.037C1168.39 244.866 1169.47 244.738 1170.29 244.653C1171.12 244.559 1171.73 244.402 1172.11 244.184C1172.5 243.967 1172.69 243.588 1172.69 243.048V242.934C1172.69 241.533 1172.31 240.444 1171.54 239.667C1170.78 238.891 1169.63 238.503 1168.09 238.503C1166.49 238.503 1165.23 238.853 1164.32 239.554C1163.42 240.255 1162.78 241.003 1162.41 241.798L1159.23 240.662C1159.79 239.336 1160.55 238.304 1161.5 237.565C1162.45 236.817 1163.5 236.296 1164.62 236.003C1165.76 235.7 1166.88 235.548 1167.98 235.548C1168.68 235.548 1169.48 235.633 1170.39 235.804C1171.31 235.965 1172.19 236.301 1173.05 236.812C1173.91 237.324 1174.62 238.095 1175.19 239.128C1175.76 240.16 1176.04 241.542 1176.04 243.275V257.65H1172.69V254.696H1172.52C1172.29 255.169 1171.91 255.676 1171.38 256.216C1170.85 256.756 1170.15 257.215 1169.27 257.594C1168.39 257.972 1167.31 258.162 1166.04 258.162ZM1166.55 255.15C1167.88 255.15 1169 254.89 1169.91 254.369C1170.83 253.848 1171.52 253.176 1171.98 252.352C1172.45 251.528 1172.69 250.662 1172.69 249.753V246.684C1172.55 246.855 1172.24 247.011 1171.75 247.153C1171.28 247.286 1170.73 247.404 1170.11 247.508C1169.49 247.603 1168.89 247.688 1168.3 247.764C1167.72 247.83 1167.26 247.887 1166.9 247.934C1166.02 248.048 1165.21 248.233 1164.45 248.488C1163.7 248.735 1163.1 249.109 1162.63 249.611C1162.18 250.103 1161.95 250.775 1161.95 251.628C1161.95 252.792 1162.38 253.673 1163.25 254.27C1164.12 254.857 1165.22 255.15 1166.55 255.15ZM1191.03 258.105C1188.98 258.105 1187.22 257.622 1185.74 256.656C1184.26 255.69 1183.13 254.36 1182.33 252.665C1181.54 250.97 1181.14 249.033 1181.14 246.855C1181.14 244.639 1181.55 242.684 1182.36 240.988C1183.18 239.284 1184.33 237.953 1185.8 236.997C1187.28 236.031 1189 235.548 1190.97 235.548C1192.5 235.548 1193.89 235.832 1195.12 236.4C1196.35 236.969 1197.36 237.764 1198.14 238.787C1198.93 239.809 1199.42 241.003 1199.61 242.366H1196.25C1196 241.372 1195.43 240.491 1194.55 239.724C1193.68 238.948 1192.5 238.559 1191.03 238.559C1189.72 238.559 1188.57 238.9 1187.59 239.582C1186.61 240.255 1185.85 241.206 1185.3 242.437C1184.76 243.659 1184.49 245.094 1184.49 246.741C1184.49 248.427 1184.76 249.895 1185.29 251.145C1185.83 252.395 1186.58 253.365 1187.56 254.057C1188.54 254.748 1189.7 255.094 1191.03 255.094C1191.9 255.094 1192.69 254.942 1193.4 254.639C1194.11 254.336 1194.71 253.9 1195.2 253.332C1195.69 252.764 1196.04 252.082 1196.25 251.287H1199.61C1199.42 252.575 1198.95 253.735 1198.2 254.767C1197.46 255.79 1196.48 256.604 1195.26 257.21C1194.05 257.807 1192.64 258.105 1191.03 258.105ZM1207.86 244.525V257.65H1204.51V228.559H1207.86V239.241H1208.14C1208.65 238.114 1209.42 237.22 1210.44 236.557C1211.48 235.884 1212.85 235.548 1214.56 235.548C1216.05 235.548 1217.35 235.846 1218.47 236.443C1219.59 237.03 1220.45 237.934 1221.07 239.156C1221.69 240.368 1222.01 241.912 1222.01 243.787V257.65H1218.65V244.014C1218.65 242.281 1218.2 240.941 1217.3 239.994C1216.41 239.038 1215.18 238.559 1213.6 238.559C1212.5 238.559 1211.51 238.791 1210.64 239.256C1209.78 239.72 1209.1 240.397 1208.6 241.287C1208.1 242.177 1207.86 243.256 1207.86 244.525ZM1248.88 235.832V238.673H1237.57V235.832H1248.88ZM1240.87 230.605H1244.22V251.4C1244.22 252.347 1244.36 253.058 1244.63 253.531C1244.91 253.995 1245.27 254.308 1245.71 254.469C1246.15 254.62 1246.62 254.696 1247.12 254.696C1247.49 254.696 1247.79 254.677 1248.02 254.639C1248.26 254.592 1248.45 254.554 1248.59 254.525L1249.27 257.537C1249.05 257.622 1248.73 257.707 1248.32 257.792C1247.92 257.887 1247.4 257.934 1246.77 257.934C1245.83 257.934 1244.9 257.731 1243.99 257.324C1243.09 256.916 1242.34 256.296 1241.75 255.463C1241.16 254.63 1240.87 253.578 1240.87 252.309V230.605ZM1253.92 257.65V235.832H1257.16V239.128H1257.39C1257.78 238.048 1258.5 237.172 1259.54 236.5C1260.59 235.827 1261.76 235.491 1263.07 235.491C1263.31 235.491 1263.62 235.496 1263.99 235.506C1264.36 235.515 1264.64 235.529 1264.83 235.548V238.957C1264.72 238.929 1264.45 238.886 1264.05 238.829C1263.65 238.763 1263.23 238.73 1262.78 238.73C1261.72 238.73 1260.78 238.952 1259.94 239.398C1259.12 239.833 1258.47 240.439 1257.98 241.216C1257.51 241.983 1257.27 242.859 1257.27 243.844V257.65H1253.92ZM1275.22 258.162C1273.84 258.162 1272.59 257.901 1271.46 257.381C1270.33 256.85 1269.44 256.088 1268.77 255.094C1268.11 254.09 1267.78 252.878 1267.78 251.457C1267.78 250.207 1268.03 249.194 1268.52 248.417C1269.01 247.631 1269.67 247.016 1270.49 246.571C1271.32 246.126 1272.23 245.794 1273.22 245.577C1274.22 245.349 1275.23 245.169 1276.25 245.037C1277.57 244.866 1278.65 244.738 1279.47 244.653C1280.3 244.559 1280.91 244.402 1281.29 244.184C1281.68 243.967 1281.87 243.588 1281.87 243.048V242.934C1281.87 241.533 1281.49 240.444 1280.72 239.667C1279.96 238.891 1278.81 238.503 1277.27 238.503C1275.67 238.503 1274.41 238.853 1273.5 239.554C1272.6 240.255 1271.96 241.003 1271.59 241.798L1268.4 240.662C1268.97 239.336 1269.73 238.304 1270.68 237.565C1271.63 236.817 1272.68 236.296 1273.8 236.003C1274.94 235.7 1276.06 235.548 1277.15 235.548C1277.86 235.548 1278.66 235.633 1279.57 235.804C1280.49 235.965 1281.37 236.301 1282.23 236.812C1283.09 237.324 1283.8 238.095 1284.37 239.128C1284.94 240.16 1285.22 241.542 1285.22 243.275V257.65H1281.87V254.696H1281.7C1281.47 255.169 1281.09 255.676 1280.56 256.216C1280.03 256.756 1279.33 257.215 1278.45 257.594C1277.57 257.972 1276.49 258.162 1275.22 258.162ZM1275.73 255.15C1277.06 255.15 1278.18 254.89 1279.09 254.369C1280.01 253.848 1280.7 253.176 1281.16 252.352C1281.63 251.528 1281.87 250.662 1281.87 249.753V246.684C1281.73 246.855 1281.42 247.011 1280.93 247.153C1280.46 247.286 1279.91 247.404 1279.29 247.508C1278.67 247.603 1278.07 247.688 1277.48 247.764C1276.9 247.83 1276.44 247.887 1276.08 247.934C1275.2 248.048 1274.39 248.233 1273.63 248.488C1272.88 248.735 1272.28 249.109 1271.81 249.611C1271.36 250.103 1271.13 250.775 1271.13 251.628C1271.13 252.792 1271.56 253.673 1272.42 254.27C1273.3 254.857 1274.4 255.15 1275.73 255.15ZM1294.69 244.525V257.65H1291.34V235.832H1294.58V239.241H1294.86C1295.38 238.133 1296.15 237.243 1297.19 236.571C1298.24 235.889 1299.58 235.548 1301.23 235.548C1302.71 235.548 1304 235.851 1305.11 236.457C1306.21 237.054 1307.08 237.963 1307.69 239.184C1308.31 240.397 1308.61 241.931 1308.61 243.787V257.65H1305.26V244.014C1305.26 242.3 1304.82 240.965 1303.93 240.008C1303.04 239.042 1301.82 238.559 1300.26 238.559C1299.19 238.559 1298.24 238.791 1297.39 239.256C1296.56 239.72 1295.9 240.397 1295.42 241.287C1294.94 242.177 1294.69 243.256 1294.69 244.525ZM1330.19 240.719L1327.18 241.571C1326.99 241.069 1326.71 240.581 1326.35 240.108C1325.99 239.625 1325.49 239.227 1324.87 238.915C1324.24 238.602 1323.44 238.446 1322.47 238.446C1321.13 238.446 1320.02 238.754 1319.13 239.369C1318.25 239.975 1317.81 240.747 1317.81 241.684C1317.81 242.518 1318.11 243.176 1318.72 243.659C1319.32 244.142 1320.27 244.544 1321.56 244.866L1324.8 245.662C1326.75 246.135 1328.2 246.86 1329.16 247.835C1330.11 248.801 1330.59 250.046 1330.59 251.571C1330.59 252.821 1330.23 253.938 1329.51 254.923C1328.8 255.908 1327.81 256.684 1326.53 257.253C1325.25 257.821 1323.76 258.105 1322.07 258.105C1319.84 258.105 1318 257.622 1316.54 256.656C1315.09 255.69 1314.16 254.279 1313.77 252.423L1316.96 251.628C1317.26 252.802 1317.83 253.683 1318.67 254.27C1319.53 254.857 1320.64 255.15 1322.01 255.15C1323.58 255.15 1324.82 254.819 1325.73 254.156C1326.66 253.484 1327.13 252.679 1327.13 251.741C1327.13 250.984 1326.86 250.349 1326.33 249.838C1325.8 249.317 1324.99 248.929 1323.89 248.673L1320.25 247.821C1318.25 247.347 1316.79 246.613 1315.85 245.619C1314.92 244.615 1314.46 243.361 1314.46 241.855C1314.46 240.624 1314.8 239.535 1315.49 238.588C1316.19 237.641 1317.15 236.898 1318.35 236.358C1319.56 235.818 1320.93 235.548 1322.47 235.548C1324.63 235.548 1326.32 236.022 1327.55 236.969C1328.79 237.916 1329.67 239.166 1330.19 240.719ZM1335.64 257.65V235.832H1338.99V257.65H1335.64ZM1337.34 232.196C1336.69 232.196 1336.13 231.973 1335.65 231.528C1335.19 231.083 1334.96 230.548 1334.96 229.923C1334.96 229.298 1335.19 228.763 1335.65 228.318C1336.13 227.873 1336.69 227.65 1337.34 227.65C1338 227.65 1338.56 227.873 1339.02 228.318C1339.49 228.763 1339.73 229.298 1339.73 229.923C1339.73 230.548 1339.49 231.083 1339.02 231.528C1338.56 231.973 1338 232.196 1337.34 232.196ZM1354.62 235.832V238.673H1343.31V235.832H1354.62ZM1346.61 230.605H1349.96V251.4C1349.96 252.347 1350.1 253.058 1350.37 253.531C1350.66 253.995 1351.02 254.308 1351.45 254.469C1351.9 254.62 1352.37 254.696 1352.86 254.696C1353.23 254.696 1353.53 254.677 1353.77 254.639C1354 254.592 1354.19 254.554 1354.34 254.525L1355.02 257.537C1354.79 257.622 1354.47 257.707 1354.07 257.792C1353.66 257.887 1353.14 257.934 1352.52 257.934C1351.57 257.934 1350.64 257.731 1349.73 257.324C1348.83 256.916 1348.09 256.296 1347.49 255.463C1346.9 254.63 1346.61 253.578 1346.61 252.309V230.605ZM1359.66 257.65V235.832H1363.01V257.65H1359.66ZM1361.37 232.196C1360.71 232.196 1360.15 231.973 1359.68 231.528C1359.21 231.083 1358.98 230.548 1358.98 229.923C1358.98 229.298 1359.21 228.763 1359.68 228.318C1360.15 227.873 1360.71 227.65 1361.37 227.65C1362.02 227.65 1362.58 227.873 1363.04 228.318C1363.52 228.763 1363.75 229.298 1363.75 229.923C1363.75 230.548 1363.52 231.083 1363.04 231.528C1362.58 231.973 1362.02 232.196 1361.37 232.196ZM1378.02 258.105C1376.05 258.105 1374.32 257.636 1372.83 256.699C1371.36 255.761 1370.2 254.45 1369.37 252.764C1368.54 251.078 1368.13 249.109 1368.13 246.855C1368.13 244.582 1368.54 242.598 1369.37 240.903C1370.2 239.208 1371.36 237.892 1372.83 236.954C1374.32 236.017 1376.05 235.548 1378.02 235.548C1379.99 235.548 1381.71 236.017 1383.19 236.954C1384.67 237.892 1385.83 239.208 1386.65 240.903C1387.49 242.598 1387.9 244.582 1387.9 246.855C1387.9 249.109 1387.49 251.078 1386.65 252.764C1385.83 254.45 1384.67 255.761 1383.19 256.699C1381.71 257.636 1379.99 258.105 1378.02 258.105ZM1378.02 255.094C1379.51 255.094 1380.75 254.71 1381.71 253.943C1382.68 253.176 1383.39 252.167 1383.86 250.917C1384.32 249.667 1384.55 248.313 1384.55 246.855C1384.55 245.397 1384.32 244.038 1383.86 242.778C1383.39 241.519 1382.68 240.501 1381.71 239.724C1380.75 238.948 1379.51 238.559 1378.02 238.559C1376.52 238.559 1375.29 238.948 1374.32 239.724C1373.36 240.501 1372.64 241.519 1372.18 242.778C1371.72 244.038 1371.48 245.397 1371.48 246.855C1371.48 248.313 1371.72 249.667 1372.18 250.917C1372.64 252.167 1373.36 253.176 1374.32 253.943C1375.29 254.71 1376.52 255.094 1378.02 255.094ZM1396.37 244.525V257.65H1393.02V235.832H1396.26V239.241H1396.54C1397.06 238.133 1397.83 237.243 1398.87 236.571C1399.92 235.889 1401.26 235.548 1402.91 235.548C1404.38 235.548 1405.68 235.851 1406.79 236.457C1407.89 237.054 1408.76 237.963 1409.37 239.184C1409.99 240.397 1410.29 241.931 1410.29 243.787V257.65H1406.94V244.014C1406.94 242.3 1406.5 240.965 1405.61 240.008C1404.72 239.042 1403.49 238.559 1401.94 238.559C1400.87 238.559 1399.92 238.791 1399.07 239.256C1398.24 239.72 1397.58 240.397 1397.1 241.287C1396.62 242.177 1396.37 243.256 1396.37 244.525ZM1436.82 258.105C1434.72 258.105 1432.9 257.641 1431.38 256.713C1429.86 255.775 1428.69 254.469 1427.87 252.792C1427.05 251.107 1426.65 249.147 1426.65 246.912C1426.65 244.677 1427.05 242.707 1427.87 241.003C1428.69 239.289 1429.84 237.953 1431.31 236.997C1432.78 236.031 1434.51 235.548 1436.48 235.548C1437.61 235.548 1438.74 235.738 1439.84 236.116C1440.95 236.495 1441.96 237.111 1442.87 237.963C1443.78 238.806 1444.5 239.923 1445.04 241.315C1445.58 242.707 1445.85 244.421 1445.85 246.457V247.878H1429.03V244.98H1442.44C1442.44 243.749 1442.2 242.65 1441.7 241.684C1441.22 240.719 1440.53 239.956 1439.63 239.398C1438.74 238.839 1437.69 238.559 1436.48 238.559C1435.14 238.559 1433.99 238.891 1433.01 239.554C1432.04 240.207 1431.3 241.059 1430.78 242.111C1430.26 243.162 1430 244.289 1430 245.491V247.423C1430 249.071 1430.28 250.468 1430.85 251.613C1431.43 252.75 1432.23 253.616 1433.25 254.213C1434.27 254.8 1435.46 255.094 1436.82 255.094C1437.7 255.094 1438.49 254.97 1439.2 254.724C1439.92 254.469 1440.54 254.09 1441.06 253.588C1441.59 253.077 1441.99 252.442 1442.27 251.684L1445.51 252.594C1445.17 253.692 1444.6 254.658 1443.79 255.491C1442.99 256.315 1441.99 256.959 1440.81 257.423C1439.63 257.878 1438.29 258.105 1436.82 258.105ZM1452.87 235.832L1458.09 244.753L1463.32 235.832H1467.18L1460.14 246.741L1467.18 257.65H1463.32L1458.09 249.184L1452.87 257.65H1449L1455.93 246.741L1449 235.832H1452.87ZM1471.97 265.832V235.832H1475.21V239.298H1475.6C1475.85 238.919 1476.19 238.436 1476.63 237.849C1477.07 237.253 1477.71 236.722 1478.53 236.258C1479.36 235.785 1480.49 235.548 1481.91 235.548C1483.75 235.548 1485.37 236.007 1486.77 236.926C1488.17 237.845 1489.26 239.147 1490.05 240.832C1490.83 242.518 1491.23 244.506 1491.23 246.798C1491.23 249.109 1490.83 251.112 1490.05 252.807C1489.26 254.492 1488.17 255.799 1486.78 256.727C1485.39 257.646 1483.78 258.105 1481.97 258.105C1480.57 258.105 1479.44 257.873 1478.6 257.409C1477.76 256.935 1477.11 256.4 1476.65 255.804C1476.2 255.198 1475.85 254.696 1475.6 254.298H1475.32V265.832H1471.97ZM1475.26 246.741C1475.26 248.389 1475.5 249.843 1475.99 251.102C1476.47 252.352 1477.17 253.332 1478.1 254.042C1479.03 254.743 1480.17 255.094 1481.51 255.094C1482.91 255.094 1484.08 254.724 1485.02 253.986C1485.97 253.238 1486.68 252.234 1487.15 250.974C1487.63 249.705 1487.88 248.294 1487.88 246.741C1487.88 245.207 1487.64 243.825 1487.17 242.594C1486.7 241.353 1486 240.373 1485.05 239.653C1484.11 238.924 1482.93 238.559 1481.51 238.559C1480.15 238.559 1479 238.905 1478.07 239.596C1477.15 240.278 1476.45 241.235 1475.97 242.466C1475.5 243.687 1475.26 245.113 1475.26 246.741ZM1499.69 228.559V257.65H1496.34V228.559H1499.69ZM1514.7 258.105C1512.73 258.105 1511 257.636 1509.51 256.699C1508.04 255.761 1506.88 254.45 1506.05 252.764C1505.22 251.078 1504.81 249.109 1504.81 246.855C1504.81 244.582 1505.22 242.598 1506.05 240.903C1506.88 239.208 1508.04 237.892 1509.51 236.954C1511 236.017 1512.73 235.548 1514.7 235.548C1516.67 235.548 1518.39 236.017 1519.87 236.954C1521.35 237.892 1522.51 239.208 1523.33 240.903C1524.17 242.598 1524.58 244.582 1524.58 246.855C1524.58 249.109 1524.17 251.078 1523.33 252.764C1522.51 254.45 1521.35 255.761 1519.87 256.699C1518.39 257.636 1516.67 258.105 1514.7 258.105ZM1514.7 255.094C1516.19 255.094 1517.42 254.71 1518.39 253.943C1519.36 253.176 1520.07 252.167 1520.54 250.917C1521 249.667 1521.23 248.313 1521.23 246.855C1521.23 245.397 1521 244.038 1520.54 242.778C1520.07 241.519 1519.36 240.501 1518.39 239.724C1517.42 238.948 1516.19 238.559 1514.7 238.559C1513.2 238.559 1511.97 238.948 1511 239.724C1510.04 240.501 1509.32 241.519 1508.86 242.778C1508.4 244.038 1508.16 245.397 1508.16 246.855C1508.16 248.313 1508.4 249.667 1508.86 250.917C1509.32 252.167 1510.04 253.176 1511 253.943C1511.97 254.71 1513.2 255.094 1514.7 255.094ZM1529.7 257.65V235.832H1532.94V239.128H1533.17C1533.56 238.048 1534.28 237.172 1535.33 236.5C1536.37 235.827 1537.54 235.491 1538.85 235.491C1539.09 235.491 1539.4 235.496 1539.77 235.506C1540.14 235.515 1540.42 235.529 1540.61 235.548V238.957C1540.5 238.929 1540.24 238.886 1539.83 238.829C1539.43 238.763 1539.01 238.73 1538.56 238.73C1537.5 238.73 1536.56 238.952 1535.72 239.398C1534.9 239.833 1534.25 240.439 1533.76 241.216C1533.29 241.983 1533.05 242.859 1533.05 243.844V257.65H1529.7ZM1553.07 258.105C1550.97 258.105 1549.15 257.641 1547.63 256.713C1546.11 255.775 1544.94 254.469 1544.12 252.792C1543.3 251.107 1542.9 249.147 1542.9 246.912C1542.9 244.677 1543.3 242.707 1544.12 241.003C1544.94 239.289 1546.09 237.953 1547.56 236.997C1549.03 236.031 1550.76 235.548 1552.73 235.548C1553.86 235.548 1554.99 235.738 1556.09 236.116C1557.2 236.495 1558.21 237.111 1559.12 237.963C1560.03 238.806 1560.75 239.923 1561.29 241.315C1561.83 242.707 1562.1 244.421 1562.1 246.457V247.878H1545.28V244.98H1558.69C1558.69 243.749 1558.45 242.65 1557.95 241.684C1557.47 240.719 1556.78 239.956 1555.88 239.398C1554.99 238.839 1553.94 238.559 1552.73 238.559C1551.39 238.559 1550.24 238.891 1549.26 239.554C1548.29 240.207 1547.55 241.059 1547.03 242.111C1546.51 243.162 1546.25 244.289 1546.25 245.491V247.423C1546.25 249.071 1546.53 250.468 1547.1 251.613C1547.68 252.75 1548.48 253.616 1549.5 254.213C1550.52 254.8 1551.71 255.094 1553.07 255.094C1553.95 255.094 1554.74 254.97 1555.45 254.724C1556.17 254.469 1556.79 254.09 1557.31 253.588C1557.84 253.077 1558.24 252.442 1558.52 251.684L1561.76 252.594C1561.42 253.692 1560.85 254.658 1560.04 255.491C1559.24 256.315 1558.24 256.959 1557.06 257.423C1555.88 257.878 1554.54 258.105 1553.07 258.105ZM1575.44 258.105C1573.62 258.105 1572.02 257.646 1570.62 256.727C1569.23 255.799 1568.14 254.492 1567.36 252.807C1566.57 251.112 1566.18 249.109 1566.18 246.798C1566.18 244.506 1566.57 242.518 1567.36 240.832C1568.14 239.147 1569.24 237.845 1570.64 236.926C1572.04 236.007 1573.66 235.548 1575.5 235.548C1576.92 235.548 1578.04 235.785 1578.86 236.258C1579.7 236.722 1580.33 237.253 1580.77 237.849C1581.21 238.436 1581.56 238.919 1581.8 239.298H1582.09V228.559H1585.44V257.65H1582.2V254.298H1581.8C1581.56 254.696 1581.21 255.198 1580.75 255.804C1580.3 256.4 1579.65 256.935 1578.81 257.409C1577.96 257.873 1576.84 258.105 1575.44 258.105ZM1575.89 255.094C1577.24 255.094 1578.38 254.743 1579.3 254.042C1580.23 253.332 1580.94 252.352 1581.42 251.102C1581.9 249.843 1582.14 248.389 1582.14 246.741C1582.14 245.113 1581.91 243.687 1581.43 242.466C1580.96 241.235 1580.26 240.278 1579.33 239.596C1578.4 238.905 1577.26 238.559 1575.89 238.559C1574.47 238.559 1573.29 238.924 1572.34 239.653C1571.41 240.373 1570.7 241.353 1570.23 242.594C1569.76 243.825 1569.53 245.207 1569.53 246.741C1569.53 248.294 1569.77 249.705 1570.24 250.974C1570.72 252.234 1571.43 253.238 1572.37 253.986C1573.32 254.724 1574.49 255.094 1575.89 255.094ZM1612.16 258.105C1610.19 258.105 1608.46 257.636 1606.97 256.699C1605.5 255.761 1604.34 254.45 1603.51 252.764C1602.68 251.078 1602.27 249.109 1602.27 246.855C1602.27 244.582 1602.68 242.598 1603.51 240.903C1604.34 239.208 1605.5 237.892 1606.97 236.954C1608.46 236.017 1610.19 235.548 1612.16 235.548C1614.13 235.548 1615.85 236.017 1617.33 236.954C1618.82 237.892 1619.97 239.208 1620.79 240.903C1621.63 242.598 1622.04 244.582 1622.04 246.855C1622.04 249.109 1621.63 251.078 1620.79 252.764C1619.97 254.45 1618.82 255.761 1617.33 256.699C1615.85 257.636 1614.13 258.105 1612.16 258.105ZM1612.16 255.094C1613.65 255.094 1614.89 254.71 1615.85 253.943C1616.82 253.176 1617.53 252.167 1618 250.917C1618.46 249.667 1618.69 248.313 1618.69 246.855C1618.69 245.397 1618.46 244.038 1618 242.778C1617.53 241.519 1616.82 240.501 1615.85 239.724C1614.89 238.948 1613.65 238.559 1612.16 238.559C1610.66 238.559 1609.43 238.948 1608.47 239.724C1607.5 240.501 1606.78 241.519 1606.32 242.778C1605.86 244.038 1605.62 245.397 1605.62 246.855C1605.62 248.313 1605.86 249.667 1606.32 250.917C1606.78 252.167 1607.5 253.176 1608.47 253.943C1609.43 254.71 1610.66 255.094 1612.16 255.094ZM1630.51 244.525V257.65H1627.16V235.832H1630.4V239.241H1630.68C1631.2 238.133 1631.97 237.243 1633.01 236.571C1634.06 235.889 1635.4 235.548 1637.05 235.548C1638.53 235.548 1639.82 235.851 1640.93 236.457C1642.03 237.054 1642.9 237.963 1643.51 239.184C1644.13 240.397 1644.43 241.931 1644.43 243.787V257.65H1641.08V244.014C1641.08 242.3 1640.64 240.965 1639.75 240.008C1638.86 239.042 1637.64 238.559 1636.08 238.559C1635.01 238.559 1634.06 238.791 1633.21 239.256C1632.38 239.72 1631.72 240.397 1631.24 241.287C1630.76 242.177 1630.51 243.256 1630.51 244.525ZM1653.91 228.559V257.65H1650.56V228.559H1653.91ZM1662.21 265.832C1661.64 265.832 1661.14 265.785 1660.69 265.69C1660.25 265.605 1659.94 265.52 1659.77 265.434L1660.62 262.48C1661.44 262.688 1662.15 262.764 1662.78 262.707C1663.4 262.65 1663.96 262.371 1664.44 261.869C1664.93 261.377 1665.38 260.577 1665.79 259.469L1666.42 257.764L1658.35 235.832H1661.98L1668.01 253.219H1668.23L1674.26 235.832H1677.89L1668.63 260.832C1668.22 261.959 1667.7 262.892 1667.08 263.631C1666.47 264.379 1665.75 264.933 1664.94 265.292C1664.13 265.652 1663.22 265.832 1662.21 265.832ZM1699.99 258.162C1698.61 258.162 1697.35 257.901 1696.22 257.381C1695.1 256.85 1694.2 256.088 1693.54 255.094C1692.88 254.09 1692.55 252.878 1692.55 251.457C1692.55 250.207 1692.79 249.194 1693.28 248.417C1693.78 247.631 1694.43 247.016 1695.26 246.571C1696.08 246.126 1696.99 245.794 1697.99 245.577C1698.99 245.349 1700 245.169 1701.01 245.037C1702.34 244.866 1703.41 244.738 1704.24 244.653C1705.07 244.559 1705.68 244.402 1706.05 244.184C1706.44 243.967 1706.64 243.588 1706.64 243.048V242.934C1706.64 241.533 1706.25 240.444 1705.49 239.667C1704.73 238.891 1703.58 238.503 1702.03 238.503C1700.43 238.503 1699.18 238.853 1698.27 239.554C1697.36 240.255 1696.72 241.003 1696.35 241.798L1693.17 240.662C1693.74 239.336 1694.5 238.304 1695.44 237.565C1696.4 236.817 1697.44 236.296 1698.57 236.003C1699.7 235.7 1700.82 235.548 1701.92 235.548C1702.62 235.548 1703.43 235.633 1704.34 235.804C1705.25 235.965 1706.14 236.301 1706.99 236.812C1707.85 237.324 1708.57 238.095 1709.14 239.128C1709.7 240.16 1709.99 241.542 1709.99 243.275V257.65H1706.64V254.696H1706.47C1706.24 255.169 1705.86 255.676 1705.33 256.216C1704.8 256.756 1704.09 257.215 1703.21 257.594C1702.33 257.972 1701.26 258.162 1699.99 258.162ZM1700.5 255.15C1701.83 255.15 1702.94 254.89 1703.85 254.369C1704.77 253.848 1705.46 253.176 1705.93 252.352C1706.4 251.528 1706.64 250.662 1706.64 249.753V246.684C1706.49 246.855 1706.18 247.011 1705.7 247.153C1705.23 247.286 1704.68 247.404 1704.05 247.508C1703.44 247.603 1702.83 247.688 1702.25 247.764C1701.67 247.83 1701.2 247.887 1700.84 247.934C1699.97 248.048 1699.16 248.233 1698.4 248.488C1697.65 248.735 1697.04 249.109 1696.58 249.611C1696.13 250.103 1695.9 250.775 1695.9 251.628C1695.9 252.792 1696.33 253.673 1697.19 254.27C1698.06 254.857 1699.16 255.15 1700.5 255.15ZM1135.72 313.832V283.832H1138.96V287.298H1139.35C1139.6 286.919 1139.94 286.436 1140.38 285.849C1140.82 285.253 1141.46 284.722 1142.28 284.258C1143.11 283.785 1144.24 283.548 1145.66 283.548C1147.5 283.548 1149.12 284.007 1150.52 284.926C1151.92 285.845 1153.01 287.147 1153.8 288.832C1154.58 290.518 1154.98 292.506 1154.98 294.798C1154.98 297.109 1154.58 299.112 1153.8 300.807C1153.01 302.492 1151.92 303.799 1150.53 304.727C1149.14 305.646 1147.53 306.105 1145.72 306.105C1144.32 306.105 1143.19 305.873 1142.35 305.409C1141.51 304.935 1140.86 304.4 1140.4 303.804C1139.95 303.198 1139.6 302.696 1139.35 302.298H1139.07V313.832H1135.72ZM1139.01 294.741C1139.01 296.389 1139.25 297.843 1139.74 299.102C1140.22 300.352 1140.92 301.332 1141.85 302.042C1142.78 302.743 1143.92 303.094 1145.26 303.094C1146.66 303.094 1147.83 302.724 1148.77 301.986C1149.72 301.238 1150.43 300.234 1150.9 298.974C1151.38 297.705 1151.63 296.294 1151.63 294.741C1151.63 293.207 1151.39 291.825 1150.92 290.594C1150.45 289.353 1149.75 288.373 1148.8 287.653C1147.86 286.924 1146.68 286.559 1145.26 286.559C1143.9 286.559 1142.75 286.905 1141.82 287.596C1140.9 288.278 1140.2 289.235 1139.72 290.466C1139.25 291.687 1139.01 293.113 1139.01 294.741ZM1168.96 306.105C1166.99 306.105 1165.26 305.636 1163.77 304.699C1162.29 303.761 1161.14 302.45 1160.3 300.764C1159.48 299.078 1159.07 297.109 1159.07 294.855C1159.07 292.582 1159.48 290.598 1160.3 288.903C1161.14 287.208 1162.29 285.892 1163.77 284.954C1165.26 284.017 1166.99 283.548 1168.96 283.548C1170.92 283.548 1172.65 284.017 1174.13 284.954C1175.61 285.892 1176.77 287.208 1177.59 288.903C1178.42 290.598 1178.84 292.582 1178.84 294.855C1178.84 297.109 1178.42 299.078 1177.59 300.764C1176.77 302.45 1175.61 303.761 1174.13 304.699C1172.65 305.636 1170.92 306.105 1168.96 306.105ZM1168.96 303.094C1170.45 303.094 1171.68 302.71 1172.65 301.943C1173.61 301.176 1174.33 300.167 1174.79 298.917C1175.26 297.667 1175.49 296.313 1175.49 294.855C1175.49 293.397 1175.26 292.038 1174.79 290.778C1174.33 289.519 1173.61 288.501 1172.65 287.724C1171.68 286.948 1170.45 286.559 1168.96 286.559C1167.46 286.559 1166.23 286.948 1165.26 287.724C1164.3 288.501 1163.58 289.519 1163.12 290.778C1162.65 292.038 1162.42 293.397 1162.42 294.855C1162.42 296.313 1162.65 297.667 1163.12 298.917C1163.58 300.167 1164.3 301.176 1165.26 301.943C1166.23 302.71 1167.46 303.094 1168.96 303.094ZM1187.31 276.559V305.65H1183.96V276.559H1187.31ZM1195.61 313.832C1195.04 313.832 1194.54 313.785 1194.09 313.69C1193.65 313.605 1193.34 313.52 1193.17 313.434L1194.02 310.48C1194.83 310.688 1195.55 310.764 1196.18 310.707C1196.8 310.65 1197.36 310.371 1197.84 309.869C1198.33 309.377 1198.78 308.577 1199.19 307.469L1199.81 305.764L1191.75 283.832H1195.38L1201.41 301.219H1201.63L1207.66 283.832H1211.29L1202.03 308.832C1201.61 309.959 1201.1 310.892 1200.48 311.631C1199.87 312.379 1199.15 312.933 1198.34 313.292C1197.53 313.652 1196.62 313.832 1195.61 313.832ZM1219.07 292.525V305.65H1215.72V283.832H1218.96V287.241H1219.24C1219.75 286.133 1220.53 285.243 1221.57 284.571C1222.61 283.889 1223.96 283.548 1225.6 283.548C1227.08 283.548 1228.37 283.851 1229.48 284.457C1230.59 285.054 1231.45 285.963 1232.07 287.184C1232.68 288.397 1232.99 289.931 1232.99 291.787V305.65H1229.64V292.014C1229.64 290.3 1229.19 288.965 1228.3 288.008C1227.41 287.042 1226.19 286.559 1224.64 286.559C1223.57 286.559 1222.61 286.791 1221.77 287.256C1220.93 287.72 1220.28 288.397 1219.79 289.287C1219.31 290.177 1219.07 291.256 1219.07 292.525ZM1247.98 306.105C1246.01 306.105 1244.28 305.636 1242.79 304.699C1241.32 303.761 1240.16 302.45 1239.33 300.764C1238.5 299.078 1238.09 297.109 1238.09 294.855C1238.09 292.582 1238.5 290.598 1239.33 288.903C1240.16 287.208 1241.32 285.892 1242.79 284.954C1244.28 284.017 1246.01 283.548 1247.98 283.548C1249.95 283.548 1251.67 284.017 1253.15 284.954C1254.64 285.892 1255.79 287.208 1256.62 288.903C1257.45 290.598 1257.87 292.582 1257.87 294.855C1257.87 297.109 1257.45 299.078 1256.62 300.764C1255.79 302.45 1254.64 303.761 1253.15 304.699C1251.67 305.636 1249.95 306.105 1247.98 306.105ZM1247.98 303.094C1249.47 303.094 1250.71 302.71 1251.67 301.943C1252.64 301.176 1253.35 300.167 1253.82 298.917C1254.28 297.667 1254.51 296.313 1254.51 294.855C1254.51 293.397 1254.28 292.038 1253.82 290.778C1253.35 289.519 1252.64 288.501 1251.67 287.724C1250.71 286.948 1249.47 286.559 1247.98 286.559C1246.48 286.559 1245.25 286.948 1244.29 287.724C1243.32 288.501 1242.6 289.519 1242.14 290.778C1241.68 292.038 1241.44 293.397 1241.44 294.855C1241.44 296.313 1241.68 297.667 1242.14 298.917C1242.6 300.167 1243.32 301.176 1244.29 301.943C1245.25 302.71 1246.48 303.094 1247.98 303.094ZM1262.98 305.65V283.832H1266.22V287.241H1266.5C1266.96 286.077 1267.69 285.172 1268.71 284.528C1269.72 283.875 1270.94 283.548 1272.36 283.548C1273.8 283.548 1274.99 283.875 1275.95 284.528C1276.92 285.172 1277.67 286.077 1278.21 287.241H1278.44C1279 286.114 1279.83 285.22 1280.95 284.557C1282.07 283.884 1283.41 283.548 1284.97 283.548C1286.92 283.548 1288.52 284.159 1289.76 285.381C1291 286.593 1291.62 288.482 1291.62 291.048V305.65H1288.27V291.048C1288.27 289.438 1287.83 288.288 1286.95 287.596C1286.06 286.905 1285.03 286.559 1283.83 286.559C1282.3 286.559 1281.11 287.023 1280.27 287.952C1279.43 288.87 1279 290.035 1279 291.446V305.65H1275.6V290.707C1275.6 289.467 1275.19 288.468 1274.39 287.71C1273.58 286.943 1272.55 286.559 1271.28 286.559C1270.41 286.559 1269.59 286.791 1268.83 287.256C1268.09 287.72 1267.48 288.363 1267.02 289.187C1266.56 290.002 1266.33 290.944 1266.33 292.014V305.65H1262.98ZM1297.75 305.65V283.832H1301.1V305.65H1297.75ZM1299.45 280.196C1298.8 280.196 1298.24 279.973 1297.76 279.528C1297.3 279.083 1297.07 278.548 1297.07 277.923C1297.07 277.298 1297.3 276.763 1297.76 276.318C1298.24 275.873 1298.8 275.65 1299.45 275.65C1300.11 275.65 1300.66 275.873 1301.13 276.318C1301.6 276.763 1301.84 277.298 1301.84 277.923C1301.84 278.548 1301.6 279.083 1301.13 279.528C1300.66 279.973 1300.11 280.196 1299.45 280.196ZM1313.66 306.162C1312.28 306.162 1311.02 305.901 1309.9 305.381C1308.77 304.85 1307.87 304.088 1307.21 303.094C1306.55 302.09 1306.22 300.878 1306.22 299.457C1306.22 298.207 1306.46 297.194 1306.96 296.417C1307.45 295.631 1308.11 295.016 1308.93 294.571C1309.75 294.126 1310.66 293.794 1311.66 293.577C1312.66 293.349 1313.67 293.169 1314.68 293.037C1316.01 292.866 1317.08 292.738 1317.91 292.653C1318.74 292.559 1319.35 292.402 1319.73 292.184C1320.11 291.967 1320.31 291.588 1320.31 291.048V290.934C1320.31 289.533 1319.92 288.444 1319.16 287.667C1318.4 286.891 1317.25 286.503 1315.71 286.503C1314.11 286.503 1312.85 286.853 1311.94 287.554C1311.03 288.255 1310.39 289.003 1310.02 289.798L1306.84 288.662C1307.41 287.336 1308.17 286.304 1309.12 285.565C1310.07 284.817 1311.11 284.296 1312.24 284.003C1313.38 283.7 1314.49 283.548 1315.59 283.548C1316.29 283.548 1317.1 283.633 1318.01 283.804C1318.93 283.965 1319.81 284.301 1320.66 284.812C1321.53 285.324 1322.24 286.095 1322.81 287.128C1323.38 288.16 1323.66 289.542 1323.66 291.275V305.65H1320.31V302.696H1320.14C1319.91 303.169 1319.53 303.676 1319 304.216C1318.47 304.756 1317.77 305.215 1316.88 305.594C1316 305.972 1314.93 306.162 1313.66 306.162ZM1314.17 303.15C1315.5 303.15 1316.62 302.89 1317.52 302.369C1318.44 301.848 1319.13 301.176 1319.6 300.352C1320.07 299.528 1320.31 298.662 1320.31 297.753V294.684C1320.17 294.855 1319.85 295.011 1319.37 295.153C1318.9 295.286 1318.35 295.404 1317.72 295.508C1317.11 295.603 1316.51 295.688 1315.92 295.764C1315.34 295.83 1314.87 295.887 1314.51 295.934C1313.64 296.048 1312.83 296.233 1312.07 296.488C1311.32 296.735 1310.72 297.109 1310.25 297.611C1309.8 298.103 1309.57 298.775 1309.57 299.628C1309.57 300.792 1310 301.673 1310.86 302.27C1311.73 302.857 1312.84 303.15 1314.17 303.15ZM1333.13 276.559V305.65H1329.78V276.559H1333.13ZM1353.87 292.525V305.65H1350.52V283.832H1353.76V287.241H1354.04C1354.56 286.133 1355.33 285.243 1356.37 284.571C1357.42 283.889 1358.76 283.548 1360.41 283.548C1361.88 283.548 1363.18 283.851 1364.29 284.457C1365.39 285.054 1366.26 285.963 1366.87 287.184C1367.49 288.397 1367.79 289.931 1367.79 291.787V305.65H1364.44V292.014C1364.44 290.3 1364 288.965 1363.11 288.008C1362.22 287.042 1360.99 286.559 1359.44 286.559C1358.37 286.559 1357.42 286.791 1356.57 287.256C1355.74 287.72 1355.08 288.397 1354.6 289.287C1354.12 290.177 1353.87 291.256 1353.87 292.525ZM1387.67 296.73V283.832H1391.02V305.65H1387.67V301.957H1387.44C1386.93 303.065 1386.14 304.007 1385.06 304.784C1383.98 305.551 1382.61 305.934 1380.97 305.934C1379.6 305.934 1378.39 305.636 1377.33 305.04C1376.27 304.434 1375.43 303.524 1374.83 302.312C1374.22 301.091 1373.92 299.552 1373.92 297.696V283.832H1377.27V297.469C1377.27 299.059 1377.72 300.328 1378.61 301.275C1379.51 302.222 1380.65 302.696 1382.04 302.696C1382.88 302.696 1383.73 302.483 1384.59 302.057C1385.46 301.631 1386.19 300.977 1386.77 300.096C1387.37 299.216 1387.67 298.094 1387.67 296.73ZM1397.16 305.65V283.832H1400.4V287.241H1400.68C1401.14 286.077 1401.87 285.172 1402.89 284.528C1403.9 283.875 1405.12 283.548 1406.54 283.548C1407.98 283.548 1409.17 283.875 1410.13 284.528C1411.1 285.172 1411.85 286.077 1412.39 287.241H1412.62C1413.18 286.114 1414.01 285.22 1415.13 284.557C1416.25 283.884 1417.59 283.548 1419.15 283.548C1421.1 283.548 1422.7 284.159 1423.94 285.381C1425.18 286.593 1425.8 288.482 1425.8 291.048V305.65H1422.45V291.048C1422.45 289.438 1422.01 288.288 1421.12 287.596C1420.24 286.905 1419.21 286.559 1418.01 286.559C1416.48 286.559 1415.29 287.023 1414.45 287.952C1413.61 288.87 1413.18 290.035 1413.18 291.446V305.65H1409.78V290.707C1409.78 289.467 1409.37 288.468 1408.57 287.71C1407.76 286.943 1406.73 286.559 1405.46 286.559C1404.59 286.559 1403.77 286.791 1403.01 287.256C1402.27 287.72 1401.66 288.363 1401.2 289.187C1400.74 290.002 1400.51 290.944 1400.51 292.014V305.65H1397.16ZM1432.38 305.65V276.559H1435.73V287.298H1436.02C1436.26 286.919 1436.61 286.436 1437.04 285.849C1437.49 285.253 1438.12 284.722 1438.94 284.258C1439.78 283.785 1440.9 283.548 1442.33 283.548C1444.16 283.548 1445.78 284.007 1447.18 284.926C1448.58 285.845 1449.68 287.147 1450.46 288.832C1451.25 290.518 1451.64 292.506 1451.64 294.798C1451.64 297.109 1451.25 299.112 1450.46 300.807C1449.68 302.492 1448.59 303.799 1447.2 304.727C1445.81 305.646 1444.2 306.105 1442.38 306.105C1440.98 306.105 1439.86 305.873 1439.02 305.409C1438.17 304.935 1437.52 304.4 1437.07 303.804C1436.62 303.198 1436.26 302.696 1436.02 302.298H1435.62V305.65H1432.38ZM1435.68 294.741C1435.68 296.389 1435.92 297.843 1436.4 299.102C1436.88 300.352 1437.59 301.332 1438.52 302.042C1439.45 302.743 1440.58 303.094 1441.93 303.094C1443.33 303.094 1444.5 302.724 1445.44 301.986C1446.38 301.238 1447.09 300.234 1447.57 298.974C1448.05 297.705 1448.29 296.294 1448.29 294.741C1448.29 293.207 1448.05 291.825 1447.58 290.594C1447.12 289.353 1446.41 288.373 1445.46 287.653C1444.53 286.924 1443.35 286.559 1441.93 286.559C1440.56 286.559 1439.42 286.905 1438.49 287.596C1437.56 288.278 1436.86 289.235 1436.39 290.466C1435.91 291.687 1435.68 293.113 1435.68 294.741ZM1465.92 306.105C1463.82 306.105 1462 305.641 1460.48 304.713C1458.96 303.775 1457.79 302.469 1456.97 300.792C1456.16 299.107 1455.75 297.147 1455.75 294.912C1455.75 292.677 1456.16 290.707 1456.97 289.003C1457.79 287.289 1458.94 285.953 1460.41 284.997C1461.88 284.031 1463.61 283.548 1465.58 283.548C1466.71 283.548 1467.84 283.738 1468.94 284.116C1470.05 284.495 1471.06 285.111 1471.97 285.963C1472.88 286.806 1473.6 287.923 1474.14 289.315C1474.68 290.707 1474.95 292.421 1474.95 294.457V295.878H1458.13V292.98H1471.54C1471.54 291.749 1471.3 290.65 1470.81 289.684C1470.32 288.719 1469.63 287.956 1468.73 287.398C1467.84 286.839 1466.79 286.559 1465.58 286.559C1464.24 286.559 1463.09 286.891 1462.11 287.554C1461.15 288.207 1460.4 289.059 1459.88 290.111C1459.36 291.162 1459.1 292.289 1459.1 293.491V295.423C1459.1 297.071 1459.38 298.468 1459.95 299.613C1460.53 300.75 1461.33 301.616 1462.35 302.213C1463.38 302.8 1464.56 303.094 1465.92 303.094C1466.8 303.094 1467.6 302.97 1468.31 302.724C1469.03 302.469 1469.65 302.09 1470.17 301.588C1470.69 301.077 1471.09 300.442 1471.37 299.684L1474.61 300.594C1474.27 301.692 1473.7 302.658 1472.89 303.491C1472.09 304.315 1471.09 304.959 1469.91 305.423C1468.73 305.878 1467.4 306.105 1465.92 306.105ZM1480.05 305.65V283.832H1483.29V287.128H1483.52C1483.92 286.048 1484.64 285.172 1485.68 284.5C1486.72 283.827 1487.89 283.491 1489.2 283.491C1489.45 283.491 1489.75 283.496 1490.12 283.506C1490.49 283.515 1490.77 283.529 1490.96 283.548V286.957C1490.85 286.929 1490.59 286.886 1490.18 286.829C1489.78 286.763 1489.36 286.73 1488.92 286.73C1487.86 286.73 1486.91 286.952 1486.08 287.398C1485.25 287.833 1484.6 288.439 1484.12 289.216C1483.64 289.983 1483.4 290.859 1483.4 291.844V305.65H1480.05ZM1515.05 306.105C1513.08 306.105 1511.35 305.636 1509.86 304.699C1508.39 303.761 1507.23 302.45 1506.4 300.764C1505.57 299.078 1505.16 297.109 1505.16 294.855C1505.16 292.582 1505.57 290.598 1506.4 288.903C1507.23 287.208 1508.39 285.892 1509.86 284.954C1511.35 284.017 1513.08 283.548 1515.05 283.548C1517.02 283.548 1518.74 284.017 1520.22 284.954C1521.71 285.892 1522.86 287.208 1523.69 288.903C1524.52 290.598 1524.94 292.582 1524.94 294.855C1524.94 297.109 1524.52 299.078 1523.69 300.764C1522.86 302.45 1521.71 303.761 1520.22 304.699C1518.74 305.636 1517.02 306.105 1515.05 306.105ZM1515.05 303.094C1516.55 303.094 1517.78 302.71 1518.74 301.943C1519.71 301.176 1520.42 300.167 1520.89 298.917C1521.35 297.667 1521.58 296.313 1521.58 294.855C1521.58 293.397 1521.35 292.038 1520.89 290.778C1520.42 289.519 1519.71 288.501 1518.74 287.724C1517.78 286.948 1516.55 286.559 1515.05 286.559C1513.55 286.559 1512.32 286.948 1511.36 287.724C1510.39 288.501 1509.67 289.519 1509.21 290.778C1508.75 292.038 1508.51 293.397 1508.51 294.855C1508.51 296.313 1508.75 297.667 1509.21 298.917C1509.67 300.167 1510.39 301.176 1511.36 301.943C1512.32 302.71 1513.55 303.094 1515.05 303.094ZM1539.77 283.832V286.673H1528.01V283.832H1539.77ZM1531.53 305.65V280.821C1531.53 279.571 1531.82 278.529 1532.41 277.696C1533 276.863 1533.76 276.238 1534.7 275.821C1535.63 275.404 1536.62 275.196 1537.67 275.196C1538.49 275.196 1539.16 275.262 1539.68 275.395C1540.2 275.527 1540.59 275.65 1540.85 275.764L1539.88 278.662C1539.71 278.605 1539.47 278.534 1539.17 278.449C1538.88 278.363 1538.49 278.321 1538.01 278.321C1536.9 278.321 1536.1 278.6 1535.61 279.159C1535.12 279.718 1534.88 280.537 1534.88 281.616V305.65H1531.53ZM1565.21 283.832V286.673H1553.9V283.832H1565.21ZM1557.19 278.605H1560.55V299.4C1560.55 300.347 1560.68 301.058 1560.96 301.531C1561.24 301.995 1561.6 302.308 1562.04 302.469C1562.48 302.62 1562.95 302.696 1563.44 302.696C1563.81 302.696 1564.12 302.677 1564.35 302.639C1564.59 302.592 1564.78 302.554 1564.92 302.525L1565.6 305.537C1565.38 305.622 1565.06 305.707 1564.65 305.792C1564.24 305.887 1563.73 305.934 1563.1 305.934C1562.16 305.934 1561.23 305.731 1560.32 305.324C1559.42 304.916 1558.67 304.296 1558.07 303.463C1557.49 302.63 1557.19 301.578 1557.19 300.309V278.605ZM1570.25 305.65V283.832H1573.6V305.65H1570.25ZM1571.95 280.196C1571.3 280.196 1570.74 279.973 1570.26 279.528C1569.8 279.083 1569.57 278.548 1569.57 277.923C1569.57 277.298 1569.8 276.763 1570.26 276.318C1570.74 275.873 1571.3 275.65 1571.95 275.65C1572.61 275.65 1573.16 275.873 1573.63 276.318C1574.1 276.763 1574.34 277.298 1574.34 277.923C1574.34 278.548 1574.1 279.083 1573.63 279.528C1573.16 279.973 1572.61 280.196 1571.95 280.196ZM1579.74 305.65V283.832H1582.98V287.241H1583.26C1583.72 286.077 1584.45 285.172 1585.46 284.528C1586.48 283.875 1587.69 283.548 1589.12 283.548C1590.55 283.548 1591.75 283.875 1592.71 284.528C1593.67 285.172 1594.43 286.077 1594.97 287.241H1595.19C1595.75 286.114 1596.59 285.22 1597.71 284.557C1598.83 283.884 1600.17 283.548 1601.73 283.548C1603.68 283.548 1605.28 284.159 1606.52 285.381C1607.76 286.593 1608.38 288.482 1608.38 291.048V305.65H1605.02V291.048C1605.02 289.438 1604.58 288.288 1603.7 287.596C1602.82 286.905 1601.79 286.559 1600.59 286.559C1599.06 286.559 1597.87 287.023 1597.03 287.952C1596.18 288.87 1595.76 290.035 1595.76 291.446V305.65H1592.35V290.707C1592.35 289.467 1591.95 288.468 1591.15 287.71C1590.34 286.943 1589.3 286.559 1588.04 286.559C1587.16 286.559 1586.35 286.791 1585.59 287.256C1584.84 287.72 1584.24 288.363 1583.77 289.187C1583.32 290.002 1583.09 290.944 1583.09 292.014V305.65H1579.74ZM1623.65 306.105C1621.55 306.105 1619.74 305.641 1618.21 304.713C1616.7 303.775 1615.53 302.469 1614.7 300.792C1613.89 299.107 1613.48 297.147 1613.48 294.912C1613.48 292.677 1613.89 290.707 1614.7 289.003C1615.53 287.289 1616.67 285.953 1618.14 284.997C1619.62 284.031 1621.34 283.548 1623.31 283.548C1624.45 283.548 1625.57 283.738 1626.68 284.116C1627.79 284.495 1628.8 285.111 1629.7 285.963C1630.61 286.806 1631.34 287.923 1631.88 289.315C1632.42 290.707 1632.69 292.421 1632.69 294.457V295.878H1615.87V292.98H1629.28C1629.28 291.749 1629.03 290.65 1628.54 289.684C1628.06 288.719 1627.37 287.956 1626.47 287.398C1625.58 286.839 1624.52 286.559 1623.31 286.559C1621.98 286.559 1620.82 286.891 1619.85 287.554C1618.88 288.207 1618.14 289.059 1617.62 290.111C1617.1 291.162 1616.84 292.289 1616.84 293.491V295.423C1616.84 297.071 1617.12 298.468 1617.69 299.613C1618.27 300.75 1619.07 301.616 1620.09 302.213C1621.11 302.8 1622.3 303.094 1623.65 303.094C1624.53 303.094 1625.33 302.97 1626.04 302.724C1626.76 302.469 1627.38 302.09 1627.9 301.588C1628.42 301.077 1628.82 300.442 1629.11 299.684L1632.35 300.594C1632.01 301.692 1631.43 302.658 1630.63 303.491C1629.82 304.315 1628.83 304.959 1627.64 305.423C1626.46 305.878 1625.13 306.105 1623.65 306.105ZM1653.24 288.719L1650.23 289.571C1650.04 289.069 1649.76 288.581 1649.39 288.108C1649.03 287.625 1648.54 287.227 1647.91 286.915C1647.29 286.602 1646.49 286.446 1645.51 286.446C1644.18 286.446 1643.07 286.754 1642.18 287.369C1641.3 287.975 1640.86 288.747 1640.86 289.684C1640.86 290.518 1641.16 291.176 1641.76 291.659C1642.37 292.142 1643.32 292.544 1644.61 292.866L1647.84 293.662C1649.79 294.135 1651.25 294.86 1652.2 295.835C1653.16 296.801 1653.64 298.046 1653.64 299.571C1653.64 300.821 1653.28 301.938 1652.56 302.923C1651.85 303.908 1650.86 304.684 1649.58 305.253C1648.3 305.821 1646.81 306.105 1645.12 306.105C1642.89 306.105 1641.05 305.622 1639.59 304.656C1638.13 303.69 1637.21 302.279 1636.82 300.423L1640 299.628C1640.31 300.802 1640.88 301.683 1641.72 302.27C1642.57 302.857 1643.69 303.15 1645.06 303.15C1646.62 303.15 1647.86 302.819 1648.78 302.156C1649.71 301.484 1650.17 300.679 1650.17 299.741C1650.17 298.984 1649.91 298.349 1649.38 297.838C1648.85 297.317 1648.03 296.929 1646.93 296.673L1643.3 295.821C1641.3 295.347 1639.83 294.613 1638.89 293.619C1637.97 292.615 1637.5 291.361 1637.5 289.855C1637.5 288.624 1637.85 287.535 1638.54 286.588C1639.24 285.641 1640.19 284.898 1641.39 284.358C1642.61 283.818 1643.98 283.548 1645.51 283.548C1647.67 283.548 1649.37 284.022 1650.6 284.969C1651.84 285.916 1652.72 287.166 1653.24 288.719Z" fill="black"/>
<path id="Line 18" d="M989.265 286.035L1023.77 316.874L1107.03 223.881" stroke="#58DD4E" stroke-width="11" stroke-linecap="round" stroke-linejoin="round"/>
</g>
<g id="A_same_transition_can_be_explored_exponentially_many_times">
<g id="Group 68">
<g id="Group 66">
<path id="Line 18_2" d="M985.648 474.564L1082.53 560.062" stroke="#FF0000" stroke-width="11" stroke-linecap="round"/>
</g>
<g id="Group 67">
<path id="Line 18_3" d="M1083.03 474.976L986.145 560.475" stroke="#FF0000" stroke-width="11" stroke-linecap="round"/>
</g>
</g>
<path id="Builds a DAG: exponential memory consumption" d="M1136.17 509.65V480.559H1146.34C1148.37 480.559 1150.04 480.91 1151.36 481.611C1152.67 482.302 1153.65 483.235 1154.3 484.409C1154.94 485.574 1155.26 486.866 1155.26 488.287C1155.26 489.537 1155.04 490.569 1154.59 491.383C1154.16 492.198 1153.58 492.842 1152.86 493.315C1152.15 493.789 1151.38 494.139 1150.55 494.366V494.65C1151.44 494.707 1152.33 495.02 1153.23 495.588C1154.13 496.156 1154.88 496.97 1155.49 498.031C1156.1 499.092 1156.4 500.389 1156.4 501.923C1156.4 503.381 1156.07 504.693 1155.4 505.858C1154.74 507.023 1153.69 507.946 1152.26 508.628C1150.83 509.309 1148.97 509.65 1146.68 509.65H1136.17ZM1139.69 506.525H1146.68C1148.98 506.525 1150.62 506.08 1151.58 505.19C1152.56 504.291 1153.05 503.202 1153.05 501.923C1153.05 500.938 1152.8 500.029 1152.29 499.196C1151.79 498.353 1151.08 497.681 1150.15 497.179C1149.22 496.667 1148.12 496.412 1146.85 496.412H1139.69V506.525ZM1139.69 493.344H1146.23C1147.29 493.344 1148.25 493.135 1149.1 492.719C1149.96 492.302 1150.64 491.715 1151.14 490.957C1151.65 490.2 1151.91 489.309 1151.91 488.287C1151.91 487.008 1151.46 485.924 1150.57 485.034C1149.68 484.134 1148.27 483.684 1146.34 483.684H1139.69V493.344ZM1175.48 500.73V487.832H1178.83V509.65H1175.48V505.957H1175.25C1174.74 507.065 1173.95 508.007 1172.87 508.784C1171.79 509.551 1170.43 509.934 1168.78 509.934C1167.41 509.934 1166.2 509.636 1165.14 509.04C1164.08 508.434 1163.25 507.524 1162.64 506.312C1162.04 505.091 1161.73 503.552 1161.73 501.696V487.832H1165.08V501.469C1165.08 503.059 1165.53 504.328 1166.42 505.275C1167.32 506.222 1168.47 506.696 1169.86 506.696C1170.69 506.696 1171.54 506.483 1172.4 506.057C1173.27 505.631 1174 504.977 1174.59 504.096C1175.18 503.216 1175.48 502.094 1175.48 500.73ZM1184.97 509.65V487.832H1188.33V509.65H1184.97ZM1186.68 484.196C1186.03 484.196 1185.46 483.973 1184.99 483.528C1184.52 483.083 1184.29 482.548 1184.29 481.923C1184.29 481.298 1184.52 480.763 1184.99 480.318C1185.46 479.873 1186.03 479.65 1186.68 479.65C1187.33 479.65 1187.89 479.873 1188.36 480.318C1188.83 480.763 1189.07 481.298 1189.07 481.923C1189.07 482.548 1188.83 483.083 1188.36 483.528C1187.89 483.973 1187.33 484.196 1186.68 484.196ZM1197.82 480.559V509.65H1194.47V480.559H1197.82ZM1212.2 510.105C1210.38 510.105 1208.77 509.646 1207.38 508.727C1205.99 507.799 1204.9 506.492 1204.12 504.807C1203.33 503.112 1202.94 501.109 1202.94 498.798C1202.94 496.506 1203.33 494.518 1204.12 492.832C1204.9 491.147 1205.99 489.845 1207.4 488.926C1208.8 488.007 1210.42 487.548 1212.25 487.548C1213.67 487.548 1214.8 487.785 1215.62 488.258C1216.45 488.722 1217.09 489.253 1217.52 489.849C1217.97 490.436 1218.31 490.919 1218.56 491.298H1218.85V480.559H1222.2V509.65H1218.96V506.298H1218.56C1218.31 506.696 1217.96 507.198 1217.51 507.804C1217.06 508.4 1216.41 508.935 1215.56 509.409C1214.72 509.873 1213.6 510.105 1212.2 510.105ZM1212.65 507.094C1214 507.094 1215.13 506.743 1216.06 506.042C1216.99 505.332 1217.69 504.352 1218.18 503.102C1218.66 501.843 1218.9 500.389 1218.9 498.741C1218.9 497.113 1218.67 495.687 1218.19 494.466C1217.72 493.235 1217.02 492.278 1216.09 491.596C1215.16 490.905 1214.02 490.559 1212.65 490.559C1211.23 490.559 1210.05 490.924 1209.1 491.653C1208.16 492.373 1207.46 493.353 1206.98 494.594C1206.52 495.825 1206.29 497.207 1206.29 498.741C1206.29 500.294 1206.53 501.705 1207 502.974C1207.48 504.234 1208.19 505.238 1209.13 505.986C1210.08 506.724 1211.25 507.094 1212.65 507.094ZM1244.26 492.719L1241.25 493.571C1241.06 493.069 1240.78 492.581 1240.41 492.108C1240.05 491.625 1239.56 491.227 1238.93 490.915C1238.31 490.602 1237.51 490.446 1236.53 490.446C1235.19 490.446 1234.08 490.754 1233.19 491.369C1232.31 491.975 1231.87 492.747 1231.87 493.684C1231.87 494.518 1232.17 495.176 1232.78 495.659C1233.39 496.142 1234.33 496.544 1235.62 496.866L1238.86 497.662C1240.81 498.135 1242.26 498.86 1243.22 499.835C1244.18 500.801 1244.65 502.046 1244.65 503.571C1244.65 504.821 1244.29 505.938 1243.58 506.923C1242.87 507.908 1241.87 508.684 1240.59 509.253C1239.31 509.821 1237.83 510.105 1236.13 510.105C1233.91 510.105 1232.06 509.622 1230.61 508.656C1229.15 507.69 1228.22 506.279 1227.84 504.423L1231.02 503.628C1231.32 504.802 1231.89 505.683 1232.74 506.27C1233.59 506.857 1234.7 507.15 1236.08 507.15C1237.64 507.15 1238.88 506.819 1239.8 506.156C1240.72 505.484 1241.19 504.679 1241.19 503.741C1241.19 502.984 1240.92 502.349 1240.39 501.838C1239.86 501.317 1239.05 500.929 1237.95 500.673L1234.31 499.821C1232.32 499.347 1230.85 498.613 1229.91 497.619C1228.98 496.615 1228.52 495.361 1228.52 493.855C1228.52 492.624 1228.86 491.535 1229.56 490.588C1230.26 489.641 1231.21 488.898 1232.41 488.358C1233.62 487.818 1235 487.548 1236.53 487.548C1238.69 487.548 1240.38 488.022 1241.62 488.969C1242.86 489.916 1243.74 491.166 1244.26 492.719ZM1267.37 510.162C1265.99 510.162 1264.73 509.901 1263.61 509.381C1262.48 508.85 1261.59 508.088 1260.92 507.094C1260.26 506.09 1259.93 504.878 1259.93 503.457C1259.93 502.207 1260.17 501.194 1260.67 500.417C1261.16 499.631 1261.82 499.016 1262.64 498.571C1263.47 498.126 1264.37 497.794 1265.37 497.577C1266.37 497.349 1267.38 497.169 1268.39 497.037C1269.72 496.866 1270.79 496.738 1271.62 496.653C1272.45 496.559 1273.06 496.402 1273.44 496.184C1273.83 495.967 1274.02 495.588 1274.02 495.048V494.934C1274.02 493.533 1273.64 492.444 1272.87 491.667C1272.11 490.891 1270.96 490.503 1269.42 490.503C1267.82 490.503 1266.56 490.853 1265.65 491.554C1264.74 492.255 1264.1 493.003 1263.74 493.798L1260.55 492.662C1261.12 491.336 1261.88 490.304 1262.83 489.565C1263.78 488.817 1264.82 488.296 1265.95 488.003C1267.09 487.7 1268.2 487.548 1269.3 487.548C1270 487.548 1270.81 487.633 1271.72 487.804C1272.64 487.965 1273.52 488.301 1274.37 488.812C1275.24 489.324 1275.95 490.095 1276.52 491.128C1277.09 492.16 1277.37 493.542 1277.37 495.275V509.65H1274.02V506.696H1273.85C1273.62 507.169 1273.24 507.676 1272.71 508.216C1272.18 508.756 1271.48 509.215 1270.6 509.594C1269.72 509.972 1268.64 510.162 1267.37 510.162ZM1267.88 507.15C1269.21 507.15 1270.33 506.89 1271.24 506.369C1272.15 505.848 1272.84 505.176 1273.31 504.352C1273.78 503.528 1274.02 502.662 1274.02 501.753V498.684C1273.88 498.855 1273.56 499.011 1273.08 499.153C1272.61 499.286 1272.06 499.404 1271.43 499.508C1270.82 499.603 1270.22 499.688 1269.63 499.764C1269.05 499.83 1268.58 499.887 1268.22 499.934C1267.35 500.048 1266.54 500.233 1265.78 500.488C1265.03 500.735 1264.43 501.109 1263.96 501.611C1263.51 502.103 1263.28 502.775 1263.28 503.628C1263.28 504.792 1263.71 505.673 1264.57 506.27C1265.44 506.857 1266.55 507.15 1267.88 507.15ZM1304.17 509.65H1295.19V480.559H1304.57C1307.39 480.559 1309.81 481.142 1311.81 482.307C1313.82 483.462 1315.36 485.124 1316.43 487.292C1317.5 489.452 1318.04 492.037 1318.04 495.048C1318.04 498.078 1317.5 500.687 1316.42 502.875C1315.34 505.053 1313.76 506.729 1311.7 507.903C1309.64 509.068 1307.13 509.65 1304.17 509.65ZM1298.72 506.525H1303.94C1306.35 506.525 1308.34 506.061 1309.92 505.133C1311.51 504.205 1312.69 502.884 1313.46 501.17C1314.24 499.456 1314.63 497.416 1314.63 495.048C1314.63 492.7 1314.24 490.678 1313.48 488.983C1312.71 487.278 1311.56 485.971 1310.04 485.062C1308.51 484.144 1306.62 483.684 1304.34 483.684H1298.72V506.525ZM1323.77 509.65H1320.08L1330.76 480.559H1334.4L1345.08 509.65H1341.38L1332.69 485.162H1332.46L1323.77 509.65ZM1325.13 498.287H1340.02V501.412H1325.13V498.287ZM1368.13 489.65C1367.82 488.694 1367.4 487.837 1366.89 487.079C1366.39 486.312 1365.79 485.659 1365.09 485.119C1364.4 484.579 1363.61 484.167 1362.73 483.883C1361.85 483.599 1360.88 483.457 1359.83 483.457C1358.11 483.457 1356.54 483.902 1355.13 484.792C1353.72 485.683 1352.6 486.994 1351.76 488.727C1350.93 490.46 1350.51 492.586 1350.51 495.105C1350.51 497.624 1350.94 499.75 1351.78 501.483C1352.62 503.216 1353.76 504.527 1355.2 505.417C1356.64 506.308 1358.26 506.753 1360.06 506.753C1361.73 506.753 1363.19 506.398 1364.46 505.687C1365.74 504.968 1366.74 503.954 1367.45 502.648C1368.17 501.331 1368.53 499.783 1368.53 498.003L1369.61 498.23H1360.86V495.105H1371.93V498.23C1371.93 500.626 1371.42 502.709 1370.4 504.48C1369.39 506.251 1367.99 507.624 1366.2 508.599C1364.42 509.565 1362.37 510.048 1360.06 510.048C1357.48 510.048 1355.22 509.442 1353.27 508.23C1351.33 507.018 1349.81 505.294 1348.72 503.059C1347.64 500.825 1347.11 498.173 1347.11 495.105C1347.11 492.804 1347.41 490.735 1348.03 488.898C1348.65 487.051 1349.53 485.479 1350.67 484.182C1351.81 482.884 1353.15 481.89 1354.7 481.199C1356.26 480.507 1357.97 480.162 1359.83 480.162C1361.37 480.162 1362.8 480.394 1364.12 480.858C1365.46 481.312 1366.65 481.961 1367.69 482.804C1368.74 483.637 1369.61 484.636 1370.32 485.801C1371.02 486.956 1371.5 488.239 1371.76 489.65H1368.13ZM1379.96 505.929C1379.26 505.929 1378.65 505.678 1378.15 505.176C1377.65 504.674 1377.4 504.073 1377.4 503.372C1377.4 502.671 1377.65 502.07 1378.15 501.568C1378.65 501.066 1379.26 500.815 1379.96 500.815C1380.66 500.815 1381.26 501.066 1381.76 501.568C1382.26 502.07 1382.51 502.671 1382.51 503.372C1382.51 503.836 1382.4 504.262 1382.16 504.65C1381.93 505.039 1381.62 505.351 1381.24 505.588C1380.86 505.815 1380.43 505.929 1379.96 505.929ZM1379.96 491.213C1379.26 491.213 1378.65 490.962 1378.15 490.46C1377.65 489.958 1377.4 489.357 1377.4 488.656C1377.4 487.955 1377.65 487.354 1378.15 486.852C1378.65 486.35 1379.26 486.099 1379.96 486.099C1380.66 486.099 1381.26 486.35 1381.76 486.852C1382.26 487.354 1382.51 487.955 1382.51 488.656C1382.51 489.12 1382.4 489.546 1382.16 489.934C1381.93 490.323 1381.62 490.635 1381.24 490.872C1380.86 491.099 1380.43 491.213 1379.96 491.213ZM1408.93 510.105C1406.82 510.105 1405.01 509.641 1403.49 508.713C1401.97 507.775 1400.8 506.469 1399.98 504.792C1399.16 503.107 1398.76 501.147 1398.76 498.912C1398.76 496.677 1399.16 494.707 1399.98 493.003C1400.8 491.289 1401.95 489.953 1403.42 488.997C1404.89 488.031 1406.62 487.548 1408.59 487.548C1409.72 487.548 1410.84 487.738 1411.95 488.116C1413.06 488.495 1414.07 489.111 1414.98 489.963C1415.89 490.806 1416.61 491.923 1417.15 493.315C1417.69 494.707 1417.96 496.421 1417.96 498.457V499.878H1401.14V496.98H1414.55C1414.55 495.749 1414.31 494.65 1413.81 493.684C1413.33 492.719 1412.64 491.956 1411.74 491.398C1410.85 490.839 1409.8 490.559 1408.59 490.559C1407.25 490.559 1406.1 490.891 1405.12 491.554C1404.15 492.207 1403.41 493.059 1402.89 494.111C1402.37 495.162 1402.11 496.289 1402.11 497.491V499.423C1402.11 501.071 1402.39 502.468 1402.96 503.613C1403.54 504.75 1404.34 505.616 1405.36 506.213C1406.38 506.8 1407.57 507.094 1408.93 507.094C1409.81 507.094 1410.6 506.97 1411.31 506.724C1412.03 506.469 1412.65 506.09 1413.17 505.588C1413.69 505.077 1414.1 504.442 1414.38 503.684L1417.62 504.594C1417.28 505.692 1416.71 506.658 1415.9 507.491C1415.1 508.315 1414.1 508.959 1412.92 509.423C1411.73 509.878 1410.4 510.105 1408.93 510.105ZM1424.97 487.832L1430.2 496.753L1435.43 487.832H1439.29L1432.25 498.741L1439.29 509.65H1435.43L1430.2 501.184L1424.97 509.65H1421.11L1428.04 498.741L1421.11 487.832H1424.97ZM1444.08 517.832V487.832H1447.31V491.298H1447.71C1447.96 490.919 1448.3 490.436 1448.74 489.849C1449.18 489.253 1449.81 488.722 1450.64 488.258C1451.47 487.785 1452.6 487.548 1454.02 487.548C1455.86 487.548 1457.48 488.007 1458.88 488.926C1460.28 489.845 1461.37 491.147 1462.16 492.832C1462.94 494.518 1463.34 496.506 1463.34 498.798C1463.34 501.109 1462.94 503.112 1462.16 504.807C1461.37 506.492 1460.28 507.799 1458.89 508.727C1457.5 509.646 1455.89 510.105 1454.08 510.105C1452.67 510.105 1451.55 509.873 1450.71 509.409C1449.87 508.935 1449.22 508.4 1448.76 507.804C1448.31 507.198 1447.96 506.696 1447.71 506.298H1447.43V517.832H1444.08ZM1447.37 498.741C1447.37 500.389 1447.61 501.843 1448.1 503.102C1448.58 504.352 1449.28 505.332 1450.21 506.042C1451.14 506.743 1452.28 507.094 1453.62 507.094C1455.02 507.094 1456.19 506.724 1457.13 505.986C1458.08 505.238 1458.79 504.234 1459.26 502.974C1459.74 501.705 1459.99 500.294 1459.99 498.741C1459.99 497.207 1459.75 495.825 1459.27 494.594C1458.81 493.353 1458.11 492.373 1457.16 491.653C1456.22 490.924 1455.04 490.559 1453.62 490.559C1452.26 490.559 1451.11 490.905 1450.18 491.596C1449.26 492.278 1448.56 493.235 1448.08 494.466C1447.61 495.687 1447.37 497.113 1447.37 498.741ZM1477.31 510.105C1475.34 510.105 1473.62 509.636 1472.13 508.699C1470.65 507.761 1469.5 506.45 1468.66 504.764C1467.84 503.078 1467.43 501.109 1467.43 498.855C1467.43 496.582 1467.84 494.598 1468.66 492.903C1469.5 491.208 1470.65 489.892 1472.13 488.954C1473.62 488.017 1475.34 487.548 1477.31 487.548C1479.28 487.548 1481.01 488.017 1482.49 488.954C1483.97 489.892 1485.13 491.208 1485.95 492.903C1486.78 494.598 1487.2 496.582 1487.2 498.855C1487.2 501.109 1486.78 503.078 1485.95 504.764C1485.13 506.45 1483.97 507.761 1482.49 508.699C1481.01 509.636 1479.28 510.105 1477.31 510.105ZM1477.31 507.094C1478.81 507.094 1480.04 506.71 1481.01 505.943C1481.97 505.176 1482.69 504.167 1483.15 502.917C1483.62 501.667 1483.85 500.313 1483.85 498.855C1483.85 497.397 1483.62 496.038 1483.15 494.778C1482.69 493.519 1481.97 492.501 1481.01 491.724C1480.04 490.948 1478.81 490.559 1477.31 490.559C1475.82 490.559 1474.59 490.948 1473.62 491.724C1472.66 492.501 1471.94 493.519 1471.48 494.778C1471.01 496.038 1470.78 497.397 1470.78 498.855C1470.78 500.313 1471.01 501.667 1471.48 502.917C1471.94 504.167 1472.66 505.176 1473.62 505.943C1474.59 506.71 1475.82 507.094 1477.31 507.094ZM1495.67 496.525V509.65H1492.32V487.832H1495.56V491.241H1495.84C1496.35 490.133 1497.13 489.243 1498.17 488.571C1499.21 487.889 1500.56 487.548 1502.2 487.548C1503.68 487.548 1504.97 487.851 1506.08 488.457C1507.19 489.054 1508.05 489.963 1508.67 491.184C1509.28 492.397 1509.59 493.931 1509.59 495.787V509.65H1506.24V496.014C1506.24 494.3 1505.79 492.965 1504.9 492.008C1504.01 491.042 1502.79 490.559 1501.24 490.559C1500.17 490.559 1499.21 490.791 1498.37 491.256C1497.54 491.72 1496.88 492.397 1496.39 493.287C1495.91 494.177 1495.67 495.256 1495.67 496.525ZM1524.86 510.105C1522.76 510.105 1520.95 509.641 1519.42 508.713C1517.91 507.775 1516.74 506.469 1515.92 504.792C1515.1 503.107 1514.69 501.147 1514.69 498.912C1514.69 496.677 1515.1 494.707 1515.92 493.003C1516.74 491.289 1517.89 489.953 1519.35 488.997C1520.83 488.031 1522.55 487.548 1524.52 487.548C1525.66 487.548 1526.78 487.738 1527.89 488.116C1529 488.495 1530.01 489.111 1530.92 489.963C1531.82 490.806 1532.55 491.923 1533.09 493.315C1533.63 494.707 1533.9 496.421 1533.9 498.457V499.878H1517.08V496.98H1530.49C1530.49 495.749 1530.24 494.65 1529.75 493.684C1529.27 492.719 1528.58 491.956 1527.68 491.398C1526.79 490.839 1525.74 490.559 1524.52 490.559C1523.19 490.559 1522.03 490.891 1521.06 491.554C1520.09 492.207 1519.35 493.059 1518.83 494.111C1518.31 495.162 1518.05 496.289 1518.05 497.491V499.423C1518.05 501.071 1518.33 502.468 1518.9 503.613C1519.48 504.75 1520.28 505.616 1521.3 506.213C1522.32 506.8 1523.51 507.094 1524.86 507.094C1525.75 507.094 1526.54 506.97 1527.25 506.724C1527.97 506.469 1528.59 506.09 1529.11 505.588C1529.63 505.077 1530.03 504.442 1530.32 503.684L1533.56 504.594C1533.22 505.692 1532.64 506.658 1531.84 507.491C1531.03 508.315 1530.04 508.959 1528.86 509.423C1527.67 509.878 1526.34 510.105 1524.86 510.105ZM1542.35 496.525V509.65H1539V487.832H1542.24V491.241H1542.52C1543.03 490.133 1543.81 489.243 1544.85 488.571C1545.89 487.889 1547.24 487.548 1548.88 487.548C1550.36 487.548 1551.65 487.851 1552.76 488.457C1553.87 489.054 1554.73 489.963 1555.35 491.184C1555.96 492.397 1556.27 493.931 1556.27 495.787V509.65H1552.92V496.014C1552.92 494.3 1552.47 492.965 1551.58 492.008C1550.69 491.042 1549.47 490.559 1547.92 490.559C1546.85 490.559 1545.89 490.791 1545.05 491.256C1544.22 491.72 1543.56 492.397 1543.07 493.287C1542.59 494.177 1542.35 495.256 1542.35 496.525ZM1571.88 487.832V490.673H1560.58V487.832H1571.88ZM1563.87 482.605H1567.23V503.4C1567.23 504.347 1567.36 505.058 1567.64 505.531C1567.92 505.995 1568.28 506.308 1568.72 506.469C1569.16 506.62 1569.63 506.696 1570.12 506.696C1570.49 506.696 1570.8 506.677 1571.03 506.639C1571.27 506.592 1571.46 506.554 1571.6 506.525L1572.28 509.537C1572.06 509.622 1571.74 509.707 1571.33 509.792C1570.92 509.887 1570.41 509.934 1569.78 509.934C1568.84 509.934 1567.91 509.731 1567 509.324C1566.1 508.916 1565.35 508.296 1564.75 507.463C1564.17 506.63 1563.87 505.578 1563.87 504.309V482.605ZM1576.93 509.65V487.832H1580.28V509.65H1576.93ZM1578.63 484.196C1577.98 484.196 1577.42 483.973 1576.94 483.528C1576.48 483.083 1576.25 482.548 1576.25 481.923C1576.25 481.298 1576.48 480.763 1576.94 480.318C1577.42 479.873 1577.98 479.65 1578.63 479.65C1579.29 479.65 1579.84 479.873 1580.31 480.318C1580.78 480.763 1581.02 481.298 1581.02 481.923C1581.02 482.548 1580.78 483.083 1580.31 483.528C1579.84 483.973 1579.29 484.196 1578.63 484.196ZM1592.84 510.162C1591.46 510.162 1590.2 509.901 1589.08 509.381C1587.95 508.85 1587.05 508.088 1586.39 507.094C1585.73 506.09 1585.4 504.878 1585.4 503.457C1585.4 502.207 1585.64 501.194 1586.14 500.417C1586.63 499.631 1587.29 499.016 1588.11 498.571C1588.93 498.126 1589.84 497.794 1590.84 497.577C1591.84 497.349 1592.85 497.169 1593.86 497.037C1595.19 496.866 1596.26 496.738 1597.09 496.653C1597.92 496.559 1598.53 496.402 1598.91 496.184C1599.29 495.967 1599.49 495.588 1599.49 495.048V494.934C1599.49 493.533 1599.1 492.444 1598.34 491.667C1597.58 490.891 1596.43 490.503 1594.89 490.503C1593.29 490.503 1592.03 490.853 1591.12 491.554C1590.21 492.255 1589.57 493.003 1589.2 493.798L1586.02 492.662C1586.59 491.336 1587.35 490.304 1588.29 489.565C1589.25 488.817 1590.29 488.296 1591.42 488.003C1592.56 487.7 1593.67 487.548 1594.77 487.548C1595.47 487.548 1596.28 487.633 1597.19 487.804C1598.11 487.965 1598.99 488.301 1599.84 488.812C1600.7 489.324 1601.42 490.095 1601.99 491.128C1602.56 492.16 1602.84 493.542 1602.84 495.275V509.65H1599.49V506.696H1599.32C1599.09 507.169 1598.71 507.676 1598.18 508.216C1597.65 508.756 1596.95 509.215 1596.06 509.594C1595.18 509.972 1594.11 510.162 1592.84 510.162ZM1593.35 507.15C1594.68 507.15 1595.79 506.89 1596.7 506.369C1597.62 505.848 1598.31 505.176 1598.78 504.352C1599.25 503.528 1599.49 502.662 1599.49 501.753V498.684C1599.35 498.855 1599.03 499.011 1598.55 499.153C1598.08 499.286 1597.53 499.404 1596.9 499.508C1596.29 499.603 1595.69 499.688 1595.1 499.764C1594.52 499.83 1594.05 499.887 1593.69 499.934C1592.82 500.048 1592.01 500.233 1591.25 500.488C1590.5 500.735 1589.9 501.109 1589.43 501.611C1588.98 502.103 1588.75 502.775 1588.75 503.628C1588.75 504.792 1589.18 505.673 1590.04 506.27C1590.91 506.857 1592.02 507.15 1593.35 507.15ZM1612.31 480.559V509.65H1608.96V480.559H1612.31ZM1629.7 509.65V487.832H1632.94V491.241H1633.22C1633.68 490.077 1634.41 489.172 1635.43 488.528C1636.44 487.875 1637.66 487.548 1639.08 487.548C1640.52 487.548 1641.71 487.875 1642.67 488.528C1643.64 489.172 1644.39 490.077 1644.93 491.241H1645.16C1645.71 490.114 1646.55 489.22 1647.67 488.557C1648.79 487.884 1650.13 487.548 1651.69 487.548C1653.64 487.548 1655.24 488.159 1656.48 489.381C1657.72 490.593 1658.34 492.482 1658.34 495.048V509.65H1654.99V495.048C1654.99 493.438 1654.54 492.288 1653.66 491.596C1652.78 490.905 1651.75 490.559 1650.55 490.559C1649.02 490.559 1647.83 491.023 1646.99 491.952C1646.15 492.87 1645.72 494.035 1645.72 495.446V509.65H1642.31V494.707C1642.31 493.467 1641.91 492.468 1641.11 491.71C1640.3 490.943 1639.27 490.559 1638 490.559C1637.13 490.559 1636.31 490.791 1635.55 491.256C1634.81 491.72 1634.2 492.363 1633.74 493.187C1633.28 494.002 1633.05 494.944 1633.05 496.014V509.65H1629.7ZM1673.61 510.105C1671.51 510.105 1669.7 509.641 1668.17 508.713C1666.66 507.775 1665.49 506.469 1664.67 504.792C1663.85 503.107 1663.44 501.147 1663.44 498.912C1663.44 496.677 1663.85 494.707 1664.67 493.003C1665.49 491.289 1666.64 489.953 1668.1 488.997C1669.58 488.031 1671.3 487.548 1673.27 487.548C1674.41 487.548 1675.53 487.738 1676.64 488.116C1677.75 488.495 1678.76 489.111 1679.67 489.963C1680.57 490.806 1681.3 491.923 1681.84 493.315C1682.38 494.707 1682.65 496.421 1682.65 498.457V499.878H1665.83V496.98H1679.24C1679.24 495.749 1678.99 494.65 1678.5 493.684C1678.02 492.719 1677.33 491.956 1676.43 491.398C1675.54 490.839 1674.49 490.559 1673.27 490.559C1671.94 490.559 1670.78 490.891 1669.81 491.554C1668.84 492.207 1668.1 493.059 1667.58 494.111C1667.06 495.162 1666.8 496.289 1666.8 497.491V499.423C1666.8 501.071 1667.08 502.468 1667.65 503.613C1668.23 504.75 1669.03 505.616 1670.05 506.213C1671.07 506.8 1672.26 507.094 1673.61 507.094C1674.5 507.094 1675.29 506.97 1676 506.724C1676.72 506.469 1677.34 506.09 1677.86 505.588C1678.38 505.077 1678.78 504.442 1679.07 503.684L1682.31 504.594C1681.97 505.692 1681.39 506.658 1680.59 507.491C1679.78 508.315 1678.79 508.959 1677.61 509.423C1676.42 509.878 1675.09 510.105 1673.61 510.105ZM1687.75 509.65V487.832H1690.99V491.241H1691.27C1691.73 490.077 1692.46 489.172 1693.47 488.528C1694.49 487.875 1695.7 487.548 1697.12 487.548C1698.56 487.548 1699.76 487.875 1700.72 488.528C1701.68 489.172 1702.44 490.077 1702.98 491.241H1703.2C1703.76 490.114 1704.6 489.22 1705.72 488.557C1706.83 487.884 1708.17 487.548 1709.74 487.548C1711.69 487.548 1713.28 488.159 1714.52 489.381C1715.76 490.593 1716.38 492.482 1716.38 495.048V509.65H1713.03V495.048C1713.03 493.438 1712.59 492.288 1711.71 491.596C1710.83 490.905 1709.79 490.559 1708.6 490.559C1707.07 490.559 1705.88 491.023 1705.03 491.952C1704.19 492.87 1703.77 494.035 1703.77 495.446V509.65H1700.36V494.707C1700.36 493.467 1699.96 492.468 1699.15 491.71C1698.35 490.943 1697.31 490.559 1696.04 490.559C1695.17 490.559 1694.36 490.791 1693.6 491.256C1692.85 491.72 1692.25 492.363 1691.78 493.187C1691.33 494.002 1691.1 494.944 1691.1 496.014V509.65H1687.75ZM1731.38 510.105C1729.41 510.105 1727.68 509.636 1726.19 508.699C1724.72 507.761 1723.56 506.45 1722.73 504.764C1721.9 503.078 1721.49 501.109 1721.49 498.855C1721.49 496.582 1721.9 494.598 1722.73 492.903C1723.56 491.208 1724.72 489.892 1726.19 488.954C1727.68 488.017 1729.41 487.548 1731.38 487.548C1733.35 487.548 1735.07 488.017 1736.55 488.954C1738.03 489.892 1739.19 491.208 1740.01 492.903C1740.85 494.598 1741.26 496.582 1741.26 498.855C1741.26 501.109 1740.85 503.078 1740.01 504.764C1739.19 506.45 1738.03 507.761 1736.55 508.699C1735.07 509.636 1733.35 510.105 1731.38 510.105ZM1731.38 507.094C1732.87 507.094 1734.1 506.71 1735.07 505.943C1736.04 505.176 1736.75 504.167 1737.22 502.917C1737.68 501.667 1737.91 500.313 1737.91 498.855C1737.91 497.397 1737.68 496.038 1737.22 494.778C1736.75 493.519 1736.04 492.501 1735.07 491.724C1734.1 490.948 1732.87 490.559 1731.38 490.559C1729.88 490.559 1728.65 490.948 1727.68 491.724C1726.72 492.501 1726 493.519 1725.54 494.778C1725.08 496.038 1724.84 497.397 1724.84 498.855C1724.84 500.313 1725.08 501.667 1725.54 502.917C1726 504.167 1726.72 505.176 1727.68 505.943C1728.65 506.71 1729.88 507.094 1731.38 507.094ZM1746.38 509.65V487.832H1749.62V491.128H1749.85C1750.24 490.048 1750.96 489.172 1752.01 488.5C1753.05 487.827 1754.22 487.491 1755.53 487.491C1755.77 487.491 1756.08 487.496 1756.45 487.506C1756.82 487.515 1757.1 487.529 1757.29 487.548V490.957C1757.18 490.929 1756.92 490.886 1756.51 490.829C1756.11 490.763 1755.69 490.73 1755.24 490.73C1754.18 490.73 1753.24 490.952 1752.4 491.398C1751.58 491.833 1750.93 492.439 1750.44 493.216C1749.97 493.983 1749.73 494.859 1749.73 495.844V509.65H1746.38ZM1764.09 517.832C1763.52 517.832 1763.01 517.785 1762.57 517.69C1762.12 517.605 1761.81 517.52 1761.64 517.434L1762.5 514.48C1763.31 514.688 1764.03 514.764 1764.65 514.707C1765.28 514.65 1765.83 514.371 1766.32 513.869C1766.81 513.377 1767.26 512.577 1767.67 511.469L1768.29 509.764L1760.22 487.832H1763.86L1769.88 505.219H1770.11L1776.13 487.832H1779.77L1770.51 512.832C1770.09 513.959 1769.57 514.892 1768.96 515.631C1768.34 516.379 1767.63 516.933 1766.81 517.292C1766.01 517.652 1765.1 517.832 1764.09 517.832ZM1144.58 558.105C1142.53 558.105 1140.77 557.622 1139.3 556.656C1137.82 555.69 1136.68 554.36 1135.89 552.665C1135.09 550.97 1134.69 549.033 1134.69 546.855C1134.69 544.639 1135.1 542.684 1135.92 540.988C1136.74 539.284 1137.89 537.953 1139.35 536.997C1140.83 536.031 1142.55 535.548 1144.52 535.548C1146.06 535.548 1147.44 535.832 1148.67 536.4C1149.9 536.969 1150.91 537.764 1151.7 538.787C1152.48 539.809 1152.97 541.003 1153.16 542.366H1149.81C1149.55 541.372 1148.98 540.491 1148.1 539.724C1147.23 538.948 1146.06 538.559 1144.58 538.559C1143.27 538.559 1142.13 538.9 1141.14 539.582C1140.17 540.255 1139.41 541.206 1138.86 542.437C1138.32 543.659 1138.05 545.094 1138.05 546.741C1138.05 548.427 1138.31 549.895 1138.84 551.145C1139.38 552.395 1140.14 553.365 1141.11 554.057C1142.1 554.748 1143.25 555.094 1144.58 555.094C1145.45 555.094 1146.24 554.942 1146.95 554.639C1147.66 554.336 1148.26 553.9 1148.76 553.332C1149.25 552.764 1149.6 552.082 1149.81 551.287H1153.16C1152.97 552.575 1152.5 553.735 1151.75 554.767C1151.01 555.79 1150.03 556.604 1148.81 557.21C1147.6 557.807 1146.19 558.105 1144.58 558.105ZM1166.92 558.105C1164.95 558.105 1163.23 557.636 1161.74 556.699C1160.26 555.761 1159.11 554.45 1158.27 552.764C1157.45 551.078 1157.04 549.109 1157.04 546.855C1157.04 544.582 1157.45 542.598 1158.27 540.903C1159.11 539.208 1160.26 537.892 1161.74 536.954C1163.23 536.017 1164.95 535.548 1166.92 535.548C1168.89 535.548 1170.62 536.017 1172.09 536.954C1173.58 537.892 1174.74 539.208 1175.56 540.903C1176.39 542.598 1176.81 544.582 1176.81 546.855C1176.81 549.109 1176.39 551.078 1175.56 552.764C1174.74 554.45 1173.58 555.761 1172.09 556.699C1170.62 557.636 1168.89 558.105 1166.92 558.105ZM1166.92 555.094C1168.42 555.094 1169.65 554.71 1170.62 553.943C1171.58 553.176 1172.3 552.167 1172.76 550.917C1173.23 549.667 1173.46 548.313 1173.46 546.855C1173.46 545.397 1173.23 544.038 1172.76 542.778C1172.3 541.519 1171.58 540.501 1170.62 539.724C1169.65 538.948 1168.42 538.559 1166.92 538.559C1165.43 538.559 1164.2 538.948 1163.23 539.724C1162.26 540.501 1161.55 541.519 1161.09 542.778C1160.62 544.038 1160.39 545.397 1160.39 546.855C1160.39 548.313 1160.62 549.667 1161.09 550.917C1161.55 552.167 1162.26 553.176 1163.23 553.943C1164.2 554.71 1165.43 555.094 1166.92 555.094ZM1185.28 544.525V557.65H1181.93V535.832H1185.17V539.241H1185.45C1185.96 538.133 1186.74 537.243 1187.78 536.571C1188.82 535.889 1190.17 535.548 1191.81 535.548C1193.29 535.548 1194.58 535.851 1195.69 536.457C1196.8 537.054 1197.66 537.963 1198.28 539.184C1198.89 540.397 1199.2 541.931 1199.2 543.787V557.65H1195.85V544.014C1195.85 542.3 1195.4 540.965 1194.51 540.008C1193.62 539.042 1192.4 538.559 1190.85 538.559C1189.78 538.559 1188.82 538.791 1187.98 539.256C1187.15 539.72 1186.49 540.397 1186 541.287C1185.52 542.177 1185.28 543.256 1185.28 544.525ZM1220.78 540.719L1217.77 541.571C1217.58 541.069 1217.3 540.581 1216.93 540.108C1216.57 539.625 1216.08 539.227 1215.45 538.915C1214.83 538.602 1214.03 538.446 1213.05 538.446C1211.72 538.446 1210.61 538.754 1209.72 539.369C1208.83 539.975 1208.39 540.747 1208.39 541.684C1208.39 542.518 1208.7 543.176 1209.3 543.659C1209.91 544.142 1210.86 544.544 1212.14 544.866L1215.38 545.662C1217.33 546.135 1218.79 546.86 1219.74 547.835C1220.7 548.801 1221.18 550.046 1221.18 551.571C1221.18 552.821 1220.82 553.938 1220.1 554.923C1219.39 555.908 1218.39 556.684 1217.12 557.253C1215.84 557.821 1214.35 558.105 1212.66 558.105C1210.43 558.105 1208.59 557.622 1207.13 556.656C1205.67 555.69 1204.75 554.279 1204.36 552.423L1207.54 551.628C1207.84 552.802 1208.42 553.683 1209.26 554.27C1210.11 554.857 1211.23 555.15 1212.6 555.15C1214.16 555.15 1215.4 554.819 1216.32 554.156C1217.25 553.484 1217.71 552.679 1217.71 551.741C1217.71 550.984 1217.45 550.349 1216.92 549.838C1216.39 549.317 1215.57 548.929 1214.47 548.673L1210.84 547.821C1208.84 547.347 1207.37 546.613 1206.43 545.619C1205.51 544.615 1205.04 543.361 1205.04 541.855C1205.04 540.624 1205.39 539.535 1206.08 538.588C1206.78 537.641 1207.73 536.898 1208.93 536.358C1210.15 535.818 1211.52 535.548 1213.05 535.548C1215.21 535.548 1216.91 536.022 1218.14 536.969C1219.38 537.916 1220.26 539.166 1220.78 540.719ZM1239.97 548.73V535.832H1243.33V557.65H1239.97V553.957H1239.75C1239.24 555.065 1238.44 556.007 1237.36 556.784C1236.28 557.551 1234.92 557.934 1233.27 557.934C1231.91 557.934 1230.69 557.636 1229.63 557.04C1228.57 556.434 1227.74 555.524 1227.13 554.312C1226.53 553.091 1226.22 551.552 1226.22 549.696V535.832H1229.58V549.469C1229.58 551.059 1230.02 552.328 1230.91 553.275C1231.81 554.222 1232.96 554.696 1234.35 554.696C1235.18 554.696 1236.03 554.483 1236.89 554.057C1237.76 553.631 1238.49 552.977 1239.08 552.096C1239.68 551.216 1239.97 550.094 1239.97 548.73ZM1249.47 557.65V535.832H1252.71V539.241H1252.99C1253.44 538.077 1254.18 537.172 1255.19 536.528C1256.2 535.875 1257.42 535.548 1258.84 535.548C1260.28 535.548 1261.48 535.875 1262.44 536.528C1263.4 537.172 1264.15 538.077 1264.69 539.241H1264.92C1265.48 538.114 1266.32 537.22 1267.44 536.557C1268.55 535.884 1269.89 535.548 1271.46 535.548C1273.41 535.548 1275 536.159 1276.24 537.381C1277.48 538.593 1278.1 540.482 1278.1 543.048V557.65H1274.75V543.048C1274.75 541.438 1274.31 540.288 1273.43 539.596C1272.55 538.905 1271.51 538.559 1270.32 538.559C1268.78 538.559 1267.6 539.023 1266.75 539.952C1265.91 540.87 1265.49 542.035 1265.49 543.446V557.65H1262.08V542.707C1262.08 541.467 1261.68 540.468 1260.87 539.71C1260.07 538.943 1259.03 538.559 1257.76 538.559C1256.89 538.559 1256.08 538.791 1255.32 539.256C1254.57 539.72 1253.96 540.363 1253.5 541.187C1253.05 542.002 1252.82 542.944 1252.82 544.014V557.65H1249.47ZM1284.23 565.832V535.832H1287.47V539.298H1287.87C1288.11 538.919 1288.46 538.436 1288.89 537.849C1289.34 537.253 1289.97 536.722 1290.79 536.258C1291.63 535.785 1292.75 535.548 1294.18 535.548C1296.01 535.548 1297.63 536.007 1299.03 536.926C1300.43 537.845 1301.53 539.147 1302.31 540.832C1303.1 542.518 1303.49 544.506 1303.49 546.798C1303.49 549.109 1303.1 551.112 1302.31 552.807C1301.53 554.492 1300.44 555.799 1299.05 556.727C1297.66 557.646 1296.05 558.105 1294.23 558.105C1292.83 558.105 1291.71 557.873 1290.87 557.409C1290.02 556.935 1289.37 556.4 1288.92 555.804C1288.47 555.198 1288.11 554.696 1287.87 554.298H1287.58V565.832H1284.23ZM1287.53 546.741C1287.53 548.389 1287.77 549.843 1288.25 551.102C1288.74 552.352 1289.44 553.332 1290.37 554.042C1291.3 554.743 1292.43 555.094 1293.78 555.094C1295.18 555.094 1296.35 554.724 1297.29 553.986C1298.23 553.238 1298.94 552.234 1299.42 550.974C1299.9 549.705 1300.14 548.294 1300.14 546.741C1300.14 545.207 1299.9 543.825 1299.43 542.594C1298.97 541.353 1298.26 540.373 1297.31 539.653C1296.38 538.924 1295.2 538.559 1293.78 538.559C1292.41 538.559 1291.27 538.905 1290.34 539.596C1289.41 540.278 1288.71 541.235 1288.24 542.466C1287.76 543.687 1287.53 545.113 1287.53 546.741ZM1318.1 535.832V538.673H1306.79V535.832H1318.1ZM1310.08 530.605H1313.44V551.4C1313.44 552.347 1313.57 553.058 1313.85 553.531C1314.13 553.995 1314.49 554.308 1314.93 554.469C1315.37 554.62 1315.84 554.696 1316.33 554.696C1316.7 554.696 1317.01 554.677 1317.24 554.639C1317.48 554.592 1317.67 554.554 1317.81 554.525L1318.49 557.537C1318.27 557.622 1317.95 557.707 1317.54 557.792C1317.13 557.887 1316.62 557.934 1315.99 557.934C1315.05 557.934 1314.12 557.731 1313.21 557.324C1312.31 556.916 1311.56 556.296 1310.97 555.463C1310.38 554.63 1310.08 553.578 1310.08 552.309V530.605ZM1323.14 557.65V535.832H1326.49V557.65H1323.14ZM1324.84 532.196C1324.19 532.196 1323.63 531.973 1323.15 531.528C1322.69 531.083 1322.46 530.548 1322.46 529.923C1322.46 529.298 1322.69 528.763 1323.15 528.318C1323.63 527.873 1324.19 527.65 1324.84 527.65C1325.5 527.65 1326.06 527.873 1326.52 528.318C1326.99 528.763 1327.23 529.298 1327.23 529.923C1327.23 530.548 1326.99 531.083 1326.52 531.528C1326.06 531.973 1325.5 532.196 1324.84 532.196ZM1341.49 558.105C1339.52 558.105 1337.8 557.636 1336.31 556.699C1334.83 555.761 1333.68 554.45 1332.84 552.764C1332.02 551.078 1331.61 549.109 1331.61 546.855C1331.61 544.582 1332.02 542.598 1332.84 540.903C1333.68 539.208 1334.83 537.892 1336.31 536.954C1337.8 536.017 1339.52 535.548 1341.49 535.548C1343.46 535.548 1345.19 536.017 1346.66 536.954C1348.15 537.892 1349.31 539.208 1350.13 540.903C1350.96 542.598 1351.38 544.582 1351.38 546.855C1351.38 549.109 1350.96 551.078 1350.13 552.764C1349.31 554.45 1348.15 555.761 1346.66 556.699C1345.19 557.636 1343.46 558.105 1341.49 558.105ZM1341.49 555.094C1342.99 555.094 1344.22 554.71 1345.19 553.943C1346.15 553.176 1346.87 552.167 1347.33 550.917C1347.8 549.667 1348.03 548.313 1348.03 546.855C1348.03 545.397 1347.8 544.038 1347.33 542.778C1346.87 541.519 1346.15 540.501 1345.19 539.724C1344.22 538.948 1342.99 538.559 1341.49 538.559C1340 538.559 1338.77 538.948 1337.8 539.724C1336.84 540.501 1336.12 541.519 1335.66 542.778C1335.19 544.038 1334.96 545.397 1334.96 546.855C1334.96 548.313 1335.19 549.667 1335.66 550.917C1336.12 552.167 1336.84 553.176 1337.8 553.943C1338.77 554.71 1340 555.094 1341.49 555.094ZM1359.85 544.525V557.65H1356.5V535.832H1359.74V539.241H1360.02C1360.53 538.133 1361.31 537.243 1362.35 536.571C1363.39 535.889 1364.74 535.548 1366.38 535.548C1367.86 535.548 1369.15 535.851 1370.26 536.457C1371.37 537.054 1372.23 537.963 1372.85 539.184C1373.46 540.397 1373.77 541.931 1373.77 543.787V557.65H1370.42V544.014C1370.42 542.3 1369.97 540.965 1369.08 540.008C1368.19 539.042 1366.97 538.559 1365.42 538.559C1364.35 538.559 1363.39 538.791 1362.55 539.256C1361.72 539.72 1361.06 540.397 1360.57 541.287C1360.09 542.177 1359.85 543.256 1359.85 544.525Z" fill="black"/>
</g>
</g>
</svg>
