<svg width="1920" height="1080" viewBox="0 0 1920 1080" fill="none" xmlns="http://www.w3.org/2000/svg">
<g id="node subsumption">
<rect width="1920" height="1080" fill="white"/>
<path id="Node subsumption" d="M665.864 69.9028V116.448H657.364L637.114 87.1528H636.773V116.448H626.932V69.9028H635.569L655.659 99.1755H656.069V69.9028H665.864ZM689.586 117.13C686.055 117.13 683.002 116.38 680.426 114.88C677.866 113.365 675.889 111.259 674.495 108.562C673.101 105.85 672.404 102.706 672.404 99.1301C672.404 95.524 673.101 92.3725 674.495 89.6755C675.889 86.9634 677.866 84.8573 680.426 83.3573C683.002 81.8422 686.055 81.0846 689.586 81.0846C693.116 81.0846 696.161 81.8422 698.722 83.3573C701.298 84.8573 703.283 86.9634 704.676 89.6755C706.07 92.3725 706.767 95.524 706.767 99.1301C706.767 102.706 706.07 105.85 704.676 108.562C703.283 111.259 701.298 113.365 698.722 114.88C696.161 116.38 693.116 117.13 689.586 117.13ZM689.631 109.63C691.237 109.63 692.578 109.176 693.654 108.266C694.73 107.342 695.54 106.085 696.086 104.494C696.646 102.903 696.926 101.092 696.926 99.0619C696.926 97.0316 696.646 95.221 696.086 93.6301C695.54 92.0392 694.73 90.7816 693.654 89.8573C692.578 88.9331 691.237 88.471 689.631 88.471C688.01 88.471 686.646 88.9331 685.54 89.8573C684.449 90.7816 683.623 92.0392 683.063 93.6301C682.517 95.221 682.245 97.0316 682.245 99.0619C682.245 101.092 682.517 102.903 683.063 104.494C683.623 106.085 684.449 107.342 685.54 108.266C686.646 109.176 688.01 109.63 689.631 109.63ZM725.926 117.016C723.275 117.016 720.873 116.335 718.722 114.971C716.586 113.592 714.889 111.569 713.631 108.903C712.389 106.221 711.767 102.933 711.767 99.0392C711.767 95.0392 712.411 91.7134 713.699 89.0619C714.987 86.3952 716.699 84.4028 718.836 83.0846C720.987 81.7513 723.343 81.0846 725.904 81.0846C727.858 81.0846 729.487 81.4179 730.79 82.0846C732.108 82.7361 733.169 83.5543 733.972 84.5392C734.79 85.5088 735.411 86.4634 735.836 87.4028H736.131V69.9028H745.79V116.448H736.245V110.857H735.836C735.381 111.827 734.737 112.789 733.904 113.744C733.086 114.683 732.017 115.463 730.699 116.085C729.396 116.706 727.805 117.016 725.926 117.016ZM728.995 109.312C730.555 109.312 731.873 108.888 732.949 108.039C734.04 107.176 734.873 105.971 735.449 104.426C736.04 102.88 736.336 101.069 736.336 98.9937C736.336 96.9179 736.048 95.1149 735.472 93.5846C734.896 92.0543 734.063 90.8725 732.972 90.0392C731.881 89.2058 730.555 88.7892 728.995 88.7892C727.404 88.7892 726.063 89.221 724.972 90.0846C723.881 90.9482 723.055 92.1452 722.495 93.6755C721.934 95.2058 721.654 96.9785 721.654 98.9937C721.654 101.024 721.934 102.819 722.495 104.38C723.07 105.926 723.896 107.138 724.972 108.016C726.063 108.88 727.404 109.312 728.995 109.312ZM769.659 117.13C766.069 117.13 762.978 116.403 760.387 114.948C757.811 113.479 755.826 111.403 754.432 108.721C753.038 106.024 752.341 102.835 752.341 99.1528C752.341 95.5619 753.038 92.4104 754.432 89.6982C755.826 86.9861 757.788 84.8725 760.319 83.3573C762.864 81.8422 765.849 81.0846 769.273 81.0846C771.576 81.0846 773.72 81.4558 775.705 82.1982C777.705 82.9255 779.447 84.024 780.932 85.4937C782.432 86.9634 783.599 88.8119 784.432 91.0392C785.266 93.2513 785.682 95.8422 785.682 98.8119V101.471H756.205V95.471H776.569C776.569 94.077 776.266 92.8422 775.659 91.7664C775.053 90.6907 774.212 89.8498 773.137 89.2437C772.076 88.6225 770.841 88.3119 769.432 88.3119C767.962 88.3119 766.659 88.6528 765.523 89.3346C764.402 90.0013 763.523 90.9028 762.887 92.0392C762.25 93.1604 761.925 94.4104 761.909 95.7892V101.494C761.909 103.221 762.228 104.713 762.864 105.971C763.516 107.229 764.432 108.198 765.614 108.88C766.796 109.562 768.197 109.903 769.819 109.903C770.894 109.903 771.879 109.751 772.773 109.448C773.667 109.145 774.432 108.691 775.069 108.085C775.705 107.479 776.19 106.736 776.523 105.857L785.478 106.448C785.023 108.6 784.091 110.479 782.682 112.085C781.288 113.676 779.485 114.918 777.273 115.812C775.076 116.691 772.538 117.13 769.659 117.13ZM835.858 91.4937L826.995 92.0392C826.843 91.2816 826.517 90.5998 826.017 89.9937C825.517 89.3725 824.858 88.8801 824.04 88.5164C823.237 88.1376 822.275 87.9482 821.154 87.9482C819.654 87.9482 818.389 88.2664 817.358 88.9028C816.328 89.524 815.813 90.3573 815.813 91.4028C815.813 92.2361 816.146 92.9407 816.813 93.5164C817.48 94.0922 818.623 94.5543 820.245 94.9028L826.563 96.1755C829.957 96.8725 832.487 97.9937 834.154 99.5392C835.82 101.085 836.654 103.115 836.654 105.63C836.654 107.918 835.98 109.926 834.631 111.653C833.298 113.38 831.464 114.729 829.131 115.698C826.813 116.653 824.139 117.13 821.108 117.13C816.487 117.13 812.805 116.168 810.063 114.244C807.336 112.304 805.737 109.668 805.267 106.335L814.79 105.835C815.078 107.244 815.775 108.319 816.881 109.062C817.987 109.789 819.404 110.153 821.131 110.153C822.828 110.153 824.192 109.827 825.222 109.176C826.267 108.509 826.798 107.653 826.813 106.607C826.798 105.729 826.426 105.009 825.699 104.448C824.972 103.872 823.851 103.433 822.336 103.13L816.29 101.926C812.881 101.244 810.343 100.062 808.676 98.3801C807.025 96.6982 806.199 94.5543 806.199 91.9482C806.199 89.7058 806.805 87.774 808.017 86.1528C809.245 84.5316 810.964 83.2816 813.176 82.4028C815.404 81.524 818.01 81.0846 820.995 81.0846C825.404 81.0846 828.873 82.0164 831.404 83.8801C833.949 85.7437 835.434 88.2816 835.858 91.4937ZM865.137 101.585V81.5392H874.819V116.448H865.523V110.107H865.159C864.372 112.153 863.061 113.797 861.228 115.039C859.409 116.282 857.19 116.903 854.569 116.903C852.235 116.903 850.182 116.372 848.409 115.312C846.637 114.251 845.25 112.744 844.25 110.789C843.266 108.835 842.766 106.494 842.75 103.766V81.5392H852.432V102.039C852.447 104.1 853 105.729 854.091 106.926C855.182 108.122 856.644 108.721 858.478 108.721C859.644 108.721 860.735 108.456 861.75 107.926C862.766 107.38 863.584 106.577 864.205 105.516C864.841 104.456 865.152 103.145 865.137 101.585ZM882.745 116.448V69.9028H892.426V87.4028H892.722C893.146 86.4634 893.76 85.5088 894.563 84.5392C895.381 83.5543 896.442 82.7361 897.745 82.0846C899.063 81.4179 900.699 81.0846 902.654 81.0846C905.199 81.0846 907.548 81.7513 909.699 83.0846C911.851 84.4028 913.57 86.3952 914.858 89.0619C916.146 91.7134 916.79 95.0392 916.79 99.0392C916.79 102.933 916.161 106.221 914.904 108.903C913.661 111.569 911.964 113.592 909.813 114.971C907.676 116.335 905.283 117.016 902.631 117.016C900.752 117.016 899.154 116.706 897.836 116.085C896.533 115.463 895.464 114.683 894.631 113.744C893.798 112.789 893.161 111.827 892.722 110.857H892.29V116.448H882.745ZM892.222 98.9937C892.222 101.069 892.51 102.88 893.086 104.426C893.661 105.971 894.495 107.176 895.586 108.039C896.676 108.888 898.002 109.312 899.563 109.312C901.139 109.312 902.472 108.88 903.563 108.016C904.654 107.138 905.48 105.926 906.04 104.38C906.616 102.819 906.904 101.024 906.904 98.9937C906.904 96.9785 906.623 95.2058 906.063 93.6755C905.502 92.1452 904.676 90.9482 903.586 90.0846C902.495 89.221 901.154 88.7892 899.563 88.7892C897.987 88.7892 896.654 89.2058 895.563 90.0392C894.487 90.8725 893.661 92.0543 893.086 93.5846C892.51 95.1149 892.222 96.9179 892.222 98.9937ZM952.296 91.4937L943.432 92.0392C943.281 91.2816 942.955 90.5998 942.455 89.9937C941.955 89.3725 941.296 88.8801 940.478 88.5164C939.675 88.1376 938.712 87.9482 937.591 87.9482C936.091 87.9482 934.826 88.2664 933.796 88.9028C932.766 89.524 932.25 90.3573 932.25 91.4028C932.25 92.2361 932.584 92.9407 933.25 93.5164C933.917 94.0922 935.061 94.5543 936.682 94.9028L943 96.1755C946.394 96.8725 948.925 97.9937 950.591 99.5392C952.258 101.085 953.091 103.115 953.091 105.63C953.091 107.918 952.417 109.926 951.069 111.653C949.735 113.38 947.902 114.729 945.569 115.698C943.25 116.653 940.576 117.13 937.546 117.13C932.925 117.13 929.243 116.168 926.5 114.244C923.773 112.304 922.175 109.668 921.705 106.335L931.228 105.835C931.516 107.244 932.212 108.319 933.319 109.062C934.425 109.789 935.841 110.153 937.569 110.153C939.266 110.153 940.629 109.827 941.659 109.176C942.705 108.509 943.235 107.653 943.25 106.607C943.235 105.729 942.864 105.009 942.137 104.448C941.409 103.872 940.288 103.433 938.773 103.13L932.728 101.926C929.319 101.244 926.781 100.062 925.114 98.3801C923.462 96.6982 922.637 94.5543 922.637 91.9482C922.637 89.7058 923.243 87.774 924.455 86.1528C925.682 84.5316 927.402 83.2816 929.614 82.4028C931.841 81.524 934.447 81.0846 937.432 81.0846C941.841 81.0846 945.311 82.0164 947.841 83.8801C950.387 85.7437 951.872 88.2816 952.296 91.4937ZM981.574 101.585V81.5392H991.256V116.448H981.961V110.107H981.597C980.809 112.153 979.498 113.797 977.665 115.039C975.847 116.282 973.627 116.903 971.006 116.903C968.673 116.903 966.62 116.372 964.847 115.312C963.074 114.251 961.688 112.744 960.688 110.789C959.703 108.835 959.203 106.494 959.188 103.766V81.5392H968.87V102.039C968.885 104.1 969.438 105.729 970.529 106.926C971.62 108.122 973.082 108.721 974.915 108.721C976.082 108.721 977.173 108.456 978.188 107.926C979.203 107.38 980.021 106.577 980.642 105.516C981.279 104.456 981.589 103.145 981.574 101.585ZM999 116.448V81.5392H1008.23V87.6982H1008.64C1009.36 85.6528 1010.58 84.0392 1012.27 82.8573C1013.97 81.6755 1016 81.0846 1018.36 81.0846C1020.76 81.0846 1022.8 81.6831 1024.48 82.8801C1026.16 84.0619 1027.28 85.6679 1027.84 87.6982H1028.2C1028.92 85.6982 1030.2 84.0998 1032.07 82.9028C1033.95 81.6907 1036.17 81.0846 1038.73 81.0846C1041.99 81.0846 1044.63 82.1225 1046.66 84.1982C1048.7 86.2588 1049.73 89.1831 1049.73 92.971V116.448H1040.07V94.8801C1040.07 92.9407 1039.55 91.4861 1038.52 90.5164C1037.49 89.5467 1036.2 89.0619 1034.66 89.0619C1032.9 89.0619 1031.53 89.6225 1030.55 90.7437C1029.56 91.8498 1029.07 93.3119 1029.07 95.1301V116.448H1019.68V94.6755C1019.68 92.9634 1019.19 91.5998 1018.2 90.5846C1017.24 89.5695 1015.95 89.0619 1014.36 89.0619C1013.29 89.0619 1012.32 89.3346 1011.45 89.8801C1010.61 90.4104 1009.93 91.1604 1009.43 92.1301C1008.93 93.0846 1008.68 94.2058 1008.68 95.4937V116.448H999ZM1057.38 129.539V81.5392H1066.92V87.4028H1067.35C1067.78 86.4634 1068.39 85.5088 1069.19 84.5392C1070.01 83.5543 1071.07 82.7361 1072.38 82.0846C1073.69 81.4179 1075.33 81.0846 1077.28 81.0846C1079.83 81.0846 1082.18 81.7513 1084.33 83.0846C1086.48 84.4028 1088.2 86.3952 1089.49 89.0619C1090.78 91.7134 1091.42 95.0392 1091.42 99.0392C1091.42 102.933 1090.79 106.221 1089.53 108.903C1088.29 111.569 1086.6 113.592 1084.44 114.971C1082.31 116.335 1079.91 117.016 1077.26 117.016C1075.38 117.016 1073.78 116.706 1072.47 116.085C1071.16 115.463 1070.1 114.683 1069.26 113.744C1068.43 112.789 1067.79 111.827 1067.35 110.857H1067.06V129.539H1057.38ZM1066.85 98.9937C1066.85 101.069 1067.14 102.88 1067.72 104.426C1068.29 105.971 1069.13 107.176 1070.22 108.039C1071.31 108.888 1072.63 109.312 1074.19 109.312C1075.77 109.312 1077.1 108.88 1078.19 108.016C1079.28 107.138 1080.11 105.926 1080.67 104.38C1081.25 102.819 1081.53 101.024 1081.53 98.9937C1081.53 96.9785 1081.25 95.2058 1080.69 93.6755C1080.13 92.1452 1079.31 90.9482 1078.22 90.0846C1077.13 89.221 1075.78 88.7892 1074.19 88.7892C1072.62 88.7892 1071.28 89.2058 1070.19 90.0392C1069.12 90.8725 1068.29 92.0543 1067.72 93.5846C1067.14 95.1149 1066.85 96.9179 1066.85 98.9937ZM1116.44 81.5392V88.8119H1095.42V81.5392H1116.44ZM1100.19 73.1755H1109.88V105.721C1109.88 106.615 1110.01 107.312 1110.28 107.812C1110.56 108.297 1110.94 108.638 1111.42 108.835C1111.92 109.032 1112.5 109.13 1113.15 109.13C1113.6 109.13 1114.06 109.092 1114.51 109.016C1114.97 108.926 1115.31 108.857 1115.56 108.812L1117.08 116.016C1116.6 116.168 1115.91 116.342 1115.03 116.539C1114.16 116.751 1113.09 116.88 1111.83 116.926C1109.5 117.016 1107.45 116.706 1105.69 115.994C1103.95 115.282 1102.6 114.176 1101.63 112.676C1100.66 111.176 1100.18 109.282 1100.19 106.994V73.1755ZM1122.75 116.448V81.5392H1132.43V116.448H1122.75ZM1127.61 77.0392C1126.17 77.0392 1124.94 76.5619 1123.91 75.6073C1122.89 74.6376 1122.39 73.4785 1122.39 72.1301C1122.39 70.7967 1122.89 69.6528 1123.91 68.6982C1124.94 67.7285 1126.17 67.2437 1127.61 67.2437C1129.05 67.2437 1130.28 67.7285 1131.3 68.6982C1132.33 69.6528 1132.84 70.7967 1132.84 72.1301C1132.84 73.4785 1132.33 74.6376 1131.3 75.6073C1130.28 76.5619 1129.05 77.0392 1127.61 77.0392ZM1155.96 117.13C1152.43 117.13 1149.38 116.38 1146.8 114.88C1144.24 113.365 1142.26 111.259 1140.87 108.562C1139.48 105.85 1138.78 102.706 1138.78 99.1301C1138.78 95.524 1139.48 92.3725 1140.87 89.6755C1142.26 86.9634 1144.24 84.8573 1146.8 83.3573C1149.38 81.8422 1152.43 81.0846 1155.96 81.0846C1159.49 81.0846 1162.54 81.8422 1165.1 83.3573C1167.67 84.8573 1169.66 86.9634 1171.05 89.6755C1172.45 92.3725 1173.14 95.524 1173.14 99.1301C1173.14 102.706 1172.45 105.85 1171.05 108.562C1169.66 111.259 1167.67 113.365 1165.1 114.88C1162.54 116.38 1159.49 117.13 1155.96 117.13ZM1156.01 109.63C1157.61 109.63 1158.95 109.176 1160.03 108.266C1161.1 107.342 1161.92 106.085 1162.46 104.494C1163.02 102.903 1163.3 101.092 1163.3 99.0619C1163.3 97.0316 1163.02 95.221 1162.46 93.6301C1161.92 92.0392 1161.1 90.7816 1160.03 89.8573C1158.95 88.9331 1157.61 88.471 1156.01 88.471C1154.38 88.471 1153.02 88.9331 1151.92 89.8573C1150.82 90.7816 1150 92.0392 1149.44 93.6301C1148.89 95.221 1148.62 97.0316 1148.62 99.0619C1148.62 101.092 1148.89 102.903 1149.44 104.494C1150 106.085 1150.82 107.342 1151.92 108.266C1153.02 109.176 1154.38 109.63 1156.01 109.63ZM1189.12 96.2664V116.448H1179.44V81.5392H1188.67V87.6982H1189.07C1189.85 85.6679 1191.14 84.0619 1192.96 82.8801C1194.78 81.6831 1196.98 81.0846 1199.57 81.0846C1202 81.0846 1204.11 81.6149 1205.92 82.6755C1207.72 83.7361 1209.12 85.2513 1210.12 87.221C1211.12 89.1755 1211.62 91.5088 1211.62 94.221V116.448H1201.94V95.9482C1201.95 93.8119 1201.41 92.1452 1200.3 90.9482C1199.2 89.7361 1197.67 89.1301 1195.73 89.1301C1194.43 89.1301 1193.28 89.4104 1192.28 89.971C1191.29 90.5316 1190.52 91.3498 1189.96 92.4255C1189.42 93.4861 1189.13 94.7664 1189.12 96.2664Z" fill="black"/>
<path id="example with node duplication give intuition why it is a simulation relation" d="M130.21 314.537C128.528 314.537 127.078 314.166 125.858 313.424C124.646 312.674 123.71 311.628 123.051 310.287C122.4 308.939 122.074 307.371 122.074 305.583C122.074 303.795 122.4 302.219 123.051 300.856C123.71 299.484 124.627 298.416 125.801 297.651C126.983 296.878 128.362 296.492 129.938 296.492C130.847 296.492 131.744 296.644 132.631 296.947C133.517 297.25 134.324 297.742 135.051 298.424C135.778 299.098 136.358 299.992 136.79 301.106C137.222 302.219 137.438 303.59 137.438 305.219V306.356H123.983V304.037H134.71C134.71 303.053 134.513 302.174 134.119 301.401C133.733 300.628 133.18 300.019 132.46 299.572C131.748 299.125 130.907 298.901 129.938 298.901C128.869 298.901 127.945 299.166 127.165 299.697C126.392 300.219 125.797 300.901 125.381 301.742C124.964 302.583 124.756 303.484 124.756 304.447V305.992C124.756 307.31 124.983 308.428 125.438 309.344C125.9 310.253 126.54 310.947 127.358 311.424C128.176 311.894 129.127 312.128 130.21 312.128C130.915 312.128 131.551 312.03 132.119 311.833C132.695 311.628 133.191 311.325 133.608 310.924C134.025 310.515 134.347 310.007 134.574 309.401L137.165 310.128C136.892 311.007 136.434 311.78 135.79 312.447C135.146 313.106 134.35 313.621 133.403 313.992C132.456 314.356 131.392 314.537 130.21 314.537ZM143.048 296.719L147.23 303.856L151.412 296.719H154.503L148.866 305.447L154.503 314.174H151.412L147.23 307.401L143.048 314.174H139.957L145.503 305.447L139.957 296.719H143.048ZM163.466 314.583C162.36 314.583 161.356 314.375 160.455 313.958C159.553 313.534 158.837 312.924 158.307 312.128C157.777 311.325 157.511 310.356 157.511 309.219C157.511 308.219 157.708 307.409 158.102 306.787C158.496 306.159 159.023 305.666 159.682 305.31C160.341 304.954 161.068 304.689 161.864 304.515C162.667 304.333 163.473 304.189 164.284 304.083C165.345 303.947 166.205 303.844 166.864 303.776C167.53 303.7 168.015 303.575 168.318 303.401C168.629 303.227 168.784 302.924 168.784 302.492V302.401C168.784 301.28 168.477 300.409 167.864 299.787C167.258 299.166 166.337 298.856 165.102 298.856C163.822 298.856 162.818 299.136 162.091 299.697C161.364 300.257 160.852 300.856 160.557 301.492L158.011 300.583C158.466 299.522 159.072 298.697 159.83 298.106C160.595 297.507 161.428 297.09 162.33 296.856C163.239 296.613 164.133 296.492 165.011 296.492C165.572 296.492 166.216 296.56 166.943 296.697C167.678 296.825 168.386 297.094 169.068 297.503C169.758 297.912 170.33 298.53 170.784 299.356C171.239 300.181 171.466 301.287 171.466 302.674V314.174H168.784V311.81H168.648C168.466 312.189 168.163 312.594 167.739 313.026C167.314 313.458 166.75 313.825 166.045 314.128C165.341 314.431 164.481 314.583 163.466 314.583ZM163.875 312.174C164.936 312.174 165.83 311.965 166.557 311.549C167.292 311.132 167.845 310.594 168.216 309.935C168.595 309.276 168.784 308.583 168.784 307.856V305.401C168.67 305.537 168.42 305.662 168.034 305.776C167.655 305.882 167.216 305.977 166.716 306.06C166.223 306.136 165.742 306.204 165.273 306.265C164.811 306.318 164.436 306.363 164.148 306.401C163.451 306.492 162.799 306.64 162.193 306.844C161.595 307.041 161.11 307.34 160.739 307.742C160.375 308.136 160.193 308.674 160.193 309.356C160.193 310.287 160.538 310.992 161.227 311.469C161.924 311.939 162.807 312.174 163.875 312.174ZM176.361 314.174V296.719H178.952V299.447H179.179C179.543 298.515 180.13 297.791 180.94 297.276C181.751 296.753 182.724 296.492 183.861 296.492C185.012 296.492 185.971 296.753 186.736 297.276C187.509 297.791 188.111 298.515 188.543 299.447H188.724C189.171 298.545 189.842 297.829 190.736 297.299C191.63 296.761 192.702 296.492 193.952 296.492C195.512 296.492 196.789 296.981 197.781 297.958C198.774 298.928 199.27 300.439 199.27 302.492V314.174H196.588V302.492C196.588 301.204 196.236 300.284 195.531 299.731C194.827 299.178 193.997 298.901 193.043 298.901C191.815 298.901 190.865 299.272 190.19 300.015C189.516 300.75 189.179 301.681 189.179 302.81V314.174H186.452V302.219C186.452 301.227 186.13 300.428 185.486 299.822C184.842 299.208 184.012 298.901 182.997 298.901C182.3 298.901 181.649 299.087 181.043 299.458C180.444 299.829 179.959 300.344 179.588 301.003C179.224 301.655 179.043 302.409 179.043 303.265V314.174H176.361ZM204.173 320.719V296.719H206.764V299.492H207.082C207.279 299.189 207.552 298.803 207.901 298.333C208.257 297.856 208.764 297.431 209.423 297.06C210.09 296.681 210.991 296.492 212.128 296.492C213.598 296.492 214.893 296.859 216.014 297.594C217.135 298.329 218.01 299.371 218.639 300.719C219.268 302.068 219.582 303.659 219.582 305.492C219.582 307.34 219.268 308.943 218.639 310.299C218.01 311.647 217.139 312.693 216.026 313.435C214.912 314.17 213.628 314.537 212.173 314.537C211.052 314.537 210.154 314.352 209.48 313.981C208.806 313.602 208.287 313.174 207.923 312.697C207.56 312.212 207.279 311.81 207.082 311.492H206.855V320.719H204.173ZM206.81 305.447C206.81 306.765 207.003 307.928 207.389 308.935C207.776 309.935 208.34 310.719 209.082 311.287C209.825 311.848 210.734 312.128 211.81 312.128C212.931 312.128 213.866 311.833 214.616 311.242C215.374 310.644 215.942 309.84 216.321 308.833C216.707 307.818 216.901 306.689 216.901 305.447C216.901 304.219 216.711 303.113 216.332 302.128C215.961 301.136 215.397 300.352 214.639 299.776C213.889 299.193 212.946 298.901 211.81 298.901C210.719 298.901 209.802 299.178 209.06 299.731C208.317 300.276 207.757 301.041 207.378 302.026C206.999 303.003 206.81 304.144 206.81 305.447ZM226.355 290.901V314.174H223.673V290.901H226.355ZM238.585 314.537C236.903 314.537 235.453 314.166 234.233 313.424C233.021 312.674 232.085 311.628 231.426 310.287C230.775 308.939 230.449 307.371 230.449 305.583C230.449 303.795 230.775 302.219 231.426 300.856C232.085 299.484 233.002 298.416 234.176 297.651C235.358 296.878 236.737 296.492 238.312 296.492C239.222 296.492 240.119 296.644 241.006 296.947C241.892 297.25 242.699 297.742 243.426 298.424C244.153 299.098 244.733 299.992 245.165 301.106C245.597 302.219 245.812 303.59 245.812 305.219V306.356H232.358V304.037H243.085C243.085 303.053 242.888 302.174 242.494 301.401C242.108 300.628 241.555 300.019 240.835 299.572C240.123 299.125 239.282 298.901 238.312 298.901C237.244 298.901 236.32 299.166 235.54 299.697C234.767 300.219 234.172 300.901 233.756 301.742C233.339 302.583 233.131 303.484 233.131 304.447V305.992C233.131 307.31 233.358 308.428 233.812 309.344C234.275 310.253 234.915 310.947 235.733 311.424C236.551 311.894 237.502 312.128 238.585 312.128C239.29 312.128 239.926 312.03 240.494 311.833C241.07 311.628 241.566 311.325 241.983 310.924C242.4 310.515 242.722 310.007 242.949 309.401L245.54 310.128C245.267 311.007 244.809 311.78 244.165 312.447C243.521 313.106 242.725 313.621 241.778 313.992C240.831 314.356 239.767 314.537 238.585 314.537ZM262.847 314.174L257.528 296.719H260.347L264.119 310.083H264.301L268.028 296.719H270.892L274.574 310.037H274.756L278.528 296.719H281.347L276.028 314.174H273.392L269.574 300.765H269.301L265.483 314.174H262.847ZM284.892 314.174V296.719H287.574V314.174H284.892ZM286.256 293.81C285.733 293.81 285.282 293.632 284.903 293.276C284.532 292.92 284.347 292.492 284.347 291.992C284.347 291.492 284.532 291.064 284.903 290.708C285.282 290.352 285.733 290.174 286.256 290.174C286.778 290.174 287.225 290.352 287.597 290.708C287.975 291.064 288.165 291.492 288.165 291.992C288.165 292.492 287.975 292.92 287.597 293.276C287.225 293.632 286.778 293.81 286.256 293.81ZM300.077 296.719V298.992H291.031V296.719H300.077ZM293.668 292.537H296.349V309.174C296.349 309.931 296.459 310.5 296.679 310.878C296.906 311.25 297.194 311.5 297.543 311.628C297.899 311.75 298.274 311.81 298.668 311.81C298.963 311.81 299.205 311.795 299.395 311.765C299.584 311.727 299.736 311.697 299.849 311.674L300.395 314.083C300.213 314.151 299.959 314.219 299.634 314.287C299.308 314.363 298.895 314.401 298.395 314.401C297.637 314.401 296.895 314.238 296.168 313.912C295.448 313.587 294.849 313.09 294.372 312.424C293.902 311.757 293.668 310.916 293.668 309.901V292.537ZM307.168 303.674V314.174H304.486V290.901H307.168V299.447H307.395C307.804 298.545 308.418 297.829 309.236 297.299C310.062 296.761 311.16 296.492 312.531 296.492C313.721 296.492 314.762 296.731 315.656 297.208C316.55 297.678 317.243 298.401 317.736 299.378C318.236 300.348 318.486 301.583 318.486 303.083V314.174H315.804V303.265C315.804 301.878 315.444 300.806 314.724 300.049C314.012 299.284 313.024 298.901 311.759 298.901C310.88 298.901 310.092 299.087 309.395 299.458C308.705 299.829 308.16 300.371 307.759 301.083C307.365 301.795 307.168 302.659 307.168 303.674ZM335.074 303.674V314.174H332.392V296.719H334.983V299.447H335.21C335.619 298.56 336.241 297.848 337.074 297.31C337.907 296.765 338.983 296.492 340.301 296.492C341.483 296.492 342.517 296.734 343.403 297.219C344.29 297.697 344.979 298.424 345.472 299.401C345.964 300.371 346.21 301.598 346.21 303.083V314.174H343.528V303.265C343.528 301.894 343.172 300.825 342.46 300.06C341.748 299.287 340.771 298.901 339.528 298.901C338.672 298.901 337.907 299.087 337.233 299.458C336.566 299.829 336.04 300.371 335.653 301.083C335.267 301.795 335.074 302.659 335.074 303.674ZM358.202 314.537C356.626 314.537 355.243 314.162 354.054 313.412C352.872 312.662 351.948 311.613 351.281 310.265C350.622 308.916 350.293 307.34 350.293 305.537C350.293 303.719 350.622 302.132 351.281 300.776C351.948 299.42 352.872 298.367 354.054 297.617C355.243 296.867 356.626 296.492 358.202 296.492C359.777 296.492 361.156 296.867 362.338 297.617C363.527 298.367 364.452 299.42 365.111 300.776C365.777 302.132 366.111 303.719 366.111 305.537C366.111 307.34 365.777 308.916 365.111 310.265C364.452 311.613 363.527 312.662 362.338 313.412C361.156 314.162 359.777 314.537 358.202 314.537ZM358.202 312.128C359.399 312.128 360.384 311.822 361.156 311.208C361.929 310.594 362.501 309.787 362.872 308.787C363.243 307.787 363.429 306.704 363.429 305.537C363.429 304.371 363.243 303.284 362.872 302.276C362.501 301.269 361.929 300.454 361.156 299.833C360.384 299.212 359.399 298.901 358.202 298.901C357.005 298.901 356.02 299.212 355.247 299.833C354.474 300.454 353.902 301.269 353.531 302.276C353.16 303.284 352.974 304.371 352.974 305.537C352.974 306.704 353.16 307.787 353.531 308.787C353.902 309.787 354.474 310.594 355.247 311.208C356.02 311.822 357.005 312.128 358.202 312.128ZM376.795 314.537C375.341 314.537 374.057 314.17 372.943 313.435C371.83 312.693 370.958 311.647 370.33 310.299C369.701 308.943 369.386 307.34 369.386 305.492C369.386 303.659 369.701 302.068 370.33 300.719C370.958 299.371 371.833 298.329 372.955 297.594C374.076 296.859 375.371 296.492 376.841 296.492C377.977 296.492 378.875 296.681 379.534 297.06C380.201 297.431 380.708 297.856 381.057 298.333C381.413 298.803 381.689 299.189 381.886 299.492H382.114V290.901H384.795V314.174H382.205V311.492H381.886C381.689 311.81 381.409 312.212 381.045 312.697C380.682 313.174 380.163 313.602 379.489 313.981C378.814 314.352 377.917 314.537 376.795 314.537ZM377.159 312.128C378.235 312.128 379.144 311.848 379.886 311.287C380.629 310.719 381.193 309.935 381.58 308.935C381.966 307.928 382.159 306.765 382.159 305.447C382.159 304.144 381.97 303.003 381.591 302.026C381.212 301.041 380.652 300.276 379.909 299.731C379.167 299.178 378.25 298.901 377.159 298.901C376.023 298.901 375.076 299.193 374.318 299.776C373.568 300.352 373.004 301.136 372.625 302.128C372.254 303.113 372.068 304.219 372.068 305.447C372.068 306.689 372.258 307.818 372.636 308.833C373.023 309.84 373.591 310.644 374.341 311.242C375.098 311.833 376.038 312.128 377.159 312.128ZM397.398 314.537C395.716 314.537 394.265 314.166 393.045 313.424C391.833 312.674 390.898 311.628 390.239 310.287C389.587 308.939 389.261 307.371 389.261 305.583C389.261 303.795 389.587 302.219 390.239 300.856C390.898 299.484 391.814 298.416 392.989 297.651C394.17 296.878 395.549 296.492 397.125 296.492C398.034 296.492 398.932 296.644 399.818 296.947C400.705 297.25 401.511 297.742 402.239 298.424C402.966 299.098 403.545 299.992 403.977 301.106C404.409 302.219 404.625 303.59 404.625 305.219V306.356H391.17V304.037H401.898C401.898 303.053 401.701 302.174 401.307 301.401C400.92 300.628 400.367 300.019 399.648 299.572C398.936 299.125 398.095 298.901 397.125 298.901C396.057 298.901 395.133 299.166 394.352 299.697C393.58 300.219 392.985 300.901 392.568 301.742C392.152 302.583 391.943 303.484 391.943 304.447V305.992C391.943 307.31 392.17 308.428 392.625 309.344C393.087 310.253 393.727 310.947 394.545 311.424C395.364 311.894 396.314 312.128 397.398 312.128C398.102 312.128 398.739 312.03 399.307 311.833C399.883 311.628 400.379 311.325 400.795 310.924C401.212 310.515 401.534 310.007 401.761 309.401L404.352 310.128C404.08 311.007 403.621 311.78 402.977 312.447C402.333 313.106 401.538 313.621 400.591 313.992C399.644 314.356 398.58 314.537 397.398 314.537ZM424.295 314.537C422.841 314.537 421.557 314.17 420.443 313.435C419.33 312.693 418.458 311.647 417.83 310.299C417.201 308.943 416.886 307.34 416.886 305.492C416.886 303.659 417.201 302.068 417.83 300.719C418.458 299.371 419.333 298.329 420.455 297.594C421.576 296.859 422.871 296.492 424.341 296.492C425.477 296.492 426.375 296.681 427.034 297.06C427.701 297.431 428.208 297.856 428.557 298.333C428.913 298.803 429.189 299.189 429.386 299.492H429.614V290.901H432.295V314.174H429.705V311.492H429.386C429.189 311.81 428.909 312.212 428.545 312.697C428.182 313.174 427.663 313.602 426.989 313.981C426.314 314.352 425.417 314.537 424.295 314.537ZM424.659 312.128C425.735 312.128 426.644 311.848 427.386 311.287C428.129 310.719 428.693 309.935 429.08 308.935C429.466 307.928 429.659 306.765 429.659 305.447C429.659 304.144 429.47 303.003 429.091 302.026C428.712 301.041 428.152 300.276 427.409 299.731C426.667 299.178 425.75 298.901 424.659 298.901C423.523 298.901 422.576 299.193 421.818 299.776C421.068 300.352 420.504 301.136 420.125 302.128C419.754 303.113 419.568 304.219 419.568 305.447C419.568 306.689 419.758 307.818 420.136 308.833C420.523 309.84 421.091 310.644 421.841 311.242C422.598 311.833 423.538 312.128 424.659 312.128ZM448.58 307.037V296.719H451.261V314.174H448.58V311.219H448.398C447.989 312.106 447.352 312.859 446.489 313.481C445.625 314.094 444.534 314.401 443.216 314.401C442.125 314.401 441.155 314.162 440.307 313.685C439.458 313.2 438.792 312.473 438.307 311.503C437.822 310.526 437.58 309.295 437.58 307.81V296.719H440.261V307.628C440.261 308.901 440.617 309.916 441.33 310.674C442.049 311.431 442.966 311.81 444.08 311.81C444.746 311.81 445.424 311.64 446.114 311.299C446.811 310.958 447.394 310.435 447.864 309.731C448.341 309.026 448.58 308.128 448.58 307.037ZM456.173 320.719V296.719H458.764V299.492H459.082C459.279 299.189 459.552 298.803 459.901 298.333C460.257 297.856 460.764 297.431 461.423 297.06C462.09 296.681 462.991 296.492 464.128 296.492C465.598 296.492 466.893 296.859 468.014 297.594C469.135 298.329 470.01 299.371 470.639 300.719C471.268 302.068 471.582 303.659 471.582 305.492C471.582 307.34 471.268 308.943 470.639 310.299C470.01 311.647 469.139 312.693 468.026 313.435C466.912 314.17 465.628 314.537 464.173 314.537C463.052 314.537 462.154 314.352 461.48 313.981C460.806 313.602 460.287 313.174 459.923 312.697C459.56 312.212 459.279 311.81 459.082 311.492H458.855V320.719H456.173ZM458.81 305.447C458.81 306.765 459.003 307.928 459.389 308.935C459.776 309.935 460.34 310.719 461.082 311.287C461.825 311.848 462.734 312.128 463.81 312.128C464.931 312.128 465.866 311.833 466.616 311.242C467.374 310.644 467.942 309.84 468.321 308.833C468.707 307.818 468.901 306.689 468.901 305.447C468.901 304.219 468.711 303.113 468.332 302.128C467.961 301.136 467.397 300.352 466.639 299.776C465.889 299.193 464.946 298.901 463.81 298.901C462.719 298.901 461.802 299.178 461.06 299.731C460.317 300.276 459.757 301.041 459.378 302.026C458.999 303.003 458.81 304.144 458.81 305.447ZM478.355 290.901V314.174H475.673V290.901H478.355ZM483.267 314.174V296.719H485.949V314.174H483.267ZM484.631 293.81C484.108 293.81 483.657 293.632 483.278 293.276C482.907 292.92 482.722 292.492 482.722 291.992C482.722 291.492 482.907 291.064 483.278 290.708C483.657 290.352 484.108 290.174 484.631 290.174C485.153 290.174 485.6 290.352 485.972 290.708C486.35 291.064 486.54 291.492 486.54 291.992C486.54 292.492 486.35 292.92 485.972 293.276C485.6 293.632 485.153 293.81 484.631 293.81ZM497.952 314.537C496.315 314.537 494.906 314.151 493.724 313.378C492.543 312.606 491.634 311.541 490.997 310.185C490.361 308.829 490.043 307.28 490.043 305.537C490.043 303.765 490.368 302.2 491.02 300.844C491.679 299.481 492.596 298.416 493.77 297.651C494.952 296.878 496.33 296.492 497.906 296.492C499.134 296.492 500.24 296.719 501.224 297.174C502.209 297.628 503.016 298.265 503.645 299.083C504.274 299.901 504.664 300.856 504.815 301.947H502.134C501.929 301.151 501.474 300.447 500.77 299.833C500.073 299.212 499.134 298.901 497.952 298.901C496.906 298.901 495.99 299.174 495.202 299.719C494.421 300.257 493.812 301.019 493.372 302.003C492.94 302.981 492.724 304.128 492.724 305.447C492.724 306.795 492.937 307.969 493.361 308.969C493.793 309.969 494.399 310.746 495.179 311.299C495.967 311.852 496.891 312.128 497.952 312.128C498.649 312.128 499.281 312.007 499.849 311.765C500.418 311.522 500.899 311.174 501.293 310.719C501.687 310.265 501.967 309.719 502.134 309.083H504.815C504.664 310.113 504.289 311.041 503.69 311.867C503.099 312.685 502.315 313.337 501.338 313.822C500.368 314.299 499.24 314.537 497.952 314.537ZM513.872 314.583C512.766 314.583 511.762 314.375 510.861 313.958C509.959 313.534 509.243 312.924 508.713 312.128C508.183 311.325 507.918 310.356 507.918 309.219C507.918 308.219 508.115 307.409 508.509 306.787C508.902 306.159 509.429 305.666 510.088 305.31C510.747 304.954 511.474 304.689 512.27 304.515C513.073 304.333 513.88 304.189 514.69 304.083C515.751 303.947 516.611 303.844 517.27 303.776C517.937 303.7 518.421 303.575 518.724 303.401C519.035 303.227 519.19 302.924 519.19 302.492V302.401C519.19 301.28 518.884 300.409 518.27 299.787C517.664 299.166 516.743 298.856 515.509 298.856C514.228 298.856 513.224 299.136 512.497 299.697C511.77 300.257 511.259 300.856 510.963 301.492L508.418 300.583C508.872 299.522 509.478 298.697 510.236 298.106C511.001 297.507 511.834 297.09 512.736 296.856C513.645 296.613 514.539 296.492 515.418 296.492C515.978 296.492 516.622 296.56 517.349 296.697C518.084 296.825 518.793 297.094 519.474 297.503C520.164 297.912 520.736 298.53 521.19 299.356C521.645 300.181 521.872 301.287 521.872 302.674V314.174H519.19V311.81H519.054C518.872 312.189 518.569 312.594 518.145 313.026C517.721 313.458 517.156 313.825 516.452 314.128C515.747 314.431 514.887 314.583 513.872 314.583ZM514.281 312.174C515.342 312.174 516.236 311.965 516.963 311.549C517.698 311.132 518.251 310.594 518.622 309.935C519.001 309.276 519.19 308.583 519.19 307.856V305.401C519.077 305.537 518.827 305.662 518.44 305.776C518.062 305.882 517.622 305.977 517.122 306.06C516.63 306.136 516.149 306.204 515.679 306.265C515.217 306.318 514.842 306.363 514.554 306.401C513.857 306.492 513.205 306.64 512.599 306.844C512.001 307.041 511.516 307.34 511.145 307.742C510.781 308.136 510.599 308.674 510.599 309.356C510.599 310.287 510.944 310.992 511.634 311.469C512.33 311.939 513.213 312.174 514.281 312.174ZM534.358 296.719V298.992H525.312V296.719H534.358ZM527.949 292.537H530.631V309.174C530.631 309.931 530.741 310.5 530.96 310.878C531.188 311.25 531.475 311.5 531.824 311.628C532.18 311.75 532.555 311.81 532.949 311.81C533.244 311.81 533.487 311.795 533.676 311.765C533.866 311.727 534.017 311.697 534.131 311.674L534.676 314.083C534.494 314.151 534.241 314.219 533.915 314.287C533.589 314.363 533.176 314.401 532.676 314.401C531.919 314.401 531.176 314.238 530.449 313.912C529.729 313.587 529.131 313.09 528.653 312.424C528.184 311.757 527.949 310.916 527.949 309.901V292.537ZM538.392 314.174V296.719H541.074V314.174H538.392ZM539.756 293.81C539.233 293.81 538.782 293.632 538.403 293.276C538.032 292.92 537.847 292.492 537.847 291.992C537.847 291.492 538.032 291.064 538.403 290.708C538.782 290.352 539.233 290.174 539.756 290.174C540.278 290.174 540.725 290.352 541.097 290.708C541.475 291.064 541.665 291.492 541.665 291.992C541.665 292.492 541.475 292.92 541.097 293.276C540.725 293.632 540.278 293.81 539.756 293.81ZM553.077 314.537C551.501 314.537 550.118 314.162 548.929 313.412C547.747 312.662 546.823 311.613 546.156 310.265C545.497 308.916 545.168 307.34 545.168 305.537C545.168 303.719 545.497 302.132 546.156 300.776C546.823 299.42 547.747 298.367 548.929 297.617C550.118 296.867 551.501 296.492 553.077 296.492C554.652 296.492 556.031 296.867 557.213 297.617C558.402 298.367 559.327 299.42 559.986 300.776C560.652 302.132 560.986 303.719 560.986 305.537C560.986 307.34 560.652 308.916 559.986 310.265C559.327 311.613 558.402 312.662 557.213 313.412C556.031 314.162 554.652 314.537 553.077 314.537ZM553.077 312.128C554.274 312.128 555.259 311.822 556.031 311.208C556.804 310.594 557.376 309.787 557.747 308.787C558.118 307.787 558.304 306.704 558.304 305.537C558.304 304.371 558.118 303.284 557.747 302.276C557.376 301.269 556.804 300.454 556.031 299.833C555.259 299.212 554.274 298.901 553.077 298.901C551.88 298.901 550.895 299.212 550.122 299.833C549.349 300.454 548.777 301.269 548.406 302.276C548.035 303.284 547.849 304.371 547.849 305.537C547.849 306.704 548.035 307.787 548.406 308.787C548.777 309.787 549.349 310.594 550.122 311.208C550.895 311.822 551.88 312.128 553.077 312.128ZM567.761 303.674V314.174H565.08V296.719H567.67V299.447H567.898C568.307 298.56 568.928 297.848 569.761 297.31C570.595 296.765 571.67 296.492 572.989 296.492C574.17 296.492 575.205 296.734 576.091 297.219C576.977 297.697 577.667 298.424 578.159 299.401C578.652 300.371 578.898 301.598 578.898 303.083V314.174H576.216V303.265C576.216 301.894 575.86 300.825 575.148 300.06C574.436 299.287 573.458 298.901 572.216 298.901C571.36 298.901 570.595 299.087 569.92 299.458C569.254 299.829 568.727 300.371 568.341 301.083C567.955 301.795 567.761 302.659 567.761 303.674ZM129.938 360.083C128.642 360.083 127.528 359.916 126.597 359.583C125.665 359.257 124.888 358.825 124.267 358.287C123.653 357.757 123.165 357.189 122.801 356.583L124.938 355.083C125.18 355.401 125.487 355.765 125.858 356.174C126.229 356.59 126.737 356.95 127.381 357.253C128.032 357.564 128.884 357.719 129.938 357.719C131.347 357.719 132.509 357.378 133.426 356.697C134.343 356.015 134.801 354.947 134.801 353.492V349.947H134.574C134.377 350.265 134.097 350.659 133.733 351.128C133.377 351.59 132.862 352.003 132.188 352.367C131.521 352.723 130.619 352.901 129.483 352.901C128.074 352.901 126.809 352.568 125.688 351.901C124.574 351.234 123.691 350.265 123.04 348.992C122.396 347.719 122.074 346.174 122.074 344.356C122.074 342.568 122.388 341.011 123.017 339.685C123.646 338.352 124.521 337.322 125.642 336.594C126.763 335.859 128.059 335.492 129.528 335.492C130.665 335.492 131.566 335.681 132.233 336.06C132.907 336.431 133.422 336.856 133.778 337.333C134.142 337.803 134.422 338.189 134.619 338.492H134.892V335.719H137.483V353.674C137.483 355.174 137.142 356.394 136.46 357.333C135.786 358.28 134.877 358.973 133.733 359.412C132.597 359.859 131.331 360.083 129.938 360.083ZM129.847 350.492C130.922 350.492 131.831 350.246 132.574 349.753C133.316 349.261 133.881 348.553 134.267 347.628C134.653 346.704 134.847 345.598 134.847 344.31C134.847 343.053 134.657 341.943 134.278 340.981C133.9 340.019 133.339 339.265 132.597 338.719C131.854 338.174 130.938 337.901 129.847 337.901C128.71 337.901 127.763 338.189 127.006 338.765C126.256 339.34 125.691 340.113 125.312 341.083C124.941 342.053 124.756 343.128 124.756 344.31C124.756 345.522 124.945 346.594 125.324 347.526C125.71 348.45 126.278 349.178 127.028 349.708C127.786 350.231 128.725 350.492 129.847 350.492ZM142.392 353.174V335.719H145.074V353.174H142.392ZM143.756 332.81C143.233 332.81 142.782 332.632 142.403 332.276C142.032 331.92 141.847 331.492 141.847 330.992C141.847 330.492 142.032 330.064 142.403 329.708C142.782 329.352 143.233 329.174 143.756 329.174C144.278 329.174 144.725 329.352 145.097 329.708C145.475 330.064 145.665 330.492 145.665 330.992C145.665 331.492 145.475 331.92 145.097 332.276C144.725 332.632 144.278 332.81 143.756 332.81ZM164.259 335.719L157.804 353.174H155.077L148.622 335.719H151.531L156.349 349.628H156.531L161.349 335.719H164.259ZM174.491 353.537C172.81 353.537 171.359 353.166 170.139 352.424C168.927 351.674 167.991 350.628 167.332 349.287C166.681 347.939 166.355 346.371 166.355 344.583C166.355 342.795 166.681 341.219 167.332 339.856C167.991 338.484 168.908 337.416 170.082 336.651C171.264 335.878 172.643 335.492 174.219 335.492C175.128 335.492 176.026 335.644 176.912 335.947C177.798 336.25 178.605 336.742 179.332 337.424C180.06 338.098 180.639 338.992 181.071 340.106C181.503 341.219 181.719 342.59 181.719 344.219V345.356H168.264V343.037H178.991C178.991 342.053 178.795 341.174 178.401 340.401C178.014 339.628 177.461 339.019 176.741 338.572C176.029 338.125 175.188 337.901 174.219 337.901C173.151 337.901 172.226 338.166 171.446 338.697C170.673 339.219 170.079 339.901 169.662 340.742C169.245 341.583 169.037 342.484 169.037 343.447V344.992C169.037 346.31 169.264 347.428 169.719 348.344C170.181 349.253 170.821 349.947 171.639 350.424C172.457 350.894 173.408 351.128 174.491 351.128C175.196 351.128 175.832 351.03 176.401 350.833C176.976 350.628 177.473 350.325 177.889 349.924C178.306 349.515 178.628 349.007 178.855 348.401L181.446 349.128C181.173 350.007 180.715 350.78 180.071 351.447C179.427 352.106 178.632 352.621 177.685 352.992C176.738 353.356 175.673 353.537 174.491 353.537ZM194.798 353.174V335.719H197.48V353.174H194.798ZM196.162 332.81C195.639 332.81 195.188 332.632 194.81 332.276C194.438 331.92 194.253 331.492 194.253 330.992C194.253 330.492 194.438 330.064 194.81 329.708C195.188 329.352 195.639 329.174 196.162 329.174C196.685 329.174 197.132 329.352 197.503 329.708C197.882 330.064 198.071 330.492 198.071 330.992C198.071 331.492 197.882 331.92 197.503 332.276C197.132 332.632 196.685 332.81 196.162 332.81ZM205.074 342.674V353.174H202.392V335.719H204.983V338.447H205.21C205.619 337.56 206.241 336.848 207.074 336.31C207.907 335.765 208.983 335.492 210.301 335.492C211.483 335.492 212.517 335.734 213.403 336.219C214.29 336.697 214.979 337.424 215.472 338.401C215.964 339.371 216.21 340.598 216.21 342.083V353.174H213.528V342.265C213.528 340.894 213.172 339.825 212.46 339.06C211.748 338.287 210.771 337.901 209.528 337.901C208.672 337.901 207.907 338.087 207.233 338.458C206.566 338.829 206.04 339.371 205.653 340.083C205.267 340.795 205.074 341.659 205.074 342.674ZM228.702 335.719V337.992H219.656V335.719H228.702ZM222.293 331.537H224.974V348.174C224.974 348.931 225.084 349.5 225.304 349.878C225.531 350.25 225.819 350.5 226.168 350.628C226.524 350.75 226.899 350.81 227.293 350.81C227.588 350.81 227.83 350.795 228.02 350.765C228.209 350.727 228.361 350.697 228.474 350.674L229.02 353.083C228.838 353.151 228.584 353.219 228.259 353.287C227.933 353.363 227.52 353.401 227.02 353.401C226.262 353.401 225.52 353.238 224.793 352.912C224.073 352.587 223.474 352.09 222.997 351.424C222.527 350.757 222.293 349.916 222.293 348.901V331.537ZM243.736 346.037V335.719H246.418V353.174H243.736V350.219H243.554C243.145 351.106 242.509 351.859 241.645 352.481C240.781 353.094 239.69 353.401 238.372 353.401C237.281 353.401 236.312 353.162 235.463 352.685C234.615 352.2 233.948 351.473 233.463 350.503C232.978 349.526 232.736 348.295 232.736 346.81V335.719H235.418V346.628C235.418 347.901 235.774 348.916 236.486 349.674C237.205 350.431 238.122 350.81 239.236 350.81C239.902 350.81 240.58 350.64 241.27 350.299C241.967 349.958 242.55 349.435 243.02 348.731C243.497 348.026 243.736 347.128 243.736 346.037ZM251.33 353.174V335.719H254.011V353.174H251.33ZM252.693 332.81C252.17 332.81 251.72 332.632 251.341 332.276C250.97 331.92 250.784 331.492 250.784 330.992C250.784 330.492 250.97 330.064 251.341 329.708C251.72 329.352 252.17 329.174 252.693 329.174C253.216 329.174 253.663 329.352 254.034 329.708C254.413 330.064 254.602 330.492 254.602 330.992C254.602 331.492 254.413 331.92 254.034 332.276C253.663 332.632 253.216 332.81 252.693 332.81ZM266.514 335.719V337.992H257.469V335.719H266.514ZM260.105 331.537H262.787V348.174C262.787 348.931 262.897 349.5 263.116 349.878C263.344 350.25 263.632 350.5 263.98 350.628C264.336 350.75 264.711 350.81 265.105 350.81C265.401 350.81 265.643 350.795 265.832 350.765C266.022 350.727 266.173 350.697 266.287 350.674L266.832 353.083C266.651 353.151 266.397 353.219 266.071 353.287C265.745 353.363 265.332 353.401 264.832 353.401C264.075 353.401 263.332 353.238 262.605 352.912C261.885 352.587 261.287 352.09 260.81 351.424C260.34 350.757 260.105 349.916 260.105 348.901V331.537ZM270.548 353.174V335.719H273.23V353.174H270.548ZM271.912 332.81C271.389 332.81 270.938 332.632 270.56 332.276C270.188 331.92 270.003 331.492 270.003 330.992C270.003 330.492 270.188 330.064 270.56 329.708C270.938 329.352 271.389 329.174 271.912 329.174C272.435 329.174 272.882 329.352 273.253 329.708C273.632 330.064 273.821 330.492 273.821 330.992C273.821 331.492 273.632 331.92 273.253 332.276C272.882 332.632 272.435 332.81 271.912 332.81ZM285.233 353.537C283.657 353.537 282.275 353.162 281.085 352.412C279.903 351.662 278.979 350.613 278.312 349.265C277.653 347.916 277.324 346.34 277.324 344.537C277.324 342.719 277.653 341.132 278.312 339.776C278.979 338.42 279.903 337.367 281.085 336.617C282.275 335.867 283.657 335.492 285.233 335.492C286.809 335.492 288.188 335.867 289.369 336.617C290.559 337.367 291.483 338.42 292.142 339.776C292.809 341.132 293.142 342.719 293.142 344.537C293.142 346.34 292.809 347.916 292.142 349.265C291.483 350.613 290.559 351.662 289.369 352.412C288.188 353.162 286.809 353.537 285.233 353.537ZM285.233 351.128C286.43 351.128 287.415 350.822 288.188 350.208C288.96 349.594 289.532 348.787 289.903 347.787C290.275 346.787 290.46 345.704 290.46 344.537C290.46 343.371 290.275 342.284 289.903 341.276C289.532 340.269 288.96 339.454 288.188 338.833C287.415 338.212 286.43 337.901 285.233 337.901C284.036 337.901 283.051 338.212 282.278 338.833C281.506 339.454 280.934 340.269 280.562 341.276C280.191 342.284 280.006 343.371 280.006 344.537C280.006 345.704 280.191 346.787 280.562 347.787C280.934 348.787 281.506 349.594 282.278 350.208C283.051 350.822 284.036 351.128 285.233 351.128ZM299.918 342.674V353.174H297.236V335.719H299.827V338.447H300.054C300.463 337.56 301.084 336.848 301.918 336.31C302.751 335.765 303.827 335.492 305.145 335.492C306.327 335.492 307.361 335.734 308.247 336.219C309.134 336.697 309.823 337.424 310.315 338.401C310.808 339.371 311.054 340.598 311.054 342.083V353.174H308.372V342.265C308.372 340.894 308.016 339.825 307.304 339.06C306.592 338.287 305.615 337.901 304.372 337.901C303.516 337.901 302.751 338.087 302.077 338.458C301.41 338.829 300.884 339.371 300.497 340.083C300.111 340.795 299.918 341.659 299.918 342.674ZM328.909 353.174L323.591 335.719H326.409L330.182 349.083H330.364L334.091 335.719H336.955L340.636 349.037H340.818L344.591 335.719H347.409L342.091 353.174H339.455L335.636 339.765H335.364L331.545 353.174H328.909ZM353.636 342.674V353.174H350.955V329.901H353.636V338.447H353.864C354.273 337.545 354.886 336.829 355.705 336.299C356.53 335.761 357.629 335.492 359 335.492C360.189 335.492 361.231 335.731 362.125 336.208C363.019 336.678 363.712 337.401 364.205 338.378C364.705 339.348 364.955 340.583 364.955 342.083V353.174H362.273V342.265C362.273 340.878 361.913 339.806 361.193 339.049C360.481 338.284 359.492 337.901 358.227 337.901C357.348 337.901 356.561 338.087 355.864 338.458C355.174 338.829 354.629 339.371 354.227 340.083C353.833 340.795 353.636 341.659 353.636 342.674ZM370.963 359.719C370.509 359.719 370.103 359.681 369.747 359.606C369.391 359.537 369.145 359.469 369.009 359.401L369.69 357.037C370.342 357.204 370.918 357.265 371.418 357.219C371.918 357.174 372.361 356.95 372.747 356.549C373.141 356.155 373.501 355.515 373.827 354.628L374.327 353.265L367.872 335.719H370.781L375.599 349.628H375.781L380.599 335.719H383.509L376.099 355.719C375.766 356.621 375.353 357.367 374.861 357.958C374.368 358.556 373.796 359 373.145 359.287C372.501 359.575 371.774 359.719 370.963 359.719ZM396.048 353.174V335.719H398.73V353.174H396.048ZM397.412 332.81C396.889 332.81 396.438 332.632 396.06 332.276C395.688 331.92 395.503 331.492 395.503 330.992C395.503 330.492 395.688 330.064 396.06 329.708C396.438 329.352 396.889 329.174 397.412 329.174C397.935 329.174 398.382 329.352 398.753 329.708C399.132 330.064 399.321 330.492 399.321 330.992C399.321 331.492 399.132 331.92 398.753 332.276C398.382 332.632 397.935 332.81 397.412 332.81ZM411.233 335.719V337.992H402.188V335.719H411.233ZM404.824 331.537H407.506V348.174C407.506 348.931 407.616 349.5 407.835 349.878C408.063 350.25 408.35 350.5 408.699 350.628C409.055 350.75 409.43 350.81 409.824 350.81C410.119 350.81 410.362 350.795 410.551 350.765C410.741 350.727 410.892 350.697 411.006 350.674L411.551 353.083C411.369 353.151 411.116 353.219 410.79 353.287C410.464 353.363 410.051 353.401 409.551 353.401C408.794 353.401 408.051 353.238 407.324 352.912C406.604 352.587 406.006 352.09 405.528 351.424C405.059 350.757 404.824 349.916 404.824 348.901V331.537ZM424.267 353.174V335.719H426.949V353.174H424.267ZM425.631 332.81C425.108 332.81 424.657 332.632 424.278 332.276C423.907 331.92 423.722 331.492 423.722 330.992C423.722 330.492 423.907 330.064 424.278 329.708C424.657 329.352 425.108 329.174 425.631 329.174C426.153 329.174 426.6 329.352 426.972 329.708C427.35 330.064 427.54 330.492 427.54 330.992C427.54 331.492 427.35 331.92 426.972 332.276C426.6 332.632 426.153 332.81 425.631 332.81ZM444.224 339.628L441.815 340.31C441.664 339.909 441.44 339.519 441.145 339.14C440.857 338.753 440.463 338.435 439.963 338.185C439.463 337.935 438.823 337.81 438.043 337.81C436.974 337.81 436.084 338.056 435.372 338.549C434.668 339.034 434.315 339.651 434.315 340.401C434.315 341.068 434.558 341.594 435.043 341.981C435.527 342.367 436.285 342.689 437.315 342.947L439.906 343.583C441.467 343.962 442.63 344.541 443.395 345.322C444.16 346.094 444.543 347.09 444.543 348.31C444.543 349.31 444.255 350.204 443.679 350.992C443.111 351.78 442.315 352.401 441.293 352.856C440.27 353.31 439.08 353.537 437.724 353.537C435.944 353.537 434.471 353.151 433.304 352.378C432.137 351.606 431.399 350.477 431.088 348.992L433.634 348.356C433.876 349.295 434.334 350 435.009 350.469C435.69 350.939 436.58 351.174 437.679 351.174C438.929 351.174 439.921 350.909 440.656 350.378C441.399 349.84 441.77 349.197 441.77 348.447C441.77 347.84 441.558 347.333 441.134 346.924C440.709 346.507 440.058 346.197 439.179 345.992L436.27 345.31C434.671 344.931 433.497 344.344 432.747 343.549C432.005 342.746 431.634 341.742 431.634 340.537C431.634 339.553 431.91 338.681 432.463 337.924C433.024 337.166 433.785 336.572 434.747 336.14C435.717 335.708 436.815 335.492 438.043 335.492C439.77 335.492 441.126 335.871 442.111 336.628C443.103 337.386 443.808 338.386 444.224 339.628ZM462.716 353.583C461.61 353.583 460.606 353.375 459.705 352.958C458.803 352.534 458.087 351.924 457.557 351.128C457.027 350.325 456.761 349.356 456.761 348.219C456.761 347.219 456.958 346.409 457.352 345.787C457.746 345.159 458.273 344.666 458.932 344.31C459.591 343.954 460.318 343.689 461.114 343.515C461.917 343.333 462.723 343.189 463.534 343.083C464.595 342.947 465.455 342.844 466.114 342.776C466.78 342.7 467.265 342.575 467.568 342.401C467.879 342.227 468.034 341.924 468.034 341.492V341.401C468.034 340.28 467.727 339.409 467.114 338.787C466.508 338.166 465.587 337.856 464.352 337.856C463.072 337.856 462.068 338.136 461.341 338.697C460.614 339.257 460.102 339.856 459.807 340.492L457.261 339.583C457.716 338.522 458.322 337.697 459.08 337.106C459.845 336.507 460.678 336.09 461.58 335.856C462.489 335.613 463.383 335.492 464.261 335.492C464.822 335.492 465.466 335.56 466.193 335.697C466.928 335.825 467.636 336.094 468.318 336.503C469.008 336.912 469.58 337.53 470.034 338.356C470.489 339.181 470.716 340.287 470.716 341.674V353.174H468.034V350.81H467.898C467.716 351.189 467.413 351.594 466.989 352.026C466.564 352.458 466 352.825 465.295 353.128C464.591 353.431 463.731 353.583 462.716 353.583ZM463.125 351.174C464.186 351.174 465.08 350.965 465.807 350.549C466.542 350.132 467.095 349.594 467.466 348.935C467.845 348.276 468.034 347.583 468.034 346.856V344.401C467.92 344.537 467.67 344.662 467.284 344.776C466.905 344.882 466.466 344.977 465.966 345.06C465.473 345.136 464.992 345.204 464.523 345.265C464.061 345.318 463.686 345.363 463.398 345.401C462.701 345.492 462.049 345.64 461.443 345.844C460.845 346.041 460.36 346.34 459.989 346.742C459.625 347.136 459.443 347.674 459.443 348.356C459.443 349.287 459.788 349.992 460.477 350.469C461.174 350.939 462.057 351.174 463.125 351.174ZM496.974 339.628L494.565 340.31C494.414 339.909 494.19 339.519 493.895 339.14C493.607 338.753 493.213 338.435 492.713 338.185C492.213 337.935 491.573 337.81 490.793 337.81C489.724 337.81 488.834 338.056 488.122 338.549C487.418 339.034 487.065 339.651 487.065 340.401C487.065 341.068 487.308 341.594 487.793 341.981C488.277 342.367 489.035 342.689 490.065 342.947L492.656 343.583C494.217 343.962 495.38 344.541 496.145 345.322C496.91 346.094 497.293 347.09 497.293 348.31C497.293 349.31 497.005 350.204 496.429 350.992C495.861 351.78 495.065 352.401 494.043 352.856C493.02 353.31 491.83 353.537 490.474 353.537C488.694 353.537 487.221 353.151 486.054 352.378C484.887 351.606 484.149 350.477 483.838 348.992L486.384 348.356C486.626 349.295 487.084 350 487.759 350.469C488.44 350.939 489.33 351.174 490.429 351.174C491.679 351.174 492.671 350.909 493.406 350.378C494.149 349.84 494.52 349.197 494.52 348.447C494.52 347.84 494.308 347.333 493.884 346.924C493.459 346.507 492.808 346.197 491.929 345.992L489.02 345.31C487.421 344.931 486.247 344.344 485.497 343.549C484.755 342.746 484.384 341.742 484.384 340.537C484.384 339.553 484.66 338.681 485.213 337.924C485.774 337.166 486.535 336.572 487.497 336.14C488.467 335.708 489.565 335.492 490.793 335.492C492.52 335.492 493.876 335.871 494.861 336.628C495.853 337.386 496.558 338.386 496.974 339.628ZM501.33 353.174V335.719H504.011V353.174H501.33ZM502.693 332.81C502.17 332.81 501.72 332.632 501.341 332.276C500.97 331.92 500.784 331.492 500.784 330.992C500.784 330.492 500.97 330.064 501.341 329.708C501.72 329.352 502.17 329.174 502.693 329.174C503.216 329.174 503.663 329.352 504.034 329.708C504.413 330.064 504.602 330.492 504.602 330.992C504.602 331.492 504.413 331.92 504.034 332.276C503.663 332.632 503.216 332.81 502.693 332.81ZM508.923 353.174V335.719H511.514V338.447H511.741C512.105 337.515 512.692 336.791 513.503 336.276C514.313 335.753 515.287 335.492 516.423 335.492C517.575 335.492 518.533 335.753 519.298 336.276C520.071 336.791 520.673 337.515 521.105 338.447H521.287C521.734 337.545 522.404 336.829 523.298 336.299C524.192 335.761 525.264 335.492 526.514 335.492C528.075 335.492 529.351 335.981 530.344 336.958C531.336 337.928 531.832 339.439 531.832 341.492V353.174H529.151V341.492C529.151 340.204 528.798 339.284 528.094 338.731C527.389 338.178 526.56 337.901 525.605 337.901C524.378 337.901 523.427 338.272 522.753 339.015C522.079 339.75 521.741 340.681 521.741 341.81V353.174H519.014V341.219C519.014 340.227 518.692 339.428 518.048 338.822C517.404 338.208 516.575 337.901 515.56 337.901C514.863 337.901 514.211 338.087 513.605 338.458C513.007 338.829 512.522 339.344 512.151 340.003C511.787 340.655 511.605 341.409 511.605 342.265V353.174H508.923ZM547.736 346.037V335.719H550.418V353.174H547.736V350.219H547.554C547.145 351.106 546.509 351.859 545.645 352.481C544.781 353.094 543.69 353.401 542.372 353.401C541.281 353.401 540.312 353.162 539.463 352.685C538.615 352.2 537.948 351.473 537.463 350.503C536.978 349.526 536.736 348.295 536.736 346.81V335.719H539.418V346.628C539.418 347.901 539.774 348.916 540.486 349.674C541.205 350.431 542.122 350.81 543.236 350.81C543.902 350.81 544.58 350.64 545.27 350.299C545.967 349.958 546.55 349.435 547.02 348.731C547.497 348.026 547.736 347.128 547.736 346.037ZM558.011 329.901V353.174H555.33V329.901H558.011ZM568.06 353.583C566.954 353.583 565.95 353.375 565.048 352.958C564.147 352.534 563.431 351.924 562.901 351.128C562.37 350.325 562.105 349.356 562.105 348.219C562.105 347.219 562.302 346.409 562.696 345.787C563.09 345.159 563.616 344.666 564.276 344.31C564.935 343.954 565.662 343.689 566.457 343.515C567.26 343.333 568.067 343.189 568.878 343.083C569.938 342.947 570.798 342.844 571.457 342.776C572.124 342.7 572.609 342.575 572.912 342.401C573.223 342.227 573.378 341.924 573.378 341.492V341.401C573.378 340.28 573.071 339.409 572.457 338.787C571.851 338.166 570.931 337.856 569.696 337.856C568.416 337.856 567.412 338.136 566.685 338.697C565.957 339.257 565.446 339.856 565.151 340.492L562.605 339.583C563.06 338.522 563.666 337.697 564.423 337.106C565.188 336.507 566.022 336.09 566.923 335.856C567.832 335.613 568.726 335.492 569.605 335.492C570.166 335.492 570.81 335.56 571.537 335.697C572.272 335.825 572.98 336.094 573.662 336.503C574.351 336.912 574.923 337.53 575.378 338.356C575.832 339.181 576.06 340.287 576.06 341.674V353.174H573.378V350.81H573.241C573.06 351.189 572.757 351.594 572.332 352.026C571.908 352.458 571.344 352.825 570.639 353.128C569.935 353.431 569.075 353.583 568.06 353.583ZM568.469 351.174C569.529 351.174 570.423 350.965 571.151 350.549C571.885 350.132 572.438 349.594 572.81 348.935C573.188 348.276 573.378 347.583 573.378 346.856V344.401C573.264 344.537 573.014 344.662 572.628 344.776C572.249 344.882 571.81 344.977 571.31 345.06C570.817 345.136 570.336 345.204 569.866 345.265C569.404 345.318 569.029 345.363 568.741 345.401C568.045 345.492 567.393 345.64 566.787 345.844C566.188 346.041 565.704 346.34 565.332 346.742C564.969 347.136 564.787 347.674 564.787 348.356C564.787 349.287 565.132 349.992 565.821 350.469C566.518 350.939 567.401 351.174 568.469 351.174ZM588.545 335.719V337.992H579.5V335.719H588.545ZM582.136 331.537H584.818V348.174C584.818 348.931 584.928 349.5 585.148 349.878C585.375 350.25 585.663 350.5 586.011 350.628C586.367 350.75 586.742 350.81 587.136 350.81C587.432 350.81 587.674 350.795 587.864 350.765C588.053 350.727 588.205 350.697 588.318 350.674L588.864 353.083C588.682 353.151 588.428 353.219 588.102 353.287C587.777 353.363 587.364 353.401 586.864 353.401C586.106 353.401 585.364 353.238 584.636 352.912C583.917 352.587 583.318 352.09 582.841 351.424C582.371 350.757 582.136 349.916 582.136 348.901V331.537ZM592.58 353.174V335.719H595.261V353.174H592.58ZM593.943 332.81C593.42 332.81 592.97 332.632 592.591 332.276C592.22 331.92 592.034 331.492 592.034 330.992C592.034 330.492 592.22 330.064 592.591 329.708C592.97 329.352 593.42 329.174 593.943 329.174C594.466 329.174 594.913 329.352 595.284 329.708C595.663 330.064 595.852 330.492 595.852 330.992C595.852 331.492 595.663 331.92 595.284 332.276C594.913 332.632 594.466 332.81 593.943 332.81ZM607.264 353.537C605.688 353.537 604.306 353.162 603.116 352.412C601.935 351.662 601.01 350.613 600.344 349.265C599.685 347.916 599.355 346.34 599.355 344.537C599.355 342.719 599.685 341.132 600.344 339.776C601.01 338.42 601.935 337.367 603.116 336.617C604.306 335.867 605.688 335.492 607.264 335.492C608.84 335.492 610.219 335.867 611.401 336.617C612.59 337.367 613.514 338.42 614.173 339.776C614.84 341.132 615.173 342.719 615.173 344.537C615.173 346.34 614.84 347.916 614.173 349.265C613.514 350.613 612.59 351.662 611.401 352.412C610.219 353.162 608.84 353.537 607.264 353.537ZM607.264 351.128C608.461 351.128 609.446 350.822 610.219 350.208C610.991 349.594 611.563 348.787 611.935 347.787C612.306 346.787 612.491 345.704 612.491 344.537C612.491 343.371 612.306 342.284 611.935 341.276C611.563 340.269 610.991 339.454 610.219 338.833C609.446 338.212 608.461 337.901 607.264 337.901C606.067 337.901 605.082 338.212 604.31 338.833C603.537 339.454 602.965 340.269 602.594 341.276C602.223 342.284 602.037 343.371 602.037 344.537C602.037 345.704 602.223 346.787 602.594 347.787C602.965 348.787 603.537 349.594 604.31 350.208C605.082 350.822 606.067 351.128 607.264 351.128ZM621.949 342.674V353.174H619.267V335.719H621.858V338.447H622.085C622.494 337.56 623.116 336.848 623.949 336.31C624.782 335.765 625.858 335.492 627.176 335.492C628.358 335.492 629.392 335.734 630.278 336.219C631.165 336.697 631.854 337.424 632.347 338.401C632.839 339.371 633.085 340.598 633.085 342.083V353.174H630.403V342.265C630.403 340.894 630.047 339.825 629.335 339.06C628.623 338.287 627.646 337.901 626.403 337.901C625.547 337.901 624.782 338.087 624.108 338.458C623.441 338.829 622.915 339.371 622.528 340.083C622.142 340.795 621.949 341.659 621.949 342.674ZM646.986 353.174V335.719H649.577V338.356H649.759C650.077 337.492 650.652 336.791 651.486 336.253C652.319 335.715 653.259 335.447 654.304 335.447C654.501 335.447 654.747 335.45 655.043 335.458C655.338 335.465 655.562 335.477 655.713 335.492V338.219C655.622 338.197 655.414 338.162 655.088 338.117C654.77 338.064 654.433 338.037 654.077 338.037C653.228 338.037 652.471 338.215 651.804 338.572C651.145 338.92 650.622 339.405 650.236 340.026C649.857 340.64 649.668 341.34 649.668 342.128V353.174H646.986ZM665.679 353.537C663.997 353.537 662.546 353.166 661.327 352.424C660.115 351.674 659.179 350.628 658.52 349.287C657.868 347.939 657.543 346.371 657.543 344.583C657.543 342.795 657.868 341.219 658.52 339.856C659.179 338.484 660.096 337.416 661.27 336.651C662.452 335.878 663.83 335.492 665.406 335.492C666.315 335.492 667.213 335.644 668.099 335.947C668.986 336.25 669.793 336.742 670.52 337.424C671.247 338.098 671.827 338.992 672.259 340.106C672.69 341.219 672.906 342.59 672.906 344.219V345.356H659.452V343.037H670.179C670.179 342.053 669.982 341.174 669.588 340.401C669.202 339.628 668.649 339.019 667.929 338.572C667.217 338.125 666.376 337.901 665.406 337.901C664.338 337.901 663.414 338.166 662.634 338.697C661.861 339.219 661.266 339.901 660.849 340.742C660.433 341.583 660.224 342.484 660.224 343.447V344.992C660.224 346.31 660.452 347.428 660.906 348.344C661.368 349.253 662.009 349.947 662.827 350.424C663.645 350.894 664.596 351.128 665.679 351.128C666.384 351.128 667.02 351.03 667.588 350.833C668.164 350.628 668.66 350.325 669.077 349.924C669.493 349.515 669.815 349.007 670.043 348.401L672.634 349.128C672.361 350.007 671.902 350.78 671.259 351.447C670.615 352.106 669.819 352.621 668.872 352.992C667.925 353.356 666.861 353.537 665.679 353.537ZM679.668 329.901V353.174H676.986V329.901H679.668ZM689.716 353.583C688.61 353.583 687.606 353.375 686.705 352.958C685.803 352.534 685.087 351.924 684.557 351.128C684.027 350.325 683.761 349.356 683.761 348.219C683.761 347.219 683.958 346.409 684.352 345.787C684.746 345.159 685.273 344.666 685.932 344.31C686.591 343.954 687.318 343.689 688.114 343.515C688.917 343.333 689.723 343.189 690.534 343.083C691.595 342.947 692.455 342.844 693.114 342.776C693.78 342.7 694.265 342.575 694.568 342.401C694.879 342.227 695.034 341.924 695.034 341.492V341.401C695.034 340.28 694.727 339.409 694.114 338.787C693.508 338.166 692.587 337.856 691.352 337.856C690.072 337.856 689.068 338.136 688.341 338.697C687.614 339.257 687.102 339.856 686.807 340.492L684.261 339.583C684.716 338.522 685.322 337.697 686.08 337.106C686.845 336.507 687.678 336.09 688.58 335.856C689.489 335.613 690.383 335.492 691.261 335.492C691.822 335.492 692.466 335.56 693.193 335.697C693.928 335.825 694.636 336.094 695.318 336.503C696.008 336.912 696.58 337.53 697.034 338.356C697.489 339.181 697.716 340.287 697.716 341.674V353.174H695.034V350.81H694.898C694.716 351.189 694.413 351.594 693.989 352.026C693.564 352.458 693 352.825 692.295 353.128C691.591 353.431 690.731 353.583 689.716 353.583ZM690.125 351.174C691.186 351.174 692.08 350.965 692.807 350.549C693.542 350.132 694.095 349.594 694.466 348.935C694.845 348.276 695.034 347.583 695.034 346.856V344.401C694.92 344.537 694.67 344.662 694.284 344.776C693.905 344.882 693.466 344.977 692.966 345.06C692.473 345.136 691.992 345.204 691.523 345.265C691.061 345.318 690.686 345.363 690.398 345.401C689.701 345.492 689.049 345.64 688.443 345.844C687.845 346.041 687.36 346.34 686.989 346.742C686.625 347.136 686.443 347.674 686.443 348.356C686.443 349.287 686.788 349.992 687.477 350.469C688.174 350.939 689.057 351.174 690.125 351.174ZM710.202 335.719V337.992H701.156V335.719H710.202ZM703.793 331.537H706.474V348.174C706.474 348.931 706.584 349.5 706.804 349.878C707.031 350.25 707.319 350.5 707.668 350.628C708.024 350.75 708.399 350.81 708.793 350.81C709.088 350.81 709.33 350.795 709.52 350.765C709.709 350.727 709.861 350.697 709.974 350.674L710.52 353.083C710.338 353.151 710.084 353.219 709.759 353.287C709.433 353.363 709.02 353.401 708.52 353.401C707.762 353.401 707.02 353.238 706.293 352.912C705.573 352.587 704.974 352.09 704.497 351.424C704.027 350.757 703.793 349.916 703.793 348.901V331.537ZM714.236 353.174V335.719H716.918V353.174H714.236ZM715.599 332.81C715.077 332.81 714.626 332.632 714.247 332.276C713.876 331.92 713.69 331.492 713.69 330.992C713.69 330.492 713.876 330.064 714.247 329.708C714.626 329.352 715.077 329.174 715.599 329.174C716.122 329.174 716.569 329.352 716.94 329.708C717.319 330.064 717.509 330.492 717.509 330.992C717.509 331.492 717.319 331.92 716.94 332.276C716.569 332.632 716.122 332.81 715.599 332.81ZM728.92 353.537C727.345 353.537 725.962 353.162 724.773 352.412C723.591 351.662 722.667 350.613 722 349.265C721.341 347.916 721.011 346.34 721.011 344.537C721.011 342.719 721.341 341.132 722 339.776C722.667 338.42 723.591 337.367 724.773 336.617C725.962 335.867 727.345 335.492 728.92 335.492C730.496 335.492 731.875 335.867 733.057 336.617C734.246 337.367 735.17 338.42 735.83 339.776C736.496 341.132 736.83 342.719 736.83 344.537C736.83 346.34 736.496 347.916 735.83 349.265C735.17 350.613 734.246 351.662 733.057 352.412C731.875 353.162 730.496 353.537 728.92 353.537ZM728.92 351.128C730.117 351.128 731.102 350.822 731.875 350.208C732.648 349.594 733.22 348.787 733.591 347.787C733.962 346.787 734.148 345.704 734.148 344.537C734.148 343.371 733.962 342.284 733.591 341.276C733.22 340.269 732.648 339.454 731.875 338.833C731.102 338.212 730.117 337.901 728.92 337.901C727.723 337.901 726.739 338.212 725.966 338.833C725.193 339.454 724.621 340.269 724.25 341.276C723.879 342.284 723.693 343.371 723.693 344.537C723.693 345.704 723.879 346.787 724.25 347.787C724.621 348.787 725.193 349.594 725.966 350.208C726.739 350.822 727.723 351.128 728.92 351.128ZM743.605 342.674V353.174H740.923V335.719H743.514V338.447H743.741C744.151 337.56 744.772 336.848 745.605 336.31C746.438 335.765 747.514 335.492 748.832 335.492C750.014 335.492 751.048 335.734 751.935 336.219C752.821 336.697 753.51 337.424 754.003 338.401C754.495 339.371 754.741 340.598 754.741 342.083V353.174H752.06V342.265C752.06 340.894 751.704 339.825 750.991 339.06C750.279 338.287 749.302 337.901 748.06 337.901C747.204 337.901 746.438 338.087 745.764 338.458C745.098 338.829 744.571 339.371 744.185 340.083C743.798 340.795 743.605 341.659 743.605 342.674Z" fill="black"/>
</g>
</svg>
