<svg width="1920" height="1080" viewBox="0 0 1920 1080" fill="none" xmlns="http://www.w3.org/2000/svg">
<g id="Reachability Problem">
<rect width="1920" height="1080" fill="white"/>
<path id="Reachability Problem_2" d="M591.964 116V69.4545H610.328C613.843 69.4545 616.843 70.0833 619.328 71.3409C621.828 72.5833 623.73 74.3485 625.033 76.6364C626.351 78.9091 627.01 81.5833 627.01 84.6591C627.01 87.75 626.343 90.4091 625.01 92.6364C623.677 94.8485 621.745 96.5455 619.214 97.7273C616.699 98.9091 613.654 99.5 610.078 99.5H597.783V91.5909H608.487C610.366 91.5909 611.927 91.3333 613.169 90.8182C614.411 90.303 615.336 89.5303 615.942 88.5C616.563 87.4697 616.873 86.1894 616.873 84.6591C616.873 83.1136 616.563 81.8106 615.942 80.75C615.336 79.6894 614.404 78.8864 613.146 78.3409C611.904 77.7803 610.336 77.5 608.442 77.5H601.805V116H591.964ZM617.101 94.8182L628.669 116H617.805L606.487 94.8182H617.101ZM649.129 116.682C645.538 116.682 642.447 115.955 639.856 114.5C637.281 113.03 635.296 110.955 633.902 108.273C632.508 105.576 631.811 102.386 631.811 98.7045C631.811 95.1136 632.508 91.9621 633.902 89.25C635.296 86.5379 637.258 84.4242 639.788 82.9091C642.334 81.3939 645.319 80.6364 648.743 80.6364C651.046 80.6364 653.19 81.0076 655.175 81.75C657.175 82.4773 658.917 83.5758 660.402 85.0455C661.902 86.5152 663.069 88.3636 663.902 90.5909C664.735 92.803 665.152 95.3939 665.152 98.3636V101.023H635.675V95.0227H656.038C656.038 93.6288 655.735 92.3939 655.129 91.3182C654.523 90.2424 653.682 89.4015 652.606 88.7955C651.546 88.1742 650.311 87.8636 648.902 87.8636C647.432 87.8636 646.129 88.2045 644.993 88.8864C643.872 89.553 642.993 90.4545 642.356 91.5909C641.72 92.7121 641.394 93.9621 641.379 95.3409V101.045C641.379 102.773 641.697 104.265 642.334 105.523C642.985 106.78 643.902 107.75 645.084 108.432C646.266 109.114 647.667 109.455 649.288 109.455C650.364 109.455 651.349 109.303 652.243 109C653.137 108.697 653.902 108.242 654.538 107.636C655.175 107.03 655.659 106.288 655.993 105.409L664.947 106C664.493 108.152 663.561 110.03 662.152 111.636C660.758 113.227 658.955 114.47 656.743 115.364C654.546 116.242 652.008 116.682 649.129 116.682ZM681.425 116.659C679.197 116.659 677.213 116.273 675.47 115.5C673.728 114.712 672.349 113.553 671.334 112.023C670.334 110.477 669.834 108.553 669.834 106.25C669.834 104.311 670.19 102.682 670.902 101.364C671.614 100.045 672.584 98.9848 673.811 98.1818C675.038 97.3788 676.432 96.7727 677.993 96.3636C679.569 95.9545 681.22 95.6667 682.947 95.5C684.978 95.2879 686.614 95.0909 687.856 94.9091C689.099 94.7121 690 94.4242 690.561 94.0455C691.122 93.6667 691.402 93.1061 691.402 92.3636V92.2273C691.402 90.7879 690.947 89.6742 690.038 88.8864C689.144 88.0985 687.872 87.7045 686.22 87.7045C684.478 87.7045 683.091 88.0909 682.061 88.8636C681.031 89.6212 680.349 90.5758 680.016 91.7273L671.061 91C671.516 88.8788 672.409 87.0455 673.743 85.5C675.076 83.9394 676.796 82.7424 678.902 81.9091C681.023 81.0606 683.478 80.6364 686.266 80.6364C688.205 80.6364 690.061 80.8636 691.834 81.3182C693.622 81.7727 695.205 82.4773 696.584 83.4318C697.978 84.3864 699.076 85.6136 699.879 87.1136C700.682 88.5985 701.084 90.3788 701.084 92.4545V116H691.902V111.159H691.629C691.069 112.25 690.319 113.212 689.379 114.045C688.44 114.864 687.311 115.508 685.993 115.977C684.675 116.432 683.152 116.659 681.425 116.659ZM684.197 109.977C685.622 109.977 686.879 109.697 687.97 109.136C689.061 108.561 689.917 107.788 690.538 106.818C691.159 105.848 691.47 104.75 691.47 103.523V99.8182C691.167 100.015 690.75 100.197 690.22 100.364C689.705 100.515 689.122 100.659 688.47 100.795C687.819 100.917 687.167 101.03 686.516 101.136C685.864 101.227 685.273 101.311 684.743 101.386C683.606 101.553 682.614 101.818 681.766 102.182C680.917 102.545 680.258 103.038 679.788 103.659C679.319 104.265 679.084 105.023 679.084 105.932C679.084 107.25 679.561 108.258 680.516 108.955C681.485 109.636 682.713 109.977 684.197 109.977ZM724.368 116.682C720.792 116.682 717.716 115.924 715.141 114.409C712.58 112.879 710.61 110.758 709.231 108.045C707.868 105.333 707.186 102.212 707.186 98.6818C707.186 95.1061 707.875 91.9697 709.254 89.2727C710.648 86.5606 712.625 84.447 715.186 82.9318C717.747 81.4015 720.792 80.6364 724.322 80.6364C727.368 80.6364 730.034 81.1894 732.322 82.2955C734.61 83.4015 736.421 84.9545 737.754 86.9545C739.088 88.9545 739.822 91.303 739.959 94H730.822C730.565 92.2576 729.883 90.8561 728.777 89.7955C727.686 88.7197 726.254 88.1818 724.481 88.1818C722.981 88.1818 721.671 88.5909 720.55 89.4091C719.444 90.2121 718.58 91.3864 717.959 92.9318C717.338 94.4773 717.027 96.3485 717.027 98.5455C717.027 100.773 717.33 102.667 717.936 104.227C718.557 105.788 719.428 106.977 720.55 107.795C721.671 108.614 722.981 109.023 724.481 109.023C725.588 109.023 726.58 108.795 727.459 108.341C728.353 107.886 729.088 107.227 729.663 106.364C730.254 105.485 730.641 104.432 730.822 103.205H739.959C739.807 105.871 739.08 108.22 737.777 110.25C736.489 112.265 734.709 113.841 732.436 114.977C730.163 116.114 727.474 116.682 724.368 116.682ZM755.839 95.8182V116H746.158V69.4545H755.567V87.25H755.976C756.764 85.1894 758.036 83.5758 759.794 82.4091C761.552 81.2273 763.756 80.6364 766.408 80.6364C768.832 80.6364 770.945 81.1667 772.748 82.2273C774.567 83.2727 775.976 84.7803 776.976 86.75C777.991 88.7045 778.491 91.0455 778.476 93.7727V116H768.794V95.5C768.809 93.3485 768.264 91.6742 767.158 90.4773C766.067 89.2803 764.536 88.6818 762.567 88.6818C761.248 88.6818 760.082 88.9621 759.067 89.5227C758.067 90.0833 757.279 90.9015 756.703 91.9773C756.142 93.0379 755.855 94.3182 755.839 95.8182ZM796.05 116.659C793.822 116.659 791.838 116.273 790.095 115.5C788.353 114.712 786.974 113.553 785.959 112.023C784.959 110.477 784.459 108.553 784.459 106.25C784.459 104.311 784.815 102.682 785.527 101.364C786.239 100.045 787.209 98.9848 788.436 98.1818C789.663 97.3788 791.057 96.7727 792.618 96.3636C794.194 95.9545 795.845 95.6667 797.572 95.5C799.603 95.2879 801.239 95.0909 802.481 94.9091C803.724 94.7121 804.625 94.4242 805.186 94.0455C805.747 93.6667 806.027 93.1061 806.027 92.3636V92.2273C806.027 90.7879 805.572 89.6742 804.663 88.8864C803.769 88.0985 802.497 87.7045 800.845 87.7045C799.103 87.7045 797.716 88.0909 796.686 88.8636C795.656 89.6212 794.974 90.5758 794.641 91.7273L785.686 91C786.141 88.8788 787.034 87.0455 788.368 85.5C789.701 83.9394 791.421 82.7424 793.527 81.9091C795.648 81.0606 798.103 80.6364 800.891 80.6364C802.83 80.6364 804.686 80.8636 806.459 81.3182C808.247 81.7727 809.83 82.4773 811.209 83.4318C812.603 84.3864 813.701 85.6136 814.504 87.1136C815.307 88.5985 815.709 90.3788 815.709 92.4545V116H806.527V111.159H806.254C805.694 112.25 804.944 113.212 804.004 114.045C803.065 114.864 801.936 115.508 800.618 115.977C799.3 116.432 797.777 116.659 796.05 116.659ZM798.822 109.977C800.247 109.977 801.504 109.697 802.595 109.136C803.686 108.561 804.542 107.788 805.163 106.818C805.784 105.848 806.095 104.75 806.095 103.523V99.8182C805.792 100.015 805.375 100.197 804.845 100.364C804.33 100.515 803.747 100.659 803.095 100.795C802.444 100.917 801.792 101.03 801.141 101.136C800.489 101.227 799.898 101.311 799.368 101.386C798.231 101.553 797.239 101.818 796.391 102.182C795.542 102.545 794.883 103.038 794.413 103.659C793.944 104.265 793.709 105.023 793.709 105.932C793.709 107.25 794.186 108.258 795.141 108.955C796.11 109.636 797.338 109.977 798.822 109.977ZM823.402 116V69.4545H833.084V86.9545H833.379C833.803 86.0152 834.417 85.0606 835.22 84.0909C836.038 83.1061 837.099 82.2879 838.402 81.6364C839.72 80.9697 841.356 80.6364 843.311 80.6364C845.856 80.6364 848.205 81.303 850.356 82.6364C852.508 83.9545 854.228 85.947 855.516 88.6136C856.803 91.2652 857.447 94.5909 857.447 98.5909C857.447 102.485 856.819 105.773 855.561 108.455C854.319 111.121 852.622 113.144 850.47 114.523C848.334 115.886 845.94 116.568 843.288 116.568C841.409 116.568 839.811 116.258 838.493 115.636C837.19 115.015 836.122 114.235 835.288 113.295C834.455 112.341 833.819 111.379 833.379 110.409H832.947V116H823.402ZM832.879 98.5455C832.879 100.621 833.167 102.432 833.743 103.977C834.319 105.523 835.152 106.727 836.243 107.591C837.334 108.439 838.659 108.864 840.22 108.864C841.796 108.864 843.129 108.432 844.22 107.568C845.311 106.689 846.137 105.477 846.697 103.932C847.273 102.371 847.561 100.576 847.561 98.5455C847.561 96.5303 847.281 94.7576 846.72 93.2273C846.159 91.697 845.334 90.5 844.243 89.6364C843.152 88.7727 841.811 88.3409 840.22 88.3409C838.644 88.3409 837.311 88.7576 836.22 89.5909C835.144 90.4242 834.319 91.6061 833.743 93.1364C833.167 94.6667 832.879 96.4697 832.879 98.5455ZM863.908 116V81.0909H873.589V116H863.908ZM868.771 76.5909C867.332 76.5909 866.097 76.1136 865.067 75.1591C864.052 74.1894 863.544 73.0303 863.544 71.6818C863.544 70.3485 864.052 69.2045 865.067 68.25C866.097 67.2803 867.332 66.7955 868.771 66.7955C870.211 66.7955 871.438 67.2803 872.453 68.25C873.483 69.2045 873.998 70.3485 873.998 71.6818C873.998 73.0303 873.483 74.1894 872.453 75.1591C871.438 76.1136 870.211 76.5909 868.771 76.5909ZM891.027 69.4545V116H881.345V69.4545H891.027ZM898.783 116V81.0909H908.464V116H898.783ZM903.646 76.5909C902.207 76.5909 900.972 76.1136 899.942 75.1591C898.927 74.1894 898.419 73.0303 898.419 71.6818C898.419 70.3485 898.927 69.2045 899.942 68.25C900.972 67.2803 902.207 66.7955 903.646 66.7955C905.086 66.7955 906.313 67.2803 907.328 68.25C908.358 69.2045 908.873 70.3485 908.873 71.6818C908.873 73.0303 908.358 74.1894 907.328 75.1591C906.313 76.1136 905.086 76.5909 903.646 76.5909ZM934.788 81.0909V88.3636H913.766V81.0909H934.788ZM918.538 72.7273H928.22V105.273C928.22 106.167 928.356 106.864 928.629 107.364C928.902 107.848 929.281 108.189 929.766 108.386C930.266 108.583 930.841 108.682 931.493 108.682C931.947 108.682 932.402 108.644 932.856 108.568C933.311 108.477 933.659 108.409 933.902 108.364L935.425 115.568C934.94 115.72 934.258 115.894 933.379 116.091C932.5 116.303 931.432 116.432 930.175 116.477C927.841 116.568 925.796 116.258 924.038 115.545C922.296 114.833 920.94 113.727 919.97 112.227C919 110.727 918.523 108.833 918.538 106.545V72.7273ZM947.072 129.091C945.845 129.091 944.694 128.992 943.618 128.795C942.557 128.614 941.678 128.379 940.981 128.091L943.163 120.864C944.3 121.212 945.322 121.402 946.231 121.432C947.156 121.462 947.951 121.25 948.618 120.795C949.3 120.341 949.853 119.568 950.277 118.477L950.845 117L938.322 81.0909H948.504L955.731 106.727H956.095L963.391 81.0909H973.641L960.072 119.773C959.421 121.652 958.534 123.288 957.413 124.682C956.307 126.091 954.906 127.174 953.209 127.932C951.512 128.705 949.466 129.091 947.072 129.091ZM993.589 116V69.4545H1011.95C1015.48 69.4545 1018.49 70.1288 1020.98 71.4773C1023.46 72.8106 1025.35 74.6667 1026.66 77.0455C1027.98 79.4091 1028.63 82.1364 1028.63 85.2273C1028.63 88.3182 1027.97 91.0455 1026.63 93.4091C1025.3 95.7727 1023.37 97.6136 1020.84 98.9318C1018.32 100.25 1015.28 100.909 1011.7 100.909H999.998V93.0227H1010.11C1012.01 93.0227 1013.57 92.697 1014.79 92.0455C1016.04 91.3788 1016.96 90.4621 1017.57 89.2955C1018.19 88.1136 1018.5 86.7576 1018.5 85.2273C1018.5 83.6818 1018.19 82.3333 1017.57 81.1818C1016.96 80.0151 1016.04 79.1136 1014.79 78.4773C1013.55 77.8258 1011.98 77.5 1010.07 77.5H1003.43V116H993.589ZM1034.85 116V81.0909H1044.23V87.1818H1044.6C1045.23 85.0152 1046.3 83.3788 1047.8 82.2727C1049.3 81.1515 1051.03 80.5909 1052.98 80.5909C1053.47 80.5909 1053.99 80.6212 1054.55 80.6818C1055.11 80.7424 1055.6 80.8258 1056.03 80.9318V89.5227C1055.57 89.3864 1054.94 89.2652 1054.14 89.1591C1053.34 89.053 1052.6 89 1051.94 89C1050.51 89 1049.24 89.3106 1048.12 89.9318C1047.01 90.5379 1046.13 91.3864 1045.48 92.4773C1044.85 93.5682 1044.53 94.8258 1044.53 96.25V116H1034.85ZM1075.18 116.682C1071.65 116.682 1068.6 115.932 1066.02 114.432C1063.46 112.917 1061.48 110.811 1060.09 108.114C1058.7 105.402 1058 102.258 1058 98.6818C1058 95.0758 1058.7 91.9242 1060.09 89.2273C1061.48 86.5152 1063.46 84.4091 1066.02 82.9091C1068.6 81.3939 1071.65 80.6364 1075.18 80.6364C1078.71 80.6364 1081.76 81.3939 1084.32 82.9091C1086.89 84.4091 1088.88 86.5152 1090.27 89.2273C1091.67 91.9242 1092.36 95.0758 1092.36 98.6818C1092.36 102.258 1091.67 105.402 1090.27 108.114C1088.88 110.811 1086.89 112.917 1084.32 114.432C1081.76 115.932 1078.71 116.682 1075.18 116.682ZM1075.23 109.182C1076.83 109.182 1078.17 108.727 1079.25 107.818C1080.32 106.894 1081.13 105.636 1081.68 104.045C1082.24 102.455 1082.52 100.644 1082.52 98.6136C1082.52 96.5833 1082.24 94.7727 1081.68 93.1818C1081.13 91.5909 1080.32 90.3333 1079.25 89.4091C1078.17 88.4848 1076.83 88.0227 1075.23 88.0227C1073.6 88.0227 1072.24 88.4848 1071.13 89.4091C1070.04 90.3333 1069.22 91.5909 1068.66 93.1818C1068.11 94.7727 1067.84 96.5833 1067.84 98.6136C1067.84 100.644 1068.11 102.455 1068.66 104.045C1069.22 105.636 1070.04 106.894 1071.13 107.818C1072.24 108.727 1073.6 109.182 1075.23 109.182ZM1098.84 116V69.4545H1108.52V86.9545H1108.82C1109.24 86.0152 1109.85 85.0606 1110.66 84.0909C1111.48 83.1061 1112.54 82.2879 1113.84 81.6364C1115.16 80.9697 1116.79 80.6364 1118.75 80.6364C1121.29 80.6364 1123.64 81.303 1125.79 82.6364C1127.95 83.9545 1129.67 85.947 1130.95 88.6136C1132.24 91.2652 1132.88 94.5909 1132.88 98.5909C1132.88 102.485 1132.26 105.773 1131 108.455C1129.76 111.121 1128.06 113.144 1125.91 114.523C1123.77 115.886 1121.38 116.568 1118.73 116.568C1116.85 116.568 1115.25 116.258 1113.93 115.636C1112.63 115.015 1111.56 114.235 1110.73 113.295C1109.89 112.341 1109.26 111.379 1108.82 110.409H1108.38V116H1098.84ZM1108.32 98.5455C1108.32 100.621 1108.6 102.432 1109.18 103.977C1109.76 105.523 1110.59 106.727 1111.68 107.591C1112.77 108.439 1114.1 108.864 1115.66 108.864C1117.23 108.864 1118.57 108.432 1119.66 107.568C1120.75 106.689 1121.57 105.477 1122.13 103.932C1122.71 102.371 1123 100.576 1123 98.5455C1123 96.5303 1122.72 94.7576 1122.16 93.2273C1121.6 91.697 1120.77 90.5 1119.68 89.6364C1118.59 88.7727 1117.25 88.3409 1115.66 88.3409C1114.08 88.3409 1112.75 88.7576 1111.66 89.5909C1110.58 90.4242 1109.76 91.6061 1109.18 93.1364C1108.6 94.6667 1108.32 96.4697 1108.32 98.5455ZM1149.03 69.4545V116H1139.35V69.4545H1149.03ZM1172.69 116.682C1169.1 116.682 1166.01 115.955 1163.42 114.5C1160.84 113.03 1158.86 110.955 1157.46 108.273C1156.07 105.576 1155.37 102.386 1155.37 98.7045C1155.37 95.1136 1156.07 91.9621 1157.46 89.25C1158.86 86.5379 1160.82 84.4242 1163.35 82.9091C1165.9 81.3939 1168.88 80.6364 1172.31 80.6364C1174.61 80.6364 1176.75 81.0076 1178.74 81.75C1180.74 82.4773 1182.48 83.5758 1183.96 85.0455C1185.46 86.5152 1186.63 88.3636 1187.46 90.5909C1188.3 92.803 1188.71 95.3939 1188.71 98.3636V101.023H1159.24V95.0227H1179.6C1179.6 93.6288 1179.3 92.3939 1178.69 91.3182C1178.09 90.2424 1177.24 89.4015 1176.17 88.7955C1175.11 88.1742 1173.87 87.8636 1172.46 87.8636C1170.99 87.8636 1169.69 88.2045 1168.56 88.8864C1167.43 89.553 1166.56 90.4545 1165.92 91.5909C1165.28 92.7121 1164.96 93.9621 1164.94 95.3409V101.045C1164.94 102.773 1165.26 104.265 1165.9 105.523C1166.55 106.78 1167.46 107.75 1168.65 108.432C1169.83 109.114 1171.23 109.455 1172.85 109.455C1173.93 109.455 1174.91 109.303 1175.81 109C1176.7 108.697 1177.46 108.242 1178.1 107.636C1178.74 107.03 1179.22 106.288 1179.56 105.409L1188.51 106C1188.06 108.152 1187.12 110.03 1185.71 111.636C1184.32 113.227 1182.52 114.47 1180.31 115.364C1178.11 116.242 1175.57 116.682 1172.69 116.682ZM1195.03 116V81.0909H1204.26V87.25H1204.67C1205.4 85.2045 1206.61 83.5909 1208.31 82.4091C1210 81.2273 1212.03 80.6364 1214.4 80.6364C1216.79 80.6364 1218.83 81.2348 1220.51 82.4318C1222.19 83.6136 1223.31 85.2197 1223.87 87.25H1224.24C1224.95 85.25 1226.24 83.6515 1228.1 82.4545C1229.98 81.2424 1232.2 80.6364 1234.76 80.6364C1238.02 80.6364 1240.66 81.6742 1242.69 83.75C1244.74 85.8106 1245.76 88.7348 1245.76 92.5227V116H1236.1V94.4318C1236.1 92.4924 1235.59 91.0379 1234.56 90.0682C1233.53 89.0985 1232.24 88.6136 1230.69 88.6136C1228.93 88.6136 1227.56 89.1742 1226.58 90.2955C1225.59 91.4015 1225.1 92.8636 1225.1 94.6818V116H1215.71V94.2273C1215.71 92.5152 1215.22 91.1515 1214.24 90.1364C1213.27 89.1212 1211.99 88.6136 1210.4 88.6136C1209.32 88.6136 1208.35 88.8864 1207.49 89.4318C1206.64 89.9621 1205.96 90.7121 1205.46 91.6818C1204.96 92.6364 1204.71 93.7576 1204.71 95.0455V116H1195.03Z" fill="black"/>
<path id="Here state which problem we study : reachability of final states" d="M77.0496 332V308.727H79.8678V319.091H92.2769V308.727H95.0951V332H92.2769V321.591H79.8678V332H77.0496ZM107.692 332.364C106.01 332.364 104.559 331.992 103.339 331.25C102.127 330.5 101.192 329.455 100.533 328.114C99.8811 326.765 99.5553 325.197 99.5553 323.409C99.5553 321.621 99.8811 320.045 100.533 318.682C101.192 317.311 102.108 316.242 103.283 315.477C104.464 314.705 105.843 314.318 107.419 314.318C108.328 314.318 109.226 314.47 110.112 314.773C110.998 315.076 111.805 315.568 112.533 316.25C113.26 316.924 113.839 317.818 114.271 318.932C114.703 320.045 114.919 321.417 114.919 323.045V324.182H101.464V321.864H112.192C112.192 320.879 111.995 320 111.601 319.227C111.214 318.455 110.661 317.845 109.942 317.398C109.23 316.951 108.389 316.727 107.419 316.727C106.351 316.727 105.427 316.992 104.646 317.523C103.873 318.045 103.279 318.727 102.862 319.568C102.445 320.409 102.237 321.311 102.237 322.273V323.818C102.237 325.136 102.464 326.254 102.919 327.17C103.381 328.08 104.021 328.773 104.839 329.25C105.658 329.72 106.608 329.955 107.692 329.955C108.396 329.955 109.033 329.856 109.601 329.659C110.177 329.455 110.673 329.152 111.089 328.75C111.506 328.341 111.828 327.833 112.055 327.227L114.646 327.955C114.373 328.833 113.915 329.606 113.271 330.273C112.627 330.932 111.832 331.447 110.885 331.818C109.938 332.182 108.873 332.364 107.692 332.364ZM118.998 332V314.545H121.589V317.182H121.771C122.089 316.318 122.665 315.617 123.498 315.08C124.332 314.542 125.271 314.273 126.317 314.273C126.514 314.273 126.76 314.277 127.055 314.284C127.351 314.292 127.574 314.303 127.726 314.318V317.045C127.635 317.023 127.427 316.989 127.101 316.943C126.783 316.89 126.445 316.864 126.089 316.864C125.241 316.864 124.483 317.042 123.817 317.398C123.158 317.746 122.635 318.231 122.248 318.852C121.87 319.466 121.68 320.167 121.68 320.955V332H118.998ZM137.692 332.364C136.01 332.364 134.559 331.992 133.339 331.25C132.127 330.5 131.192 329.455 130.533 328.114C129.881 326.765 129.555 325.197 129.555 323.409C129.555 321.621 129.881 320.045 130.533 318.682C131.192 317.311 132.108 316.242 133.283 315.477C134.464 314.705 135.843 314.318 137.419 314.318C138.328 314.318 139.226 314.47 140.112 314.773C140.998 315.076 141.805 315.568 142.533 316.25C143.26 316.924 143.839 317.818 144.271 318.932C144.703 320.045 144.919 321.417 144.919 323.045V324.182H131.464V321.864H142.192C142.192 320.879 141.995 320 141.601 319.227C141.214 318.455 140.661 317.845 139.942 317.398C139.23 316.951 138.389 316.727 137.419 316.727C136.351 316.727 135.427 316.992 134.646 317.523C133.873 318.045 133.279 318.727 132.862 319.568C132.445 320.409 132.237 321.311 132.237 322.273V323.818C132.237 325.136 132.464 326.254 132.919 327.17C133.381 328.08 134.021 328.773 134.839 329.25C135.658 329.72 136.608 329.955 137.692 329.955C138.396 329.955 139.033 329.856 139.601 329.659C140.177 329.455 140.673 329.152 141.089 328.75C141.506 328.341 141.828 327.833 142.055 327.227L144.646 327.955C144.373 328.833 143.915 329.606 143.271 330.273C142.627 330.932 141.832 331.447 140.885 331.818C139.938 332.182 138.873 332.364 137.692 332.364ZM170.362 318.455L167.953 319.136C167.802 318.735 167.578 318.345 167.283 317.966C166.995 317.58 166.601 317.261 166.101 317.011C165.601 316.761 164.961 316.636 164.18 316.636C163.112 316.636 162.222 316.883 161.51 317.375C160.805 317.86 160.453 318.477 160.453 319.227C160.453 319.894 160.695 320.42 161.18 320.807C161.665 321.193 162.423 321.515 163.453 321.773L166.044 322.409C167.605 322.788 168.767 323.367 169.533 324.148C170.298 324.92 170.68 325.917 170.68 327.136C170.68 328.136 170.392 329.03 169.817 329.818C169.248 330.606 168.453 331.227 167.43 331.682C166.408 332.136 165.218 332.364 163.862 332.364C162.082 332.364 160.608 331.977 159.442 331.205C158.275 330.432 157.536 329.303 157.226 327.818L159.771 327.182C160.014 328.121 160.472 328.826 161.146 329.295C161.828 329.765 162.718 330 163.817 330C165.067 330 166.059 329.735 166.794 329.205C167.536 328.667 167.908 328.023 167.908 327.273C167.908 326.667 167.695 326.159 167.271 325.75C166.847 325.333 166.195 325.023 165.317 324.818L162.408 324.136C160.809 323.758 159.635 323.17 158.885 322.375C158.142 321.572 157.771 320.568 157.771 319.364C157.771 318.379 158.048 317.508 158.601 316.75C159.161 315.992 159.923 315.398 160.885 314.966C161.855 314.534 162.953 314.318 164.18 314.318C165.908 314.318 167.264 314.697 168.248 315.455C169.241 316.212 169.945 317.212 170.362 318.455ZM182.308 314.545V316.818H173.263V314.545H182.308ZM175.899 310.364H178.581V327C178.581 327.758 178.691 328.326 178.91 328.705C179.138 329.076 179.426 329.326 179.774 329.455C180.13 329.576 180.505 329.636 180.899 329.636C181.195 329.636 181.437 329.621 181.626 329.591C181.816 329.553 181.967 329.523 182.081 329.5L182.626 331.909C182.445 331.977 182.191 332.045 181.865 332.114C181.539 332.189 181.126 332.227 180.626 332.227C179.869 332.227 179.126 332.064 178.399 331.739C177.679 331.413 177.081 330.917 176.604 330.25C176.134 329.583 175.899 328.742 175.899 327.727V310.364ZM191.479 332.409C190.373 332.409 189.369 332.201 188.467 331.784C187.566 331.36 186.85 330.75 186.32 329.955C185.789 329.152 185.524 328.182 185.524 327.045C185.524 326.045 185.721 325.235 186.115 324.614C186.509 323.985 187.035 323.492 187.695 323.136C188.354 322.78 189.081 322.515 189.876 322.341C190.679 322.159 191.486 322.015 192.297 321.909C193.357 321.773 194.217 321.67 194.876 321.602C195.543 321.527 196.028 321.402 196.331 321.227C196.641 321.053 196.797 320.75 196.797 320.318V320.227C196.797 319.106 196.49 318.235 195.876 317.614C195.27 316.992 194.35 316.682 193.115 316.682C191.835 316.682 190.831 316.962 190.104 317.523C189.376 318.083 188.865 318.682 188.57 319.318L186.024 318.409C186.479 317.348 187.085 316.523 187.842 315.932C188.607 315.333 189.441 314.917 190.342 314.682C191.251 314.439 192.145 314.318 193.024 314.318C193.585 314.318 194.229 314.386 194.956 314.523C195.691 314.652 196.399 314.92 197.081 315.33C197.77 315.739 198.342 316.356 198.797 317.182C199.251 318.008 199.479 319.114 199.479 320.5V332H196.797V329.636H196.66C196.479 330.015 196.176 330.42 195.751 330.852C195.327 331.284 194.763 331.652 194.058 331.955C193.354 332.258 192.494 332.409 191.479 332.409ZM191.888 330C192.948 330 193.842 329.792 194.57 329.375C195.304 328.958 195.857 328.42 196.229 327.761C196.607 327.102 196.797 326.409 196.797 325.682V323.227C196.683 323.364 196.433 323.489 196.047 323.602C195.668 323.708 195.229 323.803 194.729 323.886C194.236 323.962 193.755 324.03 193.285 324.091C192.823 324.144 192.448 324.189 192.16 324.227C191.463 324.318 190.812 324.466 190.206 324.67C189.607 324.867 189.123 325.167 188.751 325.568C188.388 325.962 188.206 326.5 188.206 327.182C188.206 328.114 188.551 328.818 189.24 329.295C189.937 329.765 190.82 330 191.888 330ZM211.964 314.545V316.818H202.919V314.545H211.964ZM205.555 310.364H208.237V327C208.237 327.758 208.347 328.326 208.567 328.705C208.794 329.076 209.082 329.326 209.43 329.455C209.786 329.576 210.161 329.636 210.555 329.636C210.851 329.636 211.093 329.621 211.283 329.591C211.472 329.553 211.623 329.523 211.737 329.5L212.283 331.909C212.101 331.977 211.847 332.045 211.521 332.114C211.195 332.189 210.783 332.227 210.283 332.227C209.525 332.227 208.783 332.064 208.055 331.739C207.336 331.413 206.737 330.917 206.26 330.25C205.79 329.583 205.555 328.742 205.555 327.727V310.364ZM223.129 332.364C221.447 332.364 219.997 331.992 218.777 331.25C217.565 330.5 216.629 329.455 215.97 328.114C215.319 326.765 214.993 325.197 214.993 323.409C214.993 321.621 215.319 320.045 215.97 318.682C216.629 317.311 217.546 316.242 218.72 315.477C219.902 314.705 221.281 314.318 222.856 314.318C223.766 314.318 224.663 314.47 225.55 314.773C226.436 315.076 227.243 315.568 227.97 316.25C228.697 316.924 229.277 317.818 229.709 318.932C230.141 320.045 230.356 321.417 230.356 323.045V324.182H216.902V321.864H227.629C227.629 320.879 227.432 320 227.038 319.227C226.652 318.455 226.099 317.845 225.379 317.398C224.667 316.951 223.826 316.727 222.856 316.727C221.788 316.727 220.864 316.992 220.084 317.523C219.311 318.045 218.716 318.727 218.3 319.568C217.883 320.409 217.675 321.311 217.675 322.273V323.818C217.675 325.136 217.902 326.254 218.356 327.17C218.819 328.08 219.459 328.773 220.277 329.25C221.095 329.72 222.046 329.955 223.129 329.955C223.834 329.955 224.47 329.856 225.038 329.659C225.614 329.455 226.11 329.152 226.527 328.75C226.944 328.341 227.266 327.833 227.493 327.227L230.084 327.955C229.811 328.833 229.353 329.606 228.709 330.273C228.065 330.932 227.269 331.447 226.322 331.818C225.375 332.182 224.311 332.364 223.129 332.364ZM247.391 332L242.072 314.545H244.891L248.663 327.909H248.845L252.572 314.545H255.436L259.118 327.864H259.3L263.072 314.545H265.891L260.572 332H257.936L254.118 318.591H253.845L250.027 332H247.391ZM272.118 321.5V332H269.436V308.727H272.118V317.273H272.345C272.754 316.371 273.368 315.655 274.186 315.125C275.012 314.587 276.11 314.318 277.481 314.318C278.671 314.318 279.713 314.557 280.606 315.034C281.5 315.504 282.194 316.227 282.686 317.205C283.186 318.174 283.436 319.409 283.436 320.909V332H280.754V321.091C280.754 319.705 280.394 318.633 279.675 317.875C278.963 317.11 277.974 316.727 276.709 316.727C275.83 316.727 275.042 316.913 274.345 317.284C273.656 317.655 273.11 318.197 272.709 318.909C272.315 319.621 272.118 320.485 272.118 321.5ZM288.342 332V314.545H291.024V332H288.342ZM289.706 311.636C289.183 311.636 288.732 311.458 288.354 311.102C287.982 310.746 287.797 310.318 287.797 309.818C287.797 309.318 287.982 308.89 288.354 308.534C288.732 308.178 289.183 308 289.706 308C290.229 308 290.676 308.178 291.047 308.534C291.426 308.89 291.615 309.318 291.615 309.818C291.615 310.318 291.426 310.746 291.047 311.102C290.676 311.458 290.229 311.636 289.706 311.636ZM303.027 332.364C301.391 332.364 299.981 331.977 298.8 331.205C297.618 330.432 296.709 329.367 296.072 328.011C295.436 326.655 295.118 325.106 295.118 323.364C295.118 321.591 295.444 320.027 296.095 318.67C296.754 317.307 297.671 316.242 298.845 315.477C300.027 314.705 301.406 314.318 302.981 314.318C304.209 314.318 305.315 314.545 306.3 315C307.284 315.455 308.091 316.091 308.72 316.909C309.349 317.727 309.739 318.682 309.891 319.773H307.209C307.004 318.977 306.55 318.273 305.845 317.659C305.148 317.038 304.209 316.727 303.027 316.727C301.981 316.727 301.065 317 300.277 317.545C299.497 318.083 298.887 318.845 298.447 319.83C298.016 320.807 297.8 321.955 297.8 323.273C297.8 324.621 298.012 325.795 298.436 326.795C298.868 327.795 299.474 328.572 300.254 329.125C301.042 329.678 301.966 329.955 303.027 329.955C303.724 329.955 304.356 329.833 304.925 329.591C305.493 329.348 305.974 329 306.368 328.545C306.762 328.091 307.042 327.545 307.209 326.909H309.891C309.739 327.939 309.364 328.867 308.766 329.693C308.175 330.511 307.391 331.163 306.413 331.648C305.444 332.125 304.315 332.364 303.027 332.364ZM316.493 321.5V332H313.811V308.727H316.493V317.273H316.72C317.129 316.371 317.743 315.655 318.561 315.125C319.387 314.587 320.485 314.318 321.856 314.318C323.046 314.318 324.088 314.557 324.981 315.034C325.875 315.504 326.569 316.227 327.061 317.205C327.561 318.174 327.811 319.409 327.811 320.909V332H325.129V321.091C325.129 319.705 324.769 318.633 324.05 317.875C323.338 317.11 322.349 316.727 321.084 316.727C320.205 316.727 319.417 316.913 318.72 317.284C318.031 317.655 317.485 318.197 317.084 318.909C316.69 319.621 316.493 320.485 316.493 321.5ZM341.717 338.545V314.545H344.308V317.318H344.626C344.823 317.015 345.096 316.629 345.445 316.159C345.801 315.682 346.308 315.258 346.967 314.886C347.634 314.508 348.535 314.318 349.672 314.318C351.141 314.318 352.437 314.686 353.558 315.42C354.679 316.155 355.554 317.197 356.183 318.545C356.812 319.894 357.126 321.485 357.126 323.318C357.126 325.167 356.812 326.769 356.183 328.125C355.554 329.473 354.683 330.519 353.57 331.261C352.456 331.996 351.172 332.364 349.717 332.364C348.596 332.364 347.698 332.178 347.024 331.807C346.35 331.428 345.831 331 345.467 330.523C345.104 330.038 344.823 329.636 344.626 329.318H344.399V338.545H341.717ZM344.354 323.273C344.354 324.591 344.547 325.754 344.933 326.761C345.32 327.761 345.884 328.545 346.626 329.114C347.369 329.674 348.278 329.955 349.354 329.955C350.475 329.955 351.41 329.659 352.16 329.068C352.918 328.47 353.486 327.667 353.865 326.659C354.251 325.644 354.445 324.515 354.445 323.273C354.445 322.045 354.255 320.939 353.876 319.955C353.505 318.962 352.941 318.178 352.183 317.602C351.433 317.019 350.49 316.727 349.354 316.727C348.263 316.727 347.346 317.004 346.604 317.557C345.861 318.102 345.301 318.867 344.922 319.852C344.543 320.83 344.354 321.97 344.354 323.273ZM361.217 332V314.545H363.808V317.182H363.99C364.308 316.318 364.884 315.617 365.717 315.08C366.551 314.542 367.49 314.273 368.535 314.273C368.732 314.273 368.979 314.277 369.274 314.284C369.57 314.292 369.793 314.303 369.945 314.318V317.045C369.854 317.023 369.645 316.989 369.32 316.943C369.001 316.89 368.664 316.864 368.308 316.864C367.46 316.864 366.702 317.042 366.035 317.398C365.376 317.746 364.854 318.231 364.467 318.852C364.088 319.466 363.899 320.167 363.899 320.955V332H361.217ZM379.683 332.364C378.107 332.364 376.725 331.989 375.535 331.239C374.354 330.489 373.429 329.439 372.763 328.091C372.104 326.742 371.774 325.167 371.774 323.364C371.774 321.545 372.104 319.958 372.763 318.602C373.429 317.246 374.354 316.193 375.535 315.443C376.725 314.693 378.107 314.318 379.683 314.318C381.259 314.318 382.638 314.693 383.82 315.443C385.009 316.193 385.933 317.246 386.592 318.602C387.259 319.958 387.592 321.545 387.592 323.364C387.592 325.167 387.259 326.742 386.592 328.091C385.933 329.439 385.009 330.489 383.82 331.239C382.638 331.989 381.259 332.364 379.683 332.364ZM379.683 329.955C380.88 329.955 381.865 329.648 382.638 329.034C383.41 328.42 383.982 327.614 384.354 326.614C384.725 325.614 384.91 324.53 384.91 323.364C384.91 322.197 384.725 321.11 384.354 320.102C383.982 319.095 383.41 318.28 382.638 317.659C381.865 317.038 380.88 316.727 379.683 316.727C378.486 316.727 377.501 317.038 376.729 317.659C375.956 318.28 375.384 319.095 375.013 320.102C374.641 321.11 374.456 322.197 374.456 323.364C374.456 324.53 374.641 325.614 375.013 326.614C375.384 327.614 375.956 328.42 376.729 329.034C377.501 329.648 378.486 329.955 379.683 329.955ZM392.05 332V308.727H394.731V317.318H394.959C395.156 317.015 395.428 316.629 395.777 316.159C396.133 315.682 396.641 315.258 397.3 314.886C397.966 314.508 398.868 314.318 400.004 314.318C401.474 314.318 402.769 314.686 403.891 315.42C405.012 316.155 405.887 317.197 406.516 318.545C407.144 319.894 407.459 321.485 407.459 323.318C407.459 325.167 407.144 326.769 406.516 328.125C405.887 329.473 405.016 330.519 403.902 331.261C402.788 331.996 401.504 332.364 400.05 332.364C398.928 332.364 398.031 332.178 397.356 331.807C396.682 331.428 396.163 331 395.8 330.523C395.436 330.038 395.156 329.636 394.959 329.318H394.641V332H392.05ZM394.686 323.273C394.686 324.591 394.879 325.754 395.266 326.761C395.652 327.761 396.216 328.545 396.959 329.114C397.701 329.674 398.61 329.955 399.686 329.955C400.807 329.955 401.743 329.659 402.493 329.068C403.25 328.47 403.819 327.667 404.197 326.659C404.584 325.644 404.777 324.515 404.777 323.273C404.777 322.045 404.588 320.939 404.209 319.955C403.838 318.962 403.273 318.178 402.516 317.602C401.766 317.019 400.822 316.727 399.686 316.727C398.595 316.727 397.678 317.004 396.936 317.557C396.194 318.102 395.633 318.867 395.254 319.852C394.875 320.83 394.686 321.97 394.686 323.273ZM414.243 308.727V332H411.561V308.727H414.243ZM426.473 332.364C424.791 332.364 423.34 331.992 422.121 331.25C420.909 330.5 419.973 329.455 419.314 328.114C418.662 326.765 418.337 325.197 418.337 323.409C418.337 321.621 418.662 320.045 419.314 318.682C419.973 317.311 420.89 316.242 422.064 315.477C423.246 314.705 424.624 314.318 426.2 314.318C427.109 314.318 428.007 314.47 428.893 314.773C429.78 315.076 430.587 315.568 431.314 316.25C432.041 316.924 432.621 317.818 433.052 318.932C433.484 320.045 433.7 321.417 433.7 323.045V324.182H420.246V321.864H430.973C430.973 320.879 430.776 320 430.382 319.227C429.996 318.455 429.443 317.845 428.723 317.398C428.011 316.951 427.17 316.727 426.2 316.727C425.132 316.727 424.208 316.992 423.427 317.523C422.655 318.045 422.06 318.727 421.643 319.568C421.227 320.409 421.018 321.311 421.018 322.273V323.818C421.018 325.136 421.246 326.254 421.7 327.17C422.162 328.08 422.802 328.773 423.621 329.25C424.439 329.72 425.39 329.955 426.473 329.955C427.177 329.955 427.814 329.856 428.382 329.659C428.958 329.455 429.454 329.152 429.871 328.75C430.287 328.341 430.609 327.833 430.837 327.227L433.427 327.955C433.155 328.833 432.696 329.606 432.052 330.273C431.409 330.932 430.613 331.447 429.666 331.818C428.719 332.182 427.655 332.364 426.473 332.364ZM437.78 332V314.545H440.371V317.273H440.598C440.962 316.341 441.549 315.617 442.359 315.102C443.17 314.58 444.143 314.318 445.28 314.318C446.431 314.318 447.39 314.58 448.155 315.102C448.927 315.617 449.53 316.341 449.962 317.273H450.143C450.59 316.371 451.261 315.655 452.155 315.125C453.049 314.587 454.121 314.318 455.371 314.318C456.931 314.318 458.208 314.807 459.2 315.784C460.193 316.754 460.689 318.265 460.689 320.318V332H458.007V320.318C458.007 319.03 457.655 318.11 456.95 317.557C456.246 317.004 455.416 316.727 454.462 316.727C453.234 316.727 452.284 317.098 451.609 317.841C450.935 318.576 450.598 319.508 450.598 320.636V332H447.871V320.045C447.871 319.053 447.549 318.254 446.905 317.648C446.261 317.034 445.431 316.727 444.416 316.727C443.719 316.727 443.068 316.913 442.462 317.284C441.863 317.655 441.378 318.17 441.007 318.83C440.643 319.481 440.462 320.235 440.462 321.091V332H437.78ZM478.547 332L473.229 314.545H476.047L479.82 327.909H480.001L483.729 314.545H486.592L490.274 327.864H490.456L494.229 314.545H497.047L491.729 332H489.092L485.274 318.591H485.001L481.183 332H478.547ZM507.317 332.364C505.635 332.364 504.184 331.992 502.964 331.25C501.752 330.5 500.817 329.455 500.158 328.114C499.506 326.765 499.18 325.197 499.18 323.409C499.18 321.621 499.506 320.045 500.158 318.682C500.817 317.311 501.733 316.242 502.908 315.477C504.089 314.705 505.468 314.318 507.044 314.318C507.953 314.318 508.851 314.47 509.737 314.773C510.623 315.076 511.43 315.568 512.158 316.25C512.885 316.924 513.464 317.818 513.896 318.932C514.328 320.045 514.544 321.417 514.544 323.045V324.182H501.089V321.864H511.817C511.817 320.879 511.62 320 511.226 319.227C510.839 318.455 510.286 317.845 509.567 317.398C508.855 316.951 508.014 316.727 507.044 316.727C505.976 316.727 505.052 316.992 504.271 317.523C503.498 318.045 502.904 318.727 502.487 319.568C502.07 320.409 501.862 321.311 501.862 322.273V323.818C501.862 325.136 502.089 326.254 502.544 327.17C503.006 328.08 503.646 328.773 504.464 329.25C505.283 329.72 506.233 329.955 507.317 329.955C508.021 329.955 508.658 329.856 509.226 329.659C509.802 329.455 510.298 329.152 510.714 328.75C511.131 328.341 511.453 327.833 511.68 327.227L514.271 327.955C513.998 328.833 513.54 329.606 512.896 330.273C512.252 330.932 511.457 331.447 510.51 331.818C509.563 332.182 508.498 332.364 507.317 332.364ZM539.987 318.455L537.578 319.136C537.427 318.735 537.203 318.345 536.908 317.966C536.62 317.58 536.226 317.261 535.726 317.011C535.226 316.761 534.586 316.636 533.805 316.636C532.737 316.636 531.847 316.883 531.135 317.375C530.43 317.86 530.078 318.477 530.078 319.227C530.078 319.894 530.32 320.42 530.805 320.807C531.29 321.193 532.048 321.515 533.078 321.773L535.669 322.409C537.23 322.788 538.392 323.367 539.158 324.148C539.923 324.92 540.305 325.917 540.305 327.136C540.305 328.136 540.017 329.03 539.442 329.818C538.873 330.606 538.078 331.227 537.055 331.682C536.033 332.136 534.843 332.364 533.487 332.364C531.707 332.364 530.233 331.977 529.067 331.205C527.9 330.432 527.161 329.303 526.851 327.818L529.396 327.182C529.639 328.121 530.097 328.826 530.771 329.295C531.453 329.765 532.343 330 533.442 330C534.692 330 535.684 329.735 536.419 329.205C537.161 328.667 537.533 328.023 537.533 327.273C537.533 326.667 537.32 326.159 536.896 325.75C536.472 325.333 535.82 325.023 534.942 324.818L532.033 324.136C530.434 323.758 529.26 323.17 528.51 322.375C527.767 321.572 527.396 320.568 527.396 319.364C527.396 318.379 527.673 317.508 528.226 316.75C528.786 315.992 529.548 315.398 530.51 314.966C531.48 314.534 532.578 314.318 533.805 314.318C535.533 314.318 536.889 314.697 537.873 315.455C538.866 316.212 539.57 317.212 539.987 318.455ZM551.933 314.545V316.818H542.888V314.545H551.933ZM545.524 310.364H548.206V327C548.206 327.758 548.316 328.326 548.535 328.705C548.763 329.076 549.051 329.326 549.399 329.455C549.755 329.576 550.13 329.636 550.524 329.636C550.82 329.636 551.062 329.621 551.251 329.591C551.441 329.553 551.592 329.523 551.706 329.5L552.251 331.909C552.07 331.977 551.816 332.045 551.49 332.114C551.164 332.189 550.751 332.227 550.251 332.227C549.494 332.227 548.751 332.064 548.024 331.739C547.304 331.413 546.706 330.917 546.229 330.25C545.759 329.583 545.524 328.742 545.524 327.727V310.364ZM566.967 324.864V314.545H569.649V332H566.967V329.045H566.785C566.376 329.932 565.74 330.686 564.876 331.307C564.013 331.92 562.922 332.227 561.604 332.227C560.513 332.227 559.543 331.989 558.695 331.511C557.846 331.027 557.179 330.299 556.695 329.33C556.21 328.352 555.967 327.121 555.967 325.636V314.545H558.649V325.455C558.649 326.727 559.005 327.742 559.717 328.5C560.437 329.258 561.354 329.636 562.467 329.636C563.134 329.636 563.812 329.466 564.501 329.125C565.198 328.784 565.782 328.261 566.251 327.557C566.729 326.852 566.967 325.955 566.967 324.864ZM581.152 332.364C579.697 332.364 578.413 331.996 577.3 331.261C576.186 330.519 575.315 329.473 574.686 328.125C574.057 326.769 573.743 325.167 573.743 323.318C573.743 321.485 574.057 319.894 574.686 318.545C575.315 317.197 576.19 316.155 577.311 315.42C578.432 314.686 579.728 314.318 581.197 314.318C582.334 314.318 583.231 314.508 583.891 314.886C584.557 315.258 585.065 315.682 585.413 316.159C585.769 316.629 586.046 317.015 586.243 317.318H586.47V308.727H589.152V332H586.561V329.318H586.243C586.046 329.636 585.766 330.038 585.402 330.523C585.038 331 584.519 331.428 583.845 331.807C583.171 332.178 582.273 332.364 581.152 332.364ZM581.516 329.955C582.591 329.955 583.5 329.674 584.243 329.114C584.985 328.545 585.55 327.761 585.936 326.761C586.322 325.754 586.516 324.591 586.516 323.273C586.516 321.97 586.326 320.83 585.947 319.852C585.569 318.867 585.008 318.102 584.266 317.557C583.523 317.004 582.606 316.727 581.516 316.727C580.379 316.727 579.432 317.019 578.675 317.602C577.925 318.178 577.36 318.962 576.981 319.955C576.61 320.939 576.425 322.045 576.425 323.273C576.425 324.515 576.614 325.644 576.993 326.659C577.379 327.667 577.947 328.47 578.697 329.068C579.455 329.659 580.394 329.955 581.516 329.955ZM596.163 338.545C595.709 338.545 595.303 338.508 594.947 338.432C594.591 338.364 594.345 338.295 594.209 338.227L594.891 335.864C595.542 336.03 596.118 336.091 596.618 336.045C597.118 336 597.561 335.777 597.947 335.375C598.341 334.981 598.701 334.341 599.027 333.455L599.527 332.091L593.072 314.545H595.981L600.8 328.455H600.981L605.8 314.545H608.709L601.3 334.545C600.966 335.447 600.553 336.193 600.061 336.784C599.569 337.383 598.997 337.826 598.345 338.114C597.701 338.402 596.974 338.545 596.163 338.545ZM623.203 332.182C622.642 332.182 622.161 331.981 621.76 331.58C621.358 331.178 621.158 330.697 621.158 330.136C621.158 329.576 621.358 329.095 621.76 328.693C622.161 328.292 622.642 328.091 623.203 328.091C623.764 328.091 624.245 328.292 624.646 328.693C625.048 329.095 625.248 329.576 625.248 330.136C625.248 330.508 625.154 330.848 624.964 331.159C624.783 331.47 624.536 331.72 624.226 331.909C623.923 332.091 623.582 332.182 623.203 332.182ZM623.203 319.227C622.642 319.227 622.161 319.027 621.76 318.625C621.358 318.223 621.158 317.742 621.158 317.182C621.158 316.621 621.358 316.14 621.76 315.739C622.161 315.337 622.642 315.136 623.203 315.136C623.764 315.136 624.245 315.337 624.646 315.739C625.048 316.14 625.248 316.621 625.248 317.182C625.248 317.553 625.154 317.894 624.964 318.205C624.783 318.515 624.536 318.765 624.226 318.955C623.923 319.136 623.582 319.227 623.203 319.227ZM639.061 332V314.545H641.652V317.182H641.834C642.152 316.318 642.728 315.617 643.561 315.08C644.394 314.542 645.334 314.273 646.379 314.273C646.576 314.273 646.822 314.277 647.118 314.284C647.413 314.292 647.637 314.303 647.788 314.318V317.045C647.697 317.023 647.489 316.989 647.163 316.943C646.845 316.89 646.508 316.864 646.152 316.864C645.303 316.864 644.546 317.042 643.879 317.398C643.22 317.746 642.697 318.231 642.311 318.852C641.932 319.466 641.743 320.167 641.743 320.955V332H639.061ZM657.754 332.364C656.072 332.364 654.622 331.992 653.402 331.25C652.19 330.5 651.254 329.455 650.595 328.114C649.944 326.765 649.618 325.197 649.618 323.409C649.618 321.621 649.944 320.045 650.595 318.682C651.254 317.311 652.171 316.242 653.345 315.477C654.527 314.705 655.906 314.318 657.481 314.318C658.391 314.318 659.288 314.47 660.175 314.773C661.061 315.076 661.868 315.568 662.595 316.25C663.322 316.924 663.902 317.818 664.334 318.932C664.766 320.045 664.981 321.417 664.981 323.045V324.182H651.527V321.864H662.254C662.254 320.879 662.057 320 661.663 319.227C661.277 318.455 660.724 317.845 660.004 317.398C659.292 316.951 658.451 316.727 657.481 316.727C656.413 316.727 655.489 316.992 654.709 317.523C653.936 318.045 653.341 318.727 652.925 319.568C652.508 320.409 652.3 321.311 652.3 322.273V323.818C652.3 325.136 652.527 326.254 652.981 327.17C653.444 328.08 654.084 328.773 654.902 329.25C655.72 329.72 656.671 329.955 657.754 329.955C658.459 329.955 659.095 329.856 659.663 329.659C660.239 329.455 660.735 329.152 661.152 328.75C661.569 328.341 661.891 327.833 662.118 327.227L664.709 327.955C664.436 328.833 663.978 329.606 663.334 330.273C662.69 330.932 661.894 331.447 660.947 331.818C660 332.182 658.936 332.364 657.754 332.364ZM674.197 332.409C673.091 332.409 672.088 332.201 671.186 331.784C670.284 331.36 669.569 330.75 669.038 329.955C668.508 329.152 668.243 328.182 668.243 327.045C668.243 326.045 668.44 325.235 668.834 324.614C669.228 323.985 669.754 323.492 670.413 323.136C671.072 322.78 671.8 322.515 672.595 322.341C673.398 322.159 674.205 322.015 675.016 321.909C676.076 321.773 676.936 321.67 677.595 321.602C678.262 321.527 678.747 321.402 679.05 321.227C679.36 321.053 679.516 320.75 679.516 320.318V320.227C679.516 319.106 679.209 318.235 678.595 317.614C677.989 316.992 677.069 316.682 675.834 316.682C674.553 316.682 673.55 316.962 672.822 317.523C672.095 318.083 671.584 318.682 671.288 319.318L668.743 318.409C669.197 317.348 669.803 316.523 670.561 315.932C671.326 315.333 672.159 314.917 673.061 314.682C673.97 314.439 674.864 314.318 675.743 314.318C676.303 314.318 676.947 314.386 677.675 314.523C678.409 314.652 679.118 314.92 679.8 315.33C680.489 315.739 681.061 316.356 681.516 317.182C681.97 318.008 682.197 319.114 682.197 320.5V332H679.516V329.636H679.379C679.197 330.015 678.894 330.42 678.47 330.852C678.046 331.284 677.481 331.652 676.777 331.955C676.072 332.258 675.213 332.409 674.197 332.409ZM674.606 330C675.667 330 676.561 329.792 677.288 329.375C678.023 328.958 678.576 328.42 678.947 327.761C679.326 327.102 679.516 326.409 679.516 325.682V323.227C679.402 323.364 679.152 323.489 678.766 323.602C678.387 323.708 677.947 323.803 677.447 323.886C676.955 323.962 676.474 324.03 676.004 324.091C675.542 324.144 675.167 324.189 674.879 324.227C674.182 324.318 673.531 324.466 672.925 324.67C672.326 324.867 671.841 325.167 671.47 325.568C671.106 325.962 670.925 326.5 670.925 327.182C670.925 328.114 671.269 328.818 671.959 329.295C672.656 329.765 673.538 330 674.606 330ZM694.183 332.364C692.547 332.364 691.138 331.977 689.956 331.205C688.774 330.432 687.865 329.367 687.229 328.011C686.592 326.655 686.274 325.106 686.274 323.364C686.274 321.591 686.6 320.027 687.251 318.67C687.91 317.307 688.827 316.242 690.001 315.477C691.183 314.705 692.562 314.318 694.138 314.318C695.365 314.318 696.471 314.545 697.456 315C698.441 315.455 699.248 316.091 699.876 316.909C700.505 317.727 700.895 318.682 701.047 319.773H698.365C698.16 318.977 697.706 318.273 697.001 317.659C696.304 317.038 695.365 316.727 694.183 316.727C693.138 316.727 692.221 317 691.433 317.545C690.653 318.083 690.043 318.845 689.604 319.83C689.172 320.807 688.956 321.955 688.956 323.273C688.956 324.621 689.168 325.795 689.592 326.795C690.024 327.795 690.63 328.572 691.41 329.125C692.198 329.678 693.123 329.955 694.183 329.955C694.88 329.955 695.513 329.833 696.081 329.591C696.649 329.348 697.13 329 697.524 328.545C697.918 328.091 698.198 327.545 698.365 326.909H701.047C700.895 327.939 700.52 328.867 699.922 329.693C699.331 330.511 698.547 331.163 697.57 331.648C696.6 332.125 695.471 332.364 694.183 332.364ZM707.649 321.5V332H704.967V308.727H707.649V317.273H707.876C708.285 316.371 708.899 315.655 709.717 315.125C710.543 314.587 711.641 314.318 713.013 314.318C714.202 314.318 715.244 314.557 716.138 315.034C717.032 315.504 717.725 316.227 718.217 317.205C718.717 318.174 718.967 319.409 718.967 320.909V332H716.285V321.091C716.285 319.705 715.926 318.633 715.206 317.875C714.494 317.11 713.505 316.727 712.24 316.727C711.361 316.727 710.573 316.913 709.876 317.284C709.187 317.655 708.641 318.197 708.24 318.909C707.846 319.621 707.649 320.485 707.649 321.5ZM729.01 332.409C727.904 332.409 726.9 332.201 725.998 331.784C725.097 331.36 724.381 330.75 723.851 329.955C723.32 329.152 723.055 328.182 723.055 327.045C723.055 326.045 723.252 325.235 723.646 324.614C724.04 323.985 724.567 323.492 725.226 323.136C725.885 322.78 726.612 322.515 727.408 322.341C728.211 322.159 729.017 322.015 729.828 321.909C730.889 321.773 731.748 321.67 732.408 321.602C733.074 321.527 733.559 321.402 733.862 321.227C734.173 321.053 734.328 320.75 734.328 320.318V320.227C734.328 319.106 734.021 318.235 733.408 317.614C732.802 316.992 731.881 316.682 730.646 316.682C729.366 316.682 728.362 316.962 727.635 317.523C726.908 318.083 726.396 318.682 726.101 319.318L723.555 318.409C724.01 317.348 724.616 316.523 725.373 315.932C726.139 315.333 726.972 314.917 727.873 314.682C728.783 314.439 729.677 314.318 730.555 314.318C731.116 314.318 731.76 314.386 732.487 314.523C733.222 314.652 733.93 314.92 734.612 315.33C735.302 315.739 735.873 316.356 736.328 317.182C736.783 318.008 737.01 319.114 737.01 320.5V332H734.328V329.636H734.192C734.01 330.015 733.707 330.42 733.283 330.852C732.858 331.284 732.294 331.652 731.589 331.955C730.885 332.258 730.025 332.409 729.01 332.409ZM729.419 330C730.48 330 731.373 329.792 732.101 329.375C732.836 328.958 733.389 328.42 733.76 327.761C734.139 327.102 734.328 326.409 734.328 325.682V323.227C734.214 323.364 733.964 323.489 733.578 323.602C733.199 323.708 732.76 323.803 732.26 323.886C731.767 323.962 731.286 324.03 730.817 324.091C730.355 324.144 729.98 324.189 729.692 324.227C728.995 324.318 728.343 324.466 727.737 324.67C727.139 324.867 726.654 325.167 726.283 325.568C725.919 325.962 725.737 326.5 725.737 327.182C725.737 328.114 726.082 328.818 726.771 329.295C727.468 329.765 728.351 330 729.419 330ZM742.268 332V308.727H744.95V317.318H745.177C745.374 317.015 745.647 316.629 745.996 316.159C746.352 315.682 746.859 315.258 747.518 314.886C748.185 314.508 749.087 314.318 750.223 314.318C751.693 314.318 752.988 314.686 754.109 315.42C755.23 316.155 756.105 317.197 756.734 318.545C757.363 319.894 757.677 321.485 757.677 323.318C757.677 325.167 757.363 326.769 756.734 328.125C756.105 329.473 755.234 330.519 754.121 331.261C753.007 331.996 751.723 332.364 750.268 332.364C749.147 332.364 748.249 332.178 747.575 331.807C746.901 331.428 746.382 331 746.018 330.523C745.655 330.038 745.374 329.636 745.177 329.318H744.859V332H742.268ZM744.905 323.273C744.905 324.591 745.098 325.754 745.484 326.761C745.871 327.761 746.435 328.545 747.177 329.114C747.92 329.674 748.829 329.955 749.905 329.955C751.026 329.955 751.962 329.659 752.712 329.068C753.469 328.47 754.037 327.667 754.416 326.659C754.802 325.644 754.996 324.515 754.996 323.273C754.996 322.045 754.806 320.939 754.427 319.955C754.056 318.962 753.492 318.178 752.734 317.602C751.984 317.019 751.041 316.727 749.905 316.727C748.814 316.727 747.897 317.004 747.155 317.557C746.412 318.102 745.852 318.867 745.473 319.852C745.094 320.83 744.905 321.97 744.905 323.273ZM761.78 332V314.545H764.462V332H761.78ZM763.143 311.636C762.621 311.636 762.17 311.458 761.791 311.102C761.42 310.746 761.234 310.318 761.234 309.818C761.234 309.318 761.42 308.89 761.791 308.534C762.17 308.178 762.621 308 763.143 308C763.666 308 764.113 308.178 764.484 308.534C764.863 308.89 765.052 309.318 765.052 309.818C765.052 310.318 764.863 310.746 764.484 311.102C764.113 311.458 763.666 311.636 763.143 311.636ZM772.055 308.727V332H769.373V308.727H772.055ZM776.967 332V314.545H779.649V332H776.967ZM778.331 311.636C777.808 311.636 777.357 311.458 776.979 311.102C776.607 310.746 776.422 310.318 776.422 309.818C776.422 309.318 776.607 308.89 776.979 308.534C777.357 308.178 777.808 308 778.331 308C778.854 308 779.301 308.178 779.672 308.534C780.051 308.89 780.24 309.318 780.24 309.818C780.24 310.318 780.051 310.746 779.672 311.102C779.301 311.458 778.854 311.636 778.331 311.636ZM792.152 314.545V316.818H783.106V314.545H792.152ZM785.743 310.364H788.425V327C788.425 327.758 788.534 328.326 788.754 328.705C788.981 329.076 789.269 329.326 789.618 329.455C789.974 329.576 790.349 329.636 790.743 329.636C791.038 329.636 791.281 329.621 791.47 329.591C791.659 329.553 791.811 329.523 791.925 329.5L792.47 331.909C792.288 331.977 792.034 332.045 791.709 332.114C791.383 332.189 790.97 332.227 790.47 332.227C789.713 332.227 788.97 332.064 788.243 331.739C787.523 331.413 786.925 330.917 786.447 330.25C785.978 329.583 785.743 328.742 785.743 327.727V310.364ZM797.913 338.545C797.459 338.545 797.053 338.508 796.697 338.432C796.341 338.364 796.095 338.295 795.959 338.227L796.641 335.864C797.292 336.03 797.868 336.091 798.368 336.045C798.868 336 799.311 335.777 799.697 335.375C800.091 334.981 800.451 334.341 800.777 333.455L801.277 332.091L794.822 314.545H797.731L802.55 328.455H802.731L807.55 314.545H810.459L803.05 334.545C802.716 335.447 802.303 336.193 801.811 336.784C801.319 337.383 800.747 337.826 800.095 338.114C799.451 338.402 798.724 338.545 797.913 338.545ZM830.089 332.364C828.514 332.364 827.131 331.989 825.942 331.239C824.76 330.489 823.836 329.439 823.169 328.091C822.51 326.742 822.18 325.167 822.18 323.364C822.18 321.545 822.51 319.958 823.169 318.602C823.836 317.246 824.76 316.193 825.942 315.443C827.131 314.693 828.514 314.318 830.089 314.318C831.665 314.318 833.044 314.693 834.226 315.443C835.415 316.193 836.339 317.246 836.998 318.602C837.665 319.958 837.998 321.545 837.998 323.364C837.998 325.167 837.665 326.742 836.998 328.091C836.339 329.439 835.415 330.489 834.226 331.239C833.044 331.989 831.665 332.364 830.089 332.364ZM830.089 329.955C831.286 329.955 832.271 329.648 833.044 329.034C833.817 328.42 834.389 327.614 834.76 326.614C835.131 325.614 835.317 324.53 835.317 323.364C835.317 322.197 835.131 321.11 834.76 320.102C834.389 319.095 833.817 318.28 833.044 317.659C832.271 317.038 831.286 316.727 830.089 316.727C828.892 316.727 827.908 317.038 827.135 317.659C826.362 318.28 825.79 319.095 825.419 320.102C825.048 321.11 824.862 322.197 824.862 323.364C824.862 324.53 825.048 325.614 825.419 326.614C825.79 327.614 826.362 328.42 827.135 329.034C827.908 329.648 828.892 329.955 830.089 329.955ZM849.865 314.545V316.818H840.456V314.545H849.865ZM843.274 332V312.136C843.274 311.136 843.509 310.303 843.979 309.636C844.448 308.97 845.058 308.47 845.808 308.136C846.558 307.803 847.35 307.636 848.183 307.636C848.842 307.636 849.38 307.689 849.797 307.795C850.213 307.902 850.524 308 850.729 308.091L849.956 310.409C849.82 310.364 849.63 310.307 849.388 310.239C849.153 310.17 848.842 310.136 848.456 310.136C847.57 310.136 846.929 310.36 846.535 310.807C846.149 311.254 845.956 311.909 845.956 312.773V332H843.274ZM870.396 314.545V316.818H860.987V314.545H870.396ZM863.805 332V312.136C863.805 311.136 864.04 310.303 864.51 309.636C864.98 308.97 865.589 308.47 866.339 308.136C867.089 307.803 867.881 307.636 868.714 307.636C869.373 307.636 869.911 307.689 870.328 307.795C870.745 307.902 871.055 308 871.26 308.091L870.487 310.409C870.351 310.364 870.161 310.307 869.919 310.239C869.684 310.17 869.373 310.136 868.987 310.136C868.101 310.136 867.461 310.36 867.067 310.807C866.68 311.254 866.487 311.909 866.487 312.773V332H863.805ZM874.155 332V314.545H876.837V332H874.155ZM875.518 311.636C874.996 311.636 874.545 311.458 874.166 311.102C873.795 310.746 873.609 310.318 873.609 309.818C873.609 309.318 873.795 308.89 874.166 308.534C874.545 308.178 874.996 308 875.518 308C876.041 308 876.488 308.178 876.859 308.534C877.238 308.89 877.427 309.318 877.427 309.818C877.427 310.318 877.238 310.746 876.859 311.102C876.488 311.458 876.041 311.636 875.518 311.636ZM884.43 321.5V332H881.748V314.545H884.339V317.273H884.567C884.976 316.386 885.597 315.674 886.43 315.136C887.264 314.591 888.339 314.318 889.658 314.318C890.839 314.318 891.873 314.561 892.76 315.045C893.646 315.523 894.336 316.25 894.828 317.227C895.32 318.197 895.567 319.424 895.567 320.909V332H892.885V321.091C892.885 319.72 892.529 318.652 891.817 317.886C891.105 317.114 890.127 316.727 888.885 316.727C888.029 316.727 887.264 316.913 886.589 317.284C885.923 317.655 885.396 318.197 885.01 318.909C884.623 319.621 884.43 320.485 884.43 321.5ZM905.604 332.409C904.498 332.409 903.494 332.201 902.592 331.784C901.691 331.36 900.975 330.75 900.445 329.955C899.914 329.152 899.649 328.182 899.649 327.045C899.649 326.045 899.846 325.235 900.24 324.614C900.634 323.985 901.16 323.492 901.82 323.136C902.479 322.78 903.206 322.515 904.001 322.341C904.804 322.159 905.611 322.015 906.422 321.909C907.482 321.773 908.342 321.67 909.001 321.602C909.668 321.527 910.153 321.402 910.456 321.227C910.766 321.053 910.922 320.75 910.922 320.318V320.227C910.922 319.106 910.615 318.235 910.001 317.614C909.395 316.992 908.475 316.682 907.24 316.682C905.96 316.682 904.956 316.962 904.229 317.523C903.501 318.083 902.99 318.682 902.695 319.318L900.149 318.409C900.604 317.348 901.21 316.523 901.967 315.932C902.732 315.333 903.566 314.917 904.467 314.682C905.376 314.439 906.27 314.318 907.149 314.318C907.71 314.318 908.354 314.386 909.081 314.523C909.816 314.652 910.524 314.92 911.206 315.33C911.895 315.739 912.467 316.356 912.922 317.182C913.376 318.008 913.604 319.114 913.604 320.5V332H910.922V329.636H910.785C910.604 330.015 910.301 330.42 909.876 330.852C909.452 331.284 908.888 331.652 908.183 331.955C907.479 332.258 906.619 332.409 905.604 332.409ZM906.013 330C907.073 330 907.967 329.792 908.695 329.375C909.429 328.958 909.982 328.42 910.354 327.761C910.732 327.102 910.922 326.409 910.922 325.682V323.227C910.808 323.364 910.558 323.489 910.172 323.602C909.793 323.708 909.354 323.803 908.854 323.886C908.361 323.962 907.88 324.03 907.41 324.091C906.948 324.144 906.573 324.189 906.285 324.227C905.588 324.318 904.937 324.466 904.331 324.67C903.732 324.867 903.248 325.167 902.876 325.568C902.513 325.962 902.331 326.5 902.331 327.182C902.331 328.114 902.676 328.818 903.365 329.295C904.062 329.765 904.945 330 906.013 330ZM921.18 308.727V332H918.498V308.727H921.18ZM947.456 318.455L945.047 319.136C944.895 318.735 944.672 318.345 944.376 317.966C944.088 317.58 943.695 317.261 943.195 317.011C942.695 316.761 942.054 316.636 941.274 316.636C940.206 316.636 939.316 316.883 938.604 317.375C937.899 317.86 937.547 318.477 937.547 319.227C937.547 319.894 937.789 320.42 938.274 320.807C938.759 321.193 939.516 321.515 940.547 321.773L943.138 322.409C944.698 322.788 945.861 323.367 946.626 324.148C947.391 324.92 947.774 325.917 947.774 327.136C947.774 328.136 947.486 329.03 946.91 329.818C946.342 330.606 945.547 331.227 944.524 331.682C943.501 332.136 942.312 332.364 940.956 332.364C939.176 332.364 937.702 331.977 936.535 331.205C935.369 330.432 934.63 329.303 934.32 327.818L936.865 327.182C937.107 328.121 937.566 328.826 938.24 329.295C938.922 329.765 939.812 330 940.91 330C942.16 330 943.153 329.735 943.888 329.205C944.63 328.667 945.001 328.023 945.001 327.273C945.001 326.667 944.789 326.159 944.365 325.75C943.941 325.333 943.289 325.023 942.41 324.818L939.501 324.136C937.903 323.758 936.729 323.17 935.979 322.375C935.236 321.572 934.865 320.568 934.865 319.364C934.865 318.379 935.141 317.508 935.695 316.75C936.255 315.992 937.016 315.398 937.979 314.966C938.948 314.534 940.047 314.318 941.274 314.318C943.001 314.318 944.357 314.697 945.342 315.455C946.335 316.212 947.039 317.212 947.456 318.455ZM959.402 314.545V316.818H950.356V314.545H959.402ZM952.993 310.364H955.675V327C955.675 327.758 955.784 328.326 956.004 328.705C956.231 329.076 956.519 329.326 956.868 329.455C957.224 329.576 957.599 329.636 957.993 329.636C958.288 329.636 958.531 329.621 958.72 329.591C958.909 329.553 959.061 329.523 959.175 329.5L959.72 331.909C959.538 331.977 959.284 332.045 958.959 332.114C958.633 332.189 958.22 332.227 957.72 332.227C956.963 332.227 956.22 332.064 955.493 331.739C954.773 331.413 954.175 330.917 953.697 330.25C953.228 329.583 952.993 328.742 952.993 327.727V310.364ZM968.572 332.409C967.466 332.409 966.463 332.201 965.561 331.784C964.659 331.36 963.944 330.75 963.413 329.955C962.883 329.152 962.618 328.182 962.618 327.045C962.618 326.045 962.815 325.235 963.209 324.614C963.603 323.985 964.129 323.492 964.788 323.136C965.447 322.78 966.175 322.515 966.97 322.341C967.773 322.159 968.58 322.015 969.391 321.909C970.451 321.773 971.311 321.67 971.97 321.602C972.637 321.527 973.122 321.402 973.425 321.227C973.735 321.053 973.891 320.75 973.891 320.318V320.227C973.891 319.106 973.584 318.235 972.97 317.614C972.364 316.992 971.444 316.682 970.209 316.682C968.928 316.682 967.925 316.962 967.197 317.523C966.47 318.083 965.959 318.682 965.663 319.318L963.118 318.409C963.572 317.348 964.178 316.523 964.936 315.932C965.701 315.333 966.534 314.917 967.436 314.682C968.345 314.439 969.239 314.318 970.118 314.318C970.678 314.318 971.322 314.386 972.05 314.523C972.784 314.652 973.493 314.92 974.175 315.33C974.864 315.739 975.436 316.356 975.891 317.182C976.345 318.008 976.572 319.114 976.572 320.5V332H973.891V329.636H973.754C973.572 330.015 973.269 330.42 972.845 330.852C972.421 331.284 971.856 331.652 971.152 331.955C970.447 332.258 969.588 332.409 968.572 332.409ZM968.981 330C970.042 330 970.936 329.792 971.663 329.375C972.398 328.958 972.951 328.42 973.322 327.761C973.701 327.102 973.891 326.409 973.891 325.682V323.227C973.777 323.364 973.527 323.489 973.141 323.602C972.762 323.708 972.322 323.803 971.822 323.886C971.33 323.962 970.849 324.03 970.379 324.091C969.917 324.144 969.542 324.189 969.254 324.227C968.557 324.318 967.906 324.466 967.3 324.67C966.701 324.867 966.216 325.167 965.845 325.568C965.481 325.962 965.3 326.5 965.3 327.182C965.3 328.114 965.644 328.818 966.334 329.295C967.031 329.765 967.913 330 968.981 330ZM989.058 314.545V316.818H980.013V314.545H989.058ZM982.649 310.364H985.331V327C985.331 327.758 985.441 328.326 985.66 328.705C985.888 329.076 986.176 329.326 986.524 329.455C986.88 329.576 987.255 329.636 987.649 329.636C987.945 329.636 988.187 329.621 988.376 329.591C988.566 329.553 988.717 329.523 988.831 329.5L989.376 331.909C989.195 331.977 988.941 332.045 988.615 332.114C988.289 332.189 987.876 332.227 987.376 332.227C986.619 332.227 985.876 332.064 985.149 331.739C984.429 331.413 983.831 330.917 983.354 330.25C982.884 329.583 982.649 328.742 982.649 327.727V310.364ZM1000.22 332.364C998.541 332.364 997.09 331.992 995.871 331.25C994.659 330.5 993.723 329.455 993.064 328.114C992.412 326.765 992.087 325.197 992.087 323.409C992.087 321.621 992.412 320.045 993.064 318.682C993.723 317.311 994.64 316.242 995.814 315.477C996.996 314.705 998.374 314.318 999.95 314.318C1000.86 314.318 1001.76 314.47 1002.64 314.773C1003.53 315.076 1004.34 315.568 1005.06 316.25C1005.79 316.924 1006.37 317.818 1006.8 318.932C1007.23 320.045 1007.45 321.417 1007.45 323.045V324.182H993.996V321.864H1004.72C1004.72 320.879 1004.53 320 1004.13 319.227C1003.75 318.455 1003.19 317.845 1002.47 317.398C1001.76 316.951 1000.92 316.727 999.95 316.727C998.882 316.727 997.958 316.992 997.177 317.523C996.405 318.045 995.81 318.727 995.393 319.568C994.977 320.409 994.768 321.311 994.768 322.273V323.818C994.768 325.136 994.996 326.254 995.45 327.17C995.912 328.08 996.552 328.773 997.371 329.25C998.189 329.72 999.14 329.955 1000.22 329.955C1000.93 329.955 1001.56 329.856 1002.13 329.659C1002.71 329.455 1003.2 329.152 1003.62 328.75C1004.04 328.341 1004.36 327.833 1004.59 327.227L1007.18 327.955C1006.9 328.833 1006.45 329.606 1005.8 330.273C1005.16 330.932 1004.36 331.447 1003.42 331.818C1002.47 332.182 1001.4 332.364 1000.22 332.364ZM1023.89 318.455L1021.48 319.136C1021.33 318.735 1021.11 318.345 1020.81 317.966C1020.53 317.58 1020.13 317.261 1019.63 317.011C1019.13 316.761 1018.49 316.636 1017.71 316.636C1016.64 316.636 1015.75 316.883 1015.04 317.375C1014.34 317.86 1013.98 318.477 1013.98 319.227C1013.98 319.894 1014.23 320.42 1014.71 320.807C1015.2 321.193 1015.95 321.515 1016.98 321.773L1019.58 322.409C1021.14 322.788 1022.3 323.367 1023.06 324.148C1023.83 324.92 1024.21 325.917 1024.21 327.136C1024.21 328.136 1023.92 329.03 1023.35 329.818C1022.78 330.606 1021.98 331.227 1020.96 331.682C1019.94 332.136 1018.75 332.364 1017.39 332.364C1015.61 332.364 1014.14 331.977 1012.97 331.205C1011.81 330.432 1011.07 329.303 1010.76 327.818L1013.3 327.182C1013.54 328.121 1014 328.826 1014.68 329.295C1015.36 329.765 1016.25 330 1017.35 330C1018.6 330 1019.59 329.735 1020.33 329.205C1021.07 328.667 1021.44 328.023 1021.44 327.273C1021.44 326.667 1021.23 326.159 1020.8 325.75C1020.38 325.333 1019.73 325.023 1018.85 324.818L1015.94 324.136C1014.34 323.758 1013.17 323.17 1012.42 322.375C1011.67 321.572 1011.3 320.568 1011.3 319.364C1011.3 318.379 1011.58 317.508 1012.13 316.75C1012.69 315.992 1013.45 315.398 1014.42 314.966C1015.39 314.534 1016.48 314.318 1017.71 314.318C1019.44 314.318 1020.79 314.697 1021.78 315.455C1022.77 316.212 1023.48 317.212 1023.89 318.455Z" fill="black"/>
</g>
</svg>
