<svg width="1920" height="1080" viewBox="0 0 1920 1080" fill="none" xmlns="http://www.w3.org/2000/svg">
<g id="Reachability Problem">
<rect width="1920" height="1080" fill="white"/>
<rect id="Rectangle 11" x="374.512" y="246.512" width="1170" height="215" fill="white" fill-opacity="0.4"/>
<path id="Is a given state reachable?" d="M527.098 309.879V360.387H534.91V363.512H511.668V360.387H519.48V309.879H511.668V306.754H534.91V309.879H527.098ZM562.723 341.285C562.592 339.592 562.306 338.16 561.863 336.988C561.447 335.816 560.874 334.866 560.145 334.137C559.415 333.408 558.53 332.887 557.488 332.574C556.473 332.236 555.301 332.066 553.973 332.066C552.957 332.066 552.02 332.171 551.16 332.379C550.301 332.561 549.559 332.861 548.934 333.277C548.309 333.668 547.814 334.189 547.449 334.84C547.111 335.491 546.941 336.272 546.941 337.184C546.941 338.095 547.098 338.85 547.41 339.449C547.749 340.022 548.283 340.543 549.012 341.012C549.767 341.454 550.717 341.884 551.863 342.301C553.035 342.717 554.467 343.212 556.16 343.785C557.514 344.254 558.855 344.749 560.184 345.27C561.512 345.79 562.697 346.441 563.738 347.223C564.806 348.004 565.665 348.954 566.316 350.074C566.967 351.168 567.293 352.509 567.293 354.098C567.293 355.895 566.889 357.457 566.082 358.785C565.275 360.113 564.207 361.207 562.879 362.066C561.551 362.926 560.04 363.564 558.348 363.98C556.655 364.397 554.923 364.605 553.152 364.605C552.215 364.605 551.212 364.553 550.145 364.449C549.103 364.345 548.061 364.202 547.02 364.02C546.004 363.837 545.027 363.629 544.09 363.395C543.178 363.134 542.371 362.874 541.668 362.613L541.395 351.285H544.09C544.22 353.264 544.493 354.931 544.91 356.285C545.353 357.613 545.952 358.681 546.707 359.488C547.488 360.296 548.426 360.868 549.52 361.207C550.639 361.546 551.941 361.715 553.426 361.715C554.546 361.715 555.574 361.624 556.512 361.441C557.475 361.233 558.309 360.921 559.012 360.504C559.715 360.061 560.262 359.488 560.652 358.785C561.069 358.082 561.277 357.236 561.277 356.246C561.277 355.387 561.121 354.684 560.809 354.137C560.496 353.564 560.001 353.056 559.324 352.613C558.647 352.171 557.775 351.754 556.707 351.363C555.639 350.973 554.363 350.517 552.879 349.996C551.395 349.475 549.962 348.941 548.582 348.395C547.228 347.822 546.03 347.145 544.988 346.363C543.947 345.556 543.113 344.592 542.488 343.473C541.863 342.353 541.551 340.986 541.551 339.371C541.551 337.6 541.915 336.077 542.645 334.801C543.374 333.499 544.337 332.431 545.535 331.598C546.759 330.764 548.152 330.152 549.715 329.762C551.303 329.371 552.944 329.176 554.637 329.176C555.496 329.176 556.395 329.228 557.332 329.332C558.27 329.41 559.194 329.527 560.105 329.684C561.043 329.84 561.928 330.022 562.762 330.23C563.621 330.413 564.402 330.595 565.105 330.777L565.379 341.285H562.723ZM627.293 363.512C626.199 363.72 625.184 363.85 624.246 363.902C623.309 363.954 622.566 363.98 622.02 363.98C620.639 363.98 619.493 363.863 618.582 363.629C617.697 363.421 616.993 363.108 616.473 362.691C615.952 362.275 615.574 361.767 615.34 361.168C615.105 360.569 614.962 359.905 614.91 359.176H614.715C613.986 360.191 613.204 361.051 612.371 361.754C611.538 362.457 610.665 363.017 609.754 363.434C608.842 363.85 607.905 364.15 606.941 364.332C606.004 364.514 605.053 364.605 604.09 364.605C602.501 364.605 601.082 364.384 599.832 363.941C598.582 363.525 597.527 362.926 596.668 362.145C595.809 361.363 595.158 360.439 594.715 359.371C594.272 358.277 594.051 357.079 594.051 355.777C594.051 352.158 595.822 349.41 599.363 347.535C602.931 345.634 608.061 344.618 614.754 344.488C614.78 343.316 614.793 342.262 614.793 341.324C614.819 340.387 614.832 339.462 614.832 338.551C614.832 336.181 614.337 334.527 613.348 333.59C612.384 332.626 610.848 332.145 608.738 332.145C607.332 332.145 606.069 332.301 604.949 332.613C603.855 332.926 602.957 333.342 602.254 333.863C602.879 334.462 603.335 335.1 603.621 335.777C603.934 336.428 604.09 337.079 604.09 337.73C604.09 338.824 603.738 339.736 603.035 340.465C602.332 341.194 601.368 341.559 600.145 341.559C599.624 341.559 599.116 341.48 598.621 341.324C598.126 341.168 597.697 340.921 597.332 340.582C596.967 340.243 596.668 339.827 596.434 339.332C596.225 338.811 596.121 338.212 596.121 337.535C596.121 336.467 596.408 335.439 596.98 334.449C597.579 333.434 598.452 332.535 599.598 331.754C600.77 330.973 602.215 330.348 603.934 329.879C605.678 329.41 607.71 329.176 610.027 329.176C611.902 329.176 613.556 329.358 614.988 329.723C616.447 330.087 617.671 330.699 618.66 331.559C619.676 332.392 620.431 333.512 620.926 334.918C621.447 336.324 621.707 338.069 621.707 340.152C621.707 340.673 621.694 341.533 621.668 342.73C621.668 343.902 621.655 345.204 621.629 346.637C621.603 348.069 621.577 349.527 621.551 351.012C621.551 352.47 621.551 353.759 621.551 354.879C621.551 356.025 621.577 356.988 621.629 357.77C621.681 358.525 621.811 359.137 622.02 359.605C622.228 360.048 622.54 360.374 622.957 360.582C623.374 360.764 623.96 360.855 624.715 360.855C625.366 360.855 626.225 360.777 627.293 360.621V363.512ZM614.754 347.418C611.915 347.496 609.624 347.717 607.879 348.082C606.134 348.421 604.78 348.915 603.816 349.566C602.853 350.191 602.202 350.96 601.863 351.871C601.525 352.783 601.355 353.824 601.355 354.996C601.355 357.027 601.772 358.551 602.605 359.566C603.465 360.556 604.637 361.051 606.121 361.051C606.928 361.051 607.827 360.882 608.816 360.543C609.832 360.204 610.783 359.658 611.668 358.902C612.553 358.121 613.283 357.105 613.855 355.855C614.454 354.605 614.754 353.056 614.754 351.207V347.418ZM658.504 371.949C658.061 372.678 657.736 373.382 657.527 374.059C657.319 374.736 657.215 375.4 657.215 376.051C657.215 377.092 657.475 378.017 657.996 378.824C658.517 379.632 659.246 380.309 660.184 380.855C661.121 381.402 662.228 381.806 663.504 382.066C664.806 382.353 666.225 382.496 667.762 382.496C669.871 382.496 671.746 382.249 673.387 381.754C675.053 381.259 676.46 380.569 677.605 379.684C678.751 378.798 679.624 377.77 680.223 376.598C680.822 375.426 681.121 374.15 681.121 372.77C681.121 371.65 680.913 370.738 680.496 370.035C680.105 369.332 679.546 368.785 678.816 368.395C678.087 368.004 677.215 367.73 676.199 367.574C675.21 367.444 674.116 367.379 672.918 367.379C672.059 367.379 671.095 367.379 670.027 367.379C668.96 367.405 667.931 367.431 666.941 367.457C665.952 367.483 665.066 367.496 664.285 367.496C663.504 367.522 662.957 367.535 662.645 367.535C661.16 367.535 659.871 367.353 658.777 366.988C657.71 366.624 656.811 366.116 656.082 365.465C655.353 364.814 654.806 364.046 654.441 363.16C654.103 362.275 653.934 361.324 653.934 360.309C653.934 358.902 654.246 357.444 654.871 355.934C655.496 354.423 656.512 352.887 657.918 351.324C656.824 350.152 655.991 348.811 655.418 347.301C654.845 345.764 654.559 344.137 654.559 342.418C654.559 340.621 654.871 338.928 655.496 337.34C656.121 335.725 657.02 334.319 658.191 333.121C659.389 331.897 660.848 330.934 662.566 330.23C664.311 329.527 666.29 329.176 668.504 329.176C670.535 329.176 672.345 329.475 673.934 330.074C675.522 330.673 676.889 331.493 678.035 332.535C678.764 331.78 679.467 331.155 680.145 330.66C680.848 330.165 681.499 329.788 682.098 329.527C682.697 329.241 683.257 329.046 683.777 328.941C684.298 328.837 684.767 328.785 685.184 328.785C685.835 328.785 686.395 328.889 686.863 329.098C687.332 329.28 687.71 329.54 687.996 329.879C688.309 330.191 688.53 330.556 688.66 330.973C688.816 331.363 688.895 331.767 688.895 332.184C688.895 333.017 688.621 333.772 688.074 334.449C687.553 335.1 686.811 335.426 685.848 335.426C685.092 335.426 684.376 335.178 683.699 334.684C683.048 334.189 682.618 333.46 682.41 332.496C681.889 332.704 681.395 332.965 680.926 333.277C680.483 333.564 680.04 333.902 679.598 334.293C680.379 335.387 680.965 336.585 681.355 337.887C681.772 339.189 681.98 340.556 681.98 341.988C681.98 343.785 681.668 345.491 681.043 347.105C680.418 348.72 679.507 350.139 678.309 351.363C677.111 352.561 675.652 353.512 673.934 354.215C672.215 354.918 670.249 355.27 668.035 355.27C666.473 355.27 665.04 355.087 663.738 354.723C662.436 354.358 661.264 353.85 660.223 353.199C659.572 354.059 659.064 354.879 658.699 355.66C658.361 356.415 658.191 357.132 658.191 357.809C658.191 358.642 658.556 359.332 659.285 359.879C660.04 360.426 661.316 360.699 663.113 360.699C663.4 360.699 663.986 360.699 664.871 360.699C665.783 360.673 666.785 360.66 667.879 360.66C668.973 360.634 670.04 360.621 671.082 360.621C672.15 360.595 672.97 360.582 673.543 360.582C675.392 360.582 677.085 360.751 678.621 361.09C680.184 361.402 681.512 361.949 682.605 362.73C683.725 363.512 684.598 364.54 685.223 365.816C685.848 367.092 686.16 368.681 686.16 370.582C686.16 372.9 685.691 374.983 684.754 376.832C683.816 378.681 682.501 380.257 680.809 381.559C679.142 382.861 677.15 383.85 674.832 384.527C672.54 385.23 670.027 385.582 667.293 385.582C664.897 385.582 662.775 385.322 660.926 384.801C659.103 384.306 657.566 383.642 656.316 382.809C655.066 381.975 654.116 381.012 653.465 379.918C652.814 378.85 652.488 377.73 652.488 376.559C652.488 375.439 652.775 374.358 653.348 373.316C653.947 372.275 654.845 371.298 656.043 370.387C656.538 370.595 656.967 370.816 657.332 371.051C657.697 371.311 658.087 371.611 658.504 371.949ZM674.754 342.066C674.754 340.217 674.65 338.655 674.441 337.379C674.259 336.077 673.921 335.035 673.426 334.254C672.957 333.447 672.306 332.861 671.473 332.496C670.665 332.132 669.624 331.949 668.348 331.949C667.072 331.949 666.017 332.132 665.184 332.496C664.35 332.861 663.673 333.46 663.152 334.293C662.658 335.1 662.306 336.168 662.098 337.496C661.889 338.824 661.785 340.439 661.785 342.34C661.785 344.215 661.876 345.803 662.059 347.105C662.267 348.382 662.618 349.423 663.113 350.23C663.608 351.038 664.259 351.624 665.066 351.988C665.9 352.327 666.941 352.496 668.191 352.496C669.467 352.496 670.522 352.314 671.355 351.949C672.215 351.585 672.892 350.986 673.387 350.152C673.882 349.319 674.233 348.251 674.441 346.949C674.65 345.621 674.754 343.993 674.754 342.066ZM704.559 360.387H710.418V363.512H691.668V360.387H697.527V333.355H691.668V330.23H704.559V360.387ZM701.043 319.215C700.366 319.215 699.741 319.111 699.168 318.902C698.621 318.668 698.126 318.342 697.684 317.926C697.267 317.509 696.941 317.027 696.707 316.48C696.473 315.908 696.355 315.27 696.355 314.566C696.355 313.889 696.473 313.264 696.707 312.691C696.967 312.118 697.306 311.624 697.723 311.207C698.139 310.79 698.634 310.465 699.207 310.23C699.78 309.996 700.392 309.879 701.043 309.879C701.694 309.879 702.306 309.996 702.879 310.23C703.452 310.439 703.947 310.751 704.363 311.168C704.806 311.585 705.145 312.079 705.379 312.652C705.613 313.199 705.73 313.824 705.73 314.527C705.73 315.23 705.6 315.868 705.34 316.441C705.105 317.014 704.78 317.509 704.363 317.926C703.947 318.316 703.452 318.629 702.879 318.863C702.306 319.098 701.694 319.215 701.043 319.215ZM730.652 364.059L716.863 333.355H711.043V330.23H730.027V333.355H724.559L734.246 355.035H734.402L744.051 333.355H738.582V330.23H753.035V333.355H747.332L733.777 364.059H730.652ZM785.262 352.926C784.428 356.702 782.814 359.592 780.418 361.598C778.022 363.603 774.91 364.605 771.082 364.605C768.452 364.605 766.108 364.15 764.051 363.238C761.993 362.301 760.249 361.038 758.816 359.449C757.384 357.861 756.29 356.012 755.535 353.902C754.78 351.767 754.402 349.501 754.402 347.105C754.402 344.658 754.793 342.34 755.574 340.152C756.355 337.965 757.462 336.064 758.895 334.449C760.353 332.835 762.085 331.559 764.09 330.621C766.121 329.658 768.387 329.176 770.887 329.176C773.178 329.176 775.236 329.579 777.059 330.387C778.882 331.194 780.431 332.327 781.707 333.785C782.983 335.217 783.96 336.936 784.637 338.941C785.34 340.947 785.717 343.147 785.77 345.543H762.215C762.189 345.986 762.176 346.285 762.176 346.441C762.176 346.572 762.176 346.65 762.176 346.676C762.176 349.749 762.397 352.249 762.84 354.176C763.309 356.103 763.947 357.613 764.754 358.707C765.587 359.775 766.564 360.504 767.684 360.895C768.829 361.285 770.092 361.48 771.473 361.48C772.749 361.48 773.947 361.311 775.066 360.973C776.212 360.634 777.241 360.1 778.152 359.371C779.064 358.616 779.858 357.652 780.535 356.48C781.238 355.283 781.798 353.85 782.215 352.184C782.736 352.236 783.257 352.327 783.777 352.457C784.298 352.587 784.793 352.743 785.262 352.926ZM777.879 342.496C777.801 340.335 777.566 338.59 777.176 337.262C776.811 335.908 776.316 334.853 775.691 334.098C775.066 333.342 774.324 332.835 773.465 332.574C772.632 332.288 771.707 332.145 770.691 332.145C769.624 332.145 768.621 332.301 767.684 332.613C766.772 332.926 765.952 333.473 765.223 334.254C764.493 335.035 763.882 336.09 763.387 337.418C762.918 338.746 762.592 340.439 762.41 342.496H777.879ZM804.715 360.387H809.988V363.512H791.824V360.387H797.684V333.355H791.824V330.23H804.715V335.895H804.871C805.939 333.733 807.371 332.079 809.168 330.934C810.965 329.762 813.283 329.176 816.121 329.176C819.689 329.176 822.345 330.1 824.09 331.949C825.835 333.772 826.707 336.389 826.707 339.801V360.387H832.371V363.512H814.402V360.387H819.676V338.707C819.676 336.65 819.194 335.139 818.23 334.176C817.267 333.186 815.913 332.691 814.168 332.691C812.84 332.691 811.603 332.978 810.457 333.551C809.311 334.098 808.309 334.957 807.449 336.129C806.616 337.301 805.952 338.798 805.457 340.621C804.962 342.444 804.715 344.605 804.715 347.105V360.387ZM880.066 341.285C879.936 339.592 879.65 338.16 879.207 336.988C878.79 335.816 878.217 334.866 877.488 334.137C876.759 333.408 875.874 332.887 874.832 332.574C873.816 332.236 872.645 332.066 871.316 332.066C870.301 332.066 869.363 332.171 868.504 332.379C867.645 332.561 866.902 332.861 866.277 333.277C865.652 333.668 865.158 334.189 864.793 334.84C864.454 335.491 864.285 336.272 864.285 337.184C864.285 338.095 864.441 338.85 864.754 339.449C865.092 340.022 865.626 340.543 866.355 341.012C867.111 341.454 868.061 341.884 869.207 342.301C870.379 342.717 871.811 343.212 873.504 343.785C874.858 344.254 876.199 344.749 877.527 345.27C878.855 345.79 880.04 346.441 881.082 347.223C882.15 348.004 883.009 348.954 883.66 350.074C884.311 351.168 884.637 352.509 884.637 354.098C884.637 355.895 884.233 357.457 883.426 358.785C882.618 360.113 881.551 361.207 880.223 362.066C878.895 362.926 877.384 363.564 875.691 363.98C873.999 364.397 872.267 364.605 870.496 364.605C869.559 364.605 868.556 364.553 867.488 364.449C866.447 364.345 865.405 364.202 864.363 364.02C863.348 363.837 862.371 363.629 861.434 363.395C860.522 363.134 859.715 362.874 859.012 362.613L858.738 351.285H861.434C861.564 353.264 861.837 354.931 862.254 356.285C862.697 357.613 863.296 358.681 864.051 359.488C864.832 360.296 865.77 360.868 866.863 361.207C867.983 361.546 869.285 361.715 870.77 361.715C871.889 361.715 872.918 361.624 873.855 361.441C874.819 361.233 875.652 360.921 876.355 360.504C877.059 360.061 877.605 359.488 877.996 358.785C878.413 358.082 878.621 357.236 878.621 356.246C878.621 355.387 878.465 354.684 878.152 354.137C877.84 353.564 877.345 353.056 876.668 352.613C875.991 352.171 875.118 351.754 874.051 351.363C872.983 350.973 871.707 350.517 870.223 349.996C868.738 349.475 867.306 348.941 865.926 348.395C864.572 347.822 863.374 347.145 862.332 346.363C861.29 345.556 860.457 344.592 859.832 343.473C859.207 342.353 858.895 340.986 858.895 339.371C858.895 337.6 859.259 336.077 859.988 334.801C860.717 333.499 861.681 332.431 862.879 331.598C864.103 330.764 865.496 330.152 867.059 329.762C868.647 329.371 870.288 329.176 871.98 329.176C872.84 329.176 873.738 329.228 874.676 329.332C875.613 329.41 876.538 329.527 877.449 329.684C878.387 329.84 879.272 330.022 880.105 330.23C880.965 330.413 881.746 330.595 882.449 330.777L882.723 341.285H880.066ZM914.559 355.699C913.855 358.746 912.697 360.999 911.082 362.457C909.467 363.889 907.241 364.605 904.402 364.605C902.918 364.605 901.577 364.423 900.379 364.059C899.207 363.694 898.204 363.121 897.371 362.34C896.538 361.533 895.9 360.517 895.457 359.293C895.014 358.043 894.793 356.533 894.793 354.762V333.355H888.934V330.23H894.793V322.652L901.824 321.48V330.23H911.98V333.355H901.824V355.621C901.824 356.689 901.915 357.561 902.098 358.238C902.306 358.915 902.592 359.449 902.957 359.84C903.322 360.23 903.751 360.504 904.246 360.66C904.741 360.79 905.301 360.855 905.926 360.855C906.759 360.855 907.475 360.738 908.074 360.504C908.673 360.243 909.194 359.866 909.637 359.371C910.105 358.85 910.496 358.212 910.809 357.457C911.147 356.702 911.46 355.829 911.746 354.84C912.241 354.918 912.723 355.022 913.191 355.152C913.66 355.283 914.116 355.465 914.559 355.699ZM952.293 363.512C951.199 363.72 950.184 363.85 949.246 363.902C948.309 363.954 947.566 363.98 947.02 363.98C945.639 363.98 944.493 363.863 943.582 363.629C942.697 363.421 941.993 363.108 941.473 362.691C940.952 362.275 940.574 361.767 940.34 361.168C940.105 360.569 939.962 359.905 939.91 359.176H939.715C938.986 360.191 938.204 361.051 937.371 361.754C936.538 362.457 935.665 363.017 934.754 363.434C933.842 363.85 932.905 364.15 931.941 364.332C931.004 364.514 930.053 364.605 929.09 364.605C927.501 364.605 926.082 364.384 924.832 363.941C923.582 363.525 922.527 362.926 921.668 362.145C920.809 361.363 920.158 360.439 919.715 359.371C919.272 358.277 919.051 357.079 919.051 355.777C919.051 352.158 920.822 349.41 924.363 347.535C927.931 345.634 933.061 344.618 939.754 344.488C939.78 343.316 939.793 342.262 939.793 341.324C939.819 340.387 939.832 339.462 939.832 338.551C939.832 336.181 939.337 334.527 938.348 333.59C937.384 332.626 935.848 332.145 933.738 332.145C932.332 332.145 931.069 332.301 929.949 332.613C928.855 332.926 927.957 333.342 927.254 333.863C927.879 334.462 928.335 335.1 928.621 335.777C928.934 336.428 929.09 337.079 929.09 337.73C929.09 338.824 928.738 339.736 928.035 340.465C927.332 341.194 926.368 341.559 925.145 341.559C924.624 341.559 924.116 341.48 923.621 341.324C923.126 341.168 922.697 340.921 922.332 340.582C921.967 340.243 921.668 339.827 921.434 339.332C921.225 338.811 921.121 338.212 921.121 337.535C921.121 336.467 921.408 335.439 921.98 334.449C922.579 333.434 923.452 332.535 924.598 331.754C925.77 330.973 927.215 330.348 928.934 329.879C930.678 329.41 932.71 329.176 935.027 329.176C936.902 329.176 938.556 329.358 939.988 329.723C941.447 330.087 942.671 330.699 943.66 331.559C944.676 332.392 945.431 333.512 945.926 334.918C946.447 336.324 946.707 338.069 946.707 340.152C946.707 340.673 946.694 341.533 946.668 342.73C946.668 343.902 946.655 345.204 946.629 346.637C946.603 348.069 946.577 349.527 946.551 351.012C946.551 352.47 946.551 353.759 946.551 354.879C946.551 356.025 946.577 356.988 946.629 357.77C946.681 358.525 946.811 359.137 947.02 359.605C947.228 360.048 947.54 360.374 947.957 360.582C948.374 360.764 948.96 360.855 949.715 360.855C950.366 360.855 951.225 360.777 952.293 360.621V363.512ZM939.754 347.418C936.915 347.496 934.624 347.717 932.879 348.082C931.134 348.421 929.78 348.915 928.816 349.566C927.853 350.191 927.202 350.96 926.863 351.871C926.525 352.783 926.355 353.824 926.355 354.996C926.355 357.027 926.772 358.551 927.605 359.566C928.465 360.556 929.637 361.051 931.121 361.051C931.928 361.051 932.827 360.882 933.816 360.543C934.832 360.204 935.783 359.658 936.668 358.902C937.553 358.121 938.283 357.105 938.855 355.855C939.454 354.605 939.754 353.056 939.754 351.207V347.418ZM981.043 355.699C980.34 358.746 979.181 360.999 977.566 362.457C975.952 363.889 973.725 364.605 970.887 364.605C969.402 364.605 968.061 364.423 966.863 364.059C965.691 363.694 964.689 363.121 963.855 362.34C963.022 361.533 962.384 360.517 961.941 359.293C961.499 358.043 961.277 356.533 961.277 354.762V333.355H955.418V330.23H961.277V322.652L968.309 321.48V330.23H978.465V333.355H968.309V355.621C968.309 356.689 968.4 357.561 968.582 358.238C968.79 358.915 969.077 359.449 969.441 359.84C969.806 360.23 970.236 360.504 970.73 360.66C971.225 360.79 971.785 360.855 972.41 360.855C973.243 360.855 973.96 360.738 974.559 360.504C975.158 360.243 975.678 359.866 976.121 359.371C976.59 358.85 976.98 358.212 977.293 357.457C977.632 356.702 977.944 355.829 978.23 354.84C978.725 354.918 979.207 355.022 979.676 355.152C980.145 355.283 980.6 355.465 981.043 355.699ZM1016.2 352.926C1015.37 356.702 1013.75 359.592 1011.36 361.598C1008.96 363.603 1005.85 364.605 1002.02 364.605C999.389 364.605 997.046 364.15 994.988 363.238C992.931 362.301 991.186 361.038 989.754 359.449C988.322 357.861 987.228 356.012 986.473 353.902C985.717 351.767 985.34 349.501 985.34 347.105C985.34 344.658 985.73 342.34 986.512 340.152C987.293 337.965 988.4 336.064 989.832 334.449C991.29 332.835 993.022 331.559 995.027 330.621C997.059 329.658 999.324 329.176 1001.82 329.176C1004.12 329.176 1006.17 329.579 1008 330.387C1009.82 331.194 1011.37 332.327 1012.64 333.785C1013.92 335.217 1014.9 336.936 1015.57 338.941C1016.28 340.947 1016.65 343.147 1016.71 345.543H993.152C993.126 345.986 993.113 346.285 993.113 346.441C993.113 346.572 993.113 346.65 993.113 346.676C993.113 349.749 993.335 352.249 993.777 354.176C994.246 356.103 994.884 357.613 995.691 358.707C996.525 359.775 997.501 360.504 998.621 360.895C999.767 361.285 1001.03 361.48 1002.41 361.48C1003.69 361.48 1004.88 361.311 1006 360.973C1007.15 360.634 1008.18 360.1 1009.09 359.371C1010 358.616 1010.8 357.652 1011.47 356.48C1012.18 355.283 1012.74 353.85 1013.15 352.184C1013.67 352.236 1014.19 352.327 1014.71 352.457C1015.24 352.587 1015.73 352.743 1016.2 352.926ZM1008.82 342.496C1008.74 340.335 1008.5 338.59 1008.11 337.262C1007.75 335.908 1007.25 334.853 1006.63 334.098C1006 333.342 1005.26 332.835 1004.4 332.574C1003.57 332.288 1002.64 332.145 1001.63 332.145C1000.56 332.145 999.559 332.301 998.621 332.613C997.71 332.926 996.889 333.473 996.16 334.254C995.431 335.035 994.819 336.09 994.324 337.418C993.855 338.746 993.53 340.439 993.348 342.496H1008.82ZM1062.61 363.512H1043.46V360.387H1049.32V333.355H1043.46V330.23H1056.36V336.285H1056.51C1056.98 335.27 1057.55 334.345 1058.23 333.512C1058.93 332.652 1059.7 331.91 1060.54 331.285C1061.37 330.66 1062.25 330.178 1063.19 329.84C1064.13 329.501 1065.08 329.332 1066.04 329.332C1067.61 329.332 1068.89 329.788 1069.91 330.699C1070.93 331.611 1071.43 332.874 1071.43 334.488C1071.43 335.921 1071.04 337.04 1070.26 337.848C1069.48 338.629 1068.46 339.02 1067.21 339.02C1065.91 339.02 1064.91 338.642 1064.21 337.887C1063.53 337.132 1063.19 336.181 1063.19 335.035C1063.19 334.436 1063.31 333.785 1063.54 333.082C1062.53 333.447 1061.58 334.033 1060.69 334.84C1059.83 335.621 1059.08 336.611 1058.43 337.809C1057.77 339.007 1057.27 340.4 1056.9 341.988C1056.54 343.551 1056.36 345.296 1056.36 347.223V360.387H1062.61V363.512ZM1105.81 352.926C1104.98 356.702 1103.36 359.592 1100.96 361.598C1098.57 363.603 1095.46 364.605 1091.63 364.605C1089 364.605 1086.65 364.15 1084.6 363.238C1082.54 362.301 1080.8 361.038 1079.36 359.449C1077.93 357.861 1076.84 356.012 1076.08 353.902C1075.33 351.767 1074.95 349.501 1074.95 347.105C1074.95 344.658 1075.34 342.34 1076.12 340.152C1076.9 337.965 1078.01 336.064 1079.44 334.449C1080.9 332.835 1082.63 331.559 1084.64 330.621C1086.67 329.658 1088.93 329.176 1091.43 329.176C1093.73 329.176 1095.78 329.579 1097.61 330.387C1099.43 331.194 1100.98 332.327 1102.25 333.785C1103.53 335.217 1104.51 336.936 1105.18 338.941C1105.89 340.947 1106.26 343.147 1106.32 345.543H1082.76C1082.74 345.986 1082.72 346.285 1082.72 346.441C1082.72 346.572 1082.72 346.65 1082.72 346.676C1082.72 349.749 1082.94 352.249 1083.39 354.176C1083.86 356.103 1084.49 357.613 1085.3 358.707C1086.13 359.775 1087.11 360.504 1088.23 360.895C1089.38 361.285 1090.64 361.48 1092.02 361.48C1093.3 361.48 1094.49 361.311 1095.61 360.973C1096.76 360.634 1097.79 360.1 1098.7 359.371C1099.61 358.616 1100.4 357.652 1101.08 356.48C1101.79 355.283 1102.35 353.85 1102.76 352.184C1103.28 352.236 1103.8 352.327 1104.32 352.457C1104.85 352.587 1105.34 352.743 1105.81 352.926ZM1098.43 342.496C1098.35 340.335 1098.11 338.59 1097.72 337.262C1097.36 335.908 1096.86 334.853 1096.24 334.098C1095.61 333.342 1094.87 332.835 1094.01 332.574C1093.18 332.288 1092.25 332.145 1091.24 332.145C1090.17 332.145 1089.17 332.301 1088.23 332.613C1087.32 332.926 1086.5 333.473 1085.77 334.254C1085.04 335.035 1084.43 336.09 1083.93 337.418C1083.46 338.746 1083.14 340.439 1082.96 342.496H1098.43ZM1146.59 363.512C1145.5 363.72 1144.48 363.85 1143.54 363.902C1142.61 363.954 1141.86 363.98 1141.32 363.98C1139.94 363.98 1138.79 363.863 1137.88 363.629C1136.99 363.421 1136.29 363.108 1135.77 362.691C1135.25 362.275 1134.87 361.767 1134.64 361.168C1134.4 360.569 1134.26 359.905 1134.21 359.176H1134.01C1133.28 360.191 1132.5 361.051 1131.67 361.754C1130.83 362.457 1129.96 363.017 1129.05 363.434C1128.14 363.85 1127.2 364.15 1126.24 364.332C1125.3 364.514 1124.35 364.605 1123.39 364.605C1121.8 364.605 1120.38 364.384 1119.13 363.941C1117.88 363.525 1116.82 362.926 1115.96 362.145C1115.11 361.363 1114.45 360.439 1114.01 359.371C1113.57 358.277 1113.35 357.079 1113.35 355.777C1113.35 352.158 1115.12 349.41 1118.66 347.535C1122.23 345.634 1127.36 344.618 1134.05 344.488C1134.08 343.316 1134.09 342.262 1134.09 341.324C1134.12 340.387 1134.13 339.462 1134.13 338.551C1134.13 336.181 1133.63 334.527 1132.64 333.59C1131.68 332.626 1130.14 332.145 1128.04 332.145C1126.63 332.145 1125.37 332.301 1124.25 332.613C1123.15 332.926 1122.25 333.342 1121.55 333.863C1122.18 334.462 1122.63 335.1 1122.92 335.777C1123.23 336.428 1123.39 337.079 1123.39 337.73C1123.39 338.824 1123.04 339.736 1122.33 340.465C1121.63 341.194 1120.67 341.559 1119.44 341.559C1118.92 341.559 1118.41 341.48 1117.92 341.324C1117.42 341.168 1116.99 340.921 1116.63 340.582C1116.26 340.243 1115.96 339.827 1115.73 339.332C1115.52 338.811 1115.42 338.212 1115.42 337.535C1115.42 336.467 1115.7 335.439 1116.28 334.449C1116.88 333.434 1117.75 332.535 1118.89 331.754C1120.07 330.973 1121.51 330.348 1123.23 329.879C1124.98 329.41 1127.01 329.176 1129.32 329.176C1131.2 329.176 1132.85 329.358 1134.29 329.723C1135.74 330.087 1136.97 330.699 1137.96 331.559C1138.97 332.392 1139.73 333.512 1140.22 334.918C1140.74 336.324 1141 338.069 1141 340.152C1141 340.673 1140.99 341.533 1140.96 342.73C1140.96 343.902 1140.95 345.204 1140.93 346.637C1140.9 348.069 1140.87 349.527 1140.85 351.012C1140.85 352.47 1140.85 353.759 1140.85 354.879C1140.85 356.025 1140.87 356.988 1140.93 357.77C1140.98 358.525 1141.11 359.137 1141.32 359.605C1141.52 360.048 1141.84 360.374 1142.25 360.582C1142.67 360.764 1143.26 360.855 1144.01 360.855C1144.66 360.855 1145.52 360.777 1146.59 360.621V363.512ZM1134.05 347.418C1131.21 347.496 1128.92 347.717 1127.18 348.082C1125.43 348.421 1124.08 348.915 1123.11 349.566C1122.15 350.191 1121.5 350.96 1121.16 351.871C1120.82 352.783 1120.65 353.824 1120.65 354.996C1120.65 357.027 1121.07 358.551 1121.9 359.566C1122.76 360.556 1123.93 361.051 1125.42 361.051C1126.23 361.051 1127.12 360.882 1128.11 360.543C1129.13 360.204 1130.08 359.658 1130.96 358.902C1131.85 358.121 1132.58 357.105 1133.15 355.855C1133.75 354.605 1134.05 353.056 1134.05 351.207V347.418ZM1182.45 352.691C1181.59 356.624 1179.98 359.592 1177.61 361.598C1175.26 363.603 1172.21 364.605 1168.46 364.605C1165.86 364.605 1163.52 364.15 1161.43 363.238C1159.38 362.301 1157.62 361.038 1156.16 359.449C1154.73 357.861 1153.62 356.012 1152.84 353.902C1152.06 351.793 1151.67 349.553 1151.67 347.184C1151.67 344.71 1152.07 342.379 1152.88 340.191C1153.71 338.004 1154.88 336.103 1156.39 334.488C1157.9 332.848 1159.71 331.559 1161.82 330.621C1163.96 329.658 1166.33 329.176 1168.93 329.176C1170.78 329.176 1172.48 329.423 1174.01 329.918C1175.57 330.387 1176.92 331.025 1178.04 331.832C1179.15 332.639 1180.03 333.577 1180.65 334.645C1181.28 335.712 1181.59 336.832 1181.59 338.004C1181.59 338.837 1181.45 339.54 1181.16 340.113C1180.87 340.66 1180.51 341.103 1180.07 341.441C1179.65 341.78 1179.18 342.027 1178.66 342.184C1178.14 342.34 1177.64 342.418 1177.18 342.418C1175.9 342.418 1174.88 342.014 1174.13 341.207C1173.4 340.4 1173.04 339.436 1173.04 338.316C1173.04 337.639 1173.2 336.91 1173.54 336.129C1173.88 335.348 1174.4 334.618 1175.11 333.941C1174.22 333.238 1173.19 332.77 1172.02 332.535C1170.87 332.275 1169.82 332.145 1168.86 332.145C1167.63 332.145 1166.45 332.314 1165.3 332.652C1164.18 332.965 1163.18 333.655 1162.29 334.723C1161.43 335.764 1160.74 337.262 1160.22 339.215C1159.7 341.168 1159.44 343.772 1159.44 347.027C1159.44 350.048 1159.68 352.496 1160.14 354.371C1160.64 356.246 1161.3 357.717 1162.14 358.785C1163 359.827 1164 360.543 1165.14 360.934C1166.29 361.298 1167.54 361.48 1168.89 361.48C1170.12 361.48 1171.28 361.311 1172.37 360.973C1173.46 360.634 1174.45 360.1 1175.34 359.371C1176.25 358.616 1177.05 357.639 1177.72 356.441C1178.43 355.217 1178.99 353.72 1179.4 351.949C1179.92 352.001 1180.44 352.092 1180.96 352.223C1181.49 352.353 1181.98 352.509 1182.45 352.691ZM1199.68 360.387H1204.95V363.512H1186.79V360.387H1192.64V309.879H1186.79V306.754H1199.68V335.465H1199.83C1200.93 333.46 1202.36 331.91 1204.13 330.816C1205.93 329.723 1208.23 329.176 1211.04 329.176C1214.66 329.176 1217.33 330.1 1219.05 331.949C1220.8 333.772 1221.67 336.389 1221.67 339.801V360.387H1227.33V363.512H1209.36V360.387H1214.64V338.902C1214.64 336.715 1214.15 335.139 1213.19 334.176C1212.23 333.186 1210.85 332.691 1209.05 332.691C1207.75 332.691 1206.52 332.952 1205.38 333.473C1204.26 333.993 1203.27 334.801 1202.41 335.895C1201.58 336.988 1200.91 338.395 1200.42 340.113C1199.92 341.832 1199.68 343.902 1199.68 346.324V360.387ZM1265.5 363.512C1264.4 363.72 1263.39 363.85 1262.45 363.902C1261.51 363.954 1260.77 363.98 1260.22 363.98C1258.84 363.98 1257.7 363.863 1256.79 363.629C1255.9 363.421 1255.2 363.108 1254.68 362.691C1254.15 362.275 1253.78 361.767 1253.54 361.168C1253.31 360.569 1253.17 359.905 1253.11 359.176H1252.92C1252.19 360.191 1251.41 361.051 1250.57 361.754C1249.74 362.457 1248.87 363.017 1247.96 363.434C1247.05 363.85 1246.11 364.15 1245.14 364.332C1244.21 364.514 1243.26 364.605 1242.29 364.605C1240.7 364.605 1239.29 364.384 1238.04 363.941C1236.79 363.525 1235.73 362.926 1234.87 362.145C1234.01 361.363 1233.36 360.439 1232.92 359.371C1232.48 358.277 1232.25 357.079 1232.25 355.777C1232.25 352.158 1234.02 349.41 1237.57 347.535C1241.13 345.634 1246.26 344.618 1252.96 344.488C1252.98 343.316 1253 342.262 1253 341.324C1253.02 340.387 1253.04 339.462 1253.04 338.551C1253.04 336.181 1252.54 334.527 1251.55 333.59C1250.59 332.626 1249.05 332.145 1246.94 332.145C1245.54 332.145 1244.27 332.301 1243.15 332.613C1242.06 332.926 1241.16 333.342 1240.46 333.863C1241.08 334.462 1241.54 335.1 1241.82 335.777C1242.14 336.428 1242.29 337.079 1242.29 337.73C1242.29 338.824 1241.94 339.736 1241.24 340.465C1240.54 341.194 1239.57 341.559 1238.35 341.559C1237.83 341.559 1237.32 341.48 1236.82 341.324C1236.33 341.168 1235.9 340.921 1235.54 340.582C1235.17 340.243 1234.87 339.827 1234.64 339.332C1234.43 338.811 1234.32 338.212 1234.32 337.535C1234.32 336.467 1234.61 335.439 1235.18 334.449C1235.78 333.434 1236.65 332.535 1237.8 331.754C1238.97 330.973 1240.42 330.348 1242.14 329.879C1243.88 329.41 1245.91 329.176 1248.23 329.176C1250.11 329.176 1251.76 329.358 1253.19 329.723C1254.65 330.087 1255.87 330.699 1256.86 331.559C1257.88 332.392 1258.63 333.512 1259.13 334.918C1259.65 336.324 1259.91 338.069 1259.91 340.152C1259.91 340.673 1259.9 341.533 1259.87 342.73C1259.87 343.902 1259.86 345.204 1259.83 346.637C1259.81 348.069 1259.78 349.527 1259.75 351.012C1259.75 352.47 1259.75 353.759 1259.75 354.879C1259.75 356.025 1259.78 356.988 1259.83 357.77C1259.88 358.525 1260.01 359.137 1260.22 359.605C1260.43 360.048 1260.74 360.374 1261.16 360.582C1261.58 360.764 1262.16 360.855 1262.92 360.855C1263.57 360.855 1264.43 360.777 1265.5 360.621V363.512ZM1252.96 347.418C1250.12 347.496 1247.83 347.717 1246.08 348.082C1244.34 348.421 1242.98 348.915 1242.02 349.566C1241.06 350.191 1240.4 350.96 1240.07 351.871C1239.73 352.783 1239.56 353.824 1239.56 354.996C1239.56 357.027 1239.98 358.551 1240.81 359.566C1241.67 360.556 1242.84 361.051 1244.32 361.051C1245.13 361.051 1246.03 360.882 1247.02 360.543C1248.04 360.204 1248.99 359.658 1249.87 358.902C1250.76 358.121 1251.49 357.105 1252.06 355.855C1252.66 354.605 1252.96 353.056 1252.96 351.207V347.418ZM1279.71 363.512H1274.25V309.879H1268.39V306.754H1281.28V334.605H1281.43C1282.58 332.757 1284.06 331.389 1285.89 330.504C1287.74 329.618 1289.74 329.176 1291.9 329.176C1294.17 329.176 1296.24 329.592 1298.11 330.426C1300.01 331.259 1301.65 332.444 1303.04 333.98C1304.42 335.491 1305.48 337.327 1306.24 339.488C1307.02 341.65 1307.41 344.046 1307.41 346.676C1307.41 349.462 1306.98 351.962 1306.12 354.176C1305.29 356.389 1304.15 358.264 1302.72 359.801C1301.29 361.337 1299.62 362.522 1297.72 363.355C1295.82 364.189 1293.82 364.605 1291.71 364.605C1289.6 364.605 1287.64 364.15 1285.85 363.238C1284.08 362.301 1282.61 360.816 1281.43 358.785H1281.2L1279.71 363.512ZM1299.68 346.793C1299.68 343.824 1299.47 341.402 1299.05 339.527C1298.63 337.626 1298.04 336.142 1297.25 335.074C1296.5 333.98 1295.59 333.238 1294.52 332.848C1293.45 332.457 1292.27 332.262 1290.96 332.262C1289.19 332.262 1287.7 332.6 1286.47 333.277C1285.25 333.954 1284.25 334.918 1283.46 336.168C1282.71 337.418 1282.15 338.928 1281.79 340.699C1281.45 342.444 1281.28 344.41 1281.28 346.598C1281.28 348.837 1281.43 350.764 1281.75 352.379C1282.08 353.993 1282.51 355.361 1283.04 356.48C1283.56 357.574 1284.15 358.46 1284.83 359.137C1285.54 359.788 1286.24 360.296 1286.94 360.66C1287.67 360.999 1288.39 361.233 1289.09 361.363C1289.82 361.467 1290.47 361.52 1291.04 361.52C1292.29 361.52 1293.44 361.324 1294.48 360.934C1295.55 360.543 1296.46 359.814 1297.21 358.746C1298 357.652 1298.6 356.155 1299.01 354.254C1299.45 352.327 1299.68 349.84 1299.68 346.793ZM1325.61 360.387H1331.47V363.512H1312.72V360.387H1318.58V309.879H1312.72V306.754H1325.61V360.387ZM1367.61 352.926C1366.77 356.702 1365.16 359.592 1362.76 361.598C1360.37 363.603 1357.25 364.605 1353.43 364.605C1350.8 364.605 1348.45 364.15 1346.39 363.238C1344.34 362.301 1342.59 361.038 1341.16 359.449C1339.73 357.861 1338.63 356.012 1337.88 353.902C1337.12 351.767 1336.75 349.501 1336.75 347.105C1336.75 344.658 1337.14 342.34 1337.92 340.152C1338.7 337.965 1339.81 336.064 1341.24 334.449C1342.7 332.835 1344.43 331.559 1346.43 330.621C1348.46 329.658 1350.73 329.176 1353.23 329.176C1355.52 329.176 1357.58 329.579 1359.4 330.387C1361.23 331.194 1362.77 332.327 1364.05 333.785C1365.33 335.217 1366.3 336.936 1366.98 338.941C1367.68 340.947 1368.06 343.147 1368.11 345.543H1344.56C1344.53 345.986 1344.52 346.285 1344.52 346.441C1344.52 346.572 1344.52 346.65 1344.52 346.676C1344.52 349.749 1344.74 352.249 1345.18 354.176C1345.65 356.103 1346.29 357.613 1347.1 358.707C1347.93 359.775 1348.91 360.504 1350.03 360.895C1351.17 361.285 1352.44 361.48 1353.82 361.48C1355.09 361.48 1356.29 361.311 1357.41 360.973C1358.56 360.634 1359.58 360.1 1360.5 359.371C1361.41 358.616 1362.2 357.652 1362.88 356.48C1363.58 355.283 1364.14 353.85 1364.56 352.184C1365.08 352.236 1365.6 352.327 1366.12 352.457C1366.64 352.587 1367.14 352.743 1367.61 352.926ZM1360.22 342.496C1360.14 340.335 1359.91 338.59 1359.52 337.262C1359.15 335.908 1358.66 334.853 1358.04 334.098C1357.41 333.342 1356.67 332.835 1355.81 332.574C1354.98 332.288 1354.05 332.145 1353.04 332.145C1351.97 332.145 1350.96 332.301 1350.03 332.613C1349.12 332.926 1348.3 333.473 1347.57 334.254C1346.84 335.035 1346.23 336.09 1345.73 337.418C1345.26 338.746 1344.94 340.439 1344.75 342.496H1360.22ZM1381.9 312.965C1382.63 313.746 1383.22 314.592 1383.66 315.504C1384.1 316.389 1384.32 317.288 1384.32 318.199C1384.32 318.824 1384.21 319.41 1383.97 319.957C1383.74 320.478 1383.41 320.934 1383 321.324C1382.61 321.715 1382.14 322.027 1381.59 322.262C1381.04 322.47 1380.44 322.574 1379.79 322.574C1379.19 322.574 1378.62 322.483 1378.07 322.301C1377.53 322.092 1377.03 321.793 1376.59 321.402C1376.15 321.012 1375.8 320.53 1375.54 319.957C1375.27 319.384 1375.14 318.707 1375.14 317.926C1375.14 316.754 1375.47 315.517 1376.12 314.215C1376.8 312.887 1377.77 311.676 1379.05 310.582C1380.35 309.488 1381.97 308.577 1383.89 307.848C1385.82 307.118 1388.04 306.754 1390.54 306.754C1393.01 306.754 1395.2 307.118 1397.1 307.848C1399.02 308.577 1400.64 309.553 1401.94 310.777C1403.27 311.975 1404.27 313.355 1404.95 314.918C1405.63 316.48 1405.96 318.108 1405.96 319.801C1405.96 323.134 1404.62 326.259 1401.94 329.176C1400.85 330.374 1399.61 331.52 1398.23 332.613C1396.85 333.707 1395.55 334.853 1394.32 336.051C1393.13 337.249 1392.11 338.564 1391.28 339.996C1390.47 341.402 1390.07 343.017 1390.07 344.84C1390.07 345.204 1390.08 345.634 1390.11 346.129C1390.16 346.598 1390.22 347.092 1390.3 347.613C1389.88 347.77 1389.43 347.887 1388.93 347.965C1388.46 348.017 1388.01 348.043 1387.57 348.043C1387.15 346.402 1386.94 344.879 1386.94 343.473C1386.94 342.118 1387.11 340.895 1387.45 339.801C1387.79 338.707 1388.22 337.717 1388.74 336.832C1389.29 335.921 1389.88 335.087 1390.54 334.332C1391.21 333.551 1391.89 332.809 1392.57 332.105C1393.37 331.22 1394.13 330.361 1394.83 329.527C1395.54 328.694 1396.13 327.796 1396.63 326.832C1397.15 325.868 1397.55 324.814 1397.84 323.668C1398.15 322.496 1398.31 321.155 1398.31 319.645C1398.31 317.874 1398.1 316.376 1397.68 315.152C1397.27 313.902 1396.68 312.887 1395.93 312.105C1395.17 311.324 1394.26 310.764 1393.19 310.426C1392.15 310.061 1390.98 309.879 1389.68 309.879C1388.11 309.879 1386.64 310.126 1385.26 310.621C1383.88 311.116 1382.76 311.897 1381.9 312.965ZM1389.01 364.605C1388.26 364.605 1387.55 364.475 1386.9 364.215C1386.28 363.954 1385.72 363.59 1385.22 363.121C1384.73 362.652 1384.34 362.092 1384.05 361.441C1383.79 360.79 1383.66 360.074 1383.66 359.293C1383.66 358.512 1383.8 357.796 1384.09 357.145C1384.38 356.467 1384.75 355.895 1385.22 355.426C1385.72 354.957 1386.29 354.592 1386.94 354.332C1387.59 354.046 1388.3 353.902 1389.05 353.902C1389.78 353.902 1390.47 354.033 1391.12 354.293C1391.77 354.553 1392.35 354.918 1392.84 355.387C1393.33 355.855 1393.71 356.415 1393.97 357.066C1394.26 357.717 1394.4 358.434 1394.4 359.215C1394.4 359.996 1394.26 360.725 1393.97 361.402C1393.71 362.053 1393.33 362.626 1392.84 363.121C1392.35 363.59 1391.77 363.954 1391.12 364.215C1390.47 364.475 1389.77 364.605 1389.01 364.605Z" fill="black"/>
<path id="Vector_51" d="M827.877 339.523C828.111 339.433 828.441 339.919 828.718 339.945C829.875 340.057 830.304 340.395 831.351 340.586C832.904 340.87 837.512 340.23 837.512 343.61C837.512 343.61 837.512 343.61 837.512 343.61C837.512 343.643 837.511 343.677 837.51 343.71C837.494 344.354 837.102 345.057 837.044 345.785C836.986 346.513 837.03 351.215 836.473 351.48C835.666 351.828 833.73 350.622 833.299 350.676C833.005 350.713 832.643 351.14 832.266 351.216C831.053 351.461 830.418 351.148 829.325 352.309C828.888 351.697 828.45 351.085 828.013 350.473C827.443 350.757 826.578 349.95 826.231 349.995C825.947 350.031 825.78 350.515 825.484 350.538C825.152 350.565 824.641 350.043 824.036 350.122C823.045 350.248 822.869 351.511 822.274 351.671C821.658 351.837 820.698 351.151 819.912 351.595C819.813 351.734 819.714 351.873 819.615 352.012C819.686 352.326 819.757 352.64 819.828 352.954C819.431 353.1 819.261 352.456 818.897 352.445C818.468 352.431 818.249 353.041 817.961 353.038C817.725 353.035 817.405 352.546 817.098 352.576C816.652 352.619 816.749 353.325 816.509 353.457C816.413 353.509 814.641 353.898 814.541 353.904C813.78 353.932 813.714 352.965 813.107 352.88C811.425 352.65 809.699 353.431 808.143 353.726C807.448 353.858 806.723 353.802 806.031 353.648C807.122 351.173 804.707 349.247 805.61 353.119C804.839 352.568 804.293 353.614 803.562 353.437C803.09 353.322 802.763 352.785 802.088 352.799C800.89 352.827 799.581 354.353 799.236 351.595C797.831 352.081 796.613 351.081 796.107 353.516C795.744 353.665 794.815 352.214 794.409 352.017C794.025 351.831 791.075 351.177 790.592 351.14C790.109 351.103 789.265 351.064 788.858 351.277C788.348 351.542 787.991 354.067 787.082 351.114C786.025 351.353 785.648 351.269 784.665 350.926C784.487 350.864 784.467 350.425 784.363 350.425C784.149 350.425 783.784 350.749 783.402 350.788C782.773 350.853 782.414 349.931 782.485 351.34C782.07 351.576 781.655 351.812 781.241 352.048C781.096 351.776 780.95 351.504 780.805 351.232C780.583 351.529 780.361 351.825 780.14 352.121C780.4 350.083 778.84 351.286 779.347 352.456C778.543 352.034 777.74 351.612 776.936 351.19C777.048 348.873 775.172 350.923 775.33 352.183C775.238 352.181 775.146 352.179 775.054 352.177C774.249 351.561 773.51 352.065 772.528 351.652C771.547 351.238 771.639 351.013 771.341 349.947C771.11 350.008 770.879 350.069 770.648 350.13C769.437 353.052 769.651 347.993 767.577 350.234C766.914 348.398 765.28 349.363 764.197 349.92C764.071 349.984 764.069 350.341 763.901 350.451C763.49 350.715 762.443 350.257 762.479 351.406C762.116 351.074 761.754 350.741 761.391 350.408C761.095 350.617 760.798 350.827 760.502 351.036C760.504 351.394 760.505 351.753 760.507 352.112C759.91 350.889 758.972 351.359 758.51 351.067C758.418 351.007 758.398 350.512 758.112 350.377C757.777 350.217 757.154 350.364 756.756 350.209C756.601 350.757 756.446 351.306 756.291 351.854C755.578 352.152 755.328 350.704 754.909 350.592C754.834 350.572 753.46 350.676 753.385 350.707C752.779 350.952 752.951 352.185 751.197 351.921C750.885 351.873 750.633 351.446 750.35 351.429C749.852 351.398 748.349 352.366 748.231 353.26C747.627 352.141 746.009 352.599 745.532 352.275C745.388 352.176 745.356 351.463 744.914 351.311C744.555 351.187 743.632 351.758 743.178 351.663C742.695 351.559 742.523 350.96 742.307 350.917C742.102 350.878 741.914 351.362 741.636 351.359C740.767 351.342 739.98 350.564 739.293 350.549C739.283 350.549 739.272 350.549 739.262 350.549C738.281 350.557 737.414 351.965 736.592 352.594C736.385 352.501 736.183 352.194 735.967 352.191C733.291 352.146 730.274 351.882 727.591 351.576C726.345 351.435 723.248 349.492 724.074 352.734C723.641 353.302 720.494 351.995 719.895 351.975C719.297 351.955 718.822 352.537 718.352 352.545C716.932 352.571 715.933 352.152 714.204 352.658C713.758 352.79 713.28 353.479 713.016 353.471C712.697 353.46 712.355 352.794 711.942 352.751C710.959 352.656 709.127 352.875 708.184 352.76C708.012 352.737 707.951 352.152 707.705 351.969C706.746 351.255 705.671 351.317 705.861 353.184C704.631 352.124 703.494 353.091 702.355 353.15C699.946 353.271 695.558 352.836 693.46 353.62C692.136 354.115 692.17 354.952 690.222 354.23C689.79 354.07 689.359 353.853 688.835 353.662C687.605 353.212 686.477 351.665 685.54 353.529C684.175 353.046 683.087 353.389 682.074 351.795C681.955 352.177 681.835 352.559 681.716 352.942C681.548 352.951 681.381 352.961 681.213 352.97C681.161 352.605 681.109 352.241 681.057 351.876C679.858 351.778 678.336 353.277 677.321 353.266C675.619 353.249 671.235 352.667 669.621 352.175C668.764 351.913 668.718 352.694 668.228 351.089C668.036 351.2 667.844 351.312 667.653 351.424C667.533 351.775 667.413 352.127 667.293 352.478C666.194 352.493 664.89 351.946 663.843 351.952C661.934 351.963 659.069 352.931 657.152 352.295C656.672 352.135 656.071 351.41 655.601 351.418C654.916 351.43 654.75 352.633 653.88 352.655C652.383 352.692 649.593 351.294 648.178 351.401C647.757 351.432 647.561 351.88 647.271 351.927C646.053 352.133 645.054 352.096 643.886 352.788C642.633 351.635 642.741 350.147 642.353 348.645C642.058 347.512 641.155 344.885 641.027 343.893C640.937 343.195 641.273 342.298 641.147 341.531C642.649 340.918 643.28 341.592 644.499 342.672C646.751 342.629 649.003 342.586 651.255 342.543C651.46 342.962 651.665 343.381 651.87 343.8C651.87 343.801 651.87 343.802 651.87 343.803C652.735 344.286 653.101 343.207 653.568 342.962C658.033 340.617 666.822 342.453 671.738 342.717C672.797 342.773 676.243 342.209 676.97 342.889C677.158 343.066 677.211 343.713 677.411 343.741C679.2 343.356 680.988 342.972 682.777 342.588C686.456 343.592 690.258 342.763 693.965 342.608C703.993 342.189 713.92 341.68 723.784 341.835C725.69 341.865 728.11 341.381 729.976 341.694C730.755 341.823 731.079 342.86 732.102 342.087C732.113 342.367 732.124 342.646 732.135 342.926C733.028 342.588 733.598 341.952 734.599 341.888C735.442 341.834 737.673 341.793 738.418 341.9C738.804 341.953 738.66 342.475 739.02 342.473C739.092 342.472 739.173 342.461 739.262 342.443C739.937 342.306 741.054 341.742 741.806 341.742C742.577 341.742 743.876 342.344 744.469 342.257C746.604 341.947 748.929 341.055 751.203 341.294C751.832 341.362 752.64 342.039 752.837 342.02C753.221 341.981 753.336 341.323 753.594 341.239C754.905 340.811 756.95 341.593 758.235 341.624C762.424 341.725 766.862 341.438 771.033 341.559C773.668 341.635 778.047 341.519 780.48 342.014C781.005 342.121 780.865 342.842 781.305 342.842C781.794 342.841 782.058 342.355 782.287 342.315C783.867 342.04 787.355 341.547 788.846 342.045C789.13 342.141 789.337 342.705 789.507 342.703C789.593 342.703 789.787 342.318 790.058 342.279C792.444 341.93 794.185 342.155 796.524 342.287C801.003 342.537 806.193 341.82 810.898 342.208C811.924 342.292 812.627 343.409 812.771 343.398C813.087 343.376 813.29 342.624 813.931 342.439C816.061 341.829 818.93 342.63 820.956 342.254C821.958 342.068 823.333 341.114 824.318 340.903C825.105 340.735 826.963 341.109 827.312 340.69C827.524 340.437 827.623 339.625 827.877 339.523ZM801.369 352.172C801.509 350.873 800.036 351.952 800.589 352.65C800.713 352.807 801.333 352.509 801.369 352.172ZM732.386 349.916C732.4 350.287 732.413 350.658 732.427 351.029C732.62 350.875 732.814 350.72 733.007 350.566C732.898 350.343 732.79 350.12 732.681 349.897C732.583 349.903 732.485 349.909 732.386 349.916Z" fill="black"/>
<g id="Group_98">
<path id="final" d="M685.293 391.09C686.673 391.09 687.91 391.272 689.004 391.637C690.124 391.975 691.074 392.457 691.855 393.082C692.637 393.681 693.236 394.384 693.652 395.191C694.069 395.999 694.277 396.858 694.277 397.77C694.277 399.072 693.887 400.139 693.105 400.973C692.35 401.806 691.361 402.223 690.137 402.223C689.616 402.223 689.108 402.132 688.613 401.949C688.118 401.767 687.676 401.507 687.285 401.168C686.921 400.829 686.621 400.413 686.387 399.918C686.178 399.423 686.074 398.863 686.074 398.238C686.074 397.561 686.217 396.884 686.504 396.207C686.79 395.504 687.233 394.892 687.832 394.371C687.103 394.111 686.152 393.98 684.98 393.98C683.991 393.98 683.066 394.111 682.207 394.371C681.374 394.605 680.645 395.178 680.02 396.09C679.421 396.975 678.939 398.29 678.574 400.035C678.236 401.754 678.066 404.098 678.066 407.066V415.23H686.66V418.355H678.066V445.387H684.316V448.512H665.176V445.387H671.035V418.355H665.176V415.23H671.035V411.324C671.035 407.991 671.387 405.061 672.09 402.535C672.793 400.009 673.77 397.9 675.02 396.207C676.296 394.514 677.806 393.238 679.551 392.379C681.296 391.52 683.21 391.09 685.293 391.09ZM702.91 445.387H708.77V448.512H690.02V445.387H695.879V418.355H690.02V415.23H702.91V445.387ZM699.395 404.215C698.717 404.215 698.092 404.111 697.52 403.902C696.973 403.668 696.478 403.342 696.035 402.926C695.618 402.509 695.293 402.027 695.059 401.48C694.824 400.908 694.707 400.27 694.707 399.566C694.707 398.889 694.824 398.264 695.059 397.691C695.319 397.118 695.658 396.624 696.074 396.207C696.491 395.79 696.986 395.465 697.559 395.23C698.132 394.996 698.743 394.879 699.395 394.879C700.046 394.879 700.658 394.996 701.23 395.23C701.803 395.439 702.298 395.751 702.715 396.168C703.158 396.585 703.496 397.079 703.73 397.652C703.965 398.199 704.082 398.824 704.082 399.527C704.082 400.23 703.952 400.868 703.691 401.441C703.457 402.014 703.132 402.509 702.715 402.926C702.298 403.316 701.803 403.629 701.23 403.863C700.658 404.098 700.046 404.215 699.395 404.215ZM725.801 445.387H731.074V448.512H712.91V445.387H718.77V418.355H712.91V415.23H725.801V420.895H725.957C727.025 418.733 728.457 417.079 730.254 415.934C732.051 414.762 734.368 414.176 737.207 414.176C740.775 414.176 743.431 415.1 745.176 416.949C746.921 418.772 747.793 421.389 747.793 424.801V445.387H753.457V448.512H735.488V445.387H740.762V423.707C740.762 421.65 740.28 420.139 739.316 419.176C738.353 418.186 736.999 417.691 735.254 417.691C733.926 417.691 732.689 417.978 731.543 418.551C730.397 419.098 729.395 419.957 728.535 421.129C727.702 422.301 727.038 423.798 726.543 425.621C726.048 427.444 725.801 429.605 725.801 432.105V445.387ZM791.582 448.512C790.488 448.72 789.473 448.85 788.535 448.902C787.598 448.954 786.855 448.98 786.309 448.98C784.928 448.98 783.783 448.863 782.871 448.629C781.986 448.421 781.283 448.108 780.762 447.691C780.241 447.275 779.863 446.767 779.629 446.168C779.395 445.569 779.251 444.905 779.199 444.176H779.004C778.275 445.191 777.493 446.051 776.66 446.754C775.827 447.457 774.954 448.017 774.043 448.434C773.132 448.85 772.194 449.15 771.23 449.332C770.293 449.514 769.342 449.605 768.379 449.605C766.79 449.605 765.371 449.384 764.121 448.941C762.871 448.525 761.816 447.926 760.957 447.145C760.098 446.363 759.447 445.439 759.004 444.371C758.561 443.277 758.34 442.079 758.34 440.777C758.34 437.158 760.111 434.41 763.652 432.535C767.22 430.634 772.35 429.618 779.043 429.488C779.069 428.316 779.082 427.262 779.082 426.324C779.108 425.387 779.121 424.462 779.121 423.551C779.121 421.181 778.626 419.527 777.637 418.59C776.673 417.626 775.137 417.145 773.027 417.145C771.621 417.145 770.358 417.301 769.238 417.613C768.145 417.926 767.246 418.342 766.543 418.863C767.168 419.462 767.624 420.1 767.91 420.777C768.223 421.428 768.379 422.079 768.379 422.73C768.379 423.824 768.027 424.736 767.324 425.465C766.621 426.194 765.658 426.559 764.434 426.559C763.913 426.559 763.405 426.48 762.91 426.324C762.415 426.168 761.986 425.921 761.621 425.582C761.257 425.243 760.957 424.827 760.723 424.332C760.514 423.811 760.41 423.212 760.41 422.535C760.41 421.467 760.697 420.439 761.27 419.449C761.868 418.434 762.741 417.535 763.887 416.754C765.059 415.973 766.504 415.348 768.223 414.879C769.967 414.41 771.999 414.176 774.316 414.176C776.191 414.176 777.845 414.358 779.277 414.723C780.736 415.087 781.96 415.699 782.949 416.559C783.965 417.392 784.72 418.512 785.215 419.918C785.736 421.324 785.996 423.069 785.996 425.152C785.996 425.673 785.983 426.533 785.957 427.73C785.957 428.902 785.944 430.204 785.918 431.637C785.892 433.069 785.866 434.527 785.84 436.012C785.84 437.47 785.84 438.759 785.84 439.879C785.84 441.025 785.866 441.988 785.918 442.77C785.97 443.525 786.1 444.137 786.309 444.605C786.517 445.048 786.829 445.374 787.246 445.582C787.663 445.764 788.249 445.855 789.004 445.855C789.655 445.855 790.514 445.777 791.582 445.621V448.512ZM779.043 432.418C776.204 432.496 773.913 432.717 772.168 433.082C770.423 433.421 769.069 433.915 768.105 434.566C767.142 435.191 766.491 435.96 766.152 436.871C765.814 437.783 765.645 438.824 765.645 439.996C765.645 442.027 766.061 443.551 766.895 444.566C767.754 445.556 768.926 446.051 770.41 446.051C771.217 446.051 772.116 445.882 773.105 445.543C774.121 445.204 775.072 444.658 775.957 443.902C776.842 443.121 777.572 442.105 778.145 440.855C778.743 439.605 779.043 438.056 779.043 436.207V432.418ZM808.184 445.387H814.043V448.512H795.293V445.387H801.152V394.879H795.293V391.754H808.184V445.387Z" fill="#FF0000"/>
<circle id="Ellipse 4" cx="651.102" cy="514.902" r="50" fill="white" fill-opacity="0.5"/>
<path id="Arrow 11" d="M650.805 626.219C651.195 626.609 651.828 626.609 652.219 626.219L658.583 619.855C658.973 619.464 658.973 618.831 658.583 618.441C658.192 618.05 657.559 618.05 657.169 618.441L651.512 624.098L645.855 618.441C645.464 618.05 644.831 618.05 644.441 618.441C644.05 618.831 644.05 619.464 644.441 619.855L650.805 626.219ZM651.512 564.512H650.512V625.512H651.512H652.512V564.512H651.512Z" fill="black"/>
<path id="Vector 52" d="M625.512 575.512L677.012 609.012M625.512 610.512L677.012 577.012" stroke="black" stroke-width="5"/>
<circle id="Ellipse 6" cx="823.102" cy="514.902" r="50" fill="white" fill-opacity="0.5"/>
<path id="Arrow 13" d="M822.394 626.609C822.785 627 823.418 627 823.809 626.609L830.173 620.245C830.563 619.855 830.563 619.222 830.173 618.831C829.782 618.441 829.149 618.441 828.758 618.831L823.102 624.488L817.445 618.831C817.054 618.441 816.421 618.441 816.03 618.831C815.64 619.222 815.64 619.855 816.03 620.245L822.394 626.609ZM823.102 564.902H822.102V625.902H823.102H824.102V564.902H823.102Z" fill="black"/>
<path id="Vector 54" d="M797.102 575.902L848.602 609.402M797.102 610.902L848.602 577.402" stroke="black" stroke-width="5"/>
<circle id="Ellipse 5" cx="544.102" cy="514.902" r="50" fill="white" fill-opacity="0.5"/>
<path id="Arrow 12" d="M543.394 626.609C543.785 627 544.418 627 544.809 626.609L551.173 620.245C551.563 619.855 551.563 619.222 551.173 618.831C550.782 618.441 550.149 618.441 549.758 618.831L544.102 624.488L538.445 618.831C538.054 618.441 537.421 618.441 537.03 618.831C536.64 619.222 536.64 619.855 537.03 620.245L543.394 626.609ZM544.102 564.902H543.102V625.902H544.102H545.102V564.902H544.102Z" fill="black"/>
<path id="Vector 53" d="M518.102 575.902L569.602 609.402M518.102 610.902L569.602 577.402" stroke="black" stroke-width="5"/>
<path id="..." d="M710.477 530.777C709.852 530.777 709.258 530.663 708.695 530.434C708.154 530.225 707.685 529.934 707.289 529.559C706.893 529.163 706.581 528.694 706.352 528.152C706.122 527.611 706.008 527.017 706.008 526.371C706.008 525.725 706.122 525.132 706.352 524.59C706.581 524.027 706.893 523.548 707.289 523.152C707.706 522.757 708.185 522.454 708.727 522.246C709.268 522.017 709.852 521.902 710.477 521.902C711.102 521.902 711.674 522.017 712.195 522.246C712.737 522.454 713.206 522.757 713.602 523.152C714.018 523.527 714.341 523.986 714.57 524.527C714.799 525.069 714.914 525.663 714.914 526.309C714.914 526.975 714.799 527.579 714.57 528.121C714.341 528.663 714.018 529.132 713.602 529.527C713.206 529.923 712.737 530.225 712.195 530.434C711.654 530.663 711.081 530.777 710.477 530.777ZM728.602 530.777C727.977 530.777 727.383 530.663 726.82 530.434C726.279 530.225 725.81 529.934 725.414 529.559C725.018 529.163 724.706 528.694 724.477 528.152C724.247 527.611 724.133 527.017 724.133 526.371C724.133 525.725 724.247 525.132 724.477 524.59C724.706 524.027 725.018 523.548 725.414 523.152C725.831 522.757 726.31 522.454 726.852 522.246C727.393 522.017 727.977 521.902 728.602 521.902C729.227 521.902 729.799 522.017 730.32 522.246C730.862 522.454 731.331 522.757 731.727 523.152C732.143 523.527 732.466 523.986 732.695 524.527C732.924 525.069 733.039 525.663 733.039 526.309C733.039 526.975 732.924 527.579 732.695 528.121C732.466 528.663 732.143 529.132 731.727 529.527C731.331 529.923 730.862 530.225 730.32 530.434C729.779 530.663 729.206 530.777 728.602 530.777ZM746.727 530.777C746.102 530.777 745.508 530.663 744.945 530.434C744.404 530.225 743.935 529.934 743.539 529.559C743.143 529.163 742.831 528.694 742.602 528.152C742.372 527.611 742.258 527.017 742.258 526.371C742.258 525.725 742.372 525.132 742.602 524.59C742.831 524.027 743.143 523.548 743.539 523.152C743.956 522.757 744.435 522.454 744.977 522.246C745.518 522.017 746.102 521.902 746.727 521.902C747.352 521.902 747.924 522.017 748.445 522.246C748.987 522.454 749.456 522.757 749.852 523.152C750.268 523.527 750.591 523.986 750.82 524.527C751.049 525.069 751.164 525.663 751.164 526.309C751.164 526.975 751.049 527.579 750.82 528.121C750.591 528.663 750.268 529.132 749.852 529.527C749.456 529.923 748.987 530.225 748.445 530.434C747.904 530.663 747.331 530.777 746.727 530.777Z" fill="black"/>
</g>
<g id="Group_982">
<circle id="Ellipse 6_2" cx="1162.1" cy="514.902" r="50" fill="white" fill-opacity="0.5"/>
<circle id="Ellipse 5_2" cx="1046.1" cy="514.902" r="50" fill="white" fill-opacity="0.5"/>
<path id="Arrow 12_2" d="M1259.39 637.609C1259.78 638 1260.42 638 1260.81 637.609L1267.17 631.245C1267.56 630.855 1267.56 630.222 1267.17 629.831C1266.78 629.441 1266.15 629.441 1265.76 629.831L1260.1 635.488L1254.44 629.831C1254.05 629.441 1253.42 629.441 1253.03 629.831C1252.64 630.222 1252.64 630.855 1253.03 631.245L1259.39 637.609ZM1260.1 575.902H1259.1V636.902H1260.1H1261.1V575.902H1260.1Z" fill="black"/>
<path id="Vector 53_2" d="M1234.1 586.902L1285.6 620.402M1234.1 621.902L1285.6 588.402" stroke="black" stroke-width="5"/>
<path id="final_2" d="M1007.74 431.34C1007.74 434.309 1007.95 436.743 1008.37 438.645C1008.78 440.52 1009.37 442.004 1010.12 443.098C1010.88 444.165 1011.78 444.908 1012.82 445.324C1013.89 445.715 1015.05 445.91 1016.3 445.91C1018.28 445.91 1019.89 445.48 1021.14 444.621C1022.42 443.762 1023.42 442.629 1024.15 441.223C1024.9 439.816 1025.42 438.228 1025.71 436.457C1026 434.66 1026.14 432.837 1026.14 430.988C1026.14 428.332 1025.89 426.092 1025.4 424.27C1024.93 422.421 1024.27 420.936 1023.41 419.816C1022.55 418.697 1021.52 417.889 1020.32 417.395C1019.15 416.9 1017.86 416.652 1016.45 416.652C1015.2 416.652 1014.04 416.848 1012.98 417.238C1011.91 417.629 1010.98 418.371 1010.2 419.465C1009.42 420.533 1008.81 422.017 1008.37 423.918C1007.95 425.819 1007.74 428.293 1007.74 431.34ZM1033.17 444.777H1039.03V447.902H1026.14V443.176H1025.98C1025.31 444.296 1024.57 445.233 1023.76 445.988C1022.98 446.717 1022.14 447.316 1021.26 447.785C1020.37 448.228 1019.45 448.54 1018.48 448.723C1017.52 448.905 1016.54 448.996 1015.55 448.996C1013.08 448.996 1010.88 448.54 1008.95 447.629C1007.03 446.691 1005.4 445.441 1004.07 443.879C1002.74 442.29 1001.73 440.441 1001.02 438.332C1000.35 436.223 1000.01 433.97 1000.01 431.574C1000.01 429.074 1000.39 426.73 1001.14 424.543C1001.9 422.329 1002.96 420.415 1004.34 418.801C1005.75 417.186 1007.42 415.91 1009.34 414.973C1011.3 414.035 1013.46 413.566 1015.83 413.566C1018.12 413.566 1020.12 414.048 1021.84 415.012C1023.56 415.949 1024.94 417.277 1025.98 418.996H1026.14V394.27H1019.89V391.145H1033.17V444.777ZM1075.16 437.316C1074.33 441.092 1072.72 443.983 1070.32 445.988C1067.92 447.993 1064.81 448.996 1060.98 448.996C1058.35 448.996 1056.01 448.54 1053.95 447.629C1051.9 446.691 1050.15 445.428 1048.72 443.84C1047.29 442.251 1046.19 440.402 1045.44 438.293C1044.68 436.158 1044.3 433.892 1044.3 431.496C1044.3 429.048 1044.7 426.73 1045.48 424.543C1046.26 422.355 1047.36 420.454 1048.8 418.84C1050.26 417.225 1051.99 415.949 1053.99 415.012C1056.02 414.048 1058.29 413.566 1060.79 413.566C1063.08 413.566 1065.14 413.97 1066.96 414.777C1068.78 415.585 1070.33 416.717 1071.61 418.176C1072.89 419.608 1073.86 421.327 1074.54 423.332C1075.24 425.337 1075.62 427.538 1075.67 429.934H1052.12C1052.09 430.376 1052.08 430.676 1052.08 430.832C1052.08 430.962 1052.08 431.04 1052.08 431.066C1052.08 434.139 1052.3 436.639 1052.74 438.566C1053.21 440.493 1053.85 442.004 1054.66 443.098C1055.49 444.165 1056.47 444.895 1057.59 445.285C1058.73 445.676 1059.99 445.871 1061.38 445.871C1062.65 445.871 1063.85 445.702 1064.97 445.363C1066.11 445.025 1067.14 444.491 1068.05 443.762C1068.97 443.007 1069.76 442.043 1070.44 440.871C1071.14 439.673 1071.7 438.241 1072.12 436.574C1072.64 436.626 1073.16 436.717 1073.68 436.848C1074.2 436.978 1074.7 437.134 1075.16 437.316ZM1067.78 426.887C1067.7 424.725 1067.47 422.98 1067.08 421.652C1066.71 420.298 1066.22 419.243 1065.59 418.488C1064.97 417.733 1064.23 417.225 1063.37 416.965C1062.53 416.678 1061.61 416.535 1060.59 416.535C1059.53 416.535 1058.52 416.691 1057.59 417.004C1056.67 417.316 1055.85 417.863 1055.12 418.645C1054.4 419.426 1053.78 420.48 1053.29 421.809C1052.82 423.137 1052.49 424.829 1052.31 426.887H1067.78ZM1115.95 447.902C1114.85 448.111 1113.84 448.241 1112.9 448.293C1111.96 448.345 1111.22 448.371 1110.67 448.371C1109.29 448.371 1108.15 448.254 1107.23 448.02C1106.35 447.811 1105.65 447.499 1105.12 447.082C1104.6 446.665 1104.23 446.158 1103.99 445.559C1103.76 444.96 1103.61 444.296 1103.56 443.566H1103.37C1102.64 444.582 1101.86 445.441 1101.02 446.145C1100.19 446.848 1099.32 447.408 1098.41 447.824C1097.49 448.241 1096.56 448.54 1095.59 448.723C1094.66 448.905 1093.71 448.996 1092.74 448.996C1091.15 448.996 1089.73 448.775 1088.48 448.332C1087.23 447.915 1086.18 447.316 1085.32 446.535C1084.46 445.754 1083.81 444.829 1083.37 443.762C1082.92 442.668 1082.7 441.47 1082.7 440.168C1082.7 436.548 1084.47 433.801 1088.02 431.926C1091.58 430.025 1096.71 429.009 1103.41 428.879C1103.43 427.707 1103.45 426.652 1103.45 425.715C1103.47 424.777 1103.48 423.853 1103.48 422.941C1103.48 420.572 1102.99 418.918 1102 417.98C1101.04 417.017 1099.5 416.535 1097.39 416.535C1095.98 416.535 1094.72 416.691 1093.6 417.004C1092.51 417.316 1091.61 417.733 1090.91 418.254C1091.53 418.853 1091.99 419.491 1092.27 420.168C1092.59 420.819 1092.74 421.47 1092.74 422.121C1092.74 423.215 1092.39 424.126 1091.69 424.855C1090.98 425.585 1090.02 425.949 1088.8 425.949C1088.28 425.949 1087.77 425.871 1087.27 425.715C1086.78 425.559 1086.35 425.311 1085.98 424.973C1085.62 424.634 1085.32 424.217 1085.09 423.723C1084.88 423.202 1084.77 422.603 1084.77 421.926C1084.77 420.858 1085.06 419.829 1085.63 418.84C1086.23 417.824 1087.1 416.926 1088.25 416.145C1089.42 415.363 1090.87 414.738 1092.59 414.27C1094.33 413.801 1096.36 413.566 1098.68 413.566C1100.55 413.566 1102.21 413.749 1103.64 414.113C1105.1 414.478 1106.32 415.09 1107.31 415.949C1108.33 416.783 1109.08 417.902 1109.58 419.309C1110.1 420.715 1110.36 422.46 1110.36 424.543C1110.36 425.064 1110.35 425.923 1110.32 427.121C1110.32 428.293 1110.31 429.595 1110.28 431.027C1110.26 432.46 1110.23 433.918 1110.2 435.402C1110.2 436.861 1110.2 438.15 1110.2 439.27C1110.2 440.415 1110.23 441.379 1110.28 442.16C1110.33 442.915 1110.46 443.527 1110.67 443.996C1110.88 444.439 1111.19 444.764 1111.61 444.973C1112.03 445.155 1112.61 445.246 1113.37 445.246C1114.02 445.246 1114.88 445.168 1115.95 445.012V447.902ZM1103.41 431.809C1100.57 431.887 1098.28 432.108 1096.53 432.473C1094.79 432.811 1093.43 433.306 1092.47 433.957C1091.51 434.582 1090.85 435.35 1090.52 436.262C1090.18 437.173 1090.01 438.215 1090.01 439.387C1090.01 441.418 1090.42 442.941 1091.26 443.957C1092.12 444.947 1093.29 445.441 1094.77 445.441C1095.58 445.441 1096.48 445.272 1097.47 444.934C1098.48 444.595 1099.43 444.048 1100.32 443.293C1101.21 442.512 1101.93 441.496 1102.51 440.246C1103.11 438.996 1103.41 437.447 1103.41 435.598V431.809ZM1128.76 431.34C1128.76 434.309 1128.97 436.743 1129.38 438.645C1129.8 440.52 1130.39 442.004 1131.14 443.098C1131.9 444.165 1132.79 444.908 1133.84 445.324C1134.9 445.715 1136.06 445.91 1137.31 445.91C1139.29 445.91 1140.91 445.48 1142.16 444.621C1143.43 443.762 1144.43 442.629 1145.16 441.223C1145.92 439.816 1146.44 438.228 1146.73 436.457C1147.01 434.66 1147.16 432.837 1147.16 430.988C1147.16 428.332 1146.91 426.092 1146.41 424.27C1145.95 422.421 1145.28 420.936 1144.42 419.816C1143.56 418.697 1142.53 417.889 1141.34 417.395C1140.16 416.9 1138.88 416.652 1137.47 416.652C1136.22 416.652 1135.06 416.848 1133.99 417.238C1132.92 417.629 1132 418.371 1131.22 419.465C1130.44 420.533 1129.83 422.017 1129.38 423.918C1128.97 425.819 1128.76 428.293 1128.76 431.34ZM1154.19 444.777H1160.05V447.902H1147.16V443.176H1147C1146.32 444.296 1145.58 445.233 1144.77 445.988C1143.99 446.717 1143.16 447.316 1142.27 447.785C1141.39 448.228 1140.46 448.54 1139.5 448.723C1138.54 448.905 1137.56 448.996 1136.57 448.996C1134.1 448.996 1131.9 448.54 1129.97 447.629C1128.04 446.691 1126.41 445.441 1125.09 443.879C1123.76 442.29 1122.74 440.441 1122.04 438.332C1121.36 436.223 1121.02 433.97 1121.02 431.574C1121.02 429.074 1121.4 426.73 1122.16 424.543C1122.91 422.329 1123.98 420.415 1125.36 418.801C1126.77 417.186 1128.43 415.91 1130.36 414.973C1132.31 414.035 1134.47 413.566 1136.84 413.566C1139.14 413.566 1141.14 414.048 1142.86 415.012C1144.58 415.949 1145.96 417.277 1147 418.996H1147.16V394.27H1140.91V391.145H1154.19V444.777ZM1176.84 444.777H1182.7V447.902H1163.95V444.777H1169.81V394.27H1163.95V391.145H1176.84V444.777ZM1187.98 431.574C1187.98 429.126 1188.35 426.809 1189.11 424.621C1189.89 422.434 1191.02 420.52 1192.51 418.879C1193.99 417.238 1195.8 415.949 1197.94 415.012C1200.1 414.048 1202.55 413.566 1205.28 413.566C1207.99 413.566 1210.39 414.035 1212.47 414.973C1214.55 415.884 1216.3 417.134 1217.7 418.723C1219.11 420.311 1220.16 422.16 1220.87 424.27C1221.6 426.379 1221.96 428.618 1221.96 430.988C1221.96 433.436 1221.57 435.754 1220.79 437.941C1220.03 440.129 1218.91 442.043 1217.43 443.684C1215.95 445.324 1214.12 446.626 1211.96 447.59C1209.83 448.527 1207.39 448.996 1204.66 448.996C1201.95 448.996 1199.55 448.54 1197.47 447.629C1195.39 446.691 1193.64 445.428 1192.23 443.84C1190.83 442.251 1189.76 440.402 1189.03 438.293C1188.33 436.184 1187.98 433.944 1187.98 431.574ZM1195.71 431.418C1195.71 434.257 1195.91 436.613 1196.3 438.488C1196.69 440.363 1197.26 441.861 1198.02 442.98C1198.77 444.1 1199.72 444.895 1200.87 445.363C1202.01 445.806 1203.35 446.027 1204.89 446.027C1206.4 446.027 1207.74 445.793 1208.91 445.324C1210.09 444.855 1211.06 444.061 1211.84 442.941C1212.62 441.796 1213.21 440.272 1213.6 438.371C1214.02 436.444 1214.23 434.035 1214.23 431.145C1214.23 428.306 1214.03 425.949 1213.64 424.074C1213.25 422.199 1212.68 420.702 1211.92 419.582C1211.17 418.462 1210.2 417.681 1209.03 417.238C1207.89 416.77 1206.56 416.535 1205.05 416.535C1203.51 416.535 1202.16 416.77 1200.98 417.238C1199.84 417.707 1198.88 418.514 1198.09 419.66C1197.31 420.78 1196.71 422.303 1196.3 424.23C1195.91 426.132 1195.71 428.527 1195.71 431.418ZM1259.38 437.082C1258.52 441.014 1256.91 443.983 1254.54 445.988C1252.2 447.993 1249.15 448.996 1245.4 448.996C1242.79 448.996 1240.45 448.54 1238.37 447.629C1236.31 446.691 1234.55 445.428 1233.09 443.84C1231.66 442.251 1230.55 440.402 1229.77 438.293C1228.99 436.184 1228.6 433.944 1228.6 431.574C1228.6 429.1 1229.01 426.77 1229.81 424.582C1230.65 422.395 1231.82 420.493 1233.33 418.879C1234.84 417.238 1236.65 415.949 1238.76 415.012C1240.89 414.048 1243.26 413.566 1245.87 413.566C1247.72 413.566 1249.41 413.814 1250.95 414.309C1252.51 414.777 1253.85 415.415 1254.97 416.223C1256.09 417.03 1256.96 417.967 1257.59 419.035C1258.21 420.103 1258.52 421.223 1258.52 422.395C1258.52 423.228 1258.38 423.931 1258.09 424.504C1257.81 425.051 1257.44 425.493 1257 425.832C1256.58 426.171 1256.11 426.418 1255.59 426.574C1255.07 426.73 1254.58 426.809 1254.11 426.809C1252.83 426.809 1251.82 426.405 1251.06 425.598C1250.33 424.79 1249.97 423.827 1249.97 422.707C1249.97 422.03 1250.14 421.301 1250.48 420.52C1250.82 419.738 1251.34 419.009 1252.04 418.332C1251.15 417.629 1250.12 417.16 1248.95 416.926C1247.81 416.665 1246.75 416.535 1245.79 416.535C1244.57 416.535 1243.38 416.704 1242.23 417.043C1241.11 417.355 1240.11 418.046 1239.23 419.113C1238.37 420.155 1237.68 421.652 1237.16 423.605C1236.64 425.559 1236.38 428.163 1236.38 431.418C1236.38 434.439 1236.61 436.887 1237.08 438.762C1237.57 440.637 1238.24 442.108 1239.07 443.176C1239.93 444.217 1240.93 444.934 1242.08 445.324C1243.22 445.689 1244.47 445.871 1245.83 445.871C1247.05 445.871 1248.21 445.702 1249.3 445.363C1250.4 445.025 1251.39 444.491 1252.27 443.762C1253.18 443.007 1253.98 442.03 1254.66 440.832C1255.36 439.608 1255.92 438.111 1256.34 436.34C1256.86 436.392 1257.38 436.483 1257.9 436.613C1258.42 436.743 1258.91 436.9 1259.38 437.082ZM1276.61 444.777H1282.27V447.902H1263.72V444.777H1269.58V394.27H1263.72V391.145H1276.61V444.777ZM1278.33 429.777L1290.12 417.746H1284.38V414.621H1302.16V417.746H1294.34L1285.16 427.355L1300.32 444.777H1305.09V447.902H1286.14V444.777H1291.41L1278.33 429.777Z" fill="#FF0000"/>
<circle id="Ellipse 7" cx="1369.1" cy="514.902" r="50" fill="white" fill-opacity="0.5"/>
<path id="..._2" d="M1240.48 530.777C1239.85 530.777 1239.26 530.663 1238.7 530.434C1238.15 530.225 1237.68 529.934 1237.29 529.559C1236.89 529.163 1236.58 528.694 1236.35 528.152C1236.12 527.611 1236.01 527.017 1236.01 526.371C1236.01 525.725 1236.12 525.132 1236.35 524.59C1236.58 524.027 1236.89 523.548 1237.29 523.152C1237.71 522.757 1238.18 522.454 1238.73 522.246C1239.27 522.017 1239.85 521.902 1240.48 521.902C1241.1 521.902 1241.67 522.017 1242.2 522.246C1242.74 522.454 1243.21 522.757 1243.6 523.152C1244.02 523.527 1244.34 523.986 1244.57 524.527C1244.8 525.069 1244.91 525.663 1244.91 526.309C1244.91 526.975 1244.8 527.579 1244.57 528.121C1244.34 528.663 1244.02 529.132 1243.6 529.527C1243.21 529.923 1242.74 530.225 1242.2 530.434C1241.65 530.663 1241.08 530.777 1240.48 530.777ZM1258.6 530.777C1257.98 530.777 1257.38 530.663 1256.82 530.434C1256.28 530.225 1255.81 529.934 1255.41 529.559C1255.02 529.163 1254.71 528.694 1254.48 528.152C1254.25 527.611 1254.13 527.017 1254.13 526.371C1254.13 525.725 1254.25 525.132 1254.48 524.59C1254.71 524.027 1255.02 523.548 1255.41 523.152C1255.83 522.757 1256.31 522.454 1256.85 522.246C1257.39 522.017 1257.98 521.902 1258.6 521.902C1259.23 521.902 1259.8 522.017 1260.32 522.246C1260.86 522.454 1261.33 522.757 1261.73 523.152C1262.14 523.527 1262.47 523.986 1262.7 524.527C1262.92 525.069 1263.04 525.663 1263.04 526.309C1263.04 526.975 1262.92 527.579 1262.7 528.121C1262.47 528.663 1262.14 529.132 1261.73 529.527C1261.33 529.923 1260.86 530.225 1260.32 530.434C1259.78 530.663 1259.21 530.777 1258.6 530.777ZM1276.73 530.777C1276.1 530.777 1275.51 530.663 1274.95 530.434C1274.4 530.225 1273.93 529.934 1273.54 529.559C1273.14 529.163 1272.83 528.694 1272.6 528.152C1272.37 527.611 1272.26 527.017 1272.26 526.371C1272.26 525.725 1272.37 525.132 1272.6 524.59C1272.83 524.027 1273.14 523.548 1273.54 523.152C1273.96 522.757 1274.43 522.454 1274.98 522.246C1275.52 522.017 1276.1 521.902 1276.73 521.902C1277.35 521.902 1277.92 522.017 1278.45 522.246C1278.99 522.454 1279.46 522.757 1279.85 523.152C1280.27 523.527 1280.59 523.986 1280.82 524.527C1281.05 525.069 1281.16 525.663 1281.16 526.309C1281.16 526.975 1281.05 527.579 1280.82 528.121C1280.59 528.663 1280.27 529.132 1279.85 529.527C1279.46 529.923 1278.99 530.225 1278.45 530.434C1277.9 530.663 1277.33 530.777 1276.73 530.777Z" fill="black"/>
</g>
</g>
</svg>
